G75*
%MOIN*%
%OFA0B0*%
%FSLAX24Y24*%
%IPPOS*%
%LPD*%
%AMOC8*
5,1,8,0,0,1.08239X$1,22.5*
%
%ADD10C,0.0000*%
%ADD11C,0.0030*%
%ADD12C,0.0040*%
%ADD13C,0.0060*%
%ADD14C,0.0080*%
D10*
X006274Y005880D02*
X029286Y005880D01*
X029285Y005879D02*
X029322Y005885D01*
X029358Y005895D01*
X029393Y005909D01*
X029426Y005926D01*
X029458Y005946D01*
X029486Y005970D01*
X029513Y005997D01*
X029536Y006026D01*
X029556Y006057D01*
X029573Y006091D01*
X029586Y006126D01*
X029596Y006162D01*
X029601Y006199D01*
X029603Y006236D01*
X029601Y006273D01*
X029601Y006274D02*
X029601Y008853D01*
X029603Y008873D01*
X029608Y008893D01*
X029617Y008912D01*
X029629Y008929D01*
X029643Y008943D01*
X029660Y008955D01*
X029679Y008964D01*
X029699Y008969D01*
X029719Y008971D01*
X029739Y008969D01*
X029759Y008964D01*
X029778Y008955D01*
X029795Y008943D01*
X029809Y008929D01*
X029821Y008912D01*
X029830Y008893D01*
X029835Y008873D01*
X029837Y008853D01*
X029837Y006195D01*
X029846Y006158D01*
X029858Y006122D01*
X029874Y006087D01*
X029893Y006053D01*
X029915Y006022D01*
X029940Y005993D01*
X029968Y005967D01*
X029998Y005944D01*
X030031Y005924D01*
X030065Y005907D01*
X030101Y005893D01*
X030138Y005883D01*
X030176Y005877D01*
X030214Y005874D01*
X030252Y005875D01*
X030290Y005880D01*
X039423Y005880D01*
X039423Y005879D02*
X039460Y005885D01*
X039496Y005895D01*
X039531Y005909D01*
X039564Y005926D01*
X039596Y005946D01*
X039624Y005970D01*
X039651Y005997D01*
X039674Y006026D01*
X039694Y006057D01*
X039711Y006091D01*
X039724Y006126D01*
X039734Y006162D01*
X039739Y006199D01*
X039741Y006236D01*
X039739Y006273D01*
X039738Y006274D02*
X039738Y029286D01*
X039739Y029285D02*
X039733Y029322D01*
X039723Y029358D01*
X039709Y029393D01*
X039692Y029426D01*
X039672Y029458D01*
X039648Y029486D01*
X039621Y029513D01*
X039592Y029536D01*
X039561Y029556D01*
X039527Y029573D01*
X039492Y029586D01*
X039456Y029596D01*
X039419Y029601D01*
X039382Y029603D01*
X039345Y029601D01*
X030211Y029601D01*
X030174Y029598D01*
X030136Y029592D01*
X030100Y029581D01*
X030065Y029568D01*
X030031Y029551D01*
X030000Y029531D01*
X029970Y029507D01*
X029943Y029481D01*
X029918Y029453D01*
X029896Y029422D01*
X029878Y029389D01*
X029863Y029355D01*
X029851Y029319D01*
X029843Y029282D01*
X029838Y029245D01*
X029837Y029207D01*
X029837Y028892D01*
X029835Y028872D01*
X029830Y028852D01*
X029821Y028833D01*
X029809Y028816D01*
X029795Y028802D01*
X029778Y028790D01*
X029759Y028781D01*
X029739Y028776D01*
X029719Y028774D01*
X029699Y028776D01*
X029679Y028781D01*
X029660Y028790D01*
X029643Y028802D01*
X029629Y028816D01*
X029617Y028833D01*
X029608Y028852D01*
X029603Y028872D01*
X029601Y028892D01*
X029601Y035565D01*
X029595Y035602D01*
X029585Y035638D01*
X029571Y035673D01*
X029554Y035706D01*
X029534Y035738D01*
X029510Y035766D01*
X029483Y035793D01*
X029454Y035816D01*
X029423Y035836D01*
X029389Y035853D01*
X029354Y035866D01*
X029318Y035876D01*
X029281Y035881D01*
X029244Y035883D01*
X029207Y035881D01*
X029207Y035880D02*
X006195Y035880D01*
X006195Y035881D02*
X006158Y035875D01*
X006122Y035865D01*
X006087Y035851D01*
X006054Y035834D01*
X006022Y035814D01*
X005994Y035790D01*
X005967Y035763D01*
X005944Y035734D01*
X005924Y035703D01*
X005907Y035669D01*
X005894Y035634D01*
X005884Y035598D01*
X005879Y035561D01*
X005877Y035524D01*
X005879Y035487D01*
X005880Y035486D02*
X005880Y026353D01*
X005879Y026353D02*
X005885Y026318D01*
X005894Y026284D01*
X005906Y026251D01*
X005921Y026220D01*
X005940Y026190D01*
X005961Y026162D01*
X005985Y026136D01*
X006011Y026113D01*
X006039Y026093D01*
X006070Y026075D01*
X006102Y026060D01*
X006135Y026049D01*
X006169Y026041D01*
X006203Y026036D01*
X006238Y026035D01*
X006273Y026037D01*
X006274Y026038D02*
X007849Y026038D01*
X007869Y026036D01*
X007889Y026031D01*
X007908Y026022D01*
X007925Y026010D01*
X007939Y025996D01*
X007951Y025979D01*
X007960Y025960D01*
X007965Y025940D01*
X007967Y025920D01*
X007965Y025900D01*
X007960Y025880D01*
X007951Y025861D01*
X007939Y025844D01*
X007925Y025830D01*
X007908Y025818D01*
X007889Y025809D01*
X007869Y025804D01*
X007849Y025802D01*
X007849Y025801D02*
X006195Y025801D01*
X006195Y025802D02*
X006158Y025796D01*
X006122Y025786D01*
X006087Y025772D01*
X006054Y025755D01*
X006022Y025735D01*
X005994Y025711D01*
X005967Y025684D01*
X005944Y025655D01*
X005924Y025624D01*
X005907Y025590D01*
X005894Y025555D01*
X005884Y025519D01*
X005879Y025482D01*
X005877Y025445D01*
X005879Y025408D01*
X005880Y025408D02*
X005880Y016274D01*
X005879Y016274D02*
X005885Y016239D01*
X005894Y016205D01*
X005906Y016172D01*
X005921Y016141D01*
X005940Y016111D01*
X005961Y016083D01*
X005985Y016057D01*
X006011Y016034D01*
X006039Y016014D01*
X006070Y015996D01*
X006102Y015981D01*
X006135Y015970D01*
X006169Y015962D01*
X006203Y015957D01*
X006238Y015956D01*
X006273Y015958D01*
X006274Y015959D02*
X007849Y015959D01*
X007869Y015957D01*
X007889Y015952D01*
X007908Y015943D01*
X007925Y015931D01*
X007939Y015917D01*
X007951Y015900D01*
X007960Y015881D01*
X007965Y015861D01*
X007967Y015841D01*
X007965Y015821D01*
X007960Y015801D01*
X007951Y015782D01*
X007939Y015765D01*
X007925Y015751D01*
X007908Y015739D01*
X007889Y015730D01*
X007869Y015725D01*
X007849Y015723D01*
X006195Y015723D01*
X006158Y015717D01*
X006122Y015707D01*
X006087Y015693D01*
X006054Y015676D01*
X006022Y015656D01*
X005994Y015632D01*
X005967Y015605D01*
X005944Y015576D01*
X005924Y015545D01*
X005907Y015511D01*
X005894Y015476D01*
X005884Y015440D01*
X005879Y015403D01*
X005877Y015366D01*
X005879Y015329D01*
X005880Y015329D02*
X005880Y006195D01*
X005879Y006195D02*
X005885Y006160D01*
X005894Y006126D01*
X005906Y006093D01*
X005921Y006062D01*
X005940Y006032D01*
X005961Y006004D01*
X005985Y005978D01*
X006011Y005955D01*
X006039Y005935D01*
X006070Y005917D01*
X006102Y005902D01*
X006135Y005891D01*
X006169Y005883D01*
X006203Y005878D01*
X006238Y005877D01*
X006273Y005879D01*
X006372Y006864D02*
X006374Y006908D01*
X006380Y006952D01*
X006390Y006995D01*
X006403Y007037D01*
X006421Y007077D01*
X006442Y007116D01*
X006466Y007153D01*
X006493Y007188D01*
X006524Y007220D01*
X006557Y007249D01*
X006593Y007275D01*
X006631Y007297D01*
X006671Y007316D01*
X006712Y007332D01*
X006755Y007344D01*
X006798Y007352D01*
X006842Y007356D01*
X006886Y007356D01*
X006930Y007352D01*
X006973Y007344D01*
X007016Y007332D01*
X007057Y007316D01*
X007097Y007297D01*
X007135Y007275D01*
X007171Y007249D01*
X007204Y007220D01*
X007235Y007188D01*
X007262Y007153D01*
X007286Y007116D01*
X007307Y007077D01*
X007325Y007037D01*
X007338Y006995D01*
X007348Y006952D01*
X007354Y006908D01*
X007356Y006864D01*
X007354Y006820D01*
X007348Y006776D01*
X007338Y006733D01*
X007325Y006691D01*
X007307Y006651D01*
X007286Y006612D01*
X007262Y006575D01*
X007235Y006540D01*
X007204Y006508D01*
X007171Y006479D01*
X007135Y006453D01*
X007097Y006431D01*
X007057Y006412D01*
X007016Y006396D01*
X006973Y006384D01*
X006930Y006376D01*
X006886Y006372D01*
X006842Y006372D01*
X006798Y006376D01*
X006755Y006384D01*
X006712Y006396D01*
X006671Y006412D01*
X006631Y006431D01*
X006593Y006453D01*
X006557Y006479D01*
X006524Y006508D01*
X006493Y006540D01*
X006466Y006575D01*
X006442Y006612D01*
X006421Y006651D01*
X006403Y006691D01*
X006390Y006733D01*
X006380Y006776D01*
X006374Y006820D01*
X006372Y006864D01*
X006609Y008427D02*
X006611Y008452D01*
X006617Y008476D01*
X006626Y008498D01*
X006639Y008519D01*
X006655Y008538D01*
X006674Y008554D01*
X006695Y008567D01*
X006717Y008576D01*
X006741Y008582D01*
X006766Y008584D01*
X006791Y008582D01*
X006815Y008576D01*
X006837Y008567D01*
X006858Y008554D01*
X006877Y008538D01*
X006893Y008519D01*
X006906Y008498D01*
X006915Y008476D01*
X006921Y008452D01*
X006923Y008427D01*
X006921Y008402D01*
X006915Y008378D01*
X006906Y008356D01*
X006893Y008335D01*
X006877Y008316D01*
X006858Y008300D01*
X006837Y008287D01*
X006815Y008278D01*
X006791Y008272D01*
X006766Y008270D01*
X006741Y008272D01*
X006717Y008278D01*
X006695Y008287D01*
X006674Y008300D01*
X006655Y008316D01*
X006639Y008335D01*
X006626Y008356D01*
X006617Y008378D01*
X006611Y008402D01*
X006609Y008427D01*
X006766Y008427D02*
X006768Y008452D01*
X006774Y008476D01*
X006783Y008498D01*
X006796Y008519D01*
X006812Y008538D01*
X006831Y008554D01*
X006852Y008567D01*
X006874Y008576D01*
X006898Y008582D01*
X006923Y008584D01*
X006948Y008582D01*
X006972Y008576D01*
X006994Y008567D01*
X007015Y008554D01*
X007034Y008538D01*
X007050Y008519D01*
X007063Y008498D01*
X007072Y008476D01*
X007078Y008452D01*
X007080Y008427D01*
X007078Y008402D01*
X007072Y008378D01*
X007063Y008356D01*
X007050Y008335D01*
X007034Y008316D01*
X007015Y008300D01*
X006994Y008287D01*
X006972Y008278D01*
X006948Y008272D01*
X006923Y008270D01*
X006898Y008272D01*
X006874Y008278D01*
X006852Y008287D01*
X006831Y008300D01*
X006812Y008316D01*
X006796Y008335D01*
X006783Y008356D01*
X006774Y008378D01*
X006768Y008402D01*
X006766Y008427D01*
X007081Y008427D02*
X007083Y008452D01*
X007089Y008476D01*
X007098Y008498D01*
X007111Y008519D01*
X007127Y008538D01*
X007146Y008554D01*
X007167Y008567D01*
X007189Y008576D01*
X007213Y008582D01*
X007238Y008584D01*
X007263Y008582D01*
X007287Y008576D01*
X007309Y008567D01*
X007330Y008554D01*
X007349Y008538D01*
X007365Y008519D01*
X007378Y008498D01*
X007387Y008476D01*
X007393Y008452D01*
X007395Y008427D01*
X007393Y008402D01*
X007387Y008378D01*
X007378Y008356D01*
X007365Y008335D01*
X007349Y008316D01*
X007330Y008300D01*
X007309Y008287D01*
X007287Y008278D01*
X007263Y008272D01*
X007238Y008270D01*
X007213Y008272D01*
X007189Y008278D01*
X007167Y008287D01*
X007146Y008300D01*
X007127Y008316D01*
X007111Y008335D01*
X007098Y008356D01*
X007089Y008378D01*
X007083Y008402D01*
X007081Y008427D01*
X007239Y008427D02*
X007241Y008452D01*
X007247Y008476D01*
X007256Y008498D01*
X007269Y008519D01*
X007285Y008538D01*
X007304Y008554D01*
X007325Y008567D01*
X007347Y008576D01*
X007371Y008582D01*
X007396Y008584D01*
X007421Y008582D01*
X007445Y008576D01*
X007467Y008567D01*
X007488Y008554D01*
X007507Y008538D01*
X007523Y008519D01*
X007536Y008498D01*
X007545Y008476D01*
X007551Y008452D01*
X007553Y008427D01*
X007551Y008402D01*
X007545Y008378D01*
X007536Y008356D01*
X007523Y008335D01*
X007507Y008316D01*
X007488Y008300D01*
X007467Y008287D01*
X007445Y008278D01*
X007421Y008272D01*
X007396Y008270D01*
X007371Y008272D01*
X007347Y008278D01*
X007325Y008287D01*
X007304Y008300D01*
X007285Y008316D01*
X007269Y008335D01*
X007256Y008356D01*
X007247Y008378D01*
X007241Y008402D01*
X007239Y008427D01*
X007081Y013033D02*
X007083Y013058D01*
X007089Y013082D01*
X007098Y013104D01*
X007111Y013125D01*
X007127Y013144D01*
X007146Y013160D01*
X007167Y013173D01*
X007189Y013182D01*
X007213Y013188D01*
X007238Y013190D01*
X007263Y013188D01*
X007287Y013182D01*
X007309Y013173D01*
X007330Y013160D01*
X007349Y013144D01*
X007365Y013125D01*
X007378Y013104D01*
X007387Y013082D01*
X007393Y013058D01*
X007395Y013033D01*
X007393Y013008D01*
X007387Y012984D01*
X007378Y012962D01*
X007365Y012941D01*
X007349Y012922D01*
X007330Y012906D01*
X007309Y012893D01*
X007287Y012884D01*
X007263Y012878D01*
X007238Y012876D01*
X007213Y012878D01*
X007189Y012884D01*
X007167Y012893D01*
X007146Y012906D01*
X007127Y012922D01*
X007111Y012941D01*
X007098Y012962D01*
X007089Y012984D01*
X007083Y013008D01*
X007081Y013033D01*
X006766Y013033D02*
X006768Y013058D01*
X006774Y013082D01*
X006783Y013104D01*
X006796Y013125D01*
X006812Y013144D01*
X006831Y013160D01*
X006852Y013173D01*
X006874Y013182D01*
X006898Y013188D01*
X006923Y013190D01*
X006948Y013188D01*
X006972Y013182D01*
X006994Y013173D01*
X007015Y013160D01*
X007034Y013144D01*
X007050Y013125D01*
X007063Y013104D01*
X007072Y013082D01*
X007078Y013058D01*
X007080Y013033D01*
X007078Y013008D01*
X007072Y012984D01*
X007063Y012962D01*
X007050Y012941D01*
X007034Y012922D01*
X007015Y012906D01*
X006994Y012893D01*
X006972Y012884D01*
X006948Y012878D01*
X006923Y012876D01*
X006898Y012878D01*
X006874Y012884D01*
X006852Y012893D01*
X006831Y012906D01*
X006812Y012922D01*
X006796Y012941D01*
X006783Y012962D01*
X006774Y012984D01*
X006768Y013008D01*
X006766Y013033D01*
X006609Y013033D02*
X006611Y013058D01*
X006617Y013082D01*
X006626Y013104D01*
X006639Y013125D01*
X006655Y013144D01*
X006674Y013160D01*
X006695Y013173D01*
X006717Y013182D01*
X006741Y013188D01*
X006766Y013190D01*
X006791Y013188D01*
X006815Y013182D01*
X006837Y013173D01*
X006858Y013160D01*
X006877Y013144D01*
X006893Y013125D01*
X006906Y013104D01*
X006915Y013082D01*
X006921Y013058D01*
X006923Y013033D01*
X006921Y013008D01*
X006915Y012984D01*
X006906Y012962D01*
X006893Y012941D01*
X006877Y012922D01*
X006858Y012906D01*
X006837Y012893D01*
X006815Y012884D01*
X006791Y012878D01*
X006766Y012876D01*
X006741Y012878D01*
X006717Y012884D01*
X006695Y012893D01*
X006674Y012906D01*
X006655Y012922D01*
X006639Y012941D01*
X006626Y012962D01*
X006617Y012984D01*
X006611Y013008D01*
X006609Y013033D01*
X007239Y013033D02*
X007241Y013058D01*
X007247Y013082D01*
X007256Y013104D01*
X007269Y013125D01*
X007285Y013144D01*
X007304Y013160D01*
X007325Y013173D01*
X007347Y013182D01*
X007371Y013188D01*
X007396Y013190D01*
X007421Y013188D01*
X007445Y013182D01*
X007467Y013173D01*
X007488Y013160D01*
X007507Y013144D01*
X007523Y013125D01*
X007536Y013104D01*
X007545Y013082D01*
X007551Y013058D01*
X007553Y013033D01*
X007551Y013008D01*
X007545Y012984D01*
X007536Y012962D01*
X007523Y012941D01*
X007507Y012922D01*
X007488Y012906D01*
X007467Y012893D01*
X007445Y012884D01*
X007421Y012878D01*
X007396Y012876D01*
X007371Y012878D01*
X007347Y012884D01*
X007325Y012893D01*
X007304Y012906D01*
X007285Y012922D01*
X007269Y012941D01*
X007256Y012962D01*
X007247Y012984D01*
X007241Y013008D01*
X007239Y013033D01*
X006372Y014738D02*
X006374Y014782D01*
X006380Y014826D01*
X006390Y014869D01*
X006403Y014911D01*
X006421Y014951D01*
X006442Y014990D01*
X006466Y015027D01*
X006493Y015062D01*
X006524Y015094D01*
X006557Y015123D01*
X006593Y015149D01*
X006631Y015171D01*
X006671Y015190D01*
X006712Y015206D01*
X006755Y015218D01*
X006798Y015226D01*
X006842Y015230D01*
X006886Y015230D01*
X006930Y015226D01*
X006973Y015218D01*
X007016Y015206D01*
X007057Y015190D01*
X007097Y015171D01*
X007135Y015149D01*
X007171Y015123D01*
X007204Y015094D01*
X007235Y015062D01*
X007262Y015027D01*
X007286Y014990D01*
X007307Y014951D01*
X007325Y014911D01*
X007338Y014869D01*
X007348Y014826D01*
X007354Y014782D01*
X007356Y014738D01*
X007354Y014694D01*
X007348Y014650D01*
X007338Y014607D01*
X007325Y014565D01*
X007307Y014525D01*
X007286Y014486D01*
X007262Y014449D01*
X007235Y014414D01*
X007204Y014382D01*
X007171Y014353D01*
X007135Y014327D01*
X007097Y014305D01*
X007057Y014286D01*
X007016Y014270D01*
X006973Y014258D01*
X006930Y014250D01*
X006886Y014246D01*
X006842Y014246D01*
X006798Y014250D01*
X006755Y014258D01*
X006712Y014270D01*
X006671Y014286D01*
X006631Y014305D01*
X006593Y014327D01*
X006557Y014353D01*
X006524Y014382D01*
X006493Y014414D01*
X006466Y014449D01*
X006442Y014486D01*
X006421Y014525D01*
X006403Y014565D01*
X006390Y014607D01*
X006380Y014650D01*
X006374Y014694D01*
X006372Y014738D01*
X006372Y016943D02*
X006374Y016987D01*
X006380Y017031D01*
X006390Y017074D01*
X006403Y017116D01*
X006421Y017156D01*
X006442Y017195D01*
X006466Y017232D01*
X006493Y017267D01*
X006524Y017299D01*
X006557Y017328D01*
X006593Y017354D01*
X006631Y017376D01*
X006671Y017395D01*
X006712Y017411D01*
X006755Y017423D01*
X006798Y017431D01*
X006842Y017435D01*
X006886Y017435D01*
X006930Y017431D01*
X006973Y017423D01*
X007016Y017411D01*
X007057Y017395D01*
X007097Y017376D01*
X007135Y017354D01*
X007171Y017328D01*
X007204Y017299D01*
X007235Y017267D01*
X007262Y017232D01*
X007286Y017195D01*
X007307Y017156D01*
X007325Y017116D01*
X007338Y017074D01*
X007348Y017031D01*
X007354Y016987D01*
X007356Y016943D01*
X007354Y016899D01*
X007348Y016855D01*
X007338Y016812D01*
X007325Y016770D01*
X007307Y016730D01*
X007286Y016691D01*
X007262Y016654D01*
X007235Y016619D01*
X007204Y016587D01*
X007171Y016558D01*
X007135Y016532D01*
X007097Y016510D01*
X007057Y016491D01*
X007016Y016475D01*
X006973Y016463D01*
X006930Y016455D01*
X006886Y016451D01*
X006842Y016451D01*
X006798Y016455D01*
X006755Y016463D01*
X006712Y016475D01*
X006671Y016491D01*
X006631Y016510D01*
X006593Y016532D01*
X006557Y016558D01*
X006524Y016587D01*
X006493Y016619D01*
X006466Y016654D01*
X006442Y016691D01*
X006421Y016730D01*
X006403Y016770D01*
X006390Y016812D01*
X006380Y016855D01*
X006374Y016899D01*
X006372Y016943D01*
X006609Y018506D02*
X006611Y018531D01*
X006617Y018555D01*
X006626Y018577D01*
X006639Y018598D01*
X006655Y018617D01*
X006674Y018633D01*
X006695Y018646D01*
X006717Y018655D01*
X006741Y018661D01*
X006766Y018663D01*
X006791Y018661D01*
X006815Y018655D01*
X006837Y018646D01*
X006858Y018633D01*
X006877Y018617D01*
X006893Y018598D01*
X006906Y018577D01*
X006915Y018555D01*
X006921Y018531D01*
X006923Y018506D01*
X006921Y018481D01*
X006915Y018457D01*
X006906Y018435D01*
X006893Y018414D01*
X006877Y018395D01*
X006858Y018379D01*
X006837Y018366D01*
X006815Y018357D01*
X006791Y018351D01*
X006766Y018349D01*
X006741Y018351D01*
X006717Y018357D01*
X006695Y018366D01*
X006674Y018379D01*
X006655Y018395D01*
X006639Y018414D01*
X006626Y018435D01*
X006617Y018457D01*
X006611Y018481D01*
X006609Y018506D01*
X006766Y018506D02*
X006768Y018531D01*
X006774Y018555D01*
X006783Y018577D01*
X006796Y018598D01*
X006812Y018617D01*
X006831Y018633D01*
X006852Y018646D01*
X006874Y018655D01*
X006898Y018661D01*
X006923Y018663D01*
X006948Y018661D01*
X006972Y018655D01*
X006994Y018646D01*
X007015Y018633D01*
X007034Y018617D01*
X007050Y018598D01*
X007063Y018577D01*
X007072Y018555D01*
X007078Y018531D01*
X007080Y018506D01*
X007078Y018481D01*
X007072Y018457D01*
X007063Y018435D01*
X007050Y018414D01*
X007034Y018395D01*
X007015Y018379D01*
X006994Y018366D01*
X006972Y018357D01*
X006948Y018351D01*
X006923Y018349D01*
X006898Y018351D01*
X006874Y018357D01*
X006852Y018366D01*
X006831Y018379D01*
X006812Y018395D01*
X006796Y018414D01*
X006783Y018435D01*
X006774Y018457D01*
X006768Y018481D01*
X006766Y018506D01*
X007081Y018506D02*
X007083Y018531D01*
X007089Y018555D01*
X007098Y018577D01*
X007111Y018598D01*
X007127Y018617D01*
X007146Y018633D01*
X007167Y018646D01*
X007189Y018655D01*
X007213Y018661D01*
X007238Y018663D01*
X007263Y018661D01*
X007287Y018655D01*
X007309Y018646D01*
X007330Y018633D01*
X007349Y018617D01*
X007365Y018598D01*
X007378Y018577D01*
X007387Y018555D01*
X007393Y018531D01*
X007395Y018506D01*
X007393Y018481D01*
X007387Y018457D01*
X007378Y018435D01*
X007365Y018414D01*
X007349Y018395D01*
X007330Y018379D01*
X007309Y018366D01*
X007287Y018357D01*
X007263Y018351D01*
X007238Y018349D01*
X007213Y018351D01*
X007189Y018357D01*
X007167Y018366D01*
X007146Y018379D01*
X007127Y018395D01*
X007111Y018414D01*
X007098Y018435D01*
X007089Y018457D01*
X007083Y018481D01*
X007081Y018506D01*
X007239Y018506D02*
X007241Y018531D01*
X007247Y018555D01*
X007256Y018577D01*
X007269Y018598D01*
X007285Y018617D01*
X007304Y018633D01*
X007325Y018646D01*
X007347Y018655D01*
X007371Y018661D01*
X007396Y018663D01*
X007421Y018661D01*
X007445Y018655D01*
X007467Y018646D01*
X007488Y018633D01*
X007507Y018617D01*
X007523Y018598D01*
X007536Y018577D01*
X007545Y018555D01*
X007551Y018531D01*
X007553Y018506D01*
X007551Y018481D01*
X007545Y018457D01*
X007536Y018435D01*
X007523Y018414D01*
X007507Y018395D01*
X007488Y018379D01*
X007467Y018366D01*
X007445Y018357D01*
X007421Y018351D01*
X007396Y018349D01*
X007371Y018351D01*
X007347Y018357D01*
X007325Y018366D01*
X007304Y018379D01*
X007285Y018395D01*
X007269Y018414D01*
X007256Y018435D01*
X007247Y018457D01*
X007241Y018481D01*
X007239Y018506D01*
X009817Y015959D02*
X023597Y015959D01*
X023617Y015957D01*
X023637Y015952D01*
X023656Y015943D01*
X023673Y015931D01*
X023687Y015917D01*
X023699Y015900D01*
X023708Y015881D01*
X023713Y015861D01*
X023715Y015841D01*
X023713Y015821D01*
X023708Y015801D01*
X023699Y015782D01*
X023687Y015765D01*
X023673Y015751D01*
X023656Y015739D01*
X023637Y015730D01*
X023617Y015725D01*
X023597Y015723D01*
X009817Y015723D01*
X009797Y015725D01*
X009777Y015730D01*
X009758Y015739D01*
X009741Y015751D01*
X009727Y015765D01*
X009715Y015782D01*
X009706Y015801D01*
X009701Y015821D01*
X009699Y015841D01*
X009701Y015861D01*
X009706Y015881D01*
X009715Y015900D01*
X009727Y015917D01*
X009741Y015931D01*
X009758Y015943D01*
X009777Y015952D01*
X009797Y015957D01*
X009817Y015959D01*
X007239Y023112D02*
X007241Y023137D01*
X007247Y023161D01*
X007256Y023183D01*
X007269Y023204D01*
X007285Y023223D01*
X007304Y023239D01*
X007325Y023252D01*
X007347Y023261D01*
X007371Y023267D01*
X007396Y023269D01*
X007421Y023267D01*
X007445Y023261D01*
X007467Y023252D01*
X007488Y023239D01*
X007507Y023223D01*
X007523Y023204D01*
X007536Y023183D01*
X007545Y023161D01*
X007551Y023137D01*
X007553Y023112D01*
X007551Y023087D01*
X007545Y023063D01*
X007536Y023041D01*
X007523Y023020D01*
X007507Y023001D01*
X007488Y022985D01*
X007467Y022972D01*
X007445Y022963D01*
X007421Y022957D01*
X007396Y022955D01*
X007371Y022957D01*
X007347Y022963D01*
X007325Y022972D01*
X007304Y022985D01*
X007285Y023001D01*
X007269Y023020D01*
X007256Y023041D01*
X007247Y023063D01*
X007241Y023087D01*
X007239Y023112D01*
X007081Y023112D02*
X007083Y023137D01*
X007089Y023161D01*
X007098Y023183D01*
X007111Y023204D01*
X007127Y023223D01*
X007146Y023239D01*
X007167Y023252D01*
X007189Y023261D01*
X007213Y023267D01*
X007238Y023269D01*
X007263Y023267D01*
X007287Y023261D01*
X007309Y023252D01*
X007330Y023239D01*
X007349Y023223D01*
X007365Y023204D01*
X007378Y023183D01*
X007387Y023161D01*
X007393Y023137D01*
X007395Y023112D01*
X007393Y023087D01*
X007387Y023063D01*
X007378Y023041D01*
X007365Y023020D01*
X007349Y023001D01*
X007330Y022985D01*
X007309Y022972D01*
X007287Y022963D01*
X007263Y022957D01*
X007238Y022955D01*
X007213Y022957D01*
X007189Y022963D01*
X007167Y022972D01*
X007146Y022985D01*
X007127Y023001D01*
X007111Y023020D01*
X007098Y023041D01*
X007089Y023063D01*
X007083Y023087D01*
X007081Y023112D01*
X006766Y023112D02*
X006768Y023137D01*
X006774Y023161D01*
X006783Y023183D01*
X006796Y023204D01*
X006812Y023223D01*
X006831Y023239D01*
X006852Y023252D01*
X006874Y023261D01*
X006898Y023267D01*
X006923Y023269D01*
X006948Y023267D01*
X006972Y023261D01*
X006994Y023252D01*
X007015Y023239D01*
X007034Y023223D01*
X007050Y023204D01*
X007063Y023183D01*
X007072Y023161D01*
X007078Y023137D01*
X007080Y023112D01*
X007078Y023087D01*
X007072Y023063D01*
X007063Y023041D01*
X007050Y023020D01*
X007034Y023001D01*
X007015Y022985D01*
X006994Y022972D01*
X006972Y022963D01*
X006948Y022957D01*
X006923Y022955D01*
X006898Y022957D01*
X006874Y022963D01*
X006852Y022972D01*
X006831Y022985D01*
X006812Y023001D01*
X006796Y023020D01*
X006783Y023041D01*
X006774Y023063D01*
X006768Y023087D01*
X006766Y023112D01*
X006609Y023112D02*
X006611Y023137D01*
X006617Y023161D01*
X006626Y023183D01*
X006639Y023204D01*
X006655Y023223D01*
X006674Y023239D01*
X006695Y023252D01*
X006717Y023261D01*
X006741Y023267D01*
X006766Y023269D01*
X006791Y023267D01*
X006815Y023261D01*
X006837Y023252D01*
X006858Y023239D01*
X006877Y023223D01*
X006893Y023204D01*
X006906Y023183D01*
X006915Y023161D01*
X006921Y023137D01*
X006923Y023112D01*
X006921Y023087D01*
X006915Y023063D01*
X006906Y023041D01*
X006893Y023020D01*
X006877Y023001D01*
X006858Y022985D01*
X006837Y022972D01*
X006815Y022963D01*
X006791Y022957D01*
X006766Y022955D01*
X006741Y022957D01*
X006717Y022963D01*
X006695Y022972D01*
X006674Y022985D01*
X006655Y023001D01*
X006639Y023020D01*
X006626Y023041D01*
X006617Y023063D01*
X006611Y023087D01*
X006609Y023112D01*
X006372Y024817D02*
X006374Y024861D01*
X006380Y024905D01*
X006390Y024948D01*
X006403Y024990D01*
X006421Y025030D01*
X006442Y025069D01*
X006466Y025106D01*
X006493Y025141D01*
X006524Y025173D01*
X006557Y025202D01*
X006593Y025228D01*
X006631Y025250D01*
X006671Y025269D01*
X006712Y025285D01*
X006755Y025297D01*
X006798Y025305D01*
X006842Y025309D01*
X006886Y025309D01*
X006930Y025305D01*
X006973Y025297D01*
X007016Y025285D01*
X007057Y025269D01*
X007097Y025250D01*
X007135Y025228D01*
X007171Y025202D01*
X007204Y025173D01*
X007235Y025141D01*
X007262Y025106D01*
X007286Y025069D01*
X007307Y025030D01*
X007325Y024990D01*
X007338Y024948D01*
X007348Y024905D01*
X007354Y024861D01*
X007356Y024817D01*
X007354Y024773D01*
X007348Y024729D01*
X007338Y024686D01*
X007325Y024644D01*
X007307Y024604D01*
X007286Y024565D01*
X007262Y024528D01*
X007235Y024493D01*
X007204Y024461D01*
X007171Y024432D01*
X007135Y024406D01*
X007097Y024384D01*
X007057Y024365D01*
X007016Y024349D01*
X006973Y024337D01*
X006930Y024329D01*
X006886Y024325D01*
X006842Y024325D01*
X006798Y024329D01*
X006755Y024337D01*
X006712Y024349D01*
X006671Y024365D01*
X006631Y024384D01*
X006593Y024406D01*
X006557Y024432D01*
X006524Y024461D01*
X006493Y024493D01*
X006466Y024528D01*
X006442Y024565D01*
X006421Y024604D01*
X006403Y024644D01*
X006390Y024686D01*
X006380Y024729D01*
X006374Y024773D01*
X006372Y024817D01*
X006372Y027022D02*
X006374Y027066D01*
X006380Y027110D01*
X006390Y027153D01*
X006403Y027195D01*
X006421Y027235D01*
X006442Y027274D01*
X006466Y027311D01*
X006493Y027346D01*
X006524Y027378D01*
X006557Y027407D01*
X006593Y027433D01*
X006631Y027455D01*
X006671Y027474D01*
X006712Y027490D01*
X006755Y027502D01*
X006798Y027510D01*
X006842Y027514D01*
X006886Y027514D01*
X006930Y027510D01*
X006973Y027502D01*
X007016Y027490D01*
X007057Y027474D01*
X007097Y027455D01*
X007135Y027433D01*
X007171Y027407D01*
X007204Y027378D01*
X007235Y027346D01*
X007262Y027311D01*
X007286Y027274D01*
X007307Y027235D01*
X007325Y027195D01*
X007338Y027153D01*
X007348Y027110D01*
X007354Y027066D01*
X007356Y027022D01*
X007354Y026978D01*
X007348Y026934D01*
X007338Y026891D01*
X007325Y026849D01*
X007307Y026809D01*
X007286Y026770D01*
X007262Y026733D01*
X007235Y026698D01*
X007204Y026666D01*
X007171Y026637D01*
X007135Y026611D01*
X007097Y026589D01*
X007057Y026570D01*
X007016Y026554D01*
X006973Y026542D01*
X006930Y026534D01*
X006886Y026530D01*
X006842Y026530D01*
X006798Y026534D01*
X006755Y026542D01*
X006712Y026554D01*
X006671Y026570D01*
X006631Y026589D01*
X006593Y026611D01*
X006557Y026637D01*
X006524Y026666D01*
X006493Y026698D01*
X006466Y026733D01*
X006442Y026770D01*
X006421Y026809D01*
X006403Y026849D01*
X006390Y026891D01*
X006380Y026934D01*
X006374Y026978D01*
X006372Y027022D01*
X006609Y028584D02*
X006611Y028609D01*
X006617Y028633D01*
X006626Y028655D01*
X006639Y028676D01*
X006655Y028695D01*
X006674Y028711D01*
X006695Y028724D01*
X006717Y028733D01*
X006741Y028739D01*
X006766Y028741D01*
X006791Y028739D01*
X006815Y028733D01*
X006837Y028724D01*
X006858Y028711D01*
X006877Y028695D01*
X006893Y028676D01*
X006906Y028655D01*
X006915Y028633D01*
X006921Y028609D01*
X006923Y028584D01*
X006921Y028559D01*
X006915Y028535D01*
X006906Y028513D01*
X006893Y028492D01*
X006877Y028473D01*
X006858Y028457D01*
X006837Y028444D01*
X006815Y028435D01*
X006791Y028429D01*
X006766Y028427D01*
X006741Y028429D01*
X006717Y028435D01*
X006695Y028444D01*
X006674Y028457D01*
X006655Y028473D01*
X006639Y028492D01*
X006626Y028513D01*
X006617Y028535D01*
X006611Y028559D01*
X006609Y028584D01*
X006766Y028584D02*
X006768Y028609D01*
X006774Y028633D01*
X006783Y028655D01*
X006796Y028676D01*
X006812Y028695D01*
X006831Y028711D01*
X006852Y028724D01*
X006874Y028733D01*
X006898Y028739D01*
X006923Y028741D01*
X006948Y028739D01*
X006972Y028733D01*
X006994Y028724D01*
X007015Y028711D01*
X007034Y028695D01*
X007050Y028676D01*
X007063Y028655D01*
X007072Y028633D01*
X007078Y028609D01*
X007080Y028584D01*
X007078Y028559D01*
X007072Y028535D01*
X007063Y028513D01*
X007050Y028492D01*
X007034Y028473D01*
X007015Y028457D01*
X006994Y028444D01*
X006972Y028435D01*
X006948Y028429D01*
X006923Y028427D01*
X006898Y028429D01*
X006874Y028435D01*
X006852Y028444D01*
X006831Y028457D01*
X006812Y028473D01*
X006796Y028492D01*
X006783Y028513D01*
X006774Y028535D01*
X006768Y028559D01*
X006766Y028584D01*
X007081Y028584D02*
X007083Y028609D01*
X007089Y028633D01*
X007098Y028655D01*
X007111Y028676D01*
X007127Y028695D01*
X007146Y028711D01*
X007167Y028724D01*
X007189Y028733D01*
X007213Y028739D01*
X007238Y028741D01*
X007263Y028739D01*
X007287Y028733D01*
X007309Y028724D01*
X007330Y028711D01*
X007349Y028695D01*
X007365Y028676D01*
X007378Y028655D01*
X007387Y028633D01*
X007393Y028609D01*
X007395Y028584D01*
X007393Y028559D01*
X007387Y028535D01*
X007378Y028513D01*
X007365Y028492D01*
X007349Y028473D01*
X007330Y028457D01*
X007309Y028444D01*
X007287Y028435D01*
X007263Y028429D01*
X007238Y028427D01*
X007213Y028429D01*
X007189Y028435D01*
X007167Y028444D01*
X007146Y028457D01*
X007127Y028473D01*
X007111Y028492D01*
X007098Y028513D01*
X007089Y028535D01*
X007083Y028559D01*
X007081Y028584D01*
X007239Y028584D02*
X007241Y028609D01*
X007247Y028633D01*
X007256Y028655D01*
X007269Y028676D01*
X007285Y028695D01*
X007304Y028711D01*
X007325Y028724D01*
X007347Y028733D01*
X007371Y028739D01*
X007396Y028741D01*
X007421Y028739D01*
X007445Y028733D01*
X007467Y028724D01*
X007488Y028711D01*
X007507Y028695D01*
X007523Y028676D01*
X007536Y028655D01*
X007545Y028633D01*
X007551Y028609D01*
X007553Y028584D01*
X007551Y028559D01*
X007545Y028535D01*
X007536Y028513D01*
X007523Y028492D01*
X007507Y028473D01*
X007488Y028457D01*
X007467Y028444D01*
X007445Y028435D01*
X007421Y028429D01*
X007396Y028427D01*
X007371Y028429D01*
X007347Y028435D01*
X007325Y028444D01*
X007304Y028457D01*
X007285Y028473D01*
X007269Y028492D01*
X007256Y028513D01*
X007247Y028535D01*
X007241Y028559D01*
X007239Y028584D01*
X009817Y026038D02*
X023597Y026038D01*
X023617Y026036D01*
X023637Y026031D01*
X023656Y026022D01*
X023673Y026010D01*
X023687Y025996D01*
X023699Y025979D01*
X023708Y025960D01*
X023713Y025940D01*
X023715Y025920D01*
X023713Y025900D01*
X023708Y025880D01*
X023699Y025861D01*
X023687Y025844D01*
X023673Y025830D01*
X023656Y025818D01*
X023637Y025809D01*
X023617Y025804D01*
X023597Y025802D01*
X023597Y025801D02*
X009817Y025801D01*
X009817Y025802D02*
X009797Y025804D01*
X009777Y025809D01*
X009758Y025818D01*
X009741Y025830D01*
X009727Y025844D01*
X009715Y025861D01*
X009706Y025880D01*
X009701Y025900D01*
X009699Y025920D01*
X009701Y025940D01*
X009706Y025960D01*
X009715Y025979D01*
X009727Y025996D01*
X009741Y026010D01*
X009758Y026022D01*
X009777Y026031D01*
X009797Y026036D01*
X009817Y026038D01*
X007239Y033191D02*
X007241Y033216D01*
X007247Y033240D01*
X007256Y033262D01*
X007269Y033283D01*
X007285Y033302D01*
X007304Y033318D01*
X007325Y033331D01*
X007347Y033340D01*
X007371Y033346D01*
X007396Y033348D01*
X007421Y033346D01*
X007445Y033340D01*
X007467Y033331D01*
X007488Y033318D01*
X007507Y033302D01*
X007523Y033283D01*
X007536Y033262D01*
X007545Y033240D01*
X007551Y033216D01*
X007553Y033191D01*
X007551Y033166D01*
X007545Y033142D01*
X007536Y033120D01*
X007523Y033099D01*
X007507Y033080D01*
X007488Y033064D01*
X007467Y033051D01*
X007445Y033042D01*
X007421Y033036D01*
X007396Y033034D01*
X007371Y033036D01*
X007347Y033042D01*
X007325Y033051D01*
X007304Y033064D01*
X007285Y033080D01*
X007269Y033099D01*
X007256Y033120D01*
X007247Y033142D01*
X007241Y033166D01*
X007239Y033191D01*
X007081Y033191D02*
X007083Y033216D01*
X007089Y033240D01*
X007098Y033262D01*
X007111Y033283D01*
X007127Y033302D01*
X007146Y033318D01*
X007167Y033331D01*
X007189Y033340D01*
X007213Y033346D01*
X007238Y033348D01*
X007263Y033346D01*
X007287Y033340D01*
X007309Y033331D01*
X007330Y033318D01*
X007349Y033302D01*
X007365Y033283D01*
X007378Y033262D01*
X007387Y033240D01*
X007393Y033216D01*
X007395Y033191D01*
X007393Y033166D01*
X007387Y033142D01*
X007378Y033120D01*
X007365Y033099D01*
X007349Y033080D01*
X007330Y033064D01*
X007309Y033051D01*
X007287Y033042D01*
X007263Y033036D01*
X007238Y033034D01*
X007213Y033036D01*
X007189Y033042D01*
X007167Y033051D01*
X007146Y033064D01*
X007127Y033080D01*
X007111Y033099D01*
X007098Y033120D01*
X007089Y033142D01*
X007083Y033166D01*
X007081Y033191D01*
X006766Y033191D02*
X006768Y033216D01*
X006774Y033240D01*
X006783Y033262D01*
X006796Y033283D01*
X006812Y033302D01*
X006831Y033318D01*
X006852Y033331D01*
X006874Y033340D01*
X006898Y033346D01*
X006923Y033348D01*
X006948Y033346D01*
X006972Y033340D01*
X006994Y033331D01*
X007015Y033318D01*
X007034Y033302D01*
X007050Y033283D01*
X007063Y033262D01*
X007072Y033240D01*
X007078Y033216D01*
X007080Y033191D01*
X007078Y033166D01*
X007072Y033142D01*
X007063Y033120D01*
X007050Y033099D01*
X007034Y033080D01*
X007015Y033064D01*
X006994Y033051D01*
X006972Y033042D01*
X006948Y033036D01*
X006923Y033034D01*
X006898Y033036D01*
X006874Y033042D01*
X006852Y033051D01*
X006831Y033064D01*
X006812Y033080D01*
X006796Y033099D01*
X006783Y033120D01*
X006774Y033142D01*
X006768Y033166D01*
X006766Y033191D01*
X006609Y033191D02*
X006611Y033216D01*
X006617Y033240D01*
X006626Y033262D01*
X006639Y033283D01*
X006655Y033302D01*
X006674Y033318D01*
X006695Y033331D01*
X006717Y033340D01*
X006741Y033346D01*
X006766Y033348D01*
X006791Y033346D01*
X006815Y033340D01*
X006837Y033331D01*
X006858Y033318D01*
X006877Y033302D01*
X006893Y033283D01*
X006906Y033262D01*
X006915Y033240D01*
X006921Y033216D01*
X006923Y033191D01*
X006921Y033166D01*
X006915Y033142D01*
X006906Y033120D01*
X006893Y033099D01*
X006877Y033080D01*
X006858Y033064D01*
X006837Y033051D01*
X006815Y033042D01*
X006791Y033036D01*
X006766Y033034D01*
X006741Y033036D01*
X006717Y033042D01*
X006695Y033051D01*
X006674Y033064D01*
X006655Y033080D01*
X006639Y033099D01*
X006626Y033120D01*
X006617Y033142D01*
X006611Y033166D01*
X006609Y033191D01*
X006372Y034896D02*
X006374Y034940D01*
X006380Y034984D01*
X006390Y035027D01*
X006403Y035069D01*
X006421Y035109D01*
X006442Y035148D01*
X006466Y035185D01*
X006493Y035220D01*
X006524Y035252D01*
X006557Y035281D01*
X006593Y035307D01*
X006631Y035329D01*
X006671Y035348D01*
X006712Y035364D01*
X006755Y035376D01*
X006798Y035384D01*
X006842Y035388D01*
X006886Y035388D01*
X006930Y035384D01*
X006973Y035376D01*
X007016Y035364D01*
X007057Y035348D01*
X007097Y035329D01*
X007135Y035307D01*
X007171Y035281D01*
X007204Y035252D01*
X007235Y035220D01*
X007262Y035185D01*
X007286Y035148D01*
X007307Y035109D01*
X007325Y035069D01*
X007338Y035027D01*
X007348Y034984D01*
X007354Y034940D01*
X007356Y034896D01*
X007354Y034852D01*
X007348Y034808D01*
X007338Y034765D01*
X007325Y034723D01*
X007307Y034683D01*
X007286Y034644D01*
X007262Y034607D01*
X007235Y034572D01*
X007204Y034540D01*
X007171Y034511D01*
X007135Y034485D01*
X007097Y034463D01*
X007057Y034444D01*
X007016Y034428D01*
X006973Y034416D01*
X006930Y034408D01*
X006886Y034404D01*
X006842Y034404D01*
X006798Y034408D01*
X006755Y034416D01*
X006712Y034428D01*
X006671Y034444D01*
X006631Y034463D01*
X006593Y034485D01*
X006557Y034511D01*
X006524Y034540D01*
X006493Y034572D01*
X006466Y034607D01*
X006442Y034644D01*
X006421Y034683D01*
X006403Y034723D01*
X006390Y034765D01*
X006380Y034808D01*
X006374Y034852D01*
X006372Y034896D01*
X025565Y026038D02*
X029286Y026038D01*
X029207Y025801D02*
X025565Y025801D01*
X025565Y025802D02*
X025545Y025804D01*
X025525Y025809D01*
X025506Y025818D01*
X025489Y025830D01*
X025475Y025844D01*
X025463Y025861D01*
X025454Y025880D01*
X025449Y025900D01*
X025447Y025920D01*
X025449Y025940D01*
X025454Y025960D01*
X025463Y025979D01*
X025475Y025996D01*
X025489Y026010D01*
X025506Y026022D01*
X025525Y026031D01*
X025545Y026036D01*
X025565Y026038D01*
X028223Y027022D02*
X028225Y027066D01*
X028231Y027110D01*
X028241Y027153D01*
X028254Y027195D01*
X028272Y027235D01*
X028293Y027274D01*
X028317Y027311D01*
X028344Y027346D01*
X028375Y027378D01*
X028408Y027407D01*
X028444Y027433D01*
X028482Y027455D01*
X028522Y027474D01*
X028563Y027490D01*
X028606Y027502D01*
X028649Y027510D01*
X028693Y027514D01*
X028737Y027514D01*
X028781Y027510D01*
X028824Y027502D01*
X028867Y027490D01*
X028908Y027474D01*
X028948Y027455D01*
X028986Y027433D01*
X029022Y027407D01*
X029055Y027378D01*
X029086Y027346D01*
X029113Y027311D01*
X029137Y027274D01*
X029158Y027235D01*
X029176Y027195D01*
X029189Y027153D01*
X029199Y027110D01*
X029205Y027066D01*
X029207Y027022D01*
X029205Y026978D01*
X029199Y026934D01*
X029189Y026891D01*
X029176Y026849D01*
X029158Y026809D01*
X029137Y026770D01*
X029113Y026733D01*
X029086Y026698D01*
X029055Y026666D01*
X029022Y026637D01*
X028986Y026611D01*
X028948Y026589D01*
X028908Y026570D01*
X028867Y026554D01*
X028824Y026542D01*
X028781Y026534D01*
X028737Y026530D01*
X028693Y026530D01*
X028649Y026534D01*
X028606Y026542D01*
X028563Y026554D01*
X028522Y026570D01*
X028482Y026589D01*
X028444Y026611D01*
X028408Y026637D01*
X028375Y026666D01*
X028344Y026698D01*
X028317Y026733D01*
X028293Y026770D01*
X028272Y026809D01*
X028254Y026849D01*
X028241Y026891D01*
X028231Y026934D01*
X028225Y026978D01*
X028223Y027022D01*
X029285Y026037D02*
X029322Y026043D01*
X029358Y026053D01*
X029393Y026067D01*
X029426Y026084D01*
X029458Y026104D01*
X029486Y026128D01*
X029513Y026155D01*
X029536Y026184D01*
X029556Y026215D01*
X029573Y026249D01*
X029586Y026284D01*
X029596Y026320D01*
X029601Y026357D01*
X029603Y026394D01*
X029601Y026431D01*
X029601Y026372D02*
X029603Y026392D01*
X029608Y026412D01*
X029617Y026431D01*
X029629Y026448D01*
X029643Y026462D01*
X029660Y026474D01*
X029679Y026483D01*
X029699Y026488D01*
X029719Y026490D01*
X029739Y026488D01*
X029759Y026483D01*
X029778Y026474D01*
X029795Y026462D01*
X029809Y026448D01*
X029821Y026431D01*
X029830Y026412D01*
X029835Y026392D01*
X029837Y026372D01*
X029837Y010703D01*
X029835Y010683D01*
X029830Y010663D01*
X029821Y010644D01*
X029809Y010627D01*
X029795Y010613D01*
X029778Y010601D01*
X029759Y010592D01*
X029739Y010587D01*
X029719Y010585D01*
X029699Y010587D01*
X029679Y010592D01*
X029660Y010601D01*
X029643Y010613D01*
X029629Y010627D01*
X029617Y010644D01*
X029608Y010663D01*
X029603Y010683D01*
X029601Y010703D01*
X029601Y015408D01*
X029601Y015407D02*
X029595Y015444D01*
X029585Y015480D01*
X029571Y015515D01*
X029554Y015548D01*
X029534Y015580D01*
X029510Y015608D01*
X029483Y015635D01*
X029454Y015658D01*
X029423Y015678D01*
X029389Y015695D01*
X029354Y015708D01*
X029318Y015718D01*
X029281Y015723D01*
X029244Y015725D01*
X029207Y015723D01*
X025565Y015723D01*
X025545Y015725D01*
X025525Y015730D01*
X025506Y015739D01*
X025489Y015751D01*
X025475Y015765D01*
X025463Y015782D01*
X025454Y015801D01*
X025449Y015821D01*
X025447Y015841D01*
X025449Y015861D01*
X025454Y015881D01*
X025463Y015900D01*
X025475Y015917D01*
X025489Y015931D01*
X025506Y015943D01*
X025525Y015952D01*
X025545Y015957D01*
X025565Y015959D01*
X029286Y015959D01*
X029285Y015958D02*
X029322Y015964D01*
X029358Y015974D01*
X029393Y015988D01*
X029426Y016005D01*
X029458Y016025D01*
X029486Y016049D01*
X029513Y016076D01*
X029536Y016105D01*
X029556Y016136D01*
X029573Y016170D01*
X029586Y016205D01*
X029596Y016241D01*
X029601Y016278D01*
X029603Y016315D01*
X029601Y016352D01*
X029601Y016353D02*
X029601Y025486D01*
X029595Y025523D01*
X029585Y025559D01*
X029571Y025594D01*
X029554Y025627D01*
X029534Y025659D01*
X029510Y025687D01*
X029483Y025714D01*
X029454Y025737D01*
X029423Y025757D01*
X029389Y025774D01*
X029354Y025787D01*
X029318Y025797D01*
X029281Y025802D01*
X029244Y025804D01*
X029207Y025802D01*
X028223Y024817D02*
X028225Y024861D01*
X028231Y024905D01*
X028241Y024948D01*
X028254Y024990D01*
X028272Y025030D01*
X028293Y025069D01*
X028317Y025106D01*
X028344Y025141D01*
X028375Y025173D01*
X028408Y025202D01*
X028444Y025228D01*
X028482Y025250D01*
X028522Y025269D01*
X028563Y025285D01*
X028606Y025297D01*
X028649Y025305D01*
X028693Y025309D01*
X028737Y025309D01*
X028781Y025305D01*
X028824Y025297D01*
X028867Y025285D01*
X028908Y025269D01*
X028948Y025250D01*
X028986Y025228D01*
X029022Y025202D01*
X029055Y025173D01*
X029086Y025141D01*
X029113Y025106D01*
X029137Y025069D01*
X029158Y025030D01*
X029176Y024990D01*
X029189Y024948D01*
X029199Y024905D01*
X029205Y024861D01*
X029207Y024817D01*
X029205Y024773D01*
X029199Y024729D01*
X029189Y024686D01*
X029176Y024644D01*
X029158Y024604D01*
X029137Y024565D01*
X029113Y024528D01*
X029086Y024493D01*
X029055Y024461D01*
X029022Y024432D01*
X028986Y024406D01*
X028948Y024384D01*
X028908Y024365D01*
X028867Y024349D01*
X028824Y024337D01*
X028781Y024329D01*
X028737Y024325D01*
X028693Y024325D01*
X028649Y024329D01*
X028606Y024337D01*
X028563Y024349D01*
X028522Y024365D01*
X028482Y024384D01*
X028444Y024406D01*
X028408Y024432D01*
X028375Y024461D01*
X028344Y024493D01*
X028317Y024528D01*
X028293Y024565D01*
X028272Y024604D01*
X028254Y024644D01*
X028241Y024686D01*
X028231Y024729D01*
X028225Y024773D01*
X028223Y024817D01*
X030388Y028715D02*
X030390Y028759D01*
X030396Y028803D01*
X030406Y028846D01*
X030419Y028888D01*
X030437Y028928D01*
X030458Y028967D01*
X030482Y029004D01*
X030509Y029039D01*
X030540Y029071D01*
X030573Y029100D01*
X030609Y029126D01*
X030647Y029148D01*
X030687Y029167D01*
X030728Y029183D01*
X030771Y029195D01*
X030814Y029203D01*
X030858Y029207D01*
X030902Y029207D01*
X030946Y029203D01*
X030989Y029195D01*
X031032Y029183D01*
X031073Y029167D01*
X031113Y029148D01*
X031151Y029126D01*
X031187Y029100D01*
X031220Y029071D01*
X031251Y029039D01*
X031278Y029004D01*
X031302Y028967D01*
X031323Y028928D01*
X031341Y028888D01*
X031354Y028846D01*
X031364Y028803D01*
X031370Y028759D01*
X031372Y028715D01*
X031370Y028671D01*
X031364Y028627D01*
X031354Y028584D01*
X031341Y028542D01*
X031323Y028502D01*
X031302Y028463D01*
X031278Y028426D01*
X031251Y028391D01*
X031220Y028359D01*
X031187Y028330D01*
X031151Y028304D01*
X031113Y028282D01*
X031073Y028263D01*
X031032Y028247D01*
X030989Y028235D01*
X030946Y028227D01*
X030902Y028223D01*
X030858Y028223D01*
X030814Y028227D01*
X030771Y028235D01*
X030728Y028247D01*
X030687Y028263D01*
X030647Y028282D01*
X030609Y028304D01*
X030573Y028330D01*
X030540Y028359D01*
X030509Y028391D01*
X030482Y028426D01*
X030458Y028463D01*
X030437Y028502D01*
X030419Y028542D01*
X030406Y028584D01*
X030396Y028627D01*
X030390Y028671D01*
X030388Y028715D01*
X028223Y034896D02*
X028225Y034940D01*
X028231Y034984D01*
X028241Y035027D01*
X028254Y035069D01*
X028272Y035109D01*
X028293Y035148D01*
X028317Y035185D01*
X028344Y035220D01*
X028375Y035252D01*
X028408Y035281D01*
X028444Y035307D01*
X028482Y035329D01*
X028522Y035348D01*
X028563Y035364D01*
X028606Y035376D01*
X028649Y035384D01*
X028693Y035388D01*
X028737Y035388D01*
X028781Y035384D01*
X028824Y035376D01*
X028867Y035364D01*
X028908Y035348D01*
X028948Y035329D01*
X028986Y035307D01*
X029022Y035281D01*
X029055Y035252D01*
X029086Y035220D01*
X029113Y035185D01*
X029137Y035148D01*
X029158Y035109D01*
X029176Y035069D01*
X029189Y035027D01*
X029199Y034984D01*
X029205Y034940D01*
X029207Y034896D01*
X029205Y034852D01*
X029199Y034808D01*
X029189Y034765D01*
X029176Y034723D01*
X029158Y034683D01*
X029137Y034644D01*
X029113Y034607D01*
X029086Y034572D01*
X029055Y034540D01*
X029022Y034511D01*
X028986Y034485D01*
X028948Y034463D01*
X028908Y034444D01*
X028867Y034428D01*
X028824Y034416D01*
X028781Y034408D01*
X028737Y034404D01*
X028693Y034404D01*
X028649Y034408D01*
X028606Y034416D01*
X028563Y034428D01*
X028522Y034444D01*
X028482Y034463D01*
X028444Y034485D01*
X028408Y034511D01*
X028375Y034540D01*
X028344Y034572D01*
X028317Y034607D01*
X028293Y034644D01*
X028272Y034683D01*
X028254Y034723D01*
X028241Y034765D01*
X028231Y034808D01*
X028225Y034852D01*
X028223Y034896D01*
X038262Y028715D02*
X038264Y028759D01*
X038270Y028803D01*
X038280Y028846D01*
X038293Y028888D01*
X038311Y028928D01*
X038332Y028967D01*
X038356Y029004D01*
X038383Y029039D01*
X038414Y029071D01*
X038447Y029100D01*
X038483Y029126D01*
X038521Y029148D01*
X038561Y029167D01*
X038602Y029183D01*
X038645Y029195D01*
X038688Y029203D01*
X038732Y029207D01*
X038776Y029207D01*
X038820Y029203D01*
X038863Y029195D01*
X038906Y029183D01*
X038947Y029167D01*
X038987Y029148D01*
X039025Y029126D01*
X039061Y029100D01*
X039094Y029071D01*
X039125Y029039D01*
X039152Y029004D01*
X039176Y028967D01*
X039197Y028928D01*
X039215Y028888D01*
X039228Y028846D01*
X039238Y028803D01*
X039244Y028759D01*
X039246Y028715D01*
X039244Y028671D01*
X039238Y028627D01*
X039228Y028584D01*
X039215Y028542D01*
X039197Y028502D01*
X039176Y028463D01*
X039152Y028426D01*
X039125Y028391D01*
X039094Y028359D01*
X039061Y028330D01*
X039025Y028304D01*
X038987Y028282D01*
X038947Y028263D01*
X038906Y028247D01*
X038863Y028235D01*
X038820Y028227D01*
X038776Y028223D01*
X038732Y028223D01*
X038688Y028227D01*
X038645Y028235D01*
X038602Y028247D01*
X038561Y028263D01*
X038521Y028282D01*
X038483Y028304D01*
X038447Y028330D01*
X038414Y028359D01*
X038383Y028391D01*
X038356Y028426D01*
X038332Y028463D01*
X038311Y028502D01*
X038293Y028542D01*
X038280Y028584D01*
X038270Y028627D01*
X038264Y028671D01*
X038262Y028715D01*
X028223Y016943D02*
X028225Y016987D01*
X028231Y017031D01*
X028241Y017074D01*
X028254Y017116D01*
X028272Y017156D01*
X028293Y017195D01*
X028317Y017232D01*
X028344Y017267D01*
X028375Y017299D01*
X028408Y017328D01*
X028444Y017354D01*
X028482Y017376D01*
X028522Y017395D01*
X028563Y017411D01*
X028606Y017423D01*
X028649Y017431D01*
X028693Y017435D01*
X028737Y017435D01*
X028781Y017431D01*
X028824Y017423D01*
X028867Y017411D01*
X028908Y017395D01*
X028948Y017376D01*
X028986Y017354D01*
X029022Y017328D01*
X029055Y017299D01*
X029086Y017267D01*
X029113Y017232D01*
X029137Y017195D01*
X029158Y017156D01*
X029176Y017116D01*
X029189Y017074D01*
X029199Y017031D01*
X029205Y016987D01*
X029207Y016943D01*
X029205Y016899D01*
X029199Y016855D01*
X029189Y016812D01*
X029176Y016770D01*
X029158Y016730D01*
X029137Y016691D01*
X029113Y016654D01*
X029086Y016619D01*
X029055Y016587D01*
X029022Y016558D01*
X028986Y016532D01*
X028948Y016510D01*
X028908Y016491D01*
X028867Y016475D01*
X028824Y016463D01*
X028781Y016455D01*
X028737Y016451D01*
X028693Y016451D01*
X028649Y016455D01*
X028606Y016463D01*
X028563Y016475D01*
X028522Y016491D01*
X028482Y016510D01*
X028444Y016532D01*
X028408Y016558D01*
X028375Y016587D01*
X028344Y016619D01*
X028317Y016654D01*
X028293Y016691D01*
X028272Y016730D01*
X028254Y016770D01*
X028241Y016812D01*
X028231Y016855D01*
X028225Y016899D01*
X028223Y016943D01*
X028223Y014738D02*
X028225Y014782D01*
X028231Y014826D01*
X028241Y014869D01*
X028254Y014911D01*
X028272Y014951D01*
X028293Y014990D01*
X028317Y015027D01*
X028344Y015062D01*
X028375Y015094D01*
X028408Y015123D01*
X028444Y015149D01*
X028482Y015171D01*
X028522Y015190D01*
X028563Y015206D01*
X028606Y015218D01*
X028649Y015226D01*
X028693Y015230D01*
X028737Y015230D01*
X028781Y015226D01*
X028824Y015218D01*
X028867Y015206D01*
X028908Y015190D01*
X028948Y015171D01*
X028986Y015149D01*
X029022Y015123D01*
X029055Y015094D01*
X029086Y015062D01*
X029113Y015027D01*
X029137Y014990D01*
X029158Y014951D01*
X029176Y014911D01*
X029189Y014869D01*
X029199Y014826D01*
X029205Y014782D01*
X029207Y014738D01*
X029205Y014694D01*
X029199Y014650D01*
X029189Y014607D01*
X029176Y014565D01*
X029158Y014525D01*
X029137Y014486D01*
X029113Y014449D01*
X029086Y014414D01*
X029055Y014382D01*
X029022Y014353D01*
X028986Y014327D01*
X028948Y014305D01*
X028908Y014286D01*
X028867Y014270D01*
X028824Y014258D01*
X028781Y014250D01*
X028737Y014246D01*
X028693Y014246D01*
X028649Y014250D01*
X028606Y014258D01*
X028563Y014270D01*
X028522Y014286D01*
X028482Y014305D01*
X028444Y014327D01*
X028408Y014353D01*
X028375Y014382D01*
X028344Y014414D01*
X028317Y014449D01*
X028293Y014486D01*
X028272Y014525D01*
X028254Y014565D01*
X028241Y014607D01*
X028231Y014650D01*
X028225Y014694D01*
X028223Y014738D01*
X032428Y007396D02*
X032430Y007421D01*
X032436Y007445D01*
X032445Y007467D01*
X032458Y007488D01*
X032474Y007507D01*
X032493Y007523D01*
X032514Y007536D01*
X032536Y007545D01*
X032560Y007551D01*
X032585Y007553D01*
X032610Y007551D01*
X032634Y007545D01*
X032656Y007536D01*
X032677Y007523D01*
X032696Y007507D01*
X032712Y007488D01*
X032725Y007467D01*
X032734Y007445D01*
X032740Y007421D01*
X032742Y007396D01*
X032740Y007371D01*
X032734Y007347D01*
X032725Y007325D01*
X032712Y007304D01*
X032696Y007285D01*
X032677Y007269D01*
X032656Y007256D01*
X032634Y007247D01*
X032610Y007241D01*
X032585Y007239D01*
X032560Y007241D01*
X032536Y007247D01*
X032514Y007256D01*
X032493Y007269D01*
X032474Y007285D01*
X032458Y007304D01*
X032445Y007325D01*
X032436Y007347D01*
X032430Y007371D01*
X032428Y007396D01*
X032428Y007238D02*
X032430Y007263D01*
X032436Y007287D01*
X032445Y007309D01*
X032458Y007330D01*
X032474Y007349D01*
X032493Y007365D01*
X032514Y007378D01*
X032536Y007387D01*
X032560Y007393D01*
X032585Y007395D01*
X032610Y007393D01*
X032634Y007387D01*
X032656Y007378D01*
X032677Y007365D01*
X032696Y007349D01*
X032712Y007330D01*
X032725Y007309D01*
X032734Y007287D01*
X032740Y007263D01*
X032742Y007238D01*
X032740Y007213D01*
X032734Y007189D01*
X032725Y007167D01*
X032712Y007146D01*
X032696Y007127D01*
X032677Y007111D01*
X032656Y007098D01*
X032634Y007089D01*
X032610Y007083D01*
X032585Y007081D01*
X032560Y007083D01*
X032536Y007089D01*
X032514Y007098D01*
X032493Y007111D01*
X032474Y007127D01*
X032458Y007146D01*
X032445Y007167D01*
X032436Y007189D01*
X032430Y007213D01*
X032428Y007238D01*
X032428Y006923D02*
X032430Y006948D01*
X032436Y006972D01*
X032445Y006994D01*
X032458Y007015D01*
X032474Y007034D01*
X032493Y007050D01*
X032514Y007063D01*
X032536Y007072D01*
X032560Y007078D01*
X032585Y007080D01*
X032610Y007078D01*
X032634Y007072D01*
X032656Y007063D01*
X032677Y007050D01*
X032696Y007034D01*
X032712Y007015D01*
X032725Y006994D01*
X032734Y006972D01*
X032740Y006948D01*
X032742Y006923D01*
X032740Y006898D01*
X032734Y006874D01*
X032725Y006852D01*
X032712Y006831D01*
X032696Y006812D01*
X032677Y006796D01*
X032656Y006783D01*
X032634Y006774D01*
X032610Y006768D01*
X032585Y006766D01*
X032560Y006768D01*
X032536Y006774D01*
X032514Y006783D01*
X032493Y006796D01*
X032474Y006812D01*
X032458Y006831D01*
X032445Y006852D01*
X032436Y006874D01*
X032430Y006898D01*
X032428Y006923D01*
X032428Y006766D02*
X032430Y006791D01*
X032436Y006815D01*
X032445Y006837D01*
X032458Y006858D01*
X032474Y006877D01*
X032493Y006893D01*
X032514Y006906D01*
X032536Y006915D01*
X032560Y006921D01*
X032585Y006923D01*
X032610Y006921D01*
X032634Y006915D01*
X032656Y006906D01*
X032677Y006893D01*
X032696Y006877D01*
X032712Y006858D01*
X032725Y006837D01*
X032734Y006815D01*
X032740Y006791D01*
X032742Y006766D01*
X032740Y006741D01*
X032734Y006717D01*
X032725Y006695D01*
X032712Y006674D01*
X032696Y006655D01*
X032677Y006639D01*
X032656Y006626D01*
X032634Y006617D01*
X032610Y006611D01*
X032585Y006609D01*
X032560Y006611D01*
X032536Y006617D01*
X032514Y006626D01*
X032493Y006639D01*
X032474Y006655D01*
X032458Y006674D01*
X032445Y006695D01*
X032436Y006717D01*
X032430Y006741D01*
X032428Y006766D01*
X030388Y006864D02*
X030390Y006908D01*
X030396Y006952D01*
X030406Y006995D01*
X030419Y007037D01*
X030437Y007077D01*
X030458Y007116D01*
X030482Y007153D01*
X030509Y007188D01*
X030540Y007220D01*
X030573Y007249D01*
X030609Y007275D01*
X030647Y007297D01*
X030687Y007316D01*
X030728Y007332D01*
X030771Y007344D01*
X030814Y007352D01*
X030858Y007356D01*
X030902Y007356D01*
X030946Y007352D01*
X030989Y007344D01*
X031032Y007332D01*
X031073Y007316D01*
X031113Y007297D01*
X031151Y007275D01*
X031187Y007249D01*
X031220Y007220D01*
X031251Y007188D01*
X031278Y007153D01*
X031302Y007116D01*
X031323Y007077D01*
X031341Y007037D01*
X031354Y006995D01*
X031364Y006952D01*
X031370Y006908D01*
X031372Y006864D01*
X031370Y006820D01*
X031364Y006776D01*
X031354Y006733D01*
X031341Y006691D01*
X031323Y006651D01*
X031302Y006612D01*
X031278Y006575D01*
X031251Y006540D01*
X031220Y006508D01*
X031187Y006479D01*
X031151Y006453D01*
X031113Y006431D01*
X031073Y006412D01*
X031032Y006396D01*
X030989Y006384D01*
X030946Y006376D01*
X030902Y006372D01*
X030858Y006372D01*
X030814Y006376D01*
X030771Y006384D01*
X030728Y006396D01*
X030687Y006412D01*
X030647Y006431D01*
X030609Y006453D01*
X030573Y006479D01*
X030540Y006508D01*
X030509Y006540D01*
X030482Y006575D01*
X030458Y006612D01*
X030437Y006651D01*
X030419Y006691D01*
X030406Y006733D01*
X030396Y006776D01*
X030390Y006820D01*
X030388Y006864D01*
X028223Y006864D02*
X028225Y006908D01*
X028231Y006952D01*
X028241Y006995D01*
X028254Y007037D01*
X028272Y007077D01*
X028293Y007116D01*
X028317Y007153D01*
X028344Y007188D01*
X028375Y007220D01*
X028408Y007249D01*
X028444Y007275D01*
X028482Y007297D01*
X028522Y007316D01*
X028563Y007332D01*
X028606Y007344D01*
X028649Y007352D01*
X028693Y007356D01*
X028737Y007356D01*
X028781Y007352D01*
X028824Y007344D01*
X028867Y007332D01*
X028908Y007316D01*
X028948Y007297D01*
X028986Y007275D01*
X029022Y007249D01*
X029055Y007220D01*
X029086Y007188D01*
X029113Y007153D01*
X029137Y007116D01*
X029158Y007077D01*
X029176Y007037D01*
X029189Y006995D01*
X029199Y006952D01*
X029205Y006908D01*
X029207Y006864D01*
X029205Y006820D01*
X029199Y006776D01*
X029189Y006733D01*
X029176Y006691D01*
X029158Y006651D01*
X029137Y006612D01*
X029113Y006575D01*
X029086Y006540D01*
X029055Y006508D01*
X029022Y006479D01*
X028986Y006453D01*
X028948Y006431D01*
X028908Y006412D01*
X028867Y006396D01*
X028824Y006384D01*
X028781Y006376D01*
X028737Y006372D01*
X028693Y006372D01*
X028649Y006376D01*
X028606Y006384D01*
X028563Y006396D01*
X028522Y006412D01*
X028482Y006431D01*
X028444Y006453D01*
X028408Y006479D01*
X028375Y006508D01*
X028344Y006540D01*
X028317Y006575D01*
X028293Y006612D01*
X028272Y006651D01*
X028254Y006691D01*
X028241Y006733D01*
X028231Y006776D01*
X028225Y006820D01*
X028223Y006864D01*
X037035Y006923D02*
X037037Y006948D01*
X037043Y006972D01*
X037052Y006994D01*
X037065Y007015D01*
X037081Y007034D01*
X037100Y007050D01*
X037121Y007063D01*
X037143Y007072D01*
X037167Y007078D01*
X037192Y007080D01*
X037217Y007078D01*
X037241Y007072D01*
X037263Y007063D01*
X037284Y007050D01*
X037303Y007034D01*
X037319Y007015D01*
X037332Y006994D01*
X037341Y006972D01*
X037347Y006948D01*
X037349Y006923D01*
X037347Y006898D01*
X037341Y006874D01*
X037332Y006852D01*
X037319Y006831D01*
X037303Y006812D01*
X037284Y006796D01*
X037263Y006783D01*
X037241Y006774D01*
X037217Y006768D01*
X037192Y006766D01*
X037167Y006768D01*
X037143Y006774D01*
X037121Y006783D01*
X037100Y006796D01*
X037081Y006812D01*
X037065Y006831D01*
X037052Y006852D01*
X037043Y006874D01*
X037037Y006898D01*
X037035Y006923D01*
X037035Y006766D02*
X037037Y006791D01*
X037043Y006815D01*
X037052Y006837D01*
X037065Y006858D01*
X037081Y006877D01*
X037100Y006893D01*
X037121Y006906D01*
X037143Y006915D01*
X037167Y006921D01*
X037192Y006923D01*
X037217Y006921D01*
X037241Y006915D01*
X037263Y006906D01*
X037284Y006893D01*
X037303Y006877D01*
X037319Y006858D01*
X037332Y006837D01*
X037341Y006815D01*
X037347Y006791D01*
X037349Y006766D01*
X037347Y006741D01*
X037341Y006717D01*
X037332Y006695D01*
X037319Y006674D01*
X037303Y006655D01*
X037284Y006639D01*
X037263Y006626D01*
X037241Y006617D01*
X037217Y006611D01*
X037192Y006609D01*
X037167Y006611D01*
X037143Y006617D01*
X037121Y006626D01*
X037100Y006639D01*
X037081Y006655D01*
X037065Y006674D01*
X037052Y006695D01*
X037043Y006717D01*
X037037Y006741D01*
X037035Y006766D01*
X037035Y007238D02*
X037037Y007263D01*
X037043Y007287D01*
X037052Y007309D01*
X037065Y007330D01*
X037081Y007349D01*
X037100Y007365D01*
X037121Y007378D01*
X037143Y007387D01*
X037167Y007393D01*
X037192Y007395D01*
X037217Y007393D01*
X037241Y007387D01*
X037263Y007378D01*
X037284Y007365D01*
X037303Y007349D01*
X037319Y007330D01*
X037332Y007309D01*
X037341Y007287D01*
X037347Y007263D01*
X037349Y007238D01*
X037347Y007213D01*
X037341Y007189D01*
X037332Y007167D01*
X037319Y007146D01*
X037303Y007127D01*
X037284Y007111D01*
X037263Y007098D01*
X037241Y007089D01*
X037217Y007083D01*
X037192Y007081D01*
X037167Y007083D01*
X037143Y007089D01*
X037121Y007098D01*
X037100Y007111D01*
X037081Y007127D01*
X037065Y007146D01*
X037052Y007167D01*
X037043Y007189D01*
X037037Y007213D01*
X037035Y007238D01*
X037035Y007396D02*
X037037Y007421D01*
X037043Y007445D01*
X037052Y007467D01*
X037065Y007488D01*
X037081Y007507D01*
X037100Y007523D01*
X037121Y007536D01*
X037143Y007545D01*
X037167Y007551D01*
X037192Y007553D01*
X037217Y007551D01*
X037241Y007545D01*
X037263Y007536D01*
X037284Y007523D01*
X037303Y007507D01*
X037319Y007488D01*
X037332Y007467D01*
X037341Y007445D01*
X037347Y007421D01*
X037349Y007396D01*
X037347Y007371D01*
X037341Y007347D01*
X037332Y007325D01*
X037319Y007304D01*
X037303Y007285D01*
X037284Y007269D01*
X037263Y007256D01*
X037241Y007247D01*
X037217Y007241D01*
X037192Y007239D01*
X037167Y007241D01*
X037143Y007247D01*
X037121Y007256D01*
X037100Y007269D01*
X037081Y007285D01*
X037065Y007304D01*
X037052Y007325D01*
X037043Y007347D01*
X037037Y007371D01*
X037035Y007396D01*
X038262Y006864D02*
X038264Y006908D01*
X038270Y006952D01*
X038280Y006995D01*
X038293Y007037D01*
X038311Y007077D01*
X038332Y007116D01*
X038356Y007153D01*
X038383Y007188D01*
X038414Y007220D01*
X038447Y007249D01*
X038483Y007275D01*
X038521Y007297D01*
X038561Y007316D01*
X038602Y007332D01*
X038645Y007344D01*
X038688Y007352D01*
X038732Y007356D01*
X038776Y007356D01*
X038820Y007352D01*
X038863Y007344D01*
X038906Y007332D01*
X038947Y007316D01*
X038987Y007297D01*
X039025Y007275D01*
X039061Y007249D01*
X039094Y007220D01*
X039125Y007188D01*
X039152Y007153D01*
X039176Y007116D01*
X039197Y007077D01*
X039215Y007037D01*
X039228Y006995D01*
X039238Y006952D01*
X039244Y006908D01*
X039246Y006864D01*
X039244Y006820D01*
X039238Y006776D01*
X039228Y006733D01*
X039215Y006691D01*
X039197Y006651D01*
X039176Y006612D01*
X039152Y006575D01*
X039125Y006540D01*
X039094Y006508D01*
X039061Y006479D01*
X039025Y006453D01*
X038987Y006431D01*
X038947Y006412D01*
X038906Y006396D01*
X038863Y006384D01*
X038820Y006376D01*
X038776Y006372D01*
X038732Y006372D01*
X038688Y006376D01*
X038645Y006384D01*
X038602Y006396D01*
X038561Y006412D01*
X038521Y006431D01*
X038483Y006453D01*
X038447Y006479D01*
X038414Y006508D01*
X038383Y006540D01*
X038356Y006575D01*
X038332Y006612D01*
X038311Y006651D01*
X038293Y006691D01*
X038280Y006733D01*
X038270Y006776D01*
X038264Y006820D01*
X038262Y006864D01*
D11*
X037275Y008395D02*
X037082Y008395D01*
X037033Y008444D01*
X037033Y008540D01*
X037082Y008589D01*
X037178Y008690D02*
X037033Y008835D01*
X037323Y008835D01*
X037178Y008883D02*
X037178Y008690D01*
X037275Y008589D02*
X037323Y008540D01*
X037323Y008444D01*
X037275Y008395D01*
X036525Y010295D02*
X036332Y010295D01*
X036283Y010344D01*
X036283Y010440D01*
X036332Y010489D01*
X036332Y010590D02*
X036283Y010638D01*
X036283Y010735D01*
X036332Y010783D01*
X036380Y010783D01*
X036573Y010590D01*
X036573Y010783D01*
X036525Y010489D02*
X036573Y010440D01*
X036573Y010344D01*
X036525Y010295D01*
X036543Y011495D02*
X036446Y011495D01*
X036398Y011544D01*
X036297Y011544D02*
X036249Y011495D01*
X036152Y011495D01*
X036103Y011544D01*
X036103Y011737D01*
X036152Y011785D01*
X036249Y011785D01*
X036297Y011737D01*
X036398Y011737D02*
X036446Y011785D01*
X036543Y011785D01*
X036592Y011737D01*
X036592Y011689D01*
X036543Y011640D01*
X036592Y011592D01*
X036592Y011544D01*
X036543Y011495D01*
X036543Y011640D02*
X036495Y011640D01*
X034913Y011170D02*
X034720Y011170D01*
X034816Y011170D02*
X034816Y011460D01*
X034720Y011364D01*
X034618Y011412D02*
X034570Y011460D01*
X034473Y011460D01*
X034425Y011412D01*
X034425Y011219D01*
X034473Y011170D01*
X034570Y011170D01*
X034618Y011219D01*
X034325Y011170D02*
X034228Y011170D01*
X034277Y011170D02*
X034277Y011460D01*
X034325Y011460D02*
X034228Y011460D01*
X031973Y011434D02*
X031780Y011628D01*
X031732Y011628D01*
X031683Y011580D01*
X031683Y011483D01*
X031732Y011434D01*
X031683Y011333D02*
X031683Y011237D01*
X031683Y011285D02*
X031925Y011285D01*
X031973Y011237D01*
X031973Y011188D01*
X031925Y011140D01*
X031925Y011039D02*
X031973Y010990D01*
X031973Y010894D01*
X031925Y010845D01*
X031828Y010894D02*
X031828Y010990D01*
X031877Y011039D01*
X031925Y011039D01*
X031828Y010894D02*
X031780Y010845D01*
X031732Y010845D01*
X031683Y010894D01*
X031683Y010990D01*
X031732Y011039D01*
X031973Y011434D02*
X031973Y011628D01*
X030355Y009898D02*
X030162Y009898D01*
X030113Y009850D01*
X030113Y009704D01*
X030403Y009704D01*
X030403Y009850D01*
X030355Y009898D01*
X030403Y009603D02*
X030113Y009603D01*
X030113Y009410D02*
X030403Y009603D01*
X030403Y009410D02*
X030113Y009410D01*
X030162Y009309D02*
X030113Y009260D01*
X030113Y009164D01*
X030162Y009115D01*
X030355Y009115D01*
X030403Y009164D01*
X030403Y009260D01*
X030355Y009309D01*
X030258Y009309D01*
X030258Y009212D01*
X030403Y008744D02*
X030113Y008744D01*
X030113Y008551D02*
X030403Y008744D01*
X030403Y008551D02*
X030113Y008551D01*
X030113Y008451D02*
X030113Y008354D01*
X030113Y008403D02*
X030403Y008403D01*
X030403Y008451D02*
X030403Y008354D01*
X030307Y008253D02*
X030403Y008157D01*
X030307Y008060D01*
X030113Y008060D01*
X030210Y007959D02*
X030403Y007959D01*
X030258Y007959D02*
X030258Y007765D01*
X030210Y007765D02*
X030113Y007862D01*
X030210Y007959D01*
X030210Y007765D02*
X030403Y007765D01*
X030307Y008253D02*
X030113Y008253D01*
X031469Y007817D02*
X031469Y007769D01*
X031518Y007720D01*
X031615Y007720D01*
X031663Y007672D01*
X031663Y007624D01*
X031615Y007575D01*
X031518Y007575D01*
X031469Y007624D01*
X031469Y007817D02*
X031518Y007865D01*
X031615Y007865D01*
X031663Y007817D01*
X031861Y007865D02*
X031958Y007865D01*
X031909Y007865D02*
X031909Y007624D01*
X031861Y007575D01*
X031812Y007575D01*
X031764Y007624D01*
X032059Y007575D02*
X032252Y007575D01*
X032156Y007575D02*
X032156Y007865D01*
X032059Y007769D01*
X033153Y006435D02*
X033153Y006242D01*
X033250Y006145D01*
X033347Y006242D01*
X033347Y006435D01*
X033448Y006435D02*
X033545Y006435D01*
X033496Y006435D02*
X033496Y006145D01*
X033448Y006145D02*
X033545Y006145D01*
X033645Y006145D02*
X033645Y006435D01*
X033838Y006145D01*
X033838Y006435D01*
X029265Y010292D02*
X029168Y010389D01*
X028975Y010389D01*
X029023Y010490D02*
X029217Y010490D01*
X029265Y010538D01*
X029265Y010635D01*
X029217Y010683D01*
X029023Y010683D01*
X028975Y010635D01*
X028975Y010538D01*
X029023Y010490D01*
X028975Y010784D02*
X029217Y010784D01*
X029265Y010833D01*
X029265Y010930D01*
X029217Y010978D01*
X028975Y010978D01*
X028975Y011079D02*
X028975Y011273D01*
X028975Y011176D02*
X029265Y011176D01*
X029265Y010292D02*
X029168Y010195D01*
X028975Y010195D01*
X025634Y010131D02*
X025634Y009938D01*
X025488Y009837D02*
X025295Y009837D01*
X025488Y009837D02*
X025585Y009740D01*
X025488Y009643D01*
X025295Y009643D01*
X025343Y010233D02*
X025537Y010233D01*
X025585Y010281D01*
X025585Y010378D01*
X025537Y010426D01*
X025343Y010426D01*
X025295Y010378D01*
X025295Y010281D01*
X025343Y010233D01*
X025295Y010527D02*
X025537Y010527D01*
X025585Y010576D01*
X025585Y010672D01*
X025537Y010721D01*
X025295Y010721D01*
X025295Y010822D02*
X025295Y011015D01*
X025295Y010919D02*
X025585Y010919D01*
X025634Y011117D02*
X025634Y011310D01*
X025537Y011411D02*
X025585Y011460D01*
X025585Y011556D01*
X025537Y011605D01*
X025295Y011605D01*
X025343Y011706D02*
X025392Y011706D01*
X025440Y011754D01*
X025440Y011851D01*
X025488Y011899D01*
X025537Y011899D01*
X025585Y011851D01*
X025585Y011754D01*
X025537Y011706D01*
X025343Y011706D02*
X025295Y011754D01*
X025295Y011851D01*
X025343Y011899D01*
X025295Y012001D02*
X025295Y012146D01*
X025343Y012194D01*
X025392Y012194D01*
X025440Y012146D01*
X025440Y012001D01*
X025440Y012146D02*
X025488Y012194D01*
X025537Y012194D01*
X025585Y012146D01*
X025585Y012001D01*
X025295Y012001D01*
X025295Y011411D02*
X025537Y011411D01*
X026743Y014056D02*
X026937Y014056D01*
X026985Y014104D01*
X026985Y014201D01*
X026937Y014249D01*
X026937Y014351D02*
X026985Y014399D01*
X026985Y014496D01*
X026937Y014544D01*
X026840Y014544D01*
X026792Y014496D01*
X026792Y014447D01*
X026840Y014351D01*
X026695Y014351D01*
X026695Y014544D01*
X026743Y014249D02*
X026695Y014201D01*
X026695Y014104D01*
X026743Y014056D01*
X021385Y010919D02*
X021385Y010726D01*
X021385Y010822D02*
X021095Y010822D01*
X021192Y010726D01*
X021095Y010624D02*
X021095Y010431D01*
X021095Y010528D02*
X021385Y010528D01*
X021385Y010330D02*
X021095Y010330D01*
X021095Y010136D02*
X021385Y010330D01*
X021385Y010136D02*
X021095Y010136D01*
X021192Y010035D02*
X021095Y009938D01*
X021192Y009842D01*
X021385Y009842D01*
X021240Y009842D02*
X021240Y010035D01*
X021192Y010035D02*
X021385Y010035D01*
X020273Y013545D02*
X020079Y013545D01*
X020176Y013545D02*
X020176Y013835D01*
X020079Y013739D01*
X019978Y013787D02*
X019978Y013594D01*
X019930Y013545D01*
X019784Y013545D01*
X019784Y013835D01*
X019930Y013835D01*
X019978Y013787D01*
X019683Y013835D02*
X019490Y013835D01*
X019490Y013545D01*
X019683Y013545D01*
X019587Y013690D02*
X019490Y013690D01*
X019389Y013545D02*
X019195Y013545D01*
X019195Y013835D01*
X017914Y013612D02*
X017865Y013660D01*
X017769Y013660D01*
X017720Y013612D01*
X017720Y013419D01*
X017769Y013370D01*
X017865Y013370D01*
X017914Y013419D01*
X017914Y013515D01*
X017817Y013515D01*
X017621Y013370D02*
X017524Y013370D01*
X017572Y013370D02*
X017572Y013660D01*
X017524Y013660D02*
X017621Y013660D01*
X017423Y013660D02*
X017229Y013660D01*
X017229Y013370D01*
X017128Y013370D02*
X017128Y013660D01*
X017229Y013515D02*
X017326Y013515D01*
X017128Y013370D02*
X016934Y013660D01*
X016934Y013370D01*
X016833Y013419D02*
X016833Y013612D01*
X016785Y013660D01*
X016688Y013660D01*
X016640Y013612D01*
X016640Y013419D01*
X016688Y013370D01*
X016785Y013370D01*
X016833Y013419D01*
X016539Y013419D02*
X016490Y013370D01*
X016394Y013370D01*
X016345Y013419D01*
X016345Y013612D01*
X016394Y013660D01*
X016490Y013660D01*
X016539Y013612D01*
X016180Y011285D02*
X016228Y011237D01*
X016228Y011189D01*
X016180Y011140D01*
X016228Y011092D01*
X016228Y011044D01*
X016180Y010995D01*
X016083Y010995D01*
X016034Y011044D01*
X016131Y011140D02*
X016180Y011140D01*
X016180Y011285D02*
X016083Y011285D01*
X016034Y011237D01*
X015933Y011285D02*
X015837Y011285D01*
X015885Y011285D02*
X015885Y011044D01*
X015837Y010995D01*
X015788Y010995D01*
X015740Y011044D01*
X015639Y011044D02*
X015590Y010995D01*
X015494Y010995D01*
X015445Y011044D01*
X015494Y011140D02*
X015590Y011140D01*
X015639Y011092D01*
X015639Y011044D01*
X015494Y011140D02*
X015445Y011189D01*
X015445Y011237D01*
X015494Y011285D01*
X015590Y011285D01*
X015639Y011237D01*
X015767Y009415D02*
X015912Y009415D01*
X015961Y009367D01*
X015961Y009270D01*
X015912Y009222D01*
X015767Y009222D01*
X015767Y009125D02*
X015767Y009415D01*
X015864Y009222D02*
X015961Y009125D01*
X016062Y009125D02*
X016062Y009415D01*
X016255Y009415D01*
X016357Y009415D02*
X016357Y009125D01*
X016550Y009125D01*
X016651Y009125D02*
X016651Y009319D01*
X016748Y009415D01*
X016845Y009319D01*
X016845Y009125D01*
X016845Y009270D02*
X016651Y009270D01*
X016946Y009367D02*
X017043Y009270D01*
X017043Y009125D01*
X017043Y009270D02*
X017139Y009367D01*
X017139Y009415D01*
X017241Y009319D02*
X017337Y009415D01*
X017337Y009125D01*
X017241Y009125D02*
X017434Y009125D01*
X016946Y009367D02*
X016946Y009415D01*
X016255Y009125D02*
X016062Y009125D01*
X016062Y009270D02*
X016159Y009270D01*
X011785Y009299D02*
X011737Y009251D01*
X011785Y009299D02*
X011785Y009396D01*
X011737Y009444D01*
X011688Y009444D01*
X011640Y009396D01*
X011640Y009347D01*
X011640Y009396D02*
X011592Y009444D01*
X011543Y009444D01*
X011495Y009396D01*
X011495Y009299D01*
X011543Y009251D01*
X011543Y009149D02*
X011495Y009101D01*
X011495Y009004D01*
X011543Y008956D01*
X011737Y008956D01*
X011785Y009004D01*
X011785Y009101D01*
X011737Y009149D01*
X010783Y009239D02*
X010590Y009045D01*
X010783Y009045D01*
X010783Y009239D02*
X010783Y009287D01*
X010735Y009335D01*
X010638Y009335D01*
X010590Y009287D01*
X010489Y009287D02*
X010440Y009335D01*
X010344Y009335D01*
X010295Y009287D01*
X010295Y009094D01*
X010344Y009045D01*
X010440Y009045D01*
X010489Y009094D01*
X011170Y010634D02*
X011170Y010731D01*
X011170Y010683D02*
X011460Y010683D01*
X011460Y010731D02*
X011460Y010634D01*
X011412Y010831D02*
X011460Y010879D01*
X011460Y010976D01*
X011412Y011024D01*
X011460Y011126D02*
X011460Y011319D01*
X011460Y011222D02*
X011170Y011222D01*
X011267Y011126D01*
X011218Y011024D02*
X011170Y010976D01*
X011170Y010879D01*
X011218Y010831D01*
X011412Y010831D01*
X008835Y008585D02*
X008690Y008440D01*
X008883Y008440D01*
X008835Y008295D02*
X008835Y008585D01*
X008589Y008537D02*
X008540Y008585D01*
X008444Y008585D01*
X008395Y008537D01*
X008395Y008344D01*
X008444Y008295D01*
X008540Y008295D01*
X008589Y008344D01*
X006338Y011709D02*
X006435Y011806D01*
X006338Y011903D01*
X006145Y011903D01*
X006145Y012004D02*
X006145Y012101D01*
X006145Y012052D02*
X006435Y012052D01*
X006435Y012004D02*
X006435Y012101D01*
X006435Y012201D02*
X006145Y012201D01*
X006435Y012394D01*
X006145Y012394D01*
X006145Y011709D02*
X006338Y011709D01*
X007623Y013295D02*
X007575Y013344D01*
X007575Y013440D01*
X007623Y013489D01*
X007720Y013440D02*
X007768Y013489D01*
X007817Y013489D01*
X007865Y013440D01*
X007865Y013344D01*
X007817Y013295D01*
X007720Y013344D02*
X007720Y013440D01*
X007720Y013344D02*
X007672Y013295D01*
X007623Y013295D01*
X007817Y013590D02*
X007865Y013638D01*
X007865Y013687D01*
X007817Y013735D01*
X007575Y013735D01*
X007575Y013687D02*
X007575Y013783D01*
X007672Y013884D02*
X007575Y013981D01*
X007865Y013981D01*
X007865Y013884D02*
X007865Y014078D01*
X007959Y015215D02*
X007959Y015409D01*
X007862Y015505D01*
X007765Y015409D01*
X007765Y015215D01*
X007765Y015360D02*
X007959Y015360D01*
X008060Y015312D02*
X008157Y015215D01*
X008253Y015312D01*
X008253Y015505D01*
X008354Y015505D02*
X008451Y015505D01*
X008403Y015505D02*
X008403Y015215D01*
X008451Y015215D02*
X008354Y015215D01*
X008551Y015215D02*
X008551Y015505D01*
X008744Y015215D01*
X008744Y015505D01*
X009115Y015457D02*
X009115Y015264D01*
X009164Y015215D01*
X009260Y015215D01*
X009309Y015264D01*
X009309Y015360D01*
X009212Y015360D01*
X009309Y015457D02*
X009260Y015505D01*
X009164Y015505D01*
X009115Y015457D01*
X009410Y015505D02*
X009410Y015215D01*
X009603Y015215D02*
X009410Y015505D01*
X009603Y015505D02*
X009603Y015215D01*
X009704Y015215D02*
X009850Y015215D01*
X009898Y015264D01*
X009898Y015457D01*
X009850Y015505D01*
X009704Y015505D01*
X009704Y015215D01*
X010894Y013935D02*
X010845Y013887D01*
X010845Y013839D01*
X010894Y013790D01*
X010990Y013790D01*
X011039Y013742D01*
X011039Y013694D01*
X010990Y013645D01*
X010894Y013645D01*
X010845Y013694D01*
X010894Y013935D02*
X010990Y013935D01*
X011039Y013887D01*
X011237Y013935D02*
X011333Y013935D01*
X011285Y013935D02*
X011285Y013694D01*
X011237Y013645D01*
X011188Y013645D01*
X011140Y013694D01*
X011434Y013645D02*
X011628Y013839D01*
X011628Y013887D01*
X011580Y013935D01*
X011483Y013935D01*
X011434Y013887D01*
X011434Y013645D02*
X011628Y013645D01*
X008060Y015312D02*
X008060Y015505D01*
X008444Y018374D02*
X008540Y018374D01*
X008589Y018422D01*
X008690Y018519D02*
X008883Y018519D01*
X008835Y018374D02*
X008835Y018664D01*
X008690Y018519D01*
X008589Y018616D02*
X008540Y018664D01*
X008444Y018664D01*
X008395Y018616D01*
X008395Y018422D01*
X008444Y018374D01*
X010295Y019172D02*
X010344Y019124D01*
X010440Y019124D01*
X010489Y019172D01*
X010590Y019124D02*
X010783Y019317D01*
X010783Y019366D01*
X010735Y019414D01*
X010638Y019414D01*
X010590Y019366D01*
X010489Y019366D02*
X010440Y019414D01*
X010344Y019414D01*
X010295Y019366D01*
X010295Y019172D01*
X010590Y019124D02*
X010783Y019124D01*
X011495Y019083D02*
X011543Y019035D01*
X011737Y019035D01*
X011785Y019083D01*
X011785Y019180D01*
X011737Y019228D01*
X011737Y019329D02*
X011785Y019378D01*
X011785Y019474D01*
X011737Y019523D01*
X011688Y019523D01*
X011640Y019474D01*
X011640Y019426D01*
X011640Y019474D02*
X011592Y019523D01*
X011543Y019523D01*
X011495Y019474D01*
X011495Y019378D01*
X011543Y019329D01*
X011543Y019228D02*
X011495Y019180D01*
X011495Y019083D01*
X011460Y020713D02*
X011460Y020810D01*
X011460Y020762D02*
X011170Y020762D01*
X011170Y020810D02*
X011170Y020713D01*
X011218Y020910D02*
X011170Y020958D01*
X011170Y021055D01*
X011218Y021103D01*
X011267Y021204D02*
X011170Y021301D01*
X011460Y021301D01*
X011460Y021204D02*
X011460Y021398D01*
X011412Y021103D02*
X011460Y021055D01*
X011460Y020958D01*
X011412Y020910D01*
X011218Y020910D01*
X011237Y023724D02*
X011285Y023772D01*
X011285Y024014D01*
X011237Y024014D02*
X011333Y024014D01*
X011434Y023966D02*
X011483Y024014D01*
X011580Y024014D01*
X011628Y023966D01*
X011628Y023917D01*
X011434Y023724D01*
X011628Y023724D01*
X011237Y023724D02*
X011188Y023724D01*
X011140Y023772D01*
X011039Y023772D02*
X010990Y023724D01*
X010894Y023724D01*
X010845Y023772D01*
X010894Y023869D02*
X010990Y023869D01*
X011039Y023821D01*
X011039Y023772D01*
X010894Y023869D02*
X010845Y023917D01*
X010845Y023966D01*
X010894Y024014D01*
X010990Y024014D01*
X011039Y023966D01*
X009850Y025294D02*
X009898Y025342D01*
X009898Y025536D01*
X009850Y025584D01*
X009704Y025584D01*
X009704Y025294D01*
X009850Y025294D01*
X009603Y025294D02*
X009603Y025584D01*
X009410Y025584D02*
X009603Y025294D01*
X009410Y025294D02*
X009410Y025584D01*
X009309Y025536D02*
X009260Y025584D01*
X009164Y025584D01*
X009115Y025536D01*
X009115Y025342D01*
X009164Y025294D01*
X009260Y025294D01*
X009309Y025342D01*
X009309Y025439D01*
X009212Y025439D01*
X008744Y025294D02*
X008744Y025584D01*
X008551Y025584D02*
X008744Y025294D01*
X008551Y025294D02*
X008551Y025584D01*
X008451Y025584D02*
X008354Y025584D01*
X008403Y025584D02*
X008403Y025294D01*
X008451Y025294D02*
X008354Y025294D01*
X008253Y025391D02*
X008253Y025584D01*
X008060Y025584D02*
X008060Y025391D01*
X008157Y025294D01*
X008253Y025391D01*
X007959Y025439D02*
X007765Y025439D01*
X007765Y025487D02*
X007862Y025584D01*
X007959Y025487D01*
X007959Y025294D01*
X007765Y025294D02*
X007765Y025487D01*
X007865Y024157D02*
X007865Y023963D01*
X007865Y024060D02*
X007575Y024060D01*
X007672Y023963D01*
X007575Y023862D02*
X007575Y023765D01*
X007575Y023814D02*
X007817Y023814D01*
X007865Y023765D01*
X007865Y023717D01*
X007817Y023669D01*
X007817Y023567D02*
X007865Y023519D01*
X007865Y023422D01*
X007817Y023374D01*
X007720Y023422D02*
X007720Y023519D01*
X007768Y023567D01*
X007817Y023567D01*
X007720Y023422D02*
X007672Y023374D01*
X007623Y023374D01*
X007575Y023422D01*
X007575Y023519D01*
X007623Y023567D01*
X006435Y022473D02*
X006145Y022473D01*
X006145Y022279D02*
X006435Y022473D01*
X006435Y022279D02*
X006145Y022279D01*
X006145Y022180D02*
X006145Y022083D01*
X006145Y022131D02*
X006435Y022131D01*
X006435Y022083D02*
X006435Y022180D01*
X006338Y021982D02*
X006145Y021982D01*
X006338Y021982D02*
X006435Y021885D01*
X006338Y021788D01*
X006145Y021788D01*
X008444Y028453D02*
X008540Y028453D01*
X008589Y028501D01*
X008690Y028598D02*
X008883Y028598D01*
X008835Y028453D02*
X008835Y028743D01*
X008690Y028598D01*
X008589Y028695D02*
X008540Y028743D01*
X008444Y028743D01*
X008395Y028695D01*
X008395Y028501D01*
X008444Y028453D01*
X010295Y029251D02*
X010344Y029203D01*
X010440Y029203D01*
X010489Y029251D01*
X010590Y029203D02*
X010783Y029396D01*
X010783Y029445D01*
X010735Y029493D01*
X010638Y029493D01*
X010590Y029445D01*
X010489Y029445D02*
X010440Y029493D01*
X010344Y029493D01*
X010295Y029445D01*
X010295Y029251D01*
X010590Y029203D02*
X010783Y029203D01*
X011495Y029162D02*
X011543Y029113D01*
X011737Y029113D01*
X011785Y029162D01*
X011785Y029258D01*
X011737Y029307D01*
X011737Y029408D02*
X011785Y029456D01*
X011785Y029553D01*
X011737Y029601D01*
X011688Y029601D01*
X011640Y029553D01*
X011640Y029505D01*
X011640Y029553D02*
X011592Y029601D01*
X011543Y029601D01*
X011495Y029553D01*
X011495Y029456D01*
X011543Y029408D01*
X011543Y029307D02*
X011495Y029258D01*
X011495Y029162D01*
X011460Y030792D02*
X011460Y030889D01*
X011460Y030840D02*
X011170Y030840D01*
X011170Y030792D02*
X011170Y030889D01*
X011218Y030988D02*
X011170Y031037D01*
X011170Y031133D01*
X011218Y031182D01*
X011267Y031283D02*
X011170Y031380D01*
X011460Y031380D01*
X011460Y031476D02*
X011460Y031283D01*
X011412Y031182D02*
X011460Y031133D01*
X011460Y031037D01*
X011412Y030988D01*
X011218Y030988D01*
X011237Y033803D02*
X011285Y033851D01*
X011285Y034093D01*
X011237Y034093D02*
X011333Y034093D01*
X011434Y034045D02*
X011483Y034093D01*
X011580Y034093D01*
X011628Y034045D01*
X011628Y033996D01*
X011434Y033803D01*
X011628Y033803D01*
X011237Y033803D02*
X011188Y033803D01*
X011140Y033851D01*
X011039Y033851D02*
X010990Y033803D01*
X010894Y033803D01*
X010845Y033851D01*
X010894Y033948D02*
X010990Y033948D01*
X011039Y033899D01*
X011039Y033851D01*
X010894Y033948D02*
X010845Y033996D01*
X010845Y034045D01*
X010894Y034093D01*
X010990Y034093D01*
X011039Y034045D01*
X009850Y035373D02*
X009898Y035421D01*
X009898Y035615D01*
X009850Y035663D01*
X009704Y035663D01*
X009704Y035373D01*
X009850Y035373D01*
X009603Y035373D02*
X009603Y035663D01*
X009410Y035663D02*
X009410Y035373D01*
X009309Y035421D02*
X009309Y035518D01*
X009212Y035518D01*
X009309Y035615D02*
X009260Y035663D01*
X009164Y035663D01*
X009115Y035615D01*
X009115Y035421D01*
X009164Y035373D01*
X009260Y035373D01*
X009309Y035421D01*
X009410Y035663D02*
X009603Y035373D01*
X008744Y035373D02*
X008744Y035663D01*
X008551Y035663D02*
X008744Y035373D01*
X008551Y035373D02*
X008551Y035663D01*
X008451Y035663D02*
X008354Y035663D01*
X008403Y035663D02*
X008403Y035373D01*
X008451Y035373D02*
X008354Y035373D01*
X008253Y035469D02*
X008253Y035663D01*
X008060Y035663D02*
X008060Y035469D01*
X008157Y035373D01*
X008253Y035469D01*
X007959Y035518D02*
X007765Y035518D01*
X007765Y035566D02*
X007765Y035373D01*
X007765Y035566D02*
X007862Y035663D01*
X007959Y035566D01*
X007959Y035373D01*
X007865Y034235D02*
X007865Y034042D01*
X007865Y034139D02*
X007575Y034139D01*
X007672Y034042D01*
X007575Y033941D02*
X007575Y033844D01*
X007575Y033892D02*
X007817Y033892D01*
X007865Y033844D01*
X007865Y033796D01*
X007817Y033747D01*
X007817Y033646D02*
X007865Y033598D01*
X007865Y033501D01*
X007817Y033453D01*
X007720Y033501D02*
X007720Y033598D01*
X007768Y033646D01*
X007817Y033646D01*
X007720Y033501D02*
X007672Y033453D01*
X007623Y033453D01*
X007575Y033501D01*
X007575Y033598D01*
X007623Y033646D01*
X006435Y032551D02*
X006145Y032551D01*
X006145Y032358D02*
X006435Y032551D01*
X006435Y032358D02*
X006145Y032358D01*
X006145Y032258D02*
X006145Y032162D01*
X006145Y032210D02*
X006435Y032210D01*
X006435Y032162D02*
X006435Y032258D01*
X006338Y032060D02*
X006145Y032060D01*
X006145Y031867D02*
X006338Y031867D01*
X006435Y031964D01*
X006338Y032060D01*
X015445Y031395D02*
X015445Y031346D01*
X015494Y031298D01*
X015590Y031298D01*
X015639Y031249D01*
X015639Y031201D01*
X015590Y031153D01*
X015494Y031153D01*
X015445Y031201D01*
X015445Y031395D02*
X015494Y031443D01*
X015590Y031443D01*
X015639Y031395D01*
X015837Y031443D02*
X015933Y031443D01*
X015885Y031443D02*
X015885Y031201D01*
X015837Y031153D01*
X015788Y031153D01*
X015740Y031201D01*
X016034Y031201D02*
X016083Y031153D01*
X016180Y031153D01*
X016228Y031201D01*
X016228Y031249D01*
X016180Y031298D01*
X016131Y031298D01*
X016180Y031298D02*
X016228Y031346D01*
X016228Y031395D01*
X016180Y031443D01*
X016083Y031443D01*
X016034Y031395D01*
X016062Y029573D02*
X016062Y029283D01*
X016255Y029283D01*
X016357Y029283D02*
X016550Y029283D01*
X016651Y029283D02*
X016651Y029476D01*
X016748Y029573D01*
X016845Y029476D01*
X016845Y029283D01*
X016845Y029428D02*
X016651Y029428D01*
X016946Y029525D02*
X017043Y029428D01*
X017043Y029283D01*
X017043Y029428D02*
X017139Y029525D01*
X017139Y029573D01*
X017241Y029476D02*
X017337Y029573D01*
X017337Y029283D01*
X017241Y029283D02*
X017434Y029283D01*
X016946Y029525D02*
X016946Y029573D01*
X016357Y029573D02*
X016357Y029283D01*
X016159Y029428D02*
X016062Y029428D01*
X015961Y029428D02*
X015912Y029379D01*
X015767Y029379D01*
X015767Y029283D02*
X015767Y029573D01*
X015912Y029573D01*
X015961Y029525D01*
X015961Y029428D01*
X015864Y029379D02*
X015961Y029283D01*
X016062Y029573D02*
X016255Y029573D01*
X016394Y033528D02*
X016345Y033576D01*
X016345Y033770D01*
X016394Y033818D01*
X016490Y033818D01*
X016539Y033770D01*
X016640Y033770D02*
X016640Y033576D01*
X016688Y033528D01*
X016785Y033528D01*
X016833Y033576D01*
X016833Y033770D01*
X016785Y033818D01*
X016688Y033818D01*
X016640Y033770D01*
X016539Y033576D02*
X016490Y033528D01*
X016394Y033528D01*
X016934Y033528D02*
X016934Y033818D01*
X017128Y033528D01*
X017128Y033818D01*
X017229Y033818D02*
X017229Y033528D01*
X017229Y033673D02*
X017326Y033673D01*
X017229Y033818D02*
X017423Y033818D01*
X017524Y033818D02*
X017621Y033818D01*
X017572Y033818D02*
X017572Y033528D01*
X017524Y033528D02*
X017621Y033528D01*
X017720Y033576D02*
X017769Y033528D01*
X017865Y033528D01*
X017914Y033576D01*
X017914Y033673D01*
X017817Y033673D01*
X017914Y033770D02*
X017865Y033818D01*
X017769Y033818D01*
X017720Y033770D01*
X017720Y033576D01*
X019195Y033703D02*
X019389Y033703D01*
X019490Y033703D02*
X019683Y033703D01*
X019784Y033703D02*
X019930Y033703D01*
X019978Y033751D01*
X019978Y033945D01*
X019930Y033993D01*
X019784Y033993D01*
X019784Y033703D01*
X019587Y033848D02*
X019490Y033848D01*
X019490Y033993D02*
X019490Y033703D01*
X019490Y033993D02*
X019683Y033993D01*
X020079Y033896D02*
X020176Y033993D01*
X020176Y033703D01*
X020079Y033703D02*
X020273Y033703D01*
X019195Y033703D02*
X019195Y033993D01*
X021143Y031076D02*
X021192Y031076D01*
X021240Y031028D01*
X021288Y031076D01*
X021337Y031076D01*
X021385Y031028D01*
X021385Y030931D01*
X021337Y030883D01*
X021240Y030980D02*
X021240Y031028D01*
X021143Y031076D02*
X021095Y031028D01*
X021095Y030931D01*
X021143Y030883D01*
X021095Y030782D02*
X021095Y030588D01*
X021095Y030685D02*
X021385Y030685D01*
X021385Y030487D02*
X021095Y030487D01*
X021095Y030294D02*
X021385Y030487D01*
X021385Y030294D02*
X021095Y030294D01*
X021192Y030193D02*
X021095Y030096D01*
X021192Y029999D01*
X021385Y029999D01*
X021240Y029999D02*
X021240Y030193D01*
X021192Y030193D02*
X021385Y030193D01*
X025295Y029994D02*
X025488Y029994D01*
X025585Y029898D01*
X025488Y029801D01*
X025295Y029801D01*
X025634Y030095D02*
X025634Y030289D01*
X025537Y030390D02*
X025585Y030438D01*
X025585Y030535D01*
X025537Y030584D01*
X025343Y030584D01*
X025295Y030535D01*
X025295Y030438D01*
X025343Y030390D01*
X025537Y030390D01*
X025537Y030685D02*
X025585Y030733D01*
X025585Y030830D01*
X025537Y030878D01*
X025295Y030878D01*
X025295Y030979D02*
X025295Y031173D01*
X025295Y031076D02*
X025585Y031076D01*
X025634Y031274D02*
X025634Y031468D01*
X025537Y031569D02*
X025585Y031617D01*
X025585Y031714D01*
X025537Y031762D01*
X025295Y031762D01*
X025343Y031863D02*
X025392Y031863D01*
X025440Y031912D01*
X025440Y032008D01*
X025488Y032057D01*
X025537Y032057D01*
X025585Y032008D01*
X025585Y031912D01*
X025537Y031863D01*
X025343Y031863D02*
X025295Y031912D01*
X025295Y032008D01*
X025343Y032057D01*
X025295Y032158D02*
X025295Y032303D01*
X025343Y032351D01*
X025392Y032351D01*
X025440Y032303D01*
X025440Y032158D01*
X025585Y032158D02*
X025295Y032158D01*
X025440Y032303D02*
X025488Y032351D01*
X025537Y032351D01*
X025585Y032303D01*
X025585Y032158D01*
X025537Y031569D02*
X025295Y031569D01*
X025295Y030685D02*
X025537Y030685D01*
X028975Y030696D02*
X029023Y030647D01*
X029217Y030647D01*
X029265Y030696D01*
X029265Y030792D01*
X029217Y030841D01*
X029023Y030841D01*
X028975Y030792D01*
X028975Y030696D01*
X028975Y030546D02*
X029168Y030546D01*
X029265Y030449D01*
X029168Y030353D01*
X028975Y030353D01*
X028975Y030942D02*
X029217Y030942D01*
X029265Y030990D01*
X029265Y031087D01*
X029217Y031135D01*
X028975Y031135D01*
X028975Y031237D02*
X028975Y031430D01*
X028975Y031333D02*
X029265Y031333D01*
X026937Y034213D02*
X026743Y034213D01*
X026695Y034262D01*
X026695Y034358D01*
X026743Y034407D01*
X026695Y034508D02*
X026840Y034508D01*
X026792Y034605D01*
X026792Y034653D01*
X026840Y034701D01*
X026937Y034701D01*
X026985Y034653D01*
X026985Y034556D01*
X026937Y034508D01*
X026937Y034407D02*
X026985Y034358D01*
X026985Y034262D01*
X026937Y034213D01*
X026695Y034508D02*
X026695Y034701D01*
X034275Y029265D02*
X034275Y029072D01*
X034372Y028975D01*
X034468Y029072D01*
X034468Y029265D01*
X034569Y029217D02*
X034569Y029024D01*
X034618Y028975D01*
X034715Y028975D01*
X034763Y029024D01*
X034763Y029217D01*
X034715Y029265D01*
X034618Y029265D01*
X034569Y029217D01*
X034864Y029265D02*
X034864Y029024D01*
X034912Y028975D01*
X035009Y028975D01*
X035058Y029024D01*
X035058Y029265D01*
X035159Y029265D02*
X035352Y029265D01*
X035256Y029265D02*
X035256Y028975D01*
X035315Y025585D02*
X035315Y025344D01*
X035266Y025295D01*
X035170Y025295D01*
X035121Y025344D01*
X035121Y025585D01*
X035416Y025537D02*
X035416Y025489D01*
X035464Y025440D01*
X035561Y025440D01*
X035609Y025392D01*
X035609Y025344D01*
X035561Y025295D01*
X035464Y025295D01*
X035416Y025344D01*
X035416Y025537D02*
X035464Y025585D01*
X035561Y025585D01*
X035609Y025537D01*
X035711Y025585D02*
X035856Y025585D01*
X035904Y025537D01*
X035904Y025489D01*
X035856Y025440D01*
X035711Y025440D01*
X035856Y025440D02*
X035904Y025392D01*
X035904Y025344D01*
X035856Y025295D01*
X035711Y025295D01*
X035711Y025585D01*
X035020Y025247D02*
X034827Y025247D01*
X034629Y025295D02*
X034629Y025585D01*
X034532Y025585D02*
X034726Y025585D01*
X034431Y025585D02*
X034431Y025344D01*
X034383Y025295D01*
X034286Y025295D01*
X034237Y025344D01*
X034237Y025585D01*
X034136Y025537D02*
X034088Y025585D01*
X033991Y025585D01*
X033943Y025537D01*
X033943Y025344D01*
X033991Y025295D01*
X034088Y025295D01*
X034136Y025344D01*
X034136Y025537D01*
X033842Y025247D02*
X033648Y025247D01*
X033547Y025392D02*
X033547Y025585D01*
X033547Y025392D02*
X033450Y025295D01*
X033353Y025392D01*
X033353Y025585D01*
X031492Y026744D02*
X031443Y026695D01*
X031346Y026695D01*
X031298Y026744D01*
X031298Y026840D02*
X031395Y026889D01*
X031443Y026889D01*
X031492Y026840D01*
X031492Y026744D01*
X031298Y026840D02*
X031298Y026985D01*
X031492Y026985D01*
X031197Y026937D02*
X031149Y026985D01*
X031052Y026985D01*
X031003Y026937D01*
X031003Y026744D01*
X031052Y026695D01*
X031149Y026695D01*
X031197Y026744D01*
X026985Y024574D02*
X026985Y024478D01*
X026937Y024429D01*
X026840Y024429D02*
X026792Y024526D01*
X026792Y024574D01*
X026840Y024623D01*
X026937Y024623D01*
X026985Y024574D01*
X026840Y024429D02*
X026695Y024429D01*
X026695Y024623D01*
X026743Y024328D02*
X026695Y024280D01*
X026695Y024183D01*
X026743Y024135D01*
X026937Y024135D01*
X026985Y024183D01*
X026985Y024280D01*
X026937Y024328D01*
X025537Y022273D02*
X025585Y022224D01*
X025585Y022079D01*
X025295Y022079D01*
X025295Y022224D01*
X025343Y022273D01*
X025392Y022273D01*
X025440Y022224D01*
X025440Y022079D01*
X025488Y021978D02*
X025537Y021978D01*
X025585Y021930D01*
X025585Y021833D01*
X025537Y021785D01*
X025537Y021683D02*
X025295Y021683D01*
X025343Y021785D02*
X025392Y021785D01*
X025440Y021833D01*
X025440Y021930D01*
X025488Y021978D01*
X025343Y021978D02*
X025295Y021930D01*
X025295Y021833D01*
X025343Y021785D01*
X025537Y021683D02*
X025585Y021635D01*
X025585Y021538D01*
X025537Y021490D01*
X025295Y021490D01*
X025634Y021389D02*
X025634Y021195D01*
X025585Y020997D02*
X025295Y020997D01*
X025295Y020901D02*
X025295Y021094D01*
X025295Y020799D02*
X025537Y020799D01*
X025585Y020751D01*
X025585Y020654D01*
X025537Y020606D01*
X025295Y020606D01*
X025343Y020505D02*
X025295Y020456D01*
X025295Y020360D01*
X025343Y020311D01*
X025537Y020311D01*
X025585Y020360D01*
X025585Y020456D01*
X025537Y020505D01*
X025343Y020505D01*
X025634Y020210D02*
X025634Y020017D01*
X025488Y019916D02*
X025585Y019819D01*
X025488Y019722D01*
X025295Y019722D01*
X025295Y019916D02*
X025488Y019916D01*
X025440Y022224D02*
X025488Y022273D01*
X025537Y022273D01*
X028975Y021351D02*
X028975Y021158D01*
X028975Y021255D02*
X029265Y021255D01*
X029217Y021057D02*
X028975Y021057D01*
X028975Y020863D02*
X029217Y020863D01*
X029265Y020912D01*
X029265Y021008D01*
X029217Y021057D01*
X029217Y020762D02*
X029023Y020762D01*
X028975Y020714D01*
X028975Y020617D01*
X029023Y020569D01*
X029217Y020569D01*
X029265Y020617D01*
X029265Y020714D01*
X029217Y020762D01*
X029168Y020467D02*
X028975Y020467D01*
X028975Y020274D02*
X029168Y020274D01*
X029265Y020371D01*
X029168Y020467D01*
X031783Y020176D02*
X032073Y020176D01*
X032073Y020079D02*
X032073Y020273D01*
X031880Y020079D02*
X031783Y020176D01*
X031832Y019978D02*
X031783Y019930D01*
X031783Y019784D01*
X032073Y019784D01*
X032073Y019930D01*
X032025Y019978D01*
X031832Y019978D01*
X031783Y019683D02*
X031783Y019490D01*
X032073Y019490D01*
X032073Y019683D01*
X031928Y019587D02*
X031928Y019490D01*
X032073Y019389D02*
X032073Y019195D01*
X031783Y019195D01*
X032007Y017914D02*
X031958Y017865D01*
X031958Y017769D01*
X032007Y017720D01*
X032200Y017720D01*
X032248Y017769D01*
X032248Y017865D01*
X032200Y017914D01*
X032103Y017914D01*
X032103Y017817D01*
X031958Y017621D02*
X031958Y017524D01*
X031958Y017572D02*
X032248Y017572D01*
X032248Y017524D02*
X032248Y017621D01*
X032103Y017326D02*
X032103Y017229D01*
X031958Y017229D02*
X031958Y017423D01*
X031958Y017229D02*
X032248Y017229D01*
X032248Y017128D02*
X031958Y017128D01*
X031958Y016934D02*
X032248Y017128D01*
X032248Y016934D02*
X031958Y016934D01*
X032007Y016833D02*
X031958Y016785D01*
X031958Y016688D01*
X032007Y016640D01*
X032200Y016640D01*
X032248Y016688D01*
X032248Y016785D01*
X032200Y016833D01*
X032007Y016833D01*
X032007Y016539D02*
X031958Y016490D01*
X031958Y016394D01*
X032007Y016345D01*
X032200Y016345D01*
X032248Y016394D01*
X032248Y016490D01*
X032200Y016539D01*
X034333Y016180D02*
X034382Y016228D01*
X034430Y016228D01*
X034478Y016180D01*
X034527Y016228D01*
X034575Y016228D01*
X034623Y016180D01*
X034623Y016083D01*
X034575Y016034D01*
X034478Y016131D02*
X034478Y016180D01*
X034333Y016180D02*
X034333Y016083D01*
X034382Y016034D01*
X034333Y015933D02*
X034333Y015837D01*
X034333Y015885D02*
X034575Y015885D01*
X034623Y015837D01*
X034623Y015788D01*
X034575Y015740D01*
X034575Y015639D02*
X034623Y015590D01*
X034623Y015494D01*
X034575Y015445D01*
X034478Y015494D02*
X034478Y015590D01*
X034527Y015639D01*
X034575Y015639D01*
X034478Y015494D02*
X034430Y015445D01*
X034382Y015445D01*
X034333Y015494D01*
X034333Y015590D01*
X034382Y015639D01*
X036203Y015767D02*
X036203Y015912D01*
X036252Y015961D01*
X036348Y015961D01*
X036397Y015912D01*
X036397Y015767D01*
X036493Y015767D02*
X036203Y015767D01*
X036397Y015864D02*
X036493Y015961D01*
X036493Y016062D02*
X036203Y016062D01*
X036203Y016255D01*
X036203Y016357D02*
X036493Y016357D01*
X036493Y016550D01*
X036493Y016651D02*
X036300Y016651D01*
X036203Y016748D01*
X036300Y016845D01*
X036493Y016845D01*
X036348Y016845D02*
X036348Y016651D01*
X036252Y016946D02*
X036348Y017043D01*
X036493Y017043D01*
X036348Y017043D02*
X036252Y017139D01*
X036203Y017139D01*
X036300Y017241D02*
X036203Y017337D01*
X036493Y017337D01*
X036493Y017241D02*
X036493Y017434D01*
X036252Y016946D02*
X036203Y016946D01*
X036493Y016255D02*
X036493Y016062D01*
X036348Y016062D02*
X036348Y016159D01*
X035658Y021095D02*
X035658Y021385D01*
X035512Y021240D01*
X035706Y021240D01*
X035411Y021385D02*
X035218Y021385D01*
X035314Y021385D02*
X035314Y021095D01*
X035117Y021095D02*
X035117Y021385D01*
X034923Y021385D02*
X035117Y021095D01*
X034923Y021095D02*
X034923Y021385D01*
X034822Y021289D02*
X034822Y021095D01*
X034822Y021240D02*
X034628Y021240D01*
X034628Y021289D02*
X034725Y021385D01*
X034822Y021289D01*
X034628Y021289D02*
X034628Y021095D01*
X021385Y020998D02*
X021385Y020804D01*
X021192Y020998D01*
X021143Y020998D01*
X021095Y020949D01*
X021095Y020853D01*
X021143Y020804D01*
X021095Y020703D02*
X021095Y020510D01*
X021095Y020606D02*
X021385Y020606D01*
X021385Y020408D02*
X021095Y020408D01*
X021095Y020215D02*
X021385Y020408D01*
X021385Y020215D02*
X021095Y020215D01*
X021192Y020114D02*
X021095Y020017D01*
X021192Y019920D01*
X021385Y019920D01*
X021240Y019920D02*
X021240Y020114D01*
X021192Y020114D02*
X021385Y020114D01*
X020273Y023624D02*
X020079Y023624D01*
X020176Y023624D02*
X020176Y023914D01*
X020079Y023817D01*
X019978Y023866D02*
X019930Y023914D01*
X019784Y023914D01*
X019784Y023624D01*
X019930Y023624D01*
X019978Y023672D01*
X019978Y023866D01*
X019683Y023914D02*
X019490Y023914D01*
X019490Y023624D01*
X019683Y023624D01*
X019587Y023769D02*
X019490Y023769D01*
X019389Y023624D02*
X019195Y023624D01*
X019195Y023914D01*
X017914Y023691D02*
X017865Y023739D01*
X017769Y023739D01*
X017720Y023691D01*
X017720Y023497D01*
X017769Y023449D01*
X017865Y023449D01*
X017914Y023497D01*
X017914Y023594D01*
X017817Y023594D01*
X017621Y023449D02*
X017524Y023449D01*
X017572Y023449D02*
X017572Y023739D01*
X017524Y023739D02*
X017621Y023739D01*
X017423Y023739D02*
X017229Y023739D01*
X017229Y023449D01*
X017128Y023449D02*
X017128Y023739D01*
X017229Y023594D02*
X017326Y023594D01*
X017128Y023449D02*
X016934Y023739D01*
X016934Y023449D01*
X016833Y023497D02*
X016833Y023691D01*
X016785Y023739D01*
X016688Y023739D01*
X016640Y023691D01*
X016640Y023497D01*
X016688Y023449D01*
X016785Y023449D01*
X016833Y023497D01*
X016539Y023497D02*
X016490Y023449D01*
X016394Y023449D01*
X016345Y023497D01*
X016345Y023691D01*
X016394Y023739D01*
X016490Y023739D01*
X016539Y023691D01*
X016180Y021364D02*
X016228Y021316D01*
X016228Y021267D01*
X016180Y021219D01*
X016228Y021171D01*
X016228Y021122D01*
X016180Y021074D01*
X016083Y021074D01*
X016034Y021122D01*
X016131Y021219D02*
X016180Y021219D01*
X016180Y021364D02*
X016083Y021364D01*
X016034Y021316D01*
X015933Y021364D02*
X015837Y021364D01*
X015885Y021364D02*
X015885Y021122D01*
X015837Y021074D01*
X015788Y021074D01*
X015740Y021122D01*
X015639Y021122D02*
X015590Y021074D01*
X015494Y021074D01*
X015445Y021122D01*
X015494Y021219D02*
X015590Y021219D01*
X015639Y021171D01*
X015639Y021122D01*
X015494Y021219D02*
X015445Y021267D01*
X015445Y021316D01*
X015494Y021364D01*
X015590Y021364D01*
X015639Y021316D01*
X015767Y019494D02*
X015912Y019494D01*
X015961Y019446D01*
X015961Y019349D01*
X015912Y019301D01*
X015767Y019301D01*
X015864Y019301D02*
X015961Y019204D01*
X016062Y019204D02*
X016062Y019494D01*
X016255Y019494D01*
X016357Y019494D02*
X016357Y019204D01*
X016550Y019204D01*
X016651Y019204D02*
X016651Y019397D01*
X016748Y019494D01*
X016845Y019397D01*
X016845Y019204D01*
X016845Y019349D02*
X016651Y019349D01*
X016946Y019446D02*
X016946Y019494D01*
X016946Y019446D02*
X017043Y019349D01*
X017043Y019204D01*
X017043Y019349D02*
X017139Y019446D01*
X017139Y019494D01*
X017241Y019397D02*
X017337Y019494D01*
X017337Y019204D01*
X017241Y019204D02*
X017434Y019204D01*
X016255Y019204D02*
X016062Y019204D01*
X016062Y019349D02*
X016159Y019349D01*
X015767Y019204D02*
X015767Y019494D01*
D12*
X009431Y019843D02*
X009431Y019919D01*
X009354Y019996D01*
X008971Y019996D01*
X008971Y019919D02*
X008971Y020073D01*
X009124Y020226D02*
X008971Y020380D01*
X009431Y020380D01*
X009431Y020533D02*
X009431Y020226D01*
X009431Y019843D02*
X009354Y019766D01*
X009431Y010454D02*
X009431Y010148D01*
X009431Y010301D02*
X008971Y010301D01*
X009124Y010148D01*
X008971Y009994D02*
X008971Y009841D01*
X008971Y009917D02*
X009354Y009917D01*
X009431Y009841D01*
X009431Y009764D01*
X009354Y009687D01*
X009354Y029845D02*
X009431Y029921D01*
X009431Y029998D01*
X009354Y030075D01*
X008971Y030075D01*
X008971Y029998D02*
X008971Y030152D01*
X009124Y030305D02*
X008971Y030459D01*
X009431Y030459D01*
X009431Y030612D02*
X009431Y030305D01*
X035051Y009048D02*
X035127Y008971D01*
X035204Y008971D01*
X035281Y009048D01*
X035281Y009431D01*
X035204Y009431D02*
X035358Y009431D01*
X035511Y009278D02*
X035664Y009431D01*
X035664Y008971D01*
X035511Y008971D02*
X035818Y008971D01*
D13*
X035638Y008650D02*
X035640Y008678D01*
X035646Y008705D01*
X035655Y008731D01*
X035668Y008756D01*
X035685Y008779D01*
X035704Y008799D01*
X035726Y008816D01*
X035750Y008830D01*
X035776Y008840D01*
X035803Y008847D01*
X035831Y008850D01*
X035859Y008849D01*
X035886Y008844D01*
X035913Y008835D01*
X035938Y008823D01*
X035961Y008808D01*
X035982Y008789D01*
X036000Y008768D01*
X036015Y008744D01*
X036026Y008718D01*
X036034Y008692D01*
X036038Y008664D01*
X036038Y008636D01*
X036034Y008608D01*
X036026Y008582D01*
X036015Y008556D01*
X036000Y008532D01*
X035982Y008511D01*
X035961Y008492D01*
X035938Y008477D01*
X035913Y008465D01*
X035886Y008456D01*
X035859Y008451D01*
X035831Y008450D01*
X035803Y008453D01*
X035776Y008460D01*
X035750Y008470D01*
X035726Y008484D01*
X035704Y008501D01*
X035685Y008521D01*
X035668Y008544D01*
X035655Y008569D01*
X035646Y008595D01*
X035640Y008622D01*
X035638Y008650D01*
X036838Y009180D02*
X036838Y009280D01*
X032838Y009280D01*
X032838Y009180D01*
X032838Y006580D01*
X032838Y005630D01*
X036838Y005630D01*
X036838Y006580D01*
X036838Y009180D01*
X032838Y009180D01*
X032388Y009180D02*
X032388Y008080D01*
X032386Y008063D01*
X032382Y008046D01*
X032375Y008030D01*
X032365Y008016D01*
X032352Y008003D01*
X032338Y007993D01*
X032322Y007986D01*
X032305Y007982D01*
X032288Y007980D01*
X031688Y007980D01*
X031671Y007982D01*
X031654Y007986D01*
X031638Y007993D01*
X031624Y008003D01*
X031611Y008016D01*
X031601Y008030D01*
X031594Y008046D01*
X031590Y008063D01*
X031588Y008080D01*
X031588Y009180D01*
X031590Y009197D01*
X031594Y009214D01*
X031601Y009230D01*
X031611Y009244D01*
X031624Y009257D01*
X031638Y009267D01*
X031654Y009274D01*
X031671Y009278D01*
X031688Y009280D01*
X032288Y009280D01*
X032305Y009278D01*
X032322Y009274D01*
X032338Y009267D01*
X032352Y009257D01*
X032365Y009244D01*
X032375Y009230D01*
X032382Y009214D01*
X032386Y009197D01*
X032388Y009180D01*
X031538Y009330D02*
X031288Y009080D01*
X030788Y009080D01*
X030538Y009330D01*
X030538Y009830D01*
X030788Y010080D01*
X030538Y010330D01*
X030538Y010830D01*
X030788Y011080D01*
X031288Y011080D01*
X031538Y010830D01*
X031538Y010330D01*
X031288Y010080D01*
X031538Y009830D01*
X031538Y009330D01*
X031288Y008780D02*
X030788Y008780D01*
X030538Y008530D01*
X030538Y008030D01*
X030788Y007780D01*
X031288Y007780D01*
X031538Y008030D01*
X031538Y008530D01*
X031288Y008780D01*
X031288Y010080D02*
X030788Y010080D01*
X030788Y011080D02*
X030538Y011330D01*
X030538Y011830D01*
X030788Y012080D01*
X030538Y012330D01*
X030538Y012830D01*
X030788Y013080D01*
X030538Y013330D01*
X030538Y013830D01*
X030788Y014080D01*
X030538Y014330D01*
X030538Y014830D01*
X030788Y015080D01*
X031288Y015080D01*
X031538Y014830D01*
X031538Y014330D01*
X031288Y014080D01*
X031538Y013830D01*
X031538Y013330D01*
X031288Y013080D01*
X031538Y012830D01*
X031538Y012330D01*
X031288Y012080D01*
X031538Y011830D01*
X031538Y011330D01*
X031288Y011080D01*
X031688Y011630D02*
X032288Y011630D01*
X032305Y011632D01*
X032322Y011636D01*
X032338Y011643D01*
X032352Y011653D01*
X032365Y011666D01*
X032375Y011680D01*
X032382Y011696D01*
X032386Y011713D01*
X032388Y011730D01*
X032388Y013430D01*
X032386Y013447D01*
X032382Y013464D01*
X032375Y013480D01*
X032365Y013494D01*
X032352Y013507D01*
X032338Y013517D01*
X032322Y013524D01*
X032305Y013528D01*
X032288Y013530D01*
X031688Y013530D01*
X031671Y013528D01*
X031654Y013524D01*
X031638Y013517D01*
X031624Y013507D01*
X031611Y013494D01*
X031601Y013480D01*
X031594Y013464D01*
X031590Y013447D01*
X031588Y013430D01*
X031588Y011730D01*
X031590Y011713D01*
X031594Y011696D01*
X031601Y011680D01*
X031611Y011666D01*
X031624Y011653D01*
X031638Y011643D01*
X031654Y011636D01*
X031671Y011632D01*
X031688Y011630D01*
X031288Y012080D02*
X030788Y012080D01*
X030788Y013080D02*
X031288Y013080D01*
X031288Y014080D02*
X030788Y014080D01*
X029580Y012780D02*
X029580Y008780D01*
X028630Y008780D01*
X028630Y009430D01*
X028630Y008780D02*
X026030Y008780D01*
X025930Y008780D01*
X025930Y012780D01*
X026030Y012780D01*
X028630Y012780D01*
X028630Y012130D01*
X028630Y012780D02*
X029580Y012780D01*
X028630Y011430D02*
X028630Y010130D01*
X026360Y009780D02*
X026362Y009808D01*
X026368Y009835D01*
X026377Y009861D01*
X026390Y009886D01*
X026407Y009909D01*
X026426Y009929D01*
X026448Y009946D01*
X026472Y009960D01*
X026498Y009970D01*
X026525Y009977D01*
X026553Y009980D01*
X026581Y009979D01*
X026608Y009974D01*
X026635Y009965D01*
X026660Y009953D01*
X026683Y009938D01*
X026704Y009919D01*
X026722Y009898D01*
X026737Y009874D01*
X026748Y009848D01*
X026756Y009822D01*
X026760Y009794D01*
X026760Y009766D01*
X026756Y009738D01*
X026748Y009712D01*
X026737Y009686D01*
X026722Y009662D01*
X026704Y009641D01*
X026683Y009622D01*
X026660Y009607D01*
X026635Y009595D01*
X026608Y009586D01*
X026581Y009581D01*
X026553Y009580D01*
X026525Y009583D01*
X026498Y009590D01*
X026472Y009600D01*
X026448Y009614D01*
X026426Y009631D01*
X026407Y009651D01*
X026390Y009674D01*
X026377Y009699D01*
X026368Y009725D01*
X026362Y009752D01*
X026360Y009780D01*
X026030Y008780D02*
X026030Y012780D01*
X026360Y011780D02*
X026362Y011808D01*
X026368Y011835D01*
X026377Y011861D01*
X026390Y011886D01*
X026407Y011909D01*
X026426Y011929D01*
X026448Y011946D01*
X026472Y011960D01*
X026498Y011970D01*
X026525Y011977D01*
X026553Y011980D01*
X026581Y011979D01*
X026608Y011974D01*
X026635Y011965D01*
X026660Y011953D01*
X026683Y011938D01*
X026704Y011919D01*
X026722Y011898D01*
X026737Y011874D01*
X026748Y011848D01*
X026756Y011822D01*
X026760Y011794D01*
X026760Y011766D01*
X026756Y011738D01*
X026748Y011712D01*
X026737Y011686D01*
X026722Y011662D01*
X026704Y011641D01*
X026683Y011622D01*
X026660Y011607D01*
X026635Y011595D01*
X026608Y011586D01*
X026581Y011581D01*
X026553Y011580D01*
X026525Y011583D01*
X026498Y011590D01*
X026472Y011600D01*
X026448Y011614D01*
X026426Y011631D01*
X026407Y011651D01*
X026390Y011674D01*
X026377Y011699D01*
X026368Y011725D01*
X026362Y011752D01*
X026360Y011780D01*
X023710Y007550D02*
X023780Y007480D01*
X023720Y007390D01*
X023760Y007300D01*
X023860Y007280D01*
X023860Y007190D01*
X023760Y007170D01*
X023720Y007080D01*
X023780Y006990D01*
X023710Y006930D01*
X023630Y006990D01*
X023590Y006970D01*
X023530Y007130D01*
X023410Y007130D02*
X023350Y006970D01*
X023310Y006990D01*
X023230Y006930D01*
X023160Y006990D01*
X023220Y007080D01*
X023180Y007170D01*
X023080Y007190D01*
X023080Y007280D01*
X023190Y007300D01*
X023220Y007390D01*
X023160Y007480D01*
X023230Y007550D01*
X023320Y007480D01*
X023400Y007520D01*
X023430Y007630D01*
X023520Y007630D01*
X023540Y007520D01*
X023620Y007480D01*
X023710Y007550D01*
X023530Y007130D02*
X023547Y007142D01*
X023562Y007157D01*
X023575Y007174D01*
X023584Y007193D01*
X023589Y007214D01*
X023591Y007235D01*
X023589Y007256D01*
X023584Y007276D01*
X023575Y007295D01*
X023563Y007313D01*
X023548Y007328D01*
X023531Y007340D01*
X023511Y007349D01*
X023491Y007354D01*
X023470Y007356D01*
X023449Y007354D01*
X023429Y007349D01*
X023409Y007340D01*
X023392Y007328D01*
X023377Y007313D01*
X023365Y007295D01*
X023356Y007276D01*
X023351Y007256D01*
X023349Y007235D01*
X023351Y007214D01*
X023356Y007193D01*
X023365Y007174D01*
X023378Y007157D01*
X023393Y007142D01*
X023410Y007130D01*
X023393Y007142D01*
X023378Y007157D01*
X023365Y007174D01*
X023356Y007193D01*
X023351Y007214D01*
X023349Y007235D01*
X023351Y007256D01*
X023356Y007276D01*
X023365Y007295D01*
X023377Y007313D01*
X023392Y007328D01*
X023409Y007340D01*
X023429Y007349D01*
X023449Y007354D01*
X023470Y007356D01*
X023491Y007354D01*
X023511Y007349D01*
X023531Y007340D01*
X023548Y007328D01*
X023563Y007313D01*
X023575Y007295D01*
X023584Y007276D01*
X023589Y007256D01*
X023591Y007235D01*
X023589Y007214D01*
X023584Y007193D01*
X023575Y007174D01*
X023562Y007157D01*
X023547Y007142D01*
X023530Y007130D01*
X020680Y009880D02*
X020680Y009930D01*
X020680Y009880D02*
X020480Y009880D01*
X020480Y009930D01*
X020480Y010830D02*
X020480Y010880D01*
X020680Y010880D01*
X020680Y010830D01*
X017330Y011580D02*
X017330Y012180D01*
X017328Y012197D01*
X017324Y012214D01*
X017317Y012230D01*
X017307Y012244D01*
X017294Y012257D01*
X017280Y012267D01*
X017264Y012274D01*
X017247Y012278D01*
X017230Y012280D01*
X015530Y012280D01*
X015513Y012278D01*
X015496Y012274D01*
X015480Y012267D01*
X015466Y012257D01*
X015453Y012244D01*
X015443Y012230D01*
X015436Y012214D01*
X015432Y012197D01*
X015430Y012180D01*
X015430Y011580D01*
X015432Y011563D01*
X015436Y011546D01*
X015443Y011530D01*
X015453Y011516D01*
X015466Y011503D01*
X015480Y011493D01*
X015496Y011486D01*
X015513Y011482D01*
X015530Y011480D01*
X017230Y011480D01*
X017247Y011482D01*
X017264Y011486D01*
X017280Y011493D01*
X017294Y011503D01*
X017307Y011516D01*
X017317Y011530D01*
X017324Y011546D01*
X017328Y011563D01*
X017330Y011580D01*
X014830Y014080D02*
X014330Y014080D01*
X014080Y014330D01*
X013830Y014080D01*
X013330Y014080D01*
X013080Y014330D01*
X012830Y014080D01*
X012330Y014080D01*
X012080Y014330D01*
X011830Y014080D01*
X011330Y014080D01*
X011080Y014330D01*
X010830Y014080D01*
X010330Y014080D01*
X010080Y014330D01*
X009830Y014080D01*
X009330Y014080D01*
X009080Y014330D01*
X009080Y014830D01*
X009330Y015080D01*
X009830Y015080D01*
X010080Y014830D01*
X010330Y015080D01*
X010830Y015080D01*
X011080Y014830D01*
X011080Y014330D01*
X011080Y014830D02*
X011330Y015080D01*
X011830Y015080D01*
X012080Y014830D01*
X012330Y015080D01*
X012830Y015080D01*
X013080Y014830D01*
X013330Y015080D01*
X013830Y015080D01*
X014080Y014830D01*
X014330Y015080D01*
X014830Y015080D01*
X015080Y014830D01*
X015080Y014330D01*
X014830Y014080D01*
X014080Y014330D02*
X014080Y014830D01*
X013430Y014030D02*
X011730Y014030D01*
X011713Y014028D01*
X011696Y014024D01*
X011680Y014017D01*
X011666Y014007D01*
X011653Y013994D01*
X011643Y013980D01*
X011636Y013964D01*
X011632Y013947D01*
X011630Y013930D01*
X011630Y013330D01*
X011632Y013313D01*
X011636Y013296D01*
X011643Y013280D01*
X011653Y013266D01*
X011666Y013253D01*
X011680Y013243D01*
X011696Y013236D01*
X011713Y013232D01*
X011730Y013230D01*
X013430Y013230D01*
X013447Y013232D01*
X013464Y013236D01*
X013480Y013243D01*
X013494Y013253D01*
X013507Y013266D01*
X013517Y013280D01*
X013524Y013296D01*
X013528Y013313D01*
X013530Y013330D01*
X013530Y013930D01*
X013528Y013947D01*
X013524Y013964D01*
X013517Y013980D01*
X013507Y013994D01*
X013494Y014007D01*
X013480Y014017D01*
X013464Y014024D01*
X013447Y014028D01*
X013430Y014030D01*
X013080Y014330D02*
X013080Y014830D01*
X012080Y014830D02*
X012080Y014330D01*
X010080Y014330D02*
X010080Y014830D01*
X009280Y013930D02*
X009280Y013330D01*
X009278Y013313D01*
X009274Y013296D01*
X009267Y013280D01*
X009257Y013266D01*
X009244Y013253D01*
X009230Y013243D01*
X009214Y013236D01*
X009197Y013232D01*
X009180Y013230D01*
X008080Y013230D01*
X008063Y013232D01*
X008046Y013236D01*
X008030Y013243D01*
X008016Y013253D01*
X008003Y013266D01*
X007993Y013280D01*
X007986Y013296D01*
X007982Y013313D01*
X007980Y013330D01*
X007980Y013930D01*
X007982Y013947D01*
X007986Y013964D01*
X007993Y013980D01*
X008003Y013994D01*
X008016Y014007D01*
X008030Y014017D01*
X008046Y014024D01*
X008063Y014028D01*
X008080Y014030D01*
X009180Y014030D01*
X009197Y014028D01*
X009214Y014024D01*
X009230Y014017D01*
X009244Y014007D01*
X009257Y013994D01*
X009267Y013980D01*
X009274Y013964D01*
X009278Y013947D01*
X009280Y013930D01*
X008780Y014330D02*
X008780Y014830D01*
X008530Y015080D01*
X008030Y015080D01*
X007780Y014830D01*
X007780Y014330D01*
X008030Y014080D01*
X008530Y014080D01*
X008780Y014330D01*
X009180Y012780D02*
X009280Y012780D01*
X009280Y008780D01*
X009180Y008780D01*
X006580Y008780D01*
X006580Y009430D01*
X006580Y008780D02*
X005630Y008780D01*
X005630Y012780D01*
X006580Y012780D01*
X006580Y012130D01*
X006580Y012780D02*
X009180Y012780D01*
X009180Y008780D01*
X009430Y008430D02*
X009630Y008430D01*
X009530Y008330D02*
X009530Y008530D01*
X009380Y008430D02*
X009382Y008496D01*
X009388Y008561D01*
X009398Y008626D01*
X009411Y008691D01*
X009429Y008754D01*
X009450Y008817D01*
X009475Y008877D01*
X009504Y008937D01*
X009536Y008994D01*
X009571Y009050D01*
X009610Y009103D01*
X009652Y009154D01*
X009696Y009202D01*
X009744Y009247D01*
X009794Y009290D01*
X009847Y009329D01*
X009902Y009366D01*
X009959Y009399D01*
X010018Y009428D01*
X010078Y009454D01*
X010140Y009476D01*
X010203Y009495D01*
X010267Y009509D01*
X010332Y009520D01*
X010398Y009527D01*
X010464Y009530D01*
X010529Y009529D01*
X010595Y009524D01*
X010660Y009515D01*
X010725Y009502D01*
X010788Y009486D01*
X010851Y009466D01*
X010912Y009441D01*
X010972Y009414D01*
X011030Y009383D01*
X011086Y009348D01*
X011140Y009310D01*
X011191Y009269D01*
X011240Y009225D01*
X011286Y009178D01*
X011330Y009129D01*
X011370Y009077D01*
X011407Y009022D01*
X011441Y008966D01*
X011471Y008907D01*
X011498Y008847D01*
X011521Y008786D01*
X011540Y008723D01*
X011556Y008659D01*
X011568Y008594D01*
X011576Y008529D01*
X011580Y008463D01*
X011580Y008397D01*
X011576Y008331D01*
X011568Y008266D01*
X011556Y008201D01*
X011540Y008137D01*
X011521Y008074D01*
X011498Y008013D01*
X011471Y007953D01*
X011441Y007894D01*
X011407Y007838D01*
X011370Y007783D01*
X011330Y007731D01*
X011286Y007682D01*
X011240Y007635D01*
X011191Y007591D01*
X011140Y007550D01*
X011086Y007512D01*
X011030Y007477D01*
X010972Y007446D01*
X010912Y007419D01*
X010851Y007394D01*
X010788Y007374D01*
X010725Y007358D01*
X010660Y007345D01*
X010595Y007336D01*
X010529Y007331D01*
X010464Y007330D01*
X010398Y007333D01*
X010332Y007340D01*
X010267Y007351D01*
X010203Y007365D01*
X010140Y007384D01*
X010078Y007406D01*
X010018Y007432D01*
X009959Y007461D01*
X009902Y007494D01*
X009847Y007531D01*
X009794Y007570D01*
X009744Y007613D01*
X009696Y007658D01*
X009652Y007706D01*
X009610Y007757D01*
X009571Y007810D01*
X009536Y007866D01*
X009504Y007923D01*
X009475Y007983D01*
X009450Y008043D01*
X009429Y008106D01*
X009411Y008169D01*
X009398Y008234D01*
X009388Y008299D01*
X009382Y008364D01*
X009380Y008430D01*
X008450Y009780D02*
X008452Y009808D01*
X008458Y009835D01*
X008467Y009861D01*
X008480Y009886D01*
X008497Y009909D01*
X008516Y009929D01*
X008538Y009946D01*
X008562Y009960D01*
X008588Y009970D01*
X008615Y009977D01*
X008643Y009980D01*
X008671Y009979D01*
X008698Y009974D01*
X008725Y009965D01*
X008750Y009953D01*
X008773Y009938D01*
X008794Y009919D01*
X008812Y009898D01*
X008827Y009874D01*
X008838Y009848D01*
X008846Y009822D01*
X008850Y009794D01*
X008850Y009766D01*
X008846Y009738D01*
X008838Y009712D01*
X008827Y009686D01*
X008812Y009662D01*
X008794Y009641D01*
X008773Y009622D01*
X008750Y009607D01*
X008725Y009595D01*
X008698Y009586D01*
X008671Y009581D01*
X008643Y009580D01*
X008615Y009583D01*
X008588Y009590D01*
X008562Y009600D01*
X008538Y009614D01*
X008516Y009631D01*
X008497Y009651D01*
X008480Y009674D01*
X008467Y009699D01*
X008458Y009725D01*
X008452Y009752D01*
X008450Y009780D01*
X006580Y010130D02*
X006580Y011430D01*
X008450Y011780D02*
X008452Y011808D01*
X008458Y011835D01*
X008467Y011861D01*
X008480Y011886D01*
X008497Y011909D01*
X008516Y011929D01*
X008538Y011946D01*
X008562Y011960D01*
X008588Y011970D01*
X008615Y011977D01*
X008643Y011980D01*
X008671Y011979D01*
X008698Y011974D01*
X008725Y011965D01*
X008750Y011953D01*
X008773Y011938D01*
X008794Y011919D01*
X008812Y011898D01*
X008827Y011874D01*
X008838Y011848D01*
X008846Y011822D01*
X008850Y011794D01*
X008850Y011766D01*
X008846Y011738D01*
X008838Y011712D01*
X008827Y011686D01*
X008812Y011662D01*
X008794Y011641D01*
X008773Y011622D01*
X008750Y011607D01*
X008725Y011595D01*
X008698Y011586D01*
X008671Y011581D01*
X008643Y011580D01*
X008615Y011583D01*
X008588Y011590D01*
X008562Y011600D01*
X008538Y011614D01*
X008516Y011631D01*
X008497Y011651D01*
X008480Y011674D01*
X008467Y011699D01*
X008458Y011725D01*
X008452Y011752D01*
X008450Y011780D01*
X009530Y018409D02*
X009530Y018609D01*
X009630Y018509D02*
X009430Y018509D01*
X009280Y018859D02*
X009180Y018859D01*
X006580Y018859D01*
X006580Y019509D01*
X006580Y020209D02*
X006580Y021509D01*
X006580Y022209D02*
X006580Y022859D01*
X005630Y022859D01*
X005630Y018859D01*
X006580Y018859D01*
X008450Y019859D02*
X008452Y019887D01*
X008458Y019914D01*
X008467Y019940D01*
X008480Y019965D01*
X008497Y019988D01*
X008516Y020008D01*
X008538Y020025D01*
X008562Y020039D01*
X008588Y020049D01*
X008615Y020056D01*
X008643Y020059D01*
X008671Y020058D01*
X008698Y020053D01*
X008725Y020044D01*
X008750Y020032D01*
X008773Y020017D01*
X008794Y019998D01*
X008812Y019977D01*
X008827Y019953D01*
X008838Y019927D01*
X008846Y019901D01*
X008850Y019873D01*
X008850Y019845D01*
X008846Y019817D01*
X008838Y019791D01*
X008827Y019765D01*
X008812Y019741D01*
X008794Y019720D01*
X008773Y019701D01*
X008750Y019686D01*
X008725Y019674D01*
X008698Y019665D01*
X008671Y019660D01*
X008643Y019659D01*
X008615Y019662D01*
X008588Y019669D01*
X008562Y019679D01*
X008538Y019693D01*
X008516Y019710D01*
X008497Y019730D01*
X008480Y019753D01*
X008467Y019778D01*
X008458Y019804D01*
X008452Y019831D01*
X008450Y019859D01*
X009180Y018859D02*
X009180Y022859D01*
X009280Y022859D01*
X009280Y018859D01*
X009380Y018509D02*
X009382Y018575D01*
X009388Y018640D01*
X009398Y018705D01*
X009411Y018770D01*
X009429Y018833D01*
X009450Y018896D01*
X009475Y018956D01*
X009504Y019016D01*
X009536Y019073D01*
X009571Y019129D01*
X009610Y019182D01*
X009652Y019233D01*
X009696Y019281D01*
X009744Y019326D01*
X009794Y019369D01*
X009847Y019408D01*
X009902Y019445D01*
X009959Y019478D01*
X010018Y019507D01*
X010078Y019533D01*
X010140Y019555D01*
X010203Y019574D01*
X010267Y019588D01*
X010332Y019599D01*
X010398Y019606D01*
X010464Y019609D01*
X010529Y019608D01*
X010595Y019603D01*
X010660Y019594D01*
X010725Y019581D01*
X010788Y019565D01*
X010851Y019545D01*
X010912Y019520D01*
X010972Y019493D01*
X011030Y019462D01*
X011086Y019427D01*
X011140Y019389D01*
X011191Y019348D01*
X011240Y019304D01*
X011286Y019257D01*
X011330Y019208D01*
X011370Y019156D01*
X011407Y019101D01*
X011441Y019045D01*
X011471Y018986D01*
X011498Y018926D01*
X011521Y018865D01*
X011540Y018802D01*
X011556Y018738D01*
X011568Y018673D01*
X011576Y018608D01*
X011580Y018542D01*
X011580Y018476D01*
X011576Y018410D01*
X011568Y018345D01*
X011556Y018280D01*
X011540Y018216D01*
X011521Y018153D01*
X011498Y018092D01*
X011471Y018032D01*
X011441Y017973D01*
X011407Y017917D01*
X011370Y017862D01*
X011330Y017810D01*
X011286Y017761D01*
X011240Y017714D01*
X011191Y017670D01*
X011140Y017629D01*
X011086Y017591D01*
X011030Y017556D01*
X010972Y017525D01*
X010912Y017498D01*
X010851Y017473D01*
X010788Y017453D01*
X010725Y017437D01*
X010660Y017424D01*
X010595Y017415D01*
X010529Y017410D01*
X010464Y017409D01*
X010398Y017412D01*
X010332Y017419D01*
X010267Y017430D01*
X010203Y017444D01*
X010140Y017463D01*
X010078Y017485D01*
X010018Y017511D01*
X009959Y017540D01*
X009902Y017573D01*
X009847Y017610D01*
X009794Y017649D01*
X009744Y017692D01*
X009696Y017737D01*
X009652Y017785D01*
X009610Y017836D01*
X009571Y017889D01*
X009536Y017945D01*
X009504Y018002D01*
X009475Y018062D01*
X009450Y018122D01*
X009429Y018185D01*
X009411Y018248D01*
X009398Y018313D01*
X009388Y018378D01*
X009382Y018443D01*
X009380Y018509D01*
X008450Y021859D02*
X008452Y021887D01*
X008458Y021914D01*
X008467Y021940D01*
X008480Y021965D01*
X008497Y021988D01*
X008516Y022008D01*
X008538Y022025D01*
X008562Y022039D01*
X008588Y022049D01*
X008615Y022056D01*
X008643Y022059D01*
X008671Y022058D01*
X008698Y022053D01*
X008725Y022044D01*
X008750Y022032D01*
X008773Y022017D01*
X008794Y021998D01*
X008812Y021977D01*
X008827Y021953D01*
X008838Y021927D01*
X008846Y021901D01*
X008850Y021873D01*
X008850Y021845D01*
X008846Y021817D01*
X008838Y021791D01*
X008827Y021765D01*
X008812Y021741D01*
X008794Y021720D01*
X008773Y021701D01*
X008750Y021686D01*
X008725Y021674D01*
X008698Y021665D01*
X008671Y021660D01*
X008643Y021659D01*
X008615Y021662D01*
X008588Y021669D01*
X008562Y021679D01*
X008538Y021693D01*
X008516Y021710D01*
X008497Y021730D01*
X008480Y021753D01*
X008467Y021778D01*
X008458Y021804D01*
X008452Y021831D01*
X008450Y021859D01*
X009180Y022859D02*
X006580Y022859D01*
X007980Y023409D02*
X007980Y024009D01*
X007982Y024026D01*
X007986Y024043D01*
X007993Y024059D01*
X008003Y024073D01*
X008016Y024086D01*
X008030Y024096D01*
X008046Y024103D01*
X008063Y024107D01*
X008080Y024109D01*
X009180Y024109D01*
X009197Y024107D01*
X009214Y024103D01*
X009230Y024096D01*
X009244Y024086D01*
X009257Y024073D01*
X009267Y024059D01*
X009274Y024043D01*
X009278Y024026D01*
X009280Y024009D01*
X009280Y023409D01*
X009278Y023392D01*
X009274Y023375D01*
X009267Y023359D01*
X009257Y023345D01*
X009244Y023332D01*
X009230Y023322D01*
X009214Y023315D01*
X009197Y023311D01*
X009180Y023309D01*
X008080Y023309D01*
X008063Y023311D01*
X008046Y023315D01*
X008030Y023322D01*
X008016Y023332D01*
X008003Y023345D01*
X007993Y023359D01*
X007986Y023375D01*
X007982Y023392D01*
X007980Y023409D01*
X008030Y024159D02*
X007780Y024409D01*
X007780Y024909D01*
X008030Y025159D01*
X008530Y025159D01*
X008780Y024909D01*
X008780Y024409D01*
X008530Y024159D01*
X008030Y024159D01*
X009080Y024409D02*
X009080Y024909D01*
X009330Y025159D01*
X009830Y025159D01*
X010080Y024909D01*
X010330Y025159D01*
X010830Y025159D01*
X011080Y024909D01*
X011080Y024409D01*
X010830Y024159D01*
X010330Y024159D01*
X010080Y024409D01*
X009830Y024159D01*
X009330Y024159D01*
X009080Y024409D01*
X010080Y024409D02*
X010080Y024909D01*
X011080Y024909D02*
X011330Y025159D01*
X011830Y025159D01*
X012080Y024909D01*
X012330Y025159D01*
X012830Y025159D01*
X013080Y024909D01*
X013330Y025159D01*
X013830Y025159D01*
X014080Y024909D01*
X014330Y025159D01*
X014830Y025159D01*
X015080Y024909D01*
X015080Y024409D01*
X014830Y024159D01*
X014330Y024159D01*
X014080Y024409D01*
X013830Y024159D01*
X013330Y024159D01*
X013080Y024409D01*
X012830Y024159D01*
X012330Y024159D01*
X012080Y024409D01*
X011830Y024159D01*
X011330Y024159D01*
X011080Y024409D01*
X011630Y024009D02*
X011630Y023409D01*
X011632Y023392D01*
X011636Y023375D01*
X011643Y023359D01*
X011653Y023345D01*
X011666Y023332D01*
X011680Y023322D01*
X011696Y023315D01*
X011713Y023311D01*
X011730Y023309D01*
X013430Y023309D01*
X013447Y023311D01*
X013464Y023315D01*
X013480Y023322D01*
X013494Y023332D01*
X013507Y023345D01*
X013517Y023359D01*
X013524Y023375D01*
X013528Y023392D01*
X013530Y023409D01*
X013530Y024009D01*
X013528Y024026D01*
X013524Y024043D01*
X013517Y024059D01*
X013507Y024073D01*
X013494Y024086D01*
X013480Y024096D01*
X013464Y024103D01*
X013447Y024107D01*
X013430Y024109D01*
X011730Y024109D01*
X011713Y024107D01*
X011696Y024103D01*
X011680Y024096D01*
X011666Y024086D01*
X011653Y024073D01*
X011643Y024059D01*
X011636Y024043D01*
X011632Y024026D01*
X011630Y024009D01*
X012080Y024409D02*
X012080Y024909D01*
X013080Y024909D02*
X013080Y024409D01*
X014080Y024409D02*
X014080Y024909D01*
X015530Y022359D02*
X017230Y022359D01*
X017247Y022357D01*
X017264Y022353D01*
X017280Y022346D01*
X017294Y022336D01*
X017307Y022323D01*
X017317Y022309D01*
X017324Y022293D01*
X017328Y022276D01*
X017330Y022259D01*
X017330Y021659D01*
X017328Y021642D01*
X017324Y021625D01*
X017317Y021609D01*
X017307Y021595D01*
X017294Y021582D01*
X017280Y021572D01*
X017264Y021565D01*
X017247Y021561D01*
X017230Y021559D01*
X015530Y021559D01*
X015513Y021561D01*
X015496Y021565D01*
X015480Y021572D01*
X015466Y021582D01*
X015453Y021595D01*
X015443Y021609D01*
X015436Y021625D01*
X015432Y021642D01*
X015430Y021659D01*
X015430Y022259D01*
X015432Y022276D01*
X015436Y022293D01*
X015443Y022309D01*
X015453Y022323D01*
X015466Y022336D01*
X015480Y022346D01*
X015496Y022353D01*
X015513Y022357D01*
X015530Y022359D01*
X020480Y020959D02*
X020480Y020909D01*
X020480Y020959D02*
X020680Y020959D01*
X020680Y020909D01*
X020680Y020009D02*
X020680Y019959D01*
X020480Y019959D01*
X020480Y020009D01*
X023160Y017559D02*
X023230Y017629D01*
X023320Y017559D01*
X023400Y017599D01*
X023430Y017709D01*
X023520Y017709D01*
X023540Y017599D01*
X023620Y017559D01*
X023710Y017629D01*
X023780Y017559D01*
X023720Y017469D01*
X023760Y017379D01*
X023860Y017359D01*
X023860Y017269D01*
X023760Y017249D01*
X023720Y017159D01*
X023780Y017069D01*
X023710Y017009D01*
X023630Y017069D01*
X023590Y017049D01*
X023530Y017209D01*
X023410Y017209D02*
X023350Y017049D01*
X023310Y017069D01*
X023230Y017009D01*
X023160Y017069D01*
X023220Y017159D01*
X023180Y017249D01*
X023080Y017269D01*
X023080Y017359D01*
X023190Y017379D01*
X023220Y017469D01*
X023160Y017559D01*
X023410Y017209D02*
X023393Y017221D01*
X023378Y017236D01*
X023365Y017253D01*
X023356Y017272D01*
X023351Y017293D01*
X023349Y017314D01*
X023351Y017335D01*
X023356Y017355D01*
X023365Y017374D01*
X023377Y017392D01*
X023392Y017407D01*
X023409Y017419D01*
X023429Y017428D01*
X023449Y017433D01*
X023470Y017435D01*
X023491Y017433D01*
X023511Y017428D01*
X023531Y017419D01*
X023548Y017407D01*
X023563Y017392D01*
X023575Y017374D01*
X023584Y017355D01*
X023589Y017335D01*
X023591Y017314D01*
X023589Y017293D01*
X023584Y017272D01*
X023575Y017253D01*
X023562Y017236D01*
X023547Y017221D01*
X023530Y017209D01*
X023547Y017221D01*
X023562Y017236D01*
X023575Y017253D01*
X023584Y017272D01*
X023589Y017293D01*
X023591Y017314D01*
X023589Y017335D01*
X023584Y017355D01*
X023575Y017374D01*
X023563Y017392D01*
X023548Y017407D01*
X023531Y017419D01*
X023511Y017428D01*
X023491Y017433D01*
X023470Y017435D01*
X023449Y017433D01*
X023429Y017428D01*
X023409Y017419D01*
X023392Y017407D01*
X023377Y017392D01*
X023365Y017374D01*
X023356Y017355D01*
X023351Y017335D01*
X023349Y017314D01*
X023351Y017293D01*
X023356Y017272D01*
X023365Y017253D01*
X023378Y017236D01*
X023393Y017221D01*
X023410Y017209D01*
X025930Y018859D02*
X025930Y022859D01*
X026030Y022859D01*
X028630Y022859D01*
X028630Y022209D01*
X028630Y022859D02*
X029580Y022859D01*
X029580Y018859D01*
X028630Y018859D01*
X028630Y019509D01*
X028630Y020209D02*
X028630Y021509D01*
X026360Y021859D02*
X026362Y021887D01*
X026368Y021914D01*
X026377Y021940D01*
X026390Y021965D01*
X026407Y021988D01*
X026426Y022008D01*
X026448Y022025D01*
X026472Y022039D01*
X026498Y022049D01*
X026525Y022056D01*
X026553Y022059D01*
X026581Y022058D01*
X026608Y022053D01*
X026635Y022044D01*
X026660Y022032D01*
X026683Y022017D01*
X026704Y021998D01*
X026722Y021977D01*
X026737Y021953D01*
X026748Y021927D01*
X026756Y021901D01*
X026760Y021873D01*
X026760Y021845D01*
X026756Y021817D01*
X026748Y021791D01*
X026737Y021765D01*
X026722Y021741D01*
X026704Y021720D01*
X026683Y021701D01*
X026660Y021686D01*
X026635Y021674D01*
X026608Y021665D01*
X026581Y021660D01*
X026553Y021659D01*
X026525Y021662D01*
X026498Y021669D01*
X026472Y021679D01*
X026448Y021693D01*
X026426Y021710D01*
X026407Y021730D01*
X026390Y021753D01*
X026377Y021778D01*
X026368Y021804D01*
X026362Y021831D01*
X026360Y021859D01*
X026030Y022859D02*
X026030Y018859D01*
X025930Y018859D01*
X026030Y018859D02*
X028630Y018859D01*
X026360Y019859D02*
X026362Y019887D01*
X026368Y019914D01*
X026377Y019940D01*
X026390Y019965D01*
X026407Y019988D01*
X026426Y020008D01*
X026448Y020025D01*
X026472Y020039D01*
X026498Y020049D01*
X026525Y020056D01*
X026553Y020059D01*
X026581Y020058D01*
X026608Y020053D01*
X026635Y020044D01*
X026660Y020032D01*
X026683Y020017D01*
X026704Y019998D01*
X026722Y019977D01*
X026737Y019953D01*
X026748Y019927D01*
X026756Y019901D01*
X026760Y019873D01*
X026760Y019845D01*
X026756Y019817D01*
X026748Y019791D01*
X026737Y019765D01*
X026722Y019741D01*
X026704Y019720D01*
X026683Y019701D01*
X026660Y019686D01*
X026635Y019674D01*
X026608Y019665D01*
X026581Y019660D01*
X026553Y019659D01*
X026525Y019662D01*
X026498Y019669D01*
X026472Y019679D01*
X026448Y019693D01*
X026426Y019710D01*
X026407Y019730D01*
X026390Y019753D01*
X026377Y019778D01*
X026368Y019804D01*
X026362Y019831D01*
X026360Y019859D01*
X032838Y025930D02*
X032838Y026030D01*
X032838Y028630D01*
X033488Y028630D01*
X032838Y028630D02*
X032838Y029580D01*
X036838Y029580D01*
X036838Y028630D01*
X036188Y028630D01*
X036838Y028630D02*
X036838Y026030D01*
X036838Y025930D01*
X032838Y025930D01*
X032838Y026030D02*
X036838Y026030D01*
X035638Y026560D02*
X035640Y026588D01*
X035646Y026615D01*
X035655Y026641D01*
X035668Y026666D01*
X035685Y026689D01*
X035704Y026709D01*
X035726Y026726D01*
X035750Y026740D01*
X035776Y026750D01*
X035803Y026757D01*
X035831Y026760D01*
X035859Y026759D01*
X035886Y026754D01*
X035913Y026745D01*
X035938Y026733D01*
X035961Y026718D01*
X035982Y026699D01*
X036000Y026678D01*
X036015Y026654D01*
X036026Y026628D01*
X036034Y026602D01*
X036038Y026574D01*
X036038Y026546D01*
X036034Y026518D01*
X036026Y026492D01*
X036015Y026466D01*
X036000Y026442D01*
X035982Y026421D01*
X035961Y026402D01*
X035938Y026387D01*
X035913Y026375D01*
X035886Y026366D01*
X035859Y026361D01*
X035831Y026360D01*
X035803Y026363D01*
X035776Y026370D01*
X035750Y026380D01*
X035726Y026394D01*
X035704Y026411D01*
X035685Y026431D01*
X035668Y026454D01*
X035655Y026479D01*
X035646Y026505D01*
X035640Y026532D01*
X035638Y026560D01*
X033638Y026560D02*
X033640Y026588D01*
X033646Y026615D01*
X033655Y026641D01*
X033668Y026666D01*
X033685Y026689D01*
X033704Y026709D01*
X033726Y026726D01*
X033750Y026740D01*
X033776Y026750D01*
X033803Y026757D01*
X033831Y026760D01*
X033859Y026759D01*
X033886Y026754D01*
X033913Y026745D01*
X033938Y026733D01*
X033961Y026718D01*
X033982Y026699D01*
X034000Y026678D01*
X034015Y026654D01*
X034026Y026628D01*
X034034Y026602D01*
X034038Y026574D01*
X034038Y026546D01*
X034034Y026518D01*
X034026Y026492D01*
X034015Y026466D01*
X034000Y026442D01*
X033982Y026421D01*
X033961Y026402D01*
X033938Y026387D01*
X033913Y026375D01*
X033886Y026366D01*
X033859Y026361D01*
X033831Y026360D01*
X033803Y026363D01*
X033776Y026370D01*
X033750Y026380D01*
X033726Y026394D01*
X033704Y026411D01*
X033685Y026431D01*
X033668Y026454D01*
X033655Y026479D01*
X033646Y026505D01*
X033640Y026532D01*
X033638Y026560D01*
X034188Y028630D02*
X035488Y028630D01*
X038138Y023780D02*
X038228Y023720D01*
X038318Y023760D01*
X038338Y023860D01*
X038428Y023860D01*
X038448Y023760D01*
X038538Y023720D01*
X038628Y023780D01*
X038688Y023710D01*
X038628Y023630D01*
X038648Y023590D01*
X038488Y023530D01*
X038488Y023410D02*
X038648Y023350D01*
X038628Y023310D01*
X038688Y023230D01*
X038628Y023160D01*
X038538Y023220D01*
X038448Y023180D01*
X038428Y023080D01*
X038338Y023080D01*
X038318Y023190D01*
X038228Y023220D01*
X038138Y023160D01*
X038068Y023230D01*
X038138Y023320D01*
X038098Y023400D01*
X037988Y023430D01*
X037988Y023520D01*
X038098Y023540D01*
X038138Y023620D01*
X038068Y023710D01*
X038138Y023780D01*
X038488Y023530D02*
X038476Y023547D01*
X038461Y023562D01*
X038444Y023575D01*
X038425Y023584D01*
X038404Y023589D01*
X038383Y023591D01*
X038362Y023589D01*
X038342Y023584D01*
X038323Y023575D01*
X038305Y023563D01*
X038290Y023548D01*
X038278Y023531D01*
X038269Y023511D01*
X038264Y023491D01*
X038262Y023470D01*
X038264Y023449D01*
X038269Y023429D01*
X038278Y023409D01*
X038290Y023392D01*
X038305Y023377D01*
X038323Y023365D01*
X038342Y023356D01*
X038362Y023351D01*
X038383Y023349D01*
X038404Y023351D01*
X038425Y023356D01*
X038444Y023365D01*
X038461Y023378D01*
X038476Y023393D01*
X038488Y023410D01*
X038476Y023393D01*
X038461Y023378D01*
X038444Y023365D01*
X038425Y023356D01*
X038404Y023351D01*
X038383Y023349D01*
X038362Y023351D01*
X038342Y023356D01*
X038323Y023365D01*
X038305Y023377D01*
X038290Y023392D01*
X038278Y023409D01*
X038269Y023429D01*
X038264Y023449D01*
X038262Y023470D01*
X038264Y023491D01*
X038269Y023511D01*
X038278Y023531D01*
X038290Y023548D01*
X038305Y023563D01*
X038323Y023575D01*
X038342Y023584D01*
X038362Y023589D01*
X038383Y023591D01*
X038404Y023589D01*
X038425Y023584D01*
X038444Y023575D01*
X038461Y023562D01*
X038476Y023547D01*
X038488Y023530D01*
X035738Y020680D02*
X035688Y020680D01*
X035738Y020680D02*
X035738Y020480D01*
X035688Y020480D01*
X034788Y020480D02*
X034738Y020480D01*
X034738Y020680D01*
X034788Y020680D01*
X034038Y017330D02*
X033438Y017330D01*
X033421Y017328D01*
X033404Y017324D01*
X033388Y017317D01*
X033374Y017307D01*
X033361Y017294D01*
X033351Y017280D01*
X033344Y017264D01*
X033340Y017247D01*
X033338Y017230D01*
X033338Y015530D01*
X033340Y015513D01*
X033344Y015496D01*
X033351Y015480D01*
X033361Y015466D01*
X033374Y015453D01*
X033388Y015443D01*
X033404Y015436D01*
X033421Y015432D01*
X033438Y015430D01*
X034038Y015430D01*
X034055Y015432D01*
X034072Y015436D01*
X034088Y015443D01*
X034102Y015453D01*
X034115Y015466D01*
X034125Y015480D01*
X034132Y015496D01*
X034136Y015513D01*
X034138Y015530D01*
X034138Y017230D01*
X034136Y017247D01*
X034132Y017264D01*
X034125Y017280D01*
X034115Y017294D01*
X034102Y017307D01*
X034088Y017317D01*
X034072Y017324D01*
X034055Y017328D01*
X034038Y017330D01*
X036088Y010480D02*
X036090Y010546D01*
X036096Y010611D01*
X036106Y010676D01*
X036119Y010741D01*
X036137Y010804D01*
X036158Y010867D01*
X036183Y010927D01*
X036212Y010987D01*
X036244Y011044D01*
X036279Y011100D01*
X036318Y011153D01*
X036360Y011204D01*
X036404Y011252D01*
X036452Y011297D01*
X036502Y011340D01*
X036555Y011379D01*
X036610Y011416D01*
X036667Y011449D01*
X036726Y011478D01*
X036786Y011504D01*
X036848Y011526D01*
X036911Y011545D01*
X036975Y011559D01*
X037040Y011570D01*
X037106Y011577D01*
X037172Y011580D01*
X037237Y011579D01*
X037303Y011574D01*
X037368Y011565D01*
X037433Y011552D01*
X037496Y011536D01*
X037559Y011516D01*
X037620Y011491D01*
X037680Y011464D01*
X037738Y011433D01*
X037794Y011398D01*
X037848Y011360D01*
X037899Y011319D01*
X037948Y011275D01*
X037994Y011228D01*
X038038Y011179D01*
X038078Y011127D01*
X038115Y011072D01*
X038149Y011016D01*
X038179Y010957D01*
X038206Y010897D01*
X038229Y010836D01*
X038248Y010773D01*
X038264Y010709D01*
X038276Y010644D01*
X038284Y010579D01*
X038288Y010513D01*
X038288Y010447D01*
X038284Y010381D01*
X038276Y010316D01*
X038264Y010251D01*
X038248Y010187D01*
X038229Y010124D01*
X038206Y010063D01*
X038179Y010003D01*
X038149Y009944D01*
X038115Y009888D01*
X038078Y009833D01*
X038038Y009781D01*
X037994Y009732D01*
X037948Y009685D01*
X037899Y009641D01*
X037848Y009600D01*
X037794Y009562D01*
X037738Y009527D01*
X037680Y009496D01*
X037620Y009469D01*
X037559Y009444D01*
X037496Y009424D01*
X037433Y009408D01*
X037368Y009395D01*
X037303Y009386D01*
X037237Y009381D01*
X037172Y009380D01*
X037106Y009383D01*
X037040Y009390D01*
X036975Y009401D01*
X036911Y009415D01*
X036848Y009434D01*
X036786Y009456D01*
X036726Y009482D01*
X036667Y009511D01*
X036610Y009544D01*
X036555Y009581D01*
X036502Y009620D01*
X036452Y009663D01*
X036404Y009708D01*
X036360Y009756D01*
X036318Y009807D01*
X036279Y009860D01*
X036244Y009916D01*
X036212Y009973D01*
X036183Y010033D01*
X036158Y010093D01*
X036137Y010156D01*
X036119Y010219D01*
X036106Y010284D01*
X036096Y010349D01*
X036090Y010414D01*
X036088Y010480D01*
X037088Y009530D02*
X037288Y009530D01*
X037188Y009630D02*
X037188Y009430D01*
X036838Y006580D02*
X036188Y006580D01*
X035488Y006580D02*
X034188Y006580D01*
X033488Y006580D02*
X032838Y006580D01*
X033638Y008650D02*
X033640Y008678D01*
X033646Y008705D01*
X033655Y008731D01*
X033668Y008756D01*
X033685Y008779D01*
X033704Y008799D01*
X033726Y008816D01*
X033750Y008830D01*
X033776Y008840D01*
X033803Y008847D01*
X033831Y008850D01*
X033859Y008849D01*
X033886Y008844D01*
X033913Y008835D01*
X033938Y008823D01*
X033961Y008808D01*
X033982Y008789D01*
X034000Y008768D01*
X034015Y008744D01*
X034026Y008718D01*
X034034Y008692D01*
X034038Y008664D01*
X034038Y008636D01*
X034034Y008608D01*
X034026Y008582D01*
X034015Y008556D01*
X034000Y008532D01*
X033982Y008511D01*
X033961Y008492D01*
X033938Y008477D01*
X033913Y008465D01*
X033886Y008456D01*
X033859Y008451D01*
X033831Y008450D01*
X033803Y008453D01*
X033776Y008460D01*
X033750Y008470D01*
X033726Y008484D01*
X033704Y008501D01*
X033685Y008521D01*
X033668Y008544D01*
X033655Y008569D01*
X033646Y008595D01*
X033640Y008622D01*
X033638Y008650D01*
X023710Y027088D02*
X023630Y027148D01*
X023590Y027128D01*
X023530Y027288D01*
X023410Y027288D02*
X023350Y027128D01*
X023310Y027148D01*
X023230Y027088D01*
X023160Y027148D01*
X023220Y027238D01*
X023180Y027328D01*
X023080Y027348D01*
X023080Y027438D01*
X023190Y027458D01*
X023220Y027548D01*
X023160Y027638D01*
X023230Y027708D01*
X023320Y027638D01*
X023400Y027678D01*
X023430Y027788D01*
X023520Y027788D01*
X023540Y027678D01*
X023620Y027638D01*
X023710Y027708D01*
X023780Y027638D01*
X023720Y027548D01*
X023760Y027458D01*
X023860Y027438D01*
X023860Y027348D01*
X023760Y027328D01*
X023720Y027238D01*
X023780Y027148D01*
X023710Y027088D01*
X023530Y027288D02*
X023547Y027300D01*
X023562Y027315D01*
X023575Y027332D01*
X023584Y027351D01*
X023589Y027372D01*
X023591Y027393D01*
X023589Y027414D01*
X023584Y027434D01*
X023575Y027453D01*
X023563Y027471D01*
X023548Y027486D01*
X023531Y027498D01*
X023511Y027507D01*
X023491Y027512D01*
X023470Y027514D01*
X023449Y027512D01*
X023429Y027507D01*
X023409Y027498D01*
X023392Y027486D01*
X023377Y027471D01*
X023365Y027453D01*
X023356Y027434D01*
X023351Y027414D01*
X023349Y027393D01*
X023351Y027372D01*
X023356Y027351D01*
X023365Y027332D01*
X023378Y027315D01*
X023393Y027300D01*
X023410Y027288D01*
X023393Y027300D01*
X023378Y027315D01*
X023365Y027332D01*
X023356Y027351D01*
X023351Y027372D01*
X023349Y027393D01*
X023351Y027414D01*
X023356Y027434D01*
X023365Y027453D01*
X023377Y027471D01*
X023392Y027486D01*
X023409Y027498D01*
X023429Y027507D01*
X023449Y027512D01*
X023470Y027514D01*
X023491Y027512D01*
X023511Y027507D01*
X023531Y027498D01*
X023548Y027486D01*
X023563Y027471D01*
X023575Y027453D01*
X023584Y027434D01*
X023589Y027414D01*
X023591Y027393D01*
X023589Y027372D01*
X023584Y027351D01*
X023575Y027332D01*
X023562Y027315D01*
X023547Y027300D01*
X023530Y027288D01*
X025930Y028938D02*
X025930Y032938D01*
X026030Y032938D01*
X028630Y032938D01*
X028630Y032288D01*
X028630Y032938D02*
X029580Y032938D01*
X029580Y028938D01*
X028630Y028938D01*
X028630Y029588D01*
X028630Y028938D02*
X026030Y028938D01*
X025930Y028938D01*
X026030Y028938D02*
X026030Y032938D01*
X026360Y031938D02*
X026362Y031966D01*
X026368Y031993D01*
X026377Y032019D01*
X026390Y032044D01*
X026407Y032067D01*
X026426Y032087D01*
X026448Y032104D01*
X026472Y032118D01*
X026498Y032128D01*
X026525Y032135D01*
X026553Y032138D01*
X026581Y032137D01*
X026608Y032132D01*
X026635Y032123D01*
X026660Y032111D01*
X026683Y032096D01*
X026704Y032077D01*
X026722Y032056D01*
X026737Y032032D01*
X026748Y032006D01*
X026756Y031980D01*
X026760Y031952D01*
X026760Y031924D01*
X026756Y031896D01*
X026748Y031870D01*
X026737Y031844D01*
X026722Y031820D01*
X026704Y031799D01*
X026683Y031780D01*
X026660Y031765D01*
X026635Y031753D01*
X026608Y031744D01*
X026581Y031739D01*
X026553Y031738D01*
X026525Y031741D01*
X026498Y031748D01*
X026472Y031758D01*
X026448Y031772D01*
X026426Y031789D01*
X026407Y031809D01*
X026390Y031832D01*
X026377Y031857D01*
X026368Y031883D01*
X026362Y031910D01*
X026360Y031938D01*
X026360Y029938D02*
X026362Y029966D01*
X026368Y029993D01*
X026377Y030019D01*
X026390Y030044D01*
X026407Y030067D01*
X026426Y030087D01*
X026448Y030104D01*
X026472Y030118D01*
X026498Y030128D01*
X026525Y030135D01*
X026553Y030138D01*
X026581Y030137D01*
X026608Y030132D01*
X026635Y030123D01*
X026660Y030111D01*
X026683Y030096D01*
X026704Y030077D01*
X026722Y030056D01*
X026737Y030032D01*
X026748Y030006D01*
X026756Y029980D01*
X026760Y029952D01*
X026760Y029924D01*
X026756Y029896D01*
X026748Y029870D01*
X026737Y029844D01*
X026722Y029820D01*
X026704Y029799D01*
X026683Y029780D01*
X026660Y029765D01*
X026635Y029753D01*
X026608Y029744D01*
X026581Y029739D01*
X026553Y029738D01*
X026525Y029741D01*
X026498Y029748D01*
X026472Y029758D01*
X026448Y029772D01*
X026426Y029789D01*
X026407Y029809D01*
X026390Y029832D01*
X026377Y029857D01*
X026368Y029883D01*
X026362Y029910D01*
X026360Y029938D01*
X028630Y030288D02*
X028630Y031588D01*
X020680Y031038D02*
X020680Y030988D01*
X020680Y031038D02*
X020480Y031038D01*
X020480Y030988D01*
X020480Y030088D02*
X020480Y030038D01*
X020680Y030038D01*
X020680Y030088D01*
X017330Y031738D02*
X017330Y032338D01*
X017328Y032355D01*
X017324Y032372D01*
X017317Y032388D01*
X017307Y032402D01*
X017294Y032415D01*
X017280Y032425D01*
X017264Y032432D01*
X017247Y032436D01*
X017230Y032438D01*
X015530Y032438D01*
X015513Y032436D01*
X015496Y032432D01*
X015480Y032425D01*
X015466Y032415D01*
X015453Y032402D01*
X015443Y032388D01*
X015436Y032372D01*
X015432Y032355D01*
X015430Y032338D01*
X015430Y031738D01*
X015432Y031721D01*
X015436Y031704D01*
X015443Y031688D01*
X015453Y031674D01*
X015466Y031661D01*
X015480Y031651D01*
X015496Y031644D01*
X015513Y031640D01*
X015530Y031638D01*
X017230Y031638D01*
X017247Y031640D01*
X017264Y031644D01*
X017280Y031651D01*
X017294Y031661D01*
X017307Y031674D01*
X017317Y031688D01*
X017324Y031704D01*
X017328Y031721D01*
X017330Y031738D01*
X014830Y034238D02*
X014330Y034238D01*
X014080Y034488D01*
X013830Y034238D01*
X013330Y034238D01*
X013080Y034488D01*
X012830Y034238D01*
X012330Y034238D01*
X012080Y034488D01*
X011830Y034238D01*
X011330Y034238D01*
X011080Y034488D01*
X010830Y034238D01*
X010330Y034238D01*
X010080Y034488D01*
X009830Y034238D01*
X009330Y034238D01*
X009080Y034488D01*
X009080Y034988D01*
X009330Y035238D01*
X009830Y035238D01*
X010080Y034988D01*
X010330Y035238D01*
X010830Y035238D01*
X011080Y034988D01*
X011080Y034488D01*
X011080Y034988D02*
X011330Y035238D01*
X011830Y035238D01*
X012080Y034988D01*
X012330Y035238D01*
X012830Y035238D01*
X013080Y034988D01*
X013330Y035238D01*
X013830Y035238D01*
X014080Y034988D01*
X014330Y035238D01*
X014830Y035238D01*
X015080Y034988D01*
X015080Y034488D01*
X014830Y034238D01*
X014080Y034488D02*
X014080Y034988D01*
X013430Y034188D02*
X011730Y034188D01*
X011713Y034186D01*
X011696Y034182D01*
X011680Y034175D01*
X011666Y034165D01*
X011653Y034152D01*
X011643Y034138D01*
X011636Y034122D01*
X011632Y034105D01*
X011630Y034088D01*
X011630Y033488D01*
X011632Y033471D01*
X011636Y033454D01*
X011643Y033438D01*
X011653Y033424D01*
X011666Y033411D01*
X011680Y033401D01*
X011696Y033394D01*
X011713Y033390D01*
X011730Y033388D01*
X013430Y033388D01*
X013447Y033390D01*
X013464Y033394D01*
X013480Y033401D01*
X013494Y033411D01*
X013507Y033424D01*
X013517Y033438D01*
X013524Y033454D01*
X013528Y033471D01*
X013530Y033488D01*
X013530Y034088D01*
X013528Y034105D01*
X013524Y034122D01*
X013517Y034138D01*
X013507Y034152D01*
X013494Y034165D01*
X013480Y034175D01*
X013464Y034182D01*
X013447Y034186D01*
X013430Y034188D01*
X013080Y034488D02*
X013080Y034988D01*
X012080Y034988D02*
X012080Y034488D01*
X010080Y034488D02*
X010080Y034988D01*
X009280Y034088D02*
X009280Y033488D01*
X009278Y033471D01*
X009274Y033454D01*
X009267Y033438D01*
X009257Y033424D01*
X009244Y033411D01*
X009230Y033401D01*
X009214Y033394D01*
X009197Y033390D01*
X009180Y033388D01*
X008080Y033388D01*
X008063Y033390D01*
X008046Y033394D01*
X008030Y033401D01*
X008016Y033411D01*
X008003Y033424D01*
X007993Y033438D01*
X007986Y033454D01*
X007982Y033471D01*
X007980Y033488D01*
X007980Y034088D01*
X007982Y034105D01*
X007986Y034122D01*
X007993Y034138D01*
X008003Y034152D01*
X008016Y034165D01*
X008030Y034175D01*
X008046Y034182D01*
X008063Y034186D01*
X008080Y034188D01*
X009180Y034188D01*
X009197Y034186D01*
X009214Y034182D01*
X009230Y034175D01*
X009244Y034165D01*
X009257Y034152D01*
X009267Y034138D01*
X009274Y034122D01*
X009278Y034105D01*
X009280Y034088D01*
X008780Y034488D02*
X008780Y034988D01*
X008530Y035238D01*
X008030Y035238D01*
X007780Y034988D01*
X007780Y034488D01*
X008030Y034238D01*
X008530Y034238D01*
X008780Y034488D01*
X009180Y032938D02*
X009280Y032938D01*
X009280Y028938D01*
X009180Y028938D01*
X006580Y028938D01*
X006580Y029588D01*
X006580Y028938D02*
X005630Y028938D01*
X005630Y032938D01*
X006580Y032938D01*
X006580Y032288D01*
X006580Y032938D02*
X009180Y032938D01*
X009180Y028938D01*
X009530Y028688D02*
X009530Y028488D01*
X009630Y028588D02*
X009430Y028588D01*
X009380Y028588D02*
X009382Y028654D01*
X009388Y028719D01*
X009398Y028784D01*
X009411Y028849D01*
X009429Y028912D01*
X009450Y028975D01*
X009475Y029035D01*
X009504Y029095D01*
X009536Y029152D01*
X009571Y029208D01*
X009610Y029261D01*
X009652Y029312D01*
X009696Y029360D01*
X009744Y029405D01*
X009794Y029448D01*
X009847Y029487D01*
X009902Y029524D01*
X009959Y029557D01*
X010018Y029586D01*
X010078Y029612D01*
X010140Y029634D01*
X010203Y029653D01*
X010267Y029667D01*
X010332Y029678D01*
X010398Y029685D01*
X010464Y029688D01*
X010529Y029687D01*
X010595Y029682D01*
X010660Y029673D01*
X010725Y029660D01*
X010788Y029644D01*
X010851Y029624D01*
X010912Y029599D01*
X010972Y029572D01*
X011030Y029541D01*
X011086Y029506D01*
X011140Y029468D01*
X011191Y029427D01*
X011240Y029383D01*
X011286Y029336D01*
X011330Y029287D01*
X011370Y029235D01*
X011407Y029180D01*
X011441Y029124D01*
X011471Y029065D01*
X011498Y029005D01*
X011521Y028944D01*
X011540Y028881D01*
X011556Y028817D01*
X011568Y028752D01*
X011576Y028687D01*
X011580Y028621D01*
X011580Y028555D01*
X011576Y028489D01*
X011568Y028424D01*
X011556Y028359D01*
X011540Y028295D01*
X011521Y028232D01*
X011498Y028171D01*
X011471Y028111D01*
X011441Y028052D01*
X011407Y027996D01*
X011370Y027941D01*
X011330Y027889D01*
X011286Y027840D01*
X011240Y027793D01*
X011191Y027749D01*
X011140Y027708D01*
X011086Y027670D01*
X011030Y027635D01*
X010972Y027604D01*
X010912Y027577D01*
X010851Y027552D01*
X010788Y027532D01*
X010725Y027516D01*
X010660Y027503D01*
X010595Y027494D01*
X010529Y027489D01*
X010464Y027488D01*
X010398Y027491D01*
X010332Y027498D01*
X010267Y027509D01*
X010203Y027523D01*
X010140Y027542D01*
X010078Y027564D01*
X010018Y027590D01*
X009959Y027619D01*
X009902Y027652D01*
X009847Y027689D01*
X009794Y027728D01*
X009744Y027771D01*
X009696Y027816D01*
X009652Y027864D01*
X009610Y027915D01*
X009571Y027968D01*
X009536Y028024D01*
X009504Y028081D01*
X009475Y028141D01*
X009450Y028201D01*
X009429Y028264D01*
X009411Y028327D01*
X009398Y028392D01*
X009388Y028457D01*
X009382Y028522D01*
X009380Y028588D01*
X008450Y029938D02*
X008452Y029966D01*
X008458Y029993D01*
X008467Y030019D01*
X008480Y030044D01*
X008497Y030067D01*
X008516Y030087D01*
X008538Y030104D01*
X008562Y030118D01*
X008588Y030128D01*
X008615Y030135D01*
X008643Y030138D01*
X008671Y030137D01*
X008698Y030132D01*
X008725Y030123D01*
X008750Y030111D01*
X008773Y030096D01*
X008794Y030077D01*
X008812Y030056D01*
X008827Y030032D01*
X008838Y030006D01*
X008846Y029980D01*
X008850Y029952D01*
X008850Y029924D01*
X008846Y029896D01*
X008838Y029870D01*
X008827Y029844D01*
X008812Y029820D01*
X008794Y029799D01*
X008773Y029780D01*
X008750Y029765D01*
X008725Y029753D01*
X008698Y029744D01*
X008671Y029739D01*
X008643Y029738D01*
X008615Y029741D01*
X008588Y029748D01*
X008562Y029758D01*
X008538Y029772D01*
X008516Y029789D01*
X008497Y029809D01*
X008480Y029832D01*
X008467Y029857D01*
X008458Y029883D01*
X008452Y029910D01*
X008450Y029938D01*
X006580Y030288D02*
X006580Y031588D01*
X008450Y031938D02*
X008452Y031966D01*
X008458Y031993D01*
X008467Y032019D01*
X008480Y032044D01*
X008497Y032067D01*
X008516Y032087D01*
X008538Y032104D01*
X008562Y032118D01*
X008588Y032128D01*
X008615Y032135D01*
X008643Y032138D01*
X008671Y032137D01*
X008698Y032132D01*
X008725Y032123D01*
X008750Y032111D01*
X008773Y032096D01*
X008794Y032077D01*
X008812Y032056D01*
X008827Y032032D01*
X008838Y032006D01*
X008846Y031980D01*
X008850Y031952D01*
X008850Y031924D01*
X008846Y031896D01*
X008838Y031870D01*
X008827Y031844D01*
X008812Y031820D01*
X008794Y031799D01*
X008773Y031780D01*
X008750Y031765D01*
X008725Y031753D01*
X008698Y031744D01*
X008671Y031739D01*
X008643Y031738D01*
X008615Y031741D01*
X008588Y031748D01*
X008562Y031758D01*
X008538Y031772D01*
X008516Y031789D01*
X008497Y031809D01*
X008480Y031832D01*
X008467Y031857D01*
X008458Y031883D01*
X008452Y031910D01*
X008450Y031938D01*
D14*
X007542Y032462D02*
X007542Y029313D01*
X006360Y028525D02*
X005880Y028525D01*
X005880Y033250D01*
X006360Y033250D01*
X010330Y032428D02*
X010330Y029848D01*
X011630Y029848D01*
X011630Y032428D01*
X010330Y032428D01*
X012737Y032938D02*
X020020Y032938D01*
X020020Y027032D01*
X012737Y027032D01*
X012737Y032938D01*
X015999Y033929D02*
X018361Y033929D01*
X018361Y034323D01*
X017731Y034401D02*
X016629Y034401D01*
X016629Y034874D01*
X017731Y034874D01*
X017731Y034401D01*
X018361Y034953D02*
X018361Y035346D01*
X015999Y035346D01*
X015999Y034953D01*
X015999Y034323D02*
X015999Y033929D01*
X019235Y034244D02*
X019235Y035031D01*
X019786Y035031D01*
X020062Y034913D02*
X020062Y034638D01*
X020298Y034874D01*
X020298Y034401D01*
X020062Y034638D01*
X020062Y034362D01*
X019786Y034244D02*
X019235Y034244D01*
X020574Y034244D02*
X021125Y034244D01*
X021125Y035031D01*
X020574Y035031D01*
X023930Y033538D02*
X023930Y032638D01*
X023930Y033538D02*
X024630Y033538D01*
X026430Y033538D02*
X029530Y033538D01*
X029530Y028338D01*
X026430Y028338D01*
X024630Y028338D02*
X023930Y028338D01*
X023930Y029238D01*
X021125Y024953D02*
X020574Y024953D01*
X020298Y024795D02*
X020062Y024559D01*
X020298Y024323D01*
X020298Y024795D01*
X020062Y024834D02*
X020062Y024559D01*
X020062Y024283D01*
X019786Y024165D02*
X019235Y024165D01*
X019235Y024953D01*
X019786Y024953D01*
X020574Y024165D02*
X021125Y024165D01*
X021125Y024953D01*
X020020Y022859D02*
X020020Y016953D01*
X012737Y016953D01*
X012737Y022859D01*
X020020Y022859D01*
X018361Y023850D02*
X018361Y024244D01*
X018361Y023850D02*
X015999Y023850D01*
X015999Y024244D01*
X016629Y024323D02*
X016629Y024795D01*
X017731Y024795D01*
X017731Y024323D01*
X016629Y024323D01*
X015999Y024874D02*
X015999Y025268D01*
X018361Y025268D01*
X018361Y024874D01*
X023930Y023459D02*
X023930Y022559D01*
X023930Y023459D02*
X024630Y023459D01*
X026430Y023459D02*
X029530Y023459D01*
X029530Y018259D01*
X026430Y018259D01*
X024630Y018259D02*
X023930Y018259D01*
X023930Y019159D01*
X021125Y014874D02*
X020574Y014874D01*
X020298Y014716D02*
X020062Y014480D01*
X020298Y014244D01*
X020298Y014716D01*
X020062Y014756D02*
X020062Y014480D01*
X020062Y014205D01*
X019786Y014086D02*
X019235Y014086D01*
X019235Y014874D01*
X019786Y014874D01*
X020574Y014086D02*
X021125Y014086D01*
X021125Y014874D01*
X020020Y012780D02*
X020020Y006875D01*
X012737Y006875D01*
X012737Y012780D01*
X020020Y012780D01*
X018361Y013771D02*
X018361Y014165D01*
X018361Y013771D02*
X015999Y013771D01*
X015999Y014165D01*
X015999Y014795D02*
X015999Y015189D01*
X018361Y015189D01*
X018361Y014795D01*
X017731Y014716D02*
X017731Y014244D01*
X016629Y014244D01*
X016629Y014716D01*
X017731Y014716D01*
X023930Y013380D02*
X023930Y012480D01*
X023930Y013380D02*
X024630Y013380D01*
X026430Y013380D02*
X029530Y013380D01*
X029530Y008180D01*
X026430Y008180D01*
X024630Y008180D02*
X023930Y008180D01*
X023930Y009080D01*
X030430Y015999D02*
X030430Y018361D01*
X030823Y018361D01*
X031453Y018361D02*
X031847Y018361D01*
X031847Y015999D01*
X031453Y015999D01*
X030823Y015999D02*
X030430Y015999D01*
X030902Y016629D02*
X031375Y016629D01*
X031375Y017731D01*
X030902Y017731D01*
X030902Y016629D01*
X030745Y019235D02*
X030745Y019786D01*
X030863Y020062D02*
X031138Y020062D01*
X030902Y020298D01*
X031375Y020298D01*
X031138Y020062D01*
X031414Y020062D01*
X031532Y019786D02*
X031532Y019235D01*
X030745Y019235D01*
X030745Y020574D02*
X030745Y021125D01*
X031532Y021125D01*
X031532Y020574D01*
X032838Y020020D02*
X038744Y020020D01*
X038744Y012737D01*
X032838Y012737D01*
X032838Y020020D01*
X033138Y023930D02*
X032238Y023930D01*
X032238Y024630D01*
X032238Y026430D02*
X032238Y029530D01*
X037438Y029530D01*
X037438Y026430D01*
X037438Y024630D02*
X037438Y023930D01*
X036538Y023930D01*
X035928Y011630D02*
X033348Y011630D01*
X033348Y010330D01*
X035928Y010330D01*
X035928Y011630D01*
X036463Y007542D02*
X033314Y007542D01*
X032526Y006360D02*
X032526Y005880D01*
X037251Y005880D01*
X037251Y006360D01*
X011630Y009690D02*
X011630Y012270D01*
X010330Y012270D01*
X010330Y009690D01*
X011630Y009690D01*
X007542Y009155D02*
X007542Y012305D01*
X006360Y013092D02*
X005880Y013092D01*
X005880Y008368D01*
X006360Y008368D01*
X006360Y018447D02*
X005880Y018447D01*
X005880Y023171D01*
X006360Y023171D01*
X007542Y022384D02*
X007542Y019234D01*
X010330Y019769D02*
X010330Y022349D01*
X011630Y022349D01*
X011630Y019769D01*
X010330Y019769D01*
M02*
