G75*
%MOIN*%
%OFA0B0*%
%FSLAX24Y24*%
%IPPOS*%
%LPD*%
%AMOC8*
5,1,8,0,0,1.08239X$1,22.5*
%
%ADD10C,0.0000*%
%ADD11C,0.0030*%
%ADD12C,0.0050*%
%ADD13C,0.0080*%
%ADD14C,0.0060*%
D10*
X006274Y005880D02*
X029286Y005880D01*
X029285Y005879D02*
X029322Y005885D01*
X029358Y005895D01*
X029393Y005909D01*
X029426Y005926D01*
X029458Y005946D01*
X029486Y005970D01*
X029513Y005997D01*
X029536Y006026D01*
X029556Y006057D01*
X029573Y006091D01*
X029586Y006126D01*
X029596Y006162D01*
X029601Y006199D01*
X029603Y006236D01*
X029601Y006273D01*
X029601Y006274D02*
X029601Y008853D01*
X029603Y008873D01*
X029608Y008893D01*
X029617Y008912D01*
X029629Y008929D01*
X029643Y008943D01*
X029660Y008955D01*
X029679Y008964D01*
X029699Y008969D01*
X029719Y008971D01*
X029739Y008969D01*
X029759Y008964D01*
X029778Y008955D01*
X029795Y008943D01*
X029809Y008929D01*
X029821Y008912D01*
X029830Y008893D01*
X029835Y008873D01*
X029837Y008853D01*
X029837Y006195D01*
X029846Y006158D01*
X029858Y006122D01*
X029874Y006087D01*
X029893Y006053D01*
X029915Y006022D01*
X029940Y005993D01*
X029968Y005967D01*
X029998Y005944D01*
X030031Y005924D01*
X030065Y005907D01*
X030101Y005893D01*
X030138Y005883D01*
X030176Y005877D01*
X030214Y005874D01*
X030252Y005875D01*
X030290Y005880D01*
X039423Y005880D01*
X039423Y005879D02*
X039460Y005885D01*
X039496Y005895D01*
X039531Y005909D01*
X039564Y005926D01*
X039596Y005946D01*
X039624Y005970D01*
X039651Y005997D01*
X039674Y006026D01*
X039694Y006057D01*
X039711Y006091D01*
X039724Y006126D01*
X039734Y006162D01*
X039739Y006199D01*
X039741Y006236D01*
X039739Y006273D01*
X039738Y006274D02*
X039738Y029286D01*
X039739Y029285D02*
X039733Y029322D01*
X039723Y029358D01*
X039709Y029393D01*
X039692Y029426D01*
X039672Y029458D01*
X039648Y029486D01*
X039621Y029513D01*
X039592Y029536D01*
X039561Y029556D01*
X039527Y029573D01*
X039492Y029586D01*
X039456Y029596D01*
X039419Y029601D01*
X039382Y029603D01*
X039345Y029601D01*
X030211Y029601D01*
X030174Y029598D01*
X030136Y029592D01*
X030100Y029581D01*
X030065Y029568D01*
X030031Y029551D01*
X030000Y029531D01*
X029970Y029507D01*
X029943Y029481D01*
X029918Y029453D01*
X029896Y029422D01*
X029878Y029389D01*
X029863Y029355D01*
X029851Y029319D01*
X029843Y029282D01*
X029838Y029245D01*
X029837Y029207D01*
X029837Y028892D01*
X029835Y028872D01*
X029830Y028852D01*
X029821Y028833D01*
X029809Y028816D01*
X029795Y028802D01*
X029778Y028790D01*
X029759Y028781D01*
X029739Y028776D01*
X029719Y028774D01*
X029699Y028776D01*
X029679Y028781D01*
X029660Y028790D01*
X029643Y028802D01*
X029629Y028816D01*
X029617Y028833D01*
X029608Y028852D01*
X029603Y028872D01*
X029601Y028892D01*
X029601Y035565D01*
X029595Y035602D01*
X029585Y035638D01*
X029571Y035673D01*
X029554Y035706D01*
X029534Y035738D01*
X029510Y035766D01*
X029483Y035793D01*
X029454Y035816D01*
X029423Y035836D01*
X029389Y035853D01*
X029354Y035866D01*
X029318Y035876D01*
X029281Y035881D01*
X029244Y035883D01*
X029207Y035881D01*
X029207Y035880D02*
X006195Y035880D01*
X006195Y035881D02*
X006158Y035875D01*
X006122Y035865D01*
X006087Y035851D01*
X006054Y035834D01*
X006022Y035814D01*
X005994Y035790D01*
X005967Y035763D01*
X005944Y035734D01*
X005924Y035703D01*
X005907Y035669D01*
X005894Y035634D01*
X005884Y035598D01*
X005879Y035561D01*
X005877Y035524D01*
X005879Y035487D01*
X005880Y035486D02*
X005880Y026353D01*
X005879Y026353D02*
X005885Y026318D01*
X005894Y026284D01*
X005906Y026251D01*
X005921Y026220D01*
X005940Y026190D01*
X005961Y026162D01*
X005985Y026136D01*
X006011Y026113D01*
X006039Y026093D01*
X006070Y026075D01*
X006102Y026060D01*
X006135Y026049D01*
X006169Y026041D01*
X006203Y026036D01*
X006238Y026035D01*
X006273Y026037D01*
X006274Y026038D02*
X007849Y026038D01*
X007869Y026036D01*
X007889Y026031D01*
X007908Y026022D01*
X007925Y026010D01*
X007939Y025996D01*
X007951Y025979D01*
X007960Y025960D01*
X007965Y025940D01*
X007967Y025920D01*
X007965Y025900D01*
X007960Y025880D01*
X007951Y025861D01*
X007939Y025844D01*
X007925Y025830D01*
X007908Y025818D01*
X007889Y025809D01*
X007869Y025804D01*
X007849Y025802D01*
X007849Y025801D02*
X006195Y025801D01*
X006195Y025802D02*
X006158Y025796D01*
X006122Y025786D01*
X006087Y025772D01*
X006054Y025755D01*
X006022Y025735D01*
X005994Y025711D01*
X005967Y025684D01*
X005944Y025655D01*
X005924Y025624D01*
X005907Y025590D01*
X005894Y025555D01*
X005884Y025519D01*
X005879Y025482D01*
X005877Y025445D01*
X005879Y025408D01*
X005880Y025408D02*
X005880Y016274D01*
X005879Y016274D02*
X005885Y016239D01*
X005894Y016205D01*
X005906Y016172D01*
X005921Y016141D01*
X005940Y016111D01*
X005961Y016083D01*
X005985Y016057D01*
X006011Y016034D01*
X006039Y016014D01*
X006070Y015996D01*
X006102Y015981D01*
X006135Y015970D01*
X006169Y015962D01*
X006203Y015957D01*
X006238Y015956D01*
X006273Y015958D01*
X006274Y015959D02*
X007849Y015959D01*
X007869Y015957D01*
X007889Y015952D01*
X007908Y015943D01*
X007925Y015931D01*
X007939Y015917D01*
X007951Y015900D01*
X007960Y015881D01*
X007965Y015861D01*
X007967Y015841D01*
X007965Y015821D01*
X007960Y015801D01*
X007951Y015782D01*
X007939Y015765D01*
X007925Y015751D01*
X007908Y015739D01*
X007889Y015730D01*
X007869Y015725D01*
X007849Y015723D01*
X006195Y015723D01*
X006158Y015717D01*
X006122Y015707D01*
X006087Y015693D01*
X006054Y015676D01*
X006022Y015656D01*
X005994Y015632D01*
X005967Y015605D01*
X005944Y015576D01*
X005924Y015545D01*
X005907Y015511D01*
X005894Y015476D01*
X005884Y015440D01*
X005879Y015403D01*
X005877Y015366D01*
X005879Y015329D01*
X005880Y015329D02*
X005880Y006195D01*
X005879Y006195D02*
X005885Y006160D01*
X005894Y006126D01*
X005906Y006093D01*
X005921Y006062D01*
X005940Y006032D01*
X005961Y006004D01*
X005985Y005978D01*
X006011Y005955D01*
X006039Y005935D01*
X006070Y005917D01*
X006102Y005902D01*
X006135Y005891D01*
X006169Y005883D01*
X006203Y005878D01*
X006238Y005877D01*
X006273Y005879D01*
X006372Y006864D02*
X006374Y006908D01*
X006380Y006952D01*
X006390Y006995D01*
X006403Y007037D01*
X006421Y007077D01*
X006442Y007116D01*
X006466Y007153D01*
X006493Y007188D01*
X006524Y007220D01*
X006557Y007249D01*
X006593Y007275D01*
X006631Y007297D01*
X006671Y007316D01*
X006712Y007332D01*
X006755Y007344D01*
X006798Y007352D01*
X006842Y007356D01*
X006886Y007356D01*
X006930Y007352D01*
X006973Y007344D01*
X007016Y007332D01*
X007057Y007316D01*
X007097Y007297D01*
X007135Y007275D01*
X007171Y007249D01*
X007204Y007220D01*
X007235Y007188D01*
X007262Y007153D01*
X007286Y007116D01*
X007307Y007077D01*
X007325Y007037D01*
X007338Y006995D01*
X007348Y006952D01*
X007354Y006908D01*
X007356Y006864D01*
X007354Y006820D01*
X007348Y006776D01*
X007338Y006733D01*
X007325Y006691D01*
X007307Y006651D01*
X007286Y006612D01*
X007262Y006575D01*
X007235Y006540D01*
X007204Y006508D01*
X007171Y006479D01*
X007135Y006453D01*
X007097Y006431D01*
X007057Y006412D01*
X007016Y006396D01*
X006973Y006384D01*
X006930Y006376D01*
X006886Y006372D01*
X006842Y006372D01*
X006798Y006376D01*
X006755Y006384D01*
X006712Y006396D01*
X006671Y006412D01*
X006631Y006431D01*
X006593Y006453D01*
X006557Y006479D01*
X006524Y006508D01*
X006493Y006540D01*
X006466Y006575D01*
X006442Y006612D01*
X006421Y006651D01*
X006403Y006691D01*
X006390Y006733D01*
X006380Y006776D01*
X006374Y006820D01*
X006372Y006864D01*
X006609Y008427D02*
X006611Y008452D01*
X006617Y008476D01*
X006626Y008498D01*
X006639Y008519D01*
X006655Y008538D01*
X006674Y008554D01*
X006695Y008567D01*
X006717Y008576D01*
X006741Y008582D01*
X006766Y008584D01*
X006791Y008582D01*
X006815Y008576D01*
X006837Y008567D01*
X006858Y008554D01*
X006877Y008538D01*
X006893Y008519D01*
X006906Y008498D01*
X006915Y008476D01*
X006921Y008452D01*
X006923Y008427D01*
X006921Y008402D01*
X006915Y008378D01*
X006906Y008356D01*
X006893Y008335D01*
X006877Y008316D01*
X006858Y008300D01*
X006837Y008287D01*
X006815Y008278D01*
X006791Y008272D01*
X006766Y008270D01*
X006741Y008272D01*
X006717Y008278D01*
X006695Y008287D01*
X006674Y008300D01*
X006655Y008316D01*
X006639Y008335D01*
X006626Y008356D01*
X006617Y008378D01*
X006611Y008402D01*
X006609Y008427D01*
X006766Y008427D02*
X006768Y008452D01*
X006774Y008476D01*
X006783Y008498D01*
X006796Y008519D01*
X006812Y008538D01*
X006831Y008554D01*
X006852Y008567D01*
X006874Y008576D01*
X006898Y008582D01*
X006923Y008584D01*
X006948Y008582D01*
X006972Y008576D01*
X006994Y008567D01*
X007015Y008554D01*
X007034Y008538D01*
X007050Y008519D01*
X007063Y008498D01*
X007072Y008476D01*
X007078Y008452D01*
X007080Y008427D01*
X007078Y008402D01*
X007072Y008378D01*
X007063Y008356D01*
X007050Y008335D01*
X007034Y008316D01*
X007015Y008300D01*
X006994Y008287D01*
X006972Y008278D01*
X006948Y008272D01*
X006923Y008270D01*
X006898Y008272D01*
X006874Y008278D01*
X006852Y008287D01*
X006831Y008300D01*
X006812Y008316D01*
X006796Y008335D01*
X006783Y008356D01*
X006774Y008378D01*
X006768Y008402D01*
X006766Y008427D01*
X007081Y008427D02*
X007083Y008452D01*
X007089Y008476D01*
X007098Y008498D01*
X007111Y008519D01*
X007127Y008538D01*
X007146Y008554D01*
X007167Y008567D01*
X007189Y008576D01*
X007213Y008582D01*
X007238Y008584D01*
X007263Y008582D01*
X007287Y008576D01*
X007309Y008567D01*
X007330Y008554D01*
X007349Y008538D01*
X007365Y008519D01*
X007378Y008498D01*
X007387Y008476D01*
X007393Y008452D01*
X007395Y008427D01*
X007393Y008402D01*
X007387Y008378D01*
X007378Y008356D01*
X007365Y008335D01*
X007349Y008316D01*
X007330Y008300D01*
X007309Y008287D01*
X007287Y008278D01*
X007263Y008272D01*
X007238Y008270D01*
X007213Y008272D01*
X007189Y008278D01*
X007167Y008287D01*
X007146Y008300D01*
X007127Y008316D01*
X007111Y008335D01*
X007098Y008356D01*
X007089Y008378D01*
X007083Y008402D01*
X007081Y008427D01*
X007239Y008427D02*
X007241Y008452D01*
X007247Y008476D01*
X007256Y008498D01*
X007269Y008519D01*
X007285Y008538D01*
X007304Y008554D01*
X007325Y008567D01*
X007347Y008576D01*
X007371Y008582D01*
X007396Y008584D01*
X007421Y008582D01*
X007445Y008576D01*
X007467Y008567D01*
X007488Y008554D01*
X007507Y008538D01*
X007523Y008519D01*
X007536Y008498D01*
X007545Y008476D01*
X007551Y008452D01*
X007553Y008427D01*
X007551Y008402D01*
X007545Y008378D01*
X007536Y008356D01*
X007523Y008335D01*
X007507Y008316D01*
X007488Y008300D01*
X007467Y008287D01*
X007445Y008278D01*
X007421Y008272D01*
X007396Y008270D01*
X007371Y008272D01*
X007347Y008278D01*
X007325Y008287D01*
X007304Y008300D01*
X007285Y008316D01*
X007269Y008335D01*
X007256Y008356D01*
X007247Y008378D01*
X007241Y008402D01*
X007239Y008427D01*
X007081Y013033D02*
X007083Y013058D01*
X007089Y013082D01*
X007098Y013104D01*
X007111Y013125D01*
X007127Y013144D01*
X007146Y013160D01*
X007167Y013173D01*
X007189Y013182D01*
X007213Y013188D01*
X007238Y013190D01*
X007263Y013188D01*
X007287Y013182D01*
X007309Y013173D01*
X007330Y013160D01*
X007349Y013144D01*
X007365Y013125D01*
X007378Y013104D01*
X007387Y013082D01*
X007393Y013058D01*
X007395Y013033D01*
X007393Y013008D01*
X007387Y012984D01*
X007378Y012962D01*
X007365Y012941D01*
X007349Y012922D01*
X007330Y012906D01*
X007309Y012893D01*
X007287Y012884D01*
X007263Y012878D01*
X007238Y012876D01*
X007213Y012878D01*
X007189Y012884D01*
X007167Y012893D01*
X007146Y012906D01*
X007127Y012922D01*
X007111Y012941D01*
X007098Y012962D01*
X007089Y012984D01*
X007083Y013008D01*
X007081Y013033D01*
X006766Y013033D02*
X006768Y013058D01*
X006774Y013082D01*
X006783Y013104D01*
X006796Y013125D01*
X006812Y013144D01*
X006831Y013160D01*
X006852Y013173D01*
X006874Y013182D01*
X006898Y013188D01*
X006923Y013190D01*
X006948Y013188D01*
X006972Y013182D01*
X006994Y013173D01*
X007015Y013160D01*
X007034Y013144D01*
X007050Y013125D01*
X007063Y013104D01*
X007072Y013082D01*
X007078Y013058D01*
X007080Y013033D01*
X007078Y013008D01*
X007072Y012984D01*
X007063Y012962D01*
X007050Y012941D01*
X007034Y012922D01*
X007015Y012906D01*
X006994Y012893D01*
X006972Y012884D01*
X006948Y012878D01*
X006923Y012876D01*
X006898Y012878D01*
X006874Y012884D01*
X006852Y012893D01*
X006831Y012906D01*
X006812Y012922D01*
X006796Y012941D01*
X006783Y012962D01*
X006774Y012984D01*
X006768Y013008D01*
X006766Y013033D01*
X006609Y013033D02*
X006611Y013058D01*
X006617Y013082D01*
X006626Y013104D01*
X006639Y013125D01*
X006655Y013144D01*
X006674Y013160D01*
X006695Y013173D01*
X006717Y013182D01*
X006741Y013188D01*
X006766Y013190D01*
X006791Y013188D01*
X006815Y013182D01*
X006837Y013173D01*
X006858Y013160D01*
X006877Y013144D01*
X006893Y013125D01*
X006906Y013104D01*
X006915Y013082D01*
X006921Y013058D01*
X006923Y013033D01*
X006921Y013008D01*
X006915Y012984D01*
X006906Y012962D01*
X006893Y012941D01*
X006877Y012922D01*
X006858Y012906D01*
X006837Y012893D01*
X006815Y012884D01*
X006791Y012878D01*
X006766Y012876D01*
X006741Y012878D01*
X006717Y012884D01*
X006695Y012893D01*
X006674Y012906D01*
X006655Y012922D01*
X006639Y012941D01*
X006626Y012962D01*
X006617Y012984D01*
X006611Y013008D01*
X006609Y013033D01*
X007239Y013033D02*
X007241Y013058D01*
X007247Y013082D01*
X007256Y013104D01*
X007269Y013125D01*
X007285Y013144D01*
X007304Y013160D01*
X007325Y013173D01*
X007347Y013182D01*
X007371Y013188D01*
X007396Y013190D01*
X007421Y013188D01*
X007445Y013182D01*
X007467Y013173D01*
X007488Y013160D01*
X007507Y013144D01*
X007523Y013125D01*
X007536Y013104D01*
X007545Y013082D01*
X007551Y013058D01*
X007553Y013033D01*
X007551Y013008D01*
X007545Y012984D01*
X007536Y012962D01*
X007523Y012941D01*
X007507Y012922D01*
X007488Y012906D01*
X007467Y012893D01*
X007445Y012884D01*
X007421Y012878D01*
X007396Y012876D01*
X007371Y012878D01*
X007347Y012884D01*
X007325Y012893D01*
X007304Y012906D01*
X007285Y012922D01*
X007269Y012941D01*
X007256Y012962D01*
X007247Y012984D01*
X007241Y013008D01*
X007239Y013033D01*
X006372Y014738D02*
X006374Y014782D01*
X006380Y014826D01*
X006390Y014869D01*
X006403Y014911D01*
X006421Y014951D01*
X006442Y014990D01*
X006466Y015027D01*
X006493Y015062D01*
X006524Y015094D01*
X006557Y015123D01*
X006593Y015149D01*
X006631Y015171D01*
X006671Y015190D01*
X006712Y015206D01*
X006755Y015218D01*
X006798Y015226D01*
X006842Y015230D01*
X006886Y015230D01*
X006930Y015226D01*
X006973Y015218D01*
X007016Y015206D01*
X007057Y015190D01*
X007097Y015171D01*
X007135Y015149D01*
X007171Y015123D01*
X007204Y015094D01*
X007235Y015062D01*
X007262Y015027D01*
X007286Y014990D01*
X007307Y014951D01*
X007325Y014911D01*
X007338Y014869D01*
X007348Y014826D01*
X007354Y014782D01*
X007356Y014738D01*
X007354Y014694D01*
X007348Y014650D01*
X007338Y014607D01*
X007325Y014565D01*
X007307Y014525D01*
X007286Y014486D01*
X007262Y014449D01*
X007235Y014414D01*
X007204Y014382D01*
X007171Y014353D01*
X007135Y014327D01*
X007097Y014305D01*
X007057Y014286D01*
X007016Y014270D01*
X006973Y014258D01*
X006930Y014250D01*
X006886Y014246D01*
X006842Y014246D01*
X006798Y014250D01*
X006755Y014258D01*
X006712Y014270D01*
X006671Y014286D01*
X006631Y014305D01*
X006593Y014327D01*
X006557Y014353D01*
X006524Y014382D01*
X006493Y014414D01*
X006466Y014449D01*
X006442Y014486D01*
X006421Y014525D01*
X006403Y014565D01*
X006390Y014607D01*
X006380Y014650D01*
X006374Y014694D01*
X006372Y014738D01*
X006372Y016943D02*
X006374Y016987D01*
X006380Y017031D01*
X006390Y017074D01*
X006403Y017116D01*
X006421Y017156D01*
X006442Y017195D01*
X006466Y017232D01*
X006493Y017267D01*
X006524Y017299D01*
X006557Y017328D01*
X006593Y017354D01*
X006631Y017376D01*
X006671Y017395D01*
X006712Y017411D01*
X006755Y017423D01*
X006798Y017431D01*
X006842Y017435D01*
X006886Y017435D01*
X006930Y017431D01*
X006973Y017423D01*
X007016Y017411D01*
X007057Y017395D01*
X007097Y017376D01*
X007135Y017354D01*
X007171Y017328D01*
X007204Y017299D01*
X007235Y017267D01*
X007262Y017232D01*
X007286Y017195D01*
X007307Y017156D01*
X007325Y017116D01*
X007338Y017074D01*
X007348Y017031D01*
X007354Y016987D01*
X007356Y016943D01*
X007354Y016899D01*
X007348Y016855D01*
X007338Y016812D01*
X007325Y016770D01*
X007307Y016730D01*
X007286Y016691D01*
X007262Y016654D01*
X007235Y016619D01*
X007204Y016587D01*
X007171Y016558D01*
X007135Y016532D01*
X007097Y016510D01*
X007057Y016491D01*
X007016Y016475D01*
X006973Y016463D01*
X006930Y016455D01*
X006886Y016451D01*
X006842Y016451D01*
X006798Y016455D01*
X006755Y016463D01*
X006712Y016475D01*
X006671Y016491D01*
X006631Y016510D01*
X006593Y016532D01*
X006557Y016558D01*
X006524Y016587D01*
X006493Y016619D01*
X006466Y016654D01*
X006442Y016691D01*
X006421Y016730D01*
X006403Y016770D01*
X006390Y016812D01*
X006380Y016855D01*
X006374Y016899D01*
X006372Y016943D01*
X006609Y018506D02*
X006611Y018531D01*
X006617Y018555D01*
X006626Y018577D01*
X006639Y018598D01*
X006655Y018617D01*
X006674Y018633D01*
X006695Y018646D01*
X006717Y018655D01*
X006741Y018661D01*
X006766Y018663D01*
X006791Y018661D01*
X006815Y018655D01*
X006837Y018646D01*
X006858Y018633D01*
X006877Y018617D01*
X006893Y018598D01*
X006906Y018577D01*
X006915Y018555D01*
X006921Y018531D01*
X006923Y018506D01*
X006921Y018481D01*
X006915Y018457D01*
X006906Y018435D01*
X006893Y018414D01*
X006877Y018395D01*
X006858Y018379D01*
X006837Y018366D01*
X006815Y018357D01*
X006791Y018351D01*
X006766Y018349D01*
X006741Y018351D01*
X006717Y018357D01*
X006695Y018366D01*
X006674Y018379D01*
X006655Y018395D01*
X006639Y018414D01*
X006626Y018435D01*
X006617Y018457D01*
X006611Y018481D01*
X006609Y018506D01*
X006766Y018506D02*
X006768Y018531D01*
X006774Y018555D01*
X006783Y018577D01*
X006796Y018598D01*
X006812Y018617D01*
X006831Y018633D01*
X006852Y018646D01*
X006874Y018655D01*
X006898Y018661D01*
X006923Y018663D01*
X006948Y018661D01*
X006972Y018655D01*
X006994Y018646D01*
X007015Y018633D01*
X007034Y018617D01*
X007050Y018598D01*
X007063Y018577D01*
X007072Y018555D01*
X007078Y018531D01*
X007080Y018506D01*
X007078Y018481D01*
X007072Y018457D01*
X007063Y018435D01*
X007050Y018414D01*
X007034Y018395D01*
X007015Y018379D01*
X006994Y018366D01*
X006972Y018357D01*
X006948Y018351D01*
X006923Y018349D01*
X006898Y018351D01*
X006874Y018357D01*
X006852Y018366D01*
X006831Y018379D01*
X006812Y018395D01*
X006796Y018414D01*
X006783Y018435D01*
X006774Y018457D01*
X006768Y018481D01*
X006766Y018506D01*
X007081Y018506D02*
X007083Y018531D01*
X007089Y018555D01*
X007098Y018577D01*
X007111Y018598D01*
X007127Y018617D01*
X007146Y018633D01*
X007167Y018646D01*
X007189Y018655D01*
X007213Y018661D01*
X007238Y018663D01*
X007263Y018661D01*
X007287Y018655D01*
X007309Y018646D01*
X007330Y018633D01*
X007349Y018617D01*
X007365Y018598D01*
X007378Y018577D01*
X007387Y018555D01*
X007393Y018531D01*
X007395Y018506D01*
X007393Y018481D01*
X007387Y018457D01*
X007378Y018435D01*
X007365Y018414D01*
X007349Y018395D01*
X007330Y018379D01*
X007309Y018366D01*
X007287Y018357D01*
X007263Y018351D01*
X007238Y018349D01*
X007213Y018351D01*
X007189Y018357D01*
X007167Y018366D01*
X007146Y018379D01*
X007127Y018395D01*
X007111Y018414D01*
X007098Y018435D01*
X007089Y018457D01*
X007083Y018481D01*
X007081Y018506D01*
X007239Y018506D02*
X007241Y018531D01*
X007247Y018555D01*
X007256Y018577D01*
X007269Y018598D01*
X007285Y018617D01*
X007304Y018633D01*
X007325Y018646D01*
X007347Y018655D01*
X007371Y018661D01*
X007396Y018663D01*
X007421Y018661D01*
X007445Y018655D01*
X007467Y018646D01*
X007488Y018633D01*
X007507Y018617D01*
X007523Y018598D01*
X007536Y018577D01*
X007545Y018555D01*
X007551Y018531D01*
X007553Y018506D01*
X007551Y018481D01*
X007545Y018457D01*
X007536Y018435D01*
X007523Y018414D01*
X007507Y018395D01*
X007488Y018379D01*
X007467Y018366D01*
X007445Y018357D01*
X007421Y018351D01*
X007396Y018349D01*
X007371Y018351D01*
X007347Y018357D01*
X007325Y018366D01*
X007304Y018379D01*
X007285Y018395D01*
X007269Y018414D01*
X007256Y018435D01*
X007247Y018457D01*
X007241Y018481D01*
X007239Y018506D01*
X009817Y015959D02*
X023597Y015959D01*
X023617Y015957D01*
X023637Y015952D01*
X023656Y015943D01*
X023673Y015931D01*
X023687Y015917D01*
X023699Y015900D01*
X023708Y015881D01*
X023713Y015861D01*
X023715Y015841D01*
X023713Y015821D01*
X023708Y015801D01*
X023699Y015782D01*
X023687Y015765D01*
X023673Y015751D01*
X023656Y015739D01*
X023637Y015730D01*
X023617Y015725D01*
X023597Y015723D01*
X009817Y015723D01*
X009797Y015725D01*
X009777Y015730D01*
X009758Y015739D01*
X009741Y015751D01*
X009727Y015765D01*
X009715Y015782D01*
X009706Y015801D01*
X009701Y015821D01*
X009699Y015841D01*
X009701Y015861D01*
X009706Y015881D01*
X009715Y015900D01*
X009727Y015917D01*
X009741Y015931D01*
X009758Y015943D01*
X009777Y015952D01*
X009797Y015957D01*
X009817Y015959D01*
X007239Y023112D02*
X007241Y023137D01*
X007247Y023161D01*
X007256Y023183D01*
X007269Y023204D01*
X007285Y023223D01*
X007304Y023239D01*
X007325Y023252D01*
X007347Y023261D01*
X007371Y023267D01*
X007396Y023269D01*
X007421Y023267D01*
X007445Y023261D01*
X007467Y023252D01*
X007488Y023239D01*
X007507Y023223D01*
X007523Y023204D01*
X007536Y023183D01*
X007545Y023161D01*
X007551Y023137D01*
X007553Y023112D01*
X007551Y023087D01*
X007545Y023063D01*
X007536Y023041D01*
X007523Y023020D01*
X007507Y023001D01*
X007488Y022985D01*
X007467Y022972D01*
X007445Y022963D01*
X007421Y022957D01*
X007396Y022955D01*
X007371Y022957D01*
X007347Y022963D01*
X007325Y022972D01*
X007304Y022985D01*
X007285Y023001D01*
X007269Y023020D01*
X007256Y023041D01*
X007247Y023063D01*
X007241Y023087D01*
X007239Y023112D01*
X007081Y023112D02*
X007083Y023137D01*
X007089Y023161D01*
X007098Y023183D01*
X007111Y023204D01*
X007127Y023223D01*
X007146Y023239D01*
X007167Y023252D01*
X007189Y023261D01*
X007213Y023267D01*
X007238Y023269D01*
X007263Y023267D01*
X007287Y023261D01*
X007309Y023252D01*
X007330Y023239D01*
X007349Y023223D01*
X007365Y023204D01*
X007378Y023183D01*
X007387Y023161D01*
X007393Y023137D01*
X007395Y023112D01*
X007393Y023087D01*
X007387Y023063D01*
X007378Y023041D01*
X007365Y023020D01*
X007349Y023001D01*
X007330Y022985D01*
X007309Y022972D01*
X007287Y022963D01*
X007263Y022957D01*
X007238Y022955D01*
X007213Y022957D01*
X007189Y022963D01*
X007167Y022972D01*
X007146Y022985D01*
X007127Y023001D01*
X007111Y023020D01*
X007098Y023041D01*
X007089Y023063D01*
X007083Y023087D01*
X007081Y023112D01*
X006766Y023112D02*
X006768Y023137D01*
X006774Y023161D01*
X006783Y023183D01*
X006796Y023204D01*
X006812Y023223D01*
X006831Y023239D01*
X006852Y023252D01*
X006874Y023261D01*
X006898Y023267D01*
X006923Y023269D01*
X006948Y023267D01*
X006972Y023261D01*
X006994Y023252D01*
X007015Y023239D01*
X007034Y023223D01*
X007050Y023204D01*
X007063Y023183D01*
X007072Y023161D01*
X007078Y023137D01*
X007080Y023112D01*
X007078Y023087D01*
X007072Y023063D01*
X007063Y023041D01*
X007050Y023020D01*
X007034Y023001D01*
X007015Y022985D01*
X006994Y022972D01*
X006972Y022963D01*
X006948Y022957D01*
X006923Y022955D01*
X006898Y022957D01*
X006874Y022963D01*
X006852Y022972D01*
X006831Y022985D01*
X006812Y023001D01*
X006796Y023020D01*
X006783Y023041D01*
X006774Y023063D01*
X006768Y023087D01*
X006766Y023112D01*
X006609Y023112D02*
X006611Y023137D01*
X006617Y023161D01*
X006626Y023183D01*
X006639Y023204D01*
X006655Y023223D01*
X006674Y023239D01*
X006695Y023252D01*
X006717Y023261D01*
X006741Y023267D01*
X006766Y023269D01*
X006791Y023267D01*
X006815Y023261D01*
X006837Y023252D01*
X006858Y023239D01*
X006877Y023223D01*
X006893Y023204D01*
X006906Y023183D01*
X006915Y023161D01*
X006921Y023137D01*
X006923Y023112D01*
X006921Y023087D01*
X006915Y023063D01*
X006906Y023041D01*
X006893Y023020D01*
X006877Y023001D01*
X006858Y022985D01*
X006837Y022972D01*
X006815Y022963D01*
X006791Y022957D01*
X006766Y022955D01*
X006741Y022957D01*
X006717Y022963D01*
X006695Y022972D01*
X006674Y022985D01*
X006655Y023001D01*
X006639Y023020D01*
X006626Y023041D01*
X006617Y023063D01*
X006611Y023087D01*
X006609Y023112D01*
X006372Y024817D02*
X006374Y024861D01*
X006380Y024905D01*
X006390Y024948D01*
X006403Y024990D01*
X006421Y025030D01*
X006442Y025069D01*
X006466Y025106D01*
X006493Y025141D01*
X006524Y025173D01*
X006557Y025202D01*
X006593Y025228D01*
X006631Y025250D01*
X006671Y025269D01*
X006712Y025285D01*
X006755Y025297D01*
X006798Y025305D01*
X006842Y025309D01*
X006886Y025309D01*
X006930Y025305D01*
X006973Y025297D01*
X007016Y025285D01*
X007057Y025269D01*
X007097Y025250D01*
X007135Y025228D01*
X007171Y025202D01*
X007204Y025173D01*
X007235Y025141D01*
X007262Y025106D01*
X007286Y025069D01*
X007307Y025030D01*
X007325Y024990D01*
X007338Y024948D01*
X007348Y024905D01*
X007354Y024861D01*
X007356Y024817D01*
X007354Y024773D01*
X007348Y024729D01*
X007338Y024686D01*
X007325Y024644D01*
X007307Y024604D01*
X007286Y024565D01*
X007262Y024528D01*
X007235Y024493D01*
X007204Y024461D01*
X007171Y024432D01*
X007135Y024406D01*
X007097Y024384D01*
X007057Y024365D01*
X007016Y024349D01*
X006973Y024337D01*
X006930Y024329D01*
X006886Y024325D01*
X006842Y024325D01*
X006798Y024329D01*
X006755Y024337D01*
X006712Y024349D01*
X006671Y024365D01*
X006631Y024384D01*
X006593Y024406D01*
X006557Y024432D01*
X006524Y024461D01*
X006493Y024493D01*
X006466Y024528D01*
X006442Y024565D01*
X006421Y024604D01*
X006403Y024644D01*
X006390Y024686D01*
X006380Y024729D01*
X006374Y024773D01*
X006372Y024817D01*
X006372Y027022D02*
X006374Y027066D01*
X006380Y027110D01*
X006390Y027153D01*
X006403Y027195D01*
X006421Y027235D01*
X006442Y027274D01*
X006466Y027311D01*
X006493Y027346D01*
X006524Y027378D01*
X006557Y027407D01*
X006593Y027433D01*
X006631Y027455D01*
X006671Y027474D01*
X006712Y027490D01*
X006755Y027502D01*
X006798Y027510D01*
X006842Y027514D01*
X006886Y027514D01*
X006930Y027510D01*
X006973Y027502D01*
X007016Y027490D01*
X007057Y027474D01*
X007097Y027455D01*
X007135Y027433D01*
X007171Y027407D01*
X007204Y027378D01*
X007235Y027346D01*
X007262Y027311D01*
X007286Y027274D01*
X007307Y027235D01*
X007325Y027195D01*
X007338Y027153D01*
X007348Y027110D01*
X007354Y027066D01*
X007356Y027022D01*
X007354Y026978D01*
X007348Y026934D01*
X007338Y026891D01*
X007325Y026849D01*
X007307Y026809D01*
X007286Y026770D01*
X007262Y026733D01*
X007235Y026698D01*
X007204Y026666D01*
X007171Y026637D01*
X007135Y026611D01*
X007097Y026589D01*
X007057Y026570D01*
X007016Y026554D01*
X006973Y026542D01*
X006930Y026534D01*
X006886Y026530D01*
X006842Y026530D01*
X006798Y026534D01*
X006755Y026542D01*
X006712Y026554D01*
X006671Y026570D01*
X006631Y026589D01*
X006593Y026611D01*
X006557Y026637D01*
X006524Y026666D01*
X006493Y026698D01*
X006466Y026733D01*
X006442Y026770D01*
X006421Y026809D01*
X006403Y026849D01*
X006390Y026891D01*
X006380Y026934D01*
X006374Y026978D01*
X006372Y027022D01*
X006609Y028584D02*
X006611Y028609D01*
X006617Y028633D01*
X006626Y028655D01*
X006639Y028676D01*
X006655Y028695D01*
X006674Y028711D01*
X006695Y028724D01*
X006717Y028733D01*
X006741Y028739D01*
X006766Y028741D01*
X006791Y028739D01*
X006815Y028733D01*
X006837Y028724D01*
X006858Y028711D01*
X006877Y028695D01*
X006893Y028676D01*
X006906Y028655D01*
X006915Y028633D01*
X006921Y028609D01*
X006923Y028584D01*
X006921Y028559D01*
X006915Y028535D01*
X006906Y028513D01*
X006893Y028492D01*
X006877Y028473D01*
X006858Y028457D01*
X006837Y028444D01*
X006815Y028435D01*
X006791Y028429D01*
X006766Y028427D01*
X006741Y028429D01*
X006717Y028435D01*
X006695Y028444D01*
X006674Y028457D01*
X006655Y028473D01*
X006639Y028492D01*
X006626Y028513D01*
X006617Y028535D01*
X006611Y028559D01*
X006609Y028584D01*
X006766Y028584D02*
X006768Y028609D01*
X006774Y028633D01*
X006783Y028655D01*
X006796Y028676D01*
X006812Y028695D01*
X006831Y028711D01*
X006852Y028724D01*
X006874Y028733D01*
X006898Y028739D01*
X006923Y028741D01*
X006948Y028739D01*
X006972Y028733D01*
X006994Y028724D01*
X007015Y028711D01*
X007034Y028695D01*
X007050Y028676D01*
X007063Y028655D01*
X007072Y028633D01*
X007078Y028609D01*
X007080Y028584D01*
X007078Y028559D01*
X007072Y028535D01*
X007063Y028513D01*
X007050Y028492D01*
X007034Y028473D01*
X007015Y028457D01*
X006994Y028444D01*
X006972Y028435D01*
X006948Y028429D01*
X006923Y028427D01*
X006898Y028429D01*
X006874Y028435D01*
X006852Y028444D01*
X006831Y028457D01*
X006812Y028473D01*
X006796Y028492D01*
X006783Y028513D01*
X006774Y028535D01*
X006768Y028559D01*
X006766Y028584D01*
X007081Y028584D02*
X007083Y028609D01*
X007089Y028633D01*
X007098Y028655D01*
X007111Y028676D01*
X007127Y028695D01*
X007146Y028711D01*
X007167Y028724D01*
X007189Y028733D01*
X007213Y028739D01*
X007238Y028741D01*
X007263Y028739D01*
X007287Y028733D01*
X007309Y028724D01*
X007330Y028711D01*
X007349Y028695D01*
X007365Y028676D01*
X007378Y028655D01*
X007387Y028633D01*
X007393Y028609D01*
X007395Y028584D01*
X007393Y028559D01*
X007387Y028535D01*
X007378Y028513D01*
X007365Y028492D01*
X007349Y028473D01*
X007330Y028457D01*
X007309Y028444D01*
X007287Y028435D01*
X007263Y028429D01*
X007238Y028427D01*
X007213Y028429D01*
X007189Y028435D01*
X007167Y028444D01*
X007146Y028457D01*
X007127Y028473D01*
X007111Y028492D01*
X007098Y028513D01*
X007089Y028535D01*
X007083Y028559D01*
X007081Y028584D01*
X007239Y028584D02*
X007241Y028609D01*
X007247Y028633D01*
X007256Y028655D01*
X007269Y028676D01*
X007285Y028695D01*
X007304Y028711D01*
X007325Y028724D01*
X007347Y028733D01*
X007371Y028739D01*
X007396Y028741D01*
X007421Y028739D01*
X007445Y028733D01*
X007467Y028724D01*
X007488Y028711D01*
X007507Y028695D01*
X007523Y028676D01*
X007536Y028655D01*
X007545Y028633D01*
X007551Y028609D01*
X007553Y028584D01*
X007551Y028559D01*
X007545Y028535D01*
X007536Y028513D01*
X007523Y028492D01*
X007507Y028473D01*
X007488Y028457D01*
X007467Y028444D01*
X007445Y028435D01*
X007421Y028429D01*
X007396Y028427D01*
X007371Y028429D01*
X007347Y028435D01*
X007325Y028444D01*
X007304Y028457D01*
X007285Y028473D01*
X007269Y028492D01*
X007256Y028513D01*
X007247Y028535D01*
X007241Y028559D01*
X007239Y028584D01*
X009817Y026038D02*
X023597Y026038D01*
X023617Y026036D01*
X023637Y026031D01*
X023656Y026022D01*
X023673Y026010D01*
X023687Y025996D01*
X023699Y025979D01*
X023708Y025960D01*
X023713Y025940D01*
X023715Y025920D01*
X023713Y025900D01*
X023708Y025880D01*
X023699Y025861D01*
X023687Y025844D01*
X023673Y025830D01*
X023656Y025818D01*
X023637Y025809D01*
X023617Y025804D01*
X023597Y025802D01*
X023597Y025801D02*
X009817Y025801D01*
X009817Y025802D02*
X009797Y025804D01*
X009777Y025809D01*
X009758Y025818D01*
X009741Y025830D01*
X009727Y025844D01*
X009715Y025861D01*
X009706Y025880D01*
X009701Y025900D01*
X009699Y025920D01*
X009701Y025940D01*
X009706Y025960D01*
X009715Y025979D01*
X009727Y025996D01*
X009741Y026010D01*
X009758Y026022D01*
X009777Y026031D01*
X009797Y026036D01*
X009817Y026038D01*
X007239Y033191D02*
X007241Y033216D01*
X007247Y033240D01*
X007256Y033262D01*
X007269Y033283D01*
X007285Y033302D01*
X007304Y033318D01*
X007325Y033331D01*
X007347Y033340D01*
X007371Y033346D01*
X007396Y033348D01*
X007421Y033346D01*
X007445Y033340D01*
X007467Y033331D01*
X007488Y033318D01*
X007507Y033302D01*
X007523Y033283D01*
X007536Y033262D01*
X007545Y033240D01*
X007551Y033216D01*
X007553Y033191D01*
X007551Y033166D01*
X007545Y033142D01*
X007536Y033120D01*
X007523Y033099D01*
X007507Y033080D01*
X007488Y033064D01*
X007467Y033051D01*
X007445Y033042D01*
X007421Y033036D01*
X007396Y033034D01*
X007371Y033036D01*
X007347Y033042D01*
X007325Y033051D01*
X007304Y033064D01*
X007285Y033080D01*
X007269Y033099D01*
X007256Y033120D01*
X007247Y033142D01*
X007241Y033166D01*
X007239Y033191D01*
X007081Y033191D02*
X007083Y033216D01*
X007089Y033240D01*
X007098Y033262D01*
X007111Y033283D01*
X007127Y033302D01*
X007146Y033318D01*
X007167Y033331D01*
X007189Y033340D01*
X007213Y033346D01*
X007238Y033348D01*
X007263Y033346D01*
X007287Y033340D01*
X007309Y033331D01*
X007330Y033318D01*
X007349Y033302D01*
X007365Y033283D01*
X007378Y033262D01*
X007387Y033240D01*
X007393Y033216D01*
X007395Y033191D01*
X007393Y033166D01*
X007387Y033142D01*
X007378Y033120D01*
X007365Y033099D01*
X007349Y033080D01*
X007330Y033064D01*
X007309Y033051D01*
X007287Y033042D01*
X007263Y033036D01*
X007238Y033034D01*
X007213Y033036D01*
X007189Y033042D01*
X007167Y033051D01*
X007146Y033064D01*
X007127Y033080D01*
X007111Y033099D01*
X007098Y033120D01*
X007089Y033142D01*
X007083Y033166D01*
X007081Y033191D01*
X006766Y033191D02*
X006768Y033216D01*
X006774Y033240D01*
X006783Y033262D01*
X006796Y033283D01*
X006812Y033302D01*
X006831Y033318D01*
X006852Y033331D01*
X006874Y033340D01*
X006898Y033346D01*
X006923Y033348D01*
X006948Y033346D01*
X006972Y033340D01*
X006994Y033331D01*
X007015Y033318D01*
X007034Y033302D01*
X007050Y033283D01*
X007063Y033262D01*
X007072Y033240D01*
X007078Y033216D01*
X007080Y033191D01*
X007078Y033166D01*
X007072Y033142D01*
X007063Y033120D01*
X007050Y033099D01*
X007034Y033080D01*
X007015Y033064D01*
X006994Y033051D01*
X006972Y033042D01*
X006948Y033036D01*
X006923Y033034D01*
X006898Y033036D01*
X006874Y033042D01*
X006852Y033051D01*
X006831Y033064D01*
X006812Y033080D01*
X006796Y033099D01*
X006783Y033120D01*
X006774Y033142D01*
X006768Y033166D01*
X006766Y033191D01*
X006609Y033191D02*
X006611Y033216D01*
X006617Y033240D01*
X006626Y033262D01*
X006639Y033283D01*
X006655Y033302D01*
X006674Y033318D01*
X006695Y033331D01*
X006717Y033340D01*
X006741Y033346D01*
X006766Y033348D01*
X006791Y033346D01*
X006815Y033340D01*
X006837Y033331D01*
X006858Y033318D01*
X006877Y033302D01*
X006893Y033283D01*
X006906Y033262D01*
X006915Y033240D01*
X006921Y033216D01*
X006923Y033191D01*
X006921Y033166D01*
X006915Y033142D01*
X006906Y033120D01*
X006893Y033099D01*
X006877Y033080D01*
X006858Y033064D01*
X006837Y033051D01*
X006815Y033042D01*
X006791Y033036D01*
X006766Y033034D01*
X006741Y033036D01*
X006717Y033042D01*
X006695Y033051D01*
X006674Y033064D01*
X006655Y033080D01*
X006639Y033099D01*
X006626Y033120D01*
X006617Y033142D01*
X006611Y033166D01*
X006609Y033191D01*
X006372Y034896D02*
X006374Y034940D01*
X006380Y034984D01*
X006390Y035027D01*
X006403Y035069D01*
X006421Y035109D01*
X006442Y035148D01*
X006466Y035185D01*
X006493Y035220D01*
X006524Y035252D01*
X006557Y035281D01*
X006593Y035307D01*
X006631Y035329D01*
X006671Y035348D01*
X006712Y035364D01*
X006755Y035376D01*
X006798Y035384D01*
X006842Y035388D01*
X006886Y035388D01*
X006930Y035384D01*
X006973Y035376D01*
X007016Y035364D01*
X007057Y035348D01*
X007097Y035329D01*
X007135Y035307D01*
X007171Y035281D01*
X007204Y035252D01*
X007235Y035220D01*
X007262Y035185D01*
X007286Y035148D01*
X007307Y035109D01*
X007325Y035069D01*
X007338Y035027D01*
X007348Y034984D01*
X007354Y034940D01*
X007356Y034896D01*
X007354Y034852D01*
X007348Y034808D01*
X007338Y034765D01*
X007325Y034723D01*
X007307Y034683D01*
X007286Y034644D01*
X007262Y034607D01*
X007235Y034572D01*
X007204Y034540D01*
X007171Y034511D01*
X007135Y034485D01*
X007097Y034463D01*
X007057Y034444D01*
X007016Y034428D01*
X006973Y034416D01*
X006930Y034408D01*
X006886Y034404D01*
X006842Y034404D01*
X006798Y034408D01*
X006755Y034416D01*
X006712Y034428D01*
X006671Y034444D01*
X006631Y034463D01*
X006593Y034485D01*
X006557Y034511D01*
X006524Y034540D01*
X006493Y034572D01*
X006466Y034607D01*
X006442Y034644D01*
X006421Y034683D01*
X006403Y034723D01*
X006390Y034765D01*
X006380Y034808D01*
X006374Y034852D01*
X006372Y034896D01*
X025565Y026038D02*
X029286Y026038D01*
X029207Y025801D02*
X025565Y025801D01*
X025565Y025802D02*
X025545Y025804D01*
X025525Y025809D01*
X025506Y025818D01*
X025489Y025830D01*
X025475Y025844D01*
X025463Y025861D01*
X025454Y025880D01*
X025449Y025900D01*
X025447Y025920D01*
X025449Y025940D01*
X025454Y025960D01*
X025463Y025979D01*
X025475Y025996D01*
X025489Y026010D01*
X025506Y026022D01*
X025525Y026031D01*
X025545Y026036D01*
X025565Y026038D01*
X028223Y027022D02*
X028225Y027066D01*
X028231Y027110D01*
X028241Y027153D01*
X028254Y027195D01*
X028272Y027235D01*
X028293Y027274D01*
X028317Y027311D01*
X028344Y027346D01*
X028375Y027378D01*
X028408Y027407D01*
X028444Y027433D01*
X028482Y027455D01*
X028522Y027474D01*
X028563Y027490D01*
X028606Y027502D01*
X028649Y027510D01*
X028693Y027514D01*
X028737Y027514D01*
X028781Y027510D01*
X028824Y027502D01*
X028867Y027490D01*
X028908Y027474D01*
X028948Y027455D01*
X028986Y027433D01*
X029022Y027407D01*
X029055Y027378D01*
X029086Y027346D01*
X029113Y027311D01*
X029137Y027274D01*
X029158Y027235D01*
X029176Y027195D01*
X029189Y027153D01*
X029199Y027110D01*
X029205Y027066D01*
X029207Y027022D01*
X029205Y026978D01*
X029199Y026934D01*
X029189Y026891D01*
X029176Y026849D01*
X029158Y026809D01*
X029137Y026770D01*
X029113Y026733D01*
X029086Y026698D01*
X029055Y026666D01*
X029022Y026637D01*
X028986Y026611D01*
X028948Y026589D01*
X028908Y026570D01*
X028867Y026554D01*
X028824Y026542D01*
X028781Y026534D01*
X028737Y026530D01*
X028693Y026530D01*
X028649Y026534D01*
X028606Y026542D01*
X028563Y026554D01*
X028522Y026570D01*
X028482Y026589D01*
X028444Y026611D01*
X028408Y026637D01*
X028375Y026666D01*
X028344Y026698D01*
X028317Y026733D01*
X028293Y026770D01*
X028272Y026809D01*
X028254Y026849D01*
X028241Y026891D01*
X028231Y026934D01*
X028225Y026978D01*
X028223Y027022D01*
X029285Y026037D02*
X029322Y026043D01*
X029358Y026053D01*
X029393Y026067D01*
X029426Y026084D01*
X029458Y026104D01*
X029486Y026128D01*
X029513Y026155D01*
X029536Y026184D01*
X029556Y026215D01*
X029573Y026249D01*
X029586Y026284D01*
X029596Y026320D01*
X029601Y026357D01*
X029603Y026394D01*
X029601Y026431D01*
X029601Y026372D02*
X029603Y026392D01*
X029608Y026412D01*
X029617Y026431D01*
X029629Y026448D01*
X029643Y026462D01*
X029660Y026474D01*
X029679Y026483D01*
X029699Y026488D01*
X029719Y026490D01*
X029739Y026488D01*
X029759Y026483D01*
X029778Y026474D01*
X029795Y026462D01*
X029809Y026448D01*
X029821Y026431D01*
X029830Y026412D01*
X029835Y026392D01*
X029837Y026372D01*
X029837Y010703D01*
X029835Y010683D01*
X029830Y010663D01*
X029821Y010644D01*
X029809Y010627D01*
X029795Y010613D01*
X029778Y010601D01*
X029759Y010592D01*
X029739Y010587D01*
X029719Y010585D01*
X029699Y010587D01*
X029679Y010592D01*
X029660Y010601D01*
X029643Y010613D01*
X029629Y010627D01*
X029617Y010644D01*
X029608Y010663D01*
X029603Y010683D01*
X029601Y010703D01*
X029601Y015408D01*
X029601Y015407D02*
X029595Y015444D01*
X029585Y015480D01*
X029571Y015515D01*
X029554Y015548D01*
X029534Y015580D01*
X029510Y015608D01*
X029483Y015635D01*
X029454Y015658D01*
X029423Y015678D01*
X029389Y015695D01*
X029354Y015708D01*
X029318Y015718D01*
X029281Y015723D01*
X029244Y015725D01*
X029207Y015723D01*
X025565Y015723D01*
X025545Y015725D01*
X025525Y015730D01*
X025506Y015739D01*
X025489Y015751D01*
X025475Y015765D01*
X025463Y015782D01*
X025454Y015801D01*
X025449Y015821D01*
X025447Y015841D01*
X025449Y015861D01*
X025454Y015881D01*
X025463Y015900D01*
X025475Y015917D01*
X025489Y015931D01*
X025506Y015943D01*
X025525Y015952D01*
X025545Y015957D01*
X025565Y015959D01*
X029286Y015959D01*
X029285Y015958D02*
X029322Y015964D01*
X029358Y015974D01*
X029393Y015988D01*
X029426Y016005D01*
X029458Y016025D01*
X029486Y016049D01*
X029513Y016076D01*
X029536Y016105D01*
X029556Y016136D01*
X029573Y016170D01*
X029586Y016205D01*
X029596Y016241D01*
X029601Y016278D01*
X029603Y016315D01*
X029601Y016352D01*
X029601Y016353D02*
X029601Y025486D01*
X029595Y025523D01*
X029585Y025559D01*
X029571Y025594D01*
X029554Y025627D01*
X029534Y025659D01*
X029510Y025687D01*
X029483Y025714D01*
X029454Y025737D01*
X029423Y025757D01*
X029389Y025774D01*
X029354Y025787D01*
X029318Y025797D01*
X029281Y025802D01*
X029244Y025804D01*
X029207Y025802D01*
X028223Y024817D02*
X028225Y024861D01*
X028231Y024905D01*
X028241Y024948D01*
X028254Y024990D01*
X028272Y025030D01*
X028293Y025069D01*
X028317Y025106D01*
X028344Y025141D01*
X028375Y025173D01*
X028408Y025202D01*
X028444Y025228D01*
X028482Y025250D01*
X028522Y025269D01*
X028563Y025285D01*
X028606Y025297D01*
X028649Y025305D01*
X028693Y025309D01*
X028737Y025309D01*
X028781Y025305D01*
X028824Y025297D01*
X028867Y025285D01*
X028908Y025269D01*
X028948Y025250D01*
X028986Y025228D01*
X029022Y025202D01*
X029055Y025173D01*
X029086Y025141D01*
X029113Y025106D01*
X029137Y025069D01*
X029158Y025030D01*
X029176Y024990D01*
X029189Y024948D01*
X029199Y024905D01*
X029205Y024861D01*
X029207Y024817D01*
X029205Y024773D01*
X029199Y024729D01*
X029189Y024686D01*
X029176Y024644D01*
X029158Y024604D01*
X029137Y024565D01*
X029113Y024528D01*
X029086Y024493D01*
X029055Y024461D01*
X029022Y024432D01*
X028986Y024406D01*
X028948Y024384D01*
X028908Y024365D01*
X028867Y024349D01*
X028824Y024337D01*
X028781Y024329D01*
X028737Y024325D01*
X028693Y024325D01*
X028649Y024329D01*
X028606Y024337D01*
X028563Y024349D01*
X028522Y024365D01*
X028482Y024384D01*
X028444Y024406D01*
X028408Y024432D01*
X028375Y024461D01*
X028344Y024493D01*
X028317Y024528D01*
X028293Y024565D01*
X028272Y024604D01*
X028254Y024644D01*
X028241Y024686D01*
X028231Y024729D01*
X028225Y024773D01*
X028223Y024817D01*
X030388Y028715D02*
X030390Y028759D01*
X030396Y028803D01*
X030406Y028846D01*
X030419Y028888D01*
X030437Y028928D01*
X030458Y028967D01*
X030482Y029004D01*
X030509Y029039D01*
X030540Y029071D01*
X030573Y029100D01*
X030609Y029126D01*
X030647Y029148D01*
X030687Y029167D01*
X030728Y029183D01*
X030771Y029195D01*
X030814Y029203D01*
X030858Y029207D01*
X030902Y029207D01*
X030946Y029203D01*
X030989Y029195D01*
X031032Y029183D01*
X031073Y029167D01*
X031113Y029148D01*
X031151Y029126D01*
X031187Y029100D01*
X031220Y029071D01*
X031251Y029039D01*
X031278Y029004D01*
X031302Y028967D01*
X031323Y028928D01*
X031341Y028888D01*
X031354Y028846D01*
X031364Y028803D01*
X031370Y028759D01*
X031372Y028715D01*
X031370Y028671D01*
X031364Y028627D01*
X031354Y028584D01*
X031341Y028542D01*
X031323Y028502D01*
X031302Y028463D01*
X031278Y028426D01*
X031251Y028391D01*
X031220Y028359D01*
X031187Y028330D01*
X031151Y028304D01*
X031113Y028282D01*
X031073Y028263D01*
X031032Y028247D01*
X030989Y028235D01*
X030946Y028227D01*
X030902Y028223D01*
X030858Y028223D01*
X030814Y028227D01*
X030771Y028235D01*
X030728Y028247D01*
X030687Y028263D01*
X030647Y028282D01*
X030609Y028304D01*
X030573Y028330D01*
X030540Y028359D01*
X030509Y028391D01*
X030482Y028426D01*
X030458Y028463D01*
X030437Y028502D01*
X030419Y028542D01*
X030406Y028584D01*
X030396Y028627D01*
X030390Y028671D01*
X030388Y028715D01*
X028223Y034896D02*
X028225Y034940D01*
X028231Y034984D01*
X028241Y035027D01*
X028254Y035069D01*
X028272Y035109D01*
X028293Y035148D01*
X028317Y035185D01*
X028344Y035220D01*
X028375Y035252D01*
X028408Y035281D01*
X028444Y035307D01*
X028482Y035329D01*
X028522Y035348D01*
X028563Y035364D01*
X028606Y035376D01*
X028649Y035384D01*
X028693Y035388D01*
X028737Y035388D01*
X028781Y035384D01*
X028824Y035376D01*
X028867Y035364D01*
X028908Y035348D01*
X028948Y035329D01*
X028986Y035307D01*
X029022Y035281D01*
X029055Y035252D01*
X029086Y035220D01*
X029113Y035185D01*
X029137Y035148D01*
X029158Y035109D01*
X029176Y035069D01*
X029189Y035027D01*
X029199Y034984D01*
X029205Y034940D01*
X029207Y034896D01*
X029205Y034852D01*
X029199Y034808D01*
X029189Y034765D01*
X029176Y034723D01*
X029158Y034683D01*
X029137Y034644D01*
X029113Y034607D01*
X029086Y034572D01*
X029055Y034540D01*
X029022Y034511D01*
X028986Y034485D01*
X028948Y034463D01*
X028908Y034444D01*
X028867Y034428D01*
X028824Y034416D01*
X028781Y034408D01*
X028737Y034404D01*
X028693Y034404D01*
X028649Y034408D01*
X028606Y034416D01*
X028563Y034428D01*
X028522Y034444D01*
X028482Y034463D01*
X028444Y034485D01*
X028408Y034511D01*
X028375Y034540D01*
X028344Y034572D01*
X028317Y034607D01*
X028293Y034644D01*
X028272Y034683D01*
X028254Y034723D01*
X028241Y034765D01*
X028231Y034808D01*
X028225Y034852D01*
X028223Y034896D01*
X038262Y028715D02*
X038264Y028759D01*
X038270Y028803D01*
X038280Y028846D01*
X038293Y028888D01*
X038311Y028928D01*
X038332Y028967D01*
X038356Y029004D01*
X038383Y029039D01*
X038414Y029071D01*
X038447Y029100D01*
X038483Y029126D01*
X038521Y029148D01*
X038561Y029167D01*
X038602Y029183D01*
X038645Y029195D01*
X038688Y029203D01*
X038732Y029207D01*
X038776Y029207D01*
X038820Y029203D01*
X038863Y029195D01*
X038906Y029183D01*
X038947Y029167D01*
X038987Y029148D01*
X039025Y029126D01*
X039061Y029100D01*
X039094Y029071D01*
X039125Y029039D01*
X039152Y029004D01*
X039176Y028967D01*
X039197Y028928D01*
X039215Y028888D01*
X039228Y028846D01*
X039238Y028803D01*
X039244Y028759D01*
X039246Y028715D01*
X039244Y028671D01*
X039238Y028627D01*
X039228Y028584D01*
X039215Y028542D01*
X039197Y028502D01*
X039176Y028463D01*
X039152Y028426D01*
X039125Y028391D01*
X039094Y028359D01*
X039061Y028330D01*
X039025Y028304D01*
X038987Y028282D01*
X038947Y028263D01*
X038906Y028247D01*
X038863Y028235D01*
X038820Y028227D01*
X038776Y028223D01*
X038732Y028223D01*
X038688Y028227D01*
X038645Y028235D01*
X038602Y028247D01*
X038561Y028263D01*
X038521Y028282D01*
X038483Y028304D01*
X038447Y028330D01*
X038414Y028359D01*
X038383Y028391D01*
X038356Y028426D01*
X038332Y028463D01*
X038311Y028502D01*
X038293Y028542D01*
X038280Y028584D01*
X038270Y028627D01*
X038264Y028671D01*
X038262Y028715D01*
X028223Y016943D02*
X028225Y016987D01*
X028231Y017031D01*
X028241Y017074D01*
X028254Y017116D01*
X028272Y017156D01*
X028293Y017195D01*
X028317Y017232D01*
X028344Y017267D01*
X028375Y017299D01*
X028408Y017328D01*
X028444Y017354D01*
X028482Y017376D01*
X028522Y017395D01*
X028563Y017411D01*
X028606Y017423D01*
X028649Y017431D01*
X028693Y017435D01*
X028737Y017435D01*
X028781Y017431D01*
X028824Y017423D01*
X028867Y017411D01*
X028908Y017395D01*
X028948Y017376D01*
X028986Y017354D01*
X029022Y017328D01*
X029055Y017299D01*
X029086Y017267D01*
X029113Y017232D01*
X029137Y017195D01*
X029158Y017156D01*
X029176Y017116D01*
X029189Y017074D01*
X029199Y017031D01*
X029205Y016987D01*
X029207Y016943D01*
X029205Y016899D01*
X029199Y016855D01*
X029189Y016812D01*
X029176Y016770D01*
X029158Y016730D01*
X029137Y016691D01*
X029113Y016654D01*
X029086Y016619D01*
X029055Y016587D01*
X029022Y016558D01*
X028986Y016532D01*
X028948Y016510D01*
X028908Y016491D01*
X028867Y016475D01*
X028824Y016463D01*
X028781Y016455D01*
X028737Y016451D01*
X028693Y016451D01*
X028649Y016455D01*
X028606Y016463D01*
X028563Y016475D01*
X028522Y016491D01*
X028482Y016510D01*
X028444Y016532D01*
X028408Y016558D01*
X028375Y016587D01*
X028344Y016619D01*
X028317Y016654D01*
X028293Y016691D01*
X028272Y016730D01*
X028254Y016770D01*
X028241Y016812D01*
X028231Y016855D01*
X028225Y016899D01*
X028223Y016943D01*
X028223Y014738D02*
X028225Y014782D01*
X028231Y014826D01*
X028241Y014869D01*
X028254Y014911D01*
X028272Y014951D01*
X028293Y014990D01*
X028317Y015027D01*
X028344Y015062D01*
X028375Y015094D01*
X028408Y015123D01*
X028444Y015149D01*
X028482Y015171D01*
X028522Y015190D01*
X028563Y015206D01*
X028606Y015218D01*
X028649Y015226D01*
X028693Y015230D01*
X028737Y015230D01*
X028781Y015226D01*
X028824Y015218D01*
X028867Y015206D01*
X028908Y015190D01*
X028948Y015171D01*
X028986Y015149D01*
X029022Y015123D01*
X029055Y015094D01*
X029086Y015062D01*
X029113Y015027D01*
X029137Y014990D01*
X029158Y014951D01*
X029176Y014911D01*
X029189Y014869D01*
X029199Y014826D01*
X029205Y014782D01*
X029207Y014738D01*
X029205Y014694D01*
X029199Y014650D01*
X029189Y014607D01*
X029176Y014565D01*
X029158Y014525D01*
X029137Y014486D01*
X029113Y014449D01*
X029086Y014414D01*
X029055Y014382D01*
X029022Y014353D01*
X028986Y014327D01*
X028948Y014305D01*
X028908Y014286D01*
X028867Y014270D01*
X028824Y014258D01*
X028781Y014250D01*
X028737Y014246D01*
X028693Y014246D01*
X028649Y014250D01*
X028606Y014258D01*
X028563Y014270D01*
X028522Y014286D01*
X028482Y014305D01*
X028444Y014327D01*
X028408Y014353D01*
X028375Y014382D01*
X028344Y014414D01*
X028317Y014449D01*
X028293Y014486D01*
X028272Y014525D01*
X028254Y014565D01*
X028241Y014607D01*
X028231Y014650D01*
X028225Y014694D01*
X028223Y014738D01*
X032428Y007396D02*
X032430Y007421D01*
X032436Y007445D01*
X032445Y007467D01*
X032458Y007488D01*
X032474Y007507D01*
X032493Y007523D01*
X032514Y007536D01*
X032536Y007545D01*
X032560Y007551D01*
X032585Y007553D01*
X032610Y007551D01*
X032634Y007545D01*
X032656Y007536D01*
X032677Y007523D01*
X032696Y007507D01*
X032712Y007488D01*
X032725Y007467D01*
X032734Y007445D01*
X032740Y007421D01*
X032742Y007396D01*
X032740Y007371D01*
X032734Y007347D01*
X032725Y007325D01*
X032712Y007304D01*
X032696Y007285D01*
X032677Y007269D01*
X032656Y007256D01*
X032634Y007247D01*
X032610Y007241D01*
X032585Y007239D01*
X032560Y007241D01*
X032536Y007247D01*
X032514Y007256D01*
X032493Y007269D01*
X032474Y007285D01*
X032458Y007304D01*
X032445Y007325D01*
X032436Y007347D01*
X032430Y007371D01*
X032428Y007396D01*
X032428Y007238D02*
X032430Y007263D01*
X032436Y007287D01*
X032445Y007309D01*
X032458Y007330D01*
X032474Y007349D01*
X032493Y007365D01*
X032514Y007378D01*
X032536Y007387D01*
X032560Y007393D01*
X032585Y007395D01*
X032610Y007393D01*
X032634Y007387D01*
X032656Y007378D01*
X032677Y007365D01*
X032696Y007349D01*
X032712Y007330D01*
X032725Y007309D01*
X032734Y007287D01*
X032740Y007263D01*
X032742Y007238D01*
X032740Y007213D01*
X032734Y007189D01*
X032725Y007167D01*
X032712Y007146D01*
X032696Y007127D01*
X032677Y007111D01*
X032656Y007098D01*
X032634Y007089D01*
X032610Y007083D01*
X032585Y007081D01*
X032560Y007083D01*
X032536Y007089D01*
X032514Y007098D01*
X032493Y007111D01*
X032474Y007127D01*
X032458Y007146D01*
X032445Y007167D01*
X032436Y007189D01*
X032430Y007213D01*
X032428Y007238D01*
X032428Y006923D02*
X032430Y006948D01*
X032436Y006972D01*
X032445Y006994D01*
X032458Y007015D01*
X032474Y007034D01*
X032493Y007050D01*
X032514Y007063D01*
X032536Y007072D01*
X032560Y007078D01*
X032585Y007080D01*
X032610Y007078D01*
X032634Y007072D01*
X032656Y007063D01*
X032677Y007050D01*
X032696Y007034D01*
X032712Y007015D01*
X032725Y006994D01*
X032734Y006972D01*
X032740Y006948D01*
X032742Y006923D01*
X032740Y006898D01*
X032734Y006874D01*
X032725Y006852D01*
X032712Y006831D01*
X032696Y006812D01*
X032677Y006796D01*
X032656Y006783D01*
X032634Y006774D01*
X032610Y006768D01*
X032585Y006766D01*
X032560Y006768D01*
X032536Y006774D01*
X032514Y006783D01*
X032493Y006796D01*
X032474Y006812D01*
X032458Y006831D01*
X032445Y006852D01*
X032436Y006874D01*
X032430Y006898D01*
X032428Y006923D01*
X032428Y006766D02*
X032430Y006791D01*
X032436Y006815D01*
X032445Y006837D01*
X032458Y006858D01*
X032474Y006877D01*
X032493Y006893D01*
X032514Y006906D01*
X032536Y006915D01*
X032560Y006921D01*
X032585Y006923D01*
X032610Y006921D01*
X032634Y006915D01*
X032656Y006906D01*
X032677Y006893D01*
X032696Y006877D01*
X032712Y006858D01*
X032725Y006837D01*
X032734Y006815D01*
X032740Y006791D01*
X032742Y006766D01*
X032740Y006741D01*
X032734Y006717D01*
X032725Y006695D01*
X032712Y006674D01*
X032696Y006655D01*
X032677Y006639D01*
X032656Y006626D01*
X032634Y006617D01*
X032610Y006611D01*
X032585Y006609D01*
X032560Y006611D01*
X032536Y006617D01*
X032514Y006626D01*
X032493Y006639D01*
X032474Y006655D01*
X032458Y006674D01*
X032445Y006695D01*
X032436Y006717D01*
X032430Y006741D01*
X032428Y006766D01*
X030388Y006864D02*
X030390Y006908D01*
X030396Y006952D01*
X030406Y006995D01*
X030419Y007037D01*
X030437Y007077D01*
X030458Y007116D01*
X030482Y007153D01*
X030509Y007188D01*
X030540Y007220D01*
X030573Y007249D01*
X030609Y007275D01*
X030647Y007297D01*
X030687Y007316D01*
X030728Y007332D01*
X030771Y007344D01*
X030814Y007352D01*
X030858Y007356D01*
X030902Y007356D01*
X030946Y007352D01*
X030989Y007344D01*
X031032Y007332D01*
X031073Y007316D01*
X031113Y007297D01*
X031151Y007275D01*
X031187Y007249D01*
X031220Y007220D01*
X031251Y007188D01*
X031278Y007153D01*
X031302Y007116D01*
X031323Y007077D01*
X031341Y007037D01*
X031354Y006995D01*
X031364Y006952D01*
X031370Y006908D01*
X031372Y006864D01*
X031370Y006820D01*
X031364Y006776D01*
X031354Y006733D01*
X031341Y006691D01*
X031323Y006651D01*
X031302Y006612D01*
X031278Y006575D01*
X031251Y006540D01*
X031220Y006508D01*
X031187Y006479D01*
X031151Y006453D01*
X031113Y006431D01*
X031073Y006412D01*
X031032Y006396D01*
X030989Y006384D01*
X030946Y006376D01*
X030902Y006372D01*
X030858Y006372D01*
X030814Y006376D01*
X030771Y006384D01*
X030728Y006396D01*
X030687Y006412D01*
X030647Y006431D01*
X030609Y006453D01*
X030573Y006479D01*
X030540Y006508D01*
X030509Y006540D01*
X030482Y006575D01*
X030458Y006612D01*
X030437Y006651D01*
X030419Y006691D01*
X030406Y006733D01*
X030396Y006776D01*
X030390Y006820D01*
X030388Y006864D01*
X028223Y006864D02*
X028225Y006908D01*
X028231Y006952D01*
X028241Y006995D01*
X028254Y007037D01*
X028272Y007077D01*
X028293Y007116D01*
X028317Y007153D01*
X028344Y007188D01*
X028375Y007220D01*
X028408Y007249D01*
X028444Y007275D01*
X028482Y007297D01*
X028522Y007316D01*
X028563Y007332D01*
X028606Y007344D01*
X028649Y007352D01*
X028693Y007356D01*
X028737Y007356D01*
X028781Y007352D01*
X028824Y007344D01*
X028867Y007332D01*
X028908Y007316D01*
X028948Y007297D01*
X028986Y007275D01*
X029022Y007249D01*
X029055Y007220D01*
X029086Y007188D01*
X029113Y007153D01*
X029137Y007116D01*
X029158Y007077D01*
X029176Y007037D01*
X029189Y006995D01*
X029199Y006952D01*
X029205Y006908D01*
X029207Y006864D01*
X029205Y006820D01*
X029199Y006776D01*
X029189Y006733D01*
X029176Y006691D01*
X029158Y006651D01*
X029137Y006612D01*
X029113Y006575D01*
X029086Y006540D01*
X029055Y006508D01*
X029022Y006479D01*
X028986Y006453D01*
X028948Y006431D01*
X028908Y006412D01*
X028867Y006396D01*
X028824Y006384D01*
X028781Y006376D01*
X028737Y006372D01*
X028693Y006372D01*
X028649Y006376D01*
X028606Y006384D01*
X028563Y006396D01*
X028522Y006412D01*
X028482Y006431D01*
X028444Y006453D01*
X028408Y006479D01*
X028375Y006508D01*
X028344Y006540D01*
X028317Y006575D01*
X028293Y006612D01*
X028272Y006651D01*
X028254Y006691D01*
X028241Y006733D01*
X028231Y006776D01*
X028225Y006820D01*
X028223Y006864D01*
X037035Y006923D02*
X037037Y006948D01*
X037043Y006972D01*
X037052Y006994D01*
X037065Y007015D01*
X037081Y007034D01*
X037100Y007050D01*
X037121Y007063D01*
X037143Y007072D01*
X037167Y007078D01*
X037192Y007080D01*
X037217Y007078D01*
X037241Y007072D01*
X037263Y007063D01*
X037284Y007050D01*
X037303Y007034D01*
X037319Y007015D01*
X037332Y006994D01*
X037341Y006972D01*
X037347Y006948D01*
X037349Y006923D01*
X037347Y006898D01*
X037341Y006874D01*
X037332Y006852D01*
X037319Y006831D01*
X037303Y006812D01*
X037284Y006796D01*
X037263Y006783D01*
X037241Y006774D01*
X037217Y006768D01*
X037192Y006766D01*
X037167Y006768D01*
X037143Y006774D01*
X037121Y006783D01*
X037100Y006796D01*
X037081Y006812D01*
X037065Y006831D01*
X037052Y006852D01*
X037043Y006874D01*
X037037Y006898D01*
X037035Y006923D01*
X037035Y006766D02*
X037037Y006791D01*
X037043Y006815D01*
X037052Y006837D01*
X037065Y006858D01*
X037081Y006877D01*
X037100Y006893D01*
X037121Y006906D01*
X037143Y006915D01*
X037167Y006921D01*
X037192Y006923D01*
X037217Y006921D01*
X037241Y006915D01*
X037263Y006906D01*
X037284Y006893D01*
X037303Y006877D01*
X037319Y006858D01*
X037332Y006837D01*
X037341Y006815D01*
X037347Y006791D01*
X037349Y006766D01*
X037347Y006741D01*
X037341Y006717D01*
X037332Y006695D01*
X037319Y006674D01*
X037303Y006655D01*
X037284Y006639D01*
X037263Y006626D01*
X037241Y006617D01*
X037217Y006611D01*
X037192Y006609D01*
X037167Y006611D01*
X037143Y006617D01*
X037121Y006626D01*
X037100Y006639D01*
X037081Y006655D01*
X037065Y006674D01*
X037052Y006695D01*
X037043Y006717D01*
X037037Y006741D01*
X037035Y006766D01*
X037035Y007238D02*
X037037Y007263D01*
X037043Y007287D01*
X037052Y007309D01*
X037065Y007330D01*
X037081Y007349D01*
X037100Y007365D01*
X037121Y007378D01*
X037143Y007387D01*
X037167Y007393D01*
X037192Y007395D01*
X037217Y007393D01*
X037241Y007387D01*
X037263Y007378D01*
X037284Y007365D01*
X037303Y007349D01*
X037319Y007330D01*
X037332Y007309D01*
X037341Y007287D01*
X037347Y007263D01*
X037349Y007238D01*
X037347Y007213D01*
X037341Y007189D01*
X037332Y007167D01*
X037319Y007146D01*
X037303Y007127D01*
X037284Y007111D01*
X037263Y007098D01*
X037241Y007089D01*
X037217Y007083D01*
X037192Y007081D01*
X037167Y007083D01*
X037143Y007089D01*
X037121Y007098D01*
X037100Y007111D01*
X037081Y007127D01*
X037065Y007146D01*
X037052Y007167D01*
X037043Y007189D01*
X037037Y007213D01*
X037035Y007238D01*
X037035Y007396D02*
X037037Y007421D01*
X037043Y007445D01*
X037052Y007467D01*
X037065Y007488D01*
X037081Y007507D01*
X037100Y007523D01*
X037121Y007536D01*
X037143Y007545D01*
X037167Y007551D01*
X037192Y007553D01*
X037217Y007551D01*
X037241Y007545D01*
X037263Y007536D01*
X037284Y007523D01*
X037303Y007507D01*
X037319Y007488D01*
X037332Y007467D01*
X037341Y007445D01*
X037347Y007421D01*
X037349Y007396D01*
X037347Y007371D01*
X037341Y007347D01*
X037332Y007325D01*
X037319Y007304D01*
X037303Y007285D01*
X037284Y007269D01*
X037263Y007256D01*
X037241Y007247D01*
X037217Y007241D01*
X037192Y007239D01*
X037167Y007241D01*
X037143Y007247D01*
X037121Y007256D01*
X037100Y007269D01*
X037081Y007285D01*
X037065Y007304D01*
X037052Y007325D01*
X037043Y007347D01*
X037037Y007371D01*
X037035Y007396D01*
X038262Y006864D02*
X038264Y006908D01*
X038270Y006952D01*
X038280Y006995D01*
X038293Y007037D01*
X038311Y007077D01*
X038332Y007116D01*
X038356Y007153D01*
X038383Y007188D01*
X038414Y007220D01*
X038447Y007249D01*
X038483Y007275D01*
X038521Y007297D01*
X038561Y007316D01*
X038602Y007332D01*
X038645Y007344D01*
X038688Y007352D01*
X038732Y007356D01*
X038776Y007356D01*
X038820Y007352D01*
X038863Y007344D01*
X038906Y007332D01*
X038947Y007316D01*
X038987Y007297D01*
X039025Y007275D01*
X039061Y007249D01*
X039094Y007220D01*
X039125Y007188D01*
X039152Y007153D01*
X039176Y007116D01*
X039197Y007077D01*
X039215Y007037D01*
X039228Y006995D01*
X039238Y006952D01*
X039244Y006908D01*
X039246Y006864D01*
X039244Y006820D01*
X039238Y006776D01*
X039228Y006733D01*
X039215Y006691D01*
X039197Y006651D01*
X039176Y006612D01*
X039152Y006575D01*
X039125Y006540D01*
X039094Y006508D01*
X039061Y006479D01*
X039025Y006453D01*
X038987Y006431D01*
X038947Y006412D01*
X038906Y006396D01*
X038863Y006384D01*
X038820Y006376D01*
X038776Y006372D01*
X038732Y006372D01*
X038688Y006376D01*
X038645Y006384D01*
X038602Y006396D01*
X038561Y006412D01*
X038521Y006431D01*
X038483Y006453D01*
X038447Y006479D01*
X038414Y006508D01*
X038383Y006540D01*
X038356Y006575D01*
X038332Y006612D01*
X038311Y006651D01*
X038293Y006691D01*
X038280Y006733D01*
X038270Y006776D01*
X038264Y006820D01*
X038262Y006864D01*
D11*
X033724Y008806D02*
X033627Y008903D01*
X033724Y008999D01*
X033433Y008999D01*
X033433Y009101D02*
X033433Y009294D01*
X033433Y009197D02*
X033724Y009197D01*
X033627Y009101D01*
X033724Y008806D02*
X033433Y008806D01*
X026604Y007365D02*
X026604Y007075D01*
X026459Y007075D01*
X026411Y007124D01*
X026411Y007317D01*
X026459Y007365D01*
X026604Y007365D01*
X026310Y007317D02*
X026261Y007365D01*
X026165Y007365D01*
X026116Y007317D01*
X026116Y007269D01*
X026310Y007075D01*
X026116Y007075D01*
X024495Y009561D02*
X024205Y009561D01*
X024302Y009561D02*
X024302Y009706D01*
X024350Y009754D01*
X024447Y009754D01*
X024495Y009706D01*
X024495Y009561D01*
X024302Y009658D02*
X024205Y009754D01*
X024205Y009855D02*
X024399Y009855D01*
X024495Y009952D01*
X024399Y010049D01*
X024205Y010049D01*
X024205Y010150D02*
X024205Y010295D01*
X024254Y010344D01*
X024447Y010344D01*
X024495Y010295D01*
X024495Y010150D01*
X024205Y010150D01*
X024350Y010049D02*
X024350Y009855D01*
X024865Y009915D02*
X025155Y009915D01*
X025155Y010060D01*
X025107Y010109D01*
X025010Y010109D01*
X024962Y010060D01*
X024962Y009915D01*
X024962Y010012D02*
X024865Y010109D01*
X024865Y010210D02*
X025059Y010210D01*
X025155Y010307D01*
X025059Y010403D01*
X024865Y010403D01*
X024865Y010504D02*
X024865Y010650D01*
X024914Y010698D01*
X025107Y010698D01*
X025155Y010650D01*
X025155Y010504D01*
X024865Y010504D01*
X025010Y010403D02*
X025010Y010210D01*
X024495Y010445D02*
X024495Y010542D01*
X024495Y010493D02*
X024205Y010493D01*
X024205Y010445D02*
X024205Y010542D01*
X024254Y010641D02*
X024205Y010690D01*
X024205Y010786D01*
X024254Y010835D01*
X024447Y010835D01*
X024495Y010786D01*
X024495Y010690D01*
X024447Y010641D01*
X024254Y010641D01*
X024205Y010936D02*
X024205Y011129D01*
X024205Y011033D02*
X024495Y011033D01*
X024399Y010936D01*
X024399Y011231D02*
X024205Y011231D01*
X024350Y011231D02*
X024350Y011424D01*
X024399Y011424D02*
X024205Y011424D01*
X024399Y011424D02*
X024495Y011327D01*
X024399Y011231D01*
X024865Y011290D02*
X024865Y011484D01*
X024865Y011387D02*
X025155Y011387D01*
X025059Y011290D01*
X025107Y011189D02*
X025155Y011141D01*
X025155Y011044D01*
X025107Y010996D01*
X024914Y010996D01*
X024865Y011044D01*
X024865Y011141D01*
X024914Y011189D01*
X025107Y011189D01*
X025155Y010896D02*
X025155Y010799D01*
X025155Y010847D02*
X024865Y010847D01*
X024865Y010799D02*
X024865Y010896D01*
X024865Y011585D02*
X024865Y011730D01*
X024914Y011778D01*
X024962Y011778D01*
X025010Y011730D01*
X025010Y011585D01*
X024865Y011585D02*
X025155Y011585D01*
X025155Y011730D01*
X025107Y011778D01*
X025059Y011778D01*
X025010Y011730D01*
X023815Y014795D02*
X023815Y015085D01*
X023670Y015085D01*
X023622Y015037D01*
X023622Y014940D01*
X023670Y014892D01*
X023815Y014892D01*
X023718Y014892D02*
X023622Y014795D01*
X023521Y014795D02*
X023327Y014989D01*
X023327Y015037D01*
X023375Y015085D01*
X023472Y015085D01*
X023521Y015037D01*
X023521Y014795D02*
X023327Y014795D01*
X022854Y017154D02*
X022709Y017154D01*
X022661Y017202D01*
X022661Y017396D01*
X022709Y017444D01*
X022854Y017444D01*
X022854Y017154D01*
X022560Y017154D02*
X022366Y017154D01*
X022463Y017154D02*
X022463Y017444D01*
X022560Y017347D01*
X024205Y019640D02*
X024495Y019640D01*
X024495Y019785D01*
X024447Y019833D01*
X024350Y019833D01*
X024302Y019785D01*
X024302Y019640D01*
X024302Y019736D02*
X024205Y019833D01*
X024205Y019934D02*
X024399Y019934D01*
X024495Y020031D01*
X024399Y020128D01*
X024205Y020128D01*
X024205Y020229D02*
X024205Y020374D01*
X024254Y020422D01*
X024447Y020422D01*
X024495Y020374D01*
X024495Y020229D01*
X024205Y020229D01*
X024350Y020128D02*
X024350Y019934D01*
X024205Y020524D02*
X024205Y020620D01*
X024205Y020572D02*
X024495Y020572D01*
X024495Y020524D02*
X024495Y020620D01*
X024447Y020720D02*
X024254Y020720D01*
X024205Y020768D01*
X024205Y020865D01*
X024254Y020913D01*
X024447Y020913D01*
X024495Y020865D01*
X024495Y020768D01*
X024447Y020720D01*
X024399Y021015D02*
X024495Y021111D01*
X024205Y021111D01*
X024205Y021015D02*
X024205Y021208D01*
X024205Y021309D02*
X024399Y021309D01*
X024495Y021406D01*
X024399Y021503D01*
X024205Y021503D01*
X024350Y021503D02*
X024350Y021309D01*
X024865Y021369D02*
X024865Y021562D01*
X024865Y021466D02*
X025155Y021466D01*
X025059Y021369D01*
X025107Y021268D02*
X025155Y021219D01*
X025155Y021123D01*
X025107Y021074D01*
X024914Y021074D01*
X024865Y021123D01*
X024865Y021219D01*
X024914Y021268D01*
X025107Y021268D01*
X025155Y020975D02*
X025155Y020878D01*
X025155Y020926D02*
X024865Y020926D01*
X024865Y020878D02*
X024865Y020975D01*
X024914Y020777D02*
X025107Y020777D01*
X025155Y020728D01*
X025155Y020583D01*
X024865Y020583D01*
X024865Y020728D01*
X024914Y020777D01*
X024865Y020482D02*
X025059Y020482D01*
X025155Y020385D01*
X025059Y020289D01*
X024865Y020289D01*
X024865Y020187D02*
X024962Y020091D01*
X024962Y020139D02*
X024962Y019994D01*
X024865Y019994D02*
X025155Y019994D01*
X025155Y020139D01*
X025107Y020187D01*
X025010Y020187D01*
X024962Y020139D01*
X025010Y020289D02*
X025010Y020482D01*
X025010Y021664D02*
X025010Y021809D01*
X024962Y021857D01*
X024914Y021857D01*
X024865Y021809D01*
X024865Y021664D01*
X025155Y021664D01*
X025155Y021809D01*
X025107Y021857D01*
X025059Y021857D01*
X025010Y021809D01*
X023815Y024874D02*
X023815Y025164D01*
X023670Y025164D01*
X023622Y025116D01*
X023622Y025019D01*
X023670Y024971D01*
X023815Y024971D01*
X023718Y024971D02*
X023622Y024874D01*
X023521Y024874D02*
X023327Y025067D01*
X023327Y025116D01*
X023375Y025164D01*
X023472Y025164D01*
X023521Y025116D01*
X023521Y024874D02*
X023327Y024874D01*
X022854Y027233D02*
X022709Y027233D01*
X022661Y027281D01*
X022661Y027475D01*
X022709Y027523D01*
X022854Y027523D01*
X022854Y027233D01*
X022560Y027233D02*
X022366Y027233D01*
X022463Y027233D02*
X022463Y027523D01*
X022560Y027426D01*
X024205Y029718D02*
X024495Y029718D01*
X024495Y029863D01*
X024447Y029912D01*
X024350Y029912D01*
X024302Y029863D01*
X024302Y029718D01*
X024302Y029815D02*
X024205Y029912D01*
X024205Y030013D02*
X024399Y030013D01*
X024495Y030110D01*
X024399Y030206D01*
X024205Y030206D01*
X024205Y030308D02*
X024205Y030453D01*
X024254Y030501D01*
X024447Y030501D01*
X024495Y030453D01*
X024495Y030308D01*
X024205Y030308D01*
X024350Y030206D02*
X024350Y030013D01*
X024865Y030073D02*
X025155Y030073D01*
X025155Y030218D01*
X025107Y030266D01*
X025010Y030266D01*
X024962Y030218D01*
X024962Y030073D01*
X024962Y030169D02*
X024865Y030266D01*
X024865Y030367D02*
X025059Y030367D01*
X025155Y030464D01*
X025059Y030561D01*
X024865Y030561D01*
X024865Y030662D02*
X024865Y030807D01*
X024914Y030855D01*
X025107Y030855D01*
X025155Y030807D01*
X025155Y030662D01*
X024865Y030662D01*
X025010Y030561D02*
X025010Y030367D01*
X024495Y030602D02*
X024495Y030699D01*
X024495Y030651D02*
X024205Y030651D01*
X024205Y030699D02*
X024205Y030602D01*
X024254Y030799D02*
X024205Y030847D01*
X024205Y030944D01*
X024254Y030992D01*
X024447Y030992D01*
X024495Y030944D01*
X024495Y030847D01*
X024447Y030799D01*
X024254Y030799D01*
X024205Y031093D02*
X024205Y031287D01*
X024205Y031190D02*
X024495Y031190D01*
X024399Y031093D01*
X024399Y031388D02*
X024205Y031388D01*
X024350Y031388D02*
X024350Y031581D01*
X024399Y031581D02*
X024205Y031581D01*
X024399Y031581D02*
X024495Y031485D01*
X024399Y031388D01*
X024865Y031448D02*
X024865Y031641D01*
X024865Y031544D02*
X025155Y031544D01*
X025059Y031448D01*
X025107Y031347D02*
X025155Y031298D01*
X025155Y031201D01*
X025107Y031153D01*
X024914Y031153D01*
X024865Y031201D01*
X024865Y031298D01*
X024914Y031347D01*
X025107Y031347D01*
X025155Y031053D02*
X025155Y030957D01*
X025155Y031005D02*
X024865Y031005D01*
X024865Y030957D02*
X024865Y031053D01*
X024865Y031742D02*
X024865Y031887D01*
X024914Y031936D01*
X024962Y031936D01*
X025010Y031887D01*
X025010Y031742D01*
X024865Y031742D02*
X025155Y031742D01*
X025155Y031887D01*
X025107Y031936D01*
X025059Y031936D01*
X025010Y031887D01*
X023815Y034953D02*
X023815Y035243D01*
X023670Y035243D01*
X023622Y035195D01*
X023622Y035098D01*
X023670Y035049D01*
X023815Y035049D01*
X023718Y035049D02*
X023622Y034953D01*
X023521Y034953D02*
X023327Y035146D01*
X023327Y035195D01*
X023375Y035243D01*
X023472Y035243D01*
X023521Y035195D01*
X023521Y034953D02*
X023327Y034953D01*
X020504Y034023D02*
X020311Y034023D01*
X020408Y034023D02*
X020408Y033733D01*
X020210Y033733D02*
X020016Y033733D01*
X020113Y033733D02*
X020113Y034023D01*
X020210Y033926D01*
X019875Y032901D02*
X019875Y032708D01*
X019875Y032805D02*
X020165Y032805D01*
X020069Y032708D01*
X020117Y032607D02*
X020020Y032607D01*
X019972Y032558D01*
X019972Y032413D01*
X019875Y032413D02*
X020165Y032413D01*
X020165Y032558D01*
X020117Y032607D01*
X019972Y032510D02*
X019875Y032607D01*
X016965Y029895D02*
X016965Y029846D01*
X016917Y029798D01*
X016820Y029798D01*
X016772Y029749D01*
X016772Y029701D01*
X016820Y029653D01*
X016917Y029653D01*
X016965Y029701D01*
X016965Y029895D02*
X016917Y029943D01*
X016820Y029943D01*
X016772Y029895D01*
X016574Y029943D02*
X016477Y029943D01*
X016525Y029943D02*
X016525Y029701D01*
X016574Y029653D01*
X016622Y029653D01*
X016671Y029701D01*
X016376Y029798D02*
X016182Y029798D01*
X016231Y029943D02*
X016376Y029798D01*
X016231Y029653D02*
X016231Y029943D01*
X019650Y028226D02*
X019650Y028033D01*
X019650Y028130D02*
X019940Y028130D01*
X019844Y028033D01*
X019940Y027932D02*
X019940Y027738D01*
X019650Y027738D01*
X019795Y027738D02*
X019795Y027835D01*
X019795Y027637D02*
X019747Y027589D01*
X019747Y027444D01*
X019650Y027444D02*
X019940Y027444D01*
X019940Y027589D01*
X019892Y027637D01*
X019795Y027637D01*
X020113Y023944D02*
X020113Y023654D01*
X020210Y023654D02*
X020016Y023654D01*
X020210Y023847D02*
X020113Y023944D01*
X020311Y023944D02*
X020504Y023944D01*
X020408Y023944D02*
X020408Y023654D01*
X020165Y022726D02*
X019875Y022726D01*
X019875Y022629D02*
X019875Y022823D01*
X020069Y022629D02*
X020165Y022726D01*
X020117Y022528D02*
X020020Y022528D01*
X019972Y022480D01*
X019972Y022335D01*
X019972Y022431D02*
X019875Y022528D01*
X019875Y022335D02*
X020165Y022335D01*
X020165Y022480D01*
X020117Y022528D01*
X016965Y019816D02*
X016965Y019767D01*
X016917Y019719D01*
X016820Y019719D01*
X016772Y019671D01*
X016772Y019622D01*
X016820Y019574D01*
X016917Y019574D01*
X016965Y019622D01*
X016965Y019816D02*
X016917Y019864D01*
X016820Y019864D01*
X016772Y019816D01*
X016574Y019864D02*
X016477Y019864D01*
X016525Y019864D02*
X016525Y019622D01*
X016574Y019574D01*
X016622Y019574D01*
X016671Y019622D01*
X016376Y019719D02*
X016182Y019719D01*
X016231Y019574D02*
X016231Y019864D01*
X016376Y019719D01*
X019650Y018148D02*
X019650Y017954D01*
X019650Y018051D02*
X019940Y018051D01*
X019844Y017954D01*
X019940Y017853D02*
X019940Y017660D01*
X019650Y017660D01*
X019795Y017660D02*
X019795Y017756D01*
X019795Y017558D02*
X019747Y017510D01*
X019747Y017365D01*
X019650Y017365D02*
X019940Y017365D01*
X019940Y017510D01*
X019892Y017558D01*
X019795Y017558D01*
X020113Y013865D02*
X020113Y013575D01*
X020210Y013575D02*
X020016Y013575D01*
X020210Y013769D02*
X020113Y013865D01*
X020311Y013865D02*
X020504Y013865D01*
X020408Y013865D02*
X020408Y013575D01*
X020165Y012647D02*
X019875Y012647D01*
X019875Y012551D02*
X019875Y012744D01*
X020069Y012551D02*
X020165Y012647D01*
X020117Y012449D02*
X020020Y012449D01*
X019972Y012401D01*
X019972Y012256D01*
X019972Y012353D02*
X019875Y012449D01*
X019875Y012256D02*
X020165Y012256D01*
X020165Y012401D01*
X020117Y012449D01*
X016965Y009737D02*
X016965Y009689D01*
X016917Y009640D01*
X016820Y009640D01*
X016772Y009592D01*
X016772Y009544D01*
X016820Y009495D01*
X016917Y009495D01*
X016965Y009544D01*
X016965Y009737D02*
X016917Y009785D01*
X016820Y009785D01*
X016772Y009737D01*
X016574Y009785D02*
X016477Y009785D01*
X016525Y009785D02*
X016525Y009544D01*
X016574Y009495D01*
X016622Y009495D01*
X016671Y009544D01*
X016376Y009640D02*
X016182Y009640D01*
X016231Y009495D02*
X016231Y009785D01*
X016376Y009640D01*
X019650Y008069D02*
X019650Y007876D01*
X019650Y007972D02*
X019940Y007972D01*
X019844Y007876D01*
X019940Y007774D02*
X019940Y007581D01*
X019650Y007581D01*
X019795Y007581D02*
X019795Y007678D01*
X019795Y007480D02*
X019747Y007431D01*
X019747Y007286D01*
X019650Y007286D02*
X019940Y007286D01*
X019940Y007431D01*
X019892Y007480D01*
X019795Y007480D01*
X022366Y007075D02*
X022560Y007075D01*
X022463Y007075D02*
X022463Y007365D01*
X022560Y007269D01*
X022661Y007317D02*
X022709Y007365D01*
X022854Y007365D01*
X022854Y007075D01*
X022709Y007075D01*
X022661Y007124D01*
X022661Y007317D01*
X026116Y017154D02*
X026310Y017154D01*
X026116Y017347D01*
X026116Y017396D01*
X026165Y017444D01*
X026261Y017444D01*
X026310Y017396D01*
X026411Y017396D02*
X026459Y017444D01*
X026604Y017444D01*
X026604Y017154D01*
X026459Y017154D01*
X026411Y017202D01*
X026411Y017396D01*
X031753Y020042D02*
X032044Y020042D01*
X032044Y019945D02*
X032044Y020139D01*
X031947Y020240D02*
X032044Y020337D01*
X031753Y020337D01*
X031753Y020433D02*
X031753Y020240D01*
X032875Y019875D02*
X033068Y019875D01*
X032971Y019875D02*
X032971Y020165D01*
X033068Y020069D01*
X033169Y020117D02*
X033169Y020020D01*
X033218Y019972D01*
X033363Y019972D01*
X033363Y019875D02*
X033363Y020165D01*
X033218Y020165D01*
X033169Y020117D01*
X033266Y019972D02*
X033169Y019875D01*
X035833Y016846D02*
X036124Y016846D01*
X035979Y016701D01*
X035979Y016894D01*
X036124Y016599D02*
X036124Y016503D01*
X036124Y016551D02*
X035882Y016551D01*
X035833Y016503D01*
X035833Y016454D01*
X035882Y016406D01*
X035882Y016305D02*
X035833Y016256D01*
X035833Y016160D01*
X035882Y016111D01*
X035979Y016160D02*
X035979Y016256D01*
X035930Y016305D01*
X035882Y016305D01*
X035979Y016160D02*
X036027Y016111D01*
X036075Y016111D01*
X036124Y016160D01*
X036124Y016256D01*
X036075Y016305D01*
X037550Y019650D02*
X037743Y019650D01*
X037646Y019650D02*
X037646Y019940D01*
X037743Y019844D01*
X037844Y019940D02*
X038038Y019940D01*
X038038Y019650D01*
X038038Y019795D02*
X037941Y019795D01*
X038139Y019795D02*
X038139Y019892D01*
X038187Y019940D01*
X038332Y019940D01*
X038332Y019650D01*
X038332Y019747D02*
X038187Y019747D01*
X038139Y019795D01*
X038253Y022295D02*
X038253Y022440D01*
X038302Y022489D01*
X038495Y022489D01*
X038544Y022440D01*
X038544Y022295D01*
X038253Y022295D01*
X038253Y022590D02*
X038253Y022783D01*
X038253Y022687D02*
X038544Y022687D01*
X038447Y022590D01*
X036058Y024205D02*
X036058Y024495D01*
X035913Y024495D01*
X035864Y024447D01*
X035864Y024350D01*
X035913Y024302D01*
X036058Y024302D01*
X035961Y024302D02*
X035864Y024205D01*
X035763Y024205D02*
X035763Y024399D01*
X035666Y024495D01*
X035570Y024399D01*
X035570Y024205D01*
X035468Y024205D02*
X035468Y024495D01*
X035323Y024495D01*
X035275Y024447D01*
X035275Y024254D01*
X035323Y024205D01*
X035468Y024205D01*
X035570Y024350D02*
X035763Y024350D01*
X035174Y024205D02*
X035077Y024205D01*
X035125Y024205D02*
X035125Y024495D01*
X035077Y024495D02*
X035174Y024495D01*
X034977Y024447D02*
X034977Y024254D01*
X034929Y024205D01*
X034832Y024205D01*
X034784Y024254D01*
X034784Y024447D01*
X034832Y024495D01*
X034929Y024495D01*
X034977Y024447D01*
X034683Y024399D02*
X034586Y024495D01*
X034586Y024205D01*
X034683Y024205D02*
X034489Y024205D01*
X034388Y024205D02*
X034388Y024399D01*
X034291Y024495D01*
X034195Y024399D01*
X034195Y024205D01*
X034195Y024350D02*
X034388Y024350D01*
X034328Y024865D02*
X034135Y024865D01*
X034232Y024865D02*
X034232Y025155D01*
X034328Y025059D01*
X034430Y025107D02*
X034478Y025155D01*
X034575Y025155D01*
X034623Y025107D01*
X034623Y024914D01*
X034575Y024865D01*
X034478Y024865D01*
X034430Y024914D01*
X034430Y025107D01*
X034723Y025155D02*
X034819Y025155D01*
X034771Y025155D02*
X034771Y024865D01*
X034819Y024865D02*
X034723Y024865D01*
X034921Y024914D02*
X034921Y025107D01*
X034969Y025155D01*
X035114Y025155D01*
X035114Y024865D01*
X034969Y024865D01*
X034921Y024914D01*
X035215Y024865D02*
X035215Y025059D01*
X035312Y025155D01*
X035409Y025059D01*
X035409Y024865D01*
X035510Y024865D02*
X035607Y024962D01*
X035558Y024962D02*
X035703Y024962D01*
X035703Y024865D02*
X035703Y025155D01*
X035558Y025155D01*
X035510Y025107D01*
X035510Y025010D01*
X035558Y024962D01*
X035409Y025010D02*
X035215Y025010D01*
X034034Y025010D02*
X033889Y025010D01*
X033840Y024962D01*
X033840Y024914D01*
X033889Y024865D01*
X034034Y024865D01*
X034034Y025155D01*
X033889Y025155D01*
X033840Y025107D01*
X033840Y025059D01*
X033889Y025010D01*
X030824Y023696D02*
X030824Y023599D01*
X030775Y023551D01*
X030775Y023449D02*
X030679Y023449D01*
X030630Y023401D01*
X030630Y023256D01*
X030533Y023256D02*
X030824Y023256D01*
X030824Y023401D01*
X030775Y023449D01*
X030630Y023353D02*
X030533Y023449D01*
X030533Y023551D02*
X030727Y023744D01*
X030775Y023744D01*
X030824Y023696D01*
X030533Y023744D02*
X030533Y023551D01*
X026604Y027233D02*
X026459Y027233D01*
X026411Y027281D01*
X026411Y027475D01*
X026459Y027523D01*
X026604Y027523D01*
X026604Y027233D01*
X026310Y027233D02*
X026116Y027426D01*
X026116Y027475D01*
X026165Y027523D01*
X026261Y027523D01*
X026310Y027475D01*
X026310Y027233D02*
X026116Y027233D01*
X038253Y026533D02*
X038253Y026340D01*
X038447Y026533D01*
X038495Y026533D01*
X038544Y026485D01*
X038544Y026388D01*
X038495Y026340D01*
X038495Y026239D02*
X038544Y026190D01*
X038544Y026045D01*
X038253Y026045D01*
X038253Y026190D01*
X038302Y026239D01*
X038495Y026239D01*
X009365Y022264D02*
X009365Y021974D01*
X009172Y021974D02*
X009172Y022264D01*
X009268Y022167D01*
X009365Y022264D01*
X009071Y022167D02*
X008974Y022264D01*
X008974Y021974D01*
X009071Y021974D02*
X008877Y021974D01*
X008974Y012185D02*
X008974Y011895D01*
X009071Y011895D02*
X008877Y011895D01*
X009071Y012089D02*
X008974Y012185D01*
X009172Y012185D02*
X009172Y011895D01*
X009365Y011895D02*
X009365Y012185D01*
X009268Y012089D01*
X009172Y012185D01*
X009172Y032053D02*
X009172Y032343D01*
X009268Y032246D01*
X009365Y032343D01*
X009365Y032053D01*
X009071Y032053D02*
X008877Y032053D01*
X008974Y032053D02*
X008974Y032343D01*
X009071Y032246D01*
D12*
X010585Y030448D02*
X010585Y030268D01*
X010765Y030448D01*
X010810Y030448D01*
X010855Y030403D01*
X010855Y030313D01*
X010810Y030268D01*
X010810Y030153D02*
X010855Y030108D01*
X010855Y030018D01*
X010810Y029973D01*
X010630Y029973D01*
X010585Y030018D01*
X010585Y030108D01*
X010630Y030153D01*
X010585Y029867D02*
X010585Y029777D01*
X010585Y029822D02*
X010855Y029822D01*
X010855Y029777D02*
X010855Y029867D01*
X010765Y020369D02*
X010810Y020369D01*
X010855Y020324D01*
X010855Y020234D01*
X010810Y020189D01*
X010810Y020075D02*
X010855Y020030D01*
X010855Y019940D01*
X010810Y019895D01*
X010630Y019895D01*
X010585Y019940D01*
X010585Y020030D01*
X010630Y020075D01*
X010585Y020189D02*
X010765Y020369D01*
X010585Y020369D02*
X010585Y020189D01*
X010585Y019788D02*
X010585Y019698D01*
X010585Y019743D02*
X010855Y019743D01*
X010855Y019698D02*
X010855Y019788D01*
X010765Y010291D02*
X010810Y010291D01*
X010855Y010246D01*
X010855Y010156D01*
X010810Y010111D01*
X010810Y009996D02*
X010855Y009951D01*
X010855Y009861D01*
X010810Y009816D01*
X010630Y009816D01*
X010585Y009861D01*
X010585Y009951D01*
X010630Y009996D01*
X010585Y010111D02*
X010765Y010291D01*
X010585Y010291D02*
X010585Y010111D01*
X010585Y009709D02*
X010585Y009619D01*
X010585Y009664D02*
X010855Y009664D01*
X010855Y009619D02*
X010855Y009709D01*
X022155Y006630D02*
X022341Y006630D01*
X022341Y006355D01*
X022616Y006630D01*
X022341Y006906D01*
X022341Y006630D01*
X022616Y006630D02*
X022616Y006355D01*
X022616Y006630D02*
X022616Y006906D01*
X023395Y006040D02*
X023397Y006058D01*
X023403Y006076D01*
X023412Y006092D01*
X023424Y006105D01*
X023439Y006116D01*
X023456Y006124D01*
X023474Y006128D01*
X023492Y006128D01*
X023510Y006124D01*
X023527Y006116D01*
X023542Y006105D01*
X023554Y006092D01*
X023563Y006076D01*
X023569Y006058D01*
X023571Y006040D01*
X023569Y006022D01*
X023563Y006004D01*
X023554Y005988D01*
X023542Y005975D01*
X023527Y005964D01*
X023510Y005956D01*
X023492Y005952D01*
X023474Y005952D01*
X023456Y005956D01*
X023439Y005964D01*
X023424Y005975D01*
X023412Y005988D01*
X023403Y006004D01*
X023397Y006022D01*
X023395Y006040D01*
X025905Y006630D02*
X026091Y006630D01*
X026091Y006355D01*
X026366Y006630D01*
X026091Y006906D01*
X026091Y006630D01*
X026366Y006630D02*
X026366Y006355D01*
X026366Y006630D02*
X026366Y006906D01*
X027145Y006040D02*
X027147Y006058D01*
X027153Y006076D01*
X027162Y006092D01*
X027174Y006105D01*
X027189Y006116D01*
X027206Y006124D01*
X027224Y006128D01*
X027242Y006128D01*
X027260Y006124D01*
X027277Y006116D01*
X027292Y006105D01*
X027304Y006092D01*
X027313Y006076D01*
X027319Y006058D01*
X027321Y006040D01*
X027319Y006022D01*
X027313Y006004D01*
X027304Y005988D01*
X027292Y005975D01*
X027277Y005964D01*
X027260Y005956D01*
X027242Y005952D01*
X027224Y005952D01*
X027206Y005956D01*
X027189Y005964D01*
X027174Y005975D01*
X027162Y005988D01*
X027153Y006004D01*
X027147Y006022D01*
X027145Y006040D01*
X035328Y010585D02*
X035508Y010585D01*
X035328Y010765D01*
X035328Y010810D01*
X035373Y010855D01*
X035463Y010855D01*
X035508Y010810D01*
X035623Y010810D02*
X035668Y010855D01*
X035758Y010855D01*
X035803Y010810D01*
X035803Y010630D01*
X035758Y010585D01*
X035668Y010585D01*
X035623Y010630D01*
X035909Y010585D02*
X035999Y010585D01*
X035954Y010585D02*
X035954Y010855D01*
X035999Y010855D02*
X035909Y010855D01*
X027145Y016118D02*
X027147Y016136D01*
X027153Y016154D01*
X027162Y016170D01*
X027174Y016183D01*
X027189Y016194D01*
X027206Y016202D01*
X027224Y016206D01*
X027242Y016206D01*
X027260Y016202D01*
X027277Y016194D01*
X027292Y016183D01*
X027304Y016170D01*
X027313Y016154D01*
X027319Y016136D01*
X027321Y016118D01*
X027319Y016100D01*
X027313Y016082D01*
X027304Y016066D01*
X027292Y016053D01*
X027277Y016042D01*
X027260Y016034D01*
X027242Y016030D01*
X027224Y016030D01*
X027206Y016034D01*
X027189Y016042D01*
X027174Y016053D01*
X027162Y016066D01*
X027153Y016082D01*
X027147Y016100D01*
X027145Y016118D01*
X026366Y016433D02*
X026366Y016709D01*
X026091Y016984D01*
X026091Y016709D01*
X025905Y016709D01*
X026091Y016709D02*
X026091Y016433D01*
X026366Y016709D01*
X026366Y016984D01*
X023395Y016118D02*
X023397Y016136D01*
X023403Y016154D01*
X023412Y016170D01*
X023424Y016183D01*
X023439Y016194D01*
X023456Y016202D01*
X023474Y016206D01*
X023492Y016206D01*
X023510Y016202D01*
X023527Y016194D01*
X023542Y016183D01*
X023554Y016170D01*
X023563Y016154D01*
X023569Y016136D01*
X023571Y016118D01*
X023569Y016100D01*
X023563Y016082D01*
X023554Y016066D01*
X023542Y016053D01*
X023527Y016042D01*
X023510Y016034D01*
X023492Y016030D01*
X023474Y016030D01*
X023456Y016034D01*
X023439Y016042D01*
X023424Y016053D01*
X023412Y016066D01*
X023403Y016082D01*
X023397Y016100D01*
X023395Y016118D01*
X022616Y016433D02*
X022616Y016709D01*
X022341Y016984D01*
X022341Y016709D01*
X022155Y016709D01*
X022341Y016709D02*
X022341Y016433D01*
X022616Y016709D01*
X022616Y016984D01*
X023395Y026197D02*
X023397Y026215D01*
X023403Y026233D01*
X023412Y026249D01*
X023424Y026262D01*
X023439Y026273D01*
X023456Y026281D01*
X023474Y026285D01*
X023492Y026285D01*
X023510Y026281D01*
X023527Y026273D01*
X023542Y026262D01*
X023554Y026249D01*
X023563Y026233D01*
X023569Y026215D01*
X023571Y026197D01*
X023569Y026179D01*
X023563Y026161D01*
X023554Y026145D01*
X023542Y026132D01*
X023527Y026121D01*
X023510Y026113D01*
X023492Y026109D01*
X023474Y026109D01*
X023456Y026113D01*
X023439Y026121D01*
X023424Y026132D01*
X023412Y026145D01*
X023403Y026161D01*
X023397Y026179D01*
X023395Y026197D01*
X022616Y026512D02*
X022616Y026788D01*
X022341Y027063D01*
X022341Y026788D01*
X022155Y026788D01*
X022341Y026788D02*
X022341Y026512D01*
X022616Y026788D01*
X022616Y027063D01*
X025905Y026788D02*
X026091Y026788D01*
X026091Y026512D01*
X026366Y026788D01*
X026091Y027063D01*
X026091Y026788D01*
X026366Y026788D02*
X026366Y026512D01*
X026366Y026788D02*
X026366Y027063D01*
X027145Y026197D02*
X027147Y026215D01*
X027153Y026233D01*
X027162Y026249D01*
X027174Y026262D01*
X027189Y026273D01*
X027206Y026281D01*
X027224Y026285D01*
X027242Y026285D01*
X027260Y026281D01*
X027277Y026273D01*
X027292Y026262D01*
X027304Y026249D01*
X027313Y026233D01*
X027319Y026215D01*
X027321Y026197D01*
X027319Y026179D01*
X027313Y026161D01*
X027304Y026145D01*
X027292Y026132D01*
X027277Y026121D01*
X027260Y026113D01*
X027242Y026109D01*
X027224Y026109D01*
X027206Y026113D01*
X027189Y026121D01*
X027174Y026132D01*
X027162Y026145D01*
X027153Y026161D01*
X027147Y026179D01*
X027145Y026197D01*
X038713Y026091D02*
X038988Y026091D01*
X038988Y025905D01*
X038988Y026091D02*
X039264Y026091D01*
X038988Y026366D01*
X038713Y026091D01*
X038713Y026366D02*
X038988Y026366D01*
X039264Y026366D01*
X039491Y027233D02*
X039493Y027251D01*
X039499Y027269D01*
X039508Y027285D01*
X039520Y027298D01*
X039535Y027309D01*
X039552Y027317D01*
X039570Y027321D01*
X039588Y027321D01*
X039606Y027317D01*
X039623Y027309D01*
X039638Y027298D01*
X039650Y027285D01*
X039659Y027269D01*
X039665Y027251D01*
X039667Y027233D01*
X039665Y027215D01*
X039659Y027197D01*
X039650Y027181D01*
X039638Y027168D01*
X039623Y027157D01*
X039606Y027149D01*
X039588Y027145D01*
X039570Y027145D01*
X039552Y027149D01*
X039535Y027157D01*
X039520Y027168D01*
X039508Y027181D01*
X039499Y027197D01*
X039493Y027215D01*
X039491Y027233D01*
X039491Y023483D02*
X039493Y023501D01*
X039499Y023519D01*
X039508Y023535D01*
X039520Y023548D01*
X039535Y023559D01*
X039552Y023567D01*
X039570Y023571D01*
X039588Y023571D01*
X039606Y023567D01*
X039623Y023559D01*
X039638Y023548D01*
X039650Y023535D01*
X039659Y023519D01*
X039665Y023501D01*
X039667Y023483D01*
X039665Y023465D01*
X039659Y023447D01*
X039650Y023431D01*
X039638Y023418D01*
X039623Y023407D01*
X039606Y023399D01*
X039588Y023395D01*
X039570Y023395D01*
X039552Y023399D01*
X039535Y023407D01*
X039520Y023418D01*
X039508Y023431D01*
X039499Y023447D01*
X039493Y023465D01*
X039491Y023483D01*
X039264Y022616D02*
X038988Y022616D01*
X038713Y022341D01*
X038988Y022341D01*
X038988Y022155D01*
X038988Y022341D02*
X039264Y022341D01*
X038988Y022616D01*
X038713Y022616D01*
D13*
X038188Y021380D02*
X038188Y028880D01*
X031488Y028880D01*
X031488Y021380D01*
X038188Y021380D01*
X038488Y021199D02*
X038488Y020261D01*
X036488Y020261D01*
X036488Y021199D01*
X038488Y021199D01*
X028880Y024209D02*
X028880Y017509D01*
X021380Y017509D01*
X021380Y024209D01*
X028880Y024209D01*
X028880Y027588D02*
X028880Y034288D01*
X021380Y034288D01*
X021380Y027588D01*
X028880Y027588D01*
X021199Y027288D02*
X020261Y027288D01*
X020261Y029288D01*
X021199Y029288D01*
X021199Y027288D01*
X021199Y019209D02*
X020261Y019209D01*
X020261Y017209D01*
X021199Y017209D01*
X021199Y019209D01*
X021380Y014130D02*
X028880Y014130D01*
X028880Y007430D01*
X021380Y007430D01*
X021380Y014130D01*
X021199Y009130D02*
X020261Y009130D01*
X020261Y007130D01*
X021199Y007130D01*
X021199Y009130D01*
X011611Y010379D02*
X011129Y010379D01*
X011129Y011476D01*
X011611Y011476D01*
X011611Y010379D01*
X011611Y020458D02*
X011129Y020458D01*
X011129Y021555D01*
X011611Y021555D01*
X011611Y020458D01*
X011611Y030536D02*
X011129Y030536D01*
X011129Y031634D01*
X011611Y031634D01*
X011611Y030536D01*
X034142Y011611D02*
X034142Y011129D01*
X035240Y011129D01*
X035240Y011611D01*
X034142Y011611D01*
D14*
X036338Y015080D02*
X036938Y015080D01*
X036955Y015082D01*
X036972Y015086D01*
X036988Y015093D01*
X037002Y015103D01*
X037015Y015116D01*
X037025Y015130D01*
X037032Y015146D01*
X037036Y015163D01*
X037038Y015180D01*
X037038Y016880D01*
X037036Y016897D01*
X037032Y016914D01*
X037025Y016930D01*
X037015Y016944D01*
X037002Y016957D01*
X036988Y016967D01*
X036972Y016974D01*
X036955Y016978D01*
X036938Y016980D01*
X036338Y016980D01*
X036321Y016978D01*
X036304Y016974D01*
X036288Y016967D01*
X036274Y016957D01*
X036261Y016944D01*
X036251Y016930D01*
X036244Y016914D01*
X036240Y016897D01*
X036238Y016880D01*
X036238Y015180D01*
X036240Y015163D01*
X036244Y015146D01*
X036251Y015130D01*
X036261Y015116D01*
X036274Y015103D01*
X036288Y015093D01*
X036304Y015086D01*
X036321Y015082D01*
X036338Y015080D01*
X031888Y018100D02*
X031828Y018180D01*
X031848Y018220D01*
X031688Y018280D01*
X031688Y018400D02*
X031848Y018460D01*
X031828Y018500D01*
X031888Y018580D01*
X031828Y018650D01*
X031738Y018590D01*
X031648Y018630D01*
X031628Y018730D01*
X031538Y018730D01*
X031518Y018620D01*
X031428Y018590D01*
X031338Y018650D01*
X031268Y018580D01*
X031338Y018490D01*
X031298Y018410D01*
X031188Y018380D01*
X031188Y018290D01*
X031298Y018270D01*
X031338Y018190D01*
X031268Y018100D01*
X031338Y018030D01*
X031428Y018090D01*
X031518Y018050D01*
X031538Y017950D01*
X031628Y017950D01*
X031648Y018050D01*
X031738Y018090D01*
X031828Y018030D01*
X031888Y018100D01*
X031688Y018280D02*
X031676Y018263D01*
X031661Y018248D01*
X031644Y018235D01*
X031625Y018226D01*
X031604Y018221D01*
X031583Y018219D01*
X031562Y018221D01*
X031542Y018226D01*
X031523Y018235D01*
X031505Y018247D01*
X031490Y018262D01*
X031478Y018279D01*
X031469Y018299D01*
X031464Y018319D01*
X031462Y018340D01*
X031464Y018361D01*
X031469Y018381D01*
X031478Y018401D01*
X031490Y018418D01*
X031505Y018433D01*
X031523Y018445D01*
X031542Y018454D01*
X031562Y018459D01*
X031583Y018461D01*
X031604Y018459D01*
X031625Y018454D01*
X031644Y018445D01*
X031661Y018432D01*
X031676Y018417D01*
X031688Y018400D01*
X031676Y018417D01*
X031661Y018432D01*
X031644Y018445D01*
X031625Y018454D01*
X031604Y018459D01*
X031583Y018461D01*
X031562Y018459D01*
X031542Y018454D01*
X031523Y018445D01*
X031505Y018433D01*
X031490Y018418D01*
X031478Y018401D01*
X031469Y018381D01*
X031464Y018361D01*
X031462Y018340D01*
X031464Y018319D01*
X031469Y018299D01*
X031478Y018279D01*
X031490Y018262D01*
X031505Y018247D01*
X031523Y018235D01*
X031542Y018226D01*
X031562Y018221D01*
X031583Y018219D01*
X031604Y018221D01*
X031625Y018226D01*
X031644Y018235D01*
X031661Y018248D01*
X031676Y018263D01*
X031688Y018280D01*
X018730Y014080D02*
X018620Y014100D01*
X018590Y014190D01*
X018650Y014280D01*
X018580Y014350D01*
X018490Y014280D01*
X018410Y014320D01*
X018380Y014430D01*
X018290Y014430D01*
X018270Y014320D01*
X018190Y014280D01*
X018100Y014350D01*
X018030Y014280D01*
X018090Y014190D01*
X018050Y014100D01*
X017950Y014080D01*
X017950Y013990D01*
X018050Y013970D01*
X018090Y013880D01*
X018030Y013790D01*
X018100Y013730D01*
X018180Y013790D01*
X018220Y013770D01*
X018280Y013930D01*
X018400Y013930D02*
X018460Y013770D01*
X018500Y013790D01*
X018580Y013730D01*
X018650Y013790D01*
X018590Y013880D01*
X018630Y013970D01*
X018730Y013990D01*
X018730Y014080D01*
X018400Y013930D02*
X018417Y013942D01*
X018432Y013957D01*
X018445Y013974D01*
X018454Y013993D01*
X018459Y014014D01*
X018461Y014035D01*
X018459Y014056D01*
X018454Y014076D01*
X018445Y014095D01*
X018433Y014113D01*
X018418Y014128D01*
X018401Y014140D01*
X018381Y014149D01*
X018361Y014154D01*
X018340Y014156D01*
X018319Y014154D01*
X018299Y014149D01*
X018279Y014140D01*
X018262Y014128D01*
X018247Y014113D01*
X018235Y014095D01*
X018226Y014076D01*
X018221Y014056D01*
X018219Y014035D01*
X018221Y014014D01*
X018226Y013993D01*
X018235Y013974D01*
X018248Y013957D01*
X018263Y013942D01*
X018280Y013930D01*
X018263Y013942D01*
X018248Y013957D01*
X018235Y013974D01*
X018226Y013993D01*
X018221Y014014D01*
X018219Y014035D01*
X018221Y014056D01*
X018226Y014076D01*
X018235Y014095D01*
X018247Y014113D01*
X018262Y014128D01*
X018279Y014140D01*
X018299Y014149D01*
X018319Y014154D01*
X018340Y014156D01*
X018361Y014154D01*
X018381Y014149D01*
X018401Y014140D01*
X018418Y014128D01*
X018433Y014113D01*
X018445Y014095D01*
X018454Y014076D01*
X018459Y014056D01*
X018461Y014035D01*
X018459Y014014D01*
X018454Y013993D01*
X018445Y013974D01*
X018432Y013957D01*
X018417Y013942D01*
X018400Y013930D01*
X016880Y009380D02*
X015180Y009380D01*
X015163Y009378D01*
X015146Y009374D01*
X015130Y009367D01*
X015116Y009357D01*
X015103Y009344D01*
X015093Y009330D01*
X015086Y009314D01*
X015082Y009297D01*
X015080Y009280D01*
X015080Y008680D01*
X015082Y008663D01*
X015086Y008646D01*
X015093Y008630D01*
X015103Y008616D01*
X015116Y008603D01*
X015130Y008593D01*
X015146Y008586D01*
X015163Y008582D01*
X015180Y008580D01*
X016880Y008580D01*
X016897Y008582D01*
X016914Y008586D01*
X016930Y008593D01*
X016944Y008603D01*
X016957Y008616D01*
X016967Y008630D01*
X016974Y008646D01*
X016978Y008663D01*
X016980Y008680D01*
X016980Y009280D01*
X016978Y009297D01*
X016974Y009314D01*
X016967Y009330D01*
X016957Y009344D01*
X016944Y009357D01*
X016930Y009367D01*
X016914Y009374D01*
X016897Y009378D01*
X016880Y009380D01*
X016880Y018659D02*
X015180Y018659D01*
X015163Y018661D01*
X015146Y018665D01*
X015130Y018672D01*
X015116Y018682D01*
X015103Y018695D01*
X015093Y018709D01*
X015086Y018725D01*
X015082Y018742D01*
X015080Y018759D01*
X015080Y019359D01*
X015082Y019376D01*
X015086Y019393D01*
X015093Y019409D01*
X015103Y019423D01*
X015116Y019436D01*
X015130Y019446D01*
X015146Y019453D01*
X015163Y019457D01*
X015180Y019459D01*
X016880Y019459D01*
X016897Y019457D01*
X016914Y019453D01*
X016930Y019446D01*
X016944Y019436D01*
X016957Y019423D01*
X016967Y019409D01*
X016974Y019393D01*
X016978Y019376D01*
X016980Y019359D01*
X016980Y018759D01*
X016978Y018742D01*
X016974Y018725D01*
X016967Y018709D01*
X016957Y018695D01*
X016944Y018682D01*
X016930Y018672D01*
X016914Y018665D01*
X016897Y018661D01*
X016880Y018659D01*
X018100Y023809D02*
X018180Y023869D01*
X018220Y023849D01*
X018280Y024009D01*
X018400Y024009D02*
X018460Y023849D01*
X018500Y023869D01*
X018580Y023809D01*
X018650Y023869D01*
X018590Y023959D01*
X018630Y024049D01*
X018730Y024069D01*
X018730Y024159D01*
X018620Y024179D01*
X018590Y024269D01*
X018650Y024359D01*
X018580Y024429D01*
X018490Y024359D01*
X018410Y024399D01*
X018380Y024509D01*
X018290Y024509D01*
X018270Y024399D01*
X018190Y024359D01*
X018100Y024429D01*
X018030Y024359D01*
X018090Y024269D01*
X018050Y024179D01*
X017950Y024159D01*
X017950Y024069D01*
X018050Y024049D01*
X018090Y023959D01*
X018030Y023869D01*
X018100Y023809D01*
X018280Y024009D02*
X018263Y024021D01*
X018248Y024036D01*
X018235Y024053D01*
X018226Y024072D01*
X018221Y024093D01*
X018219Y024114D01*
X018221Y024135D01*
X018226Y024155D01*
X018235Y024174D01*
X018247Y024192D01*
X018262Y024207D01*
X018279Y024219D01*
X018299Y024228D01*
X018319Y024233D01*
X018340Y024235D01*
X018361Y024233D01*
X018381Y024228D01*
X018401Y024219D01*
X018418Y024207D01*
X018433Y024192D01*
X018445Y024174D01*
X018454Y024155D01*
X018459Y024135D01*
X018461Y024114D01*
X018459Y024093D01*
X018454Y024072D01*
X018445Y024053D01*
X018432Y024036D01*
X018417Y024021D01*
X018400Y024009D01*
X018417Y024021D01*
X018432Y024036D01*
X018445Y024053D01*
X018454Y024072D01*
X018459Y024093D01*
X018461Y024114D01*
X018459Y024135D01*
X018454Y024155D01*
X018445Y024174D01*
X018433Y024192D01*
X018418Y024207D01*
X018401Y024219D01*
X018381Y024228D01*
X018361Y024233D01*
X018340Y024235D01*
X018319Y024233D01*
X018299Y024228D01*
X018279Y024219D01*
X018262Y024207D01*
X018247Y024192D01*
X018235Y024174D01*
X018226Y024155D01*
X018221Y024135D01*
X018219Y024114D01*
X018221Y024093D01*
X018226Y024072D01*
X018235Y024053D01*
X018248Y024036D01*
X018263Y024021D01*
X018280Y024009D01*
X016880Y028738D02*
X015180Y028738D01*
X015163Y028740D01*
X015146Y028744D01*
X015130Y028751D01*
X015116Y028761D01*
X015103Y028774D01*
X015093Y028788D01*
X015086Y028804D01*
X015082Y028821D01*
X015080Y028838D01*
X015080Y029438D01*
X015082Y029455D01*
X015086Y029472D01*
X015093Y029488D01*
X015103Y029502D01*
X015116Y029515D01*
X015130Y029525D01*
X015146Y029532D01*
X015163Y029536D01*
X015180Y029538D01*
X016880Y029538D01*
X016897Y029536D01*
X016914Y029532D01*
X016930Y029525D01*
X016944Y029515D01*
X016957Y029502D01*
X016967Y029488D01*
X016974Y029472D01*
X016978Y029455D01*
X016980Y029438D01*
X016980Y028838D01*
X016978Y028821D01*
X016974Y028804D01*
X016967Y028788D01*
X016957Y028774D01*
X016944Y028761D01*
X016930Y028751D01*
X016914Y028744D01*
X016897Y028740D01*
X016880Y028738D01*
X018100Y033888D02*
X018180Y033948D01*
X018220Y033928D01*
X018280Y034088D01*
X018400Y034088D02*
X018460Y033928D01*
X018500Y033948D01*
X018580Y033888D01*
X018650Y033948D01*
X018590Y034038D01*
X018630Y034128D01*
X018730Y034148D01*
X018730Y034238D01*
X018620Y034258D01*
X018590Y034348D01*
X018650Y034438D01*
X018580Y034508D01*
X018490Y034438D01*
X018410Y034478D01*
X018380Y034588D01*
X018290Y034588D01*
X018270Y034478D01*
X018190Y034438D01*
X018100Y034508D01*
X018030Y034438D01*
X018090Y034348D01*
X018050Y034258D01*
X017950Y034238D01*
X017950Y034148D01*
X018050Y034128D01*
X018090Y034038D01*
X018030Y033948D01*
X018100Y033888D01*
X018280Y034088D02*
X018263Y034100D01*
X018248Y034115D01*
X018235Y034132D01*
X018226Y034151D01*
X018221Y034172D01*
X018219Y034193D01*
X018221Y034214D01*
X018226Y034234D01*
X018235Y034253D01*
X018247Y034271D01*
X018262Y034286D01*
X018279Y034298D01*
X018299Y034307D01*
X018319Y034312D01*
X018340Y034314D01*
X018361Y034312D01*
X018381Y034307D01*
X018401Y034298D01*
X018418Y034286D01*
X018433Y034271D01*
X018445Y034253D01*
X018454Y034234D01*
X018459Y034214D01*
X018461Y034193D01*
X018459Y034172D01*
X018454Y034151D01*
X018445Y034132D01*
X018432Y034115D01*
X018417Y034100D01*
X018400Y034088D01*
X018417Y034100D01*
X018432Y034115D01*
X018445Y034132D01*
X018454Y034151D01*
X018459Y034172D01*
X018461Y034193D01*
X018459Y034214D01*
X018454Y034234D01*
X018445Y034253D01*
X018433Y034271D01*
X018418Y034286D01*
X018401Y034298D01*
X018381Y034307D01*
X018361Y034312D01*
X018340Y034314D01*
X018319Y034312D01*
X018299Y034307D01*
X018279Y034298D01*
X018262Y034286D01*
X018247Y034271D01*
X018235Y034253D01*
X018226Y034234D01*
X018221Y034214D01*
X018219Y034193D01*
X018221Y034172D01*
X018226Y034151D01*
X018235Y034132D01*
X018248Y034115D01*
X018263Y034100D01*
X018280Y034088D01*
M02*
