%
M48
M72
T01C0.0120
T02C0.0315
T03C0.0320
T04C0.0354
T05C0.0394
T06C0.0400
T07C0.0470
T08C0.0910
T09C0.0984
%
T01
X18330Y10580
X26630Y14880
X24405Y7105
X26980Y7255
X11630Y10130
X21630Y8630
X25630Y11630
X10380Y11880
X21630Y11880
X21880Y9880
X24380Y9880
X24880Y12158
X20730Y9805
X23780Y12780
X23380Y8130
X27405Y8005
X27005Y9380
X24530Y8930
X21880Y13530
X27505Y10505
X22755Y14130
X27105Y13405
X17980Y10980
X27255Y12105
X20130Y13630
X21505Y12205
X24155Y14605
X21680Y14130
X22255Y14005
X15730Y9830
X18755Y9830
X20130Y6880
X27980Y8480
X22905Y11380
X16780Y11130
X7630Y14130
X14430Y13380
X13880Y9130
X13880Y10380
X8230Y8980
X24630Y11630
X24630Y10130
X27380Y10130
X18330Y20659
X26630Y24959
X24405Y17184
X26980Y17334
X11630Y20209
X21630Y18709
X25630Y21709
X10380Y21959
X21630Y21959
X21880Y19959
X24380Y19959
X24880Y22237
X20730Y19884
X23780Y22859
X23380Y18209
X27405Y18084
X27005Y19459
X24530Y19009
X21880Y23609
X27505Y20584
X22755Y24209
X27105Y23484
X17980Y21059
X27255Y22184
X20130Y23709
X21505Y22284
X24155Y24684
X21680Y24209
X22255Y24084
X15730Y19909
X18755Y19909
X20130Y16959
X27980Y18559
X22905Y21459
X16780Y21209
X7630Y24209
X14430Y23459
X13880Y19209
X13880Y20459
X8230Y19059
X24630Y21709
X24630Y20209
X27380Y20209
X18330Y30738
X26630Y35038
X24405Y27263
X26980Y27413
X11630Y30288
X21630Y28788
X25630Y31788
X10380Y32038
X21630Y32038
X21880Y30038
X24380Y30038
X24880Y32316
X20730Y29963
X23780Y32938
X23380Y28288
X27405Y28163
X27005Y29538
X24530Y29088
X21880Y33688
X27505Y30663
X22755Y34288
X27105Y33563
X17980Y31138
X27255Y32263
X20130Y33788
X21505Y32363
X24155Y34763
X21680Y34288
X22255Y34163
X15730Y29988
X18755Y29988
X20130Y27038
X27980Y28638
X22905Y31538
X16780Y31288
X7630Y34288
X14430Y33538
X13880Y29288
X13880Y30538
X8230Y29138
X24630Y31788
X24630Y30288
X27380Y30288
X35038Y18330
X30738Y26630
X38513Y24405
X38363Y26980
X35488Y11630
X36988Y21630
X33988Y25630
X33738Y10380
X33738Y21630
X35738Y21880
X35738Y24380
X33460Y24880
X35813Y20730
X32838Y23780
X37488Y23380
X37613Y27405
X36238Y27005
X36688Y24530
X32088Y21880
X35113Y27505
X31488Y22755
X32213Y27105
X34638Y17980
X33513Y27255
X31988Y20130
X33413Y21505
X31013Y24155
X31488Y21680
X31613Y22255
X35788Y15730
X35788Y18755
X38738Y20130
X37138Y27980
X34238Y22905
X34488Y16780
X31488Y7630
X32238Y14430
X36488Y13880
X35238Y13880
X36638Y8230
X33988Y24630
X35488Y24630
X35488Y27380
T02
X7081Y13033
X7081Y8427
X7238Y8427
X7396Y8427
X6923Y8427
X6766Y8427
X7238Y13033
X7396Y13033
X6923Y13033
X6766Y13033
X7081Y23112
X7081Y18506
X7238Y18506
X7396Y18506
X6923Y18506
X6766Y18506
X7238Y23112
X7396Y23112
X6923Y23112
X6766Y23112
X7081Y33191
X7081Y28584
X7238Y28584
X7396Y28584
X6923Y28584
X6766Y28584
X7238Y33191
X7396Y33191
X6923Y33191
X6766Y33191
X32585Y7081
X37192Y7081
X37192Y7238
X37192Y7396
X37192Y6923
X37192Y6766
X32585Y7238
X32585Y7396
X32585Y6923
X32585Y6766
T03
X10980Y8430
X9980Y8430
X10980Y18509
X9980Y18509
X10980Y28588
X9980Y28588
X37188Y10980
X37188Y9980
T04
X13918Y12190
X18642Y7465
X19430Y9827
X13918Y7465
X18642Y12190
X13918Y22268
X18642Y17544
X19430Y19906
X13918Y17544
X18642Y22268
X13918Y32347
X18642Y27623
X19430Y29985
X13918Y27623
X18642Y32347
X33429Y13918
X38153Y18642
X35791Y19430
X38153Y13918
X33429Y18642
T05
X8280Y12830
X9280Y12830
X10280Y12830
X11280Y12830
X12280Y12830
X13280Y12830
X14280Y12830
X15280Y12830
X16280Y12830
X17280Y12830
X18280Y12830
X19280Y12830
X19280Y6830
X18280Y6830
X17280Y6830
X16280Y6830
X15280Y6830
X14280Y6830
X13280Y6830
X12280Y6830
X11280Y6830
X10280Y6830
X9280Y6830
X8280Y6830
X12718Y7955
X11718Y7955
X16843Y7955
X19280Y8830
X15843Y7955
X19280Y7830
X8280Y22909
X9280Y22909
X10280Y22909
X11280Y22909
X12280Y22909
X13280Y22909
X14280Y22909
X15280Y22909
X16280Y22909
X17280Y22909
X18280Y22909
X19280Y22909
X19280Y16909
X18280Y16909
X17280Y16909
X16280Y16909
X15280Y16909
X14280Y16909
X13280Y16909
X12280Y16909
X11280Y16909
X10280Y16909
X9280Y16909
X8280Y16909
X12718Y18034
X11718Y18034
X16843Y18034
X19280Y18909
X15843Y18034
X19280Y17909
X8280Y32988
X9280Y32988
X10280Y32988
X11280Y32988
X12280Y32988
X13280Y32988
X14280Y32988
X15280Y32988
X16280Y32988
X17280Y32988
X18280Y32988
X19280Y32988
X19280Y26988
X18280Y26988
X17280Y26988
X16280Y26988
X15280Y26988
X14280Y26988
X13280Y26988
X12280Y26988
X11280Y26988
X10280Y26988
X9280Y26988
X8280Y26988
X12718Y28113
X11718Y28113
X16843Y28113
X19280Y28988
X15843Y28113
X19280Y27988
X32788Y8280
X32788Y9280
X32788Y10280
X32788Y11280
X32788Y12280
X32788Y13280
X32788Y14280
X32788Y15280
X32788Y16280
X32788Y17280
X32788Y18280
X32788Y19280
X38788Y19280
X38788Y18280
X38788Y17280
X38788Y16280
X38788Y15280
X38788Y14280
X38788Y13280
X38788Y12280
X38788Y11280
X38788Y10280
X38788Y9280
X38788Y8280
X37663Y12718
X37663Y11718
X37663Y16843
X36788Y19280
X37663Y15843
X37788Y19280
T06
X20580Y10380
X8280Y14580
X9580Y14580
X10580Y14580
X11580Y14580
X12580Y14580
X13580Y14580
X14580Y14580
X20580Y20459
X8280Y24659
X9580Y24659
X10580Y24659
X11580Y24659
X12580Y24659
X13580Y24659
X14580Y24659
X20580Y30538
X8280Y34738
X9580Y34738
X10580Y34738
X11580Y34738
X12580Y34738
X13580Y34738
X14580Y34738
X35238Y20580
X31038Y8280
X31038Y9580
X31038Y10580
X31038Y11580
X31038Y12580
X31038Y13580
X31038Y14580
T07
X7280Y11780
X7280Y9780
X27930Y9780
X27930Y11780
X7280Y21859
X7280Y19859
X27930Y19859
X27930Y21859
X7280Y31938
X7280Y29938
X27930Y29938
X27930Y31938
X33838Y7280
X35838Y7280
X35838Y27930
X33838Y27930
T08
X25449Y13365
X25449Y8195
X25449Y23444
X25449Y18274
X25449Y33523
X25449Y28353
X32253Y25449
X37423Y25449
T09
X6864Y6864
X28715Y6864
X28715Y14738
X6864Y14738
X6864Y16943
X28715Y16943
X28715Y24817
X6864Y24817
X6864Y27022
X28715Y27022
X28715Y34896
X6864Y34896
X38754Y6864
X38754Y28715
X30880Y28715
X30880Y6864
M30
