G75*
%MOIN*%
%OFA0B0*%
%FSLAX24Y24*%
%IPPOS*%
%LPD*%
%AMOC8*
5,1,8,0,0,1.08239X$1,22.5*
%
%ADD10C,0.0000*%
%ADD11C,0.0030*%
%ADD12C,0.1024*%
%ADD13OC8,0.0660*%
%ADD14C,0.0660*%
%ADD15R,0.0631X0.0552*%
%ADD16R,0.0552X0.0631*%
%ADD17R,0.0800X0.0420*%
%ADD18R,0.0920X0.0520*%
%ADD19R,0.0906X0.1457*%
%ADD20R,0.1221X0.0394*%
%ADD21C,0.1350*%
%ADD22R,0.0512X0.0591*%
%ADD23C,0.0780*%
%ADD24C,0.0594*%
%ADD25C,0.0700*%
%ADD26C,0.0745*%
%ADD27OC8,0.0640*%
%ADD28R,0.0640X0.0640*%
%ADD29R,0.1024X0.0355*%
%ADD30C,0.0740*%
%ADD31C,0.0355*%
%ADD32R,0.0500X0.0670*%
%ADD33R,0.0060X0.0720*%
%ADD34C,0.0059*%
%ADD35C,0.0039*%
%ADD36R,0.0420X0.0800*%
%ADD37R,0.0520X0.0920*%
%ADD38R,0.1457X0.0906*%
%ADD39R,0.0394X0.1221*%
%ADD40R,0.0591X0.0512*%
%ADD41R,0.0355X0.1024*%
%ADD42R,0.0670X0.0500*%
%ADD43R,0.0720X0.0060*%
D10*
X006274Y005880D02*
X029286Y005880D01*
X029285Y005879D02*
X029322Y005885D01*
X029358Y005895D01*
X029393Y005909D01*
X029426Y005926D01*
X029458Y005946D01*
X029486Y005970D01*
X029513Y005997D01*
X029536Y006026D01*
X029556Y006057D01*
X029573Y006091D01*
X029586Y006126D01*
X029596Y006162D01*
X029601Y006199D01*
X029603Y006236D01*
X029601Y006273D01*
X029601Y006274D02*
X029601Y008853D01*
X029603Y008873D01*
X029608Y008893D01*
X029617Y008912D01*
X029629Y008929D01*
X029643Y008943D01*
X029660Y008955D01*
X029679Y008964D01*
X029699Y008969D01*
X029719Y008971D01*
X029739Y008969D01*
X029759Y008964D01*
X029778Y008955D01*
X029795Y008943D01*
X029809Y008929D01*
X029821Y008912D01*
X029830Y008893D01*
X029835Y008873D01*
X029837Y008853D01*
X029837Y006195D01*
X029846Y006158D01*
X029858Y006122D01*
X029874Y006087D01*
X029893Y006053D01*
X029915Y006022D01*
X029940Y005993D01*
X029968Y005967D01*
X029998Y005944D01*
X030031Y005924D01*
X030065Y005907D01*
X030101Y005893D01*
X030138Y005883D01*
X030176Y005877D01*
X030214Y005874D01*
X030252Y005875D01*
X030290Y005880D01*
X039423Y005880D01*
X039423Y005879D02*
X039460Y005885D01*
X039496Y005895D01*
X039531Y005909D01*
X039564Y005926D01*
X039596Y005946D01*
X039624Y005970D01*
X039651Y005997D01*
X039674Y006026D01*
X039694Y006057D01*
X039711Y006091D01*
X039724Y006126D01*
X039734Y006162D01*
X039739Y006199D01*
X039741Y006236D01*
X039739Y006273D01*
X039738Y006274D02*
X039738Y029286D01*
X039739Y029285D02*
X039733Y029322D01*
X039723Y029358D01*
X039709Y029393D01*
X039692Y029426D01*
X039672Y029458D01*
X039648Y029486D01*
X039621Y029513D01*
X039592Y029536D01*
X039561Y029556D01*
X039527Y029573D01*
X039492Y029586D01*
X039456Y029596D01*
X039419Y029601D01*
X039382Y029603D01*
X039345Y029601D01*
X030211Y029601D01*
X030174Y029598D01*
X030136Y029592D01*
X030100Y029581D01*
X030065Y029568D01*
X030031Y029551D01*
X030000Y029531D01*
X029970Y029507D01*
X029943Y029481D01*
X029918Y029453D01*
X029896Y029422D01*
X029878Y029389D01*
X029863Y029355D01*
X029851Y029319D01*
X029843Y029282D01*
X029838Y029245D01*
X029837Y029207D01*
X029837Y028892D01*
X029835Y028872D01*
X029830Y028852D01*
X029821Y028833D01*
X029809Y028816D01*
X029795Y028802D01*
X029778Y028790D01*
X029759Y028781D01*
X029739Y028776D01*
X029719Y028774D01*
X029699Y028776D01*
X029679Y028781D01*
X029660Y028790D01*
X029643Y028802D01*
X029629Y028816D01*
X029617Y028833D01*
X029608Y028852D01*
X029603Y028872D01*
X029601Y028892D01*
X029601Y035565D01*
X029595Y035602D01*
X029585Y035638D01*
X029571Y035673D01*
X029554Y035706D01*
X029534Y035738D01*
X029510Y035766D01*
X029483Y035793D01*
X029454Y035816D01*
X029423Y035836D01*
X029389Y035853D01*
X029354Y035866D01*
X029318Y035876D01*
X029281Y035881D01*
X029244Y035883D01*
X029207Y035881D01*
X029207Y035880D02*
X006195Y035880D01*
X006195Y035881D02*
X006158Y035875D01*
X006122Y035865D01*
X006087Y035851D01*
X006054Y035834D01*
X006022Y035814D01*
X005994Y035790D01*
X005967Y035763D01*
X005944Y035734D01*
X005924Y035703D01*
X005907Y035669D01*
X005894Y035634D01*
X005884Y035598D01*
X005879Y035561D01*
X005877Y035524D01*
X005879Y035487D01*
X005880Y035486D02*
X005880Y026353D01*
X005879Y026353D02*
X005885Y026318D01*
X005894Y026284D01*
X005906Y026251D01*
X005921Y026220D01*
X005940Y026190D01*
X005961Y026162D01*
X005985Y026136D01*
X006011Y026113D01*
X006039Y026093D01*
X006070Y026075D01*
X006102Y026060D01*
X006135Y026049D01*
X006169Y026041D01*
X006203Y026036D01*
X006238Y026035D01*
X006273Y026037D01*
X006274Y026038D02*
X007849Y026038D01*
X007869Y026036D01*
X007889Y026031D01*
X007908Y026022D01*
X007925Y026010D01*
X007939Y025996D01*
X007951Y025979D01*
X007960Y025960D01*
X007965Y025940D01*
X007967Y025920D01*
X007965Y025900D01*
X007960Y025880D01*
X007951Y025861D01*
X007939Y025844D01*
X007925Y025830D01*
X007908Y025818D01*
X007889Y025809D01*
X007869Y025804D01*
X007849Y025802D01*
X007849Y025801D02*
X006195Y025801D01*
X006195Y025802D02*
X006158Y025796D01*
X006122Y025786D01*
X006087Y025772D01*
X006054Y025755D01*
X006022Y025735D01*
X005994Y025711D01*
X005967Y025684D01*
X005944Y025655D01*
X005924Y025624D01*
X005907Y025590D01*
X005894Y025555D01*
X005884Y025519D01*
X005879Y025482D01*
X005877Y025445D01*
X005879Y025408D01*
X005880Y025408D02*
X005880Y016274D01*
X005879Y016274D02*
X005885Y016239D01*
X005894Y016205D01*
X005906Y016172D01*
X005921Y016141D01*
X005940Y016111D01*
X005961Y016083D01*
X005985Y016057D01*
X006011Y016034D01*
X006039Y016014D01*
X006070Y015996D01*
X006102Y015981D01*
X006135Y015970D01*
X006169Y015962D01*
X006203Y015957D01*
X006238Y015956D01*
X006273Y015958D01*
X006274Y015959D02*
X007849Y015959D01*
X007869Y015957D01*
X007889Y015952D01*
X007908Y015943D01*
X007925Y015931D01*
X007939Y015917D01*
X007951Y015900D01*
X007960Y015881D01*
X007965Y015861D01*
X007967Y015841D01*
X007965Y015821D01*
X007960Y015801D01*
X007951Y015782D01*
X007939Y015765D01*
X007925Y015751D01*
X007908Y015739D01*
X007889Y015730D01*
X007869Y015725D01*
X007849Y015723D01*
X006195Y015723D01*
X006158Y015717D01*
X006122Y015707D01*
X006087Y015693D01*
X006054Y015676D01*
X006022Y015656D01*
X005994Y015632D01*
X005967Y015605D01*
X005944Y015576D01*
X005924Y015545D01*
X005907Y015511D01*
X005894Y015476D01*
X005884Y015440D01*
X005879Y015403D01*
X005877Y015366D01*
X005879Y015329D01*
X005880Y015329D02*
X005880Y006195D01*
X005879Y006195D02*
X005885Y006160D01*
X005894Y006126D01*
X005906Y006093D01*
X005921Y006062D01*
X005940Y006032D01*
X005961Y006004D01*
X005985Y005978D01*
X006011Y005955D01*
X006039Y005935D01*
X006070Y005917D01*
X006102Y005902D01*
X006135Y005891D01*
X006169Y005883D01*
X006203Y005878D01*
X006238Y005877D01*
X006273Y005879D01*
X006372Y006864D02*
X006374Y006908D01*
X006380Y006952D01*
X006390Y006995D01*
X006403Y007037D01*
X006421Y007077D01*
X006442Y007116D01*
X006466Y007153D01*
X006493Y007188D01*
X006524Y007220D01*
X006557Y007249D01*
X006593Y007275D01*
X006631Y007297D01*
X006671Y007316D01*
X006712Y007332D01*
X006755Y007344D01*
X006798Y007352D01*
X006842Y007356D01*
X006886Y007356D01*
X006930Y007352D01*
X006973Y007344D01*
X007016Y007332D01*
X007057Y007316D01*
X007097Y007297D01*
X007135Y007275D01*
X007171Y007249D01*
X007204Y007220D01*
X007235Y007188D01*
X007262Y007153D01*
X007286Y007116D01*
X007307Y007077D01*
X007325Y007037D01*
X007338Y006995D01*
X007348Y006952D01*
X007354Y006908D01*
X007356Y006864D01*
X007354Y006820D01*
X007348Y006776D01*
X007338Y006733D01*
X007325Y006691D01*
X007307Y006651D01*
X007286Y006612D01*
X007262Y006575D01*
X007235Y006540D01*
X007204Y006508D01*
X007171Y006479D01*
X007135Y006453D01*
X007097Y006431D01*
X007057Y006412D01*
X007016Y006396D01*
X006973Y006384D01*
X006930Y006376D01*
X006886Y006372D01*
X006842Y006372D01*
X006798Y006376D01*
X006755Y006384D01*
X006712Y006396D01*
X006671Y006412D01*
X006631Y006431D01*
X006593Y006453D01*
X006557Y006479D01*
X006524Y006508D01*
X006493Y006540D01*
X006466Y006575D01*
X006442Y006612D01*
X006421Y006651D01*
X006403Y006691D01*
X006390Y006733D01*
X006380Y006776D01*
X006374Y006820D01*
X006372Y006864D01*
X006609Y008427D02*
X006611Y008452D01*
X006617Y008476D01*
X006626Y008498D01*
X006639Y008519D01*
X006655Y008538D01*
X006674Y008554D01*
X006695Y008567D01*
X006717Y008576D01*
X006741Y008582D01*
X006766Y008584D01*
X006791Y008582D01*
X006815Y008576D01*
X006837Y008567D01*
X006858Y008554D01*
X006877Y008538D01*
X006893Y008519D01*
X006906Y008498D01*
X006915Y008476D01*
X006921Y008452D01*
X006923Y008427D01*
X006921Y008402D01*
X006915Y008378D01*
X006906Y008356D01*
X006893Y008335D01*
X006877Y008316D01*
X006858Y008300D01*
X006837Y008287D01*
X006815Y008278D01*
X006791Y008272D01*
X006766Y008270D01*
X006741Y008272D01*
X006717Y008278D01*
X006695Y008287D01*
X006674Y008300D01*
X006655Y008316D01*
X006639Y008335D01*
X006626Y008356D01*
X006617Y008378D01*
X006611Y008402D01*
X006609Y008427D01*
X006766Y008427D02*
X006768Y008452D01*
X006774Y008476D01*
X006783Y008498D01*
X006796Y008519D01*
X006812Y008538D01*
X006831Y008554D01*
X006852Y008567D01*
X006874Y008576D01*
X006898Y008582D01*
X006923Y008584D01*
X006948Y008582D01*
X006972Y008576D01*
X006994Y008567D01*
X007015Y008554D01*
X007034Y008538D01*
X007050Y008519D01*
X007063Y008498D01*
X007072Y008476D01*
X007078Y008452D01*
X007080Y008427D01*
X007078Y008402D01*
X007072Y008378D01*
X007063Y008356D01*
X007050Y008335D01*
X007034Y008316D01*
X007015Y008300D01*
X006994Y008287D01*
X006972Y008278D01*
X006948Y008272D01*
X006923Y008270D01*
X006898Y008272D01*
X006874Y008278D01*
X006852Y008287D01*
X006831Y008300D01*
X006812Y008316D01*
X006796Y008335D01*
X006783Y008356D01*
X006774Y008378D01*
X006768Y008402D01*
X006766Y008427D01*
X007081Y008427D02*
X007083Y008452D01*
X007089Y008476D01*
X007098Y008498D01*
X007111Y008519D01*
X007127Y008538D01*
X007146Y008554D01*
X007167Y008567D01*
X007189Y008576D01*
X007213Y008582D01*
X007238Y008584D01*
X007263Y008582D01*
X007287Y008576D01*
X007309Y008567D01*
X007330Y008554D01*
X007349Y008538D01*
X007365Y008519D01*
X007378Y008498D01*
X007387Y008476D01*
X007393Y008452D01*
X007395Y008427D01*
X007393Y008402D01*
X007387Y008378D01*
X007378Y008356D01*
X007365Y008335D01*
X007349Y008316D01*
X007330Y008300D01*
X007309Y008287D01*
X007287Y008278D01*
X007263Y008272D01*
X007238Y008270D01*
X007213Y008272D01*
X007189Y008278D01*
X007167Y008287D01*
X007146Y008300D01*
X007127Y008316D01*
X007111Y008335D01*
X007098Y008356D01*
X007089Y008378D01*
X007083Y008402D01*
X007081Y008427D01*
X007239Y008427D02*
X007241Y008452D01*
X007247Y008476D01*
X007256Y008498D01*
X007269Y008519D01*
X007285Y008538D01*
X007304Y008554D01*
X007325Y008567D01*
X007347Y008576D01*
X007371Y008582D01*
X007396Y008584D01*
X007421Y008582D01*
X007445Y008576D01*
X007467Y008567D01*
X007488Y008554D01*
X007507Y008538D01*
X007523Y008519D01*
X007536Y008498D01*
X007545Y008476D01*
X007551Y008452D01*
X007553Y008427D01*
X007551Y008402D01*
X007545Y008378D01*
X007536Y008356D01*
X007523Y008335D01*
X007507Y008316D01*
X007488Y008300D01*
X007467Y008287D01*
X007445Y008278D01*
X007421Y008272D01*
X007396Y008270D01*
X007371Y008272D01*
X007347Y008278D01*
X007325Y008287D01*
X007304Y008300D01*
X007285Y008316D01*
X007269Y008335D01*
X007256Y008356D01*
X007247Y008378D01*
X007241Y008402D01*
X007239Y008427D01*
X007081Y013033D02*
X007083Y013058D01*
X007089Y013082D01*
X007098Y013104D01*
X007111Y013125D01*
X007127Y013144D01*
X007146Y013160D01*
X007167Y013173D01*
X007189Y013182D01*
X007213Y013188D01*
X007238Y013190D01*
X007263Y013188D01*
X007287Y013182D01*
X007309Y013173D01*
X007330Y013160D01*
X007349Y013144D01*
X007365Y013125D01*
X007378Y013104D01*
X007387Y013082D01*
X007393Y013058D01*
X007395Y013033D01*
X007393Y013008D01*
X007387Y012984D01*
X007378Y012962D01*
X007365Y012941D01*
X007349Y012922D01*
X007330Y012906D01*
X007309Y012893D01*
X007287Y012884D01*
X007263Y012878D01*
X007238Y012876D01*
X007213Y012878D01*
X007189Y012884D01*
X007167Y012893D01*
X007146Y012906D01*
X007127Y012922D01*
X007111Y012941D01*
X007098Y012962D01*
X007089Y012984D01*
X007083Y013008D01*
X007081Y013033D01*
X006766Y013033D02*
X006768Y013058D01*
X006774Y013082D01*
X006783Y013104D01*
X006796Y013125D01*
X006812Y013144D01*
X006831Y013160D01*
X006852Y013173D01*
X006874Y013182D01*
X006898Y013188D01*
X006923Y013190D01*
X006948Y013188D01*
X006972Y013182D01*
X006994Y013173D01*
X007015Y013160D01*
X007034Y013144D01*
X007050Y013125D01*
X007063Y013104D01*
X007072Y013082D01*
X007078Y013058D01*
X007080Y013033D01*
X007078Y013008D01*
X007072Y012984D01*
X007063Y012962D01*
X007050Y012941D01*
X007034Y012922D01*
X007015Y012906D01*
X006994Y012893D01*
X006972Y012884D01*
X006948Y012878D01*
X006923Y012876D01*
X006898Y012878D01*
X006874Y012884D01*
X006852Y012893D01*
X006831Y012906D01*
X006812Y012922D01*
X006796Y012941D01*
X006783Y012962D01*
X006774Y012984D01*
X006768Y013008D01*
X006766Y013033D01*
X006609Y013033D02*
X006611Y013058D01*
X006617Y013082D01*
X006626Y013104D01*
X006639Y013125D01*
X006655Y013144D01*
X006674Y013160D01*
X006695Y013173D01*
X006717Y013182D01*
X006741Y013188D01*
X006766Y013190D01*
X006791Y013188D01*
X006815Y013182D01*
X006837Y013173D01*
X006858Y013160D01*
X006877Y013144D01*
X006893Y013125D01*
X006906Y013104D01*
X006915Y013082D01*
X006921Y013058D01*
X006923Y013033D01*
X006921Y013008D01*
X006915Y012984D01*
X006906Y012962D01*
X006893Y012941D01*
X006877Y012922D01*
X006858Y012906D01*
X006837Y012893D01*
X006815Y012884D01*
X006791Y012878D01*
X006766Y012876D01*
X006741Y012878D01*
X006717Y012884D01*
X006695Y012893D01*
X006674Y012906D01*
X006655Y012922D01*
X006639Y012941D01*
X006626Y012962D01*
X006617Y012984D01*
X006611Y013008D01*
X006609Y013033D01*
X007239Y013033D02*
X007241Y013058D01*
X007247Y013082D01*
X007256Y013104D01*
X007269Y013125D01*
X007285Y013144D01*
X007304Y013160D01*
X007325Y013173D01*
X007347Y013182D01*
X007371Y013188D01*
X007396Y013190D01*
X007421Y013188D01*
X007445Y013182D01*
X007467Y013173D01*
X007488Y013160D01*
X007507Y013144D01*
X007523Y013125D01*
X007536Y013104D01*
X007545Y013082D01*
X007551Y013058D01*
X007553Y013033D01*
X007551Y013008D01*
X007545Y012984D01*
X007536Y012962D01*
X007523Y012941D01*
X007507Y012922D01*
X007488Y012906D01*
X007467Y012893D01*
X007445Y012884D01*
X007421Y012878D01*
X007396Y012876D01*
X007371Y012878D01*
X007347Y012884D01*
X007325Y012893D01*
X007304Y012906D01*
X007285Y012922D01*
X007269Y012941D01*
X007256Y012962D01*
X007247Y012984D01*
X007241Y013008D01*
X007239Y013033D01*
X006372Y014738D02*
X006374Y014782D01*
X006380Y014826D01*
X006390Y014869D01*
X006403Y014911D01*
X006421Y014951D01*
X006442Y014990D01*
X006466Y015027D01*
X006493Y015062D01*
X006524Y015094D01*
X006557Y015123D01*
X006593Y015149D01*
X006631Y015171D01*
X006671Y015190D01*
X006712Y015206D01*
X006755Y015218D01*
X006798Y015226D01*
X006842Y015230D01*
X006886Y015230D01*
X006930Y015226D01*
X006973Y015218D01*
X007016Y015206D01*
X007057Y015190D01*
X007097Y015171D01*
X007135Y015149D01*
X007171Y015123D01*
X007204Y015094D01*
X007235Y015062D01*
X007262Y015027D01*
X007286Y014990D01*
X007307Y014951D01*
X007325Y014911D01*
X007338Y014869D01*
X007348Y014826D01*
X007354Y014782D01*
X007356Y014738D01*
X007354Y014694D01*
X007348Y014650D01*
X007338Y014607D01*
X007325Y014565D01*
X007307Y014525D01*
X007286Y014486D01*
X007262Y014449D01*
X007235Y014414D01*
X007204Y014382D01*
X007171Y014353D01*
X007135Y014327D01*
X007097Y014305D01*
X007057Y014286D01*
X007016Y014270D01*
X006973Y014258D01*
X006930Y014250D01*
X006886Y014246D01*
X006842Y014246D01*
X006798Y014250D01*
X006755Y014258D01*
X006712Y014270D01*
X006671Y014286D01*
X006631Y014305D01*
X006593Y014327D01*
X006557Y014353D01*
X006524Y014382D01*
X006493Y014414D01*
X006466Y014449D01*
X006442Y014486D01*
X006421Y014525D01*
X006403Y014565D01*
X006390Y014607D01*
X006380Y014650D01*
X006374Y014694D01*
X006372Y014738D01*
X006372Y016943D02*
X006374Y016987D01*
X006380Y017031D01*
X006390Y017074D01*
X006403Y017116D01*
X006421Y017156D01*
X006442Y017195D01*
X006466Y017232D01*
X006493Y017267D01*
X006524Y017299D01*
X006557Y017328D01*
X006593Y017354D01*
X006631Y017376D01*
X006671Y017395D01*
X006712Y017411D01*
X006755Y017423D01*
X006798Y017431D01*
X006842Y017435D01*
X006886Y017435D01*
X006930Y017431D01*
X006973Y017423D01*
X007016Y017411D01*
X007057Y017395D01*
X007097Y017376D01*
X007135Y017354D01*
X007171Y017328D01*
X007204Y017299D01*
X007235Y017267D01*
X007262Y017232D01*
X007286Y017195D01*
X007307Y017156D01*
X007325Y017116D01*
X007338Y017074D01*
X007348Y017031D01*
X007354Y016987D01*
X007356Y016943D01*
X007354Y016899D01*
X007348Y016855D01*
X007338Y016812D01*
X007325Y016770D01*
X007307Y016730D01*
X007286Y016691D01*
X007262Y016654D01*
X007235Y016619D01*
X007204Y016587D01*
X007171Y016558D01*
X007135Y016532D01*
X007097Y016510D01*
X007057Y016491D01*
X007016Y016475D01*
X006973Y016463D01*
X006930Y016455D01*
X006886Y016451D01*
X006842Y016451D01*
X006798Y016455D01*
X006755Y016463D01*
X006712Y016475D01*
X006671Y016491D01*
X006631Y016510D01*
X006593Y016532D01*
X006557Y016558D01*
X006524Y016587D01*
X006493Y016619D01*
X006466Y016654D01*
X006442Y016691D01*
X006421Y016730D01*
X006403Y016770D01*
X006390Y016812D01*
X006380Y016855D01*
X006374Y016899D01*
X006372Y016943D01*
X006609Y018506D02*
X006611Y018531D01*
X006617Y018555D01*
X006626Y018577D01*
X006639Y018598D01*
X006655Y018617D01*
X006674Y018633D01*
X006695Y018646D01*
X006717Y018655D01*
X006741Y018661D01*
X006766Y018663D01*
X006791Y018661D01*
X006815Y018655D01*
X006837Y018646D01*
X006858Y018633D01*
X006877Y018617D01*
X006893Y018598D01*
X006906Y018577D01*
X006915Y018555D01*
X006921Y018531D01*
X006923Y018506D01*
X006921Y018481D01*
X006915Y018457D01*
X006906Y018435D01*
X006893Y018414D01*
X006877Y018395D01*
X006858Y018379D01*
X006837Y018366D01*
X006815Y018357D01*
X006791Y018351D01*
X006766Y018349D01*
X006741Y018351D01*
X006717Y018357D01*
X006695Y018366D01*
X006674Y018379D01*
X006655Y018395D01*
X006639Y018414D01*
X006626Y018435D01*
X006617Y018457D01*
X006611Y018481D01*
X006609Y018506D01*
X006766Y018506D02*
X006768Y018531D01*
X006774Y018555D01*
X006783Y018577D01*
X006796Y018598D01*
X006812Y018617D01*
X006831Y018633D01*
X006852Y018646D01*
X006874Y018655D01*
X006898Y018661D01*
X006923Y018663D01*
X006948Y018661D01*
X006972Y018655D01*
X006994Y018646D01*
X007015Y018633D01*
X007034Y018617D01*
X007050Y018598D01*
X007063Y018577D01*
X007072Y018555D01*
X007078Y018531D01*
X007080Y018506D01*
X007078Y018481D01*
X007072Y018457D01*
X007063Y018435D01*
X007050Y018414D01*
X007034Y018395D01*
X007015Y018379D01*
X006994Y018366D01*
X006972Y018357D01*
X006948Y018351D01*
X006923Y018349D01*
X006898Y018351D01*
X006874Y018357D01*
X006852Y018366D01*
X006831Y018379D01*
X006812Y018395D01*
X006796Y018414D01*
X006783Y018435D01*
X006774Y018457D01*
X006768Y018481D01*
X006766Y018506D01*
X007081Y018506D02*
X007083Y018531D01*
X007089Y018555D01*
X007098Y018577D01*
X007111Y018598D01*
X007127Y018617D01*
X007146Y018633D01*
X007167Y018646D01*
X007189Y018655D01*
X007213Y018661D01*
X007238Y018663D01*
X007263Y018661D01*
X007287Y018655D01*
X007309Y018646D01*
X007330Y018633D01*
X007349Y018617D01*
X007365Y018598D01*
X007378Y018577D01*
X007387Y018555D01*
X007393Y018531D01*
X007395Y018506D01*
X007393Y018481D01*
X007387Y018457D01*
X007378Y018435D01*
X007365Y018414D01*
X007349Y018395D01*
X007330Y018379D01*
X007309Y018366D01*
X007287Y018357D01*
X007263Y018351D01*
X007238Y018349D01*
X007213Y018351D01*
X007189Y018357D01*
X007167Y018366D01*
X007146Y018379D01*
X007127Y018395D01*
X007111Y018414D01*
X007098Y018435D01*
X007089Y018457D01*
X007083Y018481D01*
X007081Y018506D01*
X007239Y018506D02*
X007241Y018531D01*
X007247Y018555D01*
X007256Y018577D01*
X007269Y018598D01*
X007285Y018617D01*
X007304Y018633D01*
X007325Y018646D01*
X007347Y018655D01*
X007371Y018661D01*
X007396Y018663D01*
X007421Y018661D01*
X007445Y018655D01*
X007467Y018646D01*
X007488Y018633D01*
X007507Y018617D01*
X007523Y018598D01*
X007536Y018577D01*
X007545Y018555D01*
X007551Y018531D01*
X007553Y018506D01*
X007551Y018481D01*
X007545Y018457D01*
X007536Y018435D01*
X007523Y018414D01*
X007507Y018395D01*
X007488Y018379D01*
X007467Y018366D01*
X007445Y018357D01*
X007421Y018351D01*
X007396Y018349D01*
X007371Y018351D01*
X007347Y018357D01*
X007325Y018366D01*
X007304Y018379D01*
X007285Y018395D01*
X007269Y018414D01*
X007256Y018435D01*
X007247Y018457D01*
X007241Y018481D01*
X007239Y018506D01*
X009817Y015959D02*
X023597Y015959D01*
X023617Y015957D01*
X023637Y015952D01*
X023656Y015943D01*
X023673Y015931D01*
X023687Y015917D01*
X023699Y015900D01*
X023708Y015881D01*
X023713Y015861D01*
X023715Y015841D01*
X023713Y015821D01*
X023708Y015801D01*
X023699Y015782D01*
X023687Y015765D01*
X023673Y015751D01*
X023656Y015739D01*
X023637Y015730D01*
X023617Y015725D01*
X023597Y015723D01*
X009817Y015723D01*
X009797Y015725D01*
X009777Y015730D01*
X009758Y015739D01*
X009741Y015751D01*
X009727Y015765D01*
X009715Y015782D01*
X009706Y015801D01*
X009701Y015821D01*
X009699Y015841D01*
X009701Y015861D01*
X009706Y015881D01*
X009715Y015900D01*
X009727Y015917D01*
X009741Y015931D01*
X009758Y015943D01*
X009777Y015952D01*
X009797Y015957D01*
X009817Y015959D01*
X007239Y023112D02*
X007241Y023137D01*
X007247Y023161D01*
X007256Y023183D01*
X007269Y023204D01*
X007285Y023223D01*
X007304Y023239D01*
X007325Y023252D01*
X007347Y023261D01*
X007371Y023267D01*
X007396Y023269D01*
X007421Y023267D01*
X007445Y023261D01*
X007467Y023252D01*
X007488Y023239D01*
X007507Y023223D01*
X007523Y023204D01*
X007536Y023183D01*
X007545Y023161D01*
X007551Y023137D01*
X007553Y023112D01*
X007551Y023087D01*
X007545Y023063D01*
X007536Y023041D01*
X007523Y023020D01*
X007507Y023001D01*
X007488Y022985D01*
X007467Y022972D01*
X007445Y022963D01*
X007421Y022957D01*
X007396Y022955D01*
X007371Y022957D01*
X007347Y022963D01*
X007325Y022972D01*
X007304Y022985D01*
X007285Y023001D01*
X007269Y023020D01*
X007256Y023041D01*
X007247Y023063D01*
X007241Y023087D01*
X007239Y023112D01*
X007081Y023112D02*
X007083Y023137D01*
X007089Y023161D01*
X007098Y023183D01*
X007111Y023204D01*
X007127Y023223D01*
X007146Y023239D01*
X007167Y023252D01*
X007189Y023261D01*
X007213Y023267D01*
X007238Y023269D01*
X007263Y023267D01*
X007287Y023261D01*
X007309Y023252D01*
X007330Y023239D01*
X007349Y023223D01*
X007365Y023204D01*
X007378Y023183D01*
X007387Y023161D01*
X007393Y023137D01*
X007395Y023112D01*
X007393Y023087D01*
X007387Y023063D01*
X007378Y023041D01*
X007365Y023020D01*
X007349Y023001D01*
X007330Y022985D01*
X007309Y022972D01*
X007287Y022963D01*
X007263Y022957D01*
X007238Y022955D01*
X007213Y022957D01*
X007189Y022963D01*
X007167Y022972D01*
X007146Y022985D01*
X007127Y023001D01*
X007111Y023020D01*
X007098Y023041D01*
X007089Y023063D01*
X007083Y023087D01*
X007081Y023112D01*
X006766Y023112D02*
X006768Y023137D01*
X006774Y023161D01*
X006783Y023183D01*
X006796Y023204D01*
X006812Y023223D01*
X006831Y023239D01*
X006852Y023252D01*
X006874Y023261D01*
X006898Y023267D01*
X006923Y023269D01*
X006948Y023267D01*
X006972Y023261D01*
X006994Y023252D01*
X007015Y023239D01*
X007034Y023223D01*
X007050Y023204D01*
X007063Y023183D01*
X007072Y023161D01*
X007078Y023137D01*
X007080Y023112D01*
X007078Y023087D01*
X007072Y023063D01*
X007063Y023041D01*
X007050Y023020D01*
X007034Y023001D01*
X007015Y022985D01*
X006994Y022972D01*
X006972Y022963D01*
X006948Y022957D01*
X006923Y022955D01*
X006898Y022957D01*
X006874Y022963D01*
X006852Y022972D01*
X006831Y022985D01*
X006812Y023001D01*
X006796Y023020D01*
X006783Y023041D01*
X006774Y023063D01*
X006768Y023087D01*
X006766Y023112D01*
X006609Y023112D02*
X006611Y023137D01*
X006617Y023161D01*
X006626Y023183D01*
X006639Y023204D01*
X006655Y023223D01*
X006674Y023239D01*
X006695Y023252D01*
X006717Y023261D01*
X006741Y023267D01*
X006766Y023269D01*
X006791Y023267D01*
X006815Y023261D01*
X006837Y023252D01*
X006858Y023239D01*
X006877Y023223D01*
X006893Y023204D01*
X006906Y023183D01*
X006915Y023161D01*
X006921Y023137D01*
X006923Y023112D01*
X006921Y023087D01*
X006915Y023063D01*
X006906Y023041D01*
X006893Y023020D01*
X006877Y023001D01*
X006858Y022985D01*
X006837Y022972D01*
X006815Y022963D01*
X006791Y022957D01*
X006766Y022955D01*
X006741Y022957D01*
X006717Y022963D01*
X006695Y022972D01*
X006674Y022985D01*
X006655Y023001D01*
X006639Y023020D01*
X006626Y023041D01*
X006617Y023063D01*
X006611Y023087D01*
X006609Y023112D01*
X006372Y024817D02*
X006374Y024861D01*
X006380Y024905D01*
X006390Y024948D01*
X006403Y024990D01*
X006421Y025030D01*
X006442Y025069D01*
X006466Y025106D01*
X006493Y025141D01*
X006524Y025173D01*
X006557Y025202D01*
X006593Y025228D01*
X006631Y025250D01*
X006671Y025269D01*
X006712Y025285D01*
X006755Y025297D01*
X006798Y025305D01*
X006842Y025309D01*
X006886Y025309D01*
X006930Y025305D01*
X006973Y025297D01*
X007016Y025285D01*
X007057Y025269D01*
X007097Y025250D01*
X007135Y025228D01*
X007171Y025202D01*
X007204Y025173D01*
X007235Y025141D01*
X007262Y025106D01*
X007286Y025069D01*
X007307Y025030D01*
X007325Y024990D01*
X007338Y024948D01*
X007348Y024905D01*
X007354Y024861D01*
X007356Y024817D01*
X007354Y024773D01*
X007348Y024729D01*
X007338Y024686D01*
X007325Y024644D01*
X007307Y024604D01*
X007286Y024565D01*
X007262Y024528D01*
X007235Y024493D01*
X007204Y024461D01*
X007171Y024432D01*
X007135Y024406D01*
X007097Y024384D01*
X007057Y024365D01*
X007016Y024349D01*
X006973Y024337D01*
X006930Y024329D01*
X006886Y024325D01*
X006842Y024325D01*
X006798Y024329D01*
X006755Y024337D01*
X006712Y024349D01*
X006671Y024365D01*
X006631Y024384D01*
X006593Y024406D01*
X006557Y024432D01*
X006524Y024461D01*
X006493Y024493D01*
X006466Y024528D01*
X006442Y024565D01*
X006421Y024604D01*
X006403Y024644D01*
X006390Y024686D01*
X006380Y024729D01*
X006374Y024773D01*
X006372Y024817D01*
X006372Y027022D02*
X006374Y027066D01*
X006380Y027110D01*
X006390Y027153D01*
X006403Y027195D01*
X006421Y027235D01*
X006442Y027274D01*
X006466Y027311D01*
X006493Y027346D01*
X006524Y027378D01*
X006557Y027407D01*
X006593Y027433D01*
X006631Y027455D01*
X006671Y027474D01*
X006712Y027490D01*
X006755Y027502D01*
X006798Y027510D01*
X006842Y027514D01*
X006886Y027514D01*
X006930Y027510D01*
X006973Y027502D01*
X007016Y027490D01*
X007057Y027474D01*
X007097Y027455D01*
X007135Y027433D01*
X007171Y027407D01*
X007204Y027378D01*
X007235Y027346D01*
X007262Y027311D01*
X007286Y027274D01*
X007307Y027235D01*
X007325Y027195D01*
X007338Y027153D01*
X007348Y027110D01*
X007354Y027066D01*
X007356Y027022D01*
X007354Y026978D01*
X007348Y026934D01*
X007338Y026891D01*
X007325Y026849D01*
X007307Y026809D01*
X007286Y026770D01*
X007262Y026733D01*
X007235Y026698D01*
X007204Y026666D01*
X007171Y026637D01*
X007135Y026611D01*
X007097Y026589D01*
X007057Y026570D01*
X007016Y026554D01*
X006973Y026542D01*
X006930Y026534D01*
X006886Y026530D01*
X006842Y026530D01*
X006798Y026534D01*
X006755Y026542D01*
X006712Y026554D01*
X006671Y026570D01*
X006631Y026589D01*
X006593Y026611D01*
X006557Y026637D01*
X006524Y026666D01*
X006493Y026698D01*
X006466Y026733D01*
X006442Y026770D01*
X006421Y026809D01*
X006403Y026849D01*
X006390Y026891D01*
X006380Y026934D01*
X006374Y026978D01*
X006372Y027022D01*
X006609Y028584D02*
X006611Y028609D01*
X006617Y028633D01*
X006626Y028655D01*
X006639Y028676D01*
X006655Y028695D01*
X006674Y028711D01*
X006695Y028724D01*
X006717Y028733D01*
X006741Y028739D01*
X006766Y028741D01*
X006791Y028739D01*
X006815Y028733D01*
X006837Y028724D01*
X006858Y028711D01*
X006877Y028695D01*
X006893Y028676D01*
X006906Y028655D01*
X006915Y028633D01*
X006921Y028609D01*
X006923Y028584D01*
X006921Y028559D01*
X006915Y028535D01*
X006906Y028513D01*
X006893Y028492D01*
X006877Y028473D01*
X006858Y028457D01*
X006837Y028444D01*
X006815Y028435D01*
X006791Y028429D01*
X006766Y028427D01*
X006741Y028429D01*
X006717Y028435D01*
X006695Y028444D01*
X006674Y028457D01*
X006655Y028473D01*
X006639Y028492D01*
X006626Y028513D01*
X006617Y028535D01*
X006611Y028559D01*
X006609Y028584D01*
X006766Y028584D02*
X006768Y028609D01*
X006774Y028633D01*
X006783Y028655D01*
X006796Y028676D01*
X006812Y028695D01*
X006831Y028711D01*
X006852Y028724D01*
X006874Y028733D01*
X006898Y028739D01*
X006923Y028741D01*
X006948Y028739D01*
X006972Y028733D01*
X006994Y028724D01*
X007015Y028711D01*
X007034Y028695D01*
X007050Y028676D01*
X007063Y028655D01*
X007072Y028633D01*
X007078Y028609D01*
X007080Y028584D01*
X007078Y028559D01*
X007072Y028535D01*
X007063Y028513D01*
X007050Y028492D01*
X007034Y028473D01*
X007015Y028457D01*
X006994Y028444D01*
X006972Y028435D01*
X006948Y028429D01*
X006923Y028427D01*
X006898Y028429D01*
X006874Y028435D01*
X006852Y028444D01*
X006831Y028457D01*
X006812Y028473D01*
X006796Y028492D01*
X006783Y028513D01*
X006774Y028535D01*
X006768Y028559D01*
X006766Y028584D01*
X007081Y028584D02*
X007083Y028609D01*
X007089Y028633D01*
X007098Y028655D01*
X007111Y028676D01*
X007127Y028695D01*
X007146Y028711D01*
X007167Y028724D01*
X007189Y028733D01*
X007213Y028739D01*
X007238Y028741D01*
X007263Y028739D01*
X007287Y028733D01*
X007309Y028724D01*
X007330Y028711D01*
X007349Y028695D01*
X007365Y028676D01*
X007378Y028655D01*
X007387Y028633D01*
X007393Y028609D01*
X007395Y028584D01*
X007393Y028559D01*
X007387Y028535D01*
X007378Y028513D01*
X007365Y028492D01*
X007349Y028473D01*
X007330Y028457D01*
X007309Y028444D01*
X007287Y028435D01*
X007263Y028429D01*
X007238Y028427D01*
X007213Y028429D01*
X007189Y028435D01*
X007167Y028444D01*
X007146Y028457D01*
X007127Y028473D01*
X007111Y028492D01*
X007098Y028513D01*
X007089Y028535D01*
X007083Y028559D01*
X007081Y028584D01*
X007239Y028584D02*
X007241Y028609D01*
X007247Y028633D01*
X007256Y028655D01*
X007269Y028676D01*
X007285Y028695D01*
X007304Y028711D01*
X007325Y028724D01*
X007347Y028733D01*
X007371Y028739D01*
X007396Y028741D01*
X007421Y028739D01*
X007445Y028733D01*
X007467Y028724D01*
X007488Y028711D01*
X007507Y028695D01*
X007523Y028676D01*
X007536Y028655D01*
X007545Y028633D01*
X007551Y028609D01*
X007553Y028584D01*
X007551Y028559D01*
X007545Y028535D01*
X007536Y028513D01*
X007523Y028492D01*
X007507Y028473D01*
X007488Y028457D01*
X007467Y028444D01*
X007445Y028435D01*
X007421Y028429D01*
X007396Y028427D01*
X007371Y028429D01*
X007347Y028435D01*
X007325Y028444D01*
X007304Y028457D01*
X007285Y028473D01*
X007269Y028492D01*
X007256Y028513D01*
X007247Y028535D01*
X007241Y028559D01*
X007239Y028584D01*
X009817Y026038D02*
X023597Y026038D01*
X023617Y026036D01*
X023637Y026031D01*
X023656Y026022D01*
X023673Y026010D01*
X023687Y025996D01*
X023699Y025979D01*
X023708Y025960D01*
X023713Y025940D01*
X023715Y025920D01*
X023713Y025900D01*
X023708Y025880D01*
X023699Y025861D01*
X023687Y025844D01*
X023673Y025830D01*
X023656Y025818D01*
X023637Y025809D01*
X023617Y025804D01*
X023597Y025802D01*
X023597Y025801D02*
X009817Y025801D01*
X009817Y025802D02*
X009797Y025804D01*
X009777Y025809D01*
X009758Y025818D01*
X009741Y025830D01*
X009727Y025844D01*
X009715Y025861D01*
X009706Y025880D01*
X009701Y025900D01*
X009699Y025920D01*
X009701Y025940D01*
X009706Y025960D01*
X009715Y025979D01*
X009727Y025996D01*
X009741Y026010D01*
X009758Y026022D01*
X009777Y026031D01*
X009797Y026036D01*
X009817Y026038D01*
X007239Y033191D02*
X007241Y033216D01*
X007247Y033240D01*
X007256Y033262D01*
X007269Y033283D01*
X007285Y033302D01*
X007304Y033318D01*
X007325Y033331D01*
X007347Y033340D01*
X007371Y033346D01*
X007396Y033348D01*
X007421Y033346D01*
X007445Y033340D01*
X007467Y033331D01*
X007488Y033318D01*
X007507Y033302D01*
X007523Y033283D01*
X007536Y033262D01*
X007545Y033240D01*
X007551Y033216D01*
X007553Y033191D01*
X007551Y033166D01*
X007545Y033142D01*
X007536Y033120D01*
X007523Y033099D01*
X007507Y033080D01*
X007488Y033064D01*
X007467Y033051D01*
X007445Y033042D01*
X007421Y033036D01*
X007396Y033034D01*
X007371Y033036D01*
X007347Y033042D01*
X007325Y033051D01*
X007304Y033064D01*
X007285Y033080D01*
X007269Y033099D01*
X007256Y033120D01*
X007247Y033142D01*
X007241Y033166D01*
X007239Y033191D01*
X007081Y033191D02*
X007083Y033216D01*
X007089Y033240D01*
X007098Y033262D01*
X007111Y033283D01*
X007127Y033302D01*
X007146Y033318D01*
X007167Y033331D01*
X007189Y033340D01*
X007213Y033346D01*
X007238Y033348D01*
X007263Y033346D01*
X007287Y033340D01*
X007309Y033331D01*
X007330Y033318D01*
X007349Y033302D01*
X007365Y033283D01*
X007378Y033262D01*
X007387Y033240D01*
X007393Y033216D01*
X007395Y033191D01*
X007393Y033166D01*
X007387Y033142D01*
X007378Y033120D01*
X007365Y033099D01*
X007349Y033080D01*
X007330Y033064D01*
X007309Y033051D01*
X007287Y033042D01*
X007263Y033036D01*
X007238Y033034D01*
X007213Y033036D01*
X007189Y033042D01*
X007167Y033051D01*
X007146Y033064D01*
X007127Y033080D01*
X007111Y033099D01*
X007098Y033120D01*
X007089Y033142D01*
X007083Y033166D01*
X007081Y033191D01*
X006766Y033191D02*
X006768Y033216D01*
X006774Y033240D01*
X006783Y033262D01*
X006796Y033283D01*
X006812Y033302D01*
X006831Y033318D01*
X006852Y033331D01*
X006874Y033340D01*
X006898Y033346D01*
X006923Y033348D01*
X006948Y033346D01*
X006972Y033340D01*
X006994Y033331D01*
X007015Y033318D01*
X007034Y033302D01*
X007050Y033283D01*
X007063Y033262D01*
X007072Y033240D01*
X007078Y033216D01*
X007080Y033191D01*
X007078Y033166D01*
X007072Y033142D01*
X007063Y033120D01*
X007050Y033099D01*
X007034Y033080D01*
X007015Y033064D01*
X006994Y033051D01*
X006972Y033042D01*
X006948Y033036D01*
X006923Y033034D01*
X006898Y033036D01*
X006874Y033042D01*
X006852Y033051D01*
X006831Y033064D01*
X006812Y033080D01*
X006796Y033099D01*
X006783Y033120D01*
X006774Y033142D01*
X006768Y033166D01*
X006766Y033191D01*
X006609Y033191D02*
X006611Y033216D01*
X006617Y033240D01*
X006626Y033262D01*
X006639Y033283D01*
X006655Y033302D01*
X006674Y033318D01*
X006695Y033331D01*
X006717Y033340D01*
X006741Y033346D01*
X006766Y033348D01*
X006791Y033346D01*
X006815Y033340D01*
X006837Y033331D01*
X006858Y033318D01*
X006877Y033302D01*
X006893Y033283D01*
X006906Y033262D01*
X006915Y033240D01*
X006921Y033216D01*
X006923Y033191D01*
X006921Y033166D01*
X006915Y033142D01*
X006906Y033120D01*
X006893Y033099D01*
X006877Y033080D01*
X006858Y033064D01*
X006837Y033051D01*
X006815Y033042D01*
X006791Y033036D01*
X006766Y033034D01*
X006741Y033036D01*
X006717Y033042D01*
X006695Y033051D01*
X006674Y033064D01*
X006655Y033080D01*
X006639Y033099D01*
X006626Y033120D01*
X006617Y033142D01*
X006611Y033166D01*
X006609Y033191D01*
X006372Y034896D02*
X006374Y034940D01*
X006380Y034984D01*
X006390Y035027D01*
X006403Y035069D01*
X006421Y035109D01*
X006442Y035148D01*
X006466Y035185D01*
X006493Y035220D01*
X006524Y035252D01*
X006557Y035281D01*
X006593Y035307D01*
X006631Y035329D01*
X006671Y035348D01*
X006712Y035364D01*
X006755Y035376D01*
X006798Y035384D01*
X006842Y035388D01*
X006886Y035388D01*
X006930Y035384D01*
X006973Y035376D01*
X007016Y035364D01*
X007057Y035348D01*
X007097Y035329D01*
X007135Y035307D01*
X007171Y035281D01*
X007204Y035252D01*
X007235Y035220D01*
X007262Y035185D01*
X007286Y035148D01*
X007307Y035109D01*
X007325Y035069D01*
X007338Y035027D01*
X007348Y034984D01*
X007354Y034940D01*
X007356Y034896D01*
X007354Y034852D01*
X007348Y034808D01*
X007338Y034765D01*
X007325Y034723D01*
X007307Y034683D01*
X007286Y034644D01*
X007262Y034607D01*
X007235Y034572D01*
X007204Y034540D01*
X007171Y034511D01*
X007135Y034485D01*
X007097Y034463D01*
X007057Y034444D01*
X007016Y034428D01*
X006973Y034416D01*
X006930Y034408D01*
X006886Y034404D01*
X006842Y034404D01*
X006798Y034408D01*
X006755Y034416D01*
X006712Y034428D01*
X006671Y034444D01*
X006631Y034463D01*
X006593Y034485D01*
X006557Y034511D01*
X006524Y034540D01*
X006493Y034572D01*
X006466Y034607D01*
X006442Y034644D01*
X006421Y034683D01*
X006403Y034723D01*
X006390Y034765D01*
X006380Y034808D01*
X006374Y034852D01*
X006372Y034896D01*
X025565Y026038D02*
X029286Y026038D01*
X029207Y025801D02*
X025565Y025801D01*
X025565Y025802D02*
X025545Y025804D01*
X025525Y025809D01*
X025506Y025818D01*
X025489Y025830D01*
X025475Y025844D01*
X025463Y025861D01*
X025454Y025880D01*
X025449Y025900D01*
X025447Y025920D01*
X025449Y025940D01*
X025454Y025960D01*
X025463Y025979D01*
X025475Y025996D01*
X025489Y026010D01*
X025506Y026022D01*
X025525Y026031D01*
X025545Y026036D01*
X025565Y026038D01*
X028223Y027022D02*
X028225Y027066D01*
X028231Y027110D01*
X028241Y027153D01*
X028254Y027195D01*
X028272Y027235D01*
X028293Y027274D01*
X028317Y027311D01*
X028344Y027346D01*
X028375Y027378D01*
X028408Y027407D01*
X028444Y027433D01*
X028482Y027455D01*
X028522Y027474D01*
X028563Y027490D01*
X028606Y027502D01*
X028649Y027510D01*
X028693Y027514D01*
X028737Y027514D01*
X028781Y027510D01*
X028824Y027502D01*
X028867Y027490D01*
X028908Y027474D01*
X028948Y027455D01*
X028986Y027433D01*
X029022Y027407D01*
X029055Y027378D01*
X029086Y027346D01*
X029113Y027311D01*
X029137Y027274D01*
X029158Y027235D01*
X029176Y027195D01*
X029189Y027153D01*
X029199Y027110D01*
X029205Y027066D01*
X029207Y027022D01*
X029205Y026978D01*
X029199Y026934D01*
X029189Y026891D01*
X029176Y026849D01*
X029158Y026809D01*
X029137Y026770D01*
X029113Y026733D01*
X029086Y026698D01*
X029055Y026666D01*
X029022Y026637D01*
X028986Y026611D01*
X028948Y026589D01*
X028908Y026570D01*
X028867Y026554D01*
X028824Y026542D01*
X028781Y026534D01*
X028737Y026530D01*
X028693Y026530D01*
X028649Y026534D01*
X028606Y026542D01*
X028563Y026554D01*
X028522Y026570D01*
X028482Y026589D01*
X028444Y026611D01*
X028408Y026637D01*
X028375Y026666D01*
X028344Y026698D01*
X028317Y026733D01*
X028293Y026770D01*
X028272Y026809D01*
X028254Y026849D01*
X028241Y026891D01*
X028231Y026934D01*
X028225Y026978D01*
X028223Y027022D01*
X029285Y026037D02*
X029322Y026043D01*
X029358Y026053D01*
X029393Y026067D01*
X029426Y026084D01*
X029458Y026104D01*
X029486Y026128D01*
X029513Y026155D01*
X029536Y026184D01*
X029556Y026215D01*
X029573Y026249D01*
X029586Y026284D01*
X029596Y026320D01*
X029601Y026357D01*
X029603Y026394D01*
X029601Y026431D01*
X029601Y026372D02*
X029603Y026392D01*
X029608Y026412D01*
X029617Y026431D01*
X029629Y026448D01*
X029643Y026462D01*
X029660Y026474D01*
X029679Y026483D01*
X029699Y026488D01*
X029719Y026490D01*
X029739Y026488D01*
X029759Y026483D01*
X029778Y026474D01*
X029795Y026462D01*
X029809Y026448D01*
X029821Y026431D01*
X029830Y026412D01*
X029835Y026392D01*
X029837Y026372D01*
X029837Y010703D01*
X029835Y010683D01*
X029830Y010663D01*
X029821Y010644D01*
X029809Y010627D01*
X029795Y010613D01*
X029778Y010601D01*
X029759Y010592D01*
X029739Y010587D01*
X029719Y010585D01*
X029699Y010587D01*
X029679Y010592D01*
X029660Y010601D01*
X029643Y010613D01*
X029629Y010627D01*
X029617Y010644D01*
X029608Y010663D01*
X029603Y010683D01*
X029601Y010703D01*
X029601Y015408D01*
X029601Y015407D02*
X029595Y015444D01*
X029585Y015480D01*
X029571Y015515D01*
X029554Y015548D01*
X029534Y015580D01*
X029510Y015608D01*
X029483Y015635D01*
X029454Y015658D01*
X029423Y015678D01*
X029389Y015695D01*
X029354Y015708D01*
X029318Y015718D01*
X029281Y015723D01*
X029244Y015725D01*
X029207Y015723D01*
X025565Y015723D01*
X025545Y015725D01*
X025525Y015730D01*
X025506Y015739D01*
X025489Y015751D01*
X025475Y015765D01*
X025463Y015782D01*
X025454Y015801D01*
X025449Y015821D01*
X025447Y015841D01*
X025449Y015861D01*
X025454Y015881D01*
X025463Y015900D01*
X025475Y015917D01*
X025489Y015931D01*
X025506Y015943D01*
X025525Y015952D01*
X025545Y015957D01*
X025565Y015959D01*
X029286Y015959D01*
X029285Y015958D02*
X029322Y015964D01*
X029358Y015974D01*
X029393Y015988D01*
X029426Y016005D01*
X029458Y016025D01*
X029486Y016049D01*
X029513Y016076D01*
X029536Y016105D01*
X029556Y016136D01*
X029573Y016170D01*
X029586Y016205D01*
X029596Y016241D01*
X029601Y016278D01*
X029603Y016315D01*
X029601Y016352D01*
X029601Y016353D02*
X029601Y025486D01*
X029595Y025523D01*
X029585Y025559D01*
X029571Y025594D01*
X029554Y025627D01*
X029534Y025659D01*
X029510Y025687D01*
X029483Y025714D01*
X029454Y025737D01*
X029423Y025757D01*
X029389Y025774D01*
X029354Y025787D01*
X029318Y025797D01*
X029281Y025802D01*
X029244Y025804D01*
X029207Y025802D01*
X028223Y024817D02*
X028225Y024861D01*
X028231Y024905D01*
X028241Y024948D01*
X028254Y024990D01*
X028272Y025030D01*
X028293Y025069D01*
X028317Y025106D01*
X028344Y025141D01*
X028375Y025173D01*
X028408Y025202D01*
X028444Y025228D01*
X028482Y025250D01*
X028522Y025269D01*
X028563Y025285D01*
X028606Y025297D01*
X028649Y025305D01*
X028693Y025309D01*
X028737Y025309D01*
X028781Y025305D01*
X028824Y025297D01*
X028867Y025285D01*
X028908Y025269D01*
X028948Y025250D01*
X028986Y025228D01*
X029022Y025202D01*
X029055Y025173D01*
X029086Y025141D01*
X029113Y025106D01*
X029137Y025069D01*
X029158Y025030D01*
X029176Y024990D01*
X029189Y024948D01*
X029199Y024905D01*
X029205Y024861D01*
X029207Y024817D01*
X029205Y024773D01*
X029199Y024729D01*
X029189Y024686D01*
X029176Y024644D01*
X029158Y024604D01*
X029137Y024565D01*
X029113Y024528D01*
X029086Y024493D01*
X029055Y024461D01*
X029022Y024432D01*
X028986Y024406D01*
X028948Y024384D01*
X028908Y024365D01*
X028867Y024349D01*
X028824Y024337D01*
X028781Y024329D01*
X028737Y024325D01*
X028693Y024325D01*
X028649Y024329D01*
X028606Y024337D01*
X028563Y024349D01*
X028522Y024365D01*
X028482Y024384D01*
X028444Y024406D01*
X028408Y024432D01*
X028375Y024461D01*
X028344Y024493D01*
X028317Y024528D01*
X028293Y024565D01*
X028272Y024604D01*
X028254Y024644D01*
X028241Y024686D01*
X028231Y024729D01*
X028225Y024773D01*
X028223Y024817D01*
X030388Y028715D02*
X030390Y028759D01*
X030396Y028803D01*
X030406Y028846D01*
X030419Y028888D01*
X030437Y028928D01*
X030458Y028967D01*
X030482Y029004D01*
X030509Y029039D01*
X030540Y029071D01*
X030573Y029100D01*
X030609Y029126D01*
X030647Y029148D01*
X030687Y029167D01*
X030728Y029183D01*
X030771Y029195D01*
X030814Y029203D01*
X030858Y029207D01*
X030902Y029207D01*
X030946Y029203D01*
X030989Y029195D01*
X031032Y029183D01*
X031073Y029167D01*
X031113Y029148D01*
X031151Y029126D01*
X031187Y029100D01*
X031220Y029071D01*
X031251Y029039D01*
X031278Y029004D01*
X031302Y028967D01*
X031323Y028928D01*
X031341Y028888D01*
X031354Y028846D01*
X031364Y028803D01*
X031370Y028759D01*
X031372Y028715D01*
X031370Y028671D01*
X031364Y028627D01*
X031354Y028584D01*
X031341Y028542D01*
X031323Y028502D01*
X031302Y028463D01*
X031278Y028426D01*
X031251Y028391D01*
X031220Y028359D01*
X031187Y028330D01*
X031151Y028304D01*
X031113Y028282D01*
X031073Y028263D01*
X031032Y028247D01*
X030989Y028235D01*
X030946Y028227D01*
X030902Y028223D01*
X030858Y028223D01*
X030814Y028227D01*
X030771Y028235D01*
X030728Y028247D01*
X030687Y028263D01*
X030647Y028282D01*
X030609Y028304D01*
X030573Y028330D01*
X030540Y028359D01*
X030509Y028391D01*
X030482Y028426D01*
X030458Y028463D01*
X030437Y028502D01*
X030419Y028542D01*
X030406Y028584D01*
X030396Y028627D01*
X030390Y028671D01*
X030388Y028715D01*
X028223Y034896D02*
X028225Y034940D01*
X028231Y034984D01*
X028241Y035027D01*
X028254Y035069D01*
X028272Y035109D01*
X028293Y035148D01*
X028317Y035185D01*
X028344Y035220D01*
X028375Y035252D01*
X028408Y035281D01*
X028444Y035307D01*
X028482Y035329D01*
X028522Y035348D01*
X028563Y035364D01*
X028606Y035376D01*
X028649Y035384D01*
X028693Y035388D01*
X028737Y035388D01*
X028781Y035384D01*
X028824Y035376D01*
X028867Y035364D01*
X028908Y035348D01*
X028948Y035329D01*
X028986Y035307D01*
X029022Y035281D01*
X029055Y035252D01*
X029086Y035220D01*
X029113Y035185D01*
X029137Y035148D01*
X029158Y035109D01*
X029176Y035069D01*
X029189Y035027D01*
X029199Y034984D01*
X029205Y034940D01*
X029207Y034896D01*
X029205Y034852D01*
X029199Y034808D01*
X029189Y034765D01*
X029176Y034723D01*
X029158Y034683D01*
X029137Y034644D01*
X029113Y034607D01*
X029086Y034572D01*
X029055Y034540D01*
X029022Y034511D01*
X028986Y034485D01*
X028948Y034463D01*
X028908Y034444D01*
X028867Y034428D01*
X028824Y034416D01*
X028781Y034408D01*
X028737Y034404D01*
X028693Y034404D01*
X028649Y034408D01*
X028606Y034416D01*
X028563Y034428D01*
X028522Y034444D01*
X028482Y034463D01*
X028444Y034485D01*
X028408Y034511D01*
X028375Y034540D01*
X028344Y034572D01*
X028317Y034607D01*
X028293Y034644D01*
X028272Y034683D01*
X028254Y034723D01*
X028241Y034765D01*
X028231Y034808D01*
X028225Y034852D01*
X028223Y034896D01*
X038262Y028715D02*
X038264Y028759D01*
X038270Y028803D01*
X038280Y028846D01*
X038293Y028888D01*
X038311Y028928D01*
X038332Y028967D01*
X038356Y029004D01*
X038383Y029039D01*
X038414Y029071D01*
X038447Y029100D01*
X038483Y029126D01*
X038521Y029148D01*
X038561Y029167D01*
X038602Y029183D01*
X038645Y029195D01*
X038688Y029203D01*
X038732Y029207D01*
X038776Y029207D01*
X038820Y029203D01*
X038863Y029195D01*
X038906Y029183D01*
X038947Y029167D01*
X038987Y029148D01*
X039025Y029126D01*
X039061Y029100D01*
X039094Y029071D01*
X039125Y029039D01*
X039152Y029004D01*
X039176Y028967D01*
X039197Y028928D01*
X039215Y028888D01*
X039228Y028846D01*
X039238Y028803D01*
X039244Y028759D01*
X039246Y028715D01*
X039244Y028671D01*
X039238Y028627D01*
X039228Y028584D01*
X039215Y028542D01*
X039197Y028502D01*
X039176Y028463D01*
X039152Y028426D01*
X039125Y028391D01*
X039094Y028359D01*
X039061Y028330D01*
X039025Y028304D01*
X038987Y028282D01*
X038947Y028263D01*
X038906Y028247D01*
X038863Y028235D01*
X038820Y028227D01*
X038776Y028223D01*
X038732Y028223D01*
X038688Y028227D01*
X038645Y028235D01*
X038602Y028247D01*
X038561Y028263D01*
X038521Y028282D01*
X038483Y028304D01*
X038447Y028330D01*
X038414Y028359D01*
X038383Y028391D01*
X038356Y028426D01*
X038332Y028463D01*
X038311Y028502D01*
X038293Y028542D01*
X038280Y028584D01*
X038270Y028627D01*
X038264Y028671D01*
X038262Y028715D01*
X028223Y016943D02*
X028225Y016987D01*
X028231Y017031D01*
X028241Y017074D01*
X028254Y017116D01*
X028272Y017156D01*
X028293Y017195D01*
X028317Y017232D01*
X028344Y017267D01*
X028375Y017299D01*
X028408Y017328D01*
X028444Y017354D01*
X028482Y017376D01*
X028522Y017395D01*
X028563Y017411D01*
X028606Y017423D01*
X028649Y017431D01*
X028693Y017435D01*
X028737Y017435D01*
X028781Y017431D01*
X028824Y017423D01*
X028867Y017411D01*
X028908Y017395D01*
X028948Y017376D01*
X028986Y017354D01*
X029022Y017328D01*
X029055Y017299D01*
X029086Y017267D01*
X029113Y017232D01*
X029137Y017195D01*
X029158Y017156D01*
X029176Y017116D01*
X029189Y017074D01*
X029199Y017031D01*
X029205Y016987D01*
X029207Y016943D01*
X029205Y016899D01*
X029199Y016855D01*
X029189Y016812D01*
X029176Y016770D01*
X029158Y016730D01*
X029137Y016691D01*
X029113Y016654D01*
X029086Y016619D01*
X029055Y016587D01*
X029022Y016558D01*
X028986Y016532D01*
X028948Y016510D01*
X028908Y016491D01*
X028867Y016475D01*
X028824Y016463D01*
X028781Y016455D01*
X028737Y016451D01*
X028693Y016451D01*
X028649Y016455D01*
X028606Y016463D01*
X028563Y016475D01*
X028522Y016491D01*
X028482Y016510D01*
X028444Y016532D01*
X028408Y016558D01*
X028375Y016587D01*
X028344Y016619D01*
X028317Y016654D01*
X028293Y016691D01*
X028272Y016730D01*
X028254Y016770D01*
X028241Y016812D01*
X028231Y016855D01*
X028225Y016899D01*
X028223Y016943D01*
X028223Y014738D02*
X028225Y014782D01*
X028231Y014826D01*
X028241Y014869D01*
X028254Y014911D01*
X028272Y014951D01*
X028293Y014990D01*
X028317Y015027D01*
X028344Y015062D01*
X028375Y015094D01*
X028408Y015123D01*
X028444Y015149D01*
X028482Y015171D01*
X028522Y015190D01*
X028563Y015206D01*
X028606Y015218D01*
X028649Y015226D01*
X028693Y015230D01*
X028737Y015230D01*
X028781Y015226D01*
X028824Y015218D01*
X028867Y015206D01*
X028908Y015190D01*
X028948Y015171D01*
X028986Y015149D01*
X029022Y015123D01*
X029055Y015094D01*
X029086Y015062D01*
X029113Y015027D01*
X029137Y014990D01*
X029158Y014951D01*
X029176Y014911D01*
X029189Y014869D01*
X029199Y014826D01*
X029205Y014782D01*
X029207Y014738D01*
X029205Y014694D01*
X029199Y014650D01*
X029189Y014607D01*
X029176Y014565D01*
X029158Y014525D01*
X029137Y014486D01*
X029113Y014449D01*
X029086Y014414D01*
X029055Y014382D01*
X029022Y014353D01*
X028986Y014327D01*
X028948Y014305D01*
X028908Y014286D01*
X028867Y014270D01*
X028824Y014258D01*
X028781Y014250D01*
X028737Y014246D01*
X028693Y014246D01*
X028649Y014250D01*
X028606Y014258D01*
X028563Y014270D01*
X028522Y014286D01*
X028482Y014305D01*
X028444Y014327D01*
X028408Y014353D01*
X028375Y014382D01*
X028344Y014414D01*
X028317Y014449D01*
X028293Y014486D01*
X028272Y014525D01*
X028254Y014565D01*
X028241Y014607D01*
X028231Y014650D01*
X028225Y014694D01*
X028223Y014738D01*
X032428Y007396D02*
X032430Y007421D01*
X032436Y007445D01*
X032445Y007467D01*
X032458Y007488D01*
X032474Y007507D01*
X032493Y007523D01*
X032514Y007536D01*
X032536Y007545D01*
X032560Y007551D01*
X032585Y007553D01*
X032610Y007551D01*
X032634Y007545D01*
X032656Y007536D01*
X032677Y007523D01*
X032696Y007507D01*
X032712Y007488D01*
X032725Y007467D01*
X032734Y007445D01*
X032740Y007421D01*
X032742Y007396D01*
X032740Y007371D01*
X032734Y007347D01*
X032725Y007325D01*
X032712Y007304D01*
X032696Y007285D01*
X032677Y007269D01*
X032656Y007256D01*
X032634Y007247D01*
X032610Y007241D01*
X032585Y007239D01*
X032560Y007241D01*
X032536Y007247D01*
X032514Y007256D01*
X032493Y007269D01*
X032474Y007285D01*
X032458Y007304D01*
X032445Y007325D01*
X032436Y007347D01*
X032430Y007371D01*
X032428Y007396D01*
X032428Y007238D02*
X032430Y007263D01*
X032436Y007287D01*
X032445Y007309D01*
X032458Y007330D01*
X032474Y007349D01*
X032493Y007365D01*
X032514Y007378D01*
X032536Y007387D01*
X032560Y007393D01*
X032585Y007395D01*
X032610Y007393D01*
X032634Y007387D01*
X032656Y007378D01*
X032677Y007365D01*
X032696Y007349D01*
X032712Y007330D01*
X032725Y007309D01*
X032734Y007287D01*
X032740Y007263D01*
X032742Y007238D01*
X032740Y007213D01*
X032734Y007189D01*
X032725Y007167D01*
X032712Y007146D01*
X032696Y007127D01*
X032677Y007111D01*
X032656Y007098D01*
X032634Y007089D01*
X032610Y007083D01*
X032585Y007081D01*
X032560Y007083D01*
X032536Y007089D01*
X032514Y007098D01*
X032493Y007111D01*
X032474Y007127D01*
X032458Y007146D01*
X032445Y007167D01*
X032436Y007189D01*
X032430Y007213D01*
X032428Y007238D01*
X032428Y006923D02*
X032430Y006948D01*
X032436Y006972D01*
X032445Y006994D01*
X032458Y007015D01*
X032474Y007034D01*
X032493Y007050D01*
X032514Y007063D01*
X032536Y007072D01*
X032560Y007078D01*
X032585Y007080D01*
X032610Y007078D01*
X032634Y007072D01*
X032656Y007063D01*
X032677Y007050D01*
X032696Y007034D01*
X032712Y007015D01*
X032725Y006994D01*
X032734Y006972D01*
X032740Y006948D01*
X032742Y006923D01*
X032740Y006898D01*
X032734Y006874D01*
X032725Y006852D01*
X032712Y006831D01*
X032696Y006812D01*
X032677Y006796D01*
X032656Y006783D01*
X032634Y006774D01*
X032610Y006768D01*
X032585Y006766D01*
X032560Y006768D01*
X032536Y006774D01*
X032514Y006783D01*
X032493Y006796D01*
X032474Y006812D01*
X032458Y006831D01*
X032445Y006852D01*
X032436Y006874D01*
X032430Y006898D01*
X032428Y006923D01*
X032428Y006766D02*
X032430Y006791D01*
X032436Y006815D01*
X032445Y006837D01*
X032458Y006858D01*
X032474Y006877D01*
X032493Y006893D01*
X032514Y006906D01*
X032536Y006915D01*
X032560Y006921D01*
X032585Y006923D01*
X032610Y006921D01*
X032634Y006915D01*
X032656Y006906D01*
X032677Y006893D01*
X032696Y006877D01*
X032712Y006858D01*
X032725Y006837D01*
X032734Y006815D01*
X032740Y006791D01*
X032742Y006766D01*
X032740Y006741D01*
X032734Y006717D01*
X032725Y006695D01*
X032712Y006674D01*
X032696Y006655D01*
X032677Y006639D01*
X032656Y006626D01*
X032634Y006617D01*
X032610Y006611D01*
X032585Y006609D01*
X032560Y006611D01*
X032536Y006617D01*
X032514Y006626D01*
X032493Y006639D01*
X032474Y006655D01*
X032458Y006674D01*
X032445Y006695D01*
X032436Y006717D01*
X032430Y006741D01*
X032428Y006766D01*
X030388Y006864D02*
X030390Y006908D01*
X030396Y006952D01*
X030406Y006995D01*
X030419Y007037D01*
X030437Y007077D01*
X030458Y007116D01*
X030482Y007153D01*
X030509Y007188D01*
X030540Y007220D01*
X030573Y007249D01*
X030609Y007275D01*
X030647Y007297D01*
X030687Y007316D01*
X030728Y007332D01*
X030771Y007344D01*
X030814Y007352D01*
X030858Y007356D01*
X030902Y007356D01*
X030946Y007352D01*
X030989Y007344D01*
X031032Y007332D01*
X031073Y007316D01*
X031113Y007297D01*
X031151Y007275D01*
X031187Y007249D01*
X031220Y007220D01*
X031251Y007188D01*
X031278Y007153D01*
X031302Y007116D01*
X031323Y007077D01*
X031341Y007037D01*
X031354Y006995D01*
X031364Y006952D01*
X031370Y006908D01*
X031372Y006864D01*
X031370Y006820D01*
X031364Y006776D01*
X031354Y006733D01*
X031341Y006691D01*
X031323Y006651D01*
X031302Y006612D01*
X031278Y006575D01*
X031251Y006540D01*
X031220Y006508D01*
X031187Y006479D01*
X031151Y006453D01*
X031113Y006431D01*
X031073Y006412D01*
X031032Y006396D01*
X030989Y006384D01*
X030946Y006376D01*
X030902Y006372D01*
X030858Y006372D01*
X030814Y006376D01*
X030771Y006384D01*
X030728Y006396D01*
X030687Y006412D01*
X030647Y006431D01*
X030609Y006453D01*
X030573Y006479D01*
X030540Y006508D01*
X030509Y006540D01*
X030482Y006575D01*
X030458Y006612D01*
X030437Y006651D01*
X030419Y006691D01*
X030406Y006733D01*
X030396Y006776D01*
X030390Y006820D01*
X030388Y006864D01*
X028223Y006864D02*
X028225Y006908D01*
X028231Y006952D01*
X028241Y006995D01*
X028254Y007037D01*
X028272Y007077D01*
X028293Y007116D01*
X028317Y007153D01*
X028344Y007188D01*
X028375Y007220D01*
X028408Y007249D01*
X028444Y007275D01*
X028482Y007297D01*
X028522Y007316D01*
X028563Y007332D01*
X028606Y007344D01*
X028649Y007352D01*
X028693Y007356D01*
X028737Y007356D01*
X028781Y007352D01*
X028824Y007344D01*
X028867Y007332D01*
X028908Y007316D01*
X028948Y007297D01*
X028986Y007275D01*
X029022Y007249D01*
X029055Y007220D01*
X029086Y007188D01*
X029113Y007153D01*
X029137Y007116D01*
X029158Y007077D01*
X029176Y007037D01*
X029189Y006995D01*
X029199Y006952D01*
X029205Y006908D01*
X029207Y006864D01*
X029205Y006820D01*
X029199Y006776D01*
X029189Y006733D01*
X029176Y006691D01*
X029158Y006651D01*
X029137Y006612D01*
X029113Y006575D01*
X029086Y006540D01*
X029055Y006508D01*
X029022Y006479D01*
X028986Y006453D01*
X028948Y006431D01*
X028908Y006412D01*
X028867Y006396D01*
X028824Y006384D01*
X028781Y006376D01*
X028737Y006372D01*
X028693Y006372D01*
X028649Y006376D01*
X028606Y006384D01*
X028563Y006396D01*
X028522Y006412D01*
X028482Y006431D01*
X028444Y006453D01*
X028408Y006479D01*
X028375Y006508D01*
X028344Y006540D01*
X028317Y006575D01*
X028293Y006612D01*
X028272Y006651D01*
X028254Y006691D01*
X028241Y006733D01*
X028231Y006776D01*
X028225Y006820D01*
X028223Y006864D01*
X037035Y006923D02*
X037037Y006948D01*
X037043Y006972D01*
X037052Y006994D01*
X037065Y007015D01*
X037081Y007034D01*
X037100Y007050D01*
X037121Y007063D01*
X037143Y007072D01*
X037167Y007078D01*
X037192Y007080D01*
X037217Y007078D01*
X037241Y007072D01*
X037263Y007063D01*
X037284Y007050D01*
X037303Y007034D01*
X037319Y007015D01*
X037332Y006994D01*
X037341Y006972D01*
X037347Y006948D01*
X037349Y006923D01*
X037347Y006898D01*
X037341Y006874D01*
X037332Y006852D01*
X037319Y006831D01*
X037303Y006812D01*
X037284Y006796D01*
X037263Y006783D01*
X037241Y006774D01*
X037217Y006768D01*
X037192Y006766D01*
X037167Y006768D01*
X037143Y006774D01*
X037121Y006783D01*
X037100Y006796D01*
X037081Y006812D01*
X037065Y006831D01*
X037052Y006852D01*
X037043Y006874D01*
X037037Y006898D01*
X037035Y006923D01*
X037035Y006766D02*
X037037Y006791D01*
X037043Y006815D01*
X037052Y006837D01*
X037065Y006858D01*
X037081Y006877D01*
X037100Y006893D01*
X037121Y006906D01*
X037143Y006915D01*
X037167Y006921D01*
X037192Y006923D01*
X037217Y006921D01*
X037241Y006915D01*
X037263Y006906D01*
X037284Y006893D01*
X037303Y006877D01*
X037319Y006858D01*
X037332Y006837D01*
X037341Y006815D01*
X037347Y006791D01*
X037349Y006766D01*
X037347Y006741D01*
X037341Y006717D01*
X037332Y006695D01*
X037319Y006674D01*
X037303Y006655D01*
X037284Y006639D01*
X037263Y006626D01*
X037241Y006617D01*
X037217Y006611D01*
X037192Y006609D01*
X037167Y006611D01*
X037143Y006617D01*
X037121Y006626D01*
X037100Y006639D01*
X037081Y006655D01*
X037065Y006674D01*
X037052Y006695D01*
X037043Y006717D01*
X037037Y006741D01*
X037035Y006766D01*
X037035Y007238D02*
X037037Y007263D01*
X037043Y007287D01*
X037052Y007309D01*
X037065Y007330D01*
X037081Y007349D01*
X037100Y007365D01*
X037121Y007378D01*
X037143Y007387D01*
X037167Y007393D01*
X037192Y007395D01*
X037217Y007393D01*
X037241Y007387D01*
X037263Y007378D01*
X037284Y007365D01*
X037303Y007349D01*
X037319Y007330D01*
X037332Y007309D01*
X037341Y007287D01*
X037347Y007263D01*
X037349Y007238D01*
X037347Y007213D01*
X037341Y007189D01*
X037332Y007167D01*
X037319Y007146D01*
X037303Y007127D01*
X037284Y007111D01*
X037263Y007098D01*
X037241Y007089D01*
X037217Y007083D01*
X037192Y007081D01*
X037167Y007083D01*
X037143Y007089D01*
X037121Y007098D01*
X037100Y007111D01*
X037081Y007127D01*
X037065Y007146D01*
X037052Y007167D01*
X037043Y007189D01*
X037037Y007213D01*
X037035Y007238D01*
X037035Y007396D02*
X037037Y007421D01*
X037043Y007445D01*
X037052Y007467D01*
X037065Y007488D01*
X037081Y007507D01*
X037100Y007523D01*
X037121Y007536D01*
X037143Y007545D01*
X037167Y007551D01*
X037192Y007553D01*
X037217Y007551D01*
X037241Y007545D01*
X037263Y007536D01*
X037284Y007523D01*
X037303Y007507D01*
X037319Y007488D01*
X037332Y007467D01*
X037341Y007445D01*
X037347Y007421D01*
X037349Y007396D01*
X037347Y007371D01*
X037341Y007347D01*
X037332Y007325D01*
X037319Y007304D01*
X037303Y007285D01*
X037284Y007269D01*
X037263Y007256D01*
X037241Y007247D01*
X037217Y007241D01*
X037192Y007239D01*
X037167Y007241D01*
X037143Y007247D01*
X037121Y007256D01*
X037100Y007269D01*
X037081Y007285D01*
X037065Y007304D01*
X037052Y007325D01*
X037043Y007347D01*
X037037Y007371D01*
X037035Y007396D01*
X038262Y006864D02*
X038264Y006908D01*
X038270Y006952D01*
X038280Y006995D01*
X038293Y007037D01*
X038311Y007077D01*
X038332Y007116D01*
X038356Y007153D01*
X038383Y007188D01*
X038414Y007220D01*
X038447Y007249D01*
X038483Y007275D01*
X038521Y007297D01*
X038561Y007316D01*
X038602Y007332D01*
X038645Y007344D01*
X038688Y007352D01*
X038732Y007356D01*
X038776Y007356D01*
X038820Y007352D01*
X038863Y007344D01*
X038906Y007332D01*
X038947Y007316D01*
X038987Y007297D01*
X039025Y007275D01*
X039061Y007249D01*
X039094Y007220D01*
X039125Y007188D01*
X039152Y007153D01*
X039176Y007116D01*
X039197Y007077D01*
X039215Y007037D01*
X039228Y006995D01*
X039238Y006952D01*
X039244Y006908D01*
X039246Y006864D01*
X039244Y006820D01*
X039238Y006776D01*
X039228Y006733D01*
X039215Y006691D01*
X039197Y006651D01*
X039176Y006612D01*
X039152Y006575D01*
X039125Y006540D01*
X039094Y006508D01*
X039061Y006479D01*
X039025Y006453D01*
X038987Y006431D01*
X038947Y006412D01*
X038906Y006396D01*
X038863Y006384D01*
X038820Y006376D01*
X038776Y006372D01*
X038732Y006372D01*
X038688Y006376D01*
X038645Y006384D01*
X038602Y006396D01*
X038561Y006412D01*
X038521Y006431D01*
X038483Y006453D01*
X038447Y006479D01*
X038414Y006508D01*
X038383Y006540D01*
X038356Y006575D01*
X038332Y006612D01*
X038311Y006651D01*
X038293Y006691D01*
X038280Y006733D01*
X038270Y006776D01*
X038264Y006820D01*
X038262Y006864D01*
D11*
X027501Y006095D02*
X027254Y006095D01*
X027132Y006095D02*
X027132Y006157D01*
X027070Y006157D01*
X027070Y006095D01*
X027132Y006095D01*
X026948Y006095D02*
X026702Y006095D01*
X026825Y006095D02*
X026825Y006465D01*
X026702Y006342D01*
X026580Y006342D02*
X026457Y006095D01*
X026333Y006342D01*
X025843Y006404D02*
X025843Y006465D01*
X025843Y006404D02*
X025720Y006280D01*
X025720Y006095D01*
X025720Y006280D02*
X025597Y006404D01*
X025597Y006465D01*
X025475Y006342D02*
X025475Y006095D01*
X025475Y006280D02*
X025228Y006280D01*
X025228Y006342D02*
X025352Y006465D01*
X025475Y006342D01*
X025228Y006342D02*
X025228Y006095D01*
X025107Y006095D02*
X024860Y006095D01*
X024860Y006465D01*
X024739Y006465D02*
X024492Y006465D01*
X024492Y006095D01*
X024739Y006095D01*
X024615Y006280D02*
X024492Y006280D01*
X024370Y006280D02*
X024309Y006219D01*
X024123Y006219D01*
X024247Y006219D02*
X024370Y006095D01*
X024370Y006280D02*
X024370Y006404D01*
X024309Y006465D01*
X024123Y006465D01*
X024123Y006095D01*
X024002Y006280D02*
X023755Y006280D01*
X023634Y006219D02*
X023634Y006157D01*
X023572Y006095D01*
X023448Y006095D01*
X023387Y006157D01*
X023448Y006280D02*
X023572Y006280D01*
X023634Y006219D01*
X023634Y006404D02*
X023572Y006465D01*
X023448Y006465D01*
X023387Y006404D01*
X023387Y006342D01*
X023448Y006280D01*
X023265Y006404D02*
X023265Y006465D01*
X023265Y006404D02*
X023142Y006280D01*
X023142Y006095D01*
X023142Y006280D02*
X023018Y006404D01*
X023018Y006465D01*
X022897Y006465D02*
X022897Y006095D01*
X022650Y006095D02*
X022650Y006465D01*
X022774Y006342D01*
X022897Y006465D01*
X022529Y006280D02*
X022282Y006280D01*
X022160Y006465D02*
X022160Y006095D01*
X021913Y006095D02*
X021913Y006465D01*
X022037Y006342D01*
X022160Y006465D01*
X021792Y006465D02*
X021792Y006095D01*
X021792Y006280D02*
X021545Y006280D01*
X021545Y006095D02*
X021545Y006465D01*
X027254Y006342D02*
X027377Y006465D01*
X027377Y006095D01*
X027377Y016174D02*
X027377Y016544D01*
X027254Y016421D01*
X027132Y016236D02*
X027132Y016174D01*
X027070Y016174D01*
X027070Y016236D01*
X027132Y016236D01*
X027254Y016174D02*
X027501Y016174D01*
X026948Y016174D02*
X026702Y016174D01*
X026825Y016174D02*
X026825Y016544D01*
X026702Y016421D01*
X026580Y016421D02*
X026457Y016174D01*
X026333Y016421D01*
X025843Y016482D02*
X025843Y016544D01*
X025843Y016482D02*
X025720Y016359D01*
X025720Y016174D01*
X025720Y016359D02*
X025597Y016482D01*
X025597Y016544D01*
X025475Y016421D02*
X025475Y016174D01*
X025475Y016359D02*
X025228Y016359D01*
X025228Y016421D02*
X025352Y016544D01*
X025475Y016421D01*
X025228Y016421D02*
X025228Y016174D01*
X025107Y016174D02*
X024860Y016174D01*
X024860Y016544D01*
X024739Y016544D02*
X024492Y016544D01*
X024492Y016174D01*
X024739Y016174D01*
X024615Y016359D02*
X024492Y016359D01*
X024370Y016359D02*
X024309Y016297D01*
X024123Y016297D01*
X024123Y016174D02*
X024123Y016544D01*
X024309Y016544D01*
X024370Y016482D01*
X024370Y016359D01*
X024247Y016297D02*
X024370Y016174D01*
X024002Y016359D02*
X023755Y016359D01*
X023634Y016297D02*
X023634Y016236D01*
X023572Y016174D01*
X023448Y016174D01*
X023387Y016236D01*
X023448Y016359D02*
X023572Y016359D01*
X023634Y016297D01*
X023634Y016482D02*
X023572Y016544D01*
X023448Y016544D01*
X023387Y016482D01*
X023387Y016421D01*
X023448Y016359D01*
X023265Y016482D02*
X023265Y016544D01*
X023265Y016482D02*
X023142Y016359D01*
X023142Y016174D01*
X023142Y016359D02*
X023018Y016482D01*
X023018Y016544D01*
X022897Y016544D02*
X022897Y016174D01*
X022650Y016174D02*
X022650Y016544D01*
X022774Y016421D01*
X022897Y016544D01*
X022529Y016359D02*
X022282Y016359D01*
X022160Y016544D02*
X022160Y016174D01*
X021913Y016174D02*
X021913Y016544D01*
X022037Y016421D01*
X022160Y016544D01*
X021792Y016544D02*
X021792Y016174D01*
X021792Y016359D02*
X021545Y016359D01*
X021545Y016174D02*
X021545Y016544D01*
X021545Y026253D02*
X021545Y026623D01*
X021545Y026438D02*
X021792Y026438D01*
X021792Y026623D02*
X021792Y026253D01*
X021913Y026253D02*
X021913Y026623D01*
X022037Y026500D01*
X022160Y026623D01*
X022160Y026253D01*
X022282Y026438D02*
X022529Y026438D01*
X022650Y026623D02*
X022774Y026500D01*
X022897Y026623D01*
X022897Y026253D01*
X023142Y026253D02*
X023142Y026438D01*
X023265Y026561D01*
X023265Y026623D01*
X023387Y026561D02*
X023387Y026500D01*
X023448Y026438D01*
X023572Y026438D01*
X023634Y026376D01*
X023634Y026314D01*
X023572Y026253D01*
X023448Y026253D01*
X023387Y026314D01*
X023387Y026561D02*
X023448Y026623D01*
X023572Y026623D01*
X023634Y026561D01*
X023755Y026438D02*
X024002Y026438D01*
X024123Y026376D02*
X024309Y026376D01*
X024370Y026438D01*
X024370Y026561D01*
X024309Y026623D01*
X024123Y026623D01*
X024123Y026253D01*
X024247Y026376D02*
X024370Y026253D01*
X024492Y026253D02*
X024739Y026253D01*
X024860Y026253D02*
X024860Y026623D01*
X024739Y026623D02*
X024492Y026623D01*
X024492Y026253D01*
X024492Y026438D02*
X024615Y026438D01*
X024860Y026253D02*
X025107Y026253D01*
X025228Y026253D02*
X025228Y026500D01*
X025352Y026623D01*
X025475Y026500D01*
X025475Y026253D01*
X025475Y026438D02*
X025228Y026438D01*
X025597Y026561D02*
X025720Y026438D01*
X025720Y026253D01*
X025720Y026438D02*
X025843Y026561D01*
X025843Y026623D01*
X025597Y026623D02*
X025597Y026561D01*
X026333Y026500D02*
X026457Y026253D01*
X026580Y026500D01*
X026702Y026500D02*
X026825Y026623D01*
X026825Y026253D01*
X026702Y026253D02*
X026948Y026253D01*
X027070Y026253D02*
X027132Y026253D01*
X027132Y026314D01*
X027070Y026314D01*
X027070Y026253D01*
X027254Y026253D02*
X027501Y026253D01*
X027377Y026253D02*
X027377Y026623D01*
X027254Y026500D01*
X023142Y026438D02*
X023018Y026561D01*
X023018Y026623D01*
X022650Y026623D02*
X022650Y026253D01*
X039153Y025843D02*
X039215Y025843D01*
X039338Y025720D01*
X039523Y025720D01*
X039338Y025720D02*
X039215Y025597D01*
X039153Y025597D01*
X039277Y025475D02*
X039523Y025475D01*
X039338Y025475D02*
X039338Y025228D01*
X039277Y025228D02*
X039153Y025352D01*
X039277Y025475D01*
X039277Y025228D02*
X039523Y025228D01*
X039523Y025107D02*
X039523Y024860D01*
X039153Y024860D01*
X039153Y024739D02*
X039153Y024492D01*
X039523Y024492D01*
X039523Y024739D01*
X039338Y024615D02*
X039338Y024492D01*
X039338Y024370D02*
X039400Y024309D01*
X039400Y024123D01*
X039523Y024123D02*
X039153Y024123D01*
X039153Y024309D01*
X039215Y024370D01*
X039338Y024370D01*
X039400Y024247D02*
X039523Y024370D01*
X039338Y024002D02*
X039338Y023755D01*
X039400Y023634D02*
X039462Y023634D01*
X039523Y023572D01*
X039523Y023448D01*
X039462Y023387D01*
X039338Y023448D02*
X039338Y023572D01*
X039400Y023634D01*
X039215Y023634D02*
X039153Y023572D01*
X039153Y023448D01*
X039215Y023387D01*
X039277Y023387D01*
X039338Y023448D01*
X039215Y023265D02*
X039153Y023265D01*
X039215Y023265D02*
X039338Y023142D01*
X039523Y023142D01*
X039338Y023142D02*
X039215Y023018D01*
X039153Y023018D01*
X039153Y022897D02*
X039523Y022897D01*
X039523Y022650D02*
X039153Y022650D01*
X039277Y022774D01*
X039153Y022897D01*
X039338Y022529D02*
X039338Y022282D01*
X039153Y022160D02*
X039523Y022160D01*
X039523Y021913D02*
X039153Y021913D01*
X039277Y022037D01*
X039153Y022160D01*
X039153Y021792D02*
X039523Y021792D01*
X039338Y021792D02*
X039338Y021545D01*
X039523Y021545D02*
X039153Y021545D01*
X039277Y026333D02*
X039523Y026457D01*
X039277Y026580D01*
X039277Y026702D02*
X039153Y026825D01*
X039523Y026825D01*
X039523Y026702D02*
X039523Y026948D01*
X039523Y027070D02*
X039523Y027132D01*
X039462Y027132D01*
X039462Y027070D01*
X039523Y027070D01*
X039523Y027254D02*
X039523Y027501D01*
X039523Y027377D02*
X039153Y027377D01*
X039277Y027254D01*
D12*
X038754Y028715D03*
X030880Y028715D03*
X028715Y027022D03*
X028715Y024817D03*
X028715Y016943D03*
X028715Y014738D03*
X028715Y006864D03*
X030880Y006864D03*
X038754Y006864D03*
X028715Y034896D03*
X006864Y034896D03*
X006864Y027022D03*
X006864Y024817D03*
X006864Y016943D03*
X006864Y014738D03*
X006864Y006864D03*
D13*
X010980Y008430D03*
X010980Y018509D03*
X010980Y028588D03*
X037188Y010980D03*
D14*
X037188Y009980D03*
X009980Y008430D03*
X009980Y018509D03*
X009980Y028588D03*
D15*
X012180Y029014D03*
X012180Y029762D03*
X012180Y019683D03*
X012180Y018935D03*
X012180Y009604D03*
X012180Y008856D03*
X027380Y014006D03*
X027380Y014754D03*
X027380Y024085D03*
X027380Y024833D03*
X027380Y034164D03*
X027380Y034912D03*
X037888Y008904D03*
X037888Y008156D03*
D16*
X036762Y012180D03*
X036014Y012180D03*
X031612Y027380D03*
X030864Y027380D03*
X008904Y027888D03*
X008156Y027888D03*
X008156Y017809D03*
X008904Y017809D03*
X008904Y007730D03*
X008156Y007730D03*
D17*
X015805Y014480D03*
X018555Y014480D03*
X018555Y024559D03*
X015805Y024559D03*
X015805Y034638D03*
X018555Y034638D03*
D18*
X009760Y032048D03*
X009760Y031138D03*
X009760Y030228D03*
X009760Y021969D03*
X009760Y021059D03*
X009760Y020149D03*
X009760Y011890D03*
X009760Y010980D03*
X009760Y010070D03*
D19*
X012200Y010980D03*
X012200Y021059D03*
X012200Y031138D03*
D20*
X023791Y031331D03*
X023791Y032316D03*
X023791Y030544D03*
X023791Y029560D03*
X023791Y022237D03*
X023791Y021253D03*
X023791Y020465D03*
X023791Y019481D03*
X023791Y012158D03*
X023791Y011174D03*
X023791Y010386D03*
X023791Y009402D03*
D21*
X025449Y008195D03*
X025449Y013365D03*
X025449Y018274D03*
X025449Y023444D03*
X025449Y028353D03*
X025449Y033523D03*
X032253Y025449D03*
X037423Y025449D03*
D22*
X020771Y024559D03*
X019590Y024559D03*
X019590Y034638D03*
X020771Y034638D03*
X020771Y014480D03*
X019590Y014480D03*
D23*
X020580Y010380D03*
X020580Y020459D03*
X020580Y030538D03*
X035238Y020580D03*
D24*
X035791Y019430D03*
X033429Y018642D03*
X033429Y013918D03*
X038153Y013918D03*
X038153Y018642D03*
X019430Y019906D03*
X018642Y022268D03*
X013918Y022268D03*
X013918Y017544D03*
X018642Y017544D03*
X018642Y012190D03*
X019430Y009827D03*
X018642Y007465D03*
X013918Y007465D03*
X013918Y012190D03*
X013918Y027623D03*
X013918Y032347D03*
X018642Y032347D03*
X019430Y029985D03*
X018642Y027623D03*
D25*
X018280Y026988D03*
X017280Y026988D03*
X016280Y026988D03*
X015280Y026988D03*
X014280Y026988D03*
X013280Y026988D03*
X012280Y026988D03*
X011280Y026988D03*
X010280Y026988D03*
X009280Y026988D03*
X008280Y026988D03*
X011718Y028113D03*
X012718Y028113D03*
X015843Y028113D03*
X016843Y028113D03*
X019280Y027988D03*
X019280Y028988D03*
X019280Y026988D03*
X019280Y022909D03*
X018280Y022909D03*
X017280Y022909D03*
X016280Y022909D03*
X015280Y022909D03*
X014280Y022909D03*
X013280Y022909D03*
X012280Y022909D03*
X011280Y022909D03*
X010280Y022909D03*
X009280Y022909D03*
X008280Y022909D03*
X011718Y018034D03*
X012718Y018034D03*
X012280Y016909D03*
X011280Y016909D03*
X010280Y016909D03*
X009280Y016909D03*
X008280Y016909D03*
X008280Y012830D03*
X009280Y012830D03*
X010280Y012830D03*
X011280Y012830D03*
X012280Y012830D03*
X013280Y012830D03*
X014280Y012830D03*
X015280Y012830D03*
X016280Y012830D03*
X017280Y012830D03*
X018280Y012830D03*
X019280Y012830D03*
X019280Y008830D03*
X019280Y007830D03*
X019280Y006830D03*
X018280Y006830D03*
X017280Y006830D03*
X016280Y006830D03*
X015280Y006830D03*
X014280Y006830D03*
X013280Y006830D03*
X012280Y006830D03*
X011280Y006830D03*
X010280Y006830D03*
X009280Y006830D03*
X008280Y006830D03*
X011718Y007955D03*
X012718Y007955D03*
X015843Y007955D03*
X016843Y007955D03*
X017280Y016909D03*
X018280Y016909D03*
X019280Y016909D03*
X019280Y017909D03*
X019280Y018909D03*
X016843Y018034D03*
X015843Y018034D03*
X016280Y016909D03*
X015280Y016909D03*
X014280Y016909D03*
X013280Y016909D03*
X013280Y032988D03*
X014280Y032988D03*
X015280Y032988D03*
X016280Y032988D03*
X017280Y032988D03*
X018280Y032988D03*
X019280Y032988D03*
X012280Y032988D03*
X011280Y032988D03*
X010280Y032988D03*
X009280Y032988D03*
X008280Y032988D03*
X032788Y019280D03*
X032788Y018280D03*
X032788Y017280D03*
X032788Y016280D03*
X032788Y015280D03*
X032788Y014280D03*
X032788Y013280D03*
X032788Y012280D03*
X032788Y011280D03*
X032788Y010280D03*
X032788Y009280D03*
X032788Y008280D03*
X037663Y011718D03*
X037663Y012718D03*
X038788Y012280D03*
X038788Y013280D03*
X038788Y014280D03*
X038788Y015280D03*
X038788Y016280D03*
X038788Y017280D03*
X038788Y018280D03*
X038788Y019280D03*
X037788Y019280D03*
X036788Y019280D03*
X037663Y016843D03*
X037663Y015843D03*
X038788Y011280D03*
X038788Y010280D03*
X038788Y009280D03*
X038788Y008280D03*
D26*
X035838Y007280D03*
X033838Y007280D03*
X027930Y009780D03*
X027930Y011780D03*
X027930Y019859D03*
X027930Y021859D03*
X033838Y027930D03*
X035838Y027930D03*
X027930Y029938D03*
X027930Y031938D03*
X007280Y031938D03*
X007280Y029938D03*
X007280Y021859D03*
X007280Y019859D03*
X007280Y011780D03*
X007280Y009780D03*
D27*
X008280Y014580D03*
X010580Y014580D03*
X011580Y014580D03*
X012580Y014580D03*
X013580Y014580D03*
X014580Y014580D03*
X014580Y024659D03*
X013580Y024659D03*
X012580Y024659D03*
X011580Y024659D03*
X010580Y024659D03*
X008280Y024659D03*
X008280Y034738D03*
X010580Y034738D03*
X011580Y034738D03*
X012580Y034738D03*
X013580Y034738D03*
X014580Y034738D03*
X031038Y014580D03*
X031038Y013580D03*
X031038Y012580D03*
X031038Y011580D03*
X031038Y010580D03*
X031038Y008280D03*
D28*
X031038Y009580D03*
X009580Y014580D03*
X009580Y024659D03*
X009580Y034738D03*
D29*
X008191Y032286D03*
X008191Y031292D03*
X008191Y030483D03*
X008191Y029510D03*
X008191Y022207D03*
X008191Y021213D03*
X008191Y020405D03*
X008191Y019431D03*
X008191Y012128D03*
X008191Y011134D03*
X008191Y010326D03*
X008191Y009352D03*
D30*
X007431Y008427D02*
X006731Y008427D01*
X006731Y013033D02*
X007431Y013033D01*
X007431Y018506D02*
X006731Y018506D01*
X006731Y023112D02*
X007431Y023112D01*
X007431Y028584D02*
X006731Y028584D01*
X006731Y033191D02*
X007431Y033191D01*
X032585Y007431D02*
X032585Y006731D01*
X037192Y006731D02*
X037192Y007431D01*
D31*
X037192Y007396D03*
X037192Y007238D03*
X037192Y006923D03*
X037192Y006766D03*
X032585Y006766D03*
X032585Y006923D03*
X032585Y007238D03*
X032585Y007396D03*
X007396Y008427D03*
X007238Y008427D03*
X006923Y008427D03*
X006766Y008427D03*
X006766Y013033D03*
X006923Y013033D03*
X007238Y013033D03*
X007396Y013033D03*
X007396Y018506D03*
X007238Y018506D03*
X006923Y018506D03*
X006766Y018506D03*
X006766Y023112D03*
X006923Y023112D03*
X007238Y023112D03*
X007396Y023112D03*
X007396Y028584D03*
X007238Y028584D03*
X006923Y028584D03*
X006766Y028584D03*
X006766Y033191D03*
X006923Y033191D03*
X007238Y033191D03*
X007396Y033191D03*
D32*
X008330Y033788D03*
X008930Y033788D03*
X011980Y033788D03*
X012580Y033788D03*
X013180Y033788D03*
X015780Y032038D03*
X016380Y032038D03*
X016980Y032038D03*
X013180Y023709D03*
X012580Y023709D03*
X011980Y023709D03*
X008930Y023709D03*
X008330Y023709D03*
X015780Y021959D03*
X016380Y021959D03*
X016980Y021959D03*
X013180Y013630D03*
X012580Y013630D03*
X011980Y013630D03*
X008930Y013630D03*
X008330Y013630D03*
X015780Y011880D03*
X016380Y011880D03*
X016980Y011880D03*
D33*
X008630Y013630D03*
X008630Y023709D03*
X008630Y033788D03*
D34*
X020459Y033864D02*
X021010Y034120D01*
X021018Y034120D02*
X021492Y033736D01*
X021384Y033825D02*
X021305Y033136D01*
X021286Y033136D02*
X020498Y033215D01*
X020567Y033914D01*
X021010Y024042D02*
X020459Y023786D01*
X020567Y023835D02*
X020498Y023136D01*
X021286Y023057D01*
X021305Y023057D02*
X021384Y023746D01*
X021492Y023658D02*
X021018Y024042D01*
X021018Y013963D02*
X021492Y013579D01*
X021384Y013668D02*
X021305Y012979D01*
X021286Y012979D02*
X020498Y013057D01*
X020567Y013756D01*
X020459Y013707D02*
X021010Y013963D01*
X031912Y020459D02*
X031656Y021010D01*
X031656Y021018D02*
X032040Y021492D01*
X031951Y021384D02*
X032640Y021305D01*
X032640Y021286D02*
X032561Y020498D01*
X031862Y020567D01*
D35*
X032030Y020784D02*
X032002Y020870D01*
X032030Y021079D02*
X032069Y021148D01*
X032280Y021177D02*
X032345Y021148D01*
X032384Y021109D01*
X032404Y021069D01*
X032423Y021010D01*
X032423Y020892D01*
X032404Y020833D01*
X032364Y020774D01*
X032325Y020734D01*
X032286Y020715D01*
X032227Y020715D01*
X021177Y023418D02*
X021148Y023353D01*
X021109Y023313D01*
X021069Y023294D01*
X021010Y023274D01*
X020892Y023274D01*
X020833Y023294D01*
X020774Y023333D01*
X020734Y023372D01*
X020715Y023412D01*
X020715Y023471D01*
X020784Y023668D02*
X020870Y023695D01*
X021079Y023668D02*
X021148Y023628D01*
X021010Y033353D02*
X021069Y033372D01*
X021109Y033392D01*
X021148Y033431D01*
X021177Y033496D01*
X021148Y033707D02*
X021079Y033746D01*
X020870Y033774D02*
X020784Y033746D01*
X020715Y033549D02*
X020715Y033490D01*
X020734Y033451D01*
X020774Y033412D01*
X020833Y033372D01*
X020892Y033353D01*
X021010Y033353D01*
X020870Y013616D02*
X020784Y013589D01*
X020715Y013392D02*
X020715Y013333D01*
X020734Y013294D01*
X020774Y013254D01*
X020833Y013215D01*
X020892Y013195D01*
X021010Y013195D01*
X021069Y013215D01*
X021109Y013234D01*
X021148Y013274D01*
X021177Y013339D01*
X021148Y013549D02*
X021079Y013589D01*
D36*
X031138Y015805D03*
X031138Y018555D03*
D37*
X033728Y009760D03*
X034638Y009760D03*
X035548Y009760D03*
D38*
X034638Y012200D03*
D39*
X034445Y023791D03*
X035232Y023791D03*
X036216Y023791D03*
X033460Y023791D03*
D40*
X031138Y020771D03*
X031138Y019590D03*
D41*
X033490Y008191D03*
X034484Y008191D03*
X035293Y008191D03*
X036266Y008191D03*
D42*
X031988Y008330D03*
X031988Y008930D03*
X031988Y011980D03*
X031988Y012580D03*
X031988Y013180D03*
X033738Y015780D03*
X033738Y016380D03*
X033738Y016980D03*
D43*
X031988Y008630D03*
M02*
