G75*
%MOIN*%
%OFA0B0*%
%FSLAX25Y25*%
%IPPOS*%
%LPD*%
%AMOC8*
5,1,8,0,0,1.08239X$1,22.5*
%
%ADD10C,0.00000*%
%ADD11OC8,0.06200*%
%ADD12C,0.06200*%
%ADD13R,0.10433X0.06890*%
%ADD14C,0.13100*%
%ADD15C,0.07400*%
%ADD16R,0.07098X0.06299*%
%ADD17R,0.05512X0.03150*%
%ADD18R,0.07480X0.03150*%
%ADD19C,0.06000*%
%ADD20R,0.06000X0.06000*%
%ADD21R,0.06000X0.02500*%
%ADD22C,0.05543*%
%ADD23C,0.06600*%
%ADD24C,0.07050*%
%ADD25OC8,0.06000*%
%ADD26R,0.07600X0.03200*%
%ADD27C,0.07000*%
%ADD28R,0.04600X0.06300*%
%ADD29R,0.03543X0.03937*%
%ADD30C,0.01200*%
%ADD31C,0.02400*%
%ADD32C,0.01000*%
%ADD33C,0.01600*%
%ADD34OC8,0.02400*%
D10*
X0058802Y0005150D02*
X0058802Y0096488D01*
X0058791Y0096607D01*
X0058783Y0096726D01*
X0058780Y0096845D01*
X0058781Y0096964D01*
X0058786Y0097083D01*
X0058794Y0097202D01*
X0058807Y0097320D01*
X0058824Y0097438D01*
X0058844Y0097556D01*
X0058869Y0097672D01*
X0058897Y0097788D01*
X0058929Y0097903D01*
X0058965Y0098016D01*
X0059005Y0098129D01*
X0059049Y0098240D01*
X0059096Y0098349D01*
X0059147Y0098457D01*
X0059201Y0098563D01*
X0059259Y0098667D01*
X0059320Y0098769D01*
X0059385Y0098869D01*
X0059453Y0098967D01*
X0059524Y0099062D01*
X0059599Y0099155D01*
X0059676Y0099246D01*
X0059757Y0099334D01*
X0059840Y0099419D01*
X0059926Y0099501D01*
X0060015Y0099580D01*
X0060107Y0099657D01*
X0060201Y0099730D01*
X0060297Y0099800D01*
X0060396Y0099867D01*
X0060496Y0099930D01*
X0060599Y0099990D01*
X0060704Y0100047D01*
X0060811Y0100100D01*
X0060919Y0100149D01*
X0061029Y0100195D01*
X0061141Y0100237D01*
X0061253Y0100276D01*
X0061367Y0100310D01*
X0061483Y0100341D01*
X0061599Y0100368D01*
X0061716Y0100391D01*
X0061833Y0100410D01*
X0061951Y0100425D01*
X0292069Y0100425D01*
X0292185Y0100436D01*
X0292302Y0100443D01*
X0292419Y0100447D01*
X0292535Y0100446D01*
X0292652Y0100442D01*
X0292768Y0100434D01*
X0292884Y0100422D01*
X0293000Y0100406D01*
X0293115Y0100387D01*
X0293229Y0100364D01*
X0293343Y0100337D01*
X0293455Y0100306D01*
X0293567Y0100272D01*
X0293677Y0100234D01*
X0293786Y0100192D01*
X0293894Y0100147D01*
X0294000Y0100099D01*
X0294104Y0100047D01*
X0294207Y0099991D01*
X0294308Y0099933D01*
X0294406Y0099871D01*
X0294503Y0099805D01*
X0294598Y0099737D01*
X0294690Y0099666D01*
X0294780Y0099591D01*
X0294867Y0099514D01*
X0294952Y0099434D01*
X0295034Y0099351D01*
X0295114Y0099266D01*
X0295190Y0099178D01*
X0295264Y0099087D01*
X0295335Y0098995D01*
X0295402Y0098899D01*
X0295467Y0098802D01*
X0295528Y0098703D01*
X0295586Y0098602D01*
X0295640Y0098499D01*
X0295692Y0098394D01*
X0295739Y0098287D01*
X0295784Y0098179D01*
X0295824Y0098070D01*
X0295861Y0097959D01*
X0295895Y0097848D01*
X0295924Y0097735D01*
X0295951Y0097621D01*
X0295973Y0097507D01*
X0295991Y0097391D01*
X0296006Y0097276D01*
X0296006Y0005937D01*
X0296017Y0005821D01*
X0296024Y0005704D01*
X0296028Y0005587D01*
X0296027Y0005471D01*
X0296023Y0005354D01*
X0296015Y0005238D01*
X0296003Y0005122D01*
X0295987Y0005006D01*
X0295968Y0004891D01*
X0295945Y0004777D01*
X0295918Y0004663D01*
X0295887Y0004551D01*
X0295853Y0004439D01*
X0295815Y0004329D01*
X0295773Y0004220D01*
X0295728Y0004112D01*
X0295680Y0004006D01*
X0295628Y0003902D01*
X0295572Y0003799D01*
X0295514Y0003698D01*
X0295452Y0003600D01*
X0295386Y0003503D01*
X0295318Y0003408D01*
X0295247Y0003316D01*
X0295172Y0003226D01*
X0295095Y0003139D01*
X0295015Y0003054D01*
X0294932Y0002972D01*
X0294847Y0002892D01*
X0294759Y0002816D01*
X0294668Y0002742D01*
X0294576Y0002671D01*
X0294480Y0002604D01*
X0294383Y0002539D01*
X0294284Y0002478D01*
X0294183Y0002420D01*
X0294080Y0002366D01*
X0293975Y0002314D01*
X0293868Y0002267D01*
X0293760Y0002222D01*
X0293651Y0002182D01*
X0293540Y0002145D01*
X0293429Y0002111D01*
X0293316Y0002082D01*
X0293202Y0002055D01*
X0293088Y0002033D01*
X0292972Y0002015D01*
X0292857Y0002000D01*
X0062739Y0002000D01*
X0062623Y0001989D01*
X0062506Y0001982D01*
X0062389Y0001978D01*
X0062273Y0001979D01*
X0062156Y0001983D01*
X0062040Y0001991D01*
X0061924Y0002003D01*
X0061808Y0002019D01*
X0061693Y0002038D01*
X0061579Y0002061D01*
X0061465Y0002088D01*
X0061353Y0002119D01*
X0061241Y0002153D01*
X0061131Y0002191D01*
X0061022Y0002233D01*
X0060914Y0002278D01*
X0060808Y0002326D01*
X0060704Y0002378D01*
X0060601Y0002434D01*
X0060500Y0002492D01*
X0060402Y0002554D01*
X0060305Y0002620D01*
X0060210Y0002688D01*
X0060118Y0002759D01*
X0060028Y0002834D01*
X0059941Y0002911D01*
X0059856Y0002991D01*
X0059774Y0003074D01*
X0059694Y0003159D01*
X0059618Y0003247D01*
X0059544Y0003338D01*
X0059473Y0003430D01*
X0059406Y0003526D01*
X0059341Y0003623D01*
X0059280Y0003722D01*
X0059222Y0003823D01*
X0059168Y0003926D01*
X0059116Y0004031D01*
X0059069Y0004138D01*
X0059024Y0004246D01*
X0058984Y0004355D01*
X0058947Y0004466D01*
X0058913Y0004577D01*
X0058884Y0004690D01*
X0058857Y0004804D01*
X0058835Y0004918D01*
X0058817Y0005034D01*
X0058802Y0005149D01*
X0063723Y0011843D02*
X0063725Y0011983D01*
X0063731Y0012123D01*
X0063741Y0012262D01*
X0063755Y0012401D01*
X0063773Y0012540D01*
X0063794Y0012678D01*
X0063820Y0012816D01*
X0063850Y0012953D01*
X0063883Y0013088D01*
X0063921Y0013223D01*
X0063962Y0013357D01*
X0064007Y0013490D01*
X0064055Y0013621D01*
X0064108Y0013750D01*
X0064164Y0013879D01*
X0064223Y0014005D01*
X0064287Y0014130D01*
X0064353Y0014253D01*
X0064424Y0014374D01*
X0064497Y0014493D01*
X0064574Y0014610D01*
X0064655Y0014724D01*
X0064738Y0014836D01*
X0064825Y0014946D01*
X0064915Y0015054D01*
X0065007Y0015158D01*
X0065103Y0015260D01*
X0065202Y0015360D01*
X0065303Y0015456D01*
X0065407Y0015550D01*
X0065514Y0015640D01*
X0065623Y0015727D01*
X0065735Y0015812D01*
X0065849Y0015893D01*
X0065965Y0015971D01*
X0066083Y0016045D01*
X0066204Y0016116D01*
X0066326Y0016184D01*
X0066451Y0016248D01*
X0066577Y0016309D01*
X0066704Y0016366D01*
X0066834Y0016419D01*
X0066965Y0016469D01*
X0067097Y0016514D01*
X0067230Y0016557D01*
X0067365Y0016595D01*
X0067500Y0016629D01*
X0067637Y0016660D01*
X0067774Y0016687D01*
X0067912Y0016709D01*
X0068051Y0016728D01*
X0068190Y0016743D01*
X0068329Y0016754D01*
X0068469Y0016761D01*
X0068609Y0016764D01*
X0068749Y0016763D01*
X0068889Y0016758D01*
X0069028Y0016749D01*
X0069168Y0016736D01*
X0069307Y0016719D01*
X0069445Y0016698D01*
X0069583Y0016674D01*
X0069720Y0016645D01*
X0069856Y0016613D01*
X0069991Y0016576D01*
X0070125Y0016536D01*
X0070258Y0016492D01*
X0070389Y0016444D01*
X0070519Y0016393D01*
X0070648Y0016338D01*
X0070775Y0016279D01*
X0070900Y0016216D01*
X0071023Y0016151D01*
X0071145Y0016081D01*
X0071264Y0016008D01*
X0071382Y0015932D01*
X0071497Y0015853D01*
X0071610Y0015770D01*
X0071720Y0015684D01*
X0071828Y0015595D01*
X0071933Y0015503D01*
X0072036Y0015408D01*
X0072136Y0015310D01*
X0072233Y0015210D01*
X0072327Y0015106D01*
X0072419Y0015000D01*
X0072507Y0014892D01*
X0072592Y0014781D01*
X0072674Y0014667D01*
X0072753Y0014551D01*
X0072828Y0014434D01*
X0072900Y0014314D01*
X0072968Y0014192D01*
X0073033Y0014068D01*
X0073095Y0013942D01*
X0073153Y0013815D01*
X0073207Y0013686D01*
X0073258Y0013555D01*
X0073304Y0013423D01*
X0073347Y0013290D01*
X0073387Y0013156D01*
X0073422Y0013021D01*
X0073454Y0012884D01*
X0073481Y0012747D01*
X0073505Y0012609D01*
X0073525Y0012471D01*
X0073541Y0012332D01*
X0073553Y0012192D01*
X0073561Y0012053D01*
X0073565Y0011913D01*
X0073565Y0011773D01*
X0073561Y0011633D01*
X0073553Y0011494D01*
X0073541Y0011354D01*
X0073525Y0011215D01*
X0073505Y0011077D01*
X0073481Y0010939D01*
X0073454Y0010802D01*
X0073422Y0010665D01*
X0073387Y0010530D01*
X0073347Y0010396D01*
X0073304Y0010263D01*
X0073258Y0010131D01*
X0073207Y0010000D01*
X0073153Y0009871D01*
X0073095Y0009744D01*
X0073033Y0009618D01*
X0072968Y0009494D01*
X0072900Y0009372D01*
X0072828Y0009252D01*
X0072753Y0009135D01*
X0072674Y0009019D01*
X0072592Y0008905D01*
X0072507Y0008794D01*
X0072419Y0008686D01*
X0072327Y0008580D01*
X0072233Y0008476D01*
X0072136Y0008376D01*
X0072036Y0008278D01*
X0071933Y0008183D01*
X0071828Y0008091D01*
X0071720Y0008002D01*
X0071610Y0007916D01*
X0071497Y0007833D01*
X0071382Y0007754D01*
X0071264Y0007678D01*
X0071145Y0007605D01*
X0071023Y0007535D01*
X0070900Y0007470D01*
X0070775Y0007407D01*
X0070648Y0007348D01*
X0070519Y0007293D01*
X0070389Y0007242D01*
X0070258Y0007194D01*
X0070125Y0007150D01*
X0069991Y0007110D01*
X0069856Y0007073D01*
X0069720Y0007041D01*
X0069583Y0007012D01*
X0069445Y0006988D01*
X0069307Y0006967D01*
X0069168Y0006950D01*
X0069028Y0006937D01*
X0068889Y0006928D01*
X0068749Y0006923D01*
X0068609Y0006922D01*
X0068469Y0006925D01*
X0068329Y0006932D01*
X0068190Y0006943D01*
X0068051Y0006958D01*
X0067912Y0006977D01*
X0067774Y0006999D01*
X0067637Y0007026D01*
X0067500Y0007057D01*
X0067365Y0007091D01*
X0067230Y0007129D01*
X0067097Y0007172D01*
X0066965Y0007217D01*
X0066834Y0007267D01*
X0066704Y0007320D01*
X0066577Y0007377D01*
X0066451Y0007438D01*
X0066326Y0007502D01*
X0066204Y0007570D01*
X0066083Y0007641D01*
X0065965Y0007715D01*
X0065849Y0007793D01*
X0065735Y0007874D01*
X0065623Y0007959D01*
X0065514Y0008046D01*
X0065407Y0008136D01*
X0065303Y0008230D01*
X0065202Y0008326D01*
X0065103Y0008426D01*
X0065007Y0008528D01*
X0064915Y0008632D01*
X0064825Y0008740D01*
X0064738Y0008850D01*
X0064655Y0008962D01*
X0064574Y0009076D01*
X0064497Y0009193D01*
X0064424Y0009312D01*
X0064353Y0009433D01*
X0064287Y0009556D01*
X0064223Y0009681D01*
X0064164Y0009807D01*
X0064108Y0009936D01*
X0064055Y0010065D01*
X0064007Y0010196D01*
X0063962Y0010329D01*
X0063921Y0010463D01*
X0063883Y0010598D01*
X0063850Y0010733D01*
X0063820Y0010870D01*
X0063794Y0011008D01*
X0063773Y0011146D01*
X0063755Y0011285D01*
X0063741Y0011424D01*
X0063731Y0011563D01*
X0063725Y0011703D01*
X0063723Y0011843D01*
X0066085Y0027469D02*
X0066087Y0027548D01*
X0066093Y0027627D01*
X0066103Y0027706D01*
X0066117Y0027784D01*
X0066134Y0027861D01*
X0066156Y0027937D01*
X0066181Y0028012D01*
X0066211Y0028085D01*
X0066243Y0028157D01*
X0066280Y0028228D01*
X0066320Y0028296D01*
X0066363Y0028362D01*
X0066409Y0028426D01*
X0066459Y0028488D01*
X0066512Y0028547D01*
X0066567Y0028603D01*
X0066626Y0028657D01*
X0066687Y0028707D01*
X0066750Y0028755D01*
X0066816Y0028799D01*
X0066884Y0028840D01*
X0066954Y0028877D01*
X0067025Y0028911D01*
X0067099Y0028941D01*
X0067173Y0028967D01*
X0067249Y0028989D01*
X0067326Y0029008D01*
X0067404Y0029023D01*
X0067482Y0029034D01*
X0067561Y0029041D01*
X0067640Y0029044D01*
X0067719Y0029043D01*
X0067798Y0029038D01*
X0067877Y0029029D01*
X0067955Y0029016D01*
X0068032Y0028999D01*
X0068109Y0028979D01*
X0068184Y0028954D01*
X0068258Y0028926D01*
X0068331Y0028894D01*
X0068401Y0028859D01*
X0068470Y0028820D01*
X0068537Y0028777D01*
X0068602Y0028731D01*
X0068664Y0028683D01*
X0068724Y0028631D01*
X0068781Y0028576D01*
X0068835Y0028518D01*
X0068886Y0028458D01*
X0068934Y0028395D01*
X0068979Y0028330D01*
X0069021Y0028262D01*
X0069059Y0028193D01*
X0069093Y0028122D01*
X0069124Y0028049D01*
X0069152Y0027974D01*
X0069175Y0027899D01*
X0069195Y0027822D01*
X0069211Y0027745D01*
X0069223Y0027666D01*
X0069231Y0027588D01*
X0069235Y0027509D01*
X0069235Y0027429D01*
X0069231Y0027350D01*
X0069223Y0027272D01*
X0069211Y0027193D01*
X0069195Y0027116D01*
X0069175Y0027039D01*
X0069152Y0026964D01*
X0069124Y0026889D01*
X0069093Y0026816D01*
X0069059Y0026745D01*
X0069021Y0026676D01*
X0068979Y0026608D01*
X0068934Y0026543D01*
X0068886Y0026480D01*
X0068835Y0026420D01*
X0068781Y0026362D01*
X0068724Y0026307D01*
X0068664Y0026255D01*
X0068602Y0026207D01*
X0068537Y0026161D01*
X0068470Y0026118D01*
X0068401Y0026079D01*
X0068331Y0026044D01*
X0068258Y0026012D01*
X0068184Y0025984D01*
X0068109Y0025959D01*
X0068032Y0025939D01*
X0067955Y0025922D01*
X0067877Y0025909D01*
X0067798Y0025900D01*
X0067719Y0025895D01*
X0067640Y0025894D01*
X0067561Y0025897D01*
X0067482Y0025904D01*
X0067404Y0025915D01*
X0067326Y0025930D01*
X0067249Y0025949D01*
X0067173Y0025971D01*
X0067099Y0025997D01*
X0067025Y0026027D01*
X0066954Y0026061D01*
X0066884Y0026098D01*
X0066816Y0026139D01*
X0066750Y0026183D01*
X0066687Y0026231D01*
X0066626Y0026281D01*
X0066567Y0026335D01*
X0066512Y0026391D01*
X0066459Y0026450D01*
X0066409Y0026512D01*
X0066363Y0026576D01*
X0066320Y0026642D01*
X0066280Y0026710D01*
X0066243Y0026781D01*
X0066211Y0026853D01*
X0066181Y0026926D01*
X0066156Y0027001D01*
X0066134Y0027077D01*
X0066117Y0027154D01*
X0066103Y0027232D01*
X0066093Y0027311D01*
X0066087Y0027390D01*
X0066085Y0027469D01*
X0067660Y0027469D02*
X0067662Y0027548D01*
X0067668Y0027627D01*
X0067678Y0027706D01*
X0067692Y0027784D01*
X0067709Y0027861D01*
X0067731Y0027937D01*
X0067756Y0028012D01*
X0067786Y0028085D01*
X0067818Y0028157D01*
X0067855Y0028228D01*
X0067895Y0028296D01*
X0067938Y0028362D01*
X0067984Y0028426D01*
X0068034Y0028488D01*
X0068087Y0028547D01*
X0068142Y0028603D01*
X0068201Y0028657D01*
X0068262Y0028707D01*
X0068325Y0028755D01*
X0068391Y0028799D01*
X0068459Y0028840D01*
X0068529Y0028877D01*
X0068600Y0028911D01*
X0068674Y0028941D01*
X0068748Y0028967D01*
X0068824Y0028989D01*
X0068901Y0029008D01*
X0068979Y0029023D01*
X0069057Y0029034D01*
X0069136Y0029041D01*
X0069215Y0029044D01*
X0069294Y0029043D01*
X0069373Y0029038D01*
X0069452Y0029029D01*
X0069530Y0029016D01*
X0069607Y0028999D01*
X0069684Y0028979D01*
X0069759Y0028954D01*
X0069833Y0028926D01*
X0069906Y0028894D01*
X0069976Y0028859D01*
X0070045Y0028820D01*
X0070112Y0028777D01*
X0070177Y0028731D01*
X0070239Y0028683D01*
X0070299Y0028631D01*
X0070356Y0028576D01*
X0070410Y0028518D01*
X0070461Y0028458D01*
X0070509Y0028395D01*
X0070554Y0028330D01*
X0070596Y0028262D01*
X0070634Y0028193D01*
X0070668Y0028122D01*
X0070699Y0028049D01*
X0070727Y0027974D01*
X0070750Y0027899D01*
X0070770Y0027822D01*
X0070786Y0027745D01*
X0070798Y0027666D01*
X0070806Y0027588D01*
X0070810Y0027509D01*
X0070810Y0027429D01*
X0070806Y0027350D01*
X0070798Y0027272D01*
X0070786Y0027193D01*
X0070770Y0027116D01*
X0070750Y0027039D01*
X0070727Y0026964D01*
X0070699Y0026889D01*
X0070668Y0026816D01*
X0070634Y0026745D01*
X0070596Y0026676D01*
X0070554Y0026608D01*
X0070509Y0026543D01*
X0070461Y0026480D01*
X0070410Y0026420D01*
X0070356Y0026362D01*
X0070299Y0026307D01*
X0070239Y0026255D01*
X0070177Y0026207D01*
X0070112Y0026161D01*
X0070045Y0026118D01*
X0069976Y0026079D01*
X0069906Y0026044D01*
X0069833Y0026012D01*
X0069759Y0025984D01*
X0069684Y0025959D01*
X0069607Y0025939D01*
X0069530Y0025922D01*
X0069452Y0025909D01*
X0069373Y0025900D01*
X0069294Y0025895D01*
X0069215Y0025894D01*
X0069136Y0025897D01*
X0069057Y0025904D01*
X0068979Y0025915D01*
X0068901Y0025930D01*
X0068824Y0025949D01*
X0068748Y0025971D01*
X0068674Y0025997D01*
X0068600Y0026027D01*
X0068529Y0026061D01*
X0068459Y0026098D01*
X0068391Y0026139D01*
X0068325Y0026183D01*
X0068262Y0026231D01*
X0068201Y0026281D01*
X0068142Y0026335D01*
X0068087Y0026391D01*
X0068034Y0026450D01*
X0067984Y0026512D01*
X0067938Y0026576D01*
X0067895Y0026642D01*
X0067855Y0026710D01*
X0067818Y0026781D01*
X0067786Y0026853D01*
X0067756Y0026926D01*
X0067731Y0027001D01*
X0067709Y0027077D01*
X0067692Y0027154D01*
X0067678Y0027232D01*
X0067668Y0027311D01*
X0067662Y0027390D01*
X0067660Y0027469D01*
X0070809Y0027469D02*
X0070811Y0027548D01*
X0070817Y0027627D01*
X0070827Y0027706D01*
X0070841Y0027784D01*
X0070858Y0027861D01*
X0070880Y0027937D01*
X0070905Y0028012D01*
X0070935Y0028085D01*
X0070967Y0028157D01*
X0071004Y0028228D01*
X0071044Y0028296D01*
X0071087Y0028362D01*
X0071133Y0028426D01*
X0071183Y0028488D01*
X0071236Y0028547D01*
X0071291Y0028603D01*
X0071350Y0028657D01*
X0071411Y0028707D01*
X0071474Y0028755D01*
X0071540Y0028799D01*
X0071608Y0028840D01*
X0071678Y0028877D01*
X0071749Y0028911D01*
X0071823Y0028941D01*
X0071897Y0028967D01*
X0071973Y0028989D01*
X0072050Y0029008D01*
X0072128Y0029023D01*
X0072206Y0029034D01*
X0072285Y0029041D01*
X0072364Y0029044D01*
X0072443Y0029043D01*
X0072522Y0029038D01*
X0072601Y0029029D01*
X0072679Y0029016D01*
X0072756Y0028999D01*
X0072833Y0028979D01*
X0072908Y0028954D01*
X0072982Y0028926D01*
X0073055Y0028894D01*
X0073125Y0028859D01*
X0073194Y0028820D01*
X0073261Y0028777D01*
X0073326Y0028731D01*
X0073388Y0028683D01*
X0073448Y0028631D01*
X0073505Y0028576D01*
X0073559Y0028518D01*
X0073610Y0028458D01*
X0073658Y0028395D01*
X0073703Y0028330D01*
X0073745Y0028262D01*
X0073783Y0028193D01*
X0073817Y0028122D01*
X0073848Y0028049D01*
X0073876Y0027974D01*
X0073899Y0027899D01*
X0073919Y0027822D01*
X0073935Y0027745D01*
X0073947Y0027666D01*
X0073955Y0027588D01*
X0073959Y0027509D01*
X0073959Y0027429D01*
X0073955Y0027350D01*
X0073947Y0027272D01*
X0073935Y0027193D01*
X0073919Y0027116D01*
X0073899Y0027039D01*
X0073876Y0026964D01*
X0073848Y0026889D01*
X0073817Y0026816D01*
X0073783Y0026745D01*
X0073745Y0026676D01*
X0073703Y0026608D01*
X0073658Y0026543D01*
X0073610Y0026480D01*
X0073559Y0026420D01*
X0073505Y0026362D01*
X0073448Y0026307D01*
X0073388Y0026255D01*
X0073326Y0026207D01*
X0073261Y0026161D01*
X0073194Y0026118D01*
X0073125Y0026079D01*
X0073055Y0026044D01*
X0072982Y0026012D01*
X0072908Y0025984D01*
X0072833Y0025959D01*
X0072756Y0025939D01*
X0072679Y0025922D01*
X0072601Y0025909D01*
X0072522Y0025900D01*
X0072443Y0025895D01*
X0072364Y0025894D01*
X0072285Y0025897D01*
X0072206Y0025904D01*
X0072128Y0025915D01*
X0072050Y0025930D01*
X0071973Y0025949D01*
X0071897Y0025971D01*
X0071823Y0025997D01*
X0071749Y0026027D01*
X0071678Y0026061D01*
X0071608Y0026098D01*
X0071540Y0026139D01*
X0071474Y0026183D01*
X0071411Y0026231D01*
X0071350Y0026281D01*
X0071291Y0026335D01*
X0071236Y0026391D01*
X0071183Y0026450D01*
X0071133Y0026512D01*
X0071087Y0026576D01*
X0071044Y0026642D01*
X0071004Y0026710D01*
X0070967Y0026781D01*
X0070935Y0026853D01*
X0070905Y0026926D01*
X0070880Y0027001D01*
X0070858Y0027077D01*
X0070841Y0027154D01*
X0070827Y0027232D01*
X0070817Y0027311D01*
X0070811Y0027390D01*
X0070809Y0027469D01*
X0072384Y0027469D02*
X0072386Y0027548D01*
X0072392Y0027627D01*
X0072402Y0027706D01*
X0072416Y0027784D01*
X0072433Y0027861D01*
X0072455Y0027937D01*
X0072480Y0028012D01*
X0072510Y0028085D01*
X0072542Y0028157D01*
X0072579Y0028228D01*
X0072619Y0028296D01*
X0072662Y0028362D01*
X0072708Y0028426D01*
X0072758Y0028488D01*
X0072811Y0028547D01*
X0072866Y0028603D01*
X0072925Y0028657D01*
X0072986Y0028707D01*
X0073049Y0028755D01*
X0073115Y0028799D01*
X0073183Y0028840D01*
X0073253Y0028877D01*
X0073324Y0028911D01*
X0073398Y0028941D01*
X0073472Y0028967D01*
X0073548Y0028989D01*
X0073625Y0029008D01*
X0073703Y0029023D01*
X0073781Y0029034D01*
X0073860Y0029041D01*
X0073939Y0029044D01*
X0074018Y0029043D01*
X0074097Y0029038D01*
X0074176Y0029029D01*
X0074254Y0029016D01*
X0074331Y0028999D01*
X0074408Y0028979D01*
X0074483Y0028954D01*
X0074557Y0028926D01*
X0074630Y0028894D01*
X0074700Y0028859D01*
X0074769Y0028820D01*
X0074836Y0028777D01*
X0074901Y0028731D01*
X0074963Y0028683D01*
X0075023Y0028631D01*
X0075080Y0028576D01*
X0075134Y0028518D01*
X0075185Y0028458D01*
X0075233Y0028395D01*
X0075278Y0028330D01*
X0075320Y0028262D01*
X0075358Y0028193D01*
X0075392Y0028122D01*
X0075423Y0028049D01*
X0075451Y0027974D01*
X0075474Y0027899D01*
X0075494Y0027822D01*
X0075510Y0027745D01*
X0075522Y0027666D01*
X0075530Y0027588D01*
X0075534Y0027509D01*
X0075534Y0027429D01*
X0075530Y0027350D01*
X0075522Y0027272D01*
X0075510Y0027193D01*
X0075494Y0027116D01*
X0075474Y0027039D01*
X0075451Y0026964D01*
X0075423Y0026889D01*
X0075392Y0026816D01*
X0075358Y0026745D01*
X0075320Y0026676D01*
X0075278Y0026608D01*
X0075233Y0026543D01*
X0075185Y0026480D01*
X0075134Y0026420D01*
X0075080Y0026362D01*
X0075023Y0026307D01*
X0074963Y0026255D01*
X0074901Y0026207D01*
X0074836Y0026161D01*
X0074769Y0026118D01*
X0074700Y0026079D01*
X0074630Y0026044D01*
X0074557Y0026012D01*
X0074483Y0025984D01*
X0074408Y0025959D01*
X0074331Y0025939D01*
X0074254Y0025922D01*
X0074176Y0025909D01*
X0074097Y0025900D01*
X0074018Y0025895D01*
X0073939Y0025894D01*
X0073860Y0025897D01*
X0073781Y0025904D01*
X0073703Y0025915D01*
X0073625Y0025930D01*
X0073548Y0025949D01*
X0073472Y0025971D01*
X0073398Y0025997D01*
X0073324Y0026027D01*
X0073253Y0026061D01*
X0073183Y0026098D01*
X0073115Y0026139D01*
X0073049Y0026183D01*
X0072986Y0026231D01*
X0072925Y0026281D01*
X0072866Y0026335D01*
X0072811Y0026391D01*
X0072758Y0026450D01*
X0072708Y0026512D01*
X0072662Y0026576D01*
X0072619Y0026642D01*
X0072579Y0026710D01*
X0072542Y0026781D01*
X0072510Y0026853D01*
X0072480Y0026926D01*
X0072455Y0027001D01*
X0072433Y0027077D01*
X0072416Y0027154D01*
X0072402Y0027232D01*
X0072392Y0027311D01*
X0072386Y0027390D01*
X0072384Y0027469D01*
X0070809Y0073531D02*
X0070811Y0073610D01*
X0070817Y0073689D01*
X0070827Y0073768D01*
X0070841Y0073846D01*
X0070858Y0073923D01*
X0070880Y0073999D01*
X0070905Y0074074D01*
X0070935Y0074147D01*
X0070967Y0074219D01*
X0071004Y0074290D01*
X0071044Y0074358D01*
X0071087Y0074424D01*
X0071133Y0074488D01*
X0071183Y0074550D01*
X0071236Y0074609D01*
X0071291Y0074665D01*
X0071350Y0074719D01*
X0071411Y0074769D01*
X0071474Y0074817D01*
X0071540Y0074861D01*
X0071608Y0074902D01*
X0071678Y0074939D01*
X0071749Y0074973D01*
X0071823Y0075003D01*
X0071897Y0075029D01*
X0071973Y0075051D01*
X0072050Y0075070D01*
X0072128Y0075085D01*
X0072206Y0075096D01*
X0072285Y0075103D01*
X0072364Y0075106D01*
X0072443Y0075105D01*
X0072522Y0075100D01*
X0072601Y0075091D01*
X0072679Y0075078D01*
X0072756Y0075061D01*
X0072833Y0075041D01*
X0072908Y0075016D01*
X0072982Y0074988D01*
X0073055Y0074956D01*
X0073125Y0074921D01*
X0073194Y0074882D01*
X0073261Y0074839D01*
X0073326Y0074793D01*
X0073388Y0074745D01*
X0073448Y0074693D01*
X0073505Y0074638D01*
X0073559Y0074580D01*
X0073610Y0074520D01*
X0073658Y0074457D01*
X0073703Y0074392D01*
X0073745Y0074324D01*
X0073783Y0074255D01*
X0073817Y0074184D01*
X0073848Y0074111D01*
X0073876Y0074036D01*
X0073899Y0073961D01*
X0073919Y0073884D01*
X0073935Y0073807D01*
X0073947Y0073728D01*
X0073955Y0073650D01*
X0073959Y0073571D01*
X0073959Y0073491D01*
X0073955Y0073412D01*
X0073947Y0073334D01*
X0073935Y0073255D01*
X0073919Y0073178D01*
X0073899Y0073101D01*
X0073876Y0073026D01*
X0073848Y0072951D01*
X0073817Y0072878D01*
X0073783Y0072807D01*
X0073745Y0072738D01*
X0073703Y0072670D01*
X0073658Y0072605D01*
X0073610Y0072542D01*
X0073559Y0072482D01*
X0073505Y0072424D01*
X0073448Y0072369D01*
X0073388Y0072317D01*
X0073326Y0072269D01*
X0073261Y0072223D01*
X0073194Y0072180D01*
X0073125Y0072141D01*
X0073055Y0072106D01*
X0072982Y0072074D01*
X0072908Y0072046D01*
X0072833Y0072021D01*
X0072756Y0072001D01*
X0072679Y0071984D01*
X0072601Y0071971D01*
X0072522Y0071962D01*
X0072443Y0071957D01*
X0072364Y0071956D01*
X0072285Y0071959D01*
X0072206Y0071966D01*
X0072128Y0071977D01*
X0072050Y0071992D01*
X0071973Y0072011D01*
X0071897Y0072033D01*
X0071823Y0072059D01*
X0071749Y0072089D01*
X0071678Y0072123D01*
X0071608Y0072160D01*
X0071540Y0072201D01*
X0071474Y0072245D01*
X0071411Y0072293D01*
X0071350Y0072343D01*
X0071291Y0072397D01*
X0071236Y0072453D01*
X0071183Y0072512D01*
X0071133Y0072574D01*
X0071087Y0072638D01*
X0071044Y0072704D01*
X0071004Y0072772D01*
X0070967Y0072843D01*
X0070935Y0072915D01*
X0070905Y0072988D01*
X0070880Y0073063D01*
X0070858Y0073139D01*
X0070841Y0073216D01*
X0070827Y0073294D01*
X0070817Y0073373D01*
X0070811Y0073452D01*
X0070809Y0073531D01*
X0067660Y0073531D02*
X0067662Y0073610D01*
X0067668Y0073689D01*
X0067678Y0073768D01*
X0067692Y0073846D01*
X0067709Y0073923D01*
X0067731Y0073999D01*
X0067756Y0074074D01*
X0067786Y0074147D01*
X0067818Y0074219D01*
X0067855Y0074290D01*
X0067895Y0074358D01*
X0067938Y0074424D01*
X0067984Y0074488D01*
X0068034Y0074550D01*
X0068087Y0074609D01*
X0068142Y0074665D01*
X0068201Y0074719D01*
X0068262Y0074769D01*
X0068325Y0074817D01*
X0068391Y0074861D01*
X0068459Y0074902D01*
X0068529Y0074939D01*
X0068600Y0074973D01*
X0068674Y0075003D01*
X0068748Y0075029D01*
X0068824Y0075051D01*
X0068901Y0075070D01*
X0068979Y0075085D01*
X0069057Y0075096D01*
X0069136Y0075103D01*
X0069215Y0075106D01*
X0069294Y0075105D01*
X0069373Y0075100D01*
X0069452Y0075091D01*
X0069530Y0075078D01*
X0069607Y0075061D01*
X0069684Y0075041D01*
X0069759Y0075016D01*
X0069833Y0074988D01*
X0069906Y0074956D01*
X0069976Y0074921D01*
X0070045Y0074882D01*
X0070112Y0074839D01*
X0070177Y0074793D01*
X0070239Y0074745D01*
X0070299Y0074693D01*
X0070356Y0074638D01*
X0070410Y0074580D01*
X0070461Y0074520D01*
X0070509Y0074457D01*
X0070554Y0074392D01*
X0070596Y0074324D01*
X0070634Y0074255D01*
X0070668Y0074184D01*
X0070699Y0074111D01*
X0070727Y0074036D01*
X0070750Y0073961D01*
X0070770Y0073884D01*
X0070786Y0073807D01*
X0070798Y0073728D01*
X0070806Y0073650D01*
X0070810Y0073571D01*
X0070810Y0073491D01*
X0070806Y0073412D01*
X0070798Y0073334D01*
X0070786Y0073255D01*
X0070770Y0073178D01*
X0070750Y0073101D01*
X0070727Y0073026D01*
X0070699Y0072951D01*
X0070668Y0072878D01*
X0070634Y0072807D01*
X0070596Y0072738D01*
X0070554Y0072670D01*
X0070509Y0072605D01*
X0070461Y0072542D01*
X0070410Y0072482D01*
X0070356Y0072424D01*
X0070299Y0072369D01*
X0070239Y0072317D01*
X0070177Y0072269D01*
X0070112Y0072223D01*
X0070045Y0072180D01*
X0069976Y0072141D01*
X0069906Y0072106D01*
X0069833Y0072074D01*
X0069759Y0072046D01*
X0069684Y0072021D01*
X0069607Y0072001D01*
X0069530Y0071984D01*
X0069452Y0071971D01*
X0069373Y0071962D01*
X0069294Y0071957D01*
X0069215Y0071956D01*
X0069136Y0071959D01*
X0069057Y0071966D01*
X0068979Y0071977D01*
X0068901Y0071992D01*
X0068824Y0072011D01*
X0068748Y0072033D01*
X0068674Y0072059D01*
X0068600Y0072089D01*
X0068529Y0072123D01*
X0068459Y0072160D01*
X0068391Y0072201D01*
X0068325Y0072245D01*
X0068262Y0072293D01*
X0068201Y0072343D01*
X0068142Y0072397D01*
X0068087Y0072453D01*
X0068034Y0072512D01*
X0067984Y0072574D01*
X0067938Y0072638D01*
X0067895Y0072704D01*
X0067855Y0072772D01*
X0067818Y0072843D01*
X0067786Y0072915D01*
X0067756Y0072988D01*
X0067731Y0073063D01*
X0067709Y0073139D01*
X0067692Y0073216D01*
X0067678Y0073294D01*
X0067668Y0073373D01*
X0067662Y0073452D01*
X0067660Y0073531D01*
X0066085Y0073531D02*
X0066087Y0073610D01*
X0066093Y0073689D01*
X0066103Y0073768D01*
X0066117Y0073846D01*
X0066134Y0073923D01*
X0066156Y0073999D01*
X0066181Y0074074D01*
X0066211Y0074147D01*
X0066243Y0074219D01*
X0066280Y0074290D01*
X0066320Y0074358D01*
X0066363Y0074424D01*
X0066409Y0074488D01*
X0066459Y0074550D01*
X0066512Y0074609D01*
X0066567Y0074665D01*
X0066626Y0074719D01*
X0066687Y0074769D01*
X0066750Y0074817D01*
X0066816Y0074861D01*
X0066884Y0074902D01*
X0066954Y0074939D01*
X0067025Y0074973D01*
X0067099Y0075003D01*
X0067173Y0075029D01*
X0067249Y0075051D01*
X0067326Y0075070D01*
X0067404Y0075085D01*
X0067482Y0075096D01*
X0067561Y0075103D01*
X0067640Y0075106D01*
X0067719Y0075105D01*
X0067798Y0075100D01*
X0067877Y0075091D01*
X0067955Y0075078D01*
X0068032Y0075061D01*
X0068109Y0075041D01*
X0068184Y0075016D01*
X0068258Y0074988D01*
X0068331Y0074956D01*
X0068401Y0074921D01*
X0068470Y0074882D01*
X0068537Y0074839D01*
X0068602Y0074793D01*
X0068664Y0074745D01*
X0068724Y0074693D01*
X0068781Y0074638D01*
X0068835Y0074580D01*
X0068886Y0074520D01*
X0068934Y0074457D01*
X0068979Y0074392D01*
X0069021Y0074324D01*
X0069059Y0074255D01*
X0069093Y0074184D01*
X0069124Y0074111D01*
X0069152Y0074036D01*
X0069175Y0073961D01*
X0069195Y0073884D01*
X0069211Y0073807D01*
X0069223Y0073728D01*
X0069231Y0073650D01*
X0069235Y0073571D01*
X0069235Y0073491D01*
X0069231Y0073412D01*
X0069223Y0073334D01*
X0069211Y0073255D01*
X0069195Y0073178D01*
X0069175Y0073101D01*
X0069152Y0073026D01*
X0069124Y0072951D01*
X0069093Y0072878D01*
X0069059Y0072807D01*
X0069021Y0072738D01*
X0068979Y0072670D01*
X0068934Y0072605D01*
X0068886Y0072542D01*
X0068835Y0072482D01*
X0068781Y0072424D01*
X0068724Y0072369D01*
X0068664Y0072317D01*
X0068602Y0072269D01*
X0068537Y0072223D01*
X0068470Y0072180D01*
X0068401Y0072141D01*
X0068331Y0072106D01*
X0068258Y0072074D01*
X0068184Y0072046D01*
X0068109Y0072021D01*
X0068032Y0072001D01*
X0067955Y0071984D01*
X0067877Y0071971D01*
X0067798Y0071962D01*
X0067719Y0071957D01*
X0067640Y0071956D01*
X0067561Y0071959D01*
X0067482Y0071966D01*
X0067404Y0071977D01*
X0067326Y0071992D01*
X0067249Y0072011D01*
X0067173Y0072033D01*
X0067099Y0072059D01*
X0067025Y0072089D01*
X0066954Y0072123D01*
X0066884Y0072160D01*
X0066816Y0072201D01*
X0066750Y0072245D01*
X0066687Y0072293D01*
X0066626Y0072343D01*
X0066567Y0072397D01*
X0066512Y0072453D01*
X0066459Y0072512D01*
X0066409Y0072574D01*
X0066363Y0072638D01*
X0066320Y0072704D01*
X0066280Y0072772D01*
X0066243Y0072843D01*
X0066211Y0072915D01*
X0066181Y0072988D01*
X0066156Y0073063D01*
X0066134Y0073139D01*
X0066117Y0073216D01*
X0066103Y0073294D01*
X0066093Y0073373D01*
X0066087Y0073452D01*
X0066085Y0073531D01*
X0072384Y0073531D02*
X0072386Y0073610D01*
X0072392Y0073689D01*
X0072402Y0073768D01*
X0072416Y0073846D01*
X0072433Y0073923D01*
X0072455Y0073999D01*
X0072480Y0074074D01*
X0072510Y0074147D01*
X0072542Y0074219D01*
X0072579Y0074290D01*
X0072619Y0074358D01*
X0072662Y0074424D01*
X0072708Y0074488D01*
X0072758Y0074550D01*
X0072811Y0074609D01*
X0072866Y0074665D01*
X0072925Y0074719D01*
X0072986Y0074769D01*
X0073049Y0074817D01*
X0073115Y0074861D01*
X0073183Y0074902D01*
X0073253Y0074939D01*
X0073324Y0074973D01*
X0073398Y0075003D01*
X0073472Y0075029D01*
X0073548Y0075051D01*
X0073625Y0075070D01*
X0073703Y0075085D01*
X0073781Y0075096D01*
X0073860Y0075103D01*
X0073939Y0075106D01*
X0074018Y0075105D01*
X0074097Y0075100D01*
X0074176Y0075091D01*
X0074254Y0075078D01*
X0074331Y0075061D01*
X0074408Y0075041D01*
X0074483Y0075016D01*
X0074557Y0074988D01*
X0074630Y0074956D01*
X0074700Y0074921D01*
X0074769Y0074882D01*
X0074836Y0074839D01*
X0074901Y0074793D01*
X0074963Y0074745D01*
X0075023Y0074693D01*
X0075080Y0074638D01*
X0075134Y0074580D01*
X0075185Y0074520D01*
X0075233Y0074457D01*
X0075278Y0074392D01*
X0075320Y0074324D01*
X0075358Y0074255D01*
X0075392Y0074184D01*
X0075423Y0074111D01*
X0075451Y0074036D01*
X0075474Y0073961D01*
X0075494Y0073884D01*
X0075510Y0073807D01*
X0075522Y0073728D01*
X0075530Y0073650D01*
X0075534Y0073571D01*
X0075534Y0073491D01*
X0075530Y0073412D01*
X0075522Y0073334D01*
X0075510Y0073255D01*
X0075494Y0073178D01*
X0075474Y0073101D01*
X0075451Y0073026D01*
X0075423Y0072951D01*
X0075392Y0072878D01*
X0075358Y0072807D01*
X0075320Y0072738D01*
X0075278Y0072670D01*
X0075233Y0072605D01*
X0075185Y0072542D01*
X0075134Y0072482D01*
X0075080Y0072424D01*
X0075023Y0072369D01*
X0074963Y0072317D01*
X0074901Y0072269D01*
X0074836Y0072223D01*
X0074769Y0072180D01*
X0074700Y0072141D01*
X0074630Y0072106D01*
X0074557Y0072074D01*
X0074483Y0072046D01*
X0074408Y0072021D01*
X0074331Y0072001D01*
X0074254Y0071984D01*
X0074176Y0071971D01*
X0074097Y0071962D01*
X0074018Y0071957D01*
X0073939Y0071956D01*
X0073860Y0071959D01*
X0073781Y0071966D01*
X0073703Y0071977D01*
X0073625Y0071992D01*
X0073548Y0072011D01*
X0073472Y0072033D01*
X0073398Y0072059D01*
X0073324Y0072089D01*
X0073253Y0072123D01*
X0073183Y0072160D01*
X0073115Y0072201D01*
X0073049Y0072245D01*
X0072986Y0072293D01*
X0072925Y0072343D01*
X0072866Y0072397D01*
X0072811Y0072453D01*
X0072758Y0072512D01*
X0072708Y0072574D01*
X0072662Y0072638D01*
X0072619Y0072704D01*
X0072579Y0072772D01*
X0072542Y0072843D01*
X0072510Y0072915D01*
X0072480Y0072988D01*
X0072455Y0073063D01*
X0072433Y0073139D01*
X0072416Y0073216D01*
X0072402Y0073294D01*
X0072392Y0073373D01*
X0072386Y0073452D01*
X0072384Y0073531D01*
X0063723Y0090583D02*
X0063725Y0090723D01*
X0063731Y0090863D01*
X0063741Y0091002D01*
X0063755Y0091141D01*
X0063773Y0091280D01*
X0063794Y0091418D01*
X0063820Y0091556D01*
X0063850Y0091693D01*
X0063883Y0091828D01*
X0063921Y0091963D01*
X0063962Y0092097D01*
X0064007Y0092230D01*
X0064055Y0092361D01*
X0064108Y0092490D01*
X0064164Y0092619D01*
X0064223Y0092745D01*
X0064287Y0092870D01*
X0064353Y0092993D01*
X0064424Y0093114D01*
X0064497Y0093233D01*
X0064574Y0093350D01*
X0064655Y0093464D01*
X0064738Y0093576D01*
X0064825Y0093686D01*
X0064915Y0093794D01*
X0065007Y0093898D01*
X0065103Y0094000D01*
X0065202Y0094100D01*
X0065303Y0094196D01*
X0065407Y0094290D01*
X0065514Y0094380D01*
X0065623Y0094467D01*
X0065735Y0094552D01*
X0065849Y0094633D01*
X0065965Y0094711D01*
X0066083Y0094785D01*
X0066204Y0094856D01*
X0066326Y0094924D01*
X0066451Y0094988D01*
X0066577Y0095049D01*
X0066704Y0095106D01*
X0066834Y0095159D01*
X0066965Y0095209D01*
X0067097Y0095254D01*
X0067230Y0095297D01*
X0067365Y0095335D01*
X0067500Y0095369D01*
X0067637Y0095400D01*
X0067774Y0095427D01*
X0067912Y0095449D01*
X0068051Y0095468D01*
X0068190Y0095483D01*
X0068329Y0095494D01*
X0068469Y0095501D01*
X0068609Y0095504D01*
X0068749Y0095503D01*
X0068889Y0095498D01*
X0069028Y0095489D01*
X0069168Y0095476D01*
X0069307Y0095459D01*
X0069445Y0095438D01*
X0069583Y0095414D01*
X0069720Y0095385D01*
X0069856Y0095353D01*
X0069991Y0095316D01*
X0070125Y0095276D01*
X0070258Y0095232D01*
X0070389Y0095184D01*
X0070519Y0095133D01*
X0070648Y0095078D01*
X0070775Y0095019D01*
X0070900Y0094956D01*
X0071023Y0094891D01*
X0071145Y0094821D01*
X0071264Y0094748D01*
X0071382Y0094672D01*
X0071497Y0094593D01*
X0071610Y0094510D01*
X0071720Y0094424D01*
X0071828Y0094335D01*
X0071933Y0094243D01*
X0072036Y0094148D01*
X0072136Y0094050D01*
X0072233Y0093950D01*
X0072327Y0093846D01*
X0072419Y0093740D01*
X0072507Y0093632D01*
X0072592Y0093521D01*
X0072674Y0093407D01*
X0072753Y0093291D01*
X0072828Y0093174D01*
X0072900Y0093054D01*
X0072968Y0092932D01*
X0073033Y0092808D01*
X0073095Y0092682D01*
X0073153Y0092555D01*
X0073207Y0092426D01*
X0073258Y0092295D01*
X0073304Y0092163D01*
X0073347Y0092030D01*
X0073387Y0091896D01*
X0073422Y0091761D01*
X0073454Y0091624D01*
X0073481Y0091487D01*
X0073505Y0091349D01*
X0073525Y0091211D01*
X0073541Y0091072D01*
X0073553Y0090932D01*
X0073561Y0090793D01*
X0073565Y0090653D01*
X0073565Y0090513D01*
X0073561Y0090373D01*
X0073553Y0090234D01*
X0073541Y0090094D01*
X0073525Y0089955D01*
X0073505Y0089817D01*
X0073481Y0089679D01*
X0073454Y0089542D01*
X0073422Y0089405D01*
X0073387Y0089270D01*
X0073347Y0089136D01*
X0073304Y0089003D01*
X0073258Y0088871D01*
X0073207Y0088740D01*
X0073153Y0088611D01*
X0073095Y0088484D01*
X0073033Y0088358D01*
X0072968Y0088234D01*
X0072900Y0088112D01*
X0072828Y0087992D01*
X0072753Y0087875D01*
X0072674Y0087759D01*
X0072592Y0087645D01*
X0072507Y0087534D01*
X0072419Y0087426D01*
X0072327Y0087320D01*
X0072233Y0087216D01*
X0072136Y0087116D01*
X0072036Y0087018D01*
X0071933Y0086923D01*
X0071828Y0086831D01*
X0071720Y0086742D01*
X0071610Y0086656D01*
X0071497Y0086573D01*
X0071382Y0086494D01*
X0071264Y0086418D01*
X0071145Y0086345D01*
X0071023Y0086275D01*
X0070900Y0086210D01*
X0070775Y0086147D01*
X0070648Y0086088D01*
X0070519Y0086033D01*
X0070389Y0085982D01*
X0070258Y0085934D01*
X0070125Y0085890D01*
X0069991Y0085850D01*
X0069856Y0085813D01*
X0069720Y0085781D01*
X0069583Y0085752D01*
X0069445Y0085728D01*
X0069307Y0085707D01*
X0069168Y0085690D01*
X0069028Y0085677D01*
X0068889Y0085668D01*
X0068749Y0085663D01*
X0068609Y0085662D01*
X0068469Y0085665D01*
X0068329Y0085672D01*
X0068190Y0085683D01*
X0068051Y0085698D01*
X0067912Y0085717D01*
X0067774Y0085739D01*
X0067637Y0085766D01*
X0067500Y0085797D01*
X0067365Y0085831D01*
X0067230Y0085869D01*
X0067097Y0085912D01*
X0066965Y0085957D01*
X0066834Y0086007D01*
X0066704Y0086060D01*
X0066577Y0086117D01*
X0066451Y0086178D01*
X0066326Y0086242D01*
X0066204Y0086310D01*
X0066083Y0086381D01*
X0065965Y0086455D01*
X0065849Y0086533D01*
X0065735Y0086614D01*
X0065623Y0086699D01*
X0065514Y0086786D01*
X0065407Y0086876D01*
X0065303Y0086970D01*
X0065202Y0087066D01*
X0065103Y0087166D01*
X0065007Y0087268D01*
X0064915Y0087372D01*
X0064825Y0087480D01*
X0064738Y0087590D01*
X0064655Y0087702D01*
X0064574Y0087816D01*
X0064497Y0087933D01*
X0064424Y0088052D01*
X0064353Y0088173D01*
X0064287Y0088296D01*
X0064223Y0088421D01*
X0064164Y0088547D01*
X0064108Y0088676D01*
X0064055Y0088805D01*
X0064007Y0088936D01*
X0063962Y0089069D01*
X0063921Y0089203D01*
X0063883Y0089338D01*
X0063850Y0089473D01*
X0063820Y0089610D01*
X0063794Y0089748D01*
X0063773Y0089886D01*
X0063755Y0090025D01*
X0063741Y0090164D01*
X0063731Y0090303D01*
X0063725Y0090443D01*
X0063723Y0090583D01*
X0282227Y0090583D02*
X0282229Y0090723D01*
X0282235Y0090863D01*
X0282245Y0091002D01*
X0282259Y0091141D01*
X0282277Y0091280D01*
X0282298Y0091418D01*
X0282324Y0091556D01*
X0282354Y0091693D01*
X0282387Y0091828D01*
X0282425Y0091963D01*
X0282466Y0092097D01*
X0282511Y0092230D01*
X0282559Y0092361D01*
X0282612Y0092490D01*
X0282668Y0092619D01*
X0282727Y0092745D01*
X0282791Y0092870D01*
X0282857Y0092993D01*
X0282928Y0093114D01*
X0283001Y0093233D01*
X0283078Y0093350D01*
X0283159Y0093464D01*
X0283242Y0093576D01*
X0283329Y0093686D01*
X0283419Y0093794D01*
X0283511Y0093898D01*
X0283607Y0094000D01*
X0283706Y0094100D01*
X0283807Y0094196D01*
X0283911Y0094290D01*
X0284018Y0094380D01*
X0284127Y0094467D01*
X0284239Y0094552D01*
X0284353Y0094633D01*
X0284469Y0094711D01*
X0284587Y0094785D01*
X0284708Y0094856D01*
X0284830Y0094924D01*
X0284955Y0094988D01*
X0285081Y0095049D01*
X0285208Y0095106D01*
X0285338Y0095159D01*
X0285469Y0095209D01*
X0285601Y0095254D01*
X0285734Y0095297D01*
X0285869Y0095335D01*
X0286004Y0095369D01*
X0286141Y0095400D01*
X0286278Y0095427D01*
X0286416Y0095449D01*
X0286555Y0095468D01*
X0286694Y0095483D01*
X0286833Y0095494D01*
X0286973Y0095501D01*
X0287113Y0095504D01*
X0287253Y0095503D01*
X0287393Y0095498D01*
X0287532Y0095489D01*
X0287672Y0095476D01*
X0287811Y0095459D01*
X0287949Y0095438D01*
X0288087Y0095414D01*
X0288224Y0095385D01*
X0288360Y0095353D01*
X0288495Y0095316D01*
X0288629Y0095276D01*
X0288762Y0095232D01*
X0288893Y0095184D01*
X0289023Y0095133D01*
X0289152Y0095078D01*
X0289279Y0095019D01*
X0289404Y0094956D01*
X0289527Y0094891D01*
X0289649Y0094821D01*
X0289768Y0094748D01*
X0289886Y0094672D01*
X0290001Y0094593D01*
X0290114Y0094510D01*
X0290224Y0094424D01*
X0290332Y0094335D01*
X0290437Y0094243D01*
X0290540Y0094148D01*
X0290640Y0094050D01*
X0290737Y0093950D01*
X0290831Y0093846D01*
X0290923Y0093740D01*
X0291011Y0093632D01*
X0291096Y0093521D01*
X0291178Y0093407D01*
X0291257Y0093291D01*
X0291332Y0093174D01*
X0291404Y0093054D01*
X0291472Y0092932D01*
X0291537Y0092808D01*
X0291599Y0092682D01*
X0291657Y0092555D01*
X0291711Y0092426D01*
X0291762Y0092295D01*
X0291808Y0092163D01*
X0291851Y0092030D01*
X0291891Y0091896D01*
X0291926Y0091761D01*
X0291958Y0091624D01*
X0291985Y0091487D01*
X0292009Y0091349D01*
X0292029Y0091211D01*
X0292045Y0091072D01*
X0292057Y0090932D01*
X0292065Y0090793D01*
X0292069Y0090653D01*
X0292069Y0090513D01*
X0292065Y0090373D01*
X0292057Y0090234D01*
X0292045Y0090094D01*
X0292029Y0089955D01*
X0292009Y0089817D01*
X0291985Y0089679D01*
X0291958Y0089542D01*
X0291926Y0089405D01*
X0291891Y0089270D01*
X0291851Y0089136D01*
X0291808Y0089003D01*
X0291762Y0088871D01*
X0291711Y0088740D01*
X0291657Y0088611D01*
X0291599Y0088484D01*
X0291537Y0088358D01*
X0291472Y0088234D01*
X0291404Y0088112D01*
X0291332Y0087992D01*
X0291257Y0087875D01*
X0291178Y0087759D01*
X0291096Y0087645D01*
X0291011Y0087534D01*
X0290923Y0087426D01*
X0290831Y0087320D01*
X0290737Y0087216D01*
X0290640Y0087116D01*
X0290540Y0087018D01*
X0290437Y0086923D01*
X0290332Y0086831D01*
X0290224Y0086742D01*
X0290114Y0086656D01*
X0290001Y0086573D01*
X0289886Y0086494D01*
X0289768Y0086418D01*
X0289649Y0086345D01*
X0289527Y0086275D01*
X0289404Y0086210D01*
X0289279Y0086147D01*
X0289152Y0086088D01*
X0289023Y0086033D01*
X0288893Y0085982D01*
X0288762Y0085934D01*
X0288629Y0085890D01*
X0288495Y0085850D01*
X0288360Y0085813D01*
X0288224Y0085781D01*
X0288087Y0085752D01*
X0287949Y0085728D01*
X0287811Y0085707D01*
X0287672Y0085690D01*
X0287532Y0085677D01*
X0287393Y0085668D01*
X0287253Y0085663D01*
X0287113Y0085662D01*
X0286973Y0085665D01*
X0286833Y0085672D01*
X0286694Y0085683D01*
X0286555Y0085698D01*
X0286416Y0085717D01*
X0286278Y0085739D01*
X0286141Y0085766D01*
X0286004Y0085797D01*
X0285869Y0085831D01*
X0285734Y0085869D01*
X0285601Y0085912D01*
X0285469Y0085957D01*
X0285338Y0086007D01*
X0285208Y0086060D01*
X0285081Y0086117D01*
X0284955Y0086178D01*
X0284830Y0086242D01*
X0284708Y0086310D01*
X0284587Y0086381D01*
X0284469Y0086455D01*
X0284353Y0086533D01*
X0284239Y0086614D01*
X0284127Y0086699D01*
X0284018Y0086786D01*
X0283911Y0086876D01*
X0283807Y0086970D01*
X0283706Y0087066D01*
X0283607Y0087166D01*
X0283511Y0087268D01*
X0283419Y0087372D01*
X0283329Y0087480D01*
X0283242Y0087590D01*
X0283159Y0087702D01*
X0283078Y0087816D01*
X0283001Y0087933D01*
X0282928Y0088052D01*
X0282857Y0088173D01*
X0282791Y0088296D01*
X0282727Y0088421D01*
X0282668Y0088547D01*
X0282612Y0088676D01*
X0282559Y0088805D01*
X0282511Y0088936D01*
X0282466Y0089069D01*
X0282425Y0089203D01*
X0282387Y0089338D01*
X0282354Y0089473D01*
X0282324Y0089610D01*
X0282298Y0089748D01*
X0282277Y0089886D01*
X0282259Y0090025D01*
X0282245Y0090164D01*
X0282235Y0090303D01*
X0282229Y0090443D01*
X0282227Y0090583D01*
X0282227Y0011843D02*
X0282229Y0011983D01*
X0282235Y0012123D01*
X0282245Y0012262D01*
X0282259Y0012401D01*
X0282277Y0012540D01*
X0282298Y0012678D01*
X0282324Y0012816D01*
X0282354Y0012953D01*
X0282387Y0013088D01*
X0282425Y0013223D01*
X0282466Y0013357D01*
X0282511Y0013490D01*
X0282559Y0013621D01*
X0282612Y0013750D01*
X0282668Y0013879D01*
X0282727Y0014005D01*
X0282791Y0014130D01*
X0282857Y0014253D01*
X0282928Y0014374D01*
X0283001Y0014493D01*
X0283078Y0014610D01*
X0283159Y0014724D01*
X0283242Y0014836D01*
X0283329Y0014946D01*
X0283419Y0015054D01*
X0283511Y0015158D01*
X0283607Y0015260D01*
X0283706Y0015360D01*
X0283807Y0015456D01*
X0283911Y0015550D01*
X0284018Y0015640D01*
X0284127Y0015727D01*
X0284239Y0015812D01*
X0284353Y0015893D01*
X0284469Y0015971D01*
X0284587Y0016045D01*
X0284708Y0016116D01*
X0284830Y0016184D01*
X0284955Y0016248D01*
X0285081Y0016309D01*
X0285208Y0016366D01*
X0285338Y0016419D01*
X0285469Y0016469D01*
X0285601Y0016514D01*
X0285734Y0016557D01*
X0285869Y0016595D01*
X0286004Y0016629D01*
X0286141Y0016660D01*
X0286278Y0016687D01*
X0286416Y0016709D01*
X0286555Y0016728D01*
X0286694Y0016743D01*
X0286833Y0016754D01*
X0286973Y0016761D01*
X0287113Y0016764D01*
X0287253Y0016763D01*
X0287393Y0016758D01*
X0287532Y0016749D01*
X0287672Y0016736D01*
X0287811Y0016719D01*
X0287949Y0016698D01*
X0288087Y0016674D01*
X0288224Y0016645D01*
X0288360Y0016613D01*
X0288495Y0016576D01*
X0288629Y0016536D01*
X0288762Y0016492D01*
X0288893Y0016444D01*
X0289023Y0016393D01*
X0289152Y0016338D01*
X0289279Y0016279D01*
X0289404Y0016216D01*
X0289527Y0016151D01*
X0289649Y0016081D01*
X0289768Y0016008D01*
X0289886Y0015932D01*
X0290001Y0015853D01*
X0290114Y0015770D01*
X0290224Y0015684D01*
X0290332Y0015595D01*
X0290437Y0015503D01*
X0290540Y0015408D01*
X0290640Y0015310D01*
X0290737Y0015210D01*
X0290831Y0015106D01*
X0290923Y0015000D01*
X0291011Y0014892D01*
X0291096Y0014781D01*
X0291178Y0014667D01*
X0291257Y0014551D01*
X0291332Y0014434D01*
X0291404Y0014314D01*
X0291472Y0014192D01*
X0291537Y0014068D01*
X0291599Y0013942D01*
X0291657Y0013815D01*
X0291711Y0013686D01*
X0291762Y0013555D01*
X0291808Y0013423D01*
X0291851Y0013290D01*
X0291891Y0013156D01*
X0291926Y0013021D01*
X0291958Y0012884D01*
X0291985Y0012747D01*
X0292009Y0012609D01*
X0292029Y0012471D01*
X0292045Y0012332D01*
X0292057Y0012192D01*
X0292065Y0012053D01*
X0292069Y0011913D01*
X0292069Y0011773D01*
X0292065Y0011633D01*
X0292057Y0011494D01*
X0292045Y0011354D01*
X0292029Y0011215D01*
X0292009Y0011077D01*
X0291985Y0010939D01*
X0291958Y0010802D01*
X0291926Y0010665D01*
X0291891Y0010530D01*
X0291851Y0010396D01*
X0291808Y0010263D01*
X0291762Y0010131D01*
X0291711Y0010000D01*
X0291657Y0009871D01*
X0291599Y0009744D01*
X0291537Y0009618D01*
X0291472Y0009494D01*
X0291404Y0009372D01*
X0291332Y0009252D01*
X0291257Y0009135D01*
X0291178Y0009019D01*
X0291096Y0008905D01*
X0291011Y0008794D01*
X0290923Y0008686D01*
X0290831Y0008580D01*
X0290737Y0008476D01*
X0290640Y0008376D01*
X0290540Y0008278D01*
X0290437Y0008183D01*
X0290332Y0008091D01*
X0290224Y0008002D01*
X0290114Y0007916D01*
X0290001Y0007833D01*
X0289886Y0007754D01*
X0289768Y0007678D01*
X0289649Y0007605D01*
X0289527Y0007535D01*
X0289404Y0007470D01*
X0289279Y0007407D01*
X0289152Y0007348D01*
X0289023Y0007293D01*
X0288893Y0007242D01*
X0288762Y0007194D01*
X0288629Y0007150D01*
X0288495Y0007110D01*
X0288360Y0007073D01*
X0288224Y0007041D01*
X0288087Y0007012D01*
X0287949Y0006988D01*
X0287811Y0006967D01*
X0287672Y0006950D01*
X0287532Y0006937D01*
X0287393Y0006928D01*
X0287253Y0006923D01*
X0287113Y0006922D01*
X0286973Y0006925D01*
X0286833Y0006932D01*
X0286694Y0006943D01*
X0286555Y0006958D01*
X0286416Y0006977D01*
X0286278Y0006999D01*
X0286141Y0007026D01*
X0286004Y0007057D01*
X0285869Y0007091D01*
X0285734Y0007129D01*
X0285601Y0007172D01*
X0285469Y0007217D01*
X0285338Y0007267D01*
X0285208Y0007320D01*
X0285081Y0007377D01*
X0284955Y0007438D01*
X0284830Y0007502D01*
X0284708Y0007570D01*
X0284587Y0007641D01*
X0284469Y0007715D01*
X0284353Y0007793D01*
X0284239Y0007874D01*
X0284127Y0007959D01*
X0284018Y0008046D01*
X0283911Y0008136D01*
X0283807Y0008230D01*
X0283706Y0008326D01*
X0283607Y0008426D01*
X0283511Y0008528D01*
X0283419Y0008632D01*
X0283329Y0008740D01*
X0283242Y0008850D01*
X0283159Y0008962D01*
X0283078Y0009076D01*
X0283001Y0009193D01*
X0282928Y0009312D01*
X0282857Y0009433D01*
X0282791Y0009556D01*
X0282727Y0009681D01*
X0282668Y0009807D01*
X0282612Y0009936D01*
X0282559Y0010065D01*
X0282511Y0010196D01*
X0282466Y0010329D01*
X0282425Y0010463D01*
X0282387Y0010598D01*
X0282354Y0010733D01*
X0282324Y0010870D01*
X0282298Y0011008D01*
X0282277Y0011146D01*
X0282259Y0011285D01*
X0282245Y0011424D01*
X0282235Y0011563D01*
X0282229Y0011703D01*
X0282227Y0011843D01*
D11*
X0109802Y0027500D03*
D12*
X0099802Y0027500D03*
D13*
X0215337Y0009500D03*
X0232266Y0009500D03*
X0252837Y0009500D03*
X0269766Y0009500D03*
D14*
X0254491Y0025150D03*
X0254491Y0076850D03*
D15*
X0205802Y0047000D03*
D16*
X0207302Y0030125D03*
X0207302Y0018875D03*
D17*
X0208601Y0082098D03*
X0208601Y0093902D03*
D18*
X0207601Y0088000D03*
D19*
X0192916Y0087000D02*
X0192916Y0089000D01*
X0201286Y0089000D01*
X0201286Y0087000D01*
X0192916Y0087000D01*
D20*
X0220152Y0092000D03*
X0227452Y0092000D03*
X0206802Y0072650D03*
X0206802Y0065350D03*
X0095802Y0089000D03*
D21*
X0223852Y0069800D03*
X0223852Y0064800D03*
X0223852Y0059800D03*
X0223852Y0054800D03*
X0223852Y0049800D03*
X0223852Y0044800D03*
X0223852Y0039800D03*
X0223852Y0034800D03*
D22*
X0194296Y0041472D03*
X0186422Y0017850D03*
X0139178Y0017850D03*
X0139178Y0065094D03*
X0186422Y0065094D03*
D23*
X0182802Y0071500D03*
X0192802Y0071500D03*
X0172802Y0071500D03*
X0162802Y0071500D03*
X0152802Y0071500D03*
X0142802Y0071500D03*
X0132802Y0071500D03*
X0122802Y0071500D03*
X0112802Y0071500D03*
X0102802Y0071500D03*
X0092802Y0071500D03*
X0082802Y0071500D03*
X0192802Y0031500D03*
X0192802Y0021500D03*
X0192802Y0011500D03*
X0182802Y0011500D03*
X0172802Y0011500D03*
X0162802Y0011500D03*
X0152802Y0011500D03*
X0142802Y0011500D03*
X0132802Y0011500D03*
X0122802Y0011500D03*
X0112802Y0011500D03*
X0102802Y0011500D03*
X0092802Y0011500D03*
X0082802Y0011500D03*
X0117177Y0022750D03*
X0127177Y0022750D03*
X0158427Y0022750D03*
X0168427Y0022750D03*
D24*
X0072802Y0041000D03*
X0072802Y0061000D03*
X0279302Y0061000D03*
X0279302Y0041000D03*
D25*
X0145802Y0089000D03*
X0135802Y0089000D03*
X0125802Y0089000D03*
X0115802Y0089000D03*
X0105802Y0089000D03*
X0082802Y0089000D03*
D26*
X0214802Y0057250D03*
X0214802Y0047250D03*
X0214802Y0037250D03*
X0287802Y0039189D03*
X0287802Y0031315D03*
X0287802Y0023441D03*
X0287802Y0047063D03*
X0287802Y0054937D03*
X0287802Y0062811D03*
X0287802Y0070685D03*
X0287802Y0078559D03*
D27*
X0074309Y0073531D02*
X0067309Y0073531D01*
X0067309Y0027469D02*
X0074309Y0027469D01*
D28*
X0154302Y0033000D03*
X0160302Y0033000D03*
X0166302Y0033000D03*
D29*
X0118920Y0048563D03*
X0108683Y0052500D03*
X0118920Y0056437D03*
D30*
X0119483Y0057000D01*
X0126302Y0057000D01*
X0131302Y0052000D01*
X0141302Y0052000D01*
X0154302Y0039000D01*
X0154302Y0033000D01*
X0160302Y0033000D02*
X0160302Y0038500D01*
X0161302Y0039500D01*
X0161302Y0047000D01*
X0143802Y0064500D01*
X0143802Y0070500D01*
X0142802Y0071500D01*
X0152802Y0071500D02*
X0152802Y0075500D01*
X0148802Y0079500D01*
X0108802Y0079500D01*
X0106302Y0082000D01*
X0106302Y0088500D01*
X0105802Y0089000D01*
X0115802Y0089000D02*
X0116302Y0088500D01*
X0116302Y0084500D01*
X0118802Y0082000D01*
X0158802Y0082000D01*
X0162802Y0078000D01*
X0162802Y0071500D01*
X0172802Y0071500D02*
X0172802Y0080500D01*
X0168802Y0084500D01*
X0128802Y0084500D01*
X0126302Y0087000D01*
X0126302Y0088500D01*
X0125802Y0089000D01*
X0144302Y0077000D02*
X0083802Y0077000D01*
X0076302Y0084500D01*
X0122802Y0071500D02*
X0137302Y0057000D01*
X0141302Y0057000D01*
X0157302Y0041500D01*
X0169802Y0033000D02*
X0173802Y0037000D01*
X0173802Y0057000D01*
X0176302Y0059500D01*
X0196302Y0059500D01*
X0201302Y0064500D01*
X0205952Y0064500D01*
X0206802Y0065350D01*
X0215052Y0065250D02*
X0215052Y0082750D01*
X0216802Y0084500D01*
X0213302Y0088000D01*
X0207601Y0088000D01*
X0208802Y0093250D02*
X0208601Y0093902D01*
X0208802Y0093250D02*
X0220052Y0093250D01*
X0220052Y0092000D01*
X0220152Y0092000D01*
X0227452Y0092000D02*
X0227552Y0092000D01*
X0231302Y0088250D01*
X0231302Y0059750D01*
X0229052Y0057000D01*
X0229802Y0054000D02*
X0233802Y0058000D01*
X0233802Y0072250D01*
X0235552Y0074000D01*
X0239552Y0074000D01*
X0241302Y0072250D01*
X0241302Y0036500D01*
X0245302Y0032500D01*
X0251802Y0042500D02*
X0263802Y0030500D01*
X0263802Y0021250D01*
X0256302Y0013750D01*
X0256302Y0009500D01*
X0252837Y0009500D01*
X0244052Y0014250D02*
X0241302Y0017000D01*
X0230802Y0017000D01*
X0225802Y0022000D01*
X0225802Y0025000D01*
X0223302Y0027500D01*
X0223302Y0034250D01*
X0223852Y0034800D01*
X0223802Y0034500D01*
X0216302Y0035750D02*
X0214802Y0037250D01*
X0219052Y0037250D01*
X0221302Y0039500D01*
X0218802Y0042000D01*
X0221302Y0039500D02*
X0223552Y0039500D01*
X0223852Y0039800D01*
X0228552Y0044500D02*
X0230052Y0043000D01*
X0230052Y0022750D01*
X0231802Y0021000D01*
X0235802Y0021000D01*
X0237802Y0023000D01*
X0237802Y0071000D01*
X0241552Y0078000D02*
X0251802Y0067750D01*
X0251802Y0042500D01*
X0248802Y0043000D02*
X0247802Y0042000D01*
X0243802Y0042000D01*
X0248802Y0043000D02*
X0248802Y0064780D01*
X0246302Y0059500D02*
X0246302Y0044500D01*
X0233802Y0047000D02*
X0231302Y0049500D01*
X0225052Y0049500D01*
X0223852Y0049800D01*
X0220602Y0054800D02*
X0217802Y0052000D01*
X0209302Y0052000D01*
X0207802Y0053500D01*
X0184802Y0053500D01*
X0182302Y0056000D01*
X0178302Y0056000D01*
X0176302Y0054000D01*
X0176302Y0021000D01*
X0172302Y0017000D01*
X0168302Y0017000D01*
X0162802Y0011500D01*
X0178802Y0015500D02*
X0178802Y0016500D01*
X0178802Y0052000D01*
X0179802Y0053000D01*
X0183302Y0049000D02*
X0184802Y0050500D01*
X0193802Y0050500D01*
X0201302Y0043000D01*
X0201302Y0026000D01*
X0202802Y0024500D01*
X0220302Y0024500D01*
X0223302Y0027500D01*
X0216302Y0029500D02*
X0216302Y0035750D01*
X0207552Y0030750D02*
X0207302Y0030125D01*
X0207302Y0030500D02*
X0207552Y0030750D01*
X0198802Y0023000D02*
X0195302Y0026500D01*
X0189802Y0026500D01*
X0187552Y0028750D01*
X0187552Y0041500D01*
X0181302Y0047000D02*
X0183302Y0049000D01*
X0181302Y0047000D02*
X0181302Y0019500D01*
X0182802Y0018000D01*
X0183302Y0018000D01*
X0186422Y0017880D01*
X0186422Y0017850D01*
X0181302Y0013000D02*
X0179802Y0014500D01*
X0178802Y0015500D02*
X0181302Y0013000D01*
X0182802Y0011500D01*
X0198802Y0014500D02*
X0201302Y0012000D01*
X0198802Y0014500D02*
X0198802Y0023000D01*
X0169802Y0033000D02*
X0166302Y0033000D01*
X0205802Y0047000D02*
X0213802Y0047000D01*
X0214802Y0047250D01*
X0223852Y0044800D02*
X0225052Y0044500D01*
X0228552Y0044500D01*
X0233802Y0047000D02*
X0233802Y0024500D01*
X0266302Y0034500D02*
X0266302Y0079500D01*
X0268802Y0082000D01*
X0266302Y0084500D01*
X0266302Y0092000D01*
X0268802Y0082000D02*
X0276802Y0082000D01*
X0280243Y0078559D01*
X0287802Y0078559D01*
X0271052Y0077250D02*
X0271052Y0065750D01*
X0272552Y0064250D01*
X0276302Y0068000D01*
X0280302Y0068000D01*
X0285491Y0062811D01*
X0287802Y0062811D01*
X0293802Y0059500D02*
X0281302Y0059500D01*
X0279802Y0061000D01*
X0279302Y0061000D01*
X0293802Y0059500D02*
X0293802Y0069500D01*
X0288987Y0069500D01*
X0287802Y0070685D01*
X0287802Y0054937D02*
X0284239Y0054937D01*
X0280802Y0051500D01*
X0272802Y0051500D01*
X0270802Y0049500D01*
X0270802Y0038750D01*
X0270052Y0037000D01*
X0273802Y0037500D02*
X0276302Y0035000D01*
X0281802Y0035000D01*
X0286302Y0039500D01*
X0284991Y0039500D01*
X0287802Y0039189D01*
X0273802Y0037500D02*
X0273802Y0044500D01*
X0275052Y0048250D02*
X0283802Y0048250D01*
X0285052Y0047000D01*
X0287552Y0047000D01*
X0287802Y0047063D01*
X0269802Y0031000D02*
X0266302Y0034500D01*
X0269802Y0031000D02*
X0269802Y0015750D01*
X0269802Y0009500D01*
X0269766Y0009500D01*
X0274052Y0023250D02*
X0287552Y0023250D01*
X0287802Y0023441D01*
X0283117Y0031315D02*
X0279802Y0028000D01*
X0283117Y0031315D02*
X0287802Y0031315D01*
X0287552Y0032000D01*
X0229802Y0054000D02*
X0224652Y0054000D01*
X0223852Y0054800D01*
X0220602Y0054800D01*
X0214802Y0057250D02*
X0214802Y0060500D01*
X0216302Y0062000D01*
X0221502Y0064800D02*
X0218802Y0067500D01*
X0218802Y0078500D01*
X0222552Y0083250D02*
X0222552Y0072000D01*
X0223802Y0070750D01*
X0223852Y0069800D01*
X0223852Y0064800D02*
X0221502Y0064800D01*
X0226302Y0060750D02*
X0228802Y0063250D01*
X0228802Y0083250D01*
X0227552Y0084500D01*
X0241552Y0089250D02*
X0241552Y0078000D01*
X0206802Y0074000D02*
X0206802Y0072650D01*
X0206802Y0074000D02*
X0201302Y0079500D01*
X0152802Y0071500D02*
X0152802Y0059500D01*
X0157387Y0055103D01*
X0157990Y0054500D01*
X0167802Y0054500D01*
X0118920Y0048563D02*
X0118920Y0047118D01*
X0116302Y0044500D01*
X0108683Y0052500D02*
X0108683Y0057118D01*
X0103802Y0062000D01*
X0223852Y0059800D02*
X0225052Y0060750D01*
X0226302Y0060750D01*
D31*
X0229052Y0057000D03*
X0216302Y0062000D03*
X0215052Y0065250D03*
X0237802Y0071000D03*
X0248802Y0064780D03*
X0246302Y0059500D03*
X0256302Y0059500D03*
X0272552Y0064250D03*
X0271052Y0077250D03*
X0241552Y0089250D03*
X0227552Y0084500D03*
X0222552Y0083250D03*
X0216802Y0084500D03*
X0218802Y0078500D03*
X0201302Y0079500D03*
X0144302Y0077000D03*
X0103802Y0062000D03*
X0116302Y0044500D03*
X0082302Y0033000D03*
X0157302Y0041500D03*
X0183302Y0049000D03*
X0179802Y0053000D03*
X0167802Y0054500D03*
X0187552Y0041500D03*
X0207302Y0041250D03*
X0218802Y0042000D03*
X0243802Y0042000D03*
X0246302Y0044500D03*
X0270052Y0037000D03*
X0273802Y0044500D03*
X0275052Y0048250D03*
X0245302Y0032500D03*
X0233802Y0024500D03*
X0216302Y0029500D03*
X0244052Y0014250D03*
X0269802Y0015750D03*
X0274052Y0023250D03*
X0279802Y0028000D03*
X0201302Y0012000D03*
X0076302Y0084500D03*
X0266302Y0092000D03*
D32*
X0267902Y0090489D02*
X0268502Y0091089D01*
X0268502Y0092911D01*
X0267213Y0094200D01*
X0265390Y0094200D01*
X0264102Y0092911D01*
X0264102Y0091089D01*
X0264702Y0090489D01*
X0264702Y0083837D01*
X0266539Y0082000D01*
X0265839Y0081300D01*
X0260718Y0081300D01*
X0258767Y0083251D01*
X0255992Y0084400D01*
X0252989Y0084400D01*
X0250214Y0083251D01*
X0248263Y0081300D01*
X0243152Y0081300D01*
X0243152Y0087739D01*
X0243752Y0088339D01*
X0243752Y0090161D01*
X0242463Y0091450D01*
X0240640Y0091450D01*
X0239352Y0090161D01*
X0239352Y0088339D01*
X0239952Y0087739D01*
X0239952Y0081300D01*
X0232902Y0081300D01*
X0232902Y0088913D01*
X0231964Y0089850D01*
X0231452Y0090363D01*
X0231452Y0095414D01*
X0230866Y0096000D01*
X0224037Y0096000D01*
X0223802Y0095764D01*
X0223566Y0096000D01*
X0216737Y0096000D01*
X0216152Y0095414D01*
X0216152Y0094850D01*
X0212357Y0094850D01*
X0212357Y0095891D01*
X0211771Y0096476D01*
X0205431Y0096476D01*
X0204845Y0095891D01*
X0204845Y0091913D01*
X0205431Y0091327D01*
X0211771Y0091327D01*
X0212094Y0091650D01*
X0216152Y0091650D01*
X0216152Y0088586D01*
X0216737Y0088000D01*
X0223566Y0088000D01*
X0223802Y0088236D01*
X0224037Y0088000D01*
X0229289Y0088000D01*
X0229702Y0087587D01*
X0229702Y0085461D01*
X0228463Y0086700D01*
X0226640Y0086700D01*
X0225352Y0085411D01*
X0225352Y0083589D01*
X0226640Y0082300D01*
X0227202Y0082300D01*
X0227202Y0072050D01*
X0224764Y0072050D01*
X0224152Y0072663D01*
X0224152Y0081739D01*
X0224752Y0082339D01*
X0224752Y0084161D01*
X0223463Y0085450D01*
X0221640Y0085450D01*
X0220352Y0084161D01*
X0220352Y0082339D01*
X0220952Y0081739D01*
X0220952Y0079461D01*
X0219713Y0080700D01*
X0217890Y0080700D01*
X0216652Y0079461D01*
X0216652Y0082087D01*
X0216864Y0082300D01*
X0217713Y0082300D01*
X0219002Y0083589D01*
X0219002Y0085411D01*
X0217713Y0086700D01*
X0216864Y0086700D01*
X0213964Y0089600D01*
X0212341Y0089600D01*
X0212341Y0089989D01*
X0211755Y0090575D01*
X0204963Y0090575D01*
X0204677Y0091266D01*
X0203552Y0092391D01*
X0202081Y0093000D01*
X0192120Y0093000D01*
X0190650Y0092391D01*
X0189525Y0091266D01*
X0188916Y0089796D01*
X0188916Y0086204D01*
X0189525Y0084734D01*
X0190650Y0083609D01*
X0192120Y0083000D01*
X0202081Y0083000D01*
X0203552Y0083609D01*
X0204677Y0084734D01*
X0204963Y0085425D01*
X0211755Y0085425D01*
X0212341Y0086011D01*
X0212341Y0086400D01*
X0212639Y0086400D01*
X0214539Y0084500D01*
X0214389Y0084350D01*
X0213452Y0083413D01*
X0213452Y0066761D01*
X0212852Y0066161D01*
X0212852Y0064339D01*
X0214140Y0063050D01*
X0215963Y0063050D01*
X0217252Y0064339D01*
X0217252Y0066161D01*
X0216652Y0066761D01*
X0216652Y0077539D01*
X0217202Y0076989D01*
X0217202Y0066837D01*
X0218139Y0065900D01*
X0219852Y0064187D01*
X0219852Y0063136D01*
X0220437Y0062550D01*
X0225839Y0062550D01*
X0225639Y0062350D01*
X0225144Y0062350D01*
X0224578Y0062416D01*
X0224495Y0062350D01*
X0224389Y0062350D01*
X0224089Y0062050D01*
X0220437Y0062050D01*
X0219852Y0061464D01*
X0219852Y0059685D01*
X0219802Y0059771D01*
X0219523Y0060050D01*
X0219181Y0060248D01*
X0218799Y0060350D01*
X0215102Y0060350D01*
X0215102Y0057550D01*
X0220102Y0057550D01*
X0220102Y0057886D01*
X0220437Y0057550D01*
X0226852Y0057550D01*
X0226852Y0057050D01*
X0220437Y0057050D01*
X0220102Y0056714D01*
X0220102Y0056950D01*
X0215102Y0056950D01*
X0215102Y0057550D01*
X0214502Y0057550D01*
X0214502Y0060350D01*
X0210804Y0060350D01*
X0210423Y0060248D01*
X0210081Y0060050D01*
X0209801Y0059771D01*
X0209604Y0059429D01*
X0209502Y0059047D01*
X0209502Y0057550D01*
X0214501Y0057550D01*
X0214501Y0056950D01*
X0209502Y0056950D01*
X0209502Y0055453D01*
X0209604Y0055071D01*
X0209801Y0054729D01*
X0210081Y0054450D01*
X0210423Y0054252D01*
X0210804Y0054150D01*
X0214502Y0054150D01*
X0214502Y0056950D01*
X0215102Y0056950D01*
X0215102Y0054150D01*
X0217689Y0054150D01*
X0217139Y0053600D01*
X0209964Y0053600D01*
X0208464Y0055100D01*
X0185464Y0055100D01*
X0182964Y0057600D01*
X0177639Y0057600D01*
X0176702Y0056663D01*
X0175402Y0055363D01*
X0175402Y0056337D01*
X0176964Y0057900D01*
X0196964Y0057900D01*
X0201964Y0062900D01*
X0202802Y0062900D01*
X0202802Y0061936D01*
X0203387Y0061350D01*
X0210216Y0061350D01*
X0210802Y0061936D01*
X0210802Y0068764D01*
X0210566Y0069000D01*
X0210802Y0069236D01*
X0210802Y0076064D01*
X0210216Y0076650D01*
X0206414Y0076650D01*
X0203502Y0079563D01*
X0203502Y0080411D01*
X0202213Y0081700D01*
X0200390Y0081700D01*
X0199102Y0080411D01*
X0199102Y0078589D01*
X0200390Y0077300D01*
X0201239Y0077300D01*
X0202802Y0075737D01*
X0202802Y0069236D01*
X0203037Y0069000D01*
X0202802Y0068764D01*
X0202802Y0066100D01*
X0200639Y0066100D01*
X0199702Y0065163D01*
X0195639Y0061100D01*
X0175639Y0061100D01*
X0174702Y0060163D01*
X0172202Y0057663D01*
X0172202Y0037663D01*
X0169602Y0035063D01*
X0169602Y0036564D01*
X0169016Y0037150D01*
X0163587Y0037150D01*
X0163302Y0036864D01*
X0163016Y0037150D01*
X0161902Y0037150D01*
X0161902Y0037837D01*
X0161964Y0037900D01*
X0162902Y0038837D01*
X0162902Y0047663D01*
X0157664Y0052900D01*
X0166290Y0052900D01*
X0166890Y0052300D01*
X0168713Y0052300D01*
X0170002Y0053589D01*
X0170002Y0055411D01*
X0168713Y0056700D01*
X0166890Y0056700D01*
X0166290Y0056100D01*
X0158659Y0056100D01*
X0158506Y0056247D01*
X0158050Y0056703D01*
X0158030Y0056703D01*
X0154402Y0060183D01*
X0154402Y0067508D01*
X0155237Y0067855D01*
X0156447Y0069064D01*
X0157102Y0070645D01*
X0157102Y0072355D01*
X0156447Y0073936D01*
X0155237Y0075145D01*
X0154402Y0075492D01*
X0154402Y0076163D01*
X0153464Y0077100D01*
X0150164Y0080400D01*
X0158139Y0080400D01*
X0161202Y0077337D01*
X0161202Y0075492D01*
X0160366Y0075145D01*
X0159156Y0073936D01*
X0158502Y0072355D01*
X0158502Y0070645D01*
X0159156Y0069064D01*
X0160366Y0067855D01*
X0161946Y0067200D01*
X0163657Y0067200D01*
X0165237Y0067855D01*
X0166447Y0069064D01*
X0167102Y0070645D01*
X0167102Y0072355D01*
X0166447Y0073936D01*
X0165237Y0075145D01*
X0164402Y0075492D01*
X0164402Y0078663D01*
X0163464Y0079600D01*
X0160164Y0082900D01*
X0168139Y0082900D01*
X0171202Y0079837D01*
X0171202Y0075492D01*
X0170366Y0075145D01*
X0169156Y0073936D01*
X0168502Y0072355D01*
X0168502Y0070645D01*
X0169156Y0069064D01*
X0170366Y0067855D01*
X0171946Y0067200D01*
X0173657Y0067200D01*
X0175237Y0067855D01*
X0176447Y0069064D01*
X0177102Y0070645D01*
X0177102Y0072355D01*
X0176447Y0073936D01*
X0175237Y0075145D01*
X0174402Y0075492D01*
X0174402Y0081163D01*
X0173464Y0082100D01*
X0169464Y0086100D01*
X0148558Y0086100D01*
X0149802Y0087343D01*
X0149802Y0090657D01*
X0147458Y0093000D01*
X0144145Y0093000D01*
X0141802Y0090657D01*
X0141802Y0087343D01*
X0143045Y0086100D01*
X0138558Y0086100D01*
X0139802Y0087343D01*
X0139802Y0090657D01*
X0137458Y0093000D01*
X0134145Y0093000D01*
X0131802Y0090657D01*
X0131802Y0087343D01*
X0133045Y0086100D01*
X0129464Y0086100D01*
X0129011Y0086553D01*
X0129802Y0087343D01*
X0129802Y0090657D01*
X0127458Y0093000D01*
X0124145Y0093000D01*
X0121802Y0090657D01*
X0121802Y0087343D01*
X0124145Y0085000D01*
X0126039Y0085000D01*
X0127202Y0083837D01*
X0127439Y0083600D01*
X0119464Y0083600D01*
X0117902Y0085163D01*
X0117902Y0085443D01*
X0119802Y0087343D01*
X0119802Y0090657D01*
X0117458Y0093000D01*
X0114145Y0093000D01*
X0111802Y0090657D01*
X0111802Y0087343D01*
X0114145Y0085000D01*
X0114702Y0085000D01*
X0114702Y0083837D01*
X0117202Y0081337D01*
X0117439Y0081100D01*
X0109464Y0081100D01*
X0107902Y0082663D01*
X0107902Y0085443D01*
X0109802Y0087343D01*
X0109802Y0090657D01*
X0107458Y0093000D01*
X0104145Y0093000D01*
X0101802Y0090657D01*
X0101802Y0087343D01*
X0104145Y0085000D01*
X0104702Y0085000D01*
X0104702Y0081337D01*
X0107202Y0078837D01*
X0107439Y0078600D01*
X0084464Y0078600D01*
X0078502Y0084563D01*
X0078502Y0085411D01*
X0077213Y0086700D01*
X0075390Y0086700D01*
X0074102Y0085411D01*
X0074102Y0083589D01*
X0075390Y0082300D01*
X0076239Y0082300D01*
X0082202Y0076337D01*
X0082739Y0075800D01*
X0081946Y0075800D01*
X0080366Y0075145D01*
X0079156Y0073936D01*
X0078809Y0073099D01*
X0078809Y0074427D01*
X0078124Y0076081D01*
X0076858Y0077346D01*
X0075205Y0078031D01*
X0066414Y0078031D01*
X0064760Y0077346D01*
X0063495Y0076081D01*
X0062809Y0074427D01*
X0062809Y0072636D01*
X0063495Y0070982D01*
X0064760Y0069717D01*
X0066414Y0069031D01*
X0075205Y0069031D01*
X0076858Y0069717D01*
X0078124Y0070982D01*
X0078502Y0071893D01*
X0078502Y0070645D01*
X0079156Y0069064D01*
X0080366Y0067855D01*
X0081946Y0067200D01*
X0083657Y0067200D01*
X0085237Y0067855D01*
X0086447Y0069064D01*
X0087102Y0070645D01*
X0087102Y0072355D01*
X0086447Y0073936D01*
X0085237Y0075145D01*
X0084623Y0075400D01*
X0090981Y0075400D01*
X0090366Y0075145D01*
X0089156Y0073936D01*
X0088502Y0072355D01*
X0088502Y0070645D01*
X0089156Y0069064D01*
X0090366Y0067855D01*
X0091946Y0067200D01*
X0093657Y0067200D01*
X0095237Y0067855D01*
X0096447Y0069064D01*
X0097102Y0070645D01*
X0097102Y0072355D01*
X0096447Y0073936D01*
X0095237Y0075145D01*
X0094623Y0075400D01*
X0100981Y0075400D01*
X0100366Y0075145D01*
X0099156Y0073936D01*
X0098502Y0072355D01*
X0098502Y0070645D01*
X0099156Y0069064D01*
X0100366Y0067855D01*
X0101946Y0067200D01*
X0103657Y0067200D01*
X0105237Y0067855D01*
X0106447Y0069064D01*
X0107102Y0070645D01*
X0107102Y0072355D01*
X0106447Y0073936D01*
X0105237Y0075145D01*
X0104623Y0075400D01*
X0110003Y0075400D01*
X0109675Y0075161D01*
X0109140Y0074627D01*
X0108696Y0074016D01*
X0108353Y0073343D01*
X0108120Y0072624D01*
X0108018Y0071984D01*
X0112317Y0071984D01*
X0112317Y0071016D01*
X0108018Y0071016D01*
X0108120Y0070376D01*
X0108353Y0069657D01*
X0108696Y0068984D01*
X0109140Y0068373D01*
X0109675Y0067839D01*
X0110286Y0067395D01*
X0110959Y0067052D01*
X0111678Y0066818D01*
X0112317Y0066717D01*
X0112317Y0071016D01*
X0113286Y0071016D01*
X0113286Y0071984D01*
X0117585Y0071984D01*
X0117483Y0072624D01*
X0117250Y0073343D01*
X0116907Y0074016D01*
X0116463Y0074627D01*
X0115929Y0075161D01*
X0115600Y0075400D01*
X0120981Y0075400D01*
X0120366Y0075145D01*
X0119156Y0073936D01*
X0118502Y0072355D01*
X0118502Y0070645D01*
X0119156Y0069064D01*
X0120366Y0067855D01*
X0121946Y0067200D01*
X0123657Y0067200D01*
X0124493Y0067546D01*
X0136639Y0055400D01*
X0140654Y0055400D01*
X0155102Y0041404D01*
X0155102Y0040589D01*
X0156390Y0039300D01*
X0158213Y0039300D01*
X0159502Y0040589D01*
X0159502Y0042411D01*
X0158213Y0043700D01*
X0157330Y0043700D01*
X0142424Y0058140D01*
X0141964Y0058600D01*
X0141949Y0058600D01*
X0141939Y0058610D01*
X0141289Y0058600D01*
X0137964Y0058600D01*
X0126755Y0069809D01*
X0127102Y0070645D01*
X0127102Y0072355D01*
X0126447Y0073936D01*
X0125237Y0075145D01*
X0124623Y0075400D01*
X0130981Y0075400D01*
X0130366Y0075145D01*
X0129156Y0073936D01*
X0128502Y0072355D01*
X0128502Y0070645D01*
X0129156Y0069064D01*
X0130366Y0067855D01*
X0131946Y0067200D01*
X0133657Y0067200D01*
X0135237Y0067855D01*
X0136447Y0069064D01*
X0137102Y0070645D01*
X0137102Y0072355D01*
X0136447Y0073936D01*
X0135237Y0075145D01*
X0134623Y0075400D01*
X0140981Y0075400D01*
X0140366Y0075145D01*
X0139156Y0073936D01*
X0138502Y0072355D01*
X0138502Y0070645D01*
X0139156Y0069064D01*
X0139354Y0068866D01*
X0138428Y0068866D01*
X0137041Y0068292D01*
X0135980Y0067231D01*
X0135406Y0065845D01*
X0135406Y0064344D01*
X0135980Y0062958D01*
X0137041Y0061897D01*
X0138428Y0061323D01*
X0139928Y0061323D01*
X0141314Y0061897D01*
X0142375Y0062958D01*
X0142582Y0063457D01*
X0143139Y0062900D01*
X0159702Y0046337D01*
X0159702Y0040163D01*
X0158702Y0039163D01*
X0158702Y0037150D01*
X0157587Y0037150D01*
X0157302Y0036864D01*
X0157016Y0037150D01*
X0155902Y0037150D01*
X0155902Y0039663D01*
X0142902Y0052663D01*
X0141964Y0053600D01*
X0131964Y0053600D01*
X0127902Y0057663D01*
X0126964Y0058600D01*
X0121691Y0058600D01*
X0121691Y0058820D01*
X0121106Y0059405D01*
X0116734Y0059405D01*
X0116148Y0058820D01*
X0116148Y0054054D01*
X0116734Y0053469D01*
X0121106Y0053469D01*
X0121691Y0054054D01*
X0121691Y0055400D01*
X0125639Y0055400D01*
X0130639Y0050400D01*
X0140639Y0050400D01*
X0152702Y0038337D01*
X0152702Y0037150D01*
X0151587Y0037150D01*
X0151002Y0036564D01*
X0151002Y0029436D01*
X0151587Y0028850D01*
X0157016Y0028850D01*
X0157302Y0029136D01*
X0157587Y0028850D01*
X0163016Y0028850D01*
X0163302Y0029136D01*
X0163587Y0028850D01*
X0169016Y0028850D01*
X0169602Y0029436D01*
X0169602Y0031400D01*
X0170464Y0031400D01*
X0174464Y0035400D01*
X0174702Y0035637D01*
X0174702Y0021663D01*
X0171639Y0018600D01*
X0169644Y0018600D01*
X0170862Y0019105D01*
X0172072Y0020314D01*
X0172727Y0021895D01*
X0172727Y0023605D01*
X0172072Y0025186D01*
X0170862Y0026395D01*
X0169282Y0027050D01*
X0167571Y0027050D01*
X0165991Y0026395D01*
X0164781Y0025186D01*
X0164127Y0023605D01*
X0164127Y0021895D01*
X0164781Y0020314D01*
X0165991Y0019105D01*
X0167513Y0018474D01*
X0164493Y0015454D01*
X0163657Y0015800D01*
X0161946Y0015800D01*
X0160366Y0015145D01*
X0159156Y0013936D01*
X0158502Y0012355D01*
X0158502Y0010645D01*
X0159156Y0009064D01*
X0159920Y0008300D01*
X0155683Y0008300D01*
X0156447Y0009064D01*
X0157102Y0010645D01*
X0157102Y0012355D01*
X0156447Y0013936D01*
X0155237Y0015145D01*
X0153657Y0015800D01*
X0151946Y0015800D01*
X0150366Y0015145D01*
X0149602Y0014381D01*
X0149602Y0018771D01*
X0149613Y0018782D01*
X0149602Y0019513D01*
X0149602Y0020246D01*
X0149590Y0020257D01*
X0149590Y0020273D01*
X0149065Y0020782D01*
X0148547Y0021300D01*
X0148531Y0021300D01*
X0132565Y0036782D01*
X0132047Y0037300D01*
X0132031Y0037300D01*
X0132019Y0037311D01*
X0131288Y0037300D01*
X0092556Y0037300D01*
X0091502Y0036246D01*
X0090056Y0034800D01*
X0083613Y0034800D01*
X0083213Y0035200D01*
X0081390Y0035200D01*
X0080102Y0033911D01*
X0080102Y0032089D01*
X0081390Y0030800D01*
X0083213Y0030800D01*
X0083613Y0031200D01*
X0091547Y0031200D01*
X0094047Y0033700D01*
X0130572Y0033700D01*
X0146002Y0018738D01*
X0146002Y0014381D01*
X0145237Y0015145D01*
X0143657Y0015800D01*
X0142411Y0015800D01*
X0142950Y0017100D01*
X0142950Y0018601D01*
X0142375Y0019987D01*
X0141314Y0021048D01*
X0139928Y0021622D01*
X0138428Y0021622D01*
X0137041Y0021048D01*
X0135980Y0019987D01*
X0135406Y0018601D01*
X0135406Y0017100D01*
X0135980Y0015714D01*
X0137041Y0014653D01*
X0138428Y0014079D01*
X0139299Y0014079D01*
X0139156Y0013936D01*
X0138502Y0012355D01*
X0138502Y0010645D01*
X0139156Y0009064D01*
X0140366Y0007855D01*
X0141946Y0007200D01*
X0143657Y0007200D01*
X0145237Y0007855D01*
X0146002Y0008619D01*
X0146002Y0007754D01*
X0147056Y0006700D01*
X0149056Y0004700D01*
X0206547Y0004700D01*
X0207602Y0005754D01*
X0209120Y0007273D01*
X0209120Y0005641D01*
X0209706Y0005055D01*
X0220968Y0005055D01*
X0221554Y0005641D01*
X0221554Y0013359D01*
X0220968Y0013945D01*
X0209706Y0013945D01*
X0209120Y0013359D01*
X0209120Y0011300D01*
X0208056Y0011300D01*
X0205056Y0008300D01*
X0195683Y0008300D01*
X0196447Y0009064D01*
X0197102Y0010645D01*
X0197102Y0012355D01*
X0196447Y0013936D01*
X0195237Y0015145D01*
X0193657Y0015800D01*
X0191946Y0015800D01*
X0190366Y0015145D01*
X0189156Y0013936D01*
X0188502Y0012355D01*
X0188502Y0010645D01*
X0189156Y0009064D01*
X0189920Y0008300D01*
X0185683Y0008300D01*
X0186447Y0009064D01*
X0187102Y0010645D01*
X0187102Y0012355D01*
X0186447Y0013936D01*
X0186304Y0014079D01*
X0187172Y0014079D01*
X0188559Y0014653D01*
X0189619Y0015714D01*
X0190194Y0017100D01*
X0190194Y0018027D01*
X0190366Y0017855D01*
X0191946Y0017200D01*
X0193657Y0017200D01*
X0195237Y0017855D01*
X0196447Y0019064D01*
X0197102Y0020645D01*
X0197102Y0022355D01*
X0197044Y0022495D01*
X0197202Y0022337D01*
X0197202Y0013837D01*
X0199102Y0011937D01*
X0199102Y0011089D01*
X0200390Y0009800D01*
X0202213Y0009800D01*
X0203502Y0011089D01*
X0203502Y0012911D01*
X0202213Y0014200D01*
X0201364Y0014200D01*
X0200402Y0015163D01*
X0200402Y0023663D01*
X0199464Y0024600D01*
X0195964Y0028100D01*
X0195483Y0028100D01*
X0196447Y0029064D01*
X0197102Y0030645D01*
X0197102Y0032355D01*
X0196447Y0033936D01*
X0195237Y0035145D01*
X0193657Y0035800D01*
X0191946Y0035800D01*
X0190366Y0035145D01*
X0189156Y0033936D01*
X0189152Y0033924D01*
X0189152Y0039989D01*
X0189752Y0040589D01*
X0189752Y0042411D01*
X0188463Y0043700D01*
X0186640Y0043700D01*
X0185352Y0042411D01*
X0185352Y0040589D01*
X0185952Y0039989D01*
X0185952Y0028087D01*
X0188202Y0025837D01*
X0189139Y0024900D01*
X0190120Y0024900D01*
X0189156Y0023936D01*
X0188502Y0022355D01*
X0188502Y0021071D01*
X0187172Y0021622D01*
X0185672Y0021622D01*
X0184286Y0021048D01*
X0183225Y0019987D01*
X0183181Y0019883D01*
X0182902Y0020163D01*
X0182902Y0046337D01*
X0183364Y0046800D01*
X0184213Y0046800D01*
X0185502Y0048089D01*
X0185502Y0048900D01*
X0193139Y0048900D01*
X0199702Y0042337D01*
X0199702Y0025337D01*
X0201202Y0023837D01*
X0202139Y0022900D01*
X0203213Y0022900D01*
X0202752Y0022439D01*
X0202752Y0015311D01*
X0203338Y0014726D01*
X0211265Y0014726D01*
X0211851Y0015311D01*
X0211851Y0017075D01*
X0220681Y0017075D01*
X0226050Y0011706D01*
X0226050Y0005641D01*
X0226635Y0005055D01*
X0237897Y0005055D01*
X0238483Y0005641D01*
X0238483Y0013359D01*
X0237897Y0013945D01*
X0228902Y0013945D01*
X0222172Y0020675D01*
X0211851Y0020675D01*
X0211851Y0022439D01*
X0211390Y0022900D01*
X0220964Y0022900D01*
X0223302Y0025237D01*
X0224202Y0024337D01*
X0224202Y0021337D01*
X0229202Y0016337D01*
X0230139Y0015400D01*
X0240639Y0015400D01*
X0241852Y0014187D01*
X0241852Y0013339D01*
X0243140Y0012050D01*
X0244963Y0012050D01*
X0246252Y0013339D01*
X0246252Y0015161D01*
X0244963Y0016450D01*
X0244114Y0016450D01*
X0241964Y0018600D01*
X0231464Y0018600D01*
X0229864Y0020200D01*
X0230339Y0020200D01*
X0231139Y0019400D01*
X0236464Y0019400D01*
X0237264Y0020200D01*
X0248763Y0020200D01*
X0250214Y0018749D01*
X0252989Y0017600D01*
X0255992Y0017600D01*
X0258767Y0018749D01*
X0260218Y0020200D01*
X0260489Y0020200D01*
X0254702Y0014413D01*
X0254702Y0013945D01*
X0247206Y0013945D01*
X0246620Y0013359D01*
X0246620Y0005641D01*
X0247206Y0005055D01*
X0258468Y0005055D01*
X0259054Y0005641D01*
X0259054Y0013359D01*
X0258613Y0013799D01*
X0264464Y0019650D01*
X0265014Y0020200D01*
X0268202Y0020200D01*
X0268202Y0017261D01*
X0267602Y0016661D01*
X0267602Y0014839D01*
X0268202Y0014239D01*
X0268202Y0013945D01*
X0264135Y0013945D01*
X0263550Y0013359D01*
X0263550Y0005641D01*
X0264135Y0005055D01*
X0275397Y0005055D01*
X0275983Y0005641D01*
X0275983Y0013359D01*
X0275397Y0013945D01*
X0271402Y0013945D01*
X0271402Y0014239D01*
X0272002Y0014839D01*
X0272002Y0016661D01*
X0271402Y0017261D01*
X0271402Y0020200D01*
X0289340Y0020200D01*
X0289981Y0020841D01*
X0292016Y0020841D01*
X0292602Y0021427D01*
X0292602Y0025455D01*
X0292016Y0026041D01*
X0290102Y0026041D01*
X0290102Y0028715D01*
X0292016Y0028715D01*
X0292602Y0029301D01*
X0292602Y0033329D01*
X0292016Y0033915D01*
X0290102Y0033915D01*
X0290102Y0036589D01*
X0292016Y0036589D01*
X0292602Y0037175D01*
X0292602Y0041203D01*
X0292016Y0041789D01*
X0290102Y0041789D01*
X0290102Y0044463D01*
X0292016Y0044463D01*
X0292602Y0045049D01*
X0292602Y0049077D01*
X0292016Y0049663D01*
X0290102Y0049663D01*
X0290102Y0052337D01*
X0292016Y0052337D01*
X0292602Y0052923D01*
X0292602Y0056951D01*
X0292016Y0057537D01*
X0290102Y0057537D01*
X0290102Y0060211D01*
X0292016Y0060211D01*
X0292602Y0060797D01*
X0292602Y0064825D01*
X0292016Y0065411D01*
X0290102Y0065411D01*
X0290102Y0067585D01*
X0291799Y0067585D01*
X0292181Y0067687D01*
X0292523Y0067885D01*
X0292802Y0068164D01*
X0292999Y0068506D01*
X0293102Y0068888D01*
X0293102Y0070385D01*
X0290102Y0070385D01*
X0290102Y0070985D01*
X0293102Y0070985D01*
X0293102Y0072483D01*
X0292999Y0072864D01*
X0292802Y0073206D01*
X0292523Y0073485D01*
X0292181Y0073683D01*
X0291799Y0073785D01*
X0290102Y0073785D01*
X0290102Y0075959D01*
X0292016Y0075959D01*
X0292602Y0076545D01*
X0292602Y0080573D01*
X0292016Y0081159D01*
X0289481Y0081159D01*
X0289340Y0081300D01*
X0279764Y0081300D01*
X0278402Y0082663D01*
X0277464Y0083600D01*
X0269464Y0083600D01*
X0267902Y0085163D01*
X0267902Y0090489D01*
X0268280Y0090868D02*
X0280727Y0090868D01*
X0280727Y0091860D02*
X0280727Y0089305D01*
X0281704Y0086945D01*
X0283511Y0085139D01*
X0285871Y0084161D01*
X0288425Y0084161D01*
X0290785Y0085139D01*
X0292592Y0086945D01*
X0293569Y0089305D01*
X0293569Y0091860D01*
X0292592Y0094220D01*
X0290785Y0096026D01*
X0288425Y0097004D01*
X0285871Y0097004D01*
X0283511Y0096026D01*
X0281704Y0094220D01*
X0280727Y0091860D01*
X0280729Y0091866D02*
X0268502Y0091866D01*
X0268502Y0092865D02*
X0281143Y0092865D01*
X0281556Y0093863D02*
X0267550Y0093863D01*
X0265053Y0093863D02*
X0231452Y0093863D01*
X0231452Y0092865D02*
X0264102Y0092865D01*
X0264102Y0091866D02*
X0231452Y0091866D01*
X0231452Y0090868D02*
X0240058Y0090868D01*
X0239352Y0089869D02*
X0231945Y0089869D01*
X0232902Y0088870D02*
X0239352Y0088870D01*
X0239818Y0087872D02*
X0232902Y0087872D01*
X0232902Y0086873D02*
X0239952Y0086873D01*
X0239952Y0085875D02*
X0232902Y0085875D01*
X0232902Y0084876D02*
X0239952Y0084876D01*
X0239952Y0083878D02*
X0232902Y0083878D01*
X0232902Y0082879D02*
X0239952Y0082879D01*
X0239952Y0081881D02*
X0232902Y0081881D01*
X0227202Y0081881D02*
X0224294Y0081881D01*
X0224152Y0080882D02*
X0227202Y0080882D01*
X0227202Y0079884D02*
X0224152Y0079884D01*
X0224152Y0078885D02*
X0227202Y0078885D01*
X0227202Y0077887D02*
X0224152Y0077887D01*
X0224152Y0076888D02*
X0227202Y0076888D01*
X0227202Y0075890D02*
X0224152Y0075890D01*
X0224152Y0074891D02*
X0227202Y0074891D01*
X0227202Y0073893D02*
X0224152Y0073893D01*
X0224152Y0072894D02*
X0227202Y0072894D01*
X0217202Y0072894D02*
X0216652Y0072894D01*
X0216652Y0071896D02*
X0217202Y0071896D01*
X0217202Y0070897D02*
X0216652Y0070897D01*
X0216652Y0069899D02*
X0217202Y0069899D01*
X0217202Y0068900D02*
X0216652Y0068900D01*
X0216652Y0067902D02*
X0217202Y0067902D01*
X0217202Y0066903D02*
X0216652Y0066903D01*
X0217252Y0065905D02*
X0218134Y0065905D01*
X0217252Y0064906D02*
X0219133Y0064906D01*
X0219852Y0063908D02*
X0216821Y0063908D01*
X0220078Y0062909D02*
X0210802Y0062909D01*
X0210776Y0061911D02*
X0220298Y0061911D01*
X0219852Y0060912D02*
X0199976Y0060912D01*
X0198978Y0059914D02*
X0209944Y0059914D01*
X0209502Y0058915D02*
X0197979Y0058915D01*
X0196981Y0057917D02*
X0209502Y0057917D01*
X0209502Y0056918D02*
X0183646Y0056918D01*
X0184645Y0055920D02*
X0209502Y0055920D01*
X0209690Y0054921D02*
X0208643Y0054921D01*
X0209642Y0053923D02*
X0217461Y0053923D01*
X0215102Y0054921D02*
X0214502Y0054921D01*
X0214502Y0055920D02*
X0215102Y0055920D01*
X0215102Y0056918D02*
X0214502Y0056918D01*
X0214502Y0057917D02*
X0215102Y0057917D01*
X0215102Y0058915D02*
X0214502Y0058915D01*
X0214502Y0059914D02*
X0215102Y0059914D01*
X0219659Y0059914D02*
X0219852Y0059914D01*
X0220102Y0056918D02*
X0220305Y0056918D01*
X0220614Y0052550D02*
X0219402Y0051337D01*
X0218464Y0050400D01*
X0209048Y0050400D01*
X0209786Y0049662D01*
X0210002Y0049142D01*
X0210002Y0049264D01*
X0210587Y0049850D01*
X0219016Y0049850D01*
X0219602Y0049264D01*
X0219602Y0045236D01*
X0219016Y0044650D01*
X0210587Y0044650D01*
X0210112Y0045125D01*
X0209786Y0044338D01*
X0208556Y0043107D01*
X0209502Y0042161D01*
X0209502Y0040339D01*
X0209102Y0039939D01*
X0209102Y0034274D01*
X0210384Y0034274D01*
X0210081Y0034450D01*
X0209801Y0034729D01*
X0209604Y0035071D01*
X0209502Y0035453D01*
X0209502Y0036950D01*
X0214501Y0036950D01*
X0214501Y0037550D01*
X0209502Y0037550D01*
X0209502Y0039047D01*
X0209604Y0039429D01*
X0209801Y0039771D01*
X0210081Y0040050D01*
X0210423Y0040248D01*
X0210804Y0040350D01*
X0214502Y0040350D01*
X0214502Y0037550D01*
X0215102Y0037550D01*
X0219730Y0037550D01*
X0219931Y0037350D01*
X0220273Y0037152D01*
X0220654Y0037050D01*
X0223727Y0037050D01*
X0223727Y0039675D01*
X0223977Y0039675D01*
X0223977Y0037050D01*
X0227049Y0037050D01*
X0227431Y0037152D01*
X0227502Y0037193D01*
X0227502Y0036814D01*
X0227266Y0037050D01*
X0220437Y0037050D01*
X0220102Y0036714D01*
X0220102Y0036950D01*
X0215102Y0036950D01*
X0215102Y0037550D01*
X0215102Y0040350D01*
X0218799Y0040350D01*
X0219181Y0040248D01*
X0219352Y0040149D01*
X0219352Y0041247D01*
X0219454Y0041629D01*
X0219651Y0041971D01*
X0219931Y0042250D01*
X0220273Y0042448D01*
X0220654Y0042550D01*
X0223727Y0042550D01*
X0223727Y0039925D01*
X0223977Y0039925D01*
X0223977Y0042550D01*
X0227049Y0042550D01*
X0227431Y0042448D01*
X0227502Y0042407D01*
X0227502Y0042786D01*
X0227266Y0042550D01*
X0220437Y0042550D01*
X0219852Y0043136D01*
X0219852Y0046464D01*
X0220437Y0047050D01*
X0227266Y0047050D01*
X0227502Y0046814D01*
X0227502Y0047786D01*
X0227266Y0047550D01*
X0220437Y0047550D01*
X0219852Y0048136D01*
X0219852Y0051464D01*
X0220437Y0052050D01*
X0227266Y0052050D01*
X0227502Y0051814D01*
X0227502Y0052400D01*
X0223989Y0052400D01*
X0223839Y0052550D01*
X0220614Y0052550D01*
X0220313Y0051926D02*
X0219990Y0051926D01*
X0219852Y0050927D02*
X0218991Y0050927D01*
X0219852Y0049929D02*
X0209520Y0049929D01*
X0219602Y0048930D02*
X0219852Y0048930D01*
X0220056Y0047932D02*
X0219602Y0047932D01*
X0219602Y0046933D02*
X0220320Y0046933D01*
X0219852Y0045934D02*
X0219602Y0045934D01*
X0219852Y0044936D02*
X0219302Y0044936D01*
X0219852Y0043937D02*
X0209386Y0043937D01*
X0210034Y0044936D02*
X0210301Y0044936D01*
X0208724Y0042939D02*
X0220048Y0042939D01*
X0219634Y0041940D02*
X0209502Y0041940D01*
X0209502Y0040942D02*
X0219352Y0040942D01*
X0223727Y0040942D02*
X0223977Y0040942D01*
X0223977Y0041940D02*
X0223727Y0041940D01*
X0223727Y0039943D02*
X0223977Y0039943D01*
X0223977Y0038945D02*
X0223727Y0038945D01*
X0223727Y0037946D02*
X0223977Y0037946D01*
X0227368Y0036948D02*
X0227502Y0036948D01*
X0220335Y0036948D02*
X0220102Y0036948D01*
X0219852Y0034815D02*
X0219852Y0033136D01*
X0220437Y0032550D01*
X0221702Y0032550D01*
X0221702Y0028163D01*
X0219639Y0026100D01*
X0211390Y0026100D01*
X0211851Y0026561D01*
X0211851Y0033689D01*
X0211389Y0034150D01*
X0214502Y0034150D01*
X0214502Y0036950D01*
X0215102Y0036950D01*
X0215102Y0034150D01*
X0218799Y0034150D01*
X0219181Y0034252D01*
X0219523Y0034450D01*
X0219802Y0034729D01*
X0219852Y0034815D01*
X0219852Y0033952D02*
X0211587Y0033952D01*
X0211851Y0032954D02*
X0220034Y0032954D01*
X0221702Y0031955D02*
X0211851Y0031955D01*
X0211851Y0030957D02*
X0221702Y0030957D01*
X0221702Y0029958D02*
X0211851Y0029958D01*
X0211851Y0028960D02*
X0221702Y0028960D01*
X0221500Y0027961D02*
X0211851Y0027961D01*
X0211851Y0026963D02*
X0220502Y0026963D01*
X0223030Y0024966D02*
X0223573Y0024966D01*
X0224202Y0023967D02*
X0222032Y0023967D01*
X0221033Y0022969D02*
X0224202Y0022969D01*
X0224202Y0021970D02*
X0211851Y0021970D01*
X0211851Y0020972D02*
X0224567Y0020972D01*
X0225566Y0019973D02*
X0222874Y0019973D01*
X0223872Y0018975D02*
X0226564Y0018975D01*
X0227563Y0017976D02*
X0224871Y0017976D01*
X0225869Y0016978D02*
X0228561Y0016978D01*
X0229560Y0015979D02*
X0226868Y0015979D01*
X0227866Y0014981D02*
X0241058Y0014981D01*
X0241852Y0013982D02*
X0228865Y0013982D01*
X0224772Y0012984D02*
X0221554Y0012984D01*
X0221554Y0011985D02*
X0225771Y0011985D01*
X0226050Y0010987D02*
X0221554Y0010987D01*
X0221554Y0009988D02*
X0226050Y0009988D01*
X0226050Y0008990D02*
X0221554Y0008990D01*
X0221554Y0007991D02*
X0226050Y0007991D01*
X0226050Y0006993D02*
X0221554Y0006993D01*
X0221554Y0005994D02*
X0226050Y0005994D01*
X0238483Y0005994D02*
X0246620Y0005994D01*
X0246620Y0006993D02*
X0238483Y0006993D01*
X0238483Y0007991D02*
X0246620Y0007991D01*
X0246620Y0008990D02*
X0238483Y0008990D01*
X0238483Y0009988D02*
X0246620Y0009988D01*
X0246620Y0010987D02*
X0238483Y0010987D01*
X0238483Y0011985D02*
X0246620Y0011985D01*
X0246620Y0012984D02*
X0245896Y0012984D01*
X0246252Y0013982D02*
X0254702Y0013982D01*
X0255270Y0014981D02*
X0246252Y0014981D01*
X0245434Y0015979D02*
X0256268Y0015979D01*
X0257267Y0016978D02*
X0243587Y0016978D01*
X0242588Y0017976D02*
X0252081Y0017976D01*
X0249989Y0018975D02*
X0231090Y0018975D01*
X0230566Y0019973D02*
X0230091Y0019973D01*
X0237038Y0019973D02*
X0248990Y0019973D01*
X0256901Y0017976D02*
X0258265Y0017976D01*
X0258993Y0018975D02*
X0259264Y0018975D01*
X0259991Y0019973D02*
X0260262Y0019973D01*
X0263789Y0018975D02*
X0268202Y0018975D01*
X0268202Y0019973D02*
X0264788Y0019973D01*
X0262790Y0017976D02*
X0268202Y0017976D01*
X0267918Y0016978D02*
X0261792Y0016978D01*
X0260793Y0015979D02*
X0267602Y0015979D01*
X0267602Y0014981D02*
X0259795Y0014981D01*
X0258796Y0013982D02*
X0268202Y0013982D01*
X0271402Y0013982D02*
X0281084Y0013982D01*
X0280727Y0013120D02*
X0280727Y0010565D01*
X0281704Y0008205D01*
X0283511Y0006399D01*
X0285871Y0005421D01*
X0288425Y0005421D01*
X0290785Y0006399D01*
X0292592Y0008205D01*
X0293569Y0010565D01*
X0293569Y0013120D01*
X0292592Y0015480D01*
X0290785Y0017286D01*
X0288425Y0018264D01*
X0285871Y0018264D01*
X0283511Y0017286D01*
X0281704Y0015480D01*
X0280727Y0013120D01*
X0280727Y0012984D02*
X0275983Y0012984D01*
X0275983Y0011985D02*
X0280727Y0011985D01*
X0280727Y0010987D02*
X0275983Y0010987D01*
X0275983Y0009988D02*
X0280966Y0009988D01*
X0281379Y0008990D02*
X0275983Y0008990D01*
X0275983Y0007991D02*
X0281918Y0007991D01*
X0282917Y0006993D02*
X0275983Y0006993D01*
X0275983Y0005994D02*
X0284488Y0005994D01*
X0289808Y0005994D02*
X0294491Y0005994D01*
X0294506Y0005854D02*
X0294506Y0005317D01*
X0294296Y0004593D01*
X0293793Y0003963D01*
X0293087Y0003575D01*
X0292734Y0003500D01*
X0063265Y0003500D01*
X0063190Y0003559D01*
X0062656Y0003500D01*
X0062119Y0003500D01*
X0061394Y0003710D01*
X0060765Y0004213D01*
X0060376Y0004919D01*
X0060302Y0005272D01*
X0060302Y0095962D01*
X0060361Y0096036D01*
X0060302Y0096571D01*
X0060302Y0097107D01*
X0060303Y0097193D01*
X0060732Y0098172D01*
X0061593Y0098805D01*
X0062080Y0098925D01*
X0291543Y0098925D01*
X0291617Y0098866D01*
X0292152Y0098925D01*
X0292689Y0098925D01*
X0293414Y0098715D01*
X0294043Y0098212D01*
X0294432Y0097506D01*
X0294506Y0097153D01*
X0294506Y0006463D01*
X0294447Y0006389D01*
X0294506Y0005854D01*
X0294413Y0004996D02*
X0206843Y0004996D01*
X0207841Y0005994D02*
X0209120Y0005994D01*
X0209120Y0006993D02*
X0208840Y0006993D01*
X0205746Y0008990D02*
X0196372Y0008990D01*
X0196830Y0009988D02*
X0200202Y0009988D01*
X0199204Y0010987D02*
X0197102Y0010987D01*
X0197102Y0011985D02*
X0199054Y0011985D01*
X0198055Y0012984D02*
X0196841Y0012984D01*
X0197202Y0013982D02*
X0196401Y0013982D01*
X0197202Y0014981D02*
X0195402Y0014981D01*
X0197202Y0015979D02*
X0189729Y0015979D01*
X0190143Y0016978D02*
X0197202Y0016978D01*
X0197202Y0017976D02*
X0195359Y0017976D01*
X0196357Y0018975D02*
X0197202Y0018975D01*
X0197202Y0019973D02*
X0196823Y0019973D01*
X0197102Y0020972D02*
X0197202Y0020972D01*
X0197202Y0021970D02*
X0197102Y0021970D01*
X0200402Y0021970D02*
X0202752Y0021970D01*
X0202752Y0020972D02*
X0200402Y0020972D01*
X0200402Y0019973D02*
X0202752Y0019973D01*
X0202752Y0018975D02*
X0200402Y0018975D01*
X0200402Y0017976D02*
X0202752Y0017976D01*
X0202752Y0016978D02*
X0200402Y0016978D01*
X0200402Y0015979D02*
X0202752Y0015979D01*
X0203083Y0014981D02*
X0200584Y0014981D01*
X0202431Y0013982D02*
X0223774Y0013982D01*
X0222775Y0014981D02*
X0211520Y0014981D01*
X0211851Y0015979D02*
X0221777Y0015979D01*
X0220778Y0016978D02*
X0211851Y0016978D01*
X0209120Y0012984D02*
X0203429Y0012984D01*
X0203502Y0011985D02*
X0209120Y0011985D01*
X0207743Y0010987D02*
X0203399Y0010987D01*
X0202401Y0009988D02*
X0206744Y0009988D01*
X0190201Y0014981D02*
X0188886Y0014981D01*
X0189203Y0013982D02*
X0186401Y0013982D01*
X0186841Y0012984D02*
X0188762Y0012984D01*
X0188502Y0011985D02*
X0187102Y0011985D01*
X0187102Y0010987D02*
X0188502Y0010987D01*
X0188774Y0009988D02*
X0186830Y0009988D01*
X0186372Y0008990D02*
X0189231Y0008990D01*
X0190194Y0017976D02*
X0190244Y0017976D01*
X0184209Y0020972D02*
X0182902Y0020972D01*
X0182902Y0021970D02*
X0188502Y0021970D01*
X0188756Y0022969D02*
X0182902Y0022969D01*
X0182902Y0023967D02*
X0189188Y0023967D01*
X0189073Y0024966D02*
X0182902Y0024966D01*
X0182902Y0025964D02*
X0188075Y0025964D01*
X0187076Y0026963D02*
X0182902Y0026963D01*
X0182902Y0027961D02*
X0186078Y0027961D01*
X0185952Y0028960D02*
X0182902Y0028960D01*
X0182902Y0029958D02*
X0185952Y0029958D01*
X0185952Y0030957D02*
X0182902Y0030957D01*
X0182902Y0031955D02*
X0185952Y0031955D01*
X0185952Y0032954D02*
X0182902Y0032954D01*
X0182902Y0033952D02*
X0185952Y0033952D01*
X0185952Y0034951D02*
X0182902Y0034951D01*
X0182902Y0035949D02*
X0185952Y0035949D01*
X0185952Y0036948D02*
X0182902Y0036948D01*
X0182902Y0037946D02*
X0185952Y0037946D01*
X0185952Y0038945D02*
X0182902Y0038945D01*
X0182902Y0039943D02*
X0185952Y0039943D01*
X0185352Y0040942D02*
X0182902Y0040942D01*
X0182902Y0041940D02*
X0185352Y0041940D01*
X0185879Y0042939D02*
X0182902Y0042939D01*
X0182902Y0043937D02*
X0191427Y0043937D01*
X0191099Y0043609D02*
X0190524Y0042223D01*
X0190524Y0040722D01*
X0191099Y0039336D01*
X0192160Y0038275D01*
X0193546Y0037701D01*
X0195046Y0037701D01*
X0196433Y0038275D01*
X0197494Y0039336D01*
X0198068Y0040722D01*
X0198068Y0042223D01*
X0197494Y0043609D01*
X0196433Y0044670D01*
X0195046Y0045244D01*
X0193546Y0045244D01*
X0192160Y0044670D01*
X0191099Y0043609D01*
X0190821Y0042939D02*
X0189224Y0042939D01*
X0189752Y0041940D02*
X0190524Y0041940D01*
X0190524Y0040942D02*
X0189752Y0040942D01*
X0189152Y0039943D02*
X0190847Y0039943D01*
X0191490Y0038945D02*
X0189152Y0038945D01*
X0189152Y0037946D02*
X0192953Y0037946D01*
X0195639Y0037946D02*
X0199702Y0037946D01*
X0199702Y0036948D02*
X0189152Y0036948D01*
X0189152Y0035949D02*
X0199702Y0035949D01*
X0199702Y0034951D02*
X0195432Y0034951D01*
X0196430Y0033952D02*
X0199702Y0033952D01*
X0199702Y0032954D02*
X0196854Y0032954D01*
X0197102Y0031955D02*
X0199702Y0031955D01*
X0199702Y0030957D02*
X0197102Y0030957D01*
X0196817Y0029958D02*
X0199702Y0029958D01*
X0199702Y0028960D02*
X0196342Y0028960D01*
X0196103Y0027961D02*
X0199702Y0027961D01*
X0199702Y0026963D02*
X0197102Y0026963D01*
X0198100Y0025964D02*
X0199702Y0025964D01*
X0200073Y0024966D02*
X0199099Y0024966D01*
X0200097Y0023967D02*
X0201072Y0023967D01*
X0200402Y0022969D02*
X0202070Y0022969D01*
X0183219Y0019973D02*
X0183091Y0019973D01*
X0174702Y0021970D02*
X0172727Y0021970D01*
X0172727Y0022969D02*
X0174702Y0022969D01*
X0174702Y0023967D02*
X0172577Y0023967D01*
X0172163Y0024966D02*
X0174702Y0024966D01*
X0174702Y0025964D02*
X0171293Y0025964D01*
X0169492Y0026963D02*
X0174702Y0026963D01*
X0174702Y0027961D02*
X0141662Y0027961D01*
X0142691Y0026963D02*
X0157361Y0026963D01*
X0157571Y0027050D02*
X0155991Y0026395D01*
X0154781Y0025186D01*
X0154127Y0023605D01*
X0154127Y0021895D01*
X0154781Y0020314D01*
X0155991Y0019105D01*
X0157571Y0018450D01*
X0159282Y0018450D01*
X0160862Y0019105D01*
X0162072Y0020314D01*
X0162727Y0021895D01*
X0162727Y0023605D01*
X0162072Y0025186D01*
X0160862Y0026395D01*
X0159282Y0027050D01*
X0157571Y0027050D01*
X0159492Y0026963D02*
X0167361Y0026963D01*
X0165560Y0025964D02*
X0161293Y0025964D01*
X0162163Y0024966D02*
X0164690Y0024966D01*
X0164277Y0023967D02*
X0162577Y0023967D01*
X0162727Y0022969D02*
X0164127Y0022969D01*
X0164127Y0021970D02*
X0162727Y0021970D01*
X0162344Y0020972D02*
X0164509Y0020972D01*
X0165122Y0019973D02*
X0161731Y0019973D01*
X0160549Y0018975D02*
X0166305Y0018975D01*
X0167015Y0017976D02*
X0149602Y0017976D01*
X0149602Y0016978D02*
X0166017Y0016978D01*
X0165018Y0015979D02*
X0149602Y0015979D01*
X0149602Y0014981D02*
X0150201Y0014981D01*
X0155402Y0014981D02*
X0160201Y0014981D01*
X0159203Y0013982D02*
X0156401Y0013982D01*
X0156841Y0012984D02*
X0158762Y0012984D01*
X0158502Y0011985D02*
X0157102Y0011985D01*
X0157102Y0010987D02*
X0158502Y0010987D01*
X0158774Y0009988D02*
X0156830Y0009988D01*
X0156372Y0008990D02*
X0159231Y0008990D01*
X0148760Y0004996D02*
X0060360Y0004996D01*
X0060302Y0005994D02*
X0065984Y0005994D01*
X0065007Y0006399D02*
X0067367Y0005421D01*
X0069921Y0005421D01*
X0072281Y0006399D01*
X0074088Y0008205D01*
X0075065Y0010565D01*
X0075065Y0013120D01*
X0074088Y0015480D01*
X0072281Y0017286D01*
X0069921Y0018264D01*
X0067367Y0018264D01*
X0065007Y0017286D01*
X0063200Y0015480D01*
X0062223Y0013120D01*
X0062223Y0010565D01*
X0063200Y0008205D01*
X0065007Y0006399D01*
X0064413Y0006993D02*
X0060302Y0006993D01*
X0060302Y0007991D02*
X0063415Y0007991D01*
X0062875Y0008990D02*
X0060302Y0008990D01*
X0060302Y0009988D02*
X0062462Y0009988D01*
X0062223Y0010987D02*
X0060302Y0010987D01*
X0060302Y0011985D02*
X0062223Y0011985D01*
X0062223Y0012984D02*
X0060302Y0012984D01*
X0060302Y0013982D02*
X0062580Y0013982D01*
X0062994Y0014981D02*
X0060302Y0014981D01*
X0060302Y0015979D02*
X0063700Y0015979D01*
X0064698Y0016978D02*
X0060302Y0016978D01*
X0060302Y0017976D02*
X0066673Y0017976D01*
X0070616Y0017976D02*
X0135406Y0017976D01*
X0135457Y0016978D02*
X0072590Y0016978D01*
X0073588Y0015979D02*
X0091054Y0015979D01*
X0090959Y0015948D02*
X0090286Y0015605D01*
X0089675Y0015161D01*
X0089140Y0014627D01*
X0088696Y0014016D01*
X0088353Y0013343D01*
X0088120Y0012624D01*
X0088018Y0011984D01*
X0092317Y0011984D01*
X0092317Y0011016D01*
X0088018Y0011016D01*
X0088120Y0010376D01*
X0088353Y0009657D01*
X0088696Y0008984D01*
X0089140Y0008373D01*
X0089675Y0007839D01*
X0090286Y0007395D01*
X0090959Y0007052D01*
X0091678Y0006818D01*
X0092317Y0006717D01*
X0092317Y0011016D01*
X0093286Y0011016D01*
X0093286Y0011984D01*
X0097585Y0011984D01*
X0097483Y0012624D01*
X0097250Y0013343D01*
X0096907Y0014016D01*
X0096463Y0014627D01*
X0095929Y0015161D01*
X0095317Y0015605D01*
X0094644Y0015948D01*
X0093926Y0016182D01*
X0093286Y0016283D01*
X0093286Y0011984D01*
X0092317Y0011984D01*
X0092317Y0016283D01*
X0091678Y0016182D01*
X0090959Y0015948D01*
X0092317Y0015979D02*
X0093286Y0015979D01*
X0093286Y0014981D02*
X0092317Y0014981D01*
X0092317Y0013982D02*
X0093286Y0013982D01*
X0093286Y0012984D02*
X0092317Y0012984D01*
X0092317Y0011985D02*
X0093286Y0011985D01*
X0093286Y0011016D02*
X0097585Y0011016D01*
X0097483Y0010376D01*
X0097250Y0009657D01*
X0096907Y0008984D01*
X0096463Y0008373D01*
X0095929Y0007839D01*
X0095317Y0007395D01*
X0094644Y0007052D01*
X0093926Y0006818D01*
X0093286Y0006717D01*
X0093286Y0011016D01*
X0093286Y0010987D02*
X0092317Y0010987D01*
X0092317Y0009988D02*
X0093286Y0009988D01*
X0093286Y0008990D02*
X0092317Y0008990D01*
X0092317Y0007991D02*
X0093286Y0007991D01*
X0093286Y0006993D02*
X0092317Y0006993D01*
X0091141Y0006993D02*
X0072875Y0006993D01*
X0073874Y0007991D02*
X0080229Y0007991D01*
X0080366Y0007855D02*
X0081946Y0007200D01*
X0083657Y0007200D01*
X0085237Y0007855D01*
X0086447Y0009064D01*
X0087102Y0010645D01*
X0087102Y0012355D01*
X0086447Y0013936D01*
X0085237Y0015145D01*
X0083657Y0015800D01*
X0081946Y0015800D01*
X0080366Y0015145D01*
X0079156Y0013936D01*
X0078502Y0012355D01*
X0078502Y0010645D01*
X0079156Y0009064D01*
X0080366Y0007855D01*
X0079231Y0008990D02*
X0074413Y0008990D01*
X0074826Y0009988D02*
X0078774Y0009988D01*
X0078502Y0010987D02*
X0075065Y0010987D01*
X0075065Y0011985D02*
X0078502Y0011985D01*
X0078762Y0012984D02*
X0075065Y0012984D01*
X0074708Y0013982D02*
X0079203Y0013982D01*
X0080201Y0014981D02*
X0074295Y0014981D01*
X0085402Y0014981D02*
X0089494Y0014981D01*
X0088679Y0013982D02*
X0086401Y0013982D01*
X0086841Y0012984D02*
X0088237Y0012984D01*
X0088019Y0011985D02*
X0087102Y0011985D01*
X0087102Y0010987D02*
X0088023Y0010987D01*
X0088246Y0009988D02*
X0086830Y0009988D01*
X0086372Y0008990D02*
X0088694Y0008990D01*
X0089522Y0007991D02*
X0085374Y0007991D01*
X0094462Y0006993D02*
X0146763Y0006993D01*
X0146002Y0007991D02*
X0145374Y0007991D01*
X0140229Y0007991D02*
X0135374Y0007991D01*
X0135237Y0007855D02*
X0136447Y0009064D01*
X0137102Y0010645D01*
X0137102Y0012355D01*
X0136447Y0013936D01*
X0135237Y0015145D01*
X0133657Y0015800D01*
X0131946Y0015800D01*
X0130366Y0015145D01*
X0129156Y0013936D01*
X0128502Y0012355D01*
X0128502Y0010645D01*
X0129156Y0009064D01*
X0130366Y0007855D01*
X0131946Y0007200D01*
X0133657Y0007200D01*
X0135237Y0007855D01*
X0136372Y0008990D02*
X0139231Y0008990D01*
X0138774Y0009988D02*
X0136830Y0009988D01*
X0137102Y0010987D02*
X0138502Y0010987D01*
X0138502Y0011985D02*
X0137102Y0011985D01*
X0136841Y0012984D02*
X0138762Y0012984D01*
X0139203Y0013982D02*
X0136401Y0013982D01*
X0136714Y0014981D02*
X0135402Y0014981D01*
X0135871Y0015979D02*
X0094549Y0015979D01*
X0096109Y0014981D02*
X0100201Y0014981D01*
X0100366Y0015145D02*
X0099156Y0013936D01*
X0098502Y0012355D01*
X0098502Y0010645D01*
X0099156Y0009064D01*
X0100366Y0007855D01*
X0101946Y0007200D01*
X0103657Y0007200D01*
X0105237Y0007855D01*
X0106447Y0009064D01*
X0107102Y0010645D01*
X0107102Y0012355D01*
X0106447Y0013936D01*
X0105237Y0015145D01*
X0103657Y0015800D01*
X0101946Y0015800D01*
X0100366Y0015145D01*
X0099203Y0013982D02*
X0096924Y0013982D01*
X0097367Y0012984D02*
X0098762Y0012984D01*
X0098502Y0011985D02*
X0097585Y0011985D01*
X0097580Y0010987D02*
X0098502Y0010987D01*
X0098774Y0009988D02*
X0097357Y0009988D01*
X0096910Y0008990D02*
X0099231Y0008990D01*
X0100229Y0007991D02*
X0096081Y0007991D01*
X0105374Y0007991D02*
X0110229Y0007991D01*
X0110366Y0007855D02*
X0111946Y0007200D01*
X0113657Y0007200D01*
X0115237Y0007855D01*
X0116447Y0009064D01*
X0117102Y0010645D01*
X0117102Y0012355D01*
X0116447Y0013936D01*
X0115237Y0015145D01*
X0113657Y0015800D01*
X0111946Y0015800D01*
X0110366Y0015145D01*
X0109156Y0013936D01*
X0108502Y0012355D01*
X0108502Y0010645D01*
X0109156Y0009064D01*
X0110366Y0007855D01*
X0109231Y0008990D02*
X0106372Y0008990D01*
X0106830Y0009988D02*
X0108774Y0009988D01*
X0108502Y0010987D02*
X0107102Y0010987D01*
X0107102Y0011985D02*
X0108502Y0011985D01*
X0108762Y0012984D02*
X0106841Y0012984D01*
X0106401Y0013982D02*
X0109203Y0013982D01*
X0110201Y0014981D02*
X0105402Y0014981D01*
X0113531Y0020314D02*
X0114741Y0019105D01*
X0116321Y0018450D01*
X0118032Y0018450D01*
X0119612Y0019105D01*
X0120822Y0020314D01*
X0121477Y0021895D01*
X0121477Y0023605D01*
X0120822Y0025186D01*
X0119612Y0026395D01*
X0118032Y0027050D01*
X0116321Y0027050D01*
X0114741Y0026395D01*
X0114402Y0026056D01*
X0114402Y0027200D01*
X0110102Y0027200D01*
X0110102Y0027800D01*
X0114402Y0027800D01*
X0114402Y0029405D01*
X0111707Y0032100D01*
X0110102Y0032100D01*
X0110102Y0027800D01*
X0109502Y0027800D01*
X0109502Y0032100D01*
X0107896Y0032100D01*
X0105202Y0029405D01*
X0105202Y0027800D01*
X0109501Y0027800D01*
X0109501Y0027200D01*
X0105202Y0027200D01*
X0105202Y0025595D01*
X0107896Y0022900D01*
X0109502Y0022900D01*
X0109502Y0027200D01*
X0110102Y0027200D01*
X0110102Y0022900D01*
X0111707Y0022900D01*
X0113205Y0024398D01*
X0112877Y0023605D01*
X0112877Y0021895D01*
X0113531Y0020314D01*
X0113872Y0019973D02*
X0060302Y0019973D01*
X0060302Y0018975D02*
X0115055Y0018975D01*
X0113259Y0020972D02*
X0060302Y0020972D01*
X0060302Y0021970D02*
X0112877Y0021970D01*
X0112877Y0022969D02*
X0111776Y0022969D01*
X0112774Y0023967D02*
X0113027Y0023967D01*
X0110102Y0023967D02*
X0109502Y0023967D01*
X0109502Y0022969D02*
X0110102Y0022969D01*
X0107827Y0022969D02*
X0075205Y0022969D01*
X0076858Y0023654D01*
X0078124Y0024919D01*
X0078809Y0026573D01*
X0078809Y0028364D01*
X0078124Y0030018D01*
X0076858Y0031283D01*
X0075205Y0031968D01*
X0066414Y0031968D01*
X0064760Y0031283D01*
X0063495Y0030018D01*
X0062809Y0028364D01*
X0062809Y0026573D01*
X0063495Y0024919D01*
X0064760Y0023654D01*
X0066414Y0022969D01*
X0060302Y0022969D01*
X0060302Y0023967D02*
X0064447Y0023967D01*
X0063475Y0024966D02*
X0060302Y0024966D01*
X0060302Y0025964D02*
X0063062Y0025964D01*
X0062809Y0026963D02*
X0060302Y0026963D01*
X0060302Y0027961D02*
X0062809Y0027961D01*
X0063056Y0028960D02*
X0060302Y0028960D01*
X0060302Y0029958D02*
X0063470Y0029958D01*
X0064434Y0030957D02*
X0060302Y0030957D01*
X0060302Y0031955D02*
X0066383Y0031955D01*
X0060302Y0032954D02*
X0080102Y0032954D01*
X0080143Y0033952D02*
X0060302Y0033952D01*
X0060302Y0034951D02*
X0081141Y0034951D01*
X0083462Y0034951D02*
X0090207Y0034951D01*
X0091205Y0035949D02*
X0060302Y0035949D01*
X0060302Y0036948D02*
X0069830Y0036948D01*
X0069528Y0037167D02*
X0070168Y0036702D01*
X0070873Y0036343D01*
X0071625Y0036099D01*
X0072302Y0035992D01*
X0072302Y0040500D01*
X0073302Y0040500D01*
X0073302Y0041500D01*
X0077810Y0041500D01*
X0077703Y0042177D01*
X0077458Y0042929D01*
X0077099Y0043634D01*
X0076634Y0044274D01*
X0076075Y0044833D01*
X0075435Y0045298D01*
X0074730Y0045657D01*
X0073978Y0045901D01*
X0073302Y0046008D01*
X0073302Y0041500D01*
X0072302Y0041500D01*
X0072302Y0046008D01*
X0071625Y0045901D01*
X0070873Y0045657D01*
X0070168Y0045298D01*
X0069528Y0044833D01*
X0068969Y0044274D01*
X0068504Y0043634D01*
X0068145Y0042929D01*
X0067900Y0042177D01*
X0067793Y0041500D01*
X0072302Y0041500D01*
X0072302Y0040500D01*
X0067793Y0040500D01*
X0067900Y0039823D01*
X0068145Y0039071D01*
X0068504Y0038366D01*
X0068969Y0037726D01*
X0069528Y0037167D01*
X0068809Y0037946D02*
X0060302Y0037946D01*
X0060302Y0038945D02*
X0068209Y0038945D01*
X0067881Y0039943D02*
X0060302Y0039943D01*
X0060302Y0040942D02*
X0072302Y0040942D01*
X0072302Y0041940D02*
X0073302Y0041940D01*
X0073302Y0040942D02*
X0137002Y0040942D01*
X0137002Y0041940D02*
X0077740Y0041940D01*
X0077453Y0042939D02*
X0114751Y0042939D01*
X0115390Y0042300D02*
X0117213Y0042300D01*
X0118502Y0043589D01*
X0118502Y0044437D01*
X0119659Y0045594D01*
X0121106Y0045594D01*
X0121691Y0046180D01*
X0121691Y0050946D01*
X0121106Y0051531D01*
X0116734Y0051531D01*
X0116148Y0050946D01*
X0116148Y0046700D01*
X0115390Y0046700D01*
X0114102Y0045411D01*
X0114102Y0043589D01*
X0115390Y0042300D01*
X0114102Y0043937D02*
X0076879Y0043937D01*
X0075933Y0044936D02*
X0114102Y0044936D01*
X0114625Y0045934D02*
X0073768Y0045934D01*
X0073302Y0045934D02*
X0072302Y0045934D01*
X0071835Y0045934D02*
X0060302Y0045934D01*
X0060302Y0044936D02*
X0069670Y0044936D01*
X0068725Y0043937D02*
X0060302Y0043937D01*
X0060302Y0042939D02*
X0068150Y0042939D01*
X0067863Y0041940D02*
X0060302Y0041940D01*
X0072302Y0042939D02*
X0073302Y0042939D01*
X0073302Y0043937D02*
X0072302Y0043937D01*
X0072302Y0044936D02*
X0073302Y0044936D01*
X0073302Y0040500D02*
X0077810Y0040500D01*
X0077703Y0039823D01*
X0077458Y0039071D01*
X0077099Y0038366D01*
X0076634Y0037726D01*
X0076075Y0037167D01*
X0075435Y0036702D01*
X0074730Y0036343D01*
X0073978Y0036099D01*
X0073302Y0035992D01*
X0073302Y0040500D01*
X0073302Y0039943D02*
X0072302Y0039943D01*
X0072302Y0038945D02*
X0073302Y0038945D01*
X0073302Y0037946D02*
X0072302Y0037946D01*
X0072302Y0036948D02*
X0073302Y0036948D01*
X0075773Y0036948D02*
X0092204Y0036948D01*
X0093301Y0032954D02*
X0131342Y0032954D01*
X0132371Y0031955D02*
X0111852Y0031955D01*
X0112850Y0030957D02*
X0133401Y0030957D01*
X0134431Y0029958D02*
X0113849Y0029958D01*
X0114402Y0028960D02*
X0135460Y0028960D01*
X0136490Y0027961D02*
X0114402Y0027961D01*
X0114402Y0026963D02*
X0116111Y0026963D01*
X0118242Y0026963D02*
X0126111Y0026963D01*
X0126321Y0027050D02*
X0124741Y0026395D01*
X0123531Y0025186D01*
X0122877Y0023605D01*
X0122877Y0021895D01*
X0123531Y0020314D01*
X0124741Y0019105D01*
X0126321Y0018450D01*
X0128032Y0018450D01*
X0129612Y0019105D01*
X0130822Y0020314D01*
X0131477Y0021895D01*
X0131477Y0023605D01*
X0130822Y0025186D01*
X0129612Y0026395D01*
X0128032Y0027050D01*
X0126321Y0027050D01*
X0128242Y0026963D02*
X0137520Y0026963D01*
X0138550Y0025964D02*
X0130043Y0025964D01*
X0130913Y0024966D02*
X0139579Y0024966D01*
X0140609Y0023967D02*
X0131327Y0023967D01*
X0131477Y0022969D02*
X0141639Y0022969D01*
X0142668Y0021970D02*
X0131477Y0021970D01*
X0131094Y0020972D02*
X0136965Y0020972D01*
X0135975Y0019973D02*
X0130481Y0019973D01*
X0129299Y0018975D02*
X0135561Y0018975D01*
X0141391Y0020972D02*
X0143698Y0020972D01*
X0144728Y0019973D02*
X0142381Y0019973D01*
X0142795Y0018975D02*
X0145758Y0018975D01*
X0146002Y0017976D02*
X0142950Y0017976D01*
X0142899Y0016978D02*
X0146002Y0016978D01*
X0146002Y0015979D02*
X0142485Y0015979D01*
X0145402Y0014981D02*
X0146002Y0014981D01*
X0149610Y0018975D02*
X0156305Y0018975D01*
X0155122Y0019973D02*
X0149602Y0019973D01*
X0148875Y0020972D02*
X0154509Y0020972D01*
X0154127Y0021970D02*
X0147840Y0021970D01*
X0146810Y0022969D02*
X0154127Y0022969D01*
X0154277Y0023967D02*
X0145780Y0023967D01*
X0144751Y0024966D02*
X0154690Y0024966D01*
X0155560Y0025964D02*
X0143721Y0025964D01*
X0140632Y0028960D02*
X0151478Y0028960D01*
X0151002Y0029958D02*
X0139602Y0029958D01*
X0138572Y0030957D02*
X0151002Y0030957D01*
X0151002Y0031955D02*
X0137543Y0031955D01*
X0137890Y0032300D02*
X0139713Y0032300D01*
X0141002Y0033589D01*
X0141002Y0035411D01*
X0140602Y0035811D01*
X0140602Y0045689D01*
X0141002Y0046089D01*
X0141002Y0047911D01*
X0139713Y0049200D01*
X0137890Y0049200D01*
X0136602Y0047911D01*
X0136602Y0046089D01*
X0137002Y0045689D01*
X0137002Y0035811D01*
X0136602Y0035411D01*
X0136602Y0033589D01*
X0137890Y0032300D01*
X0137236Y0032954D02*
X0136513Y0032954D01*
X0136602Y0033952D02*
X0135483Y0033952D01*
X0134454Y0034951D02*
X0136602Y0034951D01*
X0137002Y0035949D02*
X0133424Y0035949D01*
X0132399Y0036948D02*
X0137002Y0036948D01*
X0137002Y0037946D02*
X0076794Y0037946D01*
X0077394Y0038945D02*
X0137002Y0038945D01*
X0137002Y0039943D02*
X0077722Y0039943D01*
X0060302Y0046933D02*
X0116148Y0046933D01*
X0116148Y0047932D02*
X0060302Y0047932D01*
X0060302Y0048930D02*
X0116148Y0048930D01*
X0116148Y0049929D02*
X0111839Y0049929D01*
X0111853Y0049953D02*
X0111955Y0050334D01*
X0111955Y0052114D01*
X0109069Y0052114D01*
X0109069Y0049031D01*
X0110653Y0049031D01*
X0111034Y0049134D01*
X0111376Y0049331D01*
X0111655Y0049610D01*
X0111853Y0049953D01*
X0111955Y0050927D02*
X0116148Y0050927D01*
X0111955Y0051926D02*
X0129113Y0051926D01*
X0128115Y0052924D02*
X0111955Y0052924D01*
X0111955Y0052886D02*
X0111955Y0054666D01*
X0111853Y0055047D01*
X0111655Y0055390D01*
X0111376Y0055669D01*
X0111034Y0055866D01*
X0110653Y0055968D01*
X0109069Y0055968D01*
X0109069Y0052886D01*
X0108298Y0052886D01*
X0108298Y0055968D01*
X0106714Y0055968D01*
X0106333Y0055866D01*
X0105991Y0055669D01*
X0105712Y0055390D01*
X0105514Y0055047D01*
X0105412Y0054666D01*
X0105412Y0052886D01*
X0108298Y0052886D01*
X0108298Y0052114D01*
X0109069Y0052114D01*
X0109069Y0052886D01*
X0111955Y0052886D01*
X0111955Y0053923D02*
X0116280Y0053923D01*
X0116148Y0054921D02*
X0111887Y0054921D01*
X0110835Y0055920D02*
X0116148Y0055920D01*
X0116148Y0056918D02*
X0074771Y0056918D01*
X0075365Y0057164D02*
X0076638Y0058437D01*
X0077327Y0060100D01*
X0077327Y0061900D01*
X0076638Y0063563D01*
X0075365Y0064836D01*
X0073702Y0065525D01*
X0071901Y0065525D01*
X0070238Y0064836D01*
X0068965Y0063563D01*
X0068277Y0061900D01*
X0068277Y0060100D01*
X0068965Y0058437D01*
X0070238Y0057164D01*
X0071901Y0056475D01*
X0073702Y0056475D01*
X0075365Y0057164D01*
X0076118Y0057917D02*
X0116148Y0057917D01*
X0116243Y0058915D02*
X0076836Y0058915D01*
X0077249Y0059914D02*
X0132125Y0059914D01*
X0131127Y0060912D02*
X0077327Y0060912D01*
X0077322Y0061911D02*
X0130128Y0061911D01*
X0129130Y0062909D02*
X0076909Y0062909D01*
X0076293Y0063908D02*
X0128131Y0063908D01*
X0127133Y0064906D02*
X0075196Y0064906D01*
X0070408Y0064906D02*
X0060302Y0064906D01*
X0060302Y0063908D02*
X0069310Y0063908D01*
X0068695Y0062909D02*
X0060302Y0062909D01*
X0060302Y0061911D02*
X0068281Y0061911D01*
X0068277Y0060912D02*
X0060302Y0060912D01*
X0060302Y0059914D02*
X0068354Y0059914D01*
X0068767Y0058915D02*
X0060302Y0058915D01*
X0060302Y0057917D02*
X0069486Y0057917D01*
X0070832Y0056918D02*
X0060302Y0056918D01*
X0060302Y0055920D02*
X0106532Y0055920D01*
X0105480Y0054921D02*
X0060302Y0054921D01*
X0060302Y0053923D02*
X0105412Y0053923D01*
X0105412Y0052924D02*
X0060302Y0052924D01*
X0060302Y0051926D02*
X0105412Y0051926D01*
X0105412Y0052114D02*
X0105412Y0050334D01*
X0105514Y0049953D01*
X0105712Y0049610D01*
X0105991Y0049331D01*
X0106333Y0049134D01*
X0106714Y0049031D01*
X0108298Y0049031D01*
X0108298Y0052114D01*
X0105412Y0052114D01*
X0105412Y0050927D02*
X0060302Y0050927D01*
X0060302Y0049929D02*
X0105528Y0049929D01*
X0108298Y0049929D02*
X0109069Y0049929D01*
X0109069Y0050927D02*
X0108298Y0050927D01*
X0108298Y0051926D02*
X0109069Y0051926D01*
X0109069Y0052924D02*
X0108298Y0052924D01*
X0108298Y0053923D02*
X0109069Y0053923D01*
X0109069Y0054921D02*
X0108298Y0054921D01*
X0108298Y0055920D02*
X0109069Y0055920D01*
X0121560Y0053923D02*
X0127116Y0053923D01*
X0126118Y0054921D02*
X0121691Y0054921D01*
X0127648Y0057917D02*
X0134122Y0057917D01*
X0133124Y0058915D02*
X0121596Y0058915D01*
X0128646Y0056918D02*
X0135121Y0056918D01*
X0136119Y0055920D02*
X0129645Y0055920D01*
X0130643Y0054921D02*
X0141148Y0054921D01*
X0142179Y0053923D02*
X0131642Y0053923D01*
X0130112Y0050927D02*
X0121691Y0050927D01*
X0121691Y0049929D02*
X0141110Y0049929D01*
X0142109Y0048930D02*
X0139983Y0048930D01*
X0140981Y0047932D02*
X0143107Y0047932D01*
X0144106Y0046933D02*
X0141002Y0046933D01*
X0140847Y0045934D02*
X0145104Y0045934D01*
X0146103Y0044936D02*
X0140602Y0044936D01*
X0140602Y0043937D02*
X0147101Y0043937D01*
X0148100Y0042939D02*
X0140602Y0042939D01*
X0140602Y0041940D02*
X0149098Y0041940D01*
X0150097Y0040942D02*
X0140602Y0040942D01*
X0140602Y0039943D02*
X0151095Y0039943D01*
X0152094Y0038945D02*
X0140602Y0038945D01*
X0140602Y0037946D02*
X0152702Y0037946D01*
X0151385Y0036948D02*
X0140602Y0036948D01*
X0140602Y0035949D02*
X0151002Y0035949D01*
X0151002Y0034951D02*
X0141002Y0034951D01*
X0141002Y0033952D02*
X0151002Y0033952D01*
X0151002Y0032954D02*
X0140367Y0032954D01*
X0155902Y0037946D02*
X0158702Y0037946D01*
X0158702Y0038945D02*
X0155902Y0038945D01*
X0155747Y0039943D02*
X0155621Y0039943D01*
X0155102Y0040942D02*
X0154622Y0040942D01*
X0154547Y0041940D02*
X0153624Y0041940D01*
X0153517Y0042939D02*
X0152625Y0042939D01*
X0152486Y0043937D02*
X0151627Y0043937D01*
X0151455Y0044936D02*
X0150628Y0044936D01*
X0150424Y0045934D02*
X0149630Y0045934D01*
X0149394Y0046933D02*
X0148631Y0046933D01*
X0148363Y0047932D02*
X0147633Y0047932D01*
X0147332Y0048930D02*
X0146634Y0048930D01*
X0146302Y0049929D02*
X0145636Y0049929D01*
X0145271Y0050927D02*
X0144637Y0050927D01*
X0144240Y0051926D02*
X0143639Y0051926D01*
X0143209Y0052924D02*
X0142640Y0052924D01*
X0145747Y0054921D02*
X0151118Y0054921D01*
X0152116Y0053923D02*
X0146778Y0053923D01*
X0147808Y0052924D02*
X0153115Y0052924D01*
X0154113Y0051926D02*
X0148839Y0051926D01*
X0149870Y0050927D02*
X0155112Y0050927D01*
X0156110Y0049929D02*
X0150901Y0049929D01*
X0151931Y0048930D02*
X0157109Y0048930D01*
X0158107Y0047932D02*
X0152962Y0047932D01*
X0153993Y0046933D02*
X0159106Y0046933D01*
X0159702Y0045934D02*
X0155024Y0045934D01*
X0156054Y0044936D02*
X0159702Y0044936D01*
X0159702Y0043937D02*
X0157085Y0043937D01*
X0158974Y0042939D02*
X0159702Y0042939D01*
X0159702Y0041940D02*
X0159502Y0041940D01*
X0159502Y0040942D02*
X0159702Y0040942D01*
X0159482Y0039943D02*
X0158856Y0039943D01*
X0162011Y0037946D02*
X0172202Y0037946D01*
X0172202Y0038945D02*
X0162902Y0038945D01*
X0162902Y0039943D02*
X0172202Y0039943D01*
X0172202Y0040942D02*
X0162902Y0040942D01*
X0162902Y0041940D02*
X0172202Y0041940D01*
X0172202Y0042939D02*
X0162902Y0042939D01*
X0162902Y0043937D02*
X0172202Y0043937D01*
X0172202Y0044936D02*
X0162902Y0044936D01*
X0162902Y0045934D02*
X0172202Y0045934D01*
X0172202Y0046933D02*
X0162902Y0046933D01*
X0162633Y0047932D02*
X0172202Y0047932D01*
X0172202Y0048930D02*
X0161634Y0048930D01*
X0160636Y0049929D02*
X0172202Y0049929D01*
X0172202Y0050927D02*
X0159637Y0050927D01*
X0158639Y0051926D02*
X0172202Y0051926D01*
X0172202Y0052924D02*
X0169337Y0052924D01*
X0170002Y0053923D02*
X0172202Y0053923D01*
X0172202Y0054921D02*
X0170002Y0054921D01*
X0169493Y0055920D02*
X0172202Y0055920D01*
X0172202Y0056918D02*
X0157806Y0056918D01*
X0156765Y0057917D02*
X0172455Y0057917D01*
X0173454Y0058915D02*
X0155723Y0058915D01*
X0154682Y0059914D02*
X0174452Y0059914D01*
X0175451Y0060912D02*
X0154402Y0060912D01*
X0154402Y0061911D02*
X0184272Y0061911D01*
X0184286Y0061897D02*
X0185672Y0061323D01*
X0187172Y0061323D01*
X0188559Y0061897D01*
X0189619Y0062958D01*
X0190194Y0064344D01*
X0190194Y0065845D01*
X0189619Y0067231D01*
X0188559Y0068292D01*
X0187172Y0068866D01*
X0186249Y0068866D01*
X0186447Y0069064D01*
X0187102Y0070645D01*
X0187102Y0072355D01*
X0186447Y0073936D01*
X0185237Y0075145D01*
X0183657Y0075800D01*
X0181946Y0075800D01*
X0180366Y0075145D01*
X0179156Y0073936D01*
X0178502Y0072355D01*
X0178502Y0070645D01*
X0179156Y0069064D01*
X0180366Y0067855D01*
X0181946Y0067200D01*
X0183212Y0067200D01*
X0182650Y0065845D01*
X0182650Y0064344D01*
X0183225Y0062958D01*
X0184286Y0061897D01*
X0183273Y0062909D02*
X0154402Y0062909D01*
X0154402Y0063908D02*
X0182831Y0063908D01*
X0182650Y0064906D02*
X0154402Y0064906D01*
X0154402Y0065905D02*
X0182675Y0065905D01*
X0183089Y0066903D02*
X0154402Y0066903D01*
X0155284Y0067902D02*
X0160319Y0067902D01*
X0159320Y0068900D02*
X0156283Y0068900D01*
X0156793Y0069899D02*
X0158811Y0069899D01*
X0158502Y0070897D02*
X0157102Y0070897D01*
X0157102Y0071896D02*
X0158502Y0071896D01*
X0158725Y0072894D02*
X0156878Y0072894D01*
X0156465Y0073893D02*
X0159138Y0073893D01*
X0160112Y0074891D02*
X0155491Y0074891D01*
X0154402Y0075890D02*
X0161202Y0075890D01*
X0161202Y0076888D02*
X0153676Y0076888D01*
X0152677Y0077887D02*
X0160652Y0077887D01*
X0159653Y0078885D02*
X0151679Y0078885D01*
X0150680Y0079884D02*
X0158655Y0079884D01*
X0162182Y0080882D02*
X0170156Y0080882D01*
X0169158Y0081881D02*
X0161183Y0081881D01*
X0160185Y0082879D02*
X0168159Y0082879D01*
X0170688Y0084876D02*
X0189466Y0084876D01*
X0189052Y0085875D02*
X0169689Y0085875D01*
X0171686Y0083878D02*
X0190381Y0083878D01*
X0188916Y0086873D02*
X0149332Y0086873D01*
X0149802Y0087872D02*
X0188916Y0087872D01*
X0188916Y0088870D02*
X0149802Y0088870D01*
X0149802Y0089869D02*
X0188946Y0089869D01*
X0189360Y0090868D02*
X0149591Y0090868D01*
X0148592Y0091866D02*
X0190125Y0091866D01*
X0191793Y0092865D02*
X0147594Y0092865D01*
X0144009Y0092865D02*
X0137594Y0092865D01*
X0138592Y0091866D02*
X0143011Y0091866D01*
X0142012Y0090868D02*
X0139591Y0090868D01*
X0139802Y0089869D02*
X0141802Y0089869D01*
X0141802Y0088870D02*
X0139802Y0088870D01*
X0139802Y0087872D02*
X0141802Y0087872D01*
X0142271Y0086873D02*
X0139332Y0086873D01*
X0132271Y0086873D02*
X0129332Y0086873D01*
X0129802Y0087872D02*
X0131802Y0087872D01*
X0131802Y0088870D02*
X0129802Y0088870D01*
X0129802Y0089869D02*
X0131802Y0089869D01*
X0132012Y0090868D02*
X0129591Y0090868D01*
X0128592Y0091866D02*
X0133011Y0091866D01*
X0134009Y0092865D02*
X0127594Y0092865D01*
X0124009Y0092865D02*
X0117594Y0092865D01*
X0118592Y0091866D02*
X0123011Y0091866D01*
X0122012Y0090868D02*
X0119591Y0090868D01*
X0119802Y0089869D02*
X0121802Y0089869D01*
X0121802Y0088870D02*
X0119802Y0088870D01*
X0119802Y0087872D02*
X0121802Y0087872D01*
X0122271Y0086873D02*
X0119332Y0086873D01*
X0118333Y0085875D02*
X0123270Y0085875D01*
X0126162Y0084876D02*
X0118188Y0084876D01*
X0119186Y0083878D02*
X0127161Y0083878D01*
X0116658Y0081881D02*
X0108683Y0081881D01*
X0107902Y0082879D02*
X0115659Y0082879D01*
X0114702Y0083878D02*
X0107902Y0083878D01*
X0107902Y0084876D02*
X0114702Y0084876D01*
X0113270Y0085875D02*
X0108333Y0085875D01*
X0109332Y0086873D02*
X0112271Y0086873D01*
X0111802Y0087872D02*
X0109802Y0087872D01*
X0109802Y0088870D02*
X0111802Y0088870D01*
X0111802Y0089869D02*
X0109802Y0089869D01*
X0109591Y0090868D02*
X0112012Y0090868D01*
X0113011Y0091866D02*
X0108592Y0091866D01*
X0107594Y0092865D02*
X0114009Y0092865D01*
X0104009Y0092865D02*
X0100034Y0092865D01*
X0100002Y0092921D02*
X0099723Y0093200D01*
X0099381Y0093398D01*
X0098999Y0093500D01*
X0096302Y0093500D01*
X0096302Y0089500D01*
X0100302Y0089500D01*
X0100302Y0092197D01*
X0100199Y0092579D01*
X0100002Y0092921D01*
X0100302Y0091866D02*
X0103011Y0091866D01*
X0102012Y0090868D02*
X0100302Y0090868D01*
X0100302Y0089869D02*
X0101802Y0089869D01*
X0101802Y0088870D02*
X0096302Y0088870D01*
X0096302Y0088500D02*
X0096302Y0089500D01*
X0095302Y0089500D01*
X0095302Y0093500D01*
X0092604Y0093500D01*
X0092223Y0093398D01*
X0091881Y0093200D01*
X0091601Y0092921D01*
X0091404Y0092579D01*
X0091302Y0092197D01*
X0091302Y0089500D01*
X0095302Y0089500D01*
X0095302Y0088500D01*
X0096302Y0088500D01*
X0100302Y0088500D01*
X0100302Y0085803D01*
X0100199Y0085421D01*
X0100002Y0085079D01*
X0099723Y0084800D01*
X0099381Y0084602D01*
X0098999Y0084500D01*
X0096302Y0084500D01*
X0096302Y0088500D01*
X0096302Y0087872D02*
X0095302Y0087872D01*
X0095302Y0088500D02*
X0095302Y0084500D01*
X0092604Y0084500D01*
X0092223Y0084602D01*
X0091881Y0084800D01*
X0091601Y0085079D01*
X0091404Y0085421D01*
X0091302Y0085803D01*
X0091302Y0088500D01*
X0095302Y0088500D01*
X0095302Y0088870D02*
X0086802Y0088870D01*
X0086802Y0087872D02*
X0091302Y0087872D01*
X0091302Y0086873D02*
X0086332Y0086873D01*
X0086802Y0087343D02*
X0084458Y0085000D01*
X0081145Y0085000D01*
X0078802Y0087343D01*
X0078802Y0090657D01*
X0081145Y0093000D01*
X0084458Y0093000D01*
X0086802Y0090657D01*
X0086802Y0087343D01*
X0085333Y0085875D02*
X0091302Y0085875D01*
X0091804Y0084876D02*
X0078502Y0084876D01*
X0078038Y0085875D02*
X0080270Y0085875D01*
X0079271Y0086873D02*
X0074016Y0086873D01*
X0074088Y0086945D02*
X0075065Y0089305D01*
X0075065Y0091860D01*
X0074088Y0094220D01*
X0072281Y0096026D01*
X0069921Y0097004D01*
X0067367Y0097004D01*
X0065007Y0096026D01*
X0063200Y0094220D01*
X0062223Y0091860D01*
X0062223Y0089305D01*
X0063200Y0086945D01*
X0065007Y0085139D01*
X0067367Y0084161D01*
X0069921Y0084161D01*
X0072281Y0085139D01*
X0074088Y0086945D01*
X0074472Y0087872D02*
X0078802Y0087872D01*
X0078802Y0088870D02*
X0074885Y0088870D01*
X0075065Y0089869D02*
X0078802Y0089869D01*
X0079012Y0090868D02*
X0075065Y0090868D01*
X0075063Y0091866D02*
X0080011Y0091866D01*
X0081009Y0092865D02*
X0074649Y0092865D01*
X0074236Y0093863D02*
X0204845Y0093863D01*
X0204845Y0092865D02*
X0202409Y0092865D01*
X0204077Y0091866D02*
X0204891Y0091866D01*
X0204842Y0090868D02*
X0216152Y0090868D01*
X0216152Y0089869D02*
X0212341Y0089869D01*
X0214694Y0088870D02*
X0216152Y0088870D01*
X0215692Y0087872D02*
X0229417Y0087872D01*
X0229702Y0086873D02*
X0216691Y0086873D01*
X0218538Y0085875D02*
X0225815Y0085875D01*
X0225352Y0084876D02*
X0224036Y0084876D01*
X0224752Y0083878D02*
X0225352Y0083878D01*
X0224752Y0082879D02*
X0226061Y0082879D01*
X0229288Y0085875D02*
X0229702Y0085875D01*
X0221067Y0084876D02*
X0219002Y0084876D01*
X0219002Y0083878D02*
X0220352Y0083878D01*
X0220352Y0082879D02*
X0218292Y0082879D01*
X0216652Y0081881D02*
X0220809Y0081881D01*
X0220952Y0080882D02*
X0216652Y0080882D01*
X0216652Y0079884D02*
X0217074Y0079884D01*
X0220529Y0079884D02*
X0220952Y0079884D01*
X0217202Y0076888D02*
X0216652Y0076888D01*
X0216652Y0075890D02*
X0217202Y0075890D01*
X0217202Y0074891D02*
X0216652Y0074891D01*
X0216652Y0073893D02*
X0217202Y0073893D01*
X0213452Y0073893D02*
X0210802Y0073893D01*
X0210802Y0074891D02*
X0213452Y0074891D01*
X0213452Y0075890D02*
X0210802Y0075890D01*
X0213452Y0076888D02*
X0206176Y0076888D01*
X0205177Y0077887D02*
X0213452Y0077887D01*
X0213452Y0078885D02*
X0204179Y0078885D01*
X0204645Y0079603D02*
X0204924Y0079323D01*
X0205266Y0079126D01*
X0205647Y0079024D01*
X0208313Y0079024D01*
X0208313Y0081811D01*
X0204345Y0081811D01*
X0204345Y0080326D01*
X0204447Y0079945D01*
X0204645Y0079603D01*
X0204482Y0079884D02*
X0203502Y0079884D01*
X0203030Y0080882D02*
X0204345Y0080882D01*
X0204345Y0082386D02*
X0208313Y0082386D01*
X0208313Y0081811D01*
X0208888Y0081811D01*
X0208888Y0079024D01*
X0211554Y0079024D01*
X0211936Y0079126D01*
X0212278Y0079323D01*
X0212557Y0079603D01*
X0212754Y0079945D01*
X0212857Y0080326D01*
X0212857Y0081811D01*
X0208888Y0081811D01*
X0208888Y0082386D01*
X0208313Y0082386D01*
X0208313Y0085173D01*
X0205647Y0085173D01*
X0205266Y0085071D01*
X0204924Y0084874D01*
X0204645Y0084594D01*
X0204447Y0084252D01*
X0204345Y0083871D01*
X0204345Y0082386D01*
X0204345Y0082879D02*
X0172685Y0082879D01*
X0173683Y0081881D02*
X0208313Y0081881D01*
X0208888Y0081881D02*
X0213452Y0081881D01*
X0212857Y0082386D02*
X0212857Y0083871D01*
X0212754Y0084252D01*
X0212557Y0084594D01*
X0212278Y0084874D01*
X0211936Y0085071D01*
X0211554Y0085173D01*
X0208888Y0085173D01*
X0208888Y0082386D01*
X0212857Y0082386D01*
X0212857Y0082879D02*
X0213452Y0082879D01*
X0213917Y0083878D02*
X0212855Y0083878D01*
X0212273Y0084876D02*
X0214162Y0084876D01*
X0213164Y0085875D02*
X0212205Y0085875D01*
X0208888Y0084876D02*
X0208313Y0084876D01*
X0208313Y0083878D02*
X0208888Y0083878D01*
X0208888Y0082879D02*
X0208313Y0082879D01*
X0204929Y0084876D02*
X0204736Y0084876D01*
X0204347Y0083878D02*
X0203821Y0083878D01*
X0199573Y0080882D02*
X0174402Y0080882D01*
X0174402Y0079884D02*
X0199102Y0079884D01*
X0199102Y0078885D02*
X0174402Y0078885D01*
X0174402Y0077887D02*
X0199803Y0077887D01*
X0201650Y0076888D02*
X0174402Y0076888D01*
X0174402Y0075890D02*
X0202649Y0075890D01*
X0202802Y0074891D02*
X0195491Y0074891D01*
X0195237Y0075145D02*
X0193657Y0075800D01*
X0191946Y0075800D01*
X0190366Y0075145D01*
X0189156Y0073936D01*
X0188502Y0072355D01*
X0188502Y0070645D01*
X0189156Y0069064D01*
X0190366Y0067855D01*
X0191946Y0067200D01*
X0193657Y0067200D01*
X0195237Y0067855D01*
X0196447Y0069064D01*
X0197102Y0070645D01*
X0197102Y0072355D01*
X0196447Y0073936D01*
X0195237Y0075145D01*
X0196465Y0073893D02*
X0202802Y0073893D01*
X0202802Y0072894D02*
X0196878Y0072894D01*
X0197102Y0071896D02*
X0202802Y0071896D01*
X0202802Y0070897D02*
X0197102Y0070897D01*
X0196793Y0069899D02*
X0202802Y0069899D01*
X0202938Y0068900D02*
X0196283Y0068900D01*
X0195284Y0067902D02*
X0202802Y0067902D01*
X0202802Y0066903D02*
X0189755Y0066903D01*
X0190169Y0065905D02*
X0200444Y0065905D01*
X0199445Y0064906D02*
X0190194Y0064906D01*
X0190013Y0063908D02*
X0198447Y0063908D01*
X0197448Y0062909D02*
X0189571Y0062909D01*
X0188572Y0061911D02*
X0196450Y0061911D01*
X0200975Y0061911D02*
X0202827Y0061911D01*
X0210802Y0063908D02*
X0213283Y0063908D01*
X0212852Y0064906D02*
X0210802Y0064906D01*
X0210802Y0065905D02*
X0212852Y0065905D01*
X0213452Y0066903D02*
X0210802Y0066903D01*
X0210802Y0067902D02*
X0213452Y0067902D01*
X0213452Y0068900D02*
X0210666Y0068900D01*
X0210802Y0069899D02*
X0213452Y0069899D01*
X0213452Y0070897D02*
X0210802Y0070897D01*
X0210802Y0071896D02*
X0213452Y0071896D01*
X0213452Y0072894D02*
X0210802Y0072894D01*
X0208888Y0079884D02*
X0208313Y0079884D01*
X0208313Y0080882D02*
X0208888Y0080882D01*
X0212719Y0079884D02*
X0213452Y0079884D01*
X0213452Y0080882D02*
X0212857Y0080882D01*
X0190112Y0074891D02*
X0185491Y0074891D01*
X0186465Y0073893D02*
X0189138Y0073893D01*
X0188725Y0072894D02*
X0186878Y0072894D01*
X0187102Y0071896D02*
X0188502Y0071896D01*
X0188502Y0070897D02*
X0187102Y0070897D01*
X0186793Y0069899D02*
X0188811Y0069899D01*
X0189320Y0068900D02*
X0186283Y0068900D01*
X0188949Y0067902D02*
X0190319Y0067902D01*
X0180319Y0067902D02*
X0175284Y0067902D01*
X0176283Y0068900D02*
X0179320Y0068900D01*
X0178811Y0069899D02*
X0176793Y0069899D01*
X0177102Y0070897D02*
X0178502Y0070897D01*
X0178502Y0071896D02*
X0177102Y0071896D01*
X0176878Y0072894D02*
X0178725Y0072894D01*
X0179138Y0073893D02*
X0176465Y0073893D01*
X0175491Y0074891D02*
X0180112Y0074891D01*
X0171202Y0075890D02*
X0164402Y0075890D01*
X0164402Y0076888D02*
X0171202Y0076888D01*
X0171202Y0077887D02*
X0164402Y0077887D01*
X0164179Y0078885D02*
X0171202Y0078885D01*
X0171155Y0079884D02*
X0163180Y0079884D01*
X0165491Y0074891D02*
X0170112Y0074891D01*
X0169138Y0073893D02*
X0166465Y0073893D01*
X0166878Y0072894D02*
X0168725Y0072894D01*
X0168502Y0071896D02*
X0167102Y0071896D01*
X0167102Y0070897D02*
X0168502Y0070897D01*
X0168811Y0069899D02*
X0166793Y0069899D01*
X0166283Y0068900D02*
X0169320Y0068900D01*
X0170319Y0067902D02*
X0165284Y0067902D01*
X0146125Y0059914D02*
X0136651Y0059914D01*
X0137649Y0058915D02*
X0147124Y0058915D01*
X0148122Y0057917D02*
X0142655Y0057917D01*
X0143686Y0056918D02*
X0149121Y0056918D01*
X0150119Y0055920D02*
X0144716Y0055920D01*
X0145127Y0060912D02*
X0135652Y0060912D01*
X0134654Y0061911D02*
X0137028Y0061911D01*
X0136029Y0062909D02*
X0133655Y0062909D01*
X0132657Y0063908D02*
X0135587Y0063908D01*
X0135406Y0064906D02*
X0131658Y0064906D01*
X0130660Y0065905D02*
X0135431Y0065905D01*
X0135845Y0066903D02*
X0129661Y0066903D01*
X0130319Y0067902D02*
X0128663Y0067902D01*
X0129320Y0068900D02*
X0127664Y0068900D01*
X0126793Y0069899D02*
X0128811Y0069899D01*
X0128502Y0070897D02*
X0127102Y0070897D01*
X0127102Y0071896D02*
X0128502Y0071896D01*
X0128725Y0072894D02*
X0126878Y0072894D01*
X0126465Y0073893D02*
X0129138Y0073893D01*
X0130112Y0074891D02*
X0125491Y0074891D01*
X0120112Y0074891D02*
X0116198Y0074891D01*
X0116970Y0073893D02*
X0119138Y0073893D01*
X0118725Y0072894D02*
X0117396Y0072894D01*
X0118502Y0071896D02*
X0113286Y0071896D01*
X0113286Y0071016D02*
X0117585Y0071016D01*
X0117483Y0070376D01*
X0117250Y0069657D01*
X0116907Y0068984D01*
X0116463Y0068373D01*
X0115929Y0067839D01*
X0115317Y0067395D01*
X0114644Y0067052D01*
X0113926Y0066818D01*
X0113286Y0066717D01*
X0113286Y0071016D01*
X0113286Y0070897D02*
X0112317Y0070897D01*
X0112317Y0069899D02*
X0113286Y0069899D01*
X0113286Y0068900D02*
X0112317Y0068900D01*
X0112317Y0067902D02*
X0113286Y0067902D01*
X0113286Y0066903D02*
X0112317Y0066903D01*
X0111416Y0066903D02*
X0060302Y0066903D01*
X0060302Y0065905D02*
X0126134Y0065905D01*
X0125136Y0066903D02*
X0114187Y0066903D01*
X0115992Y0067902D02*
X0120319Y0067902D01*
X0119320Y0068900D02*
X0116846Y0068900D01*
X0117328Y0069899D02*
X0118811Y0069899D01*
X0118502Y0070897D02*
X0117566Y0070897D01*
X0112317Y0071896D02*
X0107102Y0071896D01*
X0107102Y0070897D02*
X0108037Y0070897D01*
X0108275Y0069899D02*
X0106793Y0069899D01*
X0106283Y0068900D02*
X0108757Y0068900D01*
X0109612Y0067902D02*
X0105284Y0067902D01*
X0100319Y0067902D02*
X0095284Y0067902D01*
X0096283Y0068900D02*
X0099320Y0068900D01*
X0098811Y0069899D02*
X0096793Y0069899D01*
X0097102Y0070897D02*
X0098502Y0070897D01*
X0098502Y0071896D02*
X0097102Y0071896D01*
X0096878Y0072894D02*
X0098725Y0072894D01*
X0099138Y0073893D02*
X0096465Y0073893D01*
X0095491Y0074891D02*
X0100112Y0074891D01*
X0105491Y0074891D02*
X0109405Y0074891D01*
X0108634Y0073893D02*
X0106465Y0073893D01*
X0106878Y0072894D02*
X0108208Y0072894D01*
X0107153Y0078885D02*
X0084179Y0078885D01*
X0083180Y0079884D02*
X0106155Y0079884D01*
X0105156Y0080882D02*
X0082182Y0080882D01*
X0081183Y0081881D02*
X0104702Y0081881D01*
X0104702Y0082879D02*
X0080185Y0082879D01*
X0079186Y0083878D02*
X0104702Y0083878D01*
X0104702Y0084876D02*
X0099799Y0084876D01*
X0100302Y0085875D02*
X0103270Y0085875D01*
X0102271Y0086873D02*
X0100302Y0086873D01*
X0100302Y0087872D02*
X0101802Y0087872D01*
X0096302Y0086873D02*
X0095302Y0086873D01*
X0095302Y0085875D02*
X0096302Y0085875D01*
X0096302Y0084876D02*
X0095302Y0084876D01*
X0095302Y0089869D02*
X0096302Y0089869D01*
X0096302Y0090868D02*
X0095302Y0090868D01*
X0095302Y0091866D02*
X0096302Y0091866D01*
X0096302Y0092865D02*
X0095302Y0092865D01*
X0091569Y0092865D02*
X0084594Y0092865D01*
X0085592Y0091866D02*
X0091302Y0091866D01*
X0091302Y0090868D02*
X0086591Y0090868D01*
X0086802Y0089869D02*
X0091302Y0089869D01*
X0074565Y0085875D02*
X0073017Y0085875D01*
X0074102Y0084876D02*
X0071648Y0084876D01*
X0074102Y0083878D02*
X0060302Y0083878D01*
X0060302Y0084876D02*
X0065641Y0084876D01*
X0064271Y0085875D02*
X0060302Y0085875D01*
X0060302Y0086873D02*
X0063272Y0086873D01*
X0062817Y0087872D02*
X0060302Y0087872D01*
X0060302Y0088870D02*
X0062403Y0088870D01*
X0062223Y0089869D02*
X0060302Y0089869D01*
X0060302Y0090868D02*
X0062223Y0090868D01*
X0062225Y0091866D02*
X0060302Y0091866D01*
X0060302Y0092865D02*
X0062639Y0092865D01*
X0063053Y0093863D02*
X0060302Y0093863D01*
X0060302Y0094862D02*
X0063842Y0094862D01*
X0064840Y0095860D02*
X0060302Y0095860D01*
X0060302Y0096859D02*
X0067016Y0096859D01*
X0070272Y0096859D02*
X0285520Y0096859D01*
X0283344Y0095860D02*
X0231006Y0095860D01*
X0231452Y0094862D02*
X0282346Y0094862D01*
X0288776Y0096859D02*
X0294506Y0096859D01*
X0294506Y0095860D02*
X0290952Y0095860D01*
X0291950Y0094862D02*
X0294506Y0094862D01*
X0294506Y0093863D02*
X0292740Y0093863D01*
X0293153Y0092865D02*
X0294506Y0092865D01*
X0294506Y0091866D02*
X0293567Y0091866D01*
X0293569Y0090868D02*
X0294506Y0090868D01*
X0294506Y0089869D02*
X0293569Y0089869D01*
X0293389Y0088870D02*
X0294506Y0088870D01*
X0294506Y0087872D02*
X0292976Y0087872D01*
X0292520Y0086873D02*
X0294506Y0086873D01*
X0294506Y0085875D02*
X0291521Y0085875D01*
X0290152Y0084876D02*
X0294506Y0084876D01*
X0294506Y0083878D02*
X0269186Y0083878D01*
X0268188Y0084876D02*
X0284145Y0084876D01*
X0282775Y0085875D02*
X0267902Y0085875D01*
X0267902Y0086873D02*
X0281776Y0086873D01*
X0281321Y0087872D02*
X0267902Y0087872D01*
X0267902Y0088870D02*
X0280907Y0088870D01*
X0280727Y0089869D02*
X0267902Y0089869D01*
X0264702Y0089869D02*
X0243752Y0089869D01*
X0243752Y0088870D02*
X0264702Y0088870D01*
X0264702Y0087872D02*
X0243285Y0087872D01*
X0243152Y0086873D02*
X0264702Y0086873D01*
X0264702Y0085875D02*
X0243152Y0085875D01*
X0243152Y0084876D02*
X0264702Y0084876D01*
X0264702Y0083878D02*
X0257253Y0083878D01*
X0259138Y0082879D02*
X0265659Y0082879D01*
X0266420Y0081881D02*
X0260137Y0081881D01*
X0251728Y0083878D02*
X0243152Y0083878D01*
X0243152Y0082879D02*
X0249843Y0082879D01*
X0248844Y0081881D02*
X0243152Y0081881D01*
X0243045Y0090868D02*
X0264323Y0090868D01*
X0278185Y0082879D02*
X0294506Y0082879D01*
X0294506Y0081881D02*
X0279183Y0081881D01*
X0278402Y0082663D02*
X0278402Y0082663D01*
X0290102Y0075890D02*
X0294506Y0075890D01*
X0294506Y0076888D02*
X0292602Y0076888D01*
X0292602Y0077887D02*
X0294506Y0077887D01*
X0294506Y0078885D02*
X0292602Y0078885D01*
X0292602Y0079884D02*
X0294506Y0079884D01*
X0294506Y0080882D02*
X0292292Y0080882D01*
X0290102Y0074891D02*
X0294506Y0074891D01*
X0294506Y0073893D02*
X0290102Y0073893D01*
X0292982Y0072894D02*
X0294506Y0072894D01*
X0294506Y0071896D02*
X0293102Y0071896D01*
X0294506Y0070897D02*
X0290102Y0070897D01*
X0293102Y0069899D02*
X0294506Y0069899D01*
X0294506Y0068900D02*
X0293102Y0068900D01*
X0292540Y0067902D02*
X0294506Y0067902D01*
X0294506Y0066903D02*
X0290102Y0066903D01*
X0290102Y0065905D02*
X0294506Y0065905D01*
X0294506Y0064906D02*
X0292521Y0064906D01*
X0292602Y0063908D02*
X0294506Y0063908D01*
X0294506Y0062909D02*
X0292602Y0062909D01*
X0292602Y0061911D02*
X0294506Y0061911D01*
X0294506Y0060912D02*
X0292602Y0060912D01*
X0294506Y0059914D02*
X0290102Y0059914D01*
X0290102Y0058915D02*
X0294506Y0058915D01*
X0294506Y0057917D02*
X0290102Y0057917D01*
X0292602Y0056918D02*
X0294506Y0056918D01*
X0294506Y0055920D02*
X0292602Y0055920D01*
X0292602Y0054921D02*
X0294506Y0054921D01*
X0294506Y0053923D02*
X0292602Y0053923D01*
X0292602Y0052924D02*
X0294506Y0052924D01*
X0294506Y0051926D02*
X0290102Y0051926D01*
X0290102Y0050927D02*
X0294506Y0050927D01*
X0294506Y0049929D02*
X0290102Y0049929D01*
X0292602Y0048930D02*
X0294506Y0048930D01*
X0294506Y0047932D02*
X0292602Y0047932D01*
X0292602Y0046933D02*
X0294506Y0046933D01*
X0294506Y0045934D02*
X0292602Y0045934D01*
X0292489Y0044936D02*
X0294506Y0044936D01*
X0294506Y0043937D02*
X0290102Y0043937D01*
X0290102Y0042939D02*
X0294506Y0042939D01*
X0294506Y0041940D02*
X0290102Y0041940D01*
X0292602Y0040942D02*
X0294506Y0040942D01*
X0294506Y0039943D02*
X0292602Y0039943D01*
X0292602Y0038945D02*
X0294506Y0038945D01*
X0294506Y0037946D02*
X0292602Y0037946D01*
X0292375Y0036948D02*
X0294506Y0036948D01*
X0294506Y0035949D02*
X0290102Y0035949D01*
X0290102Y0034951D02*
X0294506Y0034951D01*
X0294506Y0033952D02*
X0290102Y0033952D01*
X0292602Y0032954D02*
X0294506Y0032954D01*
X0294506Y0031955D02*
X0292602Y0031955D01*
X0292602Y0030957D02*
X0294506Y0030957D01*
X0294506Y0029958D02*
X0292602Y0029958D01*
X0292261Y0028960D02*
X0294506Y0028960D01*
X0294506Y0027961D02*
X0290102Y0027961D01*
X0290102Y0026963D02*
X0294506Y0026963D01*
X0294506Y0025964D02*
X0292092Y0025964D01*
X0292602Y0024966D02*
X0294506Y0024966D01*
X0294506Y0023967D02*
X0292602Y0023967D01*
X0292602Y0022969D02*
X0294506Y0022969D01*
X0294506Y0021970D02*
X0292602Y0021970D01*
X0292147Y0020972D02*
X0294506Y0020972D01*
X0294506Y0019973D02*
X0271402Y0019973D01*
X0271402Y0018975D02*
X0294506Y0018975D01*
X0294506Y0017976D02*
X0289120Y0017976D01*
X0291094Y0016978D02*
X0294506Y0016978D01*
X0294506Y0015979D02*
X0292092Y0015979D01*
X0292798Y0014981D02*
X0294506Y0014981D01*
X0294506Y0013982D02*
X0293212Y0013982D01*
X0293569Y0012984D02*
X0294506Y0012984D01*
X0294506Y0011985D02*
X0293569Y0011985D01*
X0293569Y0010987D02*
X0294506Y0010987D01*
X0294506Y0009988D02*
X0293330Y0009988D01*
X0292917Y0008990D02*
X0294506Y0008990D01*
X0294506Y0007991D02*
X0292378Y0007991D01*
X0291379Y0006993D02*
X0294506Y0006993D01*
X0293820Y0003997D02*
X0061035Y0003997D01*
X0071304Y0005994D02*
X0147762Y0005994D01*
X0130229Y0007991D02*
X0125374Y0007991D01*
X0125237Y0007855D02*
X0126447Y0009064D01*
X0127102Y0010645D01*
X0127102Y0012355D01*
X0126447Y0013936D01*
X0125237Y0015145D01*
X0123657Y0015800D01*
X0121946Y0015800D01*
X0120366Y0015145D01*
X0119156Y0013936D01*
X0118502Y0012355D01*
X0118502Y0010645D01*
X0119156Y0009064D01*
X0120366Y0007855D01*
X0121946Y0007200D01*
X0123657Y0007200D01*
X0125237Y0007855D01*
X0126372Y0008990D02*
X0129231Y0008990D01*
X0128774Y0009988D02*
X0126830Y0009988D01*
X0127102Y0010987D02*
X0128502Y0010987D01*
X0128502Y0011985D02*
X0127102Y0011985D01*
X0126841Y0012984D02*
X0128762Y0012984D01*
X0129203Y0013982D02*
X0126401Y0013982D01*
X0125402Y0014981D02*
X0130201Y0014981D01*
X0125055Y0018975D02*
X0119299Y0018975D01*
X0120481Y0019973D02*
X0123872Y0019973D01*
X0123259Y0020972D02*
X0121094Y0020972D01*
X0121477Y0021970D02*
X0122877Y0021970D01*
X0122877Y0022969D02*
X0121477Y0022969D01*
X0121327Y0023967D02*
X0123027Y0023967D01*
X0123440Y0024966D02*
X0120913Y0024966D01*
X0120043Y0025964D02*
X0124310Y0025964D01*
X0110102Y0025964D02*
X0109502Y0025964D01*
X0109502Y0024966D02*
X0110102Y0024966D01*
X0110102Y0026963D02*
X0109502Y0026963D01*
X0109502Y0027961D02*
X0110102Y0027961D01*
X0110102Y0028960D02*
X0109502Y0028960D01*
X0109502Y0029958D02*
X0110102Y0029958D01*
X0110102Y0030957D02*
X0109502Y0030957D01*
X0109502Y0031955D02*
X0110102Y0031955D01*
X0107752Y0031955D02*
X0092302Y0031955D01*
X0096326Y0029822D02*
X0095702Y0028316D01*
X0095702Y0026684D01*
X0096326Y0025178D01*
X0097479Y0024024D01*
X0098986Y0023400D01*
X0100617Y0023400D01*
X0102124Y0024024D01*
X0103277Y0025178D01*
X0103902Y0026684D01*
X0103902Y0028316D01*
X0103277Y0029822D01*
X0102124Y0030976D01*
X0100617Y0031600D01*
X0098986Y0031600D01*
X0097479Y0030976D01*
X0096326Y0029822D01*
X0096462Y0029958D02*
X0078149Y0029958D01*
X0078562Y0028960D02*
X0095968Y0028960D01*
X0095702Y0027961D02*
X0078809Y0027961D01*
X0078809Y0026963D02*
X0095702Y0026963D01*
X0096000Y0025964D02*
X0078557Y0025964D01*
X0078144Y0024966D02*
X0096538Y0024966D01*
X0097617Y0023967D02*
X0077172Y0023967D01*
X0075205Y0022969D02*
X0066414Y0022969D01*
X0075236Y0031955D02*
X0080235Y0031955D01*
X0081233Y0030957D02*
X0077185Y0030957D01*
X0083370Y0030957D02*
X0097460Y0030957D01*
X0102143Y0030957D02*
X0106753Y0030957D01*
X0105755Y0029958D02*
X0103142Y0029958D01*
X0103635Y0028960D02*
X0105202Y0028960D01*
X0105202Y0027961D02*
X0103902Y0027961D01*
X0103902Y0026963D02*
X0105202Y0026963D01*
X0105202Y0025964D02*
X0103603Y0025964D01*
X0103066Y0024966D02*
X0105830Y0024966D01*
X0106829Y0023967D02*
X0101987Y0023967D01*
X0115402Y0014981D02*
X0120201Y0014981D01*
X0119203Y0013982D02*
X0116401Y0013982D01*
X0116841Y0012984D02*
X0118762Y0012984D01*
X0118502Y0011985D02*
X0117102Y0011985D01*
X0117102Y0010987D02*
X0118502Y0010987D01*
X0118774Y0009988D02*
X0116830Y0009988D01*
X0116372Y0008990D02*
X0119231Y0008990D01*
X0120229Y0007991D02*
X0115374Y0007991D01*
X0157126Y0028960D02*
X0157478Y0028960D01*
X0163126Y0028960D02*
X0163478Y0028960D01*
X0169126Y0028960D02*
X0174702Y0028960D01*
X0174702Y0029958D02*
X0169602Y0029958D01*
X0169602Y0030957D02*
X0174702Y0030957D01*
X0174702Y0031955D02*
X0171020Y0031955D01*
X0172018Y0032954D02*
X0174702Y0032954D01*
X0174702Y0033952D02*
X0173017Y0033952D01*
X0174015Y0034951D02*
X0174702Y0034951D01*
X0171487Y0036948D02*
X0169218Y0036948D01*
X0169602Y0035949D02*
X0170488Y0035949D01*
X0163385Y0036948D02*
X0163218Y0036948D01*
X0157385Y0036948D02*
X0157218Y0036948D01*
X0137002Y0042939D02*
X0117852Y0042939D01*
X0118502Y0043937D02*
X0137002Y0043937D01*
X0137002Y0044936D02*
X0119000Y0044936D01*
X0121446Y0045934D02*
X0136756Y0045934D01*
X0136602Y0046933D02*
X0121691Y0046933D01*
X0121691Y0047932D02*
X0136622Y0047932D01*
X0137620Y0048930D02*
X0121691Y0048930D01*
X0141328Y0061911D02*
X0144128Y0061911D01*
X0143130Y0062909D02*
X0142327Y0062909D01*
X0136651Y0067902D02*
X0135284Y0067902D01*
X0136283Y0068900D02*
X0139320Y0068900D01*
X0138811Y0069899D02*
X0136793Y0069899D01*
X0137102Y0070897D02*
X0138502Y0070897D01*
X0138502Y0071896D02*
X0137102Y0071896D01*
X0136878Y0072894D02*
X0138725Y0072894D01*
X0139138Y0073893D02*
X0136465Y0073893D01*
X0135491Y0074891D02*
X0140112Y0074891D01*
X0175982Y0056918D02*
X0176957Y0056918D01*
X0175958Y0055920D02*
X0175402Y0055920D01*
X0185344Y0047932D02*
X0194107Y0047932D01*
X0195106Y0046933D02*
X0184346Y0046933D01*
X0182902Y0045934D02*
X0196104Y0045934D01*
X0195790Y0044936D02*
X0197103Y0044936D01*
X0197165Y0043937D02*
X0198101Y0043937D01*
X0197771Y0042939D02*
X0199100Y0042939D01*
X0199702Y0041940D02*
X0198068Y0041940D01*
X0198068Y0040942D02*
X0199702Y0040942D01*
X0199702Y0039943D02*
X0197745Y0039943D01*
X0197102Y0038945D02*
X0199702Y0038945D01*
X0209102Y0038945D02*
X0209502Y0038945D01*
X0209502Y0037946D02*
X0209102Y0037946D01*
X0209102Y0036948D02*
X0209502Y0036948D01*
X0209502Y0035949D02*
X0209102Y0035949D01*
X0209102Y0034951D02*
X0209673Y0034951D01*
X0214502Y0034951D02*
X0215102Y0034951D01*
X0215102Y0035949D02*
X0214502Y0035949D01*
X0214502Y0036948D02*
X0215102Y0036948D01*
X0215102Y0037946D02*
X0214502Y0037946D01*
X0214502Y0038945D02*
X0215102Y0038945D01*
X0215102Y0039943D02*
X0214502Y0039943D01*
X0209974Y0039943D02*
X0209106Y0039943D01*
X0192802Y0044936D02*
X0182902Y0044936D01*
X0189152Y0034951D02*
X0190171Y0034951D01*
X0189173Y0033952D02*
X0189152Y0033952D01*
X0174011Y0020972D02*
X0172344Y0020972D01*
X0171731Y0019973D02*
X0173012Y0019973D01*
X0172014Y0018975D02*
X0170549Y0018975D01*
X0238483Y0012984D02*
X0242207Y0012984D01*
X0259054Y0012984D02*
X0263550Y0012984D01*
X0263550Y0011985D02*
X0259054Y0011985D01*
X0259054Y0010987D02*
X0263550Y0010987D01*
X0263550Y0009988D02*
X0259054Y0009988D01*
X0259054Y0008990D02*
X0263550Y0008990D01*
X0263550Y0007991D02*
X0259054Y0007991D01*
X0259054Y0006993D02*
X0263550Y0006993D01*
X0263550Y0005994D02*
X0259054Y0005994D01*
X0272002Y0014981D02*
X0281498Y0014981D01*
X0282204Y0015979D02*
X0272002Y0015979D01*
X0271685Y0016978D02*
X0283202Y0016978D01*
X0285176Y0017976D02*
X0271402Y0017976D01*
X0227502Y0046933D02*
X0227383Y0046933D01*
X0227390Y0051926D02*
X0227502Y0051926D01*
X0216152Y0094862D02*
X0212357Y0094862D01*
X0212357Y0095860D02*
X0216597Y0095860D01*
X0223706Y0095860D02*
X0223897Y0095860D01*
X0204845Y0095860D02*
X0072448Y0095860D01*
X0073446Y0094862D02*
X0204845Y0094862D01*
X0292929Y0098856D02*
X0061797Y0098856D01*
X0060594Y0097857D02*
X0294238Y0097857D01*
X0090112Y0074891D02*
X0085491Y0074891D01*
X0086465Y0073893D02*
X0089138Y0073893D01*
X0088725Y0072894D02*
X0086878Y0072894D01*
X0087102Y0071896D02*
X0088502Y0071896D01*
X0088502Y0070897D02*
X0087102Y0070897D01*
X0086793Y0069899D02*
X0088811Y0069899D01*
X0089320Y0068900D02*
X0086283Y0068900D01*
X0085284Y0067902D02*
X0090319Y0067902D01*
X0080319Y0067902D02*
X0060302Y0067902D01*
X0060302Y0068900D02*
X0079320Y0068900D01*
X0078811Y0069899D02*
X0077041Y0069899D01*
X0078039Y0070897D02*
X0078502Y0070897D01*
X0078809Y0073893D02*
X0079138Y0073893D01*
X0078617Y0074891D02*
X0080112Y0074891D01*
X0078203Y0075890D02*
X0082649Y0075890D01*
X0081650Y0076888D02*
X0077317Y0076888D01*
X0075554Y0077887D02*
X0080652Y0077887D01*
X0079653Y0078885D02*
X0060302Y0078885D01*
X0060302Y0077887D02*
X0066065Y0077887D01*
X0064302Y0076888D02*
X0060302Y0076888D01*
X0060302Y0075890D02*
X0063416Y0075890D01*
X0063002Y0074891D02*
X0060302Y0074891D01*
X0060302Y0073893D02*
X0062809Y0073893D01*
X0062809Y0072894D02*
X0060302Y0072894D01*
X0060302Y0071896D02*
X0063116Y0071896D01*
X0063580Y0070897D02*
X0060302Y0070897D01*
X0060302Y0069899D02*
X0064578Y0069899D01*
X0060302Y0079884D02*
X0078655Y0079884D01*
X0077656Y0080882D02*
X0060302Y0080882D01*
X0060302Y0081881D02*
X0076658Y0081881D01*
X0074811Y0082879D02*
X0060302Y0082879D01*
D33*
X0138802Y0047000D02*
X0138802Y0034500D01*
X0131302Y0035500D02*
X0129802Y0035500D01*
X0093302Y0035500D01*
X0090802Y0033000D01*
X0082302Y0033000D01*
X0131302Y0035500D02*
X0147802Y0019500D01*
X0147802Y0008500D01*
X0149802Y0006500D01*
X0205802Y0006500D01*
X0208802Y0009500D01*
X0215337Y0009500D01*
X0221426Y0018875D02*
X0230802Y0009500D01*
X0232266Y0009500D01*
X0221426Y0018875D02*
X0207302Y0018875D01*
X0207302Y0030500D02*
X0207302Y0041250D01*
D34*
X0138802Y0047000D03*
X0138802Y0034500D03*
M02*
