G75*
%MOIN*%
%OFA0B0*%
%FSLAX25Y25*%
%IPPOS*%
%LPD*%
%AMOC8*
5,1,8,0,0,1.08239X$1,22.5*
%
%ADD10C,0.00000*%
D10*
X0058802Y0005150D02*
X0058802Y0096488D01*
X0058791Y0096607D01*
X0058783Y0096726D01*
X0058780Y0096845D01*
X0058781Y0096964D01*
X0058786Y0097083D01*
X0058794Y0097202D01*
X0058807Y0097320D01*
X0058824Y0097438D01*
X0058844Y0097556D01*
X0058869Y0097672D01*
X0058897Y0097788D01*
X0058929Y0097903D01*
X0058965Y0098016D01*
X0059005Y0098129D01*
X0059049Y0098240D01*
X0059096Y0098349D01*
X0059147Y0098457D01*
X0059201Y0098563D01*
X0059259Y0098667D01*
X0059320Y0098769D01*
X0059385Y0098869D01*
X0059453Y0098967D01*
X0059524Y0099062D01*
X0059599Y0099155D01*
X0059676Y0099246D01*
X0059757Y0099334D01*
X0059840Y0099419D01*
X0059926Y0099501D01*
X0060015Y0099580D01*
X0060107Y0099657D01*
X0060201Y0099730D01*
X0060297Y0099800D01*
X0060396Y0099867D01*
X0060496Y0099930D01*
X0060599Y0099990D01*
X0060704Y0100047D01*
X0060811Y0100100D01*
X0060919Y0100149D01*
X0061029Y0100195D01*
X0061141Y0100237D01*
X0061253Y0100276D01*
X0061367Y0100310D01*
X0061483Y0100341D01*
X0061599Y0100368D01*
X0061716Y0100391D01*
X0061833Y0100410D01*
X0061951Y0100425D01*
X0292069Y0100425D01*
X0292185Y0100436D01*
X0292302Y0100443D01*
X0292419Y0100447D01*
X0292535Y0100446D01*
X0292652Y0100442D01*
X0292768Y0100434D01*
X0292884Y0100422D01*
X0293000Y0100406D01*
X0293115Y0100387D01*
X0293229Y0100364D01*
X0293343Y0100337D01*
X0293455Y0100306D01*
X0293567Y0100272D01*
X0293677Y0100234D01*
X0293786Y0100192D01*
X0293894Y0100147D01*
X0294000Y0100099D01*
X0294104Y0100047D01*
X0294207Y0099991D01*
X0294308Y0099933D01*
X0294406Y0099871D01*
X0294503Y0099805D01*
X0294598Y0099737D01*
X0294690Y0099666D01*
X0294780Y0099591D01*
X0294867Y0099514D01*
X0294952Y0099434D01*
X0295034Y0099351D01*
X0295114Y0099266D01*
X0295190Y0099178D01*
X0295264Y0099087D01*
X0295335Y0098995D01*
X0295402Y0098899D01*
X0295467Y0098802D01*
X0295528Y0098703D01*
X0295586Y0098602D01*
X0295640Y0098499D01*
X0295692Y0098394D01*
X0295739Y0098287D01*
X0295784Y0098179D01*
X0295824Y0098070D01*
X0295861Y0097959D01*
X0295895Y0097848D01*
X0295924Y0097735D01*
X0295951Y0097621D01*
X0295973Y0097507D01*
X0295991Y0097391D01*
X0296006Y0097276D01*
X0296006Y0005937D01*
X0296017Y0005821D01*
X0296024Y0005704D01*
X0296028Y0005587D01*
X0296027Y0005471D01*
X0296023Y0005354D01*
X0296015Y0005238D01*
X0296003Y0005122D01*
X0295987Y0005006D01*
X0295968Y0004891D01*
X0295945Y0004777D01*
X0295918Y0004663D01*
X0295887Y0004551D01*
X0295853Y0004439D01*
X0295815Y0004329D01*
X0295773Y0004220D01*
X0295728Y0004112D01*
X0295680Y0004006D01*
X0295628Y0003902D01*
X0295572Y0003799D01*
X0295514Y0003698D01*
X0295452Y0003600D01*
X0295386Y0003503D01*
X0295318Y0003408D01*
X0295247Y0003316D01*
X0295172Y0003226D01*
X0295095Y0003139D01*
X0295015Y0003054D01*
X0294932Y0002972D01*
X0294847Y0002892D01*
X0294759Y0002816D01*
X0294668Y0002742D01*
X0294576Y0002671D01*
X0294480Y0002604D01*
X0294383Y0002539D01*
X0294284Y0002478D01*
X0294183Y0002420D01*
X0294080Y0002366D01*
X0293975Y0002314D01*
X0293868Y0002267D01*
X0293760Y0002222D01*
X0293651Y0002182D01*
X0293540Y0002145D01*
X0293429Y0002111D01*
X0293316Y0002082D01*
X0293202Y0002055D01*
X0293088Y0002033D01*
X0292972Y0002015D01*
X0292857Y0002000D01*
X0062739Y0002000D01*
X0062623Y0001989D01*
X0062506Y0001982D01*
X0062389Y0001978D01*
X0062273Y0001979D01*
X0062156Y0001983D01*
X0062040Y0001991D01*
X0061924Y0002003D01*
X0061808Y0002019D01*
X0061693Y0002038D01*
X0061579Y0002061D01*
X0061465Y0002088D01*
X0061353Y0002119D01*
X0061241Y0002153D01*
X0061131Y0002191D01*
X0061022Y0002233D01*
X0060914Y0002278D01*
X0060808Y0002326D01*
X0060704Y0002378D01*
X0060601Y0002434D01*
X0060500Y0002492D01*
X0060402Y0002554D01*
X0060305Y0002620D01*
X0060210Y0002688D01*
X0060118Y0002759D01*
X0060028Y0002834D01*
X0059941Y0002911D01*
X0059856Y0002991D01*
X0059774Y0003074D01*
X0059694Y0003159D01*
X0059618Y0003247D01*
X0059544Y0003338D01*
X0059473Y0003430D01*
X0059406Y0003526D01*
X0059341Y0003623D01*
X0059280Y0003722D01*
X0059222Y0003823D01*
X0059168Y0003926D01*
X0059116Y0004031D01*
X0059069Y0004138D01*
X0059024Y0004246D01*
X0058984Y0004355D01*
X0058947Y0004466D01*
X0058913Y0004577D01*
X0058884Y0004690D01*
X0058857Y0004804D01*
X0058835Y0004918D01*
X0058817Y0005034D01*
X0058802Y0005149D01*
X0063723Y0011843D02*
X0063725Y0011983D01*
X0063731Y0012123D01*
X0063741Y0012262D01*
X0063755Y0012401D01*
X0063773Y0012540D01*
X0063794Y0012678D01*
X0063820Y0012816D01*
X0063850Y0012953D01*
X0063883Y0013088D01*
X0063921Y0013223D01*
X0063962Y0013357D01*
X0064007Y0013490D01*
X0064055Y0013621D01*
X0064108Y0013750D01*
X0064164Y0013879D01*
X0064223Y0014005D01*
X0064287Y0014130D01*
X0064353Y0014253D01*
X0064424Y0014374D01*
X0064497Y0014493D01*
X0064574Y0014610D01*
X0064655Y0014724D01*
X0064738Y0014836D01*
X0064825Y0014946D01*
X0064915Y0015054D01*
X0065007Y0015158D01*
X0065103Y0015260D01*
X0065202Y0015360D01*
X0065303Y0015456D01*
X0065407Y0015550D01*
X0065514Y0015640D01*
X0065623Y0015727D01*
X0065735Y0015812D01*
X0065849Y0015893D01*
X0065965Y0015971D01*
X0066083Y0016045D01*
X0066204Y0016116D01*
X0066326Y0016184D01*
X0066451Y0016248D01*
X0066577Y0016309D01*
X0066704Y0016366D01*
X0066834Y0016419D01*
X0066965Y0016469D01*
X0067097Y0016514D01*
X0067230Y0016557D01*
X0067365Y0016595D01*
X0067500Y0016629D01*
X0067637Y0016660D01*
X0067774Y0016687D01*
X0067912Y0016709D01*
X0068051Y0016728D01*
X0068190Y0016743D01*
X0068329Y0016754D01*
X0068469Y0016761D01*
X0068609Y0016764D01*
X0068749Y0016763D01*
X0068889Y0016758D01*
X0069028Y0016749D01*
X0069168Y0016736D01*
X0069307Y0016719D01*
X0069445Y0016698D01*
X0069583Y0016674D01*
X0069720Y0016645D01*
X0069856Y0016613D01*
X0069991Y0016576D01*
X0070125Y0016536D01*
X0070258Y0016492D01*
X0070389Y0016444D01*
X0070519Y0016393D01*
X0070648Y0016338D01*
X0070775Y0016279D01*
X0070900Y0016216D01*
X0071023Y0016151D01*
X0071145Y0016081D01*
X0071264Y0016008D01*
X0071382Y0015932D01*
X0071497Y0015853D01*
X0071610Y0015770D01*
X0071720Y0015684D01*
X0071828Y0015595D01*
X0071933Y0015503D01*
X0072036Y0015408D01*
X0072136Y0015310D01*
X0072233Y0015210D01*
X0072327Y0015106D01*
X0072419Y0015000D01*
X0072507Y0014892D01*
X0072592Y0014781D01*
X0072674Y0014667D01*
X0072753Y0014551D01*
X0072828Y0014434D01*
X0072900Y0014314D01*
X0072968Y0014192D01*
X0073033Y0014068D01*
X0073095Y0013942D01*
X0073153Y0013815D01*
X0073207Y0013686D01*
X0073258Y0013555D01*
X0073304Y0013423D01*
X0073347Y0013290D01*
X0073387Y0013156D01*
X0073422Y0013021D01*
X0073454Y0012884D01*
X0073481Y0012747D01*
X0073505Y0012609D01*
X0073525Y0012471D01*
X0073541Y0012332D01*
X0073553Y0012192D01*
X0073561Y0012053D01*
X0073565Y0011913D01*
X0073565Y0011773D01*
X0073561Y0011633D01*
X0073553Y0011494D01*
X0073541Y0011354D01*
X0073525Y0011215D01*
X0073505Y0011077D01*
X0073481Y0010939D01*
X0073454Y0010802D01*
X0073422Y0010665D01*
X0073387Y0010530D01*
X0073347Y0010396D01*
X0073304Y0010263D01*
X0073258Y0010131D01*
X0073207Y0010000D01*
X0073153Y0009871D01*
X0073095Y0009744D01*
X0073033Y0009618D01*
X0072968Y0009494D01*
X0072900Y0009372D01*
X0072828Y0009252D01*
X0072753Y0009135D01*
X0072674Y0009019D01*
X0072592Y0008905D01*
X0072507Y0008794D01*
X0072419Y0008686D01*
X0072327Y0008580D01*
X0072233Y0008476D01*
X0072136Y0008376D01*
X0072036Y0008278D01*
X0071933Y0008183D01*
X0071828Y0008091D01*
X0071720Y0008002D01*
X0071610Y0007916D01*
X0071497Y0007833D01*
X0071382Y0007754D01*
X0071264Y0007678D01*
X0071145Y0007605D01*
X0071023Y0007535D01*
X0070900Y0007470D01*
X0070775Y0007407D01*
X0070648Y0007348D01*
X0070519Y0007293D01*
X0070389Y0007242D01*
X0070258Y0007194D01*
X0070125Y0007150D01*
X0069991Y0007110D01*
X0069856Y0007073D01*
X0069720Y0007041D01*
X0069583Y0007012D01*
X0069445Y0006988D01*
X0069307Y0006967D01*
X0069168Y0006950D01*
X0069028Y0006937D01*
X0068889Y0006928D01*
X0068749Y0006923D01*
X0068609Y0006922D01*
X0068469Y0006925D01*
X0068329Y0006932D01*
X0068190Y0006943D01*
X0068051Y0006958D01*
X0067912Y0006977D01*
X0067774Y0006999D01*
X0067637Y0007026D01*
X0067500Y0007057D01*
X0067365Y0007091D01*
X0067230Y0007129D01*
X0067097Y0007172D01*
X0066965Y0007217D01*
X0066834Y0007267D01*
X0066704Y0007320D01*
X0066577Y0007377D01*
X0066451Y0007438D01*
X0066326Y0007502D01*
X0066204Y0007570D01*
X0066083Y0007641D01*
X0065965Y0007715D01*
X0065849Y0007793D01*
X0065735Y0007874D01*
X0065623Y0007959D01*
X0065514Y0008046D01*
X0065407Y0008136D01*
X0065303Y0008230D01*
X0065202Y0008326D01*
X0065103Y0008426D01*
X0065007Y0008528D01*
X0064915Y0008632D01*
X0064825Y0008740D01*
X0064738Y0008850D01*
X0064655Y0008962D01*
X0064574Y0009076D01*
X0064497Y0009193D01*
X0064424Y0009312D01*
X0064353Y0009433D01*
X0064287Y0009556D01*
X0064223Y0009681D01*
X0064164Y0009807D01*
X0064108Y0009936D01*
X0064055Y0010065D01*
X0064007Y0010196D01*
X0063962Y0010329D01*
X0063921Y0010463D01*
X0063883Y0010598D01*
X0063850Y0010733D01*
X0063820Y0010870D01*
X0063794Y0011008D01*
X0063773Y0011146D01*
X0063755Y0011285D01*
X0063741Y0011424D01*
X0063731Y0011563D01*
X0063725Y0011703D01*
X0063723Y0011843D01*
X0066085Y0027469D02*
X0066087Y0027548D01*
X0066093Y0027627D01*
X0066103Y0027706D01*
X0066117Y0027784D01*
X0066134Y0027861D01*
X0066156Y0027937D01*
X0066181Y0028012D01*
X0066211Y0028085D01*
X0066243Y0028157D01*
X0066280Y0028228D01*
X0066320Y0028296D01*
X0066363Y0028362D01*
X0066409Y0028426D01*
X0066459Y0028488D01*
X0066512Y0028547D01*
X0066567Y0028603D01*
X0066626Y0028657D01*
X0066687Y0028707D01*
X0066750Y0028755D01*
X0066816Y0028799D01*
X0066884Y0028840D01*
X0066954Y0028877D01*
X0067025Y0028911D01*
X0067099Y0028941D01*
X0067173Y0028967D01*
X0067249Y0028989D01*
X0067326Y0029008D01*
X0067404Y0029023D01*
X0067482Y0029034D01*
X0067561Y0029041D01*
X0067640Y0029044D01*
X0067719Y0029043D01*
X0067798Y0029038D01*
X0067877Y0029029D01*
X0067955Y0029016D01*
X0068032Y0028999D01*
X0068109Y0028979D01*
X0068184Y0028954D01*
X0068258Y0028926D01*
X0068331Y0028894D01*
X0068401Y0028859D01*
X0068470Y0028820D01*
X0068537Y0028777D01*
X0068602Y0028731D01*
X0068664Y0028683D01*
X0068724Y0028631D01*
X0068781Y0028576D01*
X0068835Y0028518D01*
X0068886Y0028458D01*
X0068934Y0028395D01*
X0068979Y0028330D01*
X0069021Y0028262D01*
X0069059Y0028193D01*
X0069093Y0028122D01*
X0069124Y0028049D01*
X0069152Y0027974D01*
X0069175Y0027899D01*
X0069195Y0027822D01*
X0069211Y0027745D01*
X0069223Y0027666D01*
X0069231Y0027588D01*
X0069235Y0027509D01*
X0069235Y0027429D01*
X0069231Y0027350D01*
X0069223Y0027272D01*
X0069211Y0027193D01*
X0069195Y0027116D01*
X0069175Y0027039D01*
X0069152Y0026964D01*
X0069124Y0026889D01*
X0069093Y0026816D01*
X0069059Y0026745D01*
X0069021Y0026676D01*
X0068979Y0026608D01*
X0068934Y0026543D01*
X0068886Y0026480D01*
X0068835Y0026420D01*
X0068781Y0026362D01*
X0068724Y0026307D01*
X0068664Y0026255D01*
X0068602Y0026207D01*
X0068537Y0026161D01*
X0068470Y0026118D01*
X0068401Y0026079D01*
X0068331Y0026044D01*
X0068258Y0026012D01*
X0068184Y0025984D01*
X0068109Y0025959D01*
X0068032Y0025939D01*
X0067955Y0025922D01*
X0067877Y0025909D01*
X0067798Y0025900D01*
X0067719Y0025895D01*
X0067640Y0025894D01*
X0067561Y0025897D01*
X0067482Y0025904D01*
X0067404Y0025915D01*
X0067326Y0025930D01*
X0067249Y0025949D01*
X0067173Y0025971D01*
X0067099Y0025997D01*
X0067025Y0026027D01*
X0066954Y0026061D01*
X0066884Y0026098D01*
X0066816Y0026139D01*
X0066750Y0026183D01*
X0066687Y0026231D01*
X0066626Y0026281D01*
X0066567Y0026335D01*
X0066512Y0026391D01*
X0066459Y0026450D01*
X0066409Y0026512D01*
X0066363Y0026576D01*
X0066320Y0026642D01*
X0066280Y0026710D01*
X0066243Y0026781D01*
X0066211Y0026853D01*
X0066181Y0026926D01*
X0066156Y0027001D01*
X0066134Y0027077D01*
X0066117Y0027154D01*
X0066103Y0027232D01*
X0066093Y0027311D01*
X0066087Y0027390D01*
X0066085Y0027469D01*
X0067660Y0027469D02*
X0067662Y0027548D01*
X0067668Y0027627D01*
X0067678Y0027706D01*
X0067692Y0027784D01*
X0067709Y0027861D01*
X0067731Y0027937D01*
X0067756Y0028012D01*
X0067786Y0028085D01*
X0067818Y0028157D01*
X0067855Y0028228D01*
X0067895Y0028296D01*
X0067938Y0028362D01*
X0067984Y0028426D01*
X0068034Y0028488D01*
X0068087Y0028547D01*
X0068142Y0028603D01*
X0068201Y0028657D01*
X0068262Y0028707D01*
X0068325Y0028755D01*
X0068391Y0028799D01*
X0068459Y0028840D01*
X0068529Y0028877D01*
X0068600Y0028911D01*
X0068674Y0028941D01*
X0068748Y0028967D01*
X0068824Y0028989D01*
X0068901Y0029008D01*
X0068979Y0029023D01*
X0069057Y0029034D01*
X0069136Y0029041D01*
X0069215Y0029044D01*
X0069294Y0029043D01*
X0069373Y0029038D01*
X0069452Y0029029D01*
X0069530Y0029016D01*
X0069607Y0028999D01*
X0069684Y0028979D01*
X0069759Y0028954D01*
X0069833Y0028926D01*
X0069906Y0028894D01*
X0069976Y0028859D01*
X0070045Y0028820D01*
X0070112Y0028777D01*
X0070177Y0028731D01*
X0070239Y0028683D01*
X0070299Y0028631D01*
X0070356Y0028576D01*
X0070410Y0028518D01*
X0070461Y0028458D01*
X0070509Y0028395D01*
X0070554Y0028330D01*
X0070596Y0028262D01*
X0070634Y0028193D01*
X0070668Y0028122D01*
X0070699Y0028049D01*
X0070727Y0027974D01*
X0070750Y0027899D01*
X0070770Y0027822D01*
X0070786Y0027745D01*
X0070798Y0027666D01*
X0070806Y0027588D01*
X0070810Y0027509D01*
X0070810Y0027429D01*
X0070806Y0027350D01*
X0070798Y0027272D01*
X0070786Y0027193D01*
X0070770Y0027116D01*
X0070750Y0027039D01*
X0070727Y0026964D01*
X0070699Y0026889D01*
X0070668Y0026816D01*
X0070634Y0026745D01*
X0070596Y0026676D01*
X0070554Y0026608D01*
X0070509Y0026543D01*
X0070461Y0026480D01*
X0070410Y0026420D01*
X0070356Y0026362D01*
X0070299Y0026307D01*
X0070239Y0026255D01*
X0070177Y0026207D01*
X0070112Y0026161D01*
X0070045Y0026118D01*
X0069976Y0026079D01*
X0069906Y0026044D01*
X0069833Y0026012D01*
X0069759Y0025984D01*
X0069684Y0025959D01*
X0069607Y0025939D01*
X0069530Y0025922D01*
X0069452Y0025909D01*
X0069373Y0025900D01*
X0069294Y0025895D01*
X0069215Y0025894D01*
X0069136Y0025897D01*
X0069057Y0025904D01*
X0068979Y0025915D01*
X0068901Y0025930D01*
X0068824Y0025949D01*
X0068748Y0025971D01*
X0068674Y0025997D01*
X0068600Y0026027D01*
X0068529Y0026061D01*
X0068459Y0026098D01*
X0068391Y0026139D01*
X0068325Y0026183D01*
X0068262Y0026231D01*
X0068201Y0026281D01*
X0068142Y0026335D01*
X0068087Y0026391D01*
X0068034Y0026450D01*
X0067984Y0026512D01*
X0067938Y0026576D01*
X0067895Y0026642D01*
X0067855Y0026710D01*
X0067818Y0026781D01*
X0067786Y0026853D01*
X0067756Y0026926D01*
X0067731Y0027001D01*
X0067709Y0027077D01*
X0067692Y0027154D01*
X0067678Y0027232D01*
X0067668Y0027311D01*
X0067662Y0027390D01*
X0067660Y0027469D01*
X0070809Y0027469D02*
X0070811Y0027548D01*
X0070817Y0027627D01*
X0070827Y0027706D01*
X0070841Y0027784D01*
X0070858Y0027861D01*
X0070880Y0027937D01*
X0070905Y0028012D01*
X0070935Y0028085D01*
X0070967Y0028157D01*
X0071004Y0028228D01*
X0071044Y0028296D01*
X0071087Y0028362D01*
X0071133Y0028426D01*
X0071183Y0028488D01*
X0071236Y0028547D01*
X0071291Y0028603D01*
X0071350Y0028657D01*
X0071411Y0028707D01*
X0071474Y0028755D01*
X0071540Y0028799D01*
X0071608Y0028840D01*
X0071678Y0028877D01*
X0071749Y0028911D01*
X0071823Y0028941D01*
X0071897Y0028967D01*
X0071973Y0028989D01*
X0072050Y0029008D01*
X0072128Y0029023D01*
X0072206Y0029034D01*
X0072285Y0029041D01*
X0072364Y0029044D01*
X0072443Y0029043D01*
X0072522Y0029038D01*
X0072601Y0029029D01*
X0072679Y0029016D01*
X0072756Y0028999D01*
X0072833Y0028979D01*
X0072908Y0028954D01*
X0072982Y0028926D01*
X0073055Y0028894D01*
X0073125Y0028859D01*
X0073194Y0028820D01*
X0073261Y0028777D01*
X0073326Y0028731D01*
X0073388Y0028683D01*
X0073448Y0028631D01*
X0073505Y0028576D01*
X0073559Y0028518D01*
X0073610Y0028458D01*
X0073658Y0028395D01*
X0073703Y0028330D01*
X0073745Y0028262D01*
X0073783Y0028193D01*
X0073817Y0028122D01*
X0073848Y0028049D01*
X0073876Y0027974D01*
X0073899Y0027899D01*
X0073919Y0027822D01*
X0073935Y0027745D01*
X0073947Y0027666D01*
X0073955Y0027588D01*
X0073959Y0027509D01*
X0073959Y0027429D01*
X0073955Y0027350D01*
X0073947Y0027272D01*
X0073935Y0027193D01*
X0073919Y0027116D01*
X0073899Y0027039D01*
X0073876Y0026964D01*
X0073848Y0026889D01*
X0073817Y0026816D01*
X0073783Y0026745D01*
X0073745Y0026676D01*
X0073703Y0026608D01*
X0073658Y0026543D01*
X0073610Y0026480D01*
X0073559Y0026420D01*
X0073505Y0026362D01*
X0073448Y0026307D01*
X0073388Y0026255D01*
X0073326Y0026207D01*
X0073261Y0026161D01*
X0073194Y0026118D01*
X0073125Y0026079D01*
X0073055Y0026044D01*
X0072982Y0026012D01*
X0072908Y0025984D01*
X0072833Y0025959D01*
X0072756Y0025939D01*
X0072679Y0025922D01*
X0072601Y0025909D01*
X0072522Y0025900D01*
X0072443Y0025895D01*
X0072364Y0025894D01*
X0072285Y0025897D01*
X0072206Y0025904D01*
X0072128Y0025915D01*
X0072050Y0025930D01*
X0071973Y0025949D01*
X0071897Y0025971D01*
X0071823Y0025997D01*
X0071749Y0026027D01*
X0071678Y0026061D01*
X0071608Y0026098D01*
X0071540Y0026139D01*
X0071474Y0026183D01*
X0071411Y0026231D01*
X0071350Y0026281D01*
X0071291Y0026335D01*
X0071236Y0026391D01*
X0071183Y0026450D01*
X0071133Y0026512D01*
X0071087Y0026576D01*
X0071044Y0026642D01*
X0071004Y0026710D01*
X0070967Y0026781D01*
X0070935Y0026853D01*
X0070905Y0026926D01*
X0070880Y0027001D01*
X0070858Y0027077D01*
X0070841Y0027154D01*
X0070827Y0027232D01*
X0070817Y0027311D01*
X0070811Y0027390D01*
X0070809Y0027469D01*
X0072384Y0027469D02*
X0072386Y0027548D01*
X0072392Y0027627D01*
X0072402Y0027706D01*
X0072416Y0027784D01*
X0072433Y0027861D01*
X0072455Y0027937D01*
X0072480Y0028012D01*
X0072510Y0028085D01*
X0072542Y0028157D01*
X0072579Y0028228D01*
X0072619Y0028296D01*
X0072662Y0028362D01*
X0072708Y0028426D01*
X0072758Y0028488D01*
X0072811Y0028547D01*
X0072866Y0028603D01*
X0072925Y0028657D01*
X0072986Y0028707D01*
X0073049Y0028755D01*
X0073115Y0028799D01*
X0073183Y0028840D01*
X0073253Y0028877D01*
X0073324Y0028911D01*
X0073398Y0028941D01*
X0073472Y0028967D01*
X0073548Y0028989D01*
X0073625Y0029008D01*
X0073703Y0029023D01*
X0073781Y0029034D01*
X0073860Y0029041D01*
X0073939Y0029044D01*
X0074018Y0029043D01*
X0074097Y0029038D01*
X0074176Y0029029D01*
X0074254Y0029016D01*
X0074331Y0028999D01*
X0074408Y0028979D01*
X0074483Y0028954D01*
X0074557Y0028926D01*
X0074630Y0028894D01*
X0074700Y0028859D01*
X0074769Y0028820D01*
X0074836Y0028777D01*
X0074901Y0028731D01*
X0074963Y0028683D01*
X0075023Y0028631D01*
X0075080Y0028576D01*
X0075134Y0028518D01*
X0075185Y0028458D01*
X0075233Y0028395D01*
X0075278Y0028330D01*
X0075320Y0028262D01*
X0075358Y0028193D01*
X0075392Y0028122D01*
X0075423Y0028049D01*
X0075451Y0027974D01*
X0075474Y0027899D01*
X0075494Y0027822D01*
X0075510Y0027745D01*
X0075522Y0027666D01*
X0075530Y0027588D01*
X0075534Y0027509D01*
X0075534Y0027429D01*
X0075530Y0027350D01*
X0075522Y0027272D01*
X0075510Y0027193D01*
X0075494Y0027116D01*
X0075474Y0027039D01*
X0075451Y0026964D01*
X0075423Y0026889D01*
X0075392Y0026816D01*
X0075358Y0026745D01*
X0075320Y0026676D01*
X0075278Y0026608D01*
X0075233Y0026543D01*
X0075185Y0026480D01*
X0075134Y0026420D01*
X0075080Y0026362D01*
X0075023Y0026307D01*
X0074963Y0026255D01*
X0074901Y0026207D01*
X0074836Y0026161D01*
X0074769Y0026118D01*
X0074700Y0026079D01*
X0074630Y0026044D01*
X0074557Y0026012D01*
X0074483Y0025984D01*
X0074408Y0025959D01*
X0074331Y0025939D01*
X0074254Y0025922D01*
X0074176Y0025909D01*
X0074097Y0025900D01*
X0074018Y0025895D01*
X0073939Y0025894D01*
X0073860Y0025897D01*
X0073781Y0025904D01*
X0073703Y0025915D01*
X0073625Y0025930D01*
X0073548Y0025949D01*
X0073472Y0025971D01*
X0073398Y0025997D01*
X0073324Y0026027D01*
X0073253Y0026061D01*
X0073183Y0026098D01*
X0073115Y0026139D01*
X0073049Y0026183D01*
X0072986Y0026231D01*
X0072925Y0026281D01*
X0072866Y0026335D01*
X0072811Y0026391D01*
X0072758Y0026450D01*
X0072708Y0026512D01*
X0072662Y0026576D01*
X0072619Y0026642D01*
X0072579Y0026710D01*
X0072542Y0026781D01*
X0072510Y0026853D01*
X0072480Y0026926D01*
X0072455Y0027001D01*
X0072433Y0027077D01*
X0072416Y0027154D01*
X0072402Y0027232D01*
X0072392Y0027311D01*
X0072386Y0027390D01*
X0072384Y0027469D01*
X0070809Y0073531D02*
X0070811Y0073610D01*
X0070817Y0073689D01*
X0070827Y0073768D01*
X0070841Y0073846D01*
X0070858Y0073923D01*
X0070880Y0073999D01*
X0070905Y0074074D01*
X0070935Y0074147D01*
X0070967Y0074219D01*
X0071004Y0074290D01*
X0071044Y0074358D01*
X0071087Y0074424D01*
X0071133Y0074488D01*
X0071183Y0074550D01*
X0071236Y0074609D01*
X0071291Y0074665D01*
X0071350Y0074719D01*
X0071411Y0074769D01*
X0071474Y0074817D01*
X0071540Y0074861D01*
X0071608Y0074902D01*
X0071678Y0074939D01*
X0071749Y0074973D01*
X0071823Y0075003D01*
X0071897Y0075029D01*
X0071973Y0075051D01*
X0072050Y0075070D01*
X0072128Y0075085D01*
X0072206Y0075096D01*
X0072285Y0075103D01*
X0072364Y0075106D01*
X0072443Y0075105D01*
X0072522Y0075100D01*
X0072601Y0075091D01*
X0072679Y0075078D01*
X0072756Y0075061D01*
X0072833Y0075041D01*
X0072908Y0075016D01*
X0072982Y0074988D01*
X0073055Y0074956D01*
X0073125Y0074921D01*
X0073194Y0074882D01*
X0073261Y0074839D01*
X0073326Y0074793D01*
X0073388Y0074745D01*
X0073448Y0074693D01*
X0073505Y0074638D01*
X0073559Y0074580D01*
X0073610Y0074520D01*
X0073658Y0074457D01*
X0073703Y0074392D01*
X0073745Y0074324D01*
X0073783Y0074255D01*
X0073817Y0074184D01*
X0073848Y0074111D01*
X0073876Y0074036D01*
X0073899Y0073961D01*
X0073919Y0073884D01*
X0073935Y0073807D01*
X0073947Y0073728D01*
X0073955Y0073650D01*
X0073959Y0073571D01*
X0073959Y0073491D01*
X0073955Y0073412D01*
X0073947Y0073334D01*
X0073935Y0073255D01*
X0073919Y0073178D01*
X0073899Y0073101D01*
X0073876Y0073026D01*
X0073848Y0072951D01*
X0073817Y0072878D01*
X0073783Y0072807D01*
X0073745Y0072738D01*
X0073703Y0072670D01*
X0073658Y0072605D01*
X0073610Y0072542D01*
X0073559Y0072482D01*
X0073505Y0072424D01*
X0073448Y0072369D01*
X0073388Y0072317D01*
X0073326Y0072269D01*
X0073261Y0072223D01*
X0073194Y0072180D01*
X0073125Y0072141D01*
X0073055Y0072106D01*
X0072982Y0072074D01*
X0072908Y0072046D01*
X0072833Y0072021D01*
X0072756Y0072001D01*
X0072679Y0071984D01*
X0072601Y0071971D01*
X0072522Y0071962D01*
X0072443Y0071957D01*
X0072364Y0071956D01*
X0072285Y0071959D01*
X0072206Y0071966D01*
X0072128Y0071977D01*
X0072050Y0071992D01*
X0071973Y0072011D01*
X0071897Y0072033D01*
X0071823Y0072059D01*
X0071749Y0072089D01*
X0071678Y0072123D01*
X0071608Y0072160D01*
X0071540Y0072201D01*
X0071474Y0072245D01*
X0071411Y0072293D01*
X0071350Y0072343D01*
X0071291Y0072397D01*
X0071236Y0072453D01*
X0071183Y0072512D01*
X0071133Y0072574D01*
X0071087Y0072638D01*
X0071044Y0072704D01*
X0071004Y0072772D01*
X0070967Y0072843D01*
X0070935Y0072915D01*
X0070905Y0072988D01*
X0070880Y0073063D01*
X0070858Y0073139D01*
X0070841Y0073216D01*
X0070827Y0073294D01*
X0070817Y0073373D01*
X0070811Y0073452D01*
X0070809Y0073531D01*
X0067660Y0073531D02*
X0067662Y0073610D01*
X0067668Y0073689D01*
X0067678Y0073768D01*
X0067692Y0073846D01*
X0067709Y0073923D01*
X0067731Y0073999D01*
X0067756Y0074074D01*
X0067786Y0074147D01*
X0067818Y0074219D01*
X0067855Y0074290D01*
X0067895Y0074358D01*
X0067938Y0074424D01*
X0067984Y0074488D01*
X0068034Y0074550D01*
X0068087Y0074609D01*
X0068142Y0074665D01*
X0068201Y0074719D01*
X0068262Y0074769D01*
X0068325Y0074817D01*
X0068391Y0074861D01*
X0068459Y0074902D01*
X0068529Y0074939D01*
X0068600Y0074973D01*
X0068674Y0075003D01*
X0068748Y0075029D01*
X0068824Y0075051D01*
X0068901Y0075070D01*
X0068979Y0075085D01*
X0069057Y0075096D01*
X0069136Y0075103D01*
X0069215Y0075106D01*
X0069294Y0075105D01*
X0069373Y0075100D01*
X0069452Y0075091D01*
X0069530Y0075078D01*
X0069607Y0075061D01*
X0069684Y0075041D01*
X0069759Y0075016D01*
X0069833Y0074988D01*
X0069906Y0074956D01*
X0069976Y0074921D01*
X0070045Y0074882D01*
X0070112Y0074839D01*
X0070177Y0074793D01*
X0070239Y0074745D01*
X0070299Y0074693D01*
X0070356Y0074638D01*
X0070410Y0074580D01*
X0070461Y0074520D01*
X0070509Y0074457D01*
X0070554Y0074392D01*
X0070596Y0074324D01*
X0070634Y0074255D01*
X0070668Y0074184D01*
X0070699Y0074111D01*
X0070727Y0074036D01*
X0070750Y0073961D01*
X0070770Y0073884D01*
X0070786Y0073807D01*
X0070798Y0073728D01*
X0070806Y0073650D01*
X0070810Y0073571D01*
X0070810Y0073491D01*
X0070806Y0073412D01*
X0070798Y0073334D01*
X0070786Y0073255D01*
X0070770Y0073178D01*
X0070750Y0073101D01*
X0070727Y0073026D01*
X0070699Y0072951D01*
X0070668Y0072878D01*
X0070634Y0072807D01*
X0070596Y0072738D01*
X0070554Y0072670D01*
X0070509Y0072605D01*
X0070461Y0072542D01*
X0070410Y0072482D01*
X0070356Y0072424D01*
X0070299Y0072369D01*
X0070239Y0072317D01*
X0070177Y0072269D01*
X0070112Y0072223D01*
X0070045Y0072180D01*
X0069976Y0072141D01*
X0069906Y0072106D01*
X0069833Y0072074D01*
X0069759Y0072046D01*
X0069684Y0072021D01*
X0069607Y0072001D01*
X0069530Y0071984D01*
X0069452Y0071971D01*
X0069373Y0071962D01*
X0069294Y0071957D01*
X0069215Y0071956D01*
X0069136Y0071959D01*
X0069057Y0071966D01*
X0068979Y0071977D01*
X0068901Y0071992D01*
X0068824Y0072011D01*
X0068748Y0072033D01*
X0068674Y0072059D01*
X0068600Y0072089D01*
X0068529Y0072123D01*
X0068459Y0072160D01*
X0068391Y0072201D01*
X0068325Y0072245D01*
X0068262Y0072293D01*
X0068201Y0072343D01*
X0068142Y0072397D01*
X0068087Y0072453D01*
X0068034Y0072512D01*
X0067984Y0072574D01*
X0067938Y0072638D01*
X0067895Y0072704D01*
X0067855Y0072772D01*
X0067818Y0072843D01*
X0067786Y0072915D01*
X0067756Y0072988D01*
X0067731Y0073063D01*
X0067709Y0073139D01*
X0067692Y0073216D01*
X0067678Y0073294D01*
X0067668Y0073373D01*
X0067662Y0073452D01*
X0067660Y0073531D01*
X0066085Y0073531D02*
X0066087Y0073610D01*
X0066093Y0073689D01*
X0066103Y0073768D01*
X0066117Y0073846D01*
X0066134Y0073923D01*
X0066156Y0073999D01*
X0066181Y0074074D01*
X0066211Y0074147D01*
X0066243Y0074219D01*
X0066280Y0074290D01*
X0066320Y0074358D01*
X0066363Y0074424D01*
X0066409Y0074488D01*
X0066459Y0074550D01*
X0066512Y0074609D01*
X0066567Y0074665D01*
X0066626Y0074719D01*
X0066687Y0074769D01*
X0066750Y0074817D01*
X0066816Y0074861D01*
X0066884Y0074902D01*
X0066954Y0074939D01*
X0067025Y0074973D01*
X0067099Y0075003D01*
X0067173Y0075029D01*
X0067249Y0075051D01*
X0067326Y0075070D01*
X0067404Y0075085D01*
X0067482Y0075096D01*
X0067561Y0075103D01*
X0067640Y0075106D01*
X0067719Y0075105D01*
X0067798Y0075100D01*
X0067877Y0075091D01*
X0067955Y0075078D01*
X0068032Y0075061D01*
X0068109Y0075041D01*
X0068184Y0075016D01*
X0068258Y0074988D01*
X0068331Y0074956D01*
X0068401Y0074921D01*
X0068470Y0074882D01*
X0068537Y0074839D01*
X0068602Y0074793D01*
X0068664Y0074745D01*
X0068724Y0074693D01*
X0068781Y0074638D01*
X0068835Y0074580D01*
X0068886Y0074520D01*
X0068934Y0074457D01*
X0068979Y0074392D01*
X0069021Y0074324D01*
X0069059Y0074255D01*
X0069093Y0074184D01*
X0069124Y0074111D01*
X0069152Y0074036D01*
X0069175Y0073961D01*
X0069195Y0073884D01*
X0069211Y0073807D01*
X0069223Y0073728D01*
X0069231Y0073650D01*
X0069235Y0073571D01*
X0069235Y0073491D01*
X0069231Y0073412D01*
X0069223Y0073334D01*
X0069211Y0073255D01*
X0069195Y0073178D01*
X0069175Y0073101D01*
X0069152Y0073026D01*
X0069124Y0072951D01*
X0069093Y0072878D01*
X0069059Y0072807D01*
X0069021Y0072738D01*
X0068979Y0072670D01*
X0068934Y0072605D01*
X0068886Y0072542D01*
X0068835Y0072482D01*
X0068781Y0072424D01*
X0068724Y0072369D01*
X0068664Y0072317D01*
X0068602Y0072269D01*
X0068537Y0072223D01*
X0068470Y0072180D01*
X0068401Y0072141D01*
X0068331Y0072106D01*
X0068258Y0072074D01*
X0068184Y0072046D01*
X0068109Y0072021D01*
X0068032Y0072001D01*
X0067955Y0071984D01*
X0067877Y0071971D01*
X0067798Y0071962D01*
X0067719Y0071957D01*
X0067640Y0071956D01*
X0067561Y0071959D01*
X0067482Y0071966D01*
X0067404Y0071977D01*
X0067326Y0071992D01*
X0067249Y0072011D01*
X0067173Y0072033D01*
X0067099Y0072059D01*
X0067025Y0072089D01*
X0066954Y0072123D01*
X0066884Y0072160D01*
X0066816Y0072201D01*
X0066750Y0072245D01*
X0066687Y0072293D01*
X0066626Y0072343D01*
X0066567Y0072397D01*
X0066512Y0072453D01*
X0066459Y0072512D01*
X0066409Y0072574D01*
X0066363Y0072638D01*
X0066320Y0072704D01*
X0066280Y0072772D01*
X0066243Y0072843D01*
X0066211Y0072915D01*
X0066181Y0072988D01*
X0066156Y0073063D01*
X0066134Y0073139D01*
X0066117Y0073216D01*
X0066103Y0073294D01*
X0066093Y0073373D01*
X0066087Y0073452D01*
X0066085Y0073531D01*
X0072384Y0073531D02*
X0072386Y0073610D01*
X0072392Y0073689D01*
X0072402Y0073768D01*
X0072416Y0073846D01*
X0072433Y0073923D01*
X0072455Y0073999D01*
X0072480Y0074074D01*
X0072510Y0074147D01*
X0072542Y0074219D01*
X0072579Y0074290D01*
X0072619Y0074358D01*
X0072662Y0074424D01*
X0072708Y0074488D01*
X0072758Y0074550D01*
X0072811Y0074609D01*
X0072866Y0074665D01*
X0072925Y0074719D01*
X0072986Y0074769D01*
X0073049Y0074817D01*
X0073115Y0074861D01*
X0073183Y0074902D01*
X0073253Y0074939D01*
X0073324Y0074973D01*
X0073398Y0075003D01*
X0073472Y0075029D01*
X0073548Y0075051D01*
X0073625Y0075070D01*
X0073703Y0075085D01*
X0073781Y0075096D01*
X0073860Y0075103D01*
X0073939Y0075106D01*
X0074018Y0075105D01*
X0074097Y0075100D01*
X0074176Y0075091D01*
X0074254Y0075078D01*
X0074331Y0075061D01*
X0074408Y0075041D01*
X0074483Y0075016D01*
X0074557Y0074988D01*
X0074630Y0074956D01*
X0074700Y0074921D01*
X0074769Y0074882D01*
X0074836Y0074839D01*
X0074901Y0074793D01*
X0074963Y0074745D01*
X0075023Y0074693D01*
X0075080Y0074638D01*
X0075134Y0074580D01*
X0075185Y0074520D01*
X0075233Y0074457D01*
X0075278Y0074392D01*
X0075320Y0074324D01*
X0075358Y0074255D01*
X0075392Y0074184D01*
X0075423Y0074111D01*
X0075451Y0074036D01*
X0075474Y0073961D01*
X0075494Y0073884D01*
X0075510Y0073807D01*
X0075522Y0073728D01*
X0075530Y0073650D01*
X0075534Y0073571D01*
X0075534Y0073491D01*
X0075530Y0073412D01*
X0075522Y0073334D01*
X0075510Y0073255D01*
X0075494Y0073178D01*
X0075474Y0073101D01*
X0075451Y0073026D01*
X0075423Y0072951D01*
X0075392Y0072878D01*
X0075358Y0072807D01*
X0075320Y0072738D01*
X0075278Y0072670D01*
X0075233Y0072605D01*
X0075185Y0072542D01*
X0075134Y0072482D01*
X0075080Y0072424D01*
X0075023Y0072369D01*
X0074963Y0072317D01*
X0074901Y0072269D01*
X0074836Y0072223D01*
X0074769Y0072180D01*
X0074700Y0072141D01*
X0074630Y0072106D01*
X0074557Y0072074D01*
X0074483Y0072046D01*
X0074408Y0072021D01*
X0074331Y0072001D01*
X0074254Y0071984D01*
X0074176Y0071971D01*
X0074097Y0071962D01*
X0074018Y0071957D01*
X0073939Y0071956D01*
X0073860Y0071959D01*
X0073781Y0071966D01*
X0073703Y0071977D01*
X0073625Y0071992D01*
X0073548Y0072011D01*
X0073472Y0072033D01*
X0073398Y0072059D01*
X0073324Y0072089D01*
X0073253Y0072123D01*
X0073183Y0072160D01*
X0073115Y0072201D01*
X0073049Y0072245D01*
X0072986Y0072293D01*
X0072925Y0072343D01*
X0072866Y0072397D01*
X0072811Y0072453D01*
X0072758Y0072512D01*
X0072708Y0072574D01*
X0072662Y0072638D01*
X0072619Y0072704D01*
X0072579Y0072772D01*
X0072542Y0072843D01*
X0072510Y0072915D01*
X0072480Y0072988D01*
X0072455Y0073063D01*
X0072433Y0073139D01*
X0072416Y0073216D01*
X0072402Y0073294D01*
X0072392Y0073373D01*
X0072386Y0073452D01*
X0072384Y0073531D01*
X0063723Y0090583D02*
X0063725Y0090723D01*
X0063731Y0090863D01*
X0063741Y0091002D01*
X0063755Y0091141D01*
X0063773Y0091280D01*
X0063794Y0091418D01*
X0063820Y0091556D01*
X0063850Y0091693D01*
X0063883Y0091828D01*
X0063921Y0091963D01*
X0063962Y0092097D01*
X0064007Y0092230D01*
X0064055Y0092361D01*
X0064108Y0092490D01*
X0064164Y0092619D01*
X0064223Y0092745D01*
X0064287Y0092870D01*
X0064353Y0092993D01*
X0064424Y0093114D01*
X0064497Y0093233D01*
X0064574Y0093350D01*
X0064655Y0093464D01*
X0064738Y0093576D01*
X0064825Y0093686D01*
X0064915Y0093794D01*
X0065007Y0093898D01*
X0065103Y0094000D01*
X0065202Y0094100D01*
X0065303Y0094196D01*
X0065407Y0094290D01*
X0065514Y0094380D01*
X0065623Y0094467D01*
X0065735Y0094552D01*
X0065849Y0094633D01*
X0065965Y0094711D01*
X0066083Y0094785D01*
X0066204Y0094856D01*
X0066326Y0094924D01*
X0066451Y0094988D01*
X0066577Y0095049D01*
X0066704Y0095106D01*
X0066834Y0095159D01*
X0066965Y0095209D01*
X0067097Y0095254D01*
X0067230Y0095297D01*
X0067365Y0095335D01*
X0067500Y0095369D01*
X0067637Y0095400D01*
X0067774Y0095427D01*
X0067912Y0095449D01*
X0068051Y0095468D01*
X0068190Y0095483D01*
X0068329Y0095494D01*
X0068469Y0095501D01*
X0068609Y0095504D01*
X0068749Y0095503D01*
X0068889Y0095498D01*
X0069028Y0095489D01*
X0069168Y0095476D01*
X0069307Y0095459D01*
X0069445Y0095438D01*
X0069583Y0095414D01*
X0069720Y0095385D01*
X0069856Y0095353D01*
X0069991Y0095316D01*
X0070125Y0095276D01*
X0070258Y0095232D01*
X0070389Y0095184D01*
X0070519Y0095133D01*
X0070648Y0095078D01*
X0070775Y0095019D01*
X0070900Y0094956D01*
X0071023Y0094891D01*
X0071145Y0094821D01*
X0071264Y0094748D01*
X0071382Y0094672D01*
X0071497Y0094593D01*
X0071610Y0094510D01*
X0071720Y0094424D01*
X0071828Y0094335D01*
X0071933Y0094243D01*
X0072036Y0094148D01*
X0072136Y0094050D01*
X0072233Y0093950D01*
X0072327Y0093846D01*
X0072419Y0093740D01*
X0072507Y0093632D01*
X0072592Y0093521D01*
X0072674Y0093407D01*
X0072753Y0093291D01*
X0072828Y0093174D01*
X0072900Y0093054D01*
X0072968Y0092932D01*
X0073033Y0092808D01*
X0073095Y0092682D01*
X0073153Y0092555D01*
X0073207Y0092426D01*
X0073258Y0092295D01*
X0073304Y0092163D01*
X0073347Y0092030D01*
X0073387Y0091896D01*
X0073422Y0091761D01*
X0073454Y0091624D01*
X0073481Y0091487D01*
X0073505Y0091349D01*
X0073525Y0091211D01*
X0073541Y0091072D01*
X0073553Y0090932D01*
X0073561Y0090793D01*
X0073565Y0090653D01*
X0073565Y0090513D01*
X0073561Y0090373D01*
X0073553Y0090234D01*
X0073541Y0090094D01*
X0073525Y0089955D01*
X0073505Y0089817D01*
X0073481Y0089679D01*
X0073454Y0089542D01*
X0073422Y0089405D01*
X0073387Y0089270D01*
X0073347Y0089136D01*
X0073304Y0089003D01*
X0073258Y0088871D01*
X0073207Y0088740D01*
X0073153Y0088611D01*
X0073095Y0088484D01*
X0073033Y0088358D01*
X0072968Y0088234D01*
X0072900Y0088112D01*
X0072828Y0087992D01*
X0072753Y0087875D01*
X0072674Y0087759D01*
X0072592Y0087645D01*
X0072507Y0087534D01*
X0072419Y0087426D01*
X0072327Y0087320D01*
X0072233Y0087216D01*
X0072136Y0087116D01*
X0072036Y0087018D01*
X0071933Y0086923D01*
X0071828Y0086831D01*
X0071720Y0086742D01*
X0071610Y0086656D01*
X0071497Y0086573D01*
X0071382Y0086494D01*
X0071264Y0086418D01*
X0071145Y0086345D01*
X0071023Y0086275D01*
X0070900Y0086210D01*
X0070775Y0086147D01*
X0070648Y0086088D01*
X0070519Y0086033D01*
X0070389Y0085982D01*
X0070258Y0085934D01*
X0070125Y0085890D01*
X0069991Y0085850D01*
X0069856Y0085813D01*
X0069720Y0085781D01*
X0069583Y0085752D01*
X0069445Y0085728D01*
X0069307Y0085707D01*
X0069168Y0085690D01*
X0069028Y0085677D01*
X0068889Y0085668D01*
X0068749Y0085663D01*
X0068609Y0085662D01*
X0068469Y0085665D01*
X0068329Y0085672D01*
X0068190Y0085683D01*
X0068051Y0085698D01*
X0067912Y0085717D01*
X0067774Y0085739D01*
X0067637Y0085766D01*
X0067500Y0085797D01*
X0067365Y0085831D01*
X0067230Y0085869D01*
X0067097Y0085912D01*
X0066965Y0085957D01*
X0066834Y0086007D01*
X0066704Y0086060D01*
X0066577Y0086117D01*
X0066451Y0086178D01*
X0066326Y0086242D01*
X0066204Y0086310D01*
X0066083Y0086381D01*
X0065965Y0086455D01*
X0065849Y0086533D01*
X0065735Y0086614D01*
X0065623Y0086699D01*
X0065514Y0086786D01*
X0065407Y0086876D01*
X0065303Y0086970D01*
X0065202Y0087066D01*
X0065103Y0087166D01*
X0065007Y0087268D01*
X0064915Y0087372D01*
X0064825Y0087480D01*
X0064738Y0087590D01*
X0064655Y0087702D01*
X0064574Y0087816D01*
X0064497Y0087933D01*
X0064424Y0088052D01*
X0064353Y0088173D01*
X0064287Y0088296D01*
X0064223Y0088421D01*
X0064164Y0088547D01*
X0064108Y0088676D01*
X0064055Y0088805D01*
X0064007Y0088936D01*
X0063962Y0089069D01*
X0063921Y0089203D01*
X0063883Y0089338D01*
X0063850Y0089473D01*
X0063820Y0089610D01*
X0063794Y0089748D01*
X0063773Y0089886D01*
X0063755Y0090025D01*
X0063741Y0090164D01*
X0063731Y0090303D01*
X0063725Y0090443D01*
X0063723Y0090583D01*
X0282227Y0090583D02*
X0282229Y0090723D01*
X0282235Y0090863D01*
X0282245Y0091002D01*
X0282259Y0091141D01*
X0282277Y0091280D01*
X0282298Y0091418D01*
X0282324Y0091556D01*
X0282354Y0091693D01*
X0282387Y0091828D01*
X0282425Y0091963D01*
X0282466Y0092097D01*
X0282511Y0092230D01*
X0282559Y0092361D01*
X0282612Y0092490D01*
X0282668Y0092619D01*
X0282727Y0092745D01*
X0282791Y0092870D01*
X0282857Y0092993D01*
X0282928Y0093114D01*
X0283001Y0093233D01*
X0283078Y0093350D01*
X0283159Y0093464D01*
X0283242Y0093576D01*
X0283329Y0093686D01*
X0283419Y0093794D01*
X0283511Y0093898D01*
X0283607Y0094000D01*
X0283706Y0094100D01*
X0283807Y0094196D01*
X0283911Y0094290D01*
X0284018Y0094380D01*
X0284127Y0094467D01*
X0284239Y0094552D01*
X0284353Y0094633D01*
X0284469Y0094711D01*
X0284587Y0094785D01*
X0284708Y0094856D01*
X0284830Y0094924D01*
X0284955Y0094988D01*
X0285081Y0095049D01*
X0285208Y0095106D01*
X0285338Y0095159D01*
X0285469Y0095209D01*
X0285601Y0095254D01*
X0285734Y0095297D01*
X0285869Y0095335D01*
X0286004Y0095369D01*
X0286141Y0095400D01*
X0286278Y0095427D01*
X0286416Y0095449D01*
X0286555Y0095468D01*
X0286694Y0095483D01*
X0286833Y0095494D01*
X0286973Y0095501D01*
X0287113Y0095504D01*
X0287253Y0095503D01*
X0287393Y0095498D01*
X0287532Y0095489D01*
X0287672Y0095476D01*
X0287811Y0095459D01*
X0287949Y0095438D01*
X0288087Y0095414D01*
X0288224Y0095385D01*
X0288360Y0095353D01*
X0288495Y0095316D01*
X0288629Y0095276D01*
X0288762Y0095232D01*
X0288893Y0095184D01*
X0289023Y0095133D01*
X0289152Y0095078D01*
X0289279Y0095019D01*
X0289404Y0094956D01*
X0289527Y0094891D01*
X0289649Y0094821D01*
X0289768Y0094748D01*
X0289886Y0094672D01*
X0290001Y0094593D01*
X0290114Y0094510D01*
X0290224Y0094424D01*
X0290332Y0094335D01*
X0290437Y0094243D01*
X0290540Y0094148D01*
X0290640Y0094050D01*
X0290737Y0093950D01*
X0290831Y0093846D01*
X0290923Y0093740D01*
X0291011Y0093632D01*
X0291096Y0093521D01*
X0291178Y0093407D01*
X0291257Y0093291D01*
X0291332Y0093174D01*
X0291404Y0093054D01*
X0291472Y0092932D01*
X0291537Y0092808D01*
X0291599Y0092682D01*
X0291657Y0092555D01*
X0291711Y0092426D01*
X0291762Y0092295D01*
X0291808Y0092163D01*
X0291851Y0092030D01*
X0291891Y0091896D01*
X0291926Y0091761D01*
X0291958Y0091624D01*
X0291985Y0091487D01*
X0292009Y0091349D01*
X0292029Y0091211D01*
X0292045Y0091072D01*
X0292057Y0090932D01*
X0292065Y0090793D01*
X0292069Y0090653D01*
X0292069Y0090513D01*
X0292065Y0090373D01*
X0292057Y0090234D01*
X0292045Y0090094D01*
X0292029Y0089955D01*
X0292009Y0089817D01*
X0291985Y0089679D01*
X0291958Y0089542D01*
X0291926Y0089405D01*
X0291891Y0089270D01*
X0291851Y0089136D01*
X0291808Y0089003D01*
X0291762Y0088871D01*
X0291711Y0088740D01*
X0291657Y0088611D01*
X0291599Y0088484D01*
X0291537Y0088358D01*
X0291472Y0088234D01*
X0291404Y0088112D01*
X0291332Y0087992D01*
X0291257Y0087875D01*
X0291178Y0087759D01*
X0291096Y0087645D01*
X0291011Y0087534D01*
X0290923Y0087426D01*
X0290831Y0087320D01*
X0290737Y0087216D01*
X0290640Y0087116D01*
X0290540Y0087018D01*
X0290437Y0086923D01*
X0290332Y0086831D01*
X0290224Y0086742D01*
X0290114Y0086656D01*
X0290001Y0086573D01*
X0289886Y0086494D01*
X0289768Y0086418D01*
X0289649Y0086345D01*
X0289527Y0086275D01*
X0289404Y0086210D01*
X0289279Y0086147D01*
X0289152Y0086088D01*
X0289023Y0086033D01*
X0288893Y0085982D01*
X0288762Y0085934D01*
X0288629Y0085890D01*
X0288495Y0085850D01*
X0288360Y0085813D01*
X0288224Y0085781D01*
X0288087Y0085752D01*
X0287949Y0085728D01*
X0287811Y0085707D01*
X0287672Y0085690D01*
X0287532Y0085677D01*
X0287393Y0085668D01*
X0287253Y0085663D01*
X0287113Y0085662D01*
X0286973Y0085665D01*
X0286833Y0085672D01*
X0286694Y0085683D01*
X0286555Y0085698D01*
X0286416Y0085717D01*
X0286278Y0085739D01*
X0286141Y0085766D01*
X0286004Y0085797D01*
X0285869Y0085831D01*
X0285734Y0085869D01*
X0285601Y0085912D01*
X0285469Y0085957D01*
X0285338Y0086007D01*
X0285208Y0086060D01*
X0285081Y0086117D01*
X0284955Y0086178D01*
X0284830Y0086242D01*
X0284708Y0086310D01*
X0284587Y0086381D01*
X0284469Y0086455D01*
X0284353Y0086533D01*
X0284239Y0086614D01*
X0284127Y0086699D01*
X0284018Y0086786D01*
X0283911Y0086876D01*
X0283807Y0086970D01*
X0283706Y0087066D01*
X0283607Y0087166D01*
X0283511Y0087268D01*
X0283419Y0087372D01*
X0283329Y0087480D01*
X0283242Y0087590D01*
X0283159Y0087702D01*
X0283078Y0087816D01*
X0283001Y0087933D01*
X0282928Y0088052D01*
X0282857Y0088173D01*
X0282791Y0088296D01*
X0282727Y0088421D01*
X0282668Y0088547D01*
X0282612Y0088676D01*
X0282559Y0088805D01*
X0282511Y0088936D01*
X0282466Y0089069D01*
X0282425Y0089203D01*
X0282387Y0089338D01*
X0282354Y0089473D01*
X0282324Y0089610D01*
X0282298Y0089748D01*
X0282277Y0089886D01*
X0282259Y0090025D01*
X0282245Y0090164D01*
X0282235Y0090303D01*
X0282229Y0090443D01*
X0282227Y0090583D01*
X0282227Y0011843D02*
X0282229Y0011983D01*
X0282235Y0012123D01*
X0282245Y0012262D01*
X0282259Y0012401D01*
X0282277Y0012540D01*
X0282298Y0012678D01*
X0282324Y0012816D01*
X0282354Y0012953D01*
X0282387Y0013088D01*
X0282425Y0013223D01*
X0282466Y0013357D01*
X0282511Y0013490D01*
X0282559Y0013621D01*
X0282612Y0013750D01*
X0282668Y0013879D01*
X0282727Y0014005D01*
X0282791Y0014130D01*
X0282857Y0014253D01*
X0282928Y0014374D01*
X0283001Y0014493D01*
X0283078Y0014610D01*
X0283159Y0014724D01*
X0283242Y0014836D01*
X0283329Y0014946D01*
X0283419Y0015054D01*
X0283511Y0015158D01*
X0283607Y0015260D01*
X0283706Y0015360D01*
X0283807Y0015456D01*
X0283911Y0015550D01*
X0284018Y0015640D01*
X0284127Y0015727D01*
X0284239Y0015812D01*
X0284353Y0015893D01*
X0284469Y0015971D01*
X0284587Y0016045D01*
X0284708Y0016116D01*
X0284830Y0016184D01*
X0284955Y0016248D01*
X0285081Y0016309D01*
X0285208Y0016366D01*
X0285338Y0016419D01*
X0285469Y0016469D01*
X0285601Y0016514D01*
X0285734Y0016557D01*
X0285869Y0016595D01*
X0286004Y0016629D01*
X0286141Y0016660D01*
X0286278Y0016687D01*
X0286416Y0016709D01*
X0286555Y0016728D01*
X0286694Y0016743D01*
X0286833Y0016754D01*
X0286973Y0016761D01*
X0287113Y0016764D01*
X0287253Y0016763D01*
X0287393Y0016758D01*
X0287532Y0016749D01*
X0287672Y0016736D01*
X0287811Y0016719D01*
X0287949Y0016698D01*
X0288087Y0016674D01*
X0288224Y0016645D01*
X0288360Y0016613D01*
X0288495Y0016576D01*
X0288629Y0016536D01*
X0288762Y0016492D01*
X0288893Y0016444D01*
X0289023Y0016393D01*
X0289152Y0016338D01*
X0289279Y0016279D01*
X0289404Y0016216D01*
X0289527Y0016151D01*
X0289649Y0016081D01*
X0289768Y0016008D01*
X0289886Y0015932D01*
X0290001Y0015853D01*
X0290114Y0015770D01*
X0290224Y0015684D01*
X0290332Y0015595D01*
X0290437Y0015503D01*
X0290540Y0015408D01*
X0290640Y0015310D01*
X0290737Y0015210D01*
X0290831Y0015106D01*
X0290923Y0015000D01*
X0291011Y0014892D01*
X0291096Y0014781D01*
X0291178Y0014667D01*
X0291257Y0014551D01*
X0291332Y0014434D01*
X0291404Y0014314D01*
X0291472Y0014192D01*
X0291537Y0014068D01*
X0291599Y0013942D01*
X0291657Y0013815D01*
X0291711Y0013686D01*
X0291762Y0013555D01*
X0291808Y0013423D01*
X0291851Y0013290D01*
X0291891Y0013156D01*
X0291926Y0013021D01*
X0291958Y0012884D01*
X0291985Y0012747D01*
X0292009Y0012609D01*
X0292029Y0012471D01*
X0292045Y0012332D01*
X0292057Y0012192D01*
X0292065Y0012053D01*
X0292069Y0011913D01*
X0292069Y0011773D01*
X0292065Y0011633D01*
X0292057Y0011494D01*
X0292045Y0011354D01*
X0292029Y0011215D01*
X0292009Y0011077D01*
X0291985Y0010939D01*
X0291958Y0010802D01*
X0291926Y0010665D01*
X0291891Y0010530D01*
X0291851Y0010396D01*
X0291808Y0010263D01*
X0291762Y0010131D01*
X0291711Y0010000D01*
X0291657Y0009871D01*
X0291599Y0009744D01*
X0291537Y0009618D01*
X0291472Y0009494D01*
X0291404Y0009372D01*
X0291332Y0009252D01*
X0291257Y0009135D01*
X0291178Y0009019D01*
X0291096Y0008905D01*
X0291011Y0008794D01*
X0290923Y0008686D01*
X0290831Y0008580D01*
X0290737Y0008476D01*
X0290640Y0008376D01*
X0290540Y0008278D01*
X0290437Y0008183D01*
X0290332Y0008091D01*
X0290224Y0008002D01*
X0290114Y0007916D01*
X0290001Y0007833D01*
X0289886Y0007754D01*
X0289768Y0007678D01*
X0289649Y0007605D01*
X0289527Y0007535D01*
X0289404Y0007470D01*
X0289279Y0007407D01*
X0289152Y0007348D01*
X0289023Y0007293D01*
X0288893Y0007242D01*
X0288762Y0007194D01*
X0288629Y0007150D01*
X0288495Y0007110D01*
X0288360Y0007073D01*
X0288224Y0007041D01*
X0288087Y0007012D01*
X0287949Y0006988D01*
X0287811Y0006967D01*
X0287672Y0006950D01*
X0287532Y0006937D01*
X0287393Y0006928D01*
X0287253Y0006923D01*
X0287113Y0006922D01*
X0286973Y0006925D01*
X0286833Y0006932D01*
X0286694Y0006943D01*
X0286555Y0006958D01*
X0286416Y0006977D01*
X0286278Y0006999D01*
X0286141Y0007026D01*
X0286004Y0007057D01*
X0285869Y0007091D01*
X0285734Y0007129D01*
X0285601Y0007172D01*
X0285469Y0007217D01*
X0285338Y0007267D01*
X0285208Y0007320D01*
X0285081Y0007377D01*
X0284955Y0007438D01*
X0284830Y0007502D01*
X0284708Y0007570D01*
X0284587Y0007641D01*
X0284469Y0007715D01*
X0284353Y0007793D01*
X0284239Y0007874D01*
X0284127Y0007959D01*
X0284018Y0008046D01*
X0283911Y0008136D01*
X0283807Y0008230D01*
X0283706Y0008326D01*
X0283607Y0008426D01*
X0283511Y0008528D01*
X0283419Y0008632D01*
X0283329Y0008740D01*
X0283242Y0008850D01*
X0283159Y0008962D01*
X0283078Y0009076D01*
X0283001Y0009193D01*
X0282928Y0009312D01*
X0282857Y0009433D01*
X0282791Y0009556D01*
X0282727Y0009681D01*
X0282668Y0009807D01*
X0282612Y0009936D01*
X0282559Y0010065D01*
X0282511Y0010196D01*
X0282466Y0010329D01*
X0282425Y0010463D01*
X0282387Y0010598D01*
X0282354Y0010733D01*
X0282324Y0010870D01*
X0282298Y0011008D01*
X0282277Y0011146D01*
X0282259Y0011285D01*
X0282245Y0011424D01*
X0282235Y0011563D01*
X0282229Y0011703D01*
X0282227Y0011843D01*
M02*
