G75*
%MOIN*%
%OFA0B0*%
%FSLAX25Y25*%
%IPPOS*%
%LPD*%
%AMOC8*
5,1,8,0,0,1.08239X$1,22.5*
%
%ADD10C,0.00000*%
%ADD11C,0.00300*%
%ADD12C,0.00600*%
%ADD13R,0.02000X0.10000*%
%ADD14C,0.00400*%
%ADD15R,0.05709X0.02953*%
%ADD16R,0.02953X0.05709*%
%ADD17C,0.00800*%
%ADD18R,0.07300X0.12600*%
%ADD19R,0.07300X0.03400*%
%ADD20C,0.00500*%
%ADD21C,0.01000*%
%ADD22R,0.02000X0.02000*%
%ADD23R,0.04000X0.06000*%
D10*
X0058802Y0005150D02*
X0058802Y0096488D01*
X0058791Y0096607D01*
X0058783Y0096726D01*
X0058780Y0096845D01*
X0058781Y0096964D01*
X0058786Y0097083D01*
X0058794Y0097202D01*
X0058807Y0097320D01*
X0058824Y0097438D01*
X0058844Y0097556D01*
X0058869Y0097672D01*
X0058897Y0097788D01*
X0058929Y0097903D01*
X0058965Y0098016D01*
X0059005Y0098129D01*
X0059049Y0098240D01*
X0059096Y0098349D01*
X0059147Y0098457D01*
X0059201Y0098563D01*
X0059259Y0098667D01*
X0059320Y0098769D01*
X0059385Y0098869D01*
X0059453Y0098967D01*
X0059524Y0099062D01*
X0059599Y0099155D01*
X0059676Y0099246D01*
X0059757Y0099334D01*
X0059840Y0099419D01*
X0059926Y0099501D01*
X0060015Y0099580D01*
X0060107Y0099657D01*
X0060201Y0099730D01*
X0060297Y0099800D01*
X0060396Y0099867D01*
X0060496Y0099930D01*
X0060599Y0099990D01*
X0060704Y0100047D01*
X0060811Y0100100D01*
X0060919Y0100149D01*
X0061029Y0100195D01*
X0061141Y0100237D01*
X0061253Y0100276D01*
X0061367Y0100310D01*
X0061483Y0100341D01*
X0061599Y0100368D01*
X0061716Y0100391D01*
X0061833Y0100410D01*
X0061951Y0100425D01*
X0292069Y0100425D01*
X0292185Y0100436D01*
X0292302Y0100443D01*
X0292419Y0100447D01*
X0292535Y0100446D01*
X0292652Y0100442D01*
X0292768Y0100434D01*
X0292884Y0100422D01*
X0293000Y0100406D01*
X0293115Y0100387D01*
X0293229Y0100364D01*
X0293343Y0100337D01*
X0293455Y0100306D01*
X0293567Y0100272D01*
X0293677Y0100234D01*
X0293786Y0100192D01*
X0293894Y0100147D01*
X0294000Y0100099D01*
X0294104Y0100047D01*
X0294207Y0099991D01*
X0294308Y0099933D01*
X0294406Y0099871D01*
X0294503Y0099805D01*
X0294598Y0099737D01*
X0294690Y0099666D01*
X0294780Y0099591D01*
X0294867Y0099514D01*
X0294952Y0099434D01*
X0295034Y0099351D01*
X0295114Y0099266D01*
X0295190Y0099178D01*
X0295264Y0099087D01*
X0295335Y0098995D01*
X0295402Y0098899D01*
X0295467Y0098802D01*
X0295528Y0098703D01*
X0295586Y0098602D01*
X0295640Y0098499D01*
X0295692Y0098394D01*
X0295739Y0098287D01*
X0295784Y0098179D01*
X0295824Y0098070D01*
X0295861Y0097959D01*
X0295895Y0097848D01*
X0295924Y0097735D01*
X0295951Y0097621D01*
X0295973Y0097507D01*
X0295991Y0097391D01*
X0296006Y0097276D01*
X0296006Y0005937D01*
X0296017Y0005821D01*
X0296024Y0005704D01*
X0296028Y0005587D01*
X0296027Y0005471D01*
X0296023Y0005354D01*
X0296015Y0005238D01*
X0296003Y0005122D01*
X0295987Y0005006D01*
X0295968Y0004891D01*
X0295945Y0004777D01*
X0295918Y0004663D01*
X0295887Y0004551D01*
X0295853Y0004439D01*
X0295815Y0004329D01*
X0295773Y0004220D01*
X0295728Y0004112D01*
X0295680Y0004006D01*
X0295628Y0003902D01*
X0295572Y0003799D01*
X0295514Y0003698D01*
X0295452Y0003600D01*
X0295386Y0003503D01*
X0295318Y0003408D01*
X0295247Y0003316D01*
X0295172Y0003226D01*
X0295095Y0003139D01*
X0295015Y0003054D01*
X0294932Y0002972D01*
X0294847Y0002892D01*
X0294759Y0002816D01*
X0294668Y0002742D01*
X0294576Y0002671D01*
X0294480Y0002604D01*
X0294383Y0002539D01*
X0294284Y0002478D01*
X0294183Y0002420D01*
X0294080Y0002366D01*
X0293975Y0002314D01*
X0293868Y0002267D01*
X0293760Y0002222D01*
X0293651Y0002182D01*
X0293540Y0002145D01*
X0293429Y0002111D01*
X0293316Y0002082D01*
X0293202Y0002055D01*
X0293088Y0002033D01*
X0292972Y0002015D01*
X0292857Y0002000D01*
X0062739Y0002000D01*
X0062623Y0001989D01*
X0062506Y0001982D01*
X0062389Y0001978D01*
X0062273Y0001979D01*
X0062156Y0001983D01*
X0062040Y0001991D01*
X0061924Y0002003D01*
X0061808Y0002019D01*
X0061693Y0002038D01*
X0061579Y0002061D01*
X0061465Y0002088D01*
X0061353Y0002119D01*
X0061241Y0002153D01*
X0061131Y0002191D01*
X0061022Y0002233D01*
X0060914Y0002278D01*
X0060808Y0002326D01*
X0060704Y0002378D01*
X0060601Y0002434D01*
X0060500Y0002492D01*
X0060402Y0002554D01*
X0060305Y0002620D01*
X0060210Y0002688D01*
X0060118Y0002759D01*
X0060028Y0002834D01*
X0059941Y0002911D01*
X0059856Y0002991D01*
X0059774Y0003074D01*
X0059694Y0003159D01*
X0059618Y0003247D01*
X0059544Y0003338D01*
X0059473Y0003430D01*
X0059406Y0003526D01*
X0059341Y0003623D01*
X0059280Y0003722D01*
X0059222Y0003823D01*
X0059168Y0003926D01*
X0059116Y0004031D01*
X0059069Y0004138D01*
X0059024Y0004246D01*
X0058984Y0004355D01*
X0058947Y0004466D01*
X0058913Y0004577D01*
X0058884Y0004690D01*
X0058857Y0004804D01*
X0058835Y0004918D01*
X0058817Y0005034D01*
X0058802Y0005149D01*
X0063723Y0011843D02*
X0063725Y0011983D01*
X0063731Y0012123D01*
X0063741Y0012262D01*
X0063755Y0012401D01*
X0063773Y0012540D01*
X0063794Y0012678D01*
X0063820Y0012816D01*
X0063850Y0012953D01*
X0063883Y0013088D01*
X0063921Y0013223D01*
X0063962Y0013357D01*
X0064007Y0013490D01*
X0064055Y0013621D01*
X0064108Y0013750D01*
X0064164Y0013879D01*
X0064223Y0014005D01*
X0064287Y0014130D01*
X0064353Y0014253D01*
X0064424Y0014374D01*
X0064497Y0014493D01*
X0064574Y0014610D01*
X0064655Y0014724D01*
X0064738Y0014836D01*
X0064825Y0014946D01*
X0064915Y0015054D01*
X0065007Y0015158D01*
X0065103Y0015260D01*
X0065202Y0015360D01*
X0065303Y0015456D01*
X0065407Y0015550D01*
X0065514Y0015640D01*
X0065623Y0015727D01*
X0065735Y0015812D01*
X0065849Y0015893D01*
X0065965Y0015971D01*
X0066083Y0016045D01*
X0066204Y0016116D01*
X0066326Y0016184D01*
X0066451Y0016248D01*
X0066577Y0016309D01*
X0066704Y0016366D01*
X0066834Y0016419D01*
X0066965Y0016469D01*
X0067097Y0016514D01*
X0067230Y0016557D01*
X0067365Y0016595D01*
X0067500Y0016629D01*
X0067637Y0016660D01*
X0067774Y0016687D01*
X0067912Y0016709D01*
X0068051Y0016728D01*
X0068190Y0016743D01*
X0068329Y0016754D01*
X0068469Y0016761D01*
X0068609Y0016764D01*
X0068749Y0016763D01*
X0068889Y0016758D01*
X0069028Y0016749D01*
X0069168Y0016736D01*
X0069307Y0016719D01*
X0069445Y0016698D01*
X0069583Y0016674D01*
X0069720Y0016645D01*
X0069856Y0016613D01*
X0069991Y0016576D01*
X0070125Y0016536D01*
X0070258Y0016492D01*
X0070389Y0016444D01*
X0070519Y0016393D01*
X0070648Y0016338D01*
X0070775Y0016279D01*
X0070900Y0016216D01*
X0071023Y0016151D01*
X0071145Y0016081D01*
X0071264Y0016008D01*
X0071382Y0015932D01*
X0071497Y0015853D01*
X0071610Y0015770D01*
X0071720Y0015684D01*
X0071828Y0015595D01*
X0071933Y0015503D01*
X0072036Y0015408D01*
X0072136Y0015310D01*
X0072233Y0015210D01*
X0072327Y0015106D01*
X0072419Y0015000D01*
X0072507Y0014892D01*
X0072592Y0014781D01*
X0072674Y0014667D01*
X0072753Y0014551D01*
X0072828Y0014434D01*
X0072900Y0014314D01*
X0072968Y0014192D01*
X0073033Y0014068D01*
X0073095Y0013942D01*
X0073153Y0013815D01*
X0073207Y0013686D01*
X0073258Y0013555D01*
X0073304Y0013423D01*
X0073347Y0013290D01*
X0073387Y0013156D01*
X0073422Y0013021D01*
X0073454Y0012884D01*
X0073481Y0012747D01*
X0073505Y0012609D01*
X0073525Y0012471D01*
X0073541Y0012332D01*
X0073553Y0012192D01*
X0073561Y0012053D01*
X0073565Y0011913D01*
X0073565Y0011773D01*
X0073561Y0011633D01*
X0073553Y0011494D01*
X0073541Y0011354D01*
X0073525Y0011215D01*
X0073505Y0011077D01*
X0073481Y0010939D01*
X0073454Y0010802D01*
X0073422Y0010665D01*
X0073387Y0010530D01*
X0073347Y0010396D01*
X0073304Y0010263D01*
X0073258Y0010131D01*
X0073207Y0010000D01*
X0073153Y0009871D01*
X0073095Y0009744D01*
X0073033Y0009618D01*
X0072968Y0009494D01*
X0072900Y0009372D01*
X0072828Y0009252D01*
X0072753Y0009135D01*
X0072674Y0009019D01*
X0072592Y0008905D01*
X0072507Y0008794D01*
X0072419Y0008686D01*
X0072327Y0008580D01*
X0072233Y0008476D01*
X0072136Y0008376D01*
X0072036Y0008278D01*
X0071933Y0008183D01*
X0071828Y0008091D01*
X0071720Y0008002D01*
X0071610Y0007916D01*
X0071497Y0007833D01*
X0071382Y0007754D01*
X0071264Y0007678D01*
X0071145Y0007605D01*
X0071023Y0007535D01*
X0070900Y0007470D01*
X0070775Y0007407D01*
X0070648Y0007348D01*
X0070519Y0007293D01*
X0070389Y0007242D01*
X0070258Y0007194D01*
X0070125Y0007150D01*
X0069991Y0007110D01*
X0069856Y0007073D01*
X0069720Y0007041D01*
X0069583Y0007012D01*
X0069445Y0006988D01*
X0069307Y0006967D01*
X0069168Y0006950D01*
X0069028Y0006937D01*
X0068889Y0006928D01*
X0068749Y0006923D01*
X0068609Y0006922D01*
X0068469Y0006925D01*
X0068329Y0006932D01*
X0068190Y0006943D01*
X0068051Y0006958D01*
X0067912Y0006977D01*
X0067774Y0006999D01*
X0067637Y0007026D01*
X0067500Y0007057D01*
X0067365Y0007091D01*
X0067230Y0007129D01*
X0067097Y0007172D01*
X0066965Y0007217D01*
X0066834Y0007267D01*
X0066704Y0007320D01*
X0066577Y0007377D01*
X0066451Y0007438D01*
X0066326Y0007502D01*
X0066204Y0007570D01*
X0066083Y0007641D01*
X0065965Y0007715D01*
X0065849Y0007793D01*
X0065735Y0007874D01*
X0065623Y0007959D01*
X0065514Y0008046D01*
X0065407Y0008136D01*
X0065303Y0008230D01*
X0065202Y0008326D01*
X0065103Y0008426D01*
X0065007Y0008528D01*
X0064915Y0008632D01*
X0064825Y0008740D01*
X0064738Y0008850D01*
X0064655Y0008962D01*
X0064574Y0009076D01*
X0064497Y0009193D01*
X0064424Y0009312D01*
X0064353Y0009433D01*
X0064287Y0009556D01*
X0064223Y0009681D01*
X0064164Y0009807D01*
X0064108Y0009936D01*
X0064055Y0010065D01*
X0064007Y0010196D01*
X0063962Y0010329D01*
X0063921Y0010463D01*
X0063883Y0010598D01*
X0063850Y0010733D01*
X0063820Y0010870D01*
X0063794Y0011008D01*
X0063773Y0011146D01*
X0063755Y0011285D01*
X0063741Y0011424D01*
X0063731Y0011563D01*
X0063725Y0011703D01*
X0063723Y0011843D01*
X0066085Y0027469D02*
X0066087Y0027548D01*
X0066093Y0027627D01*
X0066103Y0027706D01*
X0066117Y0027784D01*
X0066134Y0027861D01*
X0066156Y0027937D01*
X0066181Y0028012D01*
X0066211Y0028085D01*
X0066243Y0028157D01*
X0066280Y0028228D01*
X0066320Y0028296D01*
X0066363Y0028362D01*
X0066409Y0028426D01*
X0066459Y0028488D01*
X0066512Y0028547D01*
X0066567Y0028603D01*
X0066626Y0028657D01*
X0066687Y0028707D01*
X0066750Y0028755D01*
X0066816Y0028799D01*
X0066884Y0028840D01*
X0066954Y0028877D01*
X0067025Y0028911D01*
X0067099Y0028941D01*
X0067173Y0028967D01*
X0067249Y0028989D01*
X0067326Y0029008D01*
X0067404Y0029023D01*
X0067482Y0029034D01*
X0067561Y0029041D01*
X0067640Y0029044D01*
X0067719Y0029043D01*
X0067798Y0029038D01*
X0067877Y0029029D01*
X0067955Y0029016D01*
X0068032Y0028999D01*
X0068109Y0028979D01*
X0068184Y0028954D01*
X0068258Y0028926D01*
X0068331Y0028894D01*
X0068401Y0028859D01*
X0068470Y0028820D01*
X0068537Y0028777D01*
X0068602Y0028731D01*
X0068664Y0028683D01*
X0068724Y0028631D01*
X0068781Y0028576D01*
X0068835Y0028518D01*
X0068886Y0028458D01*
X0068934Y0028395D01*
X0068979Y0028330D01*
X0069021Y0028262D01*
X0069059Y0028193D01*
X0069093Y0028122D01*
X0069124Y0028049D01*
X0069152Y0027974D01*
X0069175Y0027899D01*
X0069195Y0027822D01*
X0069211Y0027745D01*
X0069223Y0027666D01*
X0069231Y0027588D01*
X0069235Y0027509D01*
X0069235Y0027429D01*
X0069231Y0027350D01*
X0069223Y0027272D01*
X0069211Y0027193D01*
X0069195Y0027116D01*
X0069175Y0027039D01*
X0069152Y0026964D01*
X0069124Y0026889D01*
X0069093Y0026816D01*
X0069059Y0026745D01*
X0069021Y0026676D01*
X0068979Y0026608D01*
X0068934Y0026543D01*
X0068886Y0026480D01*
X0068835Y0026420D01*
X0068781Y0026362D01*
X0068724Y0026307D01*
X0068664Y0026255D01*
X0068602Y0026207D01*
X0068537Y0026161D01*
X0068470Y0026118D01*
X0068401Y0026079D01*
X0068331Y0026044D01*
X0068258Y0026012D01*
X0068184Y0025984D01*
X0068109Y0025959D01*
X0068032Y0025939D01*
X0067955Y0025922D01*
X0067877Y0025909D01*
X0067798Y0025900D01*
X0067719Y0025895D01*
X0067640Y0025894D01*
X0067561Y0025897D01*
X0067482Y0025904D01*
X0067404Y0025915D01*
X0067326Y0025930D01*
X0067249Y0025949D01*
X0067173Y0025971D01*
X0067099Y0025997D01*
X0067025Y0026027D01*
X0066954Y0026061D01*
X0066884Y0026098D01*
X0066816Y0026139D01*
X0066750Y0026183D01*
X0066687Y0026231D01*
X0066626Y0026281D01*
X0066567Y0026335D01*
X0066512Y0026391D01*
X0066459Y0026450D01*
X0066409Y0026512D01*
X0066363Y0026576D01*
X0066320Y0026642D01*
X0066280Y0026710D01*
X0066243Y0026781D01*
X0066211Y0026853D01*
X0066181Y0026926D01*
X0066156Y0027001D01*
X0066134Y0027077D01*
X0066117Y0027154D01*
X0066103Y0027232D01*
X0066093Y0027311D01*
X0066087Y0027390D01*
X0066085Y0027469D01*
X0067660Y0027469D02*
X0067662Y0027548D01*
X0067668Y0027627D01*
X0067678Y0027706D01*
X0067692Y0027784D01*
X0067709Y0027861D01*
X0067731Y0027937D01*
X0067756Y0028012D01*
X0067786Y0028085D01*
X0067818Y0028157D01*
X0067855Y0028228D01*
X0067895Y0028296D01*
X0067938Y0028362D01*
X0067984Y0028426D01*
X0068034Y0028488D01*
X0068087Y0028547D01*
X0068142Y0028603D01*
X0068201Y0028657D01*
X0068262Y0028707D01*
X0068325Y0028755D01*
X0068391Y0028799D01*
X0068459Y0028840D01*
X0068529Y0028877D01*
X0068600Y0028911D01*
X0068674Y0028941D01*
X0068748Y0028967D01*
X0068824Y0028989D01*
X0068901Y0029008D01*
X0068979Y0029023D01*
X0069057Y0029034D01*
X0069136Y0029041D01*
X0069215Y0029044D01*
X0069294Y0029043D01*
X0069373Y0029038D01*
X0069452Y0029029D01*
X0069530Y0029016D01*
X0069607Y0028999D01*
X0069684Y0028979D01*
X0069759Y0028954D01*
X0069833Y0028926D01*
X0069906Y0028894D01*
X0069976Y0028859D01*
X0070045Y0028820D01*
X0070112Y0028777D01*
X0070177Y0028731D01*
X0070239Y0028683D01*
X0070299Y0028631D01*
X0070356Y0028576D01*
X0070410Y0028518D01*
X0070461Y0028458D01*
X0070509Y0028395D01*
X0070554Y0028330D01*
X0070596Y0028262D01*
X0070634Y0028193D01*
X0070668Y0028122D01*
X0070699Y0028049D01*
X0070727Y0027974D01*
X0070750Y0027899D01*
X0070770Y0027822D01*
X0070786Y0027745D01*
X0070798Y0027666D01*
X0070806Y0027588D01*
X0070810Y0027509D01*
X0070810Y0027429D01*
X0070806Y0027350D01*
X0070798Y0027272D01*
X0070786Y0027193D01*
X0070770Y0027116D01*
X0070750Y0027039D01*
X0070727Y0026964D01*
X0070699Y0026889D01*
X0070668Y0026816D01*
X0070634Y0026745D01*
X0070596Y0026676D01*
X0070554Y0026608D01*
X0070509Y0026543D01*
X0070461Y0026480D01*
X0070410Y0026420D01*
X0070356Y0026362D01*
X0070299Y0026307D01*
X0070239Y0026255D01*
X0070177Y0026207D01*
X0070112Y0026161D01*
X0070045Y0026118D01*
X0069976Y0026079D01*
X0069906Y0026044D01*
X0069833Y0026012D01*
X0069759Y0025984D01*
X0069684Y0025959D01*
X0069607Y0025939D01*
X0069530Y0025922D01*
X0069452Y0025909D01*
X0069373Y0025900D01*
X0069294Y0025895D01*
X0069215Y0025894D01*
X0069136Y0025897D01*
X0069057Y0025904D01*
X0068979Y0025915D01*
X0068901Y0025930D01*
X0068824Y0025949D01*
X0068748Y0025971D01*
X0068674Y0025997D01*
X0068600Y0026027D01*
X0068529Y0026061D01*
X0068459Y0026098D01*
X0068391Y0026139D01*
X0068325Y0026183D01*
X0068262Y0026231D01*
X0068201Y0026281D01*
X0068142Y0026335D01*
X0068087Y0026391D01*
X0068034Y0026450D01*
X0067984Y0026512D01*
X0067938Y0026576D01*
X0067895Y0026642D01*
X0067855Y0026710D01*
X0067818Y0026781D01*
X0067786Y0026853D01*
X0067756Y0026926D01*
X0067731Y0027001D01*
X0067709Y0027077D01*
X0067692Y0027154D01*
X0067678Y0027232D01*
X0067668Y0027311D01*
X0067662Y0027390D01*
X0067660Y0027469D01*
X0070809Y0027469D02*
X0070811Y0027548D01*
X0070817Y0027627D01*
X0070827Y0027706D01*
X0070841Y0027784D01*
X0070858Y0027861D01*
X0070880Y0027937D01*
X0070905Y0028012D01*
X0070935Y0028085D01*
X0070967Y0028157D01*
X0071004Y0028228D01*
X0071044Y0028296D01*
X0071087Y0028362D01*
X0071133Y0028426D01*
X0071183Y0028488D01*
X0071236Y0028547D01*
X0071291Y0028603D01*
X0071350Y0028657D01*
X0071411Y0028707D01*
X0071474Y0028755D01*
X0071540Y0028799D01*
X0071608Y0028840D01*
X0071678Y0028877D01*
X0071749Y0028911D01*
X0071823Y0028941D01*
X0071897Y0028967D01*
X0071973Y0028989D01*
X0072050Y0029008D01*
X0072128Y0029023D01*
X0072206Y0029034D01*
X0072285Y0029041D01*
X0072364Y0029044D01*
X0072443Y0029043D01*
X0072522Y0029038D01*
X0072601Y0029029D01*
X0072679Y0029016D01*
X0072756Y0028999D01*
X0072833Y0028979D01*
X0072908Y0028954D01*
X0072982Y0028926D01*
X0073055Y0028894D01*
X0073125Y0028859D01*
X0073194Y0028820D01*
X0073261Y0028777D01*
X0073326Y0028731D01*
X0073388Y0028683D01*
X0073448Y0028631D01*
X0073505Y0028576D01*
X0073559Y0028518D01*
X0073610Y0028458D01*
X0073658Y0028395D01*
X0073703Y0028330D01*
X0073745Y0028262D01*
X0073783Y0028193D01*
X0073817Y0028122D01*
X0073848Y0028049D01*
X0073876Y0027974D01*
X0073899Y0027899D01*
X0073919Y0027822D01*
X0073935Y0027745D01*
X0073947Y0027666D01*
X0073955Y0027588D01*
X0073959Y0027509D01*
X0073959Y0027429D01*
X0073955Y0027350D01*
X0073947Y0027272D01*
X0073935Y0027193D01*
X0073919Y0027116D01*
X0073899Y0027039D01*
X0073876Y0026964D01*
X0073848Y0026889D01*
X0073817Y0026816D01*
X0073783Y0026745D01*
X0073745Y0026676D01*
X0073703Y0026608D01*
X0073658Y0026543D01*
X0073610Y0026480D01*
X0073559Y0026420D01*
X0073505Y0026362D01*
X0073448Y0026307D01*
X0073388Y0026255D01*
X0073326Y0026207D01*
X0073261Y0026161D01*
X0073194Y0026118D01*
X0073125Y0026079D01*
X0073055Y0026044D01*
X0072982Y0026012D01*
X0072908Y0025984D01*
X0072833Y0025959D01*
X0072756Y0025939D01*
X0072679Y0025922D01*
X0072601Y0025909D01*
X0072522Y0025900D01*
X0072443Y0025895D01*
X0072364Y0025894D01*
X0072285Y0025897D01*
X0072206Y0025904D01*
X0072128Y0025915D01*
X0072050Y0025930D01*
X0071973Y0025949D01*
X0071897Y0025971D01*
X0071823Y0025997D01*
X0071749Y0026027D01*
X0071678Y0026061D01*
X0071608Y0026098D01*
X0071540Y0026139D01*
X0071474Y0026183D01*
X0071411Y0026231D01*
X0071350Y0026281D01*
X0071291Y0026335D01*
X0071236Y0026391D01*
X0071183Y0026450D01*
X0071133Y0026512D01*
X0071087Y0026576D01*
X0071044Y0026642D01*
X0071004Y0026710D01*
X0070967Y0026781D01*
X0070935Y0026853D01*
X0070905Y0026926D01*
X0070880Y0027001D01*
X0070858Y0027077D01*
X0070841Y0027154D01*
X0070827Y0027232D01*
X0070817Y0027311D01*
X0070811Y0027390D01*
X0070809Y0027469D01*
X0072384Y0027469D02*
X0072386Y0027548D01*
X0072392Y0027627D01*
X0072402Y0027706D01*
X0072416Y0027784D01*
X0072433Y0027861D01*
X0072455Y0027937D01*
X0072480Y0028012D01*
X0072510Y0028085D01*
X0072542Y0028157D01*
X0072579Y0028228D01*
X0072619Y0028296D01*
X0072662Y0028362D01*
X0072708Y0028426D01*
X0072758Y0028488D01*
X0072811Y0028547D01*
X0072866Y0028603D01*
X0072925Y0028657D01*
X0072986Y0028707D01*
X0073049Y0028755D01*
X0073115Y0028799D01*
X0073183Y0028840D01*
X0073253Y0028877D01*
X0073324Y0028911D01*
X0073398Y0028941D01*
X0073472Y0028967D01*
X0073548Y0028989D01*
X0073625Y0029008D01*
X0073703Y0029023D01*
X0073781Y0029034D01*
X0073860Y0029041D01*
X0073939Y0029044D01*
X0074018Y0029043D01*
X0074097Y0029038D01*
X0074176Y0029029D01*
X0074254Y0029016D01*
X0074331Y0028999D01*
X0074408Y0028979D01*
X0074483Y0028954D01*
X0074557Y0028926D01*
X0074630Y0028894D01*
X0074700Y0028859D01*
X0074769Y0028820D01*
X0074836Y0028777D01*
X0074901Y0028731D01*
X0074963Y0028683D01*
X0075023Y0028631D01*
X0075080Y0028576D01*
X0075134Y0028518D01*
X0075185Y0028458D01*
X0075233Y0028395D01*
X0075278Y0028330D01*
X0075320Y0028262D01*
X0075358Y0028193D01*
X0075392Y0028122D01*
X0075423Y0028049D01*
X0075451Y0027974D01*
X0075474Y0027899D01*
X0075494Y0027822D01*
X0075510Y0027745D01*
X0075522Y0027666D01*
X0075530Y0027588D01*
X0075534Y0027509D01*
X0075534Y0027429D01*
X0075530Y0027350D01*
X0075522Y0027272D01*
X0075510Y0027193D01*
X0075494Y0027116D01*
X0075474Y0027039D01*
X0075451Y0026964D01*
X0075423Y0026889D01*
X0075392Y0026816D01*
X0075358Y0026745D01*
X0075320Y0026676D01*
X0075278Y0026608D01*
X0075233Y0026543D01*
X0075185Y0026480D01*
X0075134Y0026420D01*
X0075080Y0026362D01*
X0075023Y0026307D01*
X0074963Y0026255D01*
X0074901Y0026207D01*
X0074836Y0026161D01*
X0074769Y0026118D01*
X0074700Y0026079D01*
X0074630Y0026044D01*
X0074557Y0026012D01*
X0074483Y0025984D01*
X0074408Y0025959D01*
X0074331Y0025939D01*
X0074254Y0025922D01*
X0074176Y0025909D01*
X0074097Y0025900D01*
X0074018Y0025895D01*
X0073939Y0025894D01*
X0073860Y0025897D01*
X0073781Y0025904D01*
X0073703Y0025915D01*
X0073625Y0025930D01*
X0073548Y0025949D01*
X0073472Y0025971D01*
X0073398Y0025997D01*
X0073324Y0026027D01*
X0073253Y0026061D01*
X0073183Y0026098D01*
X0073115Y0026139D01*
X0073049Y0026183D01*
X0072986Y0026231D01*
X0072925Y0026281D01*
X0072866Y0026335D01*
X0072811Y0026391D01*
X0072758Y0026450D01*
X0072708Y0026512D01*
X0072662Y0026576D01*
X0072619Y0026642D01*
X0072579Y0026710D01*
X0072542Y0026781D01*
X0072510Y0026853D01*
X0072480Y0026926D01*
X0072455Y0027001D01*
X0072433Y0027077D01*
X0072416Y0027154D01*
X0072402Y0027232D01*
X0072392Y0027311D01*
X0072386Y0027390D01*
X0072384Y0027469D01*
X0070809Y0073531D02*
X0070811Y0073610D01*
X0070817Y0073689D01*
X0070827Y0073768D01*
X0070841Y0073846D01*
X0070858Y0073923D01*
X0070880Y0073999D01*
X0070905Y0074074D01*
X0070935Y0074147D01*
X0070967Y0074219D01*
X0071004Y0074290D01*
X0071044Y0074358D01*
X0071087Y0074424D01*
X0071133Y0074488D01*
X0071183Y0074550D01*
X0071236Y0074609D01*
X0071291Y0074665D01*
X0071350Y0074719D01*
X0071411Y0074769D01*
X0071474Y0074817D01*
X0071540Y0074861D01*
X0071608Y0074902D01*
X0071678Y0074939D01*
X0071749Y0074973D01*
X0071823Y0075003D01*
X0071897Y0075029D01*
X0071973Y0075051D01*
X0072050Y0075070D01*
X0072128Y0075085D01*
X0072206Y0075096D01*
X0072285Y0075103D01*
X0072364Y0075106D01*
X0072443Y0075105D01*
X0072522Y0075100D01*
X0072601Y0075091D01*
X0072679Y0075078D01*
X0072756Y0075061D01*
X0072833Y0075041D01*
X0072908Y0075016D01*
X0072982Y0074988D01*
X0073055Y0074956D01*
X0073125Y0074921D01*
X0073194Y0074882D01*
X0073261Y0074839D01*
X0073326Y0074793D01*
X0073388Y0074745D01*
X0073448Y0074693D01*
X0073505Y0074638D01*
X0073559Y0074580D01*
X0073610Y0074520D01*
X0073658Y0074457D01*
X0073703Y0074392D01*
X0073745Y0074324D01*
X0073783Y0074255D01*
X0073817Y0074184D01*
X0073848Y0074111D01*
X0073876Y0074036D01*
X0073899Y0073961D01*
X0073919Y0073884D01*
X0073935Y0073807D01*
X0073947Y0073728D01*
X0073955Y0073650D01*
X0073959Y0073571D01*
X0073959Y0073491D01*
X0073955Y0073412D01*
X0073947Y0073334D01*
X0073935Y0073255D01*
X0073919Y0073178D01*
X0073899Y0073101D01*
X0073876Y0073026D01*
X0073848Y0072951D01*
X0073817Y0072878D01*
X0073783Y0072807D01*
X0073745Y0072738D01*
X0073703Y0072670D01*
X0073658Y0072605D01*
X0073610Y0072542D01*
X0073559Y0072482D01*
X0073505Y0072424D01*
X0073448Y0072369D01*
X0073388Y0072317D01*
X0073326Y0072269D01*
X0073261Y0072223D01*
X0073194Y0072180D01*
X0073125Y0072141D01*
X0073055Y0072106D01*
X0072982Y0072074D01*
X0072908Y0072046D01*
X0072833Y0072021D01*
X0072756Y0072001D01*
X0072679Y0071984D01*
X0072601Y0071971D01*
X0072522Y0071962D01*
X0072443Y0071957D01*
X0072364Y0071956D01*
X0072285Y0071959D01*
X0072206Y0071966D01*
X0072128Y0071977D01*
X0072050Y0071992D01*
X0071973Y0072011D01*
X0071897Y0072033D01*
X0071823Y0072059D01*
X0071749Y0072089D01*
X0071678Y0072123D01*
X0071608Y0072160D01*
X0071540Y0072201D01*
X0071474Y0072245D01*
X0071411Y0072293D01*
X0071350Y0072343D01*
X0071291Y0072397D01*
X0071236Y0072453D01*
X0071183Y0072512D01*
X0071133Y0072574D01*
X0071087Y0072638D01*
X0071044Y0072704D01*
X0071004Y0072772D01*
X0070967Y0072843D01*
X0070935Y0072915D01*
X0070905Y0072988D01*
X0070880Y0073063D01*
X0070858Y0073139D01*
X0070841Y0073216D01*
X0070827Y0073294D01*
X0070817Y0073373D01*
X0070811Y0073452D01*
X0070809Y0073531D01*
X0067660Y0073531D02*
X0067662Y0073610D01*
X0067668Y0073689D01*
X0067678Y0073768D01*
X0067692Y0073846D01*
X0067709Y0073923D01*
X0067731Y0073999D01*
X0067756Y0074074D01*
X0067786Y0074147D01*
X0067818Y0074219D01*
X0067855Y0074290D01*
X0067895Y0074358D01*
X0067938Y0074424D01*
X0067984Y0074488D01*
X0068034Y0074550D01*
X0068087Y0074609D01*
X0068142Y0074665D01*
X0068201Y0074719D01*
X0068262Y0074769D01*
X0068325Y0074817D01*
X0068391Y0074861D01*
X0068459Y0074902D01*
X0068529Y0074939D01*
X0068600Y0074973D01*
X0068674Y0075003D01*
X0068748Y0075029D01*
X0068824Y0075051D01*
X0068901Y0075070D01*
X0068979Y0075085D01*
X0069057Y0075096D01*
X0069136Y0075103D01*
X0069215Y0075106D01*
X0069294Y0075105D01*
X0069373Y0075100D01*
X0069452Y0075091D01*
X0069530Y0075078D01*
X0069607Y0075061D01*
X0069684Y0075041D01*
X0069759Y0075016D01*
X0069833Y0074988D01*
X0069906Y0074956D01*
X0069976Y0074921D01*
X0070045Y0074882D01*
X0070112Y0074839D01*
X0070177Y0074793D01*
X0070239Y0074745D01*
X0070299Y0074693D01*
X0070356Y0074638D01*
X0070410Y0074580D01*
X0070461Y0074520D01*
X0070509Y0074457D01*
X0070554Y0074392D01*
X0070596Y0074324D01*
X0070634Y0074255D01*
X0070668Y0074184D01*
X0070699Y0074111D01*
X0070727Y0074036D01*
X0070750Y0073961D01*
X0070770Y0073884D01*
X0070786Y0073807D01*
X0070798Y0073728D01*
X0070806Y0073650D01*
X0070810Y0073571D01*
X0070810Y0073491D01*
X0070806Y0073412D01*
X0070798Y0073334D01*
X0070786Y0073255D01*
X0070770Y0073178D01*
X0070750Y0073101D01*
X0070727Y0073026D01*
X0070699Y0072951D01*
X0070668Y0072878D01*
X0070634Y0072807D01*
X0070596Y0072738D01*
X0070554Y0072670D01*
X0070509Y0072605D01*
X0070461Y0072542D01*
X0070410Y0072482D01*
X0070356Y0072424D01*
X0070299Y0072369D01*
X0070239Y0072317D01*
X0070177Y0072269D01*
X0070112Y0072223D01*
X0070045Y0072180D01*
X0069976Y0072141D01*
X0069906Y0072106D01*
X0069833Y0072074D01*
X0069759Y0072046D01*
X0069684Y0072021D01*
X0069607Y0072001D01*
X0069530Y0071984D01*
X0069452Y0071971D01*
X0069373Y0071962D01*
X0069294Y0071957D01*
X0069215Y0071956D01*
X0069136Y0071959D01*
X0069057Y0071966D01*
X0068979Y0071977D01*
X0068901Y0071992D01*
X0068824Y0072011D01*
X0068748Y0072033D01*
X0068674Y0072059D01*
X0068600Y0072089D01*
X0068529Y0072123D01*
X0068459Y0072160D01*
X0068391Y0072201D01*
X0068325Y0072245D01*
X0068262Y0072293D01*
X0068201Y0072343D01*
X0068142Y0072397D01*
X0068087Y0072453D01*
X0068034Y0072512D01*
X0067984Y0072574D01*
X0067938Y0072638D01*
X0067895Y0072704D01*
X0067855Y0072772D01*
X0067818Y0072843D01*
X0067786Y0072915D01*
X0067756Y0072988D01*
X0067731Y0073063D01*
X0067709Y0073139D01*
X0067692Y0073216D01*
X0067678Y0073294D01*
X0067668Y0073373D01*
X0067662Y0073452D01*
X0067660Y0073531D01*
X0066085Y0073531D02*
X0066087Y0073610D01*
X0066093Y0073689D01*
X0066103Y0073768D01*
X0066117Y0073846D01*
X0066134Y0073923D01*
X0066156Y0073999D01*
X0066181Y0074074D01*
X0066211Y0074147D01*
X0066243Y0074219D01*
X0066280Y0074290D01*
X0066320Y0074358D01*
X0066363Y0074424D01*
X0066409Y0074488D01*
X0066459Y0074550D01*
X0066512Y0074609D01*
X0066567Y0074665D01*
X0066626Y0074719D01*
X0066687Y0074769D01*
X0066750Y0074817D01*
X0066816Y0074861D01*
X0066884Y0074902D01*
X0066954Y0074939D01*
X0067025Y0074973D01*
X0067099Y0075003D01*
X0067173Y0075029D01*
X0067249Y0075051D01*
X0067326Y0075070D01*
X0067404Y0075085D01*
X0067482Y0075096D01*
X0067561Y0075103D01*
X0067640Y0075106D01*
X0067719Y0075105D01*
X0067798Y0075100D01*
X0067877Y0075091D01*
X0067955Y0075078D01*
X0068032Y0075061D01*
X0068109Y0075041D01*
X0068184Y0075016D01*
X0068258Y0074988D01*
X0068331Y0074956D01*
X0068401Y0074921D01*
X0068470Y0074882D01*
X0068537Y0074839D01*
X0068602Y0074793D01*
X0068664Y0074745D01*
X0068724Y0074693D01*
X0068781Y0074638D01*
X0068835Y0074580D01*
X0068886Y0074520D01*
X0068934Y0074457D01*
X0068979Y0074392D01*
X0069021Y0074324D01*
X0069059Y0074255D01*
X0069093Y0074184D01*
X0069124Y0074111D01*
X0069152Y0074036D01*
X0069175Y0073961D01*
X0069195Y0073884D01*
X0069211Y0073807D01*
X0069223Y0073728D01*
X0069231Y0073650D01*
X0069235Y0073571D01*
X0069235Y0073491D01*
X0069231Y0073412D01*
X0069223Y0073334D01*
X0069211Y0073255D01*
X0069195Y0073178D01*
X0069175Y0073101D01*
X0069152Y0073026D01*
X0069124Y0072951D01*
X0069093Y0072878D01*
X0069059Y0072807D01*
X0069021Y0072738D01*
X0068979Y0072670D01*
X0068934Y0072605D01*
X0068886Y0072542D01*
X0068835Y0072482D01*
X0068781Y0072424D01*
X0068724Y0072369D01*
X0068664Y0072317D01*
X0068602Y0072269D01*
X0068537Y0072223D01*
X0068470Y0072180D01*
X0068401Y0072141D01*
X0068331Y0072106D01*
X0068258Y0072074D01*
X0068184Y0072046D01*
X0068109Y0072021D01*
X0068032Y0072001D01*
X0067955Y0071984D01*
X0067877Y0071971D01*
X0067798Y0071962D01*
X0067719Y0071957D01*
X0067640Y0071956D01*
X0067561Y0071959D01*
X0067482Y0071966D01*
X0067404Y0071977D01*
X0067326Y0071992D01*
X0067249Y0072011D01*
X0067173Y0072033D01*
X0067099Y0072059D01*
X0067025Y0072089D01*
X0066954Y0072123D01*
X0066884Y0072160D01*
X0066816Y0072201D01*
X0066750Y0072245D01*
X0066687Y0072293D01*
X0066626Y0072343D01*
X0066567Y0072397D01*
X0066512Y0072453D01*
X0066459Y0072512D01*
X0066409Y0072574D01*
X0066363Y0072638D01*
X0066320Y0072704D01*
X0066280Y0072772D01*
X0066243Y0072843D01*
X0066211Y0072915D01*
X0066181Y0072988D01*
X0066156Y0073063D01*
X0066134Y0073139D01*
X0066117Y0073216D01*
X0066103Y0073294D01*
X0066093Y0073373D01*
X0066087Y0073452D01*
X0066085Y0073531D01*
X0072384Y0073531D02*
X0072386Y0073610D01*
X0072392Y0073689D01*
X0072402Y0073768D01*
X0072416Y0073846D01*
X0072433Y0073923D01*
X0072455Y0073999D01*
X0072480Y0074074D01*
X0072510Y0074147D01*
X0072542Y0074219D01*
X0072579Y0074290D01*
X0072619Y0074358D01*
X0072662Y0074424D01*
X0072708Y0074488D01*
X0072758Y0074550D01*
X0072811Y0074609D01*
X0072866Y0074665D01*
X0072925Y0074719D01*
X0072986Y0074769D01*
X0073049Y0074817D01*
X0073115Y0074861D01*
X0073183Y0074902D01*
X0073253Y0074939D01*
X0073324Y0074973D01*
X0073398Y0075003D01*
X0073472Y0075029D01*
X0073548Y0075051D01*
X0073625Y0075070D01*
X0073703Y0075085D01*
X0073781Y0075096D01*
X0073860Y0075103D01*
X0073939Y0075106D01*
X0074018Y0075105D01*
X0074097Y0075100D01*
X0074176Y0075091D01*
X0074254Y0075078D01*
X0074331Y0075061D01*
X0074408Y0075041D01*
X0074483Y0075016D01*
X0074557Y0074988D01*
X0074630Y0074956D01*
X0074700Y0074921D01*
X0074769Y0074882D01*
X0074836Y0074839D01*
X0074901Y0074793D01*
X0074963Y0074745D01*
X0075023Y0074693D01*
X0075080Y0074638D01*
X0075134Y0074580D01*
X0075185Y0074520D01*
X0075233Y0074457D01*
X0075278Y0074392D01*
X0075320Y0074324D01*
X0075358Y0074255D01*
X0075392Y0074184D01*
X0075423Y0074111D01*
X0075451Y0074036D01*
X0075474Y0073961D01*
X0075494Y0073884D01*
X0075510Y0073807D01*
X0075522Y0073728D01*
X0075530Y0073650D01*
X0075534Y0073571D01*
X0075534Y0073491D01*
X0075530Y0073412D01*
X0075522Y0073334D01*
X0075510Y0073255D01*
X0075494Y0073178D01*
X0075474Y0073101D01*
X0075451Y0073026D01*
X0075423Y0072951D01*
X0075392Y0072878D01*
X0075358Y0072807D01*
X0075320Y0072738D01*
X0075278Y0072670D01*
X0075233Y0072605D01*
X0075185Y0072542D01*
X0075134Y0072482D01*
X0075080Y0072424D01*
X0075023Y0072369D01*
X0074963Y0072317D01*
X0074901Y0072269D01*
X0074836Y0072223D01*
X0074769Y0072180D01*
X0074700Y0072141D01*
X0074630Y0072106D01*
X0074557Y0072074D01*
X0074483Y0072046D01*
X0074408Y0072021D01*
X0074331Y0072001D01*
X0074254Y0071984D01*
X0074176Y0071971D01*
X0074097Y0071962D01*
X0074018Y0071957D01*
X0073939Y0071956D01*
X0073860Y0071959D01*
X0073781Y0071966D01*
X0073703Y0071977D01*
X0073625Y0071992D01*
X0073548Y0072011D01*
X0073472Y0072033D01*
X0073398Y0072059D01*
X0073324Y0072089D01*
X0073253Y0072123D01*
X0073183Y0072160D01*
X0073115Y0072201D01*
X0073049Y0072245D01*
X0072986Y0072293D01*
X0072925Y0072343D01*
X0072866Y0072397D01*
X0072811Y0072453D01*
X0072758Y0072512D01*
X0072708Y0072574D01*
X0072662Y0072638D01*
X0072619Y0072704D01*
X0072579Y0072772D01*
X0072542Y0072843D01*
X0072510Y0072915D01*
X0072480Y0072988D01*
X0072455Y0073063D01*
X0072433Y0073139D01*
X0072416Y0073216D01*
X0072402Y0073294D01*
X0072392Y0073373D01*
X0072386Y0073452D01*
X0072384Y0073531D01*
X0063723Y0090583D02*
X0063725Y0090723D01*
X0063731Y0090863D01*
X0063741Y0091002D01*
X0063755Y0091141D01*
X0063773Y0091280D01*
X0063794Y0091418D01*
X0063820Y0091556D01*
X0063850Y0091693D01*
X0063883Y0091828D01*
X0063921Y0091963D01*
X0063962Y0092097D01*
X0064007Y0092230D01*
X0064055Y0092361D01*
X0064108Y0092490D01*
X0064164Y0092619D01*
X0064223Y0092745D01*
X0064287Y0092870D01*
X0064353Y0092993D01*
X0064424Y0093114D01*
X0064497Y0093233D01*
X0064574Y0093350D01*
X0064655Y0093464D01*
X0064738Y0093576D01*
X0064825Y0093686D01*
X0064915Y0093794D01*
X0065007Y0093898D01*
X0065103Y0094000D01*
X0065202Y0094100D01*
X0065303Y0094196D01*
X0065407Y0094290D01*
X0065514Y0094380D01*
X0065623Y0094467D01*
X0065735Y0094552D01*
X0065849Y0094633D01*
X0065965Y0094711D01*
X0066083Y0094785D01*
X0066204Y0094856D01*
X0066326Y0094924D01*
X0066451Y0094988D01*
X0066577Y0095049D01*
X0066704Y0095106D01*
X0066834Y0095159D01*
X0066965Y0095209D01*
X0067097Y0095254D01*
X0067230Y0095297D01*
X0067365Y0095335D01*
X0067500Y0095369D01*
X0067637Y0095400D01*
X0067774Y0095427D01*
X0067912Y0095449D01*
X0068051Y0095468D01*
X0068190Y0095483D01*
X0068329Y0095494D01*
X0068469Y0095501D01*
X0068609Y0095504D01*
X0068749Y0095503D01*
X0068889Y0095498D01*
X0069028Y0095489D01*
X0069168Y0095476D01*
X0069307Y0095459D01*
X0069445Y0095438D01*
X0069583Y0095414D01*
X0069720Y0095385D01*
X0069856Y0095353D01*
X0069991Y0095316D01*
X0070125Y0095276D01*
X0070258Y0095232D01*
X0070389Y0095184D01*
X0070519Y0095133D01*
X0070648Y0095078D01*
X0070775Y0095019D01*
X0070900Y0094956D01*
X0071023Y0094891D01*
X0071145Y0094821D01*
X0071264Y0094748D01*
X0071382Y0094672D01*
X0071497Y0094593D01*
X0071610Y0094510D01*
X0071720Y0094424D01*
X0071828Y0094335D01*
X0071933Y0094243D01*
X0072036Y0094148D01*
X0072136Y0094050D01*
X0072233Y0093950D01*
X0072327Y0093846D01*
X0072419Y0093740D01*
X0072507Y0093632D01*
X0072592Y0093521D01*
X0072674Y0093407D01*
X0072753Y0093291D01*
X0072828Y0093174D01*
X0072900Y0093054D01*
X0072968Y0092932D01*
X0073033Y0092808D01*
X0073095Y0092682D01*
X0073153Y0092555D01*
X0073207Y0092426D01*
X0073258Y0092295D01*
X0073304Y0092163D01*
X0073347Y0092030D01*
X0073387Y0091896D01*
X0073422Y0091761D01*
X0073454Y0091624D01*
X0073481Y0091487D01*
X0073505Y0091349D01*
X0073525Y0091211D01*
X0073541Y0091072D01*
X0073553Y0090932D01*
X0073561Y0090793D01*
X0073565Y0090653D01*
X0073565Y0090513D01*
X0073561Y0090373D01*
X0073553Y0090234D01*
X0073541Y0090094D01*
X0073525Y0089955D01*
X0073505Y0089817D01*
X0073481Y0089679D01*
X0073454Y0089542D01*
X0073422Y0089405D01*
X0073387Y0089270D01*
X0073347Y0089136D01*
X0073304Y0089003D01*
X0073258Y0088871D01*
X0073207Y0088740D01*
X0073153Y0088611D01*
X0073095Y0088484D01*
X0073033Y0088358D01*
X0072968Y0088234D01*
X0072900Y0088112D01*
X0072828Y0087992D01*
X0072753Y0087875D01*
X0072674Y0087759D01*
X0072592Y0087645D01*
X0072507Y0087534D01*
X0072419Y0087426D01*
X0072327Y0087320D01*
X0072233Y0087216D01*
X0072136Y0087116D01*
X0072036Y0087018D01*
X0071933Y0086923D01*
X0071828Y0086831D01*
X0071720Y0086742D01*
X0071610Y0086656D01*
X0071497Y0086573D01*
X0071382Y0086494D01*
X0071264Y0086418D01*
X0071145Y0086345D01*
X0071023Y0086275D01*
X0070900Y0086210D01*
X0070775Y0086147D01*
X0070648Y0086088D01*
X0070519Y0086033D01*
X0070389Y0085982D01*
X0070258Y0085934D01*
X0070125Y0085890D01*
X0069991Y0085850D01*
X0069856Y0085813D01*
X0069720Y0085781D01*
X0069583Y0085752D01*
X0069445Y0085728D01*
X0069307Y0085707D01*
X0069168Y0085690D01*
X0069028Y0085677D01*
X0068889Y0085668D01*
X0068749Y0085663D01*
X0068609Y0085662D01*
X0068469Y0085665D01*
X0068329Y0085672D01*
X0068190Y0085683D01*
X0068051Y0085698D01*
X0067912Y0085717D01*
X0067774Y0085739D01*
X0067637Y0085766D01*
X0067500Y0085797D01*
X0067365Y0085831D01*
X0067230Y0085869D01*
X0067097Y0085912D01*
X0066965Y0085957D01*
X0066834Y0086007D01*
X0066704Y0086060D01*
X0066577Y0086117D01*
X0066451Y0086178D01*
X0066326Y0086242D01*
X0066204Y0086310D01*
X0066083Y0086381D01*
X0065965Y0086455D01*
X0065849Y0086533D01*
X0065735Y0086614D01*
X0065623Y0086699D01*
X0065514Y0086786D01*
X0065407Y0086876D01*
X0065303Y0086970D01*
X0065202Y0087066D01*
X0065103Y0087166D01*
X0065007Y0087268D01*
X0064915Y0087372D01*
X0064825Y0087480D01*
X0064738Y0087590D01*
X0064655Y0087702D01*
X0064574Y0087816D01*
X0064497Y0087933D01*
X0064424Y0088052D01*
X0064353Y0088173D01*
X0064287Y0088296D01*
X0064223Y0088421D01*
X0064164Y0088547D01*
X0064108Y0088676D01*
X0064055Y0088805D01*
X0064007Y0088936D01*
X0063962Y0089069D01*
X0063921Y0089203D01*
X0063883Y0089338D01*
X0063850Y0089473D01*
X0063820Y0089610D01*
X0063794Y0089748D01*
X0063773Y0089886D01*
X0063755Y0090025D01*
X0063741Y0090164D01*
X0063731Y0090303D01*
X0063725Y0090443D01*
X0063723Y0090583D01*
X0282227Y0090583D02*
X0282229Y0090723D01*
X0282235Y0090863D01*
X0282245Y0091002D01*
X0282259Y0091141D01*
X0282277Y0091280D01*
X0282298Y0091418D01*
X0282324Y0091556D01*
X0282354Y0091693D01*
X0282387Y0091828D01*
X0282425Y0091963D01*
X0282466Y0092097D01*
X0282511Y0092230D01*
X0282559Y0092361D01*
X0282612Y0092490D01*
X0282668Y0092619D01*
X0282727Y0092745D01*
X0282791Y0092870D01*
X0282857Y0092993D01*
X0282928Y0093114D01*
X0283001Y0093233D01*
X0283078Y0093350D01*
X0283159Y0093464D01*
X0283242Y0093576D01*
X0283329Y0093686D01*
X0283419Y0093794D01*
X0283511Y0093898D01*
X0283607Y0094000D01*
X0283706Y0094100D01*
X0283807Y0094196D01*
X0283911Y0094290D01*
X0284018Y0094380D01*
X0284127Y0094467D01*
X0284239Y0094552D01*
X0284353Y0094633D01*
X0284469Y0094711D01*
X0284587Y0094785D01*
X0284708Y0094856D01*
X0284830Y0094924D01*
X0284955Y0094988D01*
X0285081Y0095049D01*
X0285208Y0095106D01*
X0285338Y0095159D01*
X0285469Y0095209D01*
X0285601Y0095254D01*
X0285734Y0095297D01*
X0285869Y0095335D01*
X0286004Y0095369D01*
X0286141Y0095400D01*
X0286278Y0095427D01*
X0286416Y0095449D01*
X0286555Y0095468D01*
X0286694Y0095483D01*
X0286833Y0095494D01*
X0286973Y0095501D01*
X0287113Y0095504D01*
X0287253Y0095503D01*
X0287393Y0095498D01*
X0287532Y0095489D01*
X0287672Y0095476D01*
X0287811Y0095459D01*
X0287949Y0095438D01*
X0288087Y0095414D01*
X0288224Y0095385D01*
X0288360Y0095353D01*
X0288495Y0095316D01*
X0288629Y0095276D01*
X0288762Y0095232D01*
X0288893Y0095184D01*
X0289023Y0095133D01*
X0289152Y0095078D01*
X0289279Y0095019D01*
X0289404Y0094956D01*
X0289527Y0094891D01*
X0289649Y0094821D01*
X0289768Y0094748D01*
X0289886Y0094672D01*
X0290001Y0094593D01*
X0290114Y0094510D01*
X0290224Y0094424D01*
X0290332Y0094335D01*
X0290437Y0094243D01*
X0290540Y0094148D01*
X0290640Y0094050D01*
X0290737Y0093950D01*
X0290831Y0093846D01*
X0290923Y0093740D01*
X0291011Y0093632D01*
X0291096Y0093521D01*
X0291178Y0093407D01*
X0291257Y0093291D01*
X0291332Y0093174D01*
X0291404Y0093054D01*
X0291472Y0092932D01*
X0291537Y0092808D01*
X0291599Y0092682D01*
X0291657Y0092555D01*
X0291711Y0092426D01*
X0291762Y0092295D01*
X0291808Y0092163D01*
X0291851Y0092030D01*
X0291891Y0091896D01*
X0291926Y0091761D01*
X0291958Y0091624D01*
X0291985Y0091487D01*
X0292009Y0091349D01*
X0292029Y0091211D01*
X0292045Y0091072D01*
X0292057Y0090932D01*
X0292065Y0090793D01*
X0292069Y0090653D01*
X0292069Y0090513D01*
X0292065Y0090373D01*
X0292057Y0090234D01*
X0292045Y0090094D01*
X0292029Y0089955D01*
X0292009Y0089817D01*
X0291985Y0089679D01*
X0291958Y0089542D01*
X0291926Y0089405D01*
X0291891Y0089270D01*
X0291851Y0089136D01*
X0291808Y0089003D01*
X0291762Y0088871D01*
X0291711Y0088740D01*
X0291657Y0088611D01*
X0291599Y0088484D01*
X0291537Y0088358D01*
X0291472Y0088234D01*
X0291404Y0088112D01*
X0291332Y0087992D01*
X0291257Y0087875D01*
X0291178Y0087759D01*
X0291096Y0087645D01*
X0291011Y0087534D01*
X0290923Y0087426D01*
X0290831Y0087320D01*
X0290737Y0087216D01*
X0290640Y0087116D01*
X0290540Y0087018D01*
X0290437Y0086923D01*
X0290332Y0086831D01*
X0290224Y0086742D01*
X0290114Y0086656D01*
X0290001Y0086573D01*
X0289886Y0086494D01*
X0289768Y0086418D01*
X0289649Y0086345D01*
X0289527Y0086275D01*
X0289404Y0086210D01*
X0289279Y0086147D01*
X0289152Y0086088D01*
X0289023Y0086033D01*
X0288893Y0085982D01*
X0288762Y0085934D01*
X0288629Y0085890D01*
X0288495Y0085850D01*
X0288360Y0085813D01*
X0288224Y0085781D01*
X0288087Y0085752D01*
X0287949Y0085728D01*
X0287811Y0085707D01*
X0287672Y0085690D01*
X0287532Y0085677D01*
X0287393Y0085668D01*
X0287253Y0085663D01*
X0287113Y0085662D01*
X0286973Y0085665D01*
X0286833Y0085672D01*
X0286694Y0085683D01*
X0286555Y0085698D01*
X0286416Y0085717D01*
X0286278Y0085739D01*
X0286141Y0085766D01*
X0286004Y0085797D01*
X0285869Y0085831D01*
X0285734Y0085869D01*
X0285601Y0085912D01*
X0285469Y0085957D01*
X0285338Y0086007D01*
X0285208Y0086060D01*
X0285081Y0086117D01*
X0284955Y0086178D01*
X0284830Y0086242D01*
X0284708Y0086310D01*
X0284587Y0086381D01*
X0284469Y0086455D01*
X0284353Y0086533D01*
X0284239Y0086614D01*
X0284127Y0086699D01*
X0284018Y0086786D01*
X0283911Y0086876D01*
X0283807Y0086970D01*
X0283706Y0087066D01*
X0283607Y0087166D01*
X0283511Y0087268D01*
X0283419Y0087372D01*
X0283329Y0087480D01*
X0283242Y0087590D01*
X0283159Y0087702D01*
X0283078Y0087816D01*
X0283001Y0087933D01*
X0282928Y0088052D01*
X0282857Y0088173D01*
X0282791Y0088296D01*
X0282727Y0088421D01*
X0282668Y0088547D01*
X0282612Y0088676D01*
X0282559Y0088805D01*
X0282511Y0088936D01*
X0282466Y0089069D01*
X0282425Y0089203D01*
X0282387Y0089338D01*
X0282354Y0089473D01*
X0282324Y0089610D01*
X0282298Y0089748D01*
X0282277Y0089886D01*
X0282259Y0090025D01*
X0282245Y0090164D01*
X0282235Y0090303D01*
X0282229Y0090443D01*
X0282227Y0090583D01*
X0282227Y0011843D02*
X0282229Y0011983D01*
X0282235Y0012123D01*
X0282245Y0012262D01*
X0282259Y0012401D01*
X0282277Y0012540D01*
X0282298Y0012678D01*
X0282324Y0012816D01*
X0282354Y0012953D01*
X0282387Y0013088D01*
X0282425Y0013223D01*
X0282466Y0013357D01*
X0282511Y0013490D01*
X0282559Y0013621D01*
X0282612Y0013750D01*
X0282668Y0013879D01*
X0282727Y0014005D01*
X0282791Y0014130D01*
X0282857Y0014253D01*
X0282928Y0014374D01*
X0283001Y0014493D01*
X0283078Y0014610D01*
X0283159Y0014724D01*
X0283242Y0014836D01*
X0283329Y0014946D01*
X0283419Y0015054D01*
X0283511Y0015158D01*
X0283607Y0015260D01*
X0283706Y0015360D01*
X0283807Y0015456D01*
X0283911Y0015550D01*
X0284018Y0015640D01*
X0284127Y0015727D01*
X0284239Y0015812D01*
X0284353Y0015893D01*
X0284469Y0015971D01*
X0284587Y0016045D01*
X0284708Y0016116D01*
X0284830Y0016184D01*
X0284955Y0016248D01*
X0285081Y0016309D01*
X0285208Y0016366D01*
X0285338Y0016419D01*
X0285469Y0016469D01*
X0285601Y0016514D01*
X0285734Y0016557D01*
X0285869Y0016595D01*
X0286004Y0016629D01*
X0286141Y0016660D01*
X0286278Y0016687D01*
X0286416Y0016709D01*
X0286555Y0016728D01*
X0286694Y0016743D01*
X0286833Y0016754D01*
X0286973Y0016761D01*
X0287113Y0016764D01*
X0287253Y0016763D01*
X0287393Y0016758D01*
X0287532Y0016749D01*
X0287672Y0016736D01*
X0287811Y0016719D01*
X0287949Y0016698D01*
X0288087Y0016674D01*
X0288224Y0016645D01*
X0288360Y0016613D01*
X0288495Y0016576D01*
X0288629Y0016536D01*
X0288762Y0016492D01*
X0288893Y0016444D01*
X0289023Y0016393D01*
X0289152Y0016338D01*
X0289279Y0016279D01*
X0289404Y0016216D01*
X0289527Y0016151D01*
X0289649Y0016081D01*
X0289768Y0016008D01*
X0289886Y0015932D01*
X0290001Y0015853D01*
X0290114Y0015770D01*
X0290224Y0015684D01*
X0290332Y0015595D01*
X0290437Y0015503D01*
X0290540Y0015408D01*
X0290640Y0015310D01*
X0290737Y0015210D01*
X0290831Y0015106D01*
X0290923Y0015000D01*
X0291011Y0014892D01*
X0291096Y0014781D01*
X0291178Y0014667D01*
X0291257Y0014551D01*
X0291332Y0014434D01*
X0291404Y0014314D01*
X0291472Y0014192D01*
X0291537Y0014068D01*
X0291599Y0013942D01*
X0291657Y0013815D01*
X0291711Y0013686D01*
X0291762Y0013555D01*
X0291808Y0013423D01*
X0291851Y0013290D01*
X0291891Y0013156D01*
X0291926Y0013021D01*
X0291958Y0012884D01*
X0291985Y0012747D01*
X0292009Y0012609D01*
X0292029Y0012471D01*
X0292045Y0012332D01*
X0292057Y0012192D01*
X0292065Y0012053D01*
X0292069Y0011913D01*
X0292069Y0011773D01*
X0292065Y0011633D01*
X0292057Y0011494D01*
X0292045Y0011354D01*
X0292029Y0011215D01*
X0292009Y0011077D01*
X0291985Y0010939D01*
X0291958Y0010802D01*
X0291926Y0010665D01*
X0291891Y0010530D01*
X0291851Y0010396D01*
X0291808Y0010263D01*
X0291762Y0010131D01*
X0291711Y0010000D01*
X0291657Y0009871D01*
X0291599Y0009744D01*
X0291537Y0009618D01*
X0291472Y0009494D01*
X0291404Y0009372D01*
X0291332Y0009252D01*
X0291257Y0009135D01*
X0291178Y0009019D01*
X0291096Y0008905D01*
X0291011Y0008794D01*
X0290923Y0008686D01*
X0290831Y0008580D01*
X0290737Y0008476D01*
X0290640Y0008376D01*
X0290540Y0008278D01*
X0290437Y0008183D01*
X0290332Y0008091D01*
X0290224Y0008002D01*
X0290114Y0007916D01*
X0290001Y0007833D01*
X0289886Y0007754D01*
X0289768Y0007678D01*
X0289649Y0007605D01*
X0289527Y0007535D01*
X0289404Y0007470D01*
X0289279Y0007407D01*
X0289152Y0007348D01*
X0289023Y0007293D01*
X0288893Y0007242D01*
X0288762Y0007194D01*
X0288629Y0007150D01*
X0288495Y0007110D01*
X0288360Y0007073D01*
X0288224Y0007041D01*
X0288087Y0007012D01*
X0287949Y0006988D01*
X0287811Y0006967D01*
X0287672Y0006950D01*
X0287532Y0006937D01*
X0287393Y0006928D01*
X0287253Y0006923D01*
X0287113Y0006922D01*
X0286973Y0006925D01*
X0286833Y0006932D01*
X0286694Y0006943D01*
X0286555Y0006958D01*
X0286416Y0006977D01*
X0286278Y0006999D01*
X0286141Y0007026D01*
X0286004Y0007057D01*
X0285869Y0007091D01*
X0285734Y0007129D01*
X0285601Y0007172D01*
X0285469Y0007217D01*
X0285338Y0007267D01*
X0285208Y0007320D01*
X0285081Y0007377D01*
X0284955Y0007438D01*
X0284830Y0007502D01*
X0284708Y0007570D01*
X0284587Y0007641D01*
X0284469Y0007715D01*
X0284353Y0007793D01*
X0284239Y0007874D01*
X0284127Y0007959D01*
X0284018Y0008046D01*
X0283911Y0008136D01*
X0283807Y0008230D01*
X0283706Y0008326D01*
X0283607Y0008426D01*
X0283511Y0008528D01*
X0283419Y0008632D01*
X0283329Y0008740D01*
X0283242Y0008850D01*
X0283159Y0008962D01*
X0283078Y0009076D01*
X0283001Y0009193D01*
X0282928Y0009312D01*
X0282857Y0009433D01*
X0282791Y0009556D01*
X0282727Y0009681D01*
X0282668Y0009807D01*
X0282612Y0009936D01*
X0282559Y0010065D01*
X0282511Y0010196D01*
X0282466Y0010329D01*
X0282425Y0010463D01*
X0282387Y0010598D01*
X0282354Y0010733D01*
X0282324Y0010870D01*
X0282298Y0011008D01*
X0282277Y0011146D01*
X0282259Y0011285D01*
X0282245Y0011424D01*
X0282235Y0011563D01*
X0282229Y0011703D01*
X0282227Y0011843D01*
D11*
X0254884Y0039631D02*
X0255852Y0040599D01*
X0254884Y0041566D01*
X0252949Y0041566D01*
X0252949Y0039631D02*
X0254884Y0039631D01*
X0256335Y0042578D02*
X0256335Y0044513D01*
X0255368Y0045524D02*
X0255852Y0046008D01*
X0255852Y0046976D01*
X0255368Y0047459D01*
X0253433Y0047459D01*
X0252949Y0046976D01*
X0252949Y0046008D01*
X0253433Y0045524D01*
X0255368Y0045524D01*
X0255368Y0048471D02*
X0255852Y0048955D01*
X0255852Y0049922D01*
X0255368Y0050406D01*
X0252949Y0050406D01*
X0252949Y0051417D02*
X0252949Y0053352D01*
X0252949Y0052385D02*
X0255852Y0052385D01*
X0256335Y0054364D02*
X0256335Y0056299D01*
X0255368Y0057310D02*
X0255852Y0057794D01*
X0255852Y0058762D01*
X0255368Y0059245D01*
X0252949Y0059245D01*
X0253433Y0060257D02*
X0253917Y0060257D01*
X0254400Y0060741D01*
X0254400Y0061708D01*
X0254884Y0062192D01*
X0255368Y0062192D01*
X0255852Y0061708D01*
X0255852Y0060741D01*
X0255368Y0060257D01*
X0253433Y0060257D02*
X0252949Y0060741D01*
X0252949Y0061708D01*
X0253433Y0062192D01*
X0252949Y0063203D02*
X0252949Y0064655D01*
X0253433Y0065138D01*
X0253917Y0065138D01*
X0254400Y0064655D01*
X0254400Y0063203D01*
X0252949Y0063203D02*
X0255852Y0063203D01*
X0255852Y0064655D01*
X0255368Y0065138D01*
X0254884Y0065138D01*
X0254400Y0064655D01*
X0255368Y0057310D02*
X0252949Y0057310D01*
X0252949Y0048471D02*
X0255368Y0048471D01*
X0289749Y0048580D02*
X0290233Y0048097D01*
X0292168Y0048097D01*
X0292652Y0048580D01*
X0292652Y0049548D01*
X0292168Y0050031D01*
X0290233Y0050031D01*
X0289749Y0049548D01*
X0289749Y0048580D01*
X0289749Y0047085D02*
X0291684Y0047085D01*
X0292652Y0046117D01*
X0291684Y0045150D01*
X0289749Y0045150D01*
X0289749Y0051043D02*
X0292168Y0051043D01*
X0292652Y0051527D01*
X0292652Y0052494D01*
X0292168Y0052978D01*
X0289749Y0052978D01*
X0289749Y0053990D02*
X0289749Y0055925D01*
X0289749Y0054957D02*
X0292652Y0054957D01*
X0269368Y0083757D02*
X0267433Y0083757D01*
X0266949Y0084241D01*
X0266949Y0085208D01*
X0267433Y0085692D01*
X0266949Y0086703D02*
X0268400Y0086703D01*
X0267917Y0087671D01*
X0267917Y0088155D01*
X0268400Y0088638D01*
X0269368Y0088638D01*
X0269852Y0088155D01*
X0269852Y0087187D01*
X0269368Y0086703D01*
X0269368Y0085692D02*
X0269852Y0085208D01*
X0269852Y0084241D01*
X0269368Y0083757D01*
X0266949Y0086703D02*
X0266949Y0088638D01*
X0202726Y0078650D02*
X0200791Y0078650D01*
X0201759Y0078650D02*
X0201759Y0081552D01*
X0200791Y0080585D01*
X0199780Y0081069D02*
X0199296Y0081552D01*
X0197845Y0081552D01*
X0197845Y0078650D01*
X0199296Y0078650D01*
X0199780Y0079134D01*
X0199780Y0081069D01*
X0196833Y0081552D02*
X0194898Y0081552D01*
X0194898Y0078650D01*
X0196833Y0078650D01*
X0195866Y0080101D02*
X0194898Y0080101D01*
X0193887Y0078650D02*
X0191952Y0078650D01*
X0191952Y0081552D01*
X0179137Y0079319D02*
X0178653Y0079802D01*
X0177686Y0079802D01*
X0177202Y0079319D01*
X0177202Y0077384D01*
X0177686Y0076900D01*
X0178653Y0076900D01*
X0179137Y0077384D01*
X0179137Y0078351D01*
X0178169Y0078351D01*
X0176205Y0076900D02*
X0175238Y0076900D01*
X0175721Y0076900D02*
X0175721Y0079802D01*
X0175238Y0079802D02*
X0176205Y0079802D01*
X0174226Y0079802D02*
X0172291Y0079802D01*
X0172291Y0076900D01*
X0171280Y0076900D02*
X0171280Y0079802D01*
X0172291Y0078351D02*
X0173259Y0078351D01*
X0171280Y0076900D02*
X0169345Y0079802D01*
X0169345Y0076900D01*
X0168333Y0077384D02*
X0168333Y0079319D01*
X0167849Y0079802D01*
X0166882Y0079802D01*
X0166398Y0079319D01*
X0166398Y0077384D01*
X0166882Y0076900D01*
X0167849Y0076900D01*
X0168333Y0077384D01*
X0165387Y0077384D02*
X0164903Y0076900D01*
X0163935Y0076900D01*
X0163452Y0077384D01*
X0163452Y0079319D01*
X0163935Y0079802D01*
X0164903Y0079802D01*
X0165387Y0079319D01*
X0138652Y0079531D02*
X0138652Y0078080D01*
X0138168Y0077597D01*
X0137684Y0078080D01*
X0137684Y0079531D01*
X0137200Y0079531D02*
X0138652Y0079531D01*
X0138168Y0080543D02*
X0138652Y0081027D01*
X0138652Y0082478D01*
X0136717Y0082478D01*
X0137200Y0083490D02*
X0136717Y0083973D01*
X0136717Y0084941D01*
X0137200Y0085425D01*
X0137684Y0085425D01*
X0137684Y0083490D01*
X0138168Y0083490D02*
X0137200Y0083490D01*
X0138168Y0083490D02*
X0138652Y0083973D01*
X0138652Y0084941D01*
X0138652Y0086436D02*
X0136717Y0086436D01*
X0137684Y0086436D02*
X0136717Y0087404D01*
X0136717Y0087887D01*
X0136717Y0080543D02*
X0138168Y0080543D01*
X0137200Y0079531D02*
X0136717Y0079048D01*
X0136717Y0078080D01*
X0136233Y0076585D02*
X0135749Y0076101D01*
X0135749Y0074650D01*
X0138652Y0074650D01*
X0138652Y0076101D01*
X0138168Y0076585D01*
X0136233Y0076585D01*
X0118169Y0076150D02*
X0117686Y0076634D01*
X0117686Y0078569D01*
X0118169Y0078085D02*
X0117202Y0078085D01*
X0115721Y0079052D02*
X0115721Y0076150D01*
X0115238Y0076150D02*
X0116205Y0076150D01*
X0114226Y0076150D02*
X0114226Y0077601D01*
X0113742Y0078085D01*
X0112775Y0078085D01*
X0112775Y0077117D02*
X0114226Y0077117D01*
X0114226Y0076150D02*
X0112775Y0076150D01*
X0112291Y0076634D01*
X0112775Y0077117D01*
X0111280Y0077601D02*
X0111280Y0076150D01*
X0111280Y0077601D02*
X0110796Y0078085D01*
X0109828Y0078085D01*
X0109345Y0077601D01*
X0108333Y0078085D02*
X0106882Y0078085D01*
X0106398Y0077601D01*
X0106398Y0076634D01*
X0106882Y0076150D01*
X0108333Y0076150D01*
X0109345Y0076150D02*
X0109345Y0079052D01*
X0108935Y0079650D02*
X0108452Y0080134D01*
X0108935Y0079650D02*
X0109903Y0079650D01*
X0110387Y0080134D01*
X0110387Y0080617D01*
X0109903Y0081101D01*
X0108935Y0081101D01*
X0108452Y0081585D01*
X0108452Y0082069D01*
X0108935Y0082552D01*
X0109903Y0082552D01*
X0110387Y0082069D01*
X0112366Y0082552D02*
X0113333Y0082552D01*
X0112849Y0082552D02*
X0112849Y0080134D01*
X0112366Y0079650D01*
X0111882Y0079650D01*
X0111398Y0080134D01*
X0114345Y0079650D02*
X0116280Y0081585D01*
X0116280Y0082069D01*
X0115796Y0082552D01*
X0114828Y0082552D01*
X0114345Y0082069D01*
X0114345Y0079650D02*
X0116280Y0079650D01*
X0115721Y0079052D02*
X0115238Y0079052D01*
X0105387Y0078569D02*
X0104903Y0079052D01*
X0103935Y0079052D01*
X0103452Y0078569D01*
X0103452Y0078085D01*
X0103935Y0077601D01*
X0104903Y0077601D01*
X0105387Y0077117D01*
X0105387Y0076634D01*
X0104903Y0076150D01*
X0103935Y0076150D01*
X0103452Y0076634D01*
X0101152Y0077097D02*
X0101152Y0079031D01*
X0100668Y0080043D02*
X0101152Y0080527D01*
X0101152Y0081494D01*
X0100668Y0081978D01*
X0100184Y0081978D01*
X0099700Y0081494D01*
X0099700Y0080527D01*
X0099217Y0080043D01*
X0098733Y0080043D01*
X0098249Y0080527D01*
X0098249Y0081494D01*
X0098733Y0081978D01*
X0098249Y0079031D02*
X0098249Y0077097D01*
X0101152Y0077097D01*
X0101152Y0076085D02*
X0100184Y0075117D01*
X0100184Y0075601D02*
X0100184Y0074150D01*
X0101152Y0074150D02*
X0098249Y0074150D01*
X0098249Y0075601D01*
X0098733Y0076085D01*
X0099700Y0076085D01*
X0100184Y0075601D01*
X0099700Y0077097D02*
X0099700Y0078064D01*
X0099152Y0070531D02*
X0096249Y0068597D01*
X0096733Y0067585D02*
X0096249Y0067101D01*
X0096249Y0065650D01*
X0099152Y0065650D01*
X0098184Y0065650D02*
X0098184Y0067101D01*
X0097700Y0067585D01*
X0096733Y0067585D01*
X0098184Y0066617D02*
X0099152Y0067585D01*
X0099152Y0068597D02*
X0096249Y0070531D01*
X0089652Y0069597D02*
X0086749Y0071531D01*
X0086749Y0069597D02*
X0089652Y0071531D01*
X0086749Y0068585D02*
X0086749Y0066650D01*
X0086749Y0067617D02*
X0089652Y0067617D01*
X0078652Y0076634D02*
X0078168Y0076150D01*
X0078652Y0076634D02*
X0078652Y0077601D01*
X0078168Y0078085D01*
X0077684Y0078085D01*
X0077200Y0077601D01*
X0077200Y0076634D01*
X0076717Y0076150D01*
X0076233Y0076150D01*
X0075749Y0076634D01*
X0075749Y0077601D01*
X0076233Y0078085D01*
X0075749Y0080064D02*
X0075749Y0081031D01*
X0075749Y0080548D02*
X0078168Y0080548D01*
X0078652Y0080064D01*
X0078652Y0079580D01*
X0078168Y0079097D01*
X0078652Y0082043D02*
X0078652Y0083978D01*
X0078652Y0083011D02*
X0075749Y0083011D01*
X0076717Y0082043D01*
X0077652Y0095350D02*
X0077652Y0097285D01*
X0078619Y0098252D01*
X0079587Y0097285D01*
X0079587Y0095350D01*
X0080598Y0096317D02*
X0081566Y0095350D01*
X0082533Y0096317D01*
X0082533Y0098252D01*
X0083545Y0098252D02*
X0084512Y0098252D01*
X0084028Y0098252D02*
X0084028Y0095350D01*
X0083545Y0095350D02*
X0084512Y0095350D01*
X0085509Y0095350D02*
X0085509Y0098252D01*
X0087444Y0095350D01*
X0087444Y0098252D01*
X0091152Y0097769D02*
X0091152Y0095834D01*
X0091635Y0095350D01*
X0092603Y0095350D01*
X0093087Y0095834D01*
X0093087Y0096801D01*
X0092119Y0096801D01*
X0091152Y0097769D02*
X0091635Y0098252D01*
X0092603Y0098252D01*
X0093087Y0097769D01*
X0094098Y0098252D02*
X0096033Y0095350D01*
X0096033Y0098252D01*
X0097045Y0098252D02*
X0098496Y0098252D01*
X0098980Y0097769D01*
X0098980Y0095834D01*
X0098496Y0095350D01*
X0097045Y0095350D01*
X0097045Y0098252D01*
X0094098Y0098252D02*
X0094098Y0095350D01*
X0103452Y0095350D02*
X0103452Y0098252D01*
X0104903Y0098252D01*
X0105387Y0097769D01*
X0105387Y0096801D01*
X0104903Y0096317D01*
X0103452Y0096317D01*
X0104419Y0096317D02*
X0105387Y0095350D01*
X0106398Y0095350D02*
X0108333Y0095350D01*
X0107366Y0095350D02*
X0107366Y0098252D01*
X0106398Y0097285D01*
X0112952Y0096317D02*
X0114403Y0096317D01*
X0114887Y0096801D01*
X0114887Y0097769D01*
X0114403Y0098252D01*
X0112952Y0098252D01*
X0112952Y0095350D01*
X0113919Y0096317D02*
X0114887Y0095350D01*
X0115898Y0095350D02*
X0117833Y0097285D01*
X0117833Y0097769D01*
X0117349Y0098252D01*
X0116382Y0098252D01*
X0115898Y0097769D01*
X0115898Y0095350D02*
X0117833Y0095350D01*
X0122952Y0095350D02*
X0122952Y0098252D01*
X0124403Y0098252D01*
X0124887Y0097769D01*
X0124887Y0096801D01*
X0124403Y0096317D01*
X0122952Y0096317D01*
X0123919Y0096317D02*
X0124887Y0095350D01*
X0125898Y0095834D02*
X0126382Y0095350D01*
X0127349Y0095350D01*
X0127833Y0095834D01*
X0127833Y0096317D01*
X0127349Y0096801D01*
X0126866Y0096801D01*
X0127349Y0096801D02*
X0127833Y0097285D01*
X0127833Y0097769D01*
X0127349Y0098252D01*
X0126382Y0098252D01*
X0125898Y0097769D01*
X0132952Y0098252D02*
X0132952Y0095350D01*
X0132952Y0096317D02*
X0134403Y0096317D01*
X0134887Y0096801D01*
X0134887Y0097769D01*
X0134403Y0098252D01*
X0132952Y0098252D01*
X0135898Y0096801D02*
X0137833Y0096801D01*
X0137349Y0095350D02*
X0137349Y0098252D01*
X0135898Y0096801D01*
X0134887Y0095350D02*
X0133919Y0096317D01*
X0142452Y0095834D02*
X0142935Y0095350D01*
X0143903Y0095350D01*
X0144387Y0095834D01*
X0144387Y0096317D01*
X0143903Y0096801D01*
X0143419Y0096801D01*
X0143903Y0096801D02*
X0144387Y0097285D01*
X0144387Y0097769D01*
X0143903Y0098252D01*
X0142935Y0098252D01*
X0142452Y0097769D01*
X0145398Y0098252D02*
X0145398Y0096317D01*
X0146366Y0095350D01*
X0147333Y0096317D01*
X0147333Y0098252D01*
X0148345Y0097769D02*
X0148828Y0098252D01*
X0149796Y0098252D01*
X0150280Y0097769D01*
X0150280Y0097285D01*
X0149796Y0096801D01*
X0150280Y0096317D01*
X0150280Y0095834D01*
X0149796Y0095350D01*
X0148828Y0095350D01*
X0148345Y0095834D01*
X0149312Y0096801D02*
X0149796Y0096801D01*
X0119152Y0070494D02*
X0118668Y0070978D01*
X0116733Y0070978D01*
X0116249Y0070494D01*
X0116249Y0069043D01*
X0119152Y0069043D01*
X0119152Y0070494D01*
X0119152Y0068031D02*
X0116249Y0068031D01*
X0116249Y0066097D02*
X0119152Y0068031D01*
X0119152Y0066097D02*
X0116249Y0066097D01*
X0116733Y0065085D02*
X0116249Y0064601D01*
X0116249Y0063634D01*
X0116733Y0063150D01*
X0118668Y0063150D01*
X0119152Y0063634D01*
X0119152Y0064601D01*
X0118668Y0065085D01*
X0117700Y0065085D01*
X0117700Y0064117D01*
X0114602Y0056388D02*
X0114602Y0054453D01*
X0114602Y0055421D02*
X0111699Y0055421D01*
X0112667Y0054453D01*
X0112183Y0053442D02*
X0111699Y0052958D01*
X0111699Y0051991D01*
X0112183Y0051507D01*
X0114118Y0051507D01*
X0114602Y0051991D01*
X0114602Y0052958D01*
X0114118Y0053442D01*
X0114602Y0050510D02*
X0114602Y0049543D01*
X0114602Y0050026D02*
X0111699Y0050026D01*
X0111699Y0049543D02*
X0111699Y0050510D01*
X0115433Y0037638D02*
X0115917Y0037638D01*
X0116400Y0037155D01*
X0116884Y0037638D01*
X0117368Y0037638D01*
X0117852Y0037155D01*
X0117852Y0036187D01*
X0117368Y0035703D01*
X0117368Y0034692D02*
X0117852Y0034208D01*
X0117852Y0033241D01*
X0117368Y0032757D01*
X0115433Y0032757D01*
X0114949Y0033241D01*
X0114949Y0034208D01*
X0115433Y0034692D01*
X0115433Y0035703D02*
X0114949Y0036187D01*
X0114949Y0037155D01*
X0115433Y0037638D01*
X0116400Y0037155D02*
X0116400Y0036671D01*
X0107833Y0036069D02*
X0107833Y0035585D01*
X0105898Y0033650D01*
X0107833Y0033650D01*
X0104887Y0034134D02*
X0104403Y0033650D01*
X0103435Y0033650D01*
X0102952Y0034134D01*
X0102952Y0036069D01*
X0103435Y0036552D01*
X0104403Y0036552D01*
X0104887Y0036069D01*
X0105898Y0036069D02*
X0106382Y0036552D01*
X0107349Y0036552D01*
X0107833Y0036069D01*
X0088349Y0029052D02*
X0086898Y0027601D01*
X0088833Y0027601D01*
X0088349Y0026150D02*
X0088349Y0029052D01*
X0085887Y0028569D02*
X0085403Y0029052D01*
X0084435Y0029052D01*
X0083952Y0028569D01*
X0083952Y0026634D01*
X0084435Y0026150D01*
X0085403Y0026150D01*
X0085887Y0026634D01*
X0092249Y0023494D02*
X0092249Y0022043D01*
X0095152Y0022043D01*
X0095152Y0023494D01*
X0094668Y0023978D01*
X0092733Y0023978D01*
X0092249Y0023494D01*
X0092249Y0021031D02*
X0095152Y0021031D01*
X0092249Y0019097D01*
X0095152Y0019097D01*
X0094668Y0018085D02*
X0093700Y0018085D01*
X0093700Y0017117D01*
X0092733Y0016150D02*
X0094668Y0016150D01*
X0095152Y0016634D01*
X0095152Y0017601D01*
X0094668Y0018085D01*
X0092733Y0018085D02*
X0092249Y0017601D01*
X0092249Y0016634D01*
X0092733Y0016150D01*
X0157672Y0034450D02*
X0157672Y0037352D01*
X0159124Y0037352D01*
X0159607Y0036869D01*
X0159607Y0035901D01*
X0159124Y0035417D01*
X0157672Y0035417D01*
X0158640Y0035417D02*
X0159607Y0034450D01*
X0160619Y0034450D02*
X0162554Y0034450D01*
X0163566Y0034450D02*
X0165500Y0034450D01*
X0166512Y0034450D02*
X0166512Y0036385D01*
X0167480Y0037352D01*
X0168447Y0036385D01*
X0168447Y0034450D01*
X0170426Y0034450D02*
X0170426Y0035901D01*
X0171394Y0036869D01*
X0171394Y0037352D01*
X0172405Y0036385D02*
X0173373Y0037352D01*
X0173373Y0034450D01*
X0174340Y0034450D02*
X0172405Y0034450D01*
X0170426Y0035901D02*
X0169459Y0036869D01*
X0169459Y0037352D01*
X0168447Y0035901D02*
X0166512Y0035901D01*
X0163566Y0037352D02*
X0163566Y0034450D01*
X0160619Y0034450D02*
X0160619Y0037352D01*
X0162554Y0037352D01*
X0161586Y0035901D02*
X0160619Y0035901D01*
X0173249Y0024459D02*
X0173733Y0024942D01*
X0175668Y0024942D01*
X0176152Y0024459D01*
X0176152Y0023491D01*
X0175668Y0023007D01*
X0173733Y0023007D01*
X0173249Y0023491D01*
X0173249Y0024459D01*
X0173733Y0021996D02*
X0173249Y0021512D01*
X0173249Y0020545D01*
X0173733Y0020061D01*
X0174217Y0020061D01*
X0174700Y0020545D01*
X0174700Y0021512D01*
X0175184Y0021996D01*
X0175668Y0021996D01*
X0176152Y0021512D01*
X0176152Y0020545D01*
X0175668Y0020061D01*
X0176152Y0019064D02*
X0176152Y0018097D01*
X0176152Y0018580D02*
X0173249Y0018580D01*
X0173249Y0018097D02*
X0173249Y0019064D01*
X0173249Y0017085D02*
X0176152Y0017085D01*
X0176152Y0015150D02*
X0173249Y0015150D01*
X0174217Y0016117D01*
X0173249Y0017085D01*
X0179249Y0017085D02*
X0182152Y0017085D01*
X0181668Y0018097D02*
X0182152Y0018580D01*
X0182152Y0019548D01*
X0181668Y0020031D01*
X0179733Y0020031D01*
X0179249Y0019548D01*
X0179249Y0018580D01*
X0179733Y0018097D01*
X0181668Y0018097D01*
X0180217Y0016117D02*
X0179249Y0017085D01*
X0180217Y0016117D02*
X0179249Y0015150D01*
X0182152Y0015150D01*
X0181668Y0021043D02*
X0182152Y0021527D01*
X0182152Y0022494D01*
X0181668Y0022978D01*
X0181184Y0022978D01*
X0180700Y0022494D01*
X0180700Y0021527D01*
X0180217Y0021043D01*
X0179733Y0021043D01*
X0179249Y0021527D01*
X0179249Y0022494D01*
X0179733Y0022978D01*
X0179249Y0023990D02*
X0179249Y0024957D01*
X0179249Y0024473D02*
X0182152Y0024473D01*
X0182152Y0023990D02*
X0182152Y0024957D01*
X0165152Y0022978D02*
X0163700Y0021527D01*
X0164184Y0021043D02*
X0162249Y0022978D01*
X0162249Y0021043D02*
X0165152Y0021043D01*
X0164668Y0020031D02*
X0165152Y0019548D01*
X0165152Y0018580D01*
X0164668Y0018097D01*
X0162733Y0018097D01*
X0162249Y0018580D01*
X0162249Y0019548D01*
X0162733Y0020031D01*
X0162733Y0017085D02*
X0162249Y0016601D01*
X0162249Y0015634D01*
X0162733Y0015150D01*
X0163217Y0015150D01*
X0163700Y0015634D01*
X0163700Y0016601D01*
X0164184Y0017085D01*
X0164668Y0017085D01*
X0165152Y0016601D01*
X0165152Y0015634D01*
X0164668Y0015150D01*
X0210949Y0042581D02*
X0211917Y0041614D01*
X0213852Y0041614D01*
X0212400Y0041614D02*
X0212400Y0043549D01*
X0211917Y0043549D02*
X0213852Y0043549D01*
X0213852Y0044560D02*
X0210949Y0044560D01*
X0213852Y0046495D01*
X0210949Y0046495D01*
X0210949Y0047507D02*
X0210949Y0049442D01*
X0210949Y0048474D02*
X0213852Y0048474D01*
X0213852Y0050453D02*
X0213852Y0052388D01*
X0213852Y0051421D02*
X0210949Y0051421D01*
X0211917Y0050453D01*
X0211917Y0043549D02*
X0210949Y0042581D01*
X0177152Y0054650D02*
X0177152Y0056585D01*
X0177152Y0057597D02*
X0174249Y0057597D01*
X0174249Y0056585D02*
X0174733Y0056585D01*
X0176668Y0054650D01*
X0177152Y0054650D01*
X0174249Y0054650D02*
X0174249Y0056585D01*
X0176184Y0058564D02*
X0177152Y0057597D01*
X0176184Y0058564D02*
X0177152Y0059531D01*
X0174249Y0059531D01*
X0175217Y0061027D02*
X0175217Y0061994D01*
X0175700Y0062478D01*
X0177152Y0062478D01*
X0177152Y0061027D01*
X0176668Y0060543D01*
X0176184Y0061027D01*
X0176184Y0062478D01*
X0175217Y0063490D02*
X0177152Y0064457D01*
X0175217Y0065425D01*
X0175700Y0066436D02*
X0175217Y0066920D01*
X0175217Y0067887D01*
X0175700Y0068371D01*
X0176184Y0068371D01*
X0176184Y0066436D01*
X0176668Y0066436D02*
X0175700Y0066436D01*
X0176668Y0066436D02*
X0177152Y0066920D01*
X0177152Y0067887D01*
X0153619Y0063887D02*
X0153619Y0063404D01*
X0153619Y0063887D02*
X0153135Y0064371D01*
X0150717Y0064371D01*
X0150717Y0065383D02*
X0151200Y0065866D01*
X0151200Y0066834D01*
X0151684Y0067318D01*
X0152168Y0067318D01*
X0152652Y0066834D01*
X0152652Y0065866D01*
X0152168Y0065383D01*
X0152652Y0064371D02*
X0152652Y0062920D01*
X0152168Y0062436D01*
X0150717Y0062436D01*
X0149749Y0061425D02*
X0152652Y0061425D01*
X0152652Y0059490D02*
X0149749Y0059490D01*
X0150717Y0060457D01*
X0149749Y0061425D01*
X0149749Y0058478D02*
X0152652Y0056543D01*
X0152652Y0055531D02*
X0149749Y0055531D01*
X0150717Y0054564D01*
X0149749Y0053597D01*
X0152652Y0053597D01*
X0152652Y0052585D02*
X0149749Y0052585D01*
X0151200Y0052585D02*
X0151200Y0050650D01*
X0149749Y0050650D02*
X0152652Y0050650D01*
X0154935Y0053150D02*
X0154452Y0053634D01*
X0154935Y0053150D02*
X0155903Y0053150D01*
X0156387Y0053634D01*
X0156387Y0054117D01*
X0155903Y0054601D01*
X0154935Y0054601D01*
X0154452Y0055085D01*
X0154452Y0055569D01*
X0154935Y0056052D01*
X0155903Y0056052D01*
X0156387Y0055569D01*
X0158366Y0056052D02*
X0159333Y0056052D01*
X0158849Y0056052D02*
X0158849Y0053634D01*
X0158366Y0053150D01*
X0157882Y0053150D01*
X0157398Y0053634D01*
X0160345Y0053634D02*
X0160828Y0053150D01*
X0161796Y0053150D01*
X0162280Y0053634D01*
X0162280Y0054117D01*
X0161796Y0054601D01*
X0161312Y0054601D01*
X0161796Y0054601D02*
X0162280Y0055085D01*
X0162280Y0055569D01*
X0161796Y0056052D01*
X0160828Y0056052D01*
X0160345Y0055569D01*
X0150717Y0065383D02*
X0150233Y0065383D01*
X0149749Y0065866D01*
X0149749Y0066834D01*
X0150233Y0067318D01*
X0080598Y0096317D02*
X0080598Y0098252D01*
X0079587Y0096801D02*
X0077652Y0096801D01*
X0064352Y0067138D02*
X0061449Y0067138D01*
X0061449Y0065203D02*
X0064352Y0067138D01*
X0064352Y0065203D02*
X0061449Y0065203D01*
X0061449Y0064207D02*
X0061449Y0063239D01*
X0061449Y0063723D02*
X0064352Y0063723D01*
X0064352Y0063239D02*
X0064352Y0064207D01*
X0063384Y0062228D02*
X0061449Y0062228D01*
X0063384Y0062228D02*
X0064352Y0061260D01*
X0063384Y0060293D01*
X0061449Y0060293D01*
D12*
X0065802Y0057500D02*
X0065802Y0044500D01*
X0065802Y0037500D01*
X0065802Y0031000D01*
X0091802Y0031000D01*
X0092802Y0031000D01*
X0092802Y0071000D01*
X0091802Y0071000D01*
X0065802Y0071000D01*
X0056302Y0071000D01*
X0056302Y0031000D01*
X0065802Y0031000D01*
X0066902Y0041000D02*
X0066904Y0041153D01*
X0066910Y0041306D01*
X0066920Y0041459D01*
X0066934Y0041612D01*
X0066952Y0041764D01*
X0066973Y0041915D01*
X0066999Y0042066D01*
X0067029Y0042217D01*
X0067062Y0042366D01*
X0067100Y0042515D01*
X0067141Y0042662D01*
X0067186Y0042809D01*
X0067235Y0042954D01*
X0067287Y0043098D01*
X0067344Y0043240D01*
X0067404Y0043381D01*
X0067467Y0043520D01*
X0067535Y0043658D01*
X0067605Y0043794D01*
X0067680Y0043928D01*
X0067757Y0044060D01*
X0067839Y0044190D01*
X0067923Y0044318D01*
X0068011Y0044443D01*
X0068102Y0044566D01*
X0068196Y0044687D01*
X0068293Y0044805D01*
X0068394Y0044921D01*
X0068497Y0045034D01*
X0068603Y0045145D01*
X0068712Y0045252D01*
X0068824Y0045357D01*
X0068938Y0045459D01*
X0069055Y0045558D01*
X0069175Y0045653D01*
X0069297Y0045746D01*
X0069421Y0045835D01*
X0069548Y0045922D01*
X0069677Y0046004D01*
X0069808Y0046084D01*
X0069941Y0046160D01*
X0070076Y0046232D01*
X0070213Y0046301D01*
X0070351Y0046367D01*
X0070491Y0046429D01*
X0070633Y0046487D01*
X0070776Y0046541D01*
X0070921Y0046592D01*
X0071066Y0046639D01*
X0071213Y0046682D01*
X0071361Y0046721D01*
X0071510Y0046757D01*
X0071660Y0046788D01*
X0071811Y0046816D01*
X0071962Y0046840D01*
X0072114Y0046860D01*
X0072267Y0046876D01*
X0072419Y0046888D01*
X0072572Y0046896D01*
X0072725Y0046900D01*
X0072879Y0046900D01*
X0073032Y0046896D01*
X0073185Y0046888D01*
X0073337Y0046876D01*
X0073490Y0046860D01*
X0073642Y0046840D01*
X0073793Y0046816D01*
X0073944Y0046788D01*
X0074094Y0046757D01*
X0074243Y0046721D01*
X0074391Y0046682D01*
X0074538Y0046639D01*
X0074683Y0046592D01*
X0074828Y0046541D01*
X0074971Y0046487D01*
X0075113Y0046429D01*
X0075253Y0046367D01*
X0075391Y0046301D01*
X0075528Y0046232D01*
X0075663Y0046160D01*
X0075796Y0046084D01*
X0075927Y0046004D01*
X0076056Y0045922D01*
X0076183Y0045835D01*
X0076307Y0045746D01*
X0076429Y0045653D01*
X0076549Y0045558D01*
X0076666Y0045459D01*
X0076780Y0045357D01*
X0076892Y0045252D01*
X0077001Y0045145D01*
X0077107Y0045034D01*
X0077210Y0044921D01*
X0077311Y0044805D01*
X0077408Y0044687D01*
X0077502Y0044566D01*
X0077593Y0044443D01*
X0077681Y0044318D01*
X0077765Y0044190D01*
X0077847Y0044060D01*
X0077924Y0043928D01*
X0077999Y0043794D01*
X0078069Y0043658D01*
X0078137Y0043520D01*
X0078200Y0043381D01*
X0078260Y0043240D01*
X0078317Y0043098D01*
X0078369Y0042954D01*
X0078418Y0042809D01*
X0078463Y0042662D01*
X0078504Y0042515D01*
X0078542Y0042366D01*
X0078575Y0042217D01*
X0078605Y0042066D01*
X0078631Y0041915D01*
X0078652Y0041764D01*
X0078670Y0041612D01*
X0078684Y0041459D01*
X0078694Y0041306D01*
X0078700Y0041153D01*
X0078702Y0041000D01*
X0078700Y0040847D01*
X0078694Y0040694D01*
X0078684Y0040541D01*
X0078670Y0040388D01*
X0078652Y0040236D01*
X0078631Y0040085D01*
X0078605Y0039934D01*
X0078575Y0039783D01*
X0078542Y0039634D01*
X0078504Y0039485D01*
X0078463Y0039338D01*
X0078418Y0039191D01*
X0078369Y0039046D01*
X0078317Y0038902D01*
X0078260Y0038760D01*
X0078200Y0038619D01*
X0078137Y0038480D01*
X0078069Y0038342D01*
X0077999Y0038206D01*
X0077924Y0038072D01*
X0077847Y0037940D01*
X0077765Y0037810D01*
X0077681Y0037682D01*
X0077593Y0037557D01*
X0077502Y0037434D01*
X0077408Y0037313D01*
X0077311Y0037195D01*
X0077210Y0037079D01*
X0077107Y0036966D01*
X0077001Y0036855D01*
X0076892Y0036748D01*
X0076780Y0036643D01*
X0076666Y0036541D01*
X0076549Y0036442D01*
X0076429Y0036347D01*
X0076307Y0036254D01*
X0076183Y0036165D01*
X0076056Y0036078D01*
X0075927Y0035996D01*
X0075796Y0035916D01*
X0075663Y0035840D01*
X0075528Y0035768D01*
X0075391Y0035699D01*
X0075253Y0035633D01*
X0075113Y0035571D01*
X0074971Y0035513D01*
X0074828Y0035459D01*
X0074683Y0035408D01*
X0074538Y0035361D01*
X0074391Y0035318D01*
X0074243Y0035279D01*
X0074094Y0035243D01*
X0073944Y0035212D01*
X0073793Y0035184D01*
X0073642Y0035160D01*
X0073490Y0035140D01*
X0073337Y0035124D01*
X0073185Y0035112D01*
X0073032Y0035104D01*
X0072879Y0035100D01*
X0072725Y0035100D01*
X0072572Y0035104D01*
X0072419Y0035112D01*
X0072267Y0035124D01*
X0072114Y0035140D01*
X0071962Y0035160D01*
X0071811Y0035184D01*
X0071660Y0035212D01*
X0071510Y0035243D01*
X0071361Y0035279D01*
X0071213Y0035318D01*
X0071066Y0035361D01*
X0070921Y0035408D01*
X0070776Y0035459D01*
X0070633Y0035513D01*
X0070491Y0035571D01*
X0070351Y0035633D01*
X0070213Y0035699D01*
X0070076Y0035768D01*
X0069941Y0035840D01*
X0069808Y0035916D01*
X0069677Y0035996D01*
X0069548Y0036078D01*
X0069421Y0036165D01*
X0069297Y0036254D01*
X0069175Y0036347D01*
X0069055Y0036442D01*
X0068938Y0036541D01*
X0068824Y0036643D01*
X0068712Y0036748D01*
X0068603Y0036855D01*
X0068497Y0036966D01*
X0068394Y0037079D01*
X0068293Y0037195D01*
X0068196Y0037313D01*
X0068102Y0037434D01*
X0068011Y0037557D01*
X0067923Y0037682D01*
X0067839Y0037810D01*
X0067757Y0037940D01*
X0067680Y0038072D01*
X0067605Y0038206D01*
X0067535Y0038342D01*
X0067467Y0038480D01*
X0067404Y0038619D01*
X0067344Y0038760D01*
X0067287Y0038902D01*
X0067235Y0039046D01*
X0067186Y0039191D01*
X0067141Y0039338D01*
X0067100Y0039485D01*
X0067062Y0039634D01*
X0067029Y0039783D01*
X0066999Y0039934D01*
X0066973Y0040085D01*
X0066952Y0040236D01*
X0066934Y0040388D01*
X0066920Y0040541D01*
X0066910Y0040694D01*
X0066904Y0040847D01*
X0066902Y0041000D01*
X0084502Y0041000D02*
X0084504Y0041089D01*
X0084510Y0041178D01*
X0084520Y0041267D01*
X0084534Y0041355D01*
X0084551Y0041442D01*
X0084573Y0041528D01*
X0084599Y0041614D01*
X0084628Y0041698D01*
X0084661Y0041781D01*
X0084697Y0041862D01*
X0084738Y0041942D01*
X0084781Y0042019D01*
X0084828Y0042095D01*
X0084879Y0042168D01*
X0084932Y0042239D01*
X0084989Y0042308D01*
X0085049Y0042374D01*
X0085112Y0042438D01*
X0085177Y0042498D01*
X0085245Y0042556D01*
X0085316Y0042610D01*
X0085389Y0042661D01*
X0085464Y0042709D01*
X0085541Y0042754D01*
X0085620Y0042795D01*
X0085701Y0042832D01*
X0085783Y0042866D01*
X0085867Y0042897D01*
X0085952Y0042923D01*
X0086038Y0042946D01*
X0086125Y0042964D01*
X0086213Y0042979D01*
X0086302Y0042990D01*
X0086391Y0042997D01*
X0086480Y0043000D01*
X0086569Y0042999D01*
X0086658Y0042994D01*
X0086746Y0042985D01*
X0086835Y0042972D01*
X0086922Y0042955D01*
X0087009Y0042935D01*
X0087095Y0042910D01*
X0087179Y0042882D01*
X0087262Y0042850D01*
X0087344Y0042814D01*
X0087424Y0042775D01*
X0087502Y0042732D01*
X0087578Y0042686D01*
X0087652Y0042636D01*
X0087724Y0042583D01*
X0087793Y0042527D01*
X0087860Y0042468D01*
X0087924Y0042406D01*
X0087985Y0042342D01*
X0088044Y0042274D01*
X0088099Y0042204D01*
X0088151Y0042132D01*
X0088200Y0042057D01*
X0088245Y0041981D01*
X0088287Y0041902D01*
X0088325Y0041822D01*
X0088360Y0041740D01*
X0088391Y0041656D01*
X0088419Y0041571D01*
X0088442Y0041485D01*
X0088462Y0041398D01*
X0088478Y0041311D01*
X0088490Y0041222D01*
X0088498Y0041134D01*
X0088502Y0041045D01*
X0088502Y0040955D01*
X0088498Y0040866D01*
X0088490Y0040778D01*
X0088478Y0040689D01*
X0088462Y0040602D01*
X0088442Y0040515D01*
X0088419Y0040429D01*
X0088391Y0040344D01*
X0088360Y0040260D01*
X0088325Y0040178D01*
X0088287Y0040098D01*
X0088245Y0040019D01*
X0088200Y0039943D01*
X0088151Y0039868D01*
X0088099Y0039796D01*
X0088044Y0039726D01*
X0087985Y0039658D01*
X0087924Y0039594D01*
X0087860Y0039532D01*
X0087793Y0039473D01*
X0087724Y0039417D01*
X0087652Y0039364D01*
X0087578Y0039314D01*
X0087502Y0039268D01*
X0087424Y0039225D01*
X0087344Y0039186D01*
X0087262Y0039150D01*
X0087179Y0039118D01*
X0087095Y0039090D01*
X0087009Y0039065D01*
X0086922Y0039045D01*
X0086835Y0039028D01*
X0086746Y0039015D01*
X0086658Y0039006D01*
X0086569Y0039001D01*
X0086480Y0039000D01*
X0086391Y0039003D01*
X0086302Y0039010D01*
X0086213Y0039021D01*
X0086125Y0039036D01*
X0086038Y0039054D01*
X0085952Y0039077D01*
X0085867Y0039103D01*
X0085783Y0039134D01*
X0085701Y0039168D01*
X0085620Y0039205D01*
X0085541Y0039246D01*
X0085464Y0039291D01*
X0085389Y0039339D01*
X0085316Y0039390D01*
X0085245Y0039444D01*
X0085177Y0039502D01*
X0085112Y0039562D01*
X0085049Y0039626D01*
X0084989Y0039692D01*
X0084932Y0039761D01*
X0084879Y0039832D01*
X0084828Y0039905D01*
X0084781Y0039981D01*
X0084738Y0040058D01*
X0084697Y0040138D01*
X0084661Y0040219D01*
X0084628Y0040302D01*
X0084599Y0040386D01*
X0084573Y0040472D01*
X0084551Y0040558D01*
X0084534Y0040645D01*
X0084520Y0040733D01*
X0084510Y0040822D01*
X0084504Y0040911D01*
X0084502Y0041000D01*
X0101802Y0032500D02*
X0101802Y0027500D01*
X0101802Y0022500D01*
X0103802Y0022500D01*
X0103802Y0032500D01*
X0101802Y0032500D01*
X0095302Y0028500D02*
X0095302Y0026500D01*
X0096302Y0027500D02*
X0094302Y0027500D01*
X0098302Y0027500D02*
X0101802Y0027500D01*
X0093802Y0027500D02*
X0093805Y0027770D01*
X0093815Y0028040D01*
X0093832Y0028309D01*
X0093855Y0028578D01*
X0093885Y0028847D01*
X0093921Y0029114D01*
X0093964Y0029381D01*
X0094013Y0029646D01*
X0094069Y0029910D01*
X0094132Y0030173D01*
X0094200Y0030434D01*
X0094276Y0030693D01*
X0094357Y0030950D01*
X0094445Y0031206D01*
X0094539Y0031459D01*
X0094639Y0031710D01*
X0094746Y0031958D01*
X0094858Y0032203D01*
X0094977Y0032446D01*
X0095101Y0032685D01*
X0095231Y0032922D01*
X0095367Y0033155D01*
X0095509Y0033385D01*
X0095656Y0033611D01*
X0095809Y0033834D01*
X0095967Y0034053D01*
X0096130Y0034268D01*
X0096299Y0034478D01*
X0096473Y0034685D01*
X0096652Y0034887D01*
X0096835Y0035085D01*
X0097024Y0035278D01*
X0097217Y0035467D01*
X0097415Y0035650D01*
X0097617Y0035829D01*
X0097824Y0036003D01*
X0098034Y0036172D01*
X0098249Y0036335D01*
X0098468Y0036493D01*
X0098691Y0036646D01*
X0098917Y0036793D01*
X0099147Y0036935D01*
X0099380Y0037071D01*
X0099617Y0037201D01*
X0099856Y0037325D01*
X0100099Y0037444D01*
X0100344Y0037556D01*
X0100592Y0037663D01*
X0100843Y0037763D01*
X0101096Y0037857D01*
X0101352Y0037945D01*
X0101609Y0038026D01*
X0101868Y0038102D01*
X0102129Y0038170D01*
X0102392Y0038233D01*
X0102656Y0038289D01*
X0102921Y0038338D01*
X0103188Y0038381D01*
X0103455Y0038417D01*
X0103724Y0038447D01*
X0103993Y0038470D01*
X0104262Y0038487D01*
X0104532Y0038497D01*
X0104802Y0038500D01*
X0105072Y0038497D01*
X0105342Y0038487D01*
X0105611Y0038470D01*
X0105880Y0038447D01*
X0106149Y0038417D01*
X0106416Y0038381D01*
X0106683Y0038338D01*
X0106948Y0038289D01*
X0107212Y0038233D01*
X0107475Y0038170D01*
X0107736Y0038102D01*
X0107995Y0038026D01*
X0108252Y0037945D01*
X0108508Y0037857D01*
X0108761Y0037763D01*
X0109012Y0037663D01*
X0109260Y0037556D01*
X0109505Y0037444D01*
X0109748Y0037325D01*
X0109987Y0037201D01*
X0110224Y0037071D01*
X0110457Y0036935D01*
X0110687Y0036793D01*
X0110913Y0036646D01*
X0111136Y0036493D01*
X0111355Y0036335D01*
X0111570Y0036172D01*
X0111780Y0036003D01*
X0111987Y0035829D01*
X0112189Y0035650D01*
X0112387Y0035467D01*
X0112580Y0035278D01*
X0112769Y0035085D01*
X0112952Y0034887D01*
X0113131Y0034685D01*
X0113305Y0034478D01*
X0113474Y0034268D01*
X0113637Y0034053D01*
X0113795Y0033834D01*
X0113948Y0033611D01*
X0114095Y0033385D01*
X0114237Y0033155D01*
X0114373Y0032922D01*
X0114503Y0032685D01*
X0114627Y0032446D01*
X0114746Y0032203D01*
X0114858Y0031958D01*
X0114965Y0031710D01*
X0115065Y0031459D01*
X0115159Y0031206D01*
X0115247Y0030950D01*
X0115328Y0030693D01*
X0115404Y0030434D01*
X0115472Y0030173D01*
X0115535Y0029910D01*
X0115591Y0029646D01*
X0115640Y0029381D01*
X0115683Y0029114D01*
X0115719Y0028847D01*
X0115749Y0028578D01*
X0115772Y0028309D01*
X0115789Y0028040D01*
X0115799Y0027770D01*
X0115802Y0027500D01*
X0115799Y0027230D01*
X0115789Y0026960D01*
X0115772Y0026691D01*
X0115749Y0026422D01*
X0115719Y0026153D01*
X0115683Y0025886D01*
X0115640Y0025619D01*
X0115591Y0025354D01*
X0115535Y0025090D01*
X0115472Y0024827D01*
X0115404Y0024566D01*
X0115328Y0024307D01*
X0115247Y0024050D01*
X0115159Y0023794D01*
X0115065Y0023541D01*
X0114965Y0023290D01*
X0114858Y0023042D01*
X0114746Y0022797D01*
X0114627Y0022554D01*
X0114503Y0022315D01*
X0114373Y0022078D01*
X0114237Y0021845D01*
X0114095Y0021615D01*
X0113948Y0021389D01*
X0113795Y0021166D01*
X0113637Y0020947D01*
X0113474Y0020732D01*
X0113305Y0020522D01*
X0113131Y0020315D01*
X0112952Y0020113D01*
X0112769Y0019915D01*
X0112580Y0019722D01*
X0112387Y0019533D01*
X0112189Y0019350D01*
X0111987Y0019171D01*
X0111780Y0018997D01*
X0111570Y0018828D01*
X0111355Y0018665D01*
X0111136Y0018507D01*
X0110913Y0018354D01*
X0110687Y0018207D01*
X0110457Y0018065D01*
X0110224Y0017929D01*
X0109987Y0017799D01*
X0109748Y0017675D01*
X0109505Y0017556D01*
X0109260Y0017444D01*
X0109012Y0017337D01*
X0108761Y0017237D01*
X0108508Y0017143D01*
X0108252Y0017055D01*
X0107995Y0016974D01*
X0107736Y0016898D01*
X0107475Y0016830D01*
X0107212Y0016767D01*
X0106948Y0016711D01*
X0106683Y0016662D01*
X0106416Y0016619D01*
X0106149Y0016583D01*
X0105880Y0016553D01*
X0105611Y0016530D01*
X0105342Y0016513D01*
X0105072Y0016503D01*
X0104802Y0016500D01*
X0104532Y0016503D01*
X0104262Y0016513D01*
X0103993Y0016530D01*
X0103724Y0016553D01*
X0103455Y0016583D01*
X0103188Y0016619D01*
X0102921Y0016662D01*
X0102656Y0016711D01*
X0102392Y0016767D01*
X0102129Y0016830D01*
X0101868Y0016898D01*
X0101609Y0016974D01*
X0101352Y0017055D01*
X0101096Y0017143D01*
X0100843Y0017237D01*
X0100592Y0017337D01*
X0100344Y0017444D01*
X0100099Y0017556D01*
X0099856Y0017675D01*
X0099617Y0017799D01*
X0099380Y0017929D01*
X0099147Y0018065D01*
X0098917Y0018207D01*
X0098691Y0018354D01*
X0098468Y0018507D01*
X0098249Y0018665D01*
X0098034Y0018828D01*
X0097824Y0018997D01*
X0097617Y0019171D01*
X0097415Y0019350D01*
X0097217Y0019533D01*
X0097024Y0019722D01*
X0096835Y0019915D01*
X0096652Y0020113D01*
X0096473Y0020315D01*
X0096299Y0020522D01*
X0096130Y0020732D01*
X0095967Y0020947D01*
X0095809Y0021166D01*
X0095656Y0021389D01*
X0095509Y0021615D01*
X0095367Y0021845D01*
X0095231Y0022078D01*
X0095101Y0022315D01*
X0094977Y0022554D01*
X0094858Y0022797D01*
X0094746Y0023042D01*
X0094639Y0023290D01*
X0094539Y0023541D01*
X0094445Y0023794D01*
X0094357Y0024050D01*
X0094276Y0024307D01*
X0094200Y0024566D01*
X0094132Y0024827D01*
X0094069Y0025090D01*
X0094013Y0025354D01*
X0093964Y0025619D01*
X0093921Y0025886D01*
X0093885Y0026153D01*
X0093855Y0026422D01*
X0093832Y0026691D01*
X0093815Y0026960D01*
X0093805Y0027230D01*
X0093802Y0027500D01*
X0091802Y0031000D02*
X0091802Y0071000D01*
X0091802Y0075500D02*
X0080802Y0075500D01*
X0080742Y0075502D01*
X0080681Y0075507D01*
X0080622Y0075516D01*
X0080563Y0075529D01*
X0080504Y0075545D01*
X0080447Y0075565D01*
X0080392Y0075588D01*
X0080337Y0075615D01*
X0080285Y0075644D01*
X0080234Y0075677D01*
X0080185Y0075713D01*
X0080139Y0075751D01*
X0080095Y0075793D01*
X0080053Y0075837D01*
X0080015Y0075883D01*
X0079979Y0075932D01*
X0079946Y0075983D01*
X0079917Y0076035D01*
X0079890Y0076090D01*
X0079867Y0076145D01*
X0079847Y0076202D01*
X0079831Y0076261D01*
X0079818Y0076320D01*
X0079809Y0076379D01*
X0079804Y0076440D01*
X0079802Y0076500D01*
X0079802Y0082500D01*
X0079804Y0082560D01*
X0079809Y0082621D01*
X0079818Y0082680D01*
X0079831Y0082739D01*
X0079847Y0082798D01*
X0079867Y0082855D01*
X0079890Y0082910D01*
X0079917Y0082965D01*
X0079946Y0083017D01*
X0079979Y0083068D01*
X0080015Y0083117D01*
X0080053Y0083163D01*
X0080095Y0083207D01*
X0080139Y0083249D01*
X0080185Y0083287D01*
X0080234Y0083323D01*
X0080285Y0083356D01*
X0080337Y0083385D01*
X0080392Y0083412D01*
X0080447Y0083435D01*
X0080504Y0083455D01*
X0080563Y0083471D01*
X0080622Y0083484D01*
X0080681Y0083493D01*
X0080742Y0083498D01*
X0080802Y0083500D01*
X0091802Y0083500D01*
X0091862Y0083498D01*
X0091923Y0083493D01*
X0091982Y0083484D01*
X0092041Y0083471D01*
X0092100Y0083455D01*
X0092157Y0083435D01*
X0092212Y0083412D01*
X0092267Y0083385D01*
X0092319Y0083356D01*
X0092370Y0083323D01*
X0092419Y0083287D01*
X0092465Y0083249D01*
X0092509Y0083207D01*
X0092551Y0083163D01*
X0092589Y0083117D01*
X0092625Y0083068D01*
X0092658Y0083017D01*
X0092687Y0082965D01*
X0092714Y0082910D01*
X0092737Y0082855D01*
X0092757Y0082798D01*
X0092773Y0082739D01*
X0092786Y0082680D01*
X0092795Y0082621D01*
X0092800Y0082560D01*
X0092802Y0082500D01*
X0092802Y0076500D01*
X0092800Y0076440D01*
X0092795Y0076379D01*
X0092786Y0076320D01*
X0092773Y0076261D01*
X0092757Y0076202D01*
X0092737Y0076145D01*
X0092714Y0076090D01*
X0092687Y0076035D01*
X0092658Y0075983D01*
X0092625Y0075932D01*
X0092589Y0075883D01*
X0092551Y0075837D01*
X0092509Y0075793D01*
X0092465Y0075751D01*
X0092419Y0075713D01*
X0092370Y0075677D01*
X0092319Y0075644D01*
X0092267Y0075615D01*
X0092212Y0075588D01*
X0092157Y0075565D01*
X0092100Y0075545D01*
X0092041Y0075529D01*
X0091982Y0075516D01*
X0091923Y0075507D01*
X0091862Y0075502D01*
X0091802Y0075500D01*
X0092302Y0079500D02*
X0090302Y0079500D01*
X0093302Y0084000D02*
X0098302Y0084000D01*
X0100802Y0086500D01*
X0103302Y0084000D01*
X0108302Y0084000D01*
X0110802Y0086500D01*
X0110802Y0091500D01*
X0108302Y0094000D01*
X0103302Y0094000D01*
X0100802Y0091500D01*
X0100802Y0086500D01*
X0093302Y0084000D02*
X0090802Y0086500D01*
X0090802Y0091500D01*
X0093302Y0094000D01*
X0098302Y0094000D01*
X0100802Y0091500D01*
X0110802Y0091500D02*
X0113302Y0094000D01*
X0118302Y0094000D01*
X0120802Y0091500D01*
X0123302Y0094000D01*
X0128302Y0094000D01*
X0130802Y0091500D01*
X0133302Y0094000D01*
X0138302Y0094000D01*
X0140802Y0091500D01*
X0143302Y0094000D01*
X0148302Y0094000D01*
X0150802Y0091500D01*
X0150802Y0086500D01*
X0148302Y0084000D01*
X0143302Y0084000D01*
X0140802Y0086500D01*
X0138302Y0084000D01*
X0133302Y0084000D01*
X0130802Y0086500D01*
X0128302Y0084000D01*
X0123302Y0084000D01*
X0120802Y0086500D01*
X0118302Y0084000D01*
X0113302Y0084000D01*
X0110802Y0086500D01*
X0117302Y0083500D02*
X0134302Y0083500D01*
X0134362Y0083498D01*
X0134423Y0083493D01*
X0134482Y0083484D01*
X0134541Y0083471D01*
X0134600Y0083455D01*
X0134657Y0083435D01*
X0134712Y0083412D01*
X0134767Y0083385D01*
X0134819Y0083356D01*
X0134870Y0083323D01*
X0134919Y0083287D01*
X0134965Y0083249D01*
X0135009Y0083207D01*
X0135051Y0083163D01*
X0135089Y0083117D01*
X0135125Y0083068D01*
X0135158Y0083017D01*
X0135187Y0082965D01*
X0135214Y0082910D01*
X0135237Y0082855D01*
X0135257Y0082798D01*
X0135273Y0082739D01*
X0135286Y0082680D01*
X0135295Y0082621D01*
X0135300Y0082560D01*
X0135302Y0082500D01*
X0135302Y0076500D01*
X0135300Y0076440D01*
X0135295Y0076379D01*
X0135286Y0076320D01*
X0135273Y0076261D01*
X0135257Y0076202D01*
X0135237Y0076145D01*
X0135214Y0076090D01*
X0135187Y0076035D01*
X0135158Y0075983D01*
X0135125Y0075932D01*
X0135089Y0075883D01*
X0135051Y0075837D01*
X0135009Y0075793D01*
X0134965Y0075751D01*
X0134919Y0075713D01*
X0134870Y0075677D01*
X0134819Y0075644D01*
X0134767Y0075615D01*
X0134712Y0075588D01*
X0134657Y0075565D01*
X0134600Y0075545D01*
X0134541Y0075529D01*
X0134482Y0075516D01*
X0134423Y0075507D01*
X0134362Y0075502D01*
X0134302Y0075500D01*
X0117302Y0075500D01*
X0117242Y0075502D01*
X0117181Y0075507D01*
X0117122Y0075516D01*
X0117063Y0075529D01*
X0117004Y0075545D01*
X0116947Y0075565D01*
X0116892Y0075588D01*
X0116837Y0075615D01*
X0116785Y0075644D01*
X0116734Y0075677D01*
X0116685Y0075713D01*
X0116639Y0075751D01*
X0116595Y0075793D01*
X0116553Y0075837D01*
X0116515Y0075883D01*
X0116479Y0075932D01*
X0116446Y0075983D01*
X0116417Y0076035D01*
X0116390Y0076090D01*
X0116367Y0076145D01*
X0116347Y0076202D01*
X0116331Y0076261D01*
X0116318Y0076320D01*
X0116309Y0076379D01*
X0116304Y0076440D01*
X0116302Y0076500D01*
X0116302Y0082500D01*
X0116304Y0082560D01*
X0116309Y0082621D01*
X0116318Y0082680D01*
X0116331Y0082739D01*
X0116347Y0082798D01*
X0116367Y0082855D01*
X0116390Y0082910D01*
X0116417Y0082965D01*
X0116446Y0083017D01*
X0116479Y0083068D01*
X0116515Y0083117D01*
X0116553Y0083163D01*
X0116595Y0083207D01*
X0116639Y0083249D01*
X0116685Y0083287D01*
X0116734Y0083323D01*
X0116785Y0083356D01*
X0116837Y0083385D01*
X0116892Y0083412D01*
X0116947Y0083435D01*
X0117004Y0083455D01*
X0117063Y0083471D01*
X0117122Y0083484D01*
X0117181Y0083493D01*
X0117242Y0083498D01*
X0117302Y0083500D01*
X0120802Y0086500D02*
X0120802Y0091500D01*
X0130802Y0091500D02*
X0130802Y0086500D01*
X0125802Y0083500D02*
X0125802Y0082500D01*
X0118802Y0079500D02*
X0116802Y0079500D01*
X0125802Y0076500D02*
X0125802Y0075500D01*
X0132802Y0079500D02*
X0134802Y0079500D01*
X0140802Y0086500D02*
X0140802Y0091500D01*
X0087802Y0091500D02*
X0087802Y0086500D01*
X0085302Y0084000D01*
X0080302Y0084000D01*
X0077802Y0086500D01*
X0077802Y0091500D01*
X0080302Y0094000D01*
X0085302Y0094000D01*
X0087802Y0091500D01*
X0082302Y0079500D02*
X0080302Y0079500D01*
X0065802Y0071000D02*
X0065802Y0064500D01*
X0065802Y0057500D01*
X0066902Y0061000D02*
X0066904Y0061153D01*
X0066910Y0061306D01*
X0066920Y0061459D01*
X0066934Y0061612D01*
X0066952Y0061764D01*
X0066973Y0061915D01*
X0066999Y0062066D01*
X0067029Y0062217D01*
X0067062Y0062366D01*
X0067100Y0062515D01*
X0067141Y0062662D01*
X0067186Y0062809D01*
X0067235Y0062954D01*
X0067287Y0063098D01*
X0067344Y0063240D01*
X0067404Y0063381D01*
X0067467Y0063520D01*
X0067535Y0063658D01*
X0067605Y0063794D01*
X0067680Y0063928D01*
X0067757Y0064060D01*
X0067839Y0064190D01*
X0067923Y0064318D01*
X0068011Y0064443D01*
X0068102Y0064566D01*
X0068196Y0064687D01*
X0068293Y0064805D01*
X0068394Y0064921D01*
X0068497Y0065034D01*
X0068603Y0065145D01*
X0068712Y0065252D01*
X0068824Y0065357D01*
X0068938Y0065459D01*
X0069055Y0065558D01*
X0069175Y0065653D01*
X0069297Y0065746D01*
X0069421Y0065835D01*
X0069548Y0065922D01*
X0069677Y0066004D01*
X0069808Y0066084D01*
X0069941Y0066160D01*
X0070076Y0066232D01*
X0070213Y0066301D01*
X0070351Y0066367D01*
X0070491Y0066429D01*
X0070633Y0066487D01*
X0070776Y0066541D01*
X0070921Y0066592D01*
X0071066Y0066639D01*
X0071213Y0066682D01*
X0071361Y0066721D01*
X0071510Y0066757D01*
X0071660Y0066788D01*
X0071811Y0066816D01*
X0071962Y0066840D01*
X0072114Y0066860D01*
X0072267Y0066876D01*
X0072419Y0066888D01*
X0072572Y0066896D01*
X0072725Y0066900D01*
X0072879Y0066900D01*
X0073032Y0066896D01*
X0073185Y0066888D01*
X0073337Y0066876D01*
X0073490Y0066860D01*
X0073642Y0066840D01*
X0073793Y0066816D01*
X0073944Y0066788D01*
X0074094Y0066757D01*
X0074243Y0066721D01*
X0074391Y0066682D01*
X0074538Y0066639D01*
X0074683Y0066592D01*
X0074828Y0066541D01*
X0074971Y0066487D01*
X0075113Y0066429D01*
X0075253Y0066367D01*
X0075391Y0066301D01*
X0075528Y0066232D01*
X0075663Y0066160D01*
X0075796Y0066084D01*
X0075927Y0066004D01*
X0076056Y0065922D01*
X0076183Y0065835D01*
X0076307Y0065746D01*
X0076429Y0065653D01*
X0076549Y0065558D01*
X0076666Y0065459D01*
X0076780Y0065357D01*
X0076892Y0065252D01*
X0077001Y0065145D01*
X0077107Y0065034D01*
X0077210Y0064921D01*
X0077311Y0064805D01*
X0077408Y0064687D01*
X0077502Y0064566D01*
X0077593Y0064443D01*
X0077681Y0064318D01*
X0077765Y0064190D01*
X0077847Y0064060D01*
X0077924Y0063928D01*
X0077999Y0063794D01*
X0078069Y0063658D01*
X0078137Y0063520D01*
X0078200Y0063381D01*
X0078260Y0063240D01*
X0078317Y0063098D01*
X0078369Y0062954D01*
X0078418Y0062809D01*
X0078463Y0062662D01*
X0078504Y0062515D01*
X0078542Y0062366D01*
X0078575Y0062217D01*
X0078605Y0062066D01*
X0078631Y0061915D01*
X0078652Y0061764D01*
X0078670Y0061612D01*
X0078684Y0061459D01*
X0078694Y0061306D01*
X0078700Y0061153D01*
X0078702Y0061000D01*
X0078700Y0060847D01*
X0078694Y0060694D01*
X0078684Y0060541D01*
X0078670Y0060388D01*
X0078652Y0060236D01*
X0078631Y0060085D01*
X0078605Y0059934D01*
X0078575Y0059783D01*
X0078542Y0059634D01*
X0078504Y0059485D01*
X0078463Y0059338D01*
X0078418Y0059191D01*
X0078369Y0059046D01*
X0078317Y0058902D01*
X0078260Y0058760D01*
X0078200Y0058619D01*
X0078137Y0058480D01*
X0078069Y0058342D01*
X0077999Y0058206D01*
X0077924Y0058072D01*
X0077847Y0057940D01*
X0077765Y0057810D01*
X0077681Y0057682D01*
X0077593Y0057557D01*
X0077502Y0057434D01*
X0077408Y0057313D01*
X0077311Y0057195D01*
X0077210Y0057079D01*
X0077107Y0056966D01*
X0077001Y0056855D01*
X0076892Y0056748D01*
X0076780Y0056643D01*
X0076666Y0056541D01*
X0076549Y0056442D01*
X0076429Y0056347D01*
X0076307Y0056254D01*
X0076183Y0056165D01*
X0076056Y0056078D01*
X0075927Y0055996D01*
X0075796Y0055916D01*
X0075663Y0055840D01*
X0075528Y0055768D01*
X0075391Y0055699D01*
X0075253Y0055633D01*
X0075113Y0055571D01*
X0074971Y0055513D01*
X0074828Y0055459D01*
X0074683Y0055408D01*
X0074538Y0055361D01*
X0074391Y0055318D01*
X0074243Y0055279D01*
X0074094Y0055243D01*
X0073944Y0055212D01*
X0073793Y0055184D01*
X0073642Y0055160D01*
X0073490Y0055140D01*
X0073337Y0055124D01*
X0073185Y0055112D01*
X0073032Y0055104D01*
X0072879Y0055100D01*
X0072725Y0055100D01*
X0072572Y0055104D01*
X0072419Y0055112D01*
X0072267Y0055124D01*
X0072114Y0055140D01*
X0071962Y0055160D01*
X0071811Y0055184D01*
X0071660Y0055212D01*
X0071510Y0055243D01*
X0071361Y0055279D01*
X0071213Y0055318D01*
X0071066Y0055361D01*
X0070921Y0055408D01*
X0070776Y0055459D01*
X0070633Y0055513D01*
X0070491Y0055571D01*
X0070351Y0055633D01*
X0070213Y0055699D01*
X0070076Y0055768D01*
X0069941Y0055840D01*
X0069808Y0055916D01*
X0069677Y0055996D01*
X0069548Y0056078D01*
X0069421Y0056165D01*
X0069297Y0056254D01*
X0069175Y0056347D01*
X0069055Y0056442D01*
X0068938Y0056541D01*
X0068824Y0056643D01*
X0068712Y0056748D01*
X0068603Y0056855D01*
X0068497Y0056966D01*
X0068394Y0057079D01*
X0068293Y0057195D01*
X0068196Y0057313D01*
X0068102Y0057434D01*
X0068011Y0057557D01*
X0067923Y0057682D01*
X0067839Y0057810D01*
X0067757Y0057940D01*
X0067680Y0058072D01*
X0067605Y0058206D01*
X0067535Y0058342D01*
X0067467Y0058480D01*
X0067404Y0058619D01*
X0067344Y0058760D01*
X0067287Y0058902D01*
X0067235Y0059046D01*
X0067186Y0059191D01*
X0067141Y0059338D01*
X0067100Y0059485D01*
X0067062Y0059634D01*
X0067029Y0059783D01*
X0066999Y0059934D01*
X0066973Y0060085D01*
X0066952Y0060236D01*
X0066934Y0060388D01*
X0066920Y0060541D01*
X0066910Y0060694D01*
X0066904Y0060847D01*
X0066902Y0061000D01*
X0084502Y0061000D02*
X0084504Y0061089D01*
X0084510Y0061178D01*
X0084520Y0061267D01*
X0084534Y0061355D01*
X0084551Y0061442D01*
X0084573Y0061528D01*
X0084599Y0061614D01*
X0084628Y0061698D01*
X0084661Y0061781D01*
X0084697Y0061862D01*
X0084738Y0061942D01*
X0084781Y0062019D01*
X0084828Y0062095D01*
X0084879Y0062168D01*
X0084932Y0062239D01*
X0084989Y0062308D01*
X0085049Y0062374D01*
X0085112Y0062438D01*
X0085177Y0062498D01*
X0085245Y0062556D01*
X0085316Y0062610D01*
X0085389Y0062661D01*
X0085464Y0062709D01*
X0085541Y0062754D01*
X0085620Y0062795D01*
X0085701Y0062832D01*
X0085783Y0062866D01*
X0085867Y0062897D01*
X0085952Y0062923D01*
X0086038Y0062946D01*
X0086125Y0062964D01*
X0086213Y0062979D01*
X0086302Y0062990D01*
X0086391Y0062997D01*
X0086480Y0063000D01*
X0086569Y0062999D01*
X0086658Y0062994D01*
X0086746Y0062985D01*
X0086835Y0062972D01*
X0086922Y0062955D01*
X0087009Y0062935D01*
X0087095Y0062910D01*
X0087179Y0062882D01*
X0087262Y0062850D01*
X0087344Y0062814D01*
X0087424Y0062775D01*
X0087502Y0062732D01*
X0087578Y0062686D01*
X0087652Y0062636D01*
X0087724Y0062583D01*
X0087793Y0062527D01*
X0087860Y0062468D01*
X0087924Y0062406D01*
X0087985Y0062342D01*
X0088044Y0062274D01*
X0088099Y0062204D01*
X0088151Y0062132D01*
X0088200Y0062057D01*
X0088245Y0061981D01*
X0088287Y0061902D01*
X0088325Y0061822D01*
X0088360Y0061740D01*
X0088391Y0061656D01*
X0088419Y0061571D01*
X0088442Y0061485D01*
X0088462Y0061398D01*
X0088478Y0061311D01*
X0088490Y0061222D01*
X0088498Y0061134D01*
X0088502Y0061045D01*
X0088502Y0060955D01*
X0088498Y0060866D01*
X0088490Y0060778D01*
X0088478Y0060689D01*
X0088462Y0060602D01*
X0088442Y0060515D01*
X0088419Y0060429D01*
X0088391Y0060344D01*
X0088360Y0060260D01*
X0088325Y0060178D01*
X0088287Y0060098D01*
X0088245Y0060019D01*
X0088200Y0059943D01*
X0088151Y0059868D01*
X0088099Y0059796D01*
X0088044Y0059726D01*
X0087985Y0059658D01*
X0087924Y0059594D01*
X0087860Y0059532D01*
X0087793Y0059473D01*
X0087724Y0059417D01*
X0087652Y0059364D01*
X0087578Y0059314D01*
X0087502Y0059268D01*
X0087424Y0059225D01*
X0087344Y0059186D01*
X0087262Y0059150D01*
X0087179Y0059118D01*
X0087095Y0059090D01*
X0087009Y0059065D01*
X0086922Y0059045D01*
X0086835Y0059028D01*
X0086746Y0059015D01*
X0086658Y0059006D01*
X0086569Y0059001D01*
X0086480Y0059000D01*
X0086391Y0059003D01*
X0086302Y0059010D01*
X0086213Y0059021D01*
X0086125Y0059036D01*
X0086038Y0059054D01*
X0085952Y0059077D01*
X0085867Y0059103D01*
X0085783Y0059134D01*
X0085701Y0059168D01*
X0085620Y0059205D01*
X0085541Y0059246D01*
X0085464Y0059291D01*
X0085389Y0059339D01*
X0085316Y0059390D01*
X0085245Y0059444D01*
X0085177Y0059502D01*
X0085112Y0059562D01*
X0085049Y0059626D01*
X0084989Y0059692D01*
X0084932Y0059761D01*
X0084879Y0059832D01*
X0084828Y0059905D01*
X0084781Y0059981D01*
X0084738Y0060058D01*
X0084697Y0060138D01*
X0084661Y0060219D01*
X0084628Y0060302D01*
X0084599Y0060386D01*
X0084573Y0060472D01*
X0084551Y0060558D01*
X0084534Y0060645D01*
X0084520Y0060733D01*
X0084510Y0060822D01*
X0084504Y0060911D01*
X0084502Y0061000D01*
X0154302Y0059000D02*
X0154302Y0065000D01*
X0154304Y0065060D01*
X0154309Y0065121D01*
X0154318Y0065180D01*
X0154331Y0065239D01*
X0154347Y0065298D01*
X0154367Y0065355D01*
X0154390Y0065410D01*
X0154417Y0065465D01*
X0154446Y0065517D01*
X0154479Y0065568D01*
X0154515Y0065617D01*
X0154553Y0065663D01*
X0154595Y0065707D01*
X0154639Y0065749D01*
X0154685Y0065787D01*
X0154734Y0065823D01*
X0154785Y0065856D01*
X0154837Y0065885D01*
X0154892Y0065912D01*
X0154947Y0065935D01*
X0155004Y0065955D01*
X0155063Y0065971D01*
X0155122Y0065984D01*
X0155181Y0065993D01*
X0155242Y0065998D01*
X0155302Y0066000D01*
X0172302Y0066000D01*
X0172362Y0065998D01*
X0172423Y0065993D01*
X0172482Y0065984D01*
X0172541Y0065971D01*
X0172600Y0065955D01*
X0172657Y0065935D01*
X0172712Y0065912D01*
X0172767Y0065885D01*
X0172819Y0065856D01*
X0172870Y0065823D01*
X0172919Y0065787D01*
X0172965Y0065749D01*
X0173009Y0065707D01*
X0173051Y0065663D01*
X0173089Y0065617D01*
X0173125Y0065568D01*
X0173158Y0065517D01*
X0173187Y0065465D01*
X0173214Y0065410D01*
X0173237Y0065355D01*
X0173257Y0065298D01*
X0173273Y0065239D01*
X0173286Y0065180D01*
X0173295Y0065121D01*
X0173300Y0065060D01*
X0173302Y0065000D01*
X0173302Y0059000D01*
X0173300Y0058940D01*
X0173295Y0058879D01*
X0173286Y0058820D01*
X0173273Y0058761D01*
X0173257Y0058702D01*
X0173237Y0058645D01*
X0173214Y0058590D01*
X0173187Y0058535D01*
X0173158Y0058483D01*
X0173125Y0058432D01*
X0173089Y0058383D01*
X0173051Y0058337D01*
X0173009Y0058293D01*
X0172965Y0058251D01*
X0172919Y0058213D01*
X0172870Y0058177D01*
X0172819Y0058144D01*
X0172767Y0058115D01*
X0172712Y0058088D01*
X0172657Y0058065D01*
X0172600Y0058045D01*
X0172541Y0058029D01*
X0172482Y0058016D01*
X0172423Y0058007D01*
X0172362Y0058002D01*
X0172302Y0058000D01*
X0155302Y0058000D01*
X0155242Y0058002D01*
X0155181Y0058007D01*
X0155122Y0058016D01*
X0155063Y0058029D01*
X0155004Y0058045D01*
X0154947Y0058065D01*
X0154892Y0058088D01*
X0154837Y0058115D01*
X0154785Y0058144D01*
X0154734Y0058177D01*
X0154685Y0058213D01*
X0154639Y0058251D01*
X0154595Y0058293D01*
X0154553Y0058337D01*
X0154515Y0058383D01*
X0154479Y0058432D01*
X0154446Y0058483D01*
X0154417Y0058535D01*
X0154390Y0058590D01*
X0154367Y0058645D01*
X0154347Y0058702D01*
X0154331Y0058761D01*
X0154318Y0058820D01*
X0154309Y0058879D01*
X0154304Y0058940D01*
X0154302Y0059000D01*
X0154802Y0062000D02*
X0156802Y0062000D01*
X0163802Y0065000D02*
X0163802Y0066000D01*
X0170802Y0062000D02*
X0172802Y0062000D01*
X0163802Y0059000D02*
X0163802Y0058000D01*
X0204802Y0052000D02*
X0204802Y0051500D01*
X0204802Y0049500D01*
X0204802Y0044500D01*
X0204802Y0042500D01*
X0204802Y0042000D01*
X0206802Y0042000D01*
X0206802Y0042500D01*
X0206802Y0044500D01*
X0206802Y0049500D01*
X0206802Y0051500D01*
X0206802Y0052000D01*
X0204802Y0052000D01*
X0204802Y0049500D02*
X0206802Y0049500D01*
X0206802Y0044500D02*
X0204802Y0044500D01*
X0259302Y0031000D02*
X0259302Y0071000D01*
X0260302Y0071000D01*
X0286302Y0071000D01*
X0286302Y0064500D01*
X0286302Y0057500D01*
X0286302Y0044500D01*
X0286302Y0037500D01*
X0286302Y0031000D01*
X0295802Y0031000D01*
X0295802Y0071000D01*
X0286302Y0071000D01*
X0273402Y0061000D02*
X0273404Y0061153D01*
X0273410Y0061306D01*
X0273420Y0061459D01*
X0273434Y0061612D01*
X0273452Y0061764D01*
X0273473Y0061915D01*
X0273499Y0062066D01*
X0273529Y0062217D01*
X0273562Y0062366D01*
X0273600Y0062515D01*
X0273641Y0062662D01*
X0273686Y0062809D01*
X0273735Y0062954D01*
X0273787Y0063098D01*
X0273844Y0063240D01*
X0273904Y0063381D01*
X0273967Y0063520D01*
X0274035Y0063658D01*
X0274105Y0063794D01*
X0274180Y0063928D01*
X0274257Y0064060D01*
X0274339Y0064190D01*
X0274423Y0064318D01*
X0274511Y0064443D01*
X0274602Y0064566D01*
X0274696Y0064687D01*
X0274793Y0064805D01*
X0274894Y0064921D01*
X0274997Y0065034D01*
X0275103Y0065145D01*
X0275212Y0065252D01*
X0275324Y0065357D01*
X0275438Y0065459D01*
X0275555Y0065558D01*
X0275675Y0065653D01*
X0275797Y0065746D01*
X0275921Y0065835D01*
X0276048Y0065922D01*
X0276177Y0066004D01*
X0276308Y0066084D01*
X0276441Y0066160D01*
X0276576Y0066232D01*
X0276713Y0066301D01*
X0276851Y0066367D01*
X0276991Y0066429D01*
X0277133Y0066487D01*
X0277276Y0066541D01*
X0277421Y0066592D01*
X0277566Y0066639D01*
X0277713Y0066682D01*
X0277861Y0066721D01*
X0278010Y0066757D01*
X0278160Y0066788D01*
X0278311Y0066816D01*
X0278462Y0066840D01*
X0278614Y0066860D01*
X0278767Y0066876D01*
X0278919Y0066888D01*
X0279072Y0066896D01*
X0279225Y0066900D01*
X0279379Y0066900D01*
X0279532Y0066896D01*
X0279685Y0066888D01*
X0279837Y0066876D01*
X0279990Y0066860D01*
X0280142Y0066840D01*
X0280293Y0066816D01*
X0280444Y0066788D01*
X0280594Y0066757D01*
X0280743Y0066721D01*
X0280891Y0066682D01*
X0281038Y0066639D01*
X0281183Y0066592D01*
X0281328Y0066541D01*
X0281471Y0066487D01*
X0281613Y0066429D01*
X0281753Y0066367D01*
X0281891Y0066301D01*
X0282028Y0066232D01*
X0282163Y0066160D01*
X0282296Y0066084D01*
X0282427Y0066004D01*
X0282556Y0065922D01*
X0282683Y0065835D01*
X0282807Y0065746D01*
X0282929Y0065653D01*
X0283049Y0065558D01*
X0283166Y0065459D01*
X0283280Y0065357D01*
X0283392Y0065252D01*
X0283501Y0065145D01*
X0283607Y0065034D01*
X0283710Y0064921D01*
X0283811Y0064805D01*
X0283908Y0064687D01*
X0284002Y0064566D01*
X0284093Y0064443D01*
X0284181Y0064318D01*
X0284265Y0064190D01*
X0284347Y0064060D01*
X0284424Y0063928D01*
X0284499Y0063794D01*
X0284569Y0063658D01*
X0284637Y0063520D01*
X0284700Y0063381D01*
X0284760Y0063240D01*
X0284817Y0063098D01*
X0284869Y0062954D01*
X0284918Y0062809D01*
X0284963Y0062662D01*
X0285004Y0062515D01*
X0285042Y0062366D01*
X0285075Y0062217D01*
X0285105Y0062066D01*
X0285131Y0061915D01*
X0285152Y0061764D01*
X0285170Y0061612D01*
X0285184Y0061459D01*
X0285194Y0061306D01*
X0285200Y0061153D01*
X0285202Y0061000D01*
X0285200Y0060847D01*
X0285194Y0060694D01*
X0285184Y0060541D01*
X0285170Y0060388D01*
X0285152Y0060236D01*
X0285131Y0060085D01*
X0285105Y0059934D01*
X0285075Y0059783D01*
X0285042Y0059634D01*
X0285004Y0059485D01*
X0284963Y0059338D01*
X0284918Y0059191D01*
X0284869Y0059046D01*
X0284817Y0058902D01*
X0284760Y0058760D01*
X0284700Y0058619D01*
X0284637Y0058480D01*
X0284569Y0058342D01*
X0284499Y0058206D01*
X0284424Y0058072D01*
X0284347Y0057940D01*
X0284265Y0057810D01*
X0284181Y0057682D01*
X0284093Y0057557D01*
X0284002Y0057434D01*
X0283908Y0057313D01*
X0283811Y0057195D01*
X0283710Y0057079D01*
X0283607Y0056966D01*
X0283501Y0056855D01*
X0283392Y0056748D01*
X0283280Y0056643D01*
X0283166Y0056541D01*
X0283049Y0056442D01*
X0282929Y0056347D01*
X0282807Y0056254D01*
X0282683Y0056165D01*
X0282556Y0056078D01*
X0282427Y0055996D01*
X0282296Y0055916D01*
X0282163Y0055840D01*
X0282028Y0055768D01*
X0281891Y0055699D01*
X0281753Y0055633D01*
X0281613Y0055571D01*
X0281471Y0055513D01*
X0281328Y0055459D01*
X0281183Y0055408D01*
X0281038Y0055361D01*
X0280891Y0055318D01*
X0280743Y0055279D01*
X0280594Y0055243D01*
X0280444Y0055212D01*
X0280293Y0055184D01*
X0280142Y0055160D01*
X0279990Y0055140D01*
X0279837Y0055124D01*
X0279685Y0055112D01*
X0279532Y0055104D01*
X0279379Y0055100D01*
X0279225Y0055100D01*
X0279072Y0055104D01*
X0278919Y0055112D01*
X0278767Y0055124D01*
X0278614Y0055140D01*
X0278462Y0055160D01*
X0278311Y0055184D01*
X0278160Y0055212D01*
X0278010Y0055243D01*
X0277861Y0055279D01*
X0277713Y0055318D01*
X0277566Y0055361D01*
X0277421Y0055408D01*
X0277276Y0055459D01*
X0277133Y0055513D01*
X0276991Y0055571D01*
X0276851Y0055633D01*
X0276713Y0055699D01*
X0276576Y0055768D01*
X0276441Y0055840D01*
X0276308Y0055916D01*
X0276177Y0055996D01*
X0276048Y0056078D01*
X0275921Y0056165D01*
X0275797Y0056254D01*
X0275675Y0056347D01*
X0275555Y0056442D01*
X0275438Y0056541D01*
X0275324Y0056643D01*
X0275212Y0056748D01*
X0275103Y0056855D01*
X0274997Y0056966D01*
X0274894Y0057079D01*
X0274793Y0057195D01*
X0274696Y0057313D01*
X0274602Y0057434D01*
X0274511Y0057557D01*
X0274423Y0057682D01*
X0274339Y0057810D01*
X0274257Y0057940D01*
X0274180Y0058072D01*
X0274105Y0058206D01*
X0274035Y0058342D01*
X0273967Y0058480D01*
X0273904Y0058619D01*
X0273844Y0058760D01*
X0273787Y0058902D01*
X0273735Y0059046D01*
X0273686Y0059191D01*
X0273641Y0059338D01*
X0273600Y0059485D01*
X0273562Y0059634D01*
X0273529Y0059783D01*
X0273499Y0059934D01*
X0273473Y0060085D01*
X0273452Y0060236D01*
X0273434Y0060388D01*
X0273420Y0060541D01*
X0273410Y0060694D01*
X0273404Y0060847D01*
X0273402Y0061000D01*
X0263602Y0061000D02*
X0263604Y0061089D01*
X0263610Y0061178D01*
X0263620Y0061267D01*
X0263634Y0061355D01*
X0263651Y0061442D01*
X0263673Y0061528D01*
X0263699Y0061614D01*
X0263728Y0061698D01*
X0263761Y0061781D01*
X0263797Y0061862D01*
X0263838Y0061942D01*
X0263881Y0062019D01*
X0263928Y0062095D01*
X0263979Y0062168D01*
X0264032Y0062239D01*
X0264089Y0062308D01*
X0264149Y0062374D01*
X0264212Y0062438D01*
X0264277Y0062498D01*
X0264345Y0062556D01*
X0264416Y0062610D01*
X0264489Y0062661D01*
X0264564Y0062709D01*
X0264641Y0062754D01*
X0264720Y0062795D01*
X0264801Y0062832D01*
X0264883Y0062866D01*
X0264967Y0062897D01*
X0265052Y0062923D01*
X0265138Y0062946D01*
X0265225Y0062964D01*
X0265313Y0062979D01*
X0265402Y0062990D01*
X0265491Y0062997D01*
X0265580Y0063000D01*
X0265669Y0062999D01*
X0265758Y0062994D01*
X0265846Y0062985D01*
X0265935Y0062972D01*
X0266022Y0062955D01*
X0266109Y0062935D01*
X0266195Y0062910D01*
X0266279Y0062882D01*
X0266362Y0062850D01*
X0266444Y0062814D01*
X0266524Y0062775D01*
X0266602Y0062732D01*
X0266678Y0062686D01*
X0266752Y0062636D01*
X0266824Y0062583D01*
X0266893Y0062527D01*
X0266960Y0062468D01*
X0267024Y0062406D01*
X0267085Y0062342D01*
X0267144Y0062274D01*
X0267199Y0062204D01*
X0267251Y0062132D01*
X0267300Y0062057D01*
X0267345Y0061981D01*
X0267387Y0061902D01*
X0267425Y0061822D01*
X0267460Y0061740D01*
X0267491Y0061656D01*
X0267519Y0061571D01*
X0267542Y0061485D01*
X0267562Y0061398D01*
X0267578Y0061311D01*
X0267590Y0061222D01*
X0267598Y0061134D01*
X0267602Y0061045D01*
X0267602Y0060955D01*
X0267598Y0060866D01*
X0267590Y0060778D01*
X0267578Y0060689D01*
X0267562Y0060602D01*
X0267542Y0060515D01*
X0267519Y0060429D01*
X0267491Y0060344D01*
X0267460Y0060260D01*
X0267425Y0060178D01*
X0267387Y0060098D01*
X0267345Y0060019D01*
X0267300Y0059943D01*
X0267251Y0059868D01*
X0267199Y0059796D01*
X0267144Y0059726D01*
X0267085Y0059658D01*
X0267024Y0059594D01*
X0266960Y0059532D01*
X0266893Y0059473D01*
X0266824Y0059417D01*
X0266752Y0059364D01*
X0266678Y0059314D01*
X0266602Y0059268D01*
X0266524Y0059225D01*
X0266444Y0059186D01*
X0266362Y0059150D01*
X0266279Y0059118D01*
X0266195Y0059090D01*
X0266109Y0059065D01*
X0266022Y0059045D01*
X0265935Y0059028D01*
X0265846Y0059015D01*
X0265758Y0059006D01*
X0265669Y0059001D01*
X0265580Y0059000D01*
X0265491Y0059003D01*
X0265402Y0059010D01*
X0265313Y0059021D01*
X0265225Y0059036D01*
X0265138Y0059054D01*
X0265052Y0059077D01*
X0264967Y0059103D01*
X0264883Y0059134D01*
X0264801Y0059168D01*
X0264720Y0059205D01*
X0264641Y0059246D01*
X0264564Y0059291D01*
X0264489Y0059339D01*
X0264416Y0059390D01*
X0264345Y0059444D01*
X0264277Y0059502D01*
X0264212Y0059562D01*
X0264149Y0059626D01*
X0264089Y0059692D01*
X0264032Y0059761D01*
X0263979Y0059832D01*
X0263928Y0059905D01*
X0263881Y0059981D01*
X0263838Y0060058D01*
X0263797Y0060138D01*
X0263761Y0060219D01*
X0263728Y0060302D01*
X0263699Y0060386D01*
X0263673Y0060472D01*
X0263651Y0060558D01*
X0263634Y0060645D01*
X0263620Y0060733D01*
X0263610Y0060822D01*
X0263604Y0060911D01*
X0263602Y0061000D01*
X0260302Y0071000D02*
X0260302Y0031000D01*
X0259302Y0031000D01*
X0260302Y0031000D02*
X0286302Y0031000D01*
X0273402Y0041000D02*
X0273404Y0041153D01*
X0273410Y0041306D01*
X0273420Y0041459D01*
X0273434Y0041612D01*
X0273452Y0041764D01*
X0273473Y0041915D01*
X0273499Y0042066D01*
X0273529Y0042217D01*
X0273562Y0042366D01*
X0273600Y0042515D01*
X0273641Y0042662D01*
X0273686Y0042809D01*
X0273735Y0042954D01*
X0273787Y0043098D01*
X0273844Y0043240D01*
X0273904Y0043381D01*
X0273967Y0043520D01*
X0274035Y0043658D01*
X0274105Y0043794D01*
X0274180Y0043928D01*
X0274257Y0044060D01*
X0274339Y0044190D01*
X0274423Y0044318D01*
X0274511Y0044443D01*
X0274602Y0044566D01*
X0274696Y0044687D01*
X0274793Y0044805D01*
X0274894Y0044921D01*
X0274997Y0045034D01*
X0275103Y0045145D01*
X0275212Y0045252D01*
X0275324Y0045357D01*
X0275438Y0045459D01*
X0275555Y0045558D01*
X0275675Y0045653D01*
X0275797Y0045746D01*
X0275921Y0045835D01*
X0276048Y0045922D01*
X0276177Y0046004D01*
X0276308Y0046084D01*
X0276441Y0046160D01*
X0276576Y0046232D01*
X0276713Y0046301D01*
X0276851Y0046367D01*
X0276991Y0046429D01*
X0277133Y0046487D01*
X0277276Y0046541D01*
X0277421Y0046592D01*
X0277566Y0046639D01*
X0277713Y0046682D01*
X0277861Y0046721D01*
X0278010Y0046757D01*
X0278160Y0046788D01*
X0278311Y0046816D01*
X0278462Y0046840D01*
X0278614Y0046860D01*
X0278767Y0046876D01*
X0278919Y0046888D01*
X0279072Y0046896D01*
X0279225Y0046900D01*
X0279379Y0046900D01*
X0279532Y0046896D01*
X0279685Y0046888D01*
X0279837Y0046876D01*
X0279990Y0046860D01*
X0280142Y0046840D01*
X0280293Y0046816D01*
X0280444Y0046788D01*
X0280594Y0046757D01*
X0280743Y0046721D01*
X0280891Y0046682D01*
X0281038Y0046639D01*
X0281183Y0046592D01*
X0281328Y0046541D01*
X0281471Y0046487D01*
X0281613Y0046429D01*
X0281753Y0046367D01*
X0281891Y0046301D01*
X0282028Y0046232D01*
X0282163Y0046160D01*
X0282296Y0046084D01*
X0282427Y0046004D01*
X0282556Y0045922D01*
X0282683Y0045835D01*
X0282807Y0045746D01*
X0282929Y0045653D01*
X0283049Y0045558D01*
X0283166Y0045459D01*
X0283280Y0045357D01*
X0283392Y0045252D01*
X0283501Y0045145D01*
X0283607Y0045034D01*
X0283710Y0044921D01*
X0283811Y0044805D01*
X0283908Y0044687D01*
X0284002Y0044566D01*
X0284093Y0044443D01*
X0284181Y0044318D01*
X0284265Y0044190D01*
X0284347Y0044060D01*
X0284424Y0043928D01*
X0284499Y0043794D01*
X0284569Y0043658D01*
X0284637Y0043520D01*
X0284700Y0043381D01*
X0284760Y0043240D01*
X0284817Y0043098D01*
X0284869Y0042954D01*
X0284918Y0042809D01*
X0284963Y0042662D01*
X0285004Y0042515D01*
X0285042Y0042366D01*
X0285075Y0042217D01*
X0285105Y0042066D01*
X0285131Y0041915D01*
X0285152Y0041764D01*
X0285170Y0041612D01*
X0285184Y0041459D01*
X0285194Y0041306D01*
X0285200Y0041153D01*
X0285202Y0041000D01*
X0285200Y0040847D01*
X0285194Y0040694D01*
X0285184Y0040541D01*
X0285170Y0040388D01*
X0285152Y0040236D01*
X0285131Y0040085D01*
X0285105Y0039934D01*
X0285075Y0039783D01*
X0285042Y0039634D01*
X0285004Y0039485D01*
X0284963Y0039338D01*
X0284918Y0039191D01*
X0284869Y0039046D01*
X0284817Y0038902D01*
X0284760Y0038760D01*
X0284700Y0038619D01*
X0284637Y0038480D01*
X0284569Y0038342D01*
X0284499Y0038206D01*
X0284424Y0038072D01*
X0284347Y0037940D01*
X0284265Y0037810D01*
X0284181Y0037682D01*
X0284093Y0037557D01*
X0284002Y0037434D01*
X0283908Y0037313D01*
X0283811Y0037195D01*
X0283710Y0037079D01*
X0283607Y0036966D01*
X0283501Y0036855D01*
X0283392Y0036748D01*
X0283280Y0036643D01*
X0283166Y0036541D01*
X0283049Y0036442D01*
X0282929Y0036347D01*
X0282807Y0036254D01*
X0282683Y0036165D01*
X0282556Y0036078D01*
X0282427Y0035996D01*
X0282296Y0035916D01*
X0282163Y0035840D01*
X0282028Y0035768D01*
X0281891Y0035699D01*
X0281753Y0035633D01*
X0281613Y0035571D01*
X0281471Y0035513D01*
X0281328Y0035459D01*
X0281183Y0035408D01*
X0281038Y0035361D01*
X0280891Y0035318D01*
X0280743Y0035279D01*
X0280594Y0035243D01*
X0280444Y0035212D01*
X0280293Y0035184D01*
X0280142Y0035160D01*
X0279990Y0035140D01*
X0279837Y0035124D01*
X0279685Y0035112D01*
X0279532Y0035104D01*
X0279379Y0035100D01*
X0279225Y0035100D01*
X0279072Y0035104D01*
X0278919Y0035112D01*
X0278767Y0035124D01*
X0278614Y0035140D01*
X0278462Y0035160D01*
X0278311Y0035184D01*
X0278160Y0035212D01*
X0278010Y0035243D01*
X0277861Y0035279D01*
X0277713Y0035318D01*
X0277566Y0035361D01*
X0277421Y0035408D01*
X0277276Y0035459D01*
X0277133Y0035513D01*
X0276991Y0035571D01*
X0276851Y0035633D01*
X0276713Y0035699D01*
X0276576Y0035768D01*
X0276441Y0035840D01*
X0276308Y0035916D01*
X0276177Y0035996D01*
X0276048Y0036078D01*
X0275921Y0036165D01*
X0275797Y0036254D01*
X0275675Y0036347D01*
X0275555Y0036442D01*
X0275438Y0036541D01*
X0275324Y0036643D01*
X0275212Y0036748D01*
X0275103Y0036855D01*
X0274997Y0036966D01*
X0274894Y0037079D01*
X0274793Y0037195D01*
X0274696Y0037313D01*
X0274602Y0037434D01*
X0274511Y0037557D01*
X0274423Y0037682D01*
X0274339Y0037810D01*
X0274257Y0037940D01*
X0274180Y0038072D01*
X0274105Y0038206D01*
X0274035Y0038342D01*
X0273967Y0038480D01*
X0273904Y0038619D01*
X0273844Y0038760D01*
X0273787Y0038902D01*
X0273735Y0039046D01*
X0273686Y0039191D01*
X0273641Y0039338D01*
X0273600Y0039485D01*
X0273562Y0039634D01*
X0273529Y0039783D01*
X0273499Y0039934D01*
X0273473Y0040085D01*
X0273452Y0040236D01*
X0273434Y0040388D01*
X0273420Y0040541D01*
X0273410Y0040694D01*
X0273404Y0040847D01*
X0273402Y0041000D01*
X0263602Y0041000D02*
X0263604Y0041089D01*
X0263610Y0041178D01*
X0263620Y0041267D01*
X0263634Y0041355D01*
X0263651Y0041442D01*
X0263673Y0041528D01*
X0263699Y0041614D01*
X0263728Y0041698D01*
X0263761Y0041781D01*
X0263797Y0041862D01*
X0263838Y0041942D01*
X0263881Y0042019D01*
X0263928Y0042095D01*
X0263979Y0042168D01*
X0264032Y0042239D01*
X0264089Y0042308D01*
X0264149Y0042374D01*
X0264212Y0042438D01*
X0264277Y0042498D01*
X0264345Y0042556D01*
X0264416Y0042610D01*
X0264489Y0042661D01*
X0264564Y0042709D01*
X0264641Y0042754D01*
X0264720Y0042795D01*
X0264801Y0042832D01*
X0264883Y0042866D01*
X0264967Y0042897D01*
X0265052Y0042923D01*
X0265138Y0042946D01*
X0265225Y0042964D01*
X0265313Y0042979D01*
X0265402Y0042990D01*
X0265491Y0042997D01*
X0265580Y0043000D01*
X0265669Y0042999D01*
X0265758Y0042994D01*
X0265846Y0042985D01*
X0265935Y0042972D01*
X0266022Y0042955D01*
X0266109Y0042935D01*
X0266195Y0042910D01*
X0266279Y0042882D01*
X0266362Y0042850D01*
X0266444Y0042814D01*
X0266524Y0042775D01*
X0266602Y0042732D01*
X0266678Y0042686D01*
X0266752Y0042636D01*
X0266824Y0042583D01*
X0266893Y0042527D01*
X0266960Y0042468D01*
X0267024Y0042406D01*
X0267085Y0042342D01*
X0267144Y0042274D01*
X0267199Y0042204D01*
X0267251Y0042132D01*
X0267300Y0042057D01*
X0267345Y0041981D01*
X0267387Y0041902D01*
X0267425Y0041822D01*
X0267460Y0041740D01*
X0267491Y0041656D01*
X0267519Y0041571D01*
X0267542Y0041485D01*
X0267562Y0041398D01*
X0267578Y0041311D01*
X0267590Y0041222D01*
X0267598Y0041134D01*
X0267602Y0041045D01*
X0267602Y0040955D01*
X0267598Y0040866D01*
X0267590Y0040778D01*
X0267578Y0040689D01*
X0267562Y0040602D01*
X0267542Y0040515D01*
X0267519Y0040429D01*
X0267491Y0040344D01*
X0267460Y0040260D01*
X0267425Y0040178D01*
X0267387Y0040098D01*
X0267345Y0040019D01*
X0267300Y0039943D01*
X0267251Y0039868D01*
X0267199Y0039796D01*
X0267144Y0039726D01*
X0267085Y0039658D01*
X0267024Y0039594D01*
X0266960Y0039532D01*
X0266893Y0039473D01*
X0266824Y0039417D01*
X0266752Y0039364D01*
X0266678Y0039314D01*
X0266602Y0039268D01*
X0266524Y0039225D01*
X0266444Y0039186D01*
X0266362Y0039150D01*
X0266279Y0039118D01*
X0266195Y0039090D01*
X0266109Y0039065D01*
X0266022Y0039045D01*
X0265935Y0039028D01*
X0265846Y0039015D01*
X0265758Y0039006D01*
X0265669Y0039001D01*
X0265580Y0039000D01*
X0265491Y0039003D01*
X0265402Y0039010D01*
X0265313Y0039021D01*
X0265225Y0039036D01*
X0265138Y0039054D01*
X0265052Y0039077D01*
X0264967Y0039103D01*
X0264883Y0039134D01*
X0264801Y0039168D01*
X0264720Y0039205D01*
X0264641Y0039246D01*
X0264564Y0039291D01*
X0264489Y0039339D01*
X0264416Y0039390D01*
X0264345Y0039444D01*
X0264277Y0039502D01*
X0264212Y0039562D01*
X0264149Y0039626D01*
X0264089Y0039692D01*
X0264032Y0039761D01*
X0263979Y0039832D01*
X0263928Y0039905D01*
X0263881Y0039981D01*
X0263838Y0040058D01*
X0263797Y0040138D01*
X0263761Y0040219D01*
X0263728Y0040302D01*
X0263699Y0040386D01*
X0263673Y0040472D01*
X0263651Y0040558D01*
X0263634Y0040645D01*
X0263620Y0040733D01*
X0263610Y0040822D01*
X0263604Y0040911D01*
X0263602Y0041000D01*
X0237802Y0018000D02*
X0237102Y0018700D01*
X0236202Y0018000D01*
X0235402Y0018400D01*
X0235202Y0019500D01*
X0234302Y0019500D01*
X0234002Y0018400D01*
X0233202Y0018000D01*
X0232302Y0018700D01*
X0231602Y0018000D01*
X0232202Y0017100D01*
X0231902Y0016200D01*
X0230802Y0016000D01*
X0230802Y0015100D01*
X0231802Y0014900D01*
X0232202Y0014000D01*
X0231602Y0013100D01*
X0232302Y0012500D01*
X0233102Y0013100D01*
X0233502Y0012900D01*
X0234102Y0014500D01*
X0235302Y0014500D02*
X0235902Y0012900D01*
X0236302Y0013100D01*
X0237102Y0012500D01*
X0237802Y0013100D01*
X0237202Y0014000D01*
X0237602Y0014900D01*
X0238602Y0015100D01*
X0238602Y0016000D01*
X0237602Y0016200D01*
X0237202Y0017100D01*
X0237802Y0018000D01*
X0235302Y0014500D02*
X0235361Y0014536D01*
X0235417Y0014575D01*
X0235472Y0014618D01*
X0235524Y0014663D01*
X0235573Y0014711D01*
X0235619Y0014762D01*
X0235663Y0014816D01*
X0235703Y0014872D01*
X0235740Y0014930D01*
X0235774Y0014990D01*
X0235804Y0015052D01*
X0235830Y0015116D01*
X0235853Y0015181D01*
X0235872Y0015247D01*
X0235888Y0015314D01*
X0235899Y0015382D01*
X0235907Y0015450D01*
X0235911Y0015519D01*
X0235910Y0015588D01*
X0235906Y0015657D01*
X0235898Y0015725D01*
X0235886Y0015793D01*
X0235870Y0015860D01*
X0235851Y0015926D01*
X0235828Y0015991D01*
X0235801Y0016055D01*
X0235770Y0016116D01*
X0235736Y0016176D01*
X0235699Y0016234D01*
X0235658Y0016290D01*
X0235614Y0016343D01*
X0235568Y0016394D01*
X0235518Y0016442D01*
X0235466Y0016487D01*
X0235411Y0016529D01*
X0235355Y0016568D01*
X0235295Y0016603D01*
X0235234Y0016635D01*
X0235172Y0016664D01*
X0235108Y0016689D01*
X0235042Y0016710D01*
X0234975Y0016728D01*
X0234908Y0016741D01*
X0234840Y0016751D01*
X0234771Y0016757D01*
X0234702Y0016759D01*
X0234633Y0016757D01*
X0234564Y0016751D01*
X0234496Y0016741D01*
X0234429Y0016728D01*
X0234362Y0016710D01*
X0234296Y0016689D01*
X0234232Y0016664D01*
X0234170Y0016635D01*
X0234109Y0016603D01*
X0234049Y0016568D01*
X0233993Y0016529D01*
X0233938Y0016487D01*
X0233886Y0016442D01*
X0233836Y0016394D01*
X0233790Y0016343D01*
X0233746Y0016290D01*
X0233705Y0016234D01*
X0233668Y0016176D01*
X0233634Y0016116D01*
X0233603Y0016055D01*
X0233576Y0015991D01*
X0233553Y0015926D01*
X0233534Y0015860D01*
X0233518Y0015793D01*
X0233506Y0015725D01*
X0233498Y0015657D01*
X0233494Y0015588D01*
X0233493Y0015519D01*
X0233497Y0015450D01*
X0233505Y0015382D01*
X0233516Y0015314D01*
X0233532Y0015247D01*
X0233551Y0015181D01*
X0233574Y0015116D01*
X0233600Y0015052D01*
X0233630Y0014990D01*
X0233664Y0014930D01*
X0233701Y0014872D01*
X0233741Y0014816D01*
X0233785Y0014762D01*
X0233831Y0014711D01*
X0233880Y0014663D01*
X0233932Y0014618D01*
X0233987Y0014575D01*
X0234043Y0014536D01*
X0234102Y0014500D01*
X0234043Y0014536D01*
X0233987Y0014575D01*
X0233932Y0014618D01*
X0233880Y0014663D01*
X0233831Y0014711D01*
X0233785Y0014762D01*
X0233741Y0014816D01*
X0233701Y0014872D01*
X0233664Y0014930D01*
X0233630Y0014990D01*
X0233600Y0015052D01*
X0233574Y0015116D01*
X0233551Y0015181D01*
X0233532Y0015247D01*
X0233516Y0015314D01*
X0233505Y0015382D01*
X0233497Y0015450D01*
X0233493Y0015519D01*
X0233494Y0015588D01*
X0233498Y0015657D01*
X0233506Y0015725D01*
X0233518Y0015793D01*
X0233534Y0015860D01*
X0233553Y0015926D01*
X0233576Y0015991D01*
X0233603Y0016055D01*
X0233634Y0016116D01*
X0233668Y0016176D01*
X0233705Y0016234D01*
X0233746Y0016290D01*
X0233790Y0016343D01*
X0233836Y0016394D01*
X0233886Y0016442D01*
X0233938Y0016487D01*
X0233993Y0016529D01*
X0234049Y0016568D01*
X0234109Y0016603D01*
X0234170Y0016635D01*
X0234232Y0016664D01*
X0234296Y0016689D01*
X0234362Y0016710D01*
X0234429Y0016728D01*
X0234496Y0016741D01*
X0234564Y0016751D01*
X0234633Y0016757D01*
X0234702Y0016759D01*
X0234771Y0016757D01*
X0234840Y0016751D01*
X0234908Y0016741D01*
X0234975Y0016728D01*
X0235042Y0016710D01*
X0235108Y0016689D01*
X0235172Y0016664D01*
X0235234Y0016635D01*
X0235295Y0016603D01*
X0235355Y0016568D01*
X0235411Y0016529D01*
X0235466Y0016487D01*
X0235518Y0016442D01*
X0235568Y0016394D01*
X0235614Y0016343D01*
X0235658Y0016290D01*
X0235699Y0016234D01*
X0235736Y0016176D01*
X0235770Y0016116D01*
X0235801Y0016055D01*
X0235828Y0015991D01*
X0235851Y0015926D01*
X0235870Y0015860D01*
X0235886Y0015793D01*
X0235898Y0015725D01*
X0235906Y0015657D01*
X0235910Y0015588D01*
X0235911Y0015519D01*
X0235907Y0015450D01*
X0235899Y0015382D01*
X0235888Y0015314D01*
X0235872Y0015247D01*
X0235853Y0015181D01*
X0235830Y0015116D01*
X0235804Y0015052D01*
X0235774Y0014990D01*
X0235740Y0014930D01*
X0235703Y0014872D01*
X0235663Y0014816D01*
X0235619Y0014762D01*
X0235573Y0014711D01*
X0235524Y0014663D01*
X0235472Y0014618D01*
X0235417Y0014575D01*
X0235361Y0014536D01*
X0235302Y0014500D01*
X0111302Y0027500D02*
X0107302Y0027500D01*
D13*
X0106802Y0027500D03*
D14*
X0119203Y0034000D02*
X0119203Y0036902D01*
X0124400Y0037000D02*
X0124400Y0034000D01*
X0094310Y0040837D02*
X0093543Y0040070D01*
X0094310Y0040837D02*
X0094310Y0041605D01*
X0093543Y0042372D01*
X0089706Y0042372D01*
X0089706Y0041605D02*
X0089706Y0043139D01*
X0091241Y0044674D02*
X0089706Y0046209D01*
X0094310Y0046209D01*
X0094310Y0047743D02*
X0094310Y0044674D01*
X0055924Y0044887D02*
X0055924Y0042585D01*
X0051320Y0042585D01*
X0051320Y0044887D01*
X0052088Y0045654D01*
X0052855Y0045654D01*
X0053622Y0044887D01*
X0053622Y0042585D01*
X0052088Y0041050D02*
X0051320Y0040283D01*
X0051320Y0038748D01*
X0052088Y0037981D01*
X0055157Y0037981D01*
X0055924Y0038748D01*
X0055924Y0040283D01*
X0055157Y0041050D01*
X0055924Y0044887D02*
X0055157Y0045654D01*
X0054390Y0045654D01*
X0053622Y0044887D01*
X0053622Y0051793D02*
X0053622Y0053327D01*
X0051320Y0054862D02*
X0051320Y0051793D01*
X0055924Y0051793D01*
X0055924Y0054862D01*
X0055157Y0056397D02*
X0053622Y0056397D01*
X0052855Y0057164D01*
X0052855Y0059466D01*
X0051320Y0059466D02*
X0055924Y0059466D01*
X0055924Y0057164D01*
X0055157Y0056397D01*
X0055157Y0061001D02*
X0055924Y0061768D01*
X0055924Y0064070D01*
X0056692Y0064070D02*
X0052855Y0064070D01*
X0052855Y0061768D01*
X0053622Y0061001D01*
X0055157Y0061001D01*
X0057459Y0062535D02*
X0057459Y0063303D01*
X0056692Y0064070D01*
X0055157Y0065605D02*
X0053622Y0065605D01*
X0052855Y0066372D01*
X0052855Y0067907D01*
X0053622Y0068674D01*
X0054390Y0068674D01*
X0054390Y0065605D01*
X0055157Y0065605D02*
X0055924Y0066372D01*
X0055924Y0067907D01*
X0053622Y0036446D02*
X0052088Y0036446D01*
X0051320Y0035679D01*
X0051320Y0033377D01*
X0055924Y0033377D01*
X0054390Y0033377D02*
X0054390Y0035679D01*
X0053622Y0036446D01*
X0083802Y0023098D02*
X0086703Y0023098D01*
X0086802Y0017902D02*
X0083802Y0017902D01*
X0271203Y0085500D02*
X0271203Y0088402D01*
X0276400Y0088500D02*
X0276400Y0085500D01*
D15*
X0273806Y0084123D03*
X0273806Y0089823D03*
X0121806Y0038323D03*
X0121806Y0032623D03*
D16*
X0088125Y0020495D03*
X0082425Y0020495D03*
D17*
X0063605Y0026878D02*
X0058802Y0026878D01*
X0001400Y0026878D01*
X0001400Y0074122D01*
X0058802Y0074122D01*
X0063605Y0074122D01*
X0058802Y0074122D02*
X0058802Y0026878D01*
X0075416Y0034752D02*
X0075416Y0066248D01*
X0103302Y0065900D02*
X0116302Y0065900D01*
X0116302Y0040100D01*
X0103302Y0040100D01*
X0103302Y0065900D01*
X0127367Y0071000D02*
X0200202Y0071000D01*
X0200202Y0011945D01*
X0127367Y0011945D01*
X0127367Y0071000D01*
X0159991Y0080913D02*
X0183613Y0080913D01*
X0183613Y0084850D01*
X0177313Y0085638D02*
X0166290Y0085638D01*
X0166290Y0090362D01*
X0177313Y0090362D01*
X0177313Y0085638D01*
X0183613Y0091150D02*
X0183613Y0095087D01*
X0159991Y0095087D01*
X0159991Y0091150D01*
X0159991Y0084850D02*
X0159991Y0080913D01*
X0192353Y0084063D02*
X0192353Y0091937D01*
X0197865Y0091937D01*
X0200620Y0090756D02*
X0200620Y0088000D01*
X0202983Y0090362D01*
X0202983Y0085638D01*
X0200620Y0088000D01*
X0200620Y0085244D01*
X0197865Y0084063D02*
X0192353Y0084063D01*
X0205739Y0084063D02*
X0211250Y0084063D01*
X0211250Y0091937D01*
X0205739Y0091937D01*
X0239302Y0077000D02*
X0239302Y0068000D01*
X0239302Y0077000D02*
X0246302Y0077000D01*
X0264302Y0077000D02*
X0295302Y0077000D01*
X0295302Y0025000D01*
X0264302Y0025000D01*
X0246302Y0025000D02*
X0239302Y0025000D01*
X0239302Y0034000D01*
X0027384Y0033571D02*
X0027384Y0043020D01*
X0018329Y0043020D01*
X0018329Y0033571D01*
X0027384Y0033571D01*
X0027384Y0057980D02*
X0018329Y0057980D01*
X0018329Y0067429D01*
X0027384Y0067429D01*
X0027384Y0057980D01*
D18*
X0120552Y0053000D03*
X0120552Y0053000D03*
D19*
X0099052Y0053000D03*
X0099052Y0053000D03*
X0099052Y0043900D03*
X0099052Y0043900D03*
X0099052Y0062100D03*
X0099052Y0062100D03*
D20*
X0085052Y0064146D02*
X0085052Y0067149D01*
X0085052Y0065647D02*
X0080548Y0065647D01*
X0082049Y0064146D01*
X0085053Y0082238D02*
X0085301Y0079500D01*
X0085301Y0079500D01*
X0085053Y0076762D01*
X0085052Y0076761D01*
X0084949Y0076773D01*
X0084845Y0076788D01*
X0084743Y0076807D01*
X0084641Y0076831D01*
X0084540Y0076858D01*
X0084441Y0076888D01*
X0084342Y0076923D01*
X0084245Y0076961D01*
X0084150Y0077003D01*
X0084056Y0077049D01*
X0083964Y0077098D01*
X0083873Y0077150D01*
X0083785Y0077206D01*
X0083699Y0077265D01*
X0083616Y0077328D01*
X0083535Y0077393D01*
X0083456Y0077462D01*
X0083380Y0077533D01*
X0083307Y0077608D01*
X0083236Y0077685D01*
X0083169Y0077764D01*
X0083105Y0077847D01*
X0083043Y0077931D01*
X0082986Y0078018D01*
X0082931Y0078107D01*
X0082880Y0078198D01*
X0082832Y0078291D01*
X0082788Y0078385D01*
X0082748Y0078481D01*
X0082711Y0078579D01*
X0082678Y0078678D01*
X0082648Y0078778D01*
X0082623Y0078879D01*
X0082601Y0078981D01*
X0082584Y0079084D01*
X0082570Y0079188D01*
X0082560Y0079291D01*
X0082554Y0079396D01*
X0082552Y0079500D01*
X0082554Y0079604D01*
X0082560Y0079709D01*
X0082570Y0079812D01*
X0082584Y0079916D01*
X0082601Y0080019D01*
X0082623Y0080121D01*
X0082648Y0080222D01*
X0082678Y0080322D01*
X0082711Y0080421D01*
X0082748Y0080519D01*
X0082788Y0080615D01*
X0082832Y0080709D01*
X0082880Y0080802D01*
X0082931Y0080893D01*
X0082986Y0080982D01*
X0083043Y0081069D01*
X0083105Y0081153D01*
X0083169Y0081236D01*
X0083236Y0081315D01*
X0083307Y0081392D01*
X0083380Y0081467D01*
X0083456Y0081538D01*
X0083535Y0081607D01*
X0083616Y0081672D01*
X0083699Y0081735D01*
X0083785Y0081794D01*
X0083873Y0081850D01*
X0083964Y0081902D01*
X0084056Y0081951D01*
X0084150Y0081997D01*
X0084245Y0082039D01*
X0084342Y0082077D01*
X0084441Y0082112D01*
X0084540Y0082142D01*
X0084641Y0082169D01*
X0084743Y0082193D01*
X0084845Y0082212D01*
X0084949Y0082227D01*
X0085052Y0082239D01*
X0085053Y0081762D01*
X0084958Y0081750D01*
X0084865Y0081734D01*
X0084772Y0081713D01*
X0084680Y0081689D01*
X0084589Y0081661D01*
X0084500Y0081630D01*
X0084411Y0081595D01*
X0084325Y0081556D01*
X0084240Y0081513D01*
X0084157Y0081467D01*
X0084076Y0081417D01*
X0083997Y0081365D01*
X0083920Y0081308D01*
X0083846Y0081249D01*
X0083774Y0081187D01*
X0083705Y0081122D01*
X0083639Y0081054D01*
X0083575Y0080983D01*
X0083515Y0080910D01*
X0083458Y0080834D01*
X0083404Y0080756D01*
X0083353Y0080675D01*
X0083306Y0080593D01*
X0083262Y0080509D01*
X0083221Y0080423D01*
X0083185Y0080335D01*
X0083152Y0080246D01*
X0083122Y0080156D01*
X0083097Y0080064D01*
X0083075Y0079972D01*
X0083058Y0079878D01*
X0083044Y0079784D01*
X0083034Y0079690D01*
X0083028Y0079595D01*
X0083026Y0079500D01*
X0083028Y0079405D01*
X0083034Y0079310D01*
X0083044Y0079216D01*
X0083058Y0079122D01*
X0083075Y0079028D01*
X0083097Y0078936D01*
X0083122Y0078844D01*
X0083152Y0078754D01*
X0083185Y0078665D01*
X0083221Y0078577D01*
X0083262Y0078491D01*
X0083306Y0078407D01*
X0083353Y0078325D01*
X0083404Y0078244D01*
X0083458Y0078166D01*
X0083515Y0078090D01*
X0083575Y0078017D01*
X0083639Y0077946D01*
X0083705Y0077878D01*
X0083774Y0077813D01*
X0083846Y0077751D01*
X0083920Y0077692D01*
X0083997Y0077635D01*
X0084076Y0077583D01*
X0084157Y0077533D01*
X0084240Y0077487D01*
X0084325Y0077444D01*
X0084411Y0077405D01*
X0084500Y0077370D01*
X0084589Y0077339D01*
X0084680Y0077311D01*
X0084772Y0077287D01*
X0084865Y0077266D01*
X0084958Y0077250D01*
X0085053Y0077238D01*
X0085053Y0077715D01*
X0084971Y0077729D01*
X0084889Y0077746D01*
X0084809Y0077767D01*
X0084729Y0077791D01*
X0084651Y0077820D01*
X0084574Y0077852D01*
X0084499Y0077887D01*
X0084425Y0077926D01*
X0084353Y0077968D01*
X0084283Y0078013D01*
X0084216Y0078062D01*
X0084151Y0078114D01*
X0084088Y0078168D01*
X0084028Y0078226D01*
X0083970Y0078286D01*
X0083916Y0078349D01*
X0083864Y0078414D01*
X0083815Y0078482D01*
X0083770Y0078551D01*
X0083728Y0078623D01*
X0083689Y0078697D01*
X0083654Y0078772D01*
X0083622Y0078849D01*
X0083593Y0078927D01*
X0083569Y0079007D01*
X0083548Y0079087D01*
X0083531Y0079169D01*
X0083517Y0079251D01*
X0083508Y0079334D01*
X0083502Y0079417D01*
X0083500Y0079500D01*
X0083502Y0079583D01*
X0083508Y0079666D01*
X0083517Y0079749D01*
X0083531Y0079831D01*
X0083548Y0079913D01*
X0083569Y0079993D01*
X0083593Y0080073D01*
X0083622Y0080151D01*
X0083654Y0080228D01*
X0083689Y0080303D01*
X0083728Y0080377D01*
X0083770Y0080449D01*
X0083815Y0080518D01*
X0083864Y0080586D01*
X0083916Y0080651D01*
X0083970Y0080714D01*
X0084028Y0080774D01*
X0084088Y0080832D01*
X0084151Y0080886D01*
X0084216Y0080938D01*
X0084283Y0080987D01*
X0084353Y0081032D01*
X0084425Y0081074D01*
X0084499Y0081113D01*
X0084574Y0081148D01*
X0084651Y0081180D01*
X0084729Y0081209D01*
X0084809Y0081233D01*
X0084889Y0081254D01*
X0084971Y0081271D01*
X0085053Y0081285D01*
X0085053Y0080805D01*
X0084983Y0080789D01*
X0084914Y0080770D01*
X0084846Y0080747D01*
X0084779Y0080721D01*
X0084713Y0080690D01*
X0084650Y0080657D01*
X0084588Y0080620D01*
X0084528Y0080579D01*
X0084471Y0080536D01*
X0084416Y0080489D01*
X0084364Y0080440D01*
X0084314Y0080388D01*
X0084267Y0080333D01*
X0084224Y0080275D01*
X0084183Y0080216D01*
X0084146Y0080154D01*
X0084113Y0080091D01*
X0084082Y0080025D01*
X0084056Y0079958D01*
X0084033Y0079890D01*
X0084013Y0079821D01*
X0083998Y0079750D01*
X0083986Y0079679D01*
X0083978Y0079608D01*
X0083974Y0079536D01*
X0083974Y0079464D01*
X0083978Y0079392D01*
X0083986Y0079321D01*
X0083998Y0079250D01*
X0084013Y0079179D01*
X0084033Y0079110D01*
X0084056Y0079042D01*
X0084082Y0078975D01*
X0084113Y0078909D01*
X0084146Y0078846D01*
X0084183Y0078784D01*
X0084224Y0078725D01*
X0084267Y0078667D01*
X0084314Y0078612D01*
X0084364Y0078560D01*
X0084416Y0078511D01*
X0084471Y0078464D01*
X0084528Y0078421D01*
X0084588Y0078380D01*
X0084650Y0078343D01*
X0084713Y0078310D01*
X0084779Y0078279D01*
X0084846Y0078253D01*
X0084914Y0078230D01*
X0084983Y0078211D01*
X0085053Y0078195D01*
X0085056Y0078682D01*
X0085001Y0078701D01*
X0084948Y0078723D01*
X0084897Y0078748D01*
X0084847Y0078777D01*
X0084800Y0078809D01*
X0084754Y0078845D01*
X0084711Y0078883D01*
X0084671Y0078924D01*
X0084634Y0078968D01*
X0084600Y0079014D01*
X0084569Y0079062D01*
X0084541Y0079113D01*
X0084517Y0079165D01*
X0084496Y0079218D01*
X0084479Y0079273D01*
X0084465Y0079329D01*
X0084456Y0079385D01*
X0084450Y0079443D01*
X0084448Y0079500D01*
X0084450Y0079557D01*
X0084456Y0079615D01*
X0084465Y0079671D01*
X0084479Y0079727D01*
X0084496Y0079782D01*
X0084517Y0079835D01*
X0084541Y0079887D01*
X0084569Y0079938D01*
X0084600Y0079986D01*
X0084634Y0080032D01*
X0084671Y0080076D01*
X0084711Y0080117D01*
X0084754Y0080155D01*
X0084800Y0080191D01*
X0084847Y0080223D01*
X0084897Y0080252D01*
X0084948Y0080277D01*
X0085001Y0080299D01*
X0085056Y0080318D01*
X0085070Y0079801D01*
X0085042Y0079777D01*
X0085016Y0079751D01*
X0084994Y0079722D01*
X0084974Y0079692D01*
X0084957Y0079659D01*
X0084943Y0079625D01*
X0084933Y0079590D01*
X0084926Y0079555D01*
X0084922Y0079518D01*
X0084922Y0079482D01*
X0084926Y0079445D01*
X0084933Y0079410D01*
X0084943Y0079375D01*
X0084957Y0079341D01*
X0084974Y0079308D01*
X0084994Y0079278D01*
X0085016Y0079249D01*
X0085042Y0079223D01*
X0085070Y0079199D01*
X0087551Y0076762D02*
X0087303Y0079500D01*
X0087303Y0079500D01*
X0087551Y0082238D01*
X0087552Y0082239D01*
X0087655Y0082227D01*
X0087759Y0082212D01*
X0087861Y0082193D01*
X0087963Y0082169D01*
X0088064Y0082142D01*
X0088163Y0082112D01*
X0088262Y0082077D01*
X0088359Y0082039D01*
X0088454Y0081997D01*
X0088548Y0081951D01*
X0088640Y0081902D01*
X0088731Y0081850D01*
X0088819Y0081794D01*
X0088905Y0081735D01*
X0088988Y0081672D01*
X0089069Y0081607D01*
X0089148Y0081538D01*
X0089224Y0081467D01*
X0089297Y0081392D01*
X0089368Y0081315D01*
X0089435Y0081236D01*
X0089499Y0081153D01*
X0089561Y0081069D01*
X0089618Y0080982D01*
X0089673Y0080893D01*
X0089724Y0080802D01*
X0089772Y0080709D01*
X0089816Y0080615D01*
X0089856Y0080519D01*
X0089893Y0080421D01*
X0089926Y0080322D01*
X0089956Y0080222D01*
X0089981Y0080121D01*
X0090003Y0080019D01*
X0090020Y0079916D01*
X0090034Y0079812D01*
X0090044Y0079709D01*
X0090050Y0079604D01*
X0090052Y0079500D01*
X0090050Y0079396D01*
X0090044Y0079291D01*
X0090034Y0079188D01*
X0090020Y0079084D01*
X0090003Y0078981D01*
X0089981Y0078879D01*
X0089956Y0078778D01*
X0089926Y0078678D01*
X0089893Y0078579D01*
X0089856Y0078481D01*
X0089816Y0078385D01*
X0089772Y0078291D01*
X0089724Y0078198D01*
X0089673Y0078107D01*
X0089618Y0078018D01*
X0089561Y0077931D01*
X0089499Y0077847D01*
X0089435Y0077764D01*
X0089368Y0077685D01*
X0089297Y0077608D01*
X0089224Y0077533D01*
X0089148Y0077462D01*
X0089069Y0077393D01*
X0088988Y0077328D01*
X0088905Y0077265D01*
X0088819Y0077206D01*
X0088731Y0077150D01*
X0088640Y0077098D01*
X0088548Y0077049D01*
X0088454Y0077003D01*
X0088359Y0076961D01*
X0088262Y0076923D01*
X0088163Y0076888D01*
X0088064Y0076858D01*
X0087963Y0076831D01*
X0087861Y0076807D01*
X0087759Y0076788D01*
X0087655Y0076773D01*
X0087552Y0076761D01*
X0087551Y0077238D01*
X0087646Y0077250D01*
X0087739Y0077266D01*
X0087832Y0077287D01*
X0087924Y0077311D01*
X0088015Y0077339D01*
X0088104Y0077370D01*
X0088193Y0077405D01*
X0088279Y0077444D01*
X0088364Y0077487D01*
X0088447Y0077533D01*
X0088528Y0077583D01*
X0088607Y0077635D01*
X0088684Y0077692D01*
X0088758Y0077751D01*
X0088830Y0077813D01*
X0088899Y0077878D01*
X0088965Y0077946D01*
X0089029Y0078017D01*
X0089089Y0078090D01*
X0089146Y0078166D01*
X0089200Y0078244D01*
X0089251Y0078325D01*
X0089298Y0078407D01*
X0089342Y0078491D01*
X0089383Y0078577D01*
X0089419Y0078665D01*
X0089452Y0078754D01*
X0089482Y0078844D01*
X0089507Y0078936D01*
X0089529Y0079028D01*
X0089546Y0079122D01*
X0089560Y0079216D01*
X0089570Y0079310D01*
X0089576Y0079405D01*
X0089578Y0079500D01*
X0089576Y0079595D01*
X0089570Y0079690D01*
X0089560Y0079784D01*
X0089546Y0079878D01*
X0089529Y0079972D01*
X0089507Y0080064D01*
X0089482Y0080156D01*
X0089452Y0080246D01*
X0089419Y0080335D01*
X0089383Y0080423D01*
X0089342Y0080509D01*
X0089298Y0080593D01*
X0089251Y0080675D01*
X0089200Y0080756D01*
X0089146Y0080834D01*
X0089089Y0080910D01*
X0089029Y0080983D01*
X0088965Y0081054D01*
X0088899Y0081122D01*
X0088830Y0081187D01*
X0088758Y0081249D01*
X0088684Y0081308D01*
X0088607Y0081365D01*
X0088528Y0081417D01*
X0088447Y0081467D01*
X0088364Y0081513D01*
X0088279Y0081556D01*
X0088193Y0081595D01*
X0088104Y0081630D01*
X0088015Y0081661D01*
X0087924Y0081689D01*
X0087832Y0081713D01*
X0087739Y0081734D01*
X0087646Y0081750D01*
X0087551Y0081762D01*
X0087551Y0081285D01*
X0087633Y0081271D01*
X0087715Y0081254D01*
X0087795Y0081233D01*
X0087875Y0081209D01*
X0087953Y0081180D01*
X0088030Y0081148D01*
X0088105Y0081113D01*
X0088179Y0081074D01*
X0088251Y0081032D01*
X0088321Y0080987D01*
X0088388Y0080938D01*
X0088453Y0080886D01*
X0088516Y0080832D01*
X0088576Y0080774D01*
X0088634Y0080714D01*
X0088688Y0080651D01*
X0088740Y0080586D01*
X0088789Y0080518D01*
X0088834Y0080449D01*
X0088876Y0080377D01*
X0088915Y0080303D01*
X0088950Y0080228D01*
X0088982Y0080151D01*
X0089011Y0080073D01*
X0089035Y0079993D01*
X0089056Y0079913D01*
X0089073Y0079831D01*
X0089087Y0079749D01*
X0089096Y0079666D01*
X0089102Y0079583D01*
X0089104Y0079500D01*
X0089102Y0079417D01*
X0089096Y0079334D01*
X0089087Y0079251D01*
X0089073Y0079169D01*
X0089056Y0079087D01*
X0089035Y0079007D01*
X0089011Y0078927D01*
X0088982Y0078849D01*
X0088950Y0078772D01*
X0088915Y0078697D01*
X0088876Y0078623D01*
X0088834Y0078551D01*
X0088789Y0078482D01*
X0088740Y0078414D01*
X0088688Y0078349D01*
X0088634Y0078286D01*
X0088576Y0078226D01*
X0088516Y0078168D01*
X0088453Y0078114D01*
X0088388Y0078062D01*
X0088321Y0078013D01*
X0088251Y0077968D01*
X0088179Y0077926D01*
X0088105Y0077887D01*
X0088030Y0077852D01*
X0087953Y0077820D01*
X0087875Y0077791D01*
X0087795Y0077767D01*
X0087715Y0077746D01*
X0087633Y0077729D01*
X0087551Y0077715D01*
X0087551Y0078195D01*
X0087621Y0078211D01*
X0087690Y0078230D01*
X0087758Y0078253D01*
X0087825Y0078279D01*
X0087891Y0078310D01*
X0087954Y0078343D01*
X0088016Y0078380D01*
X0088076Y0078421D01*
X0088133Y0078464D01*
X0088188Y0078511D01*
X0088240Y0078560D01*
X0088290Y0078612D01*
X0088337Y0078667D01*
X0088380Y0078725D01*
X0088421Y0078784D01*
X0088458Y0078846D01*
X0088491Y0078909D01*
X0088522Y0078975D01*
X0088548Y0079042D01*
X0088571Y0079110D01*
X0088591Y0079179D01*
X0088606Y0079250D01*
X0088618Y0079321D01*
X0088626Y0079392D01*
X0088630Y0079464D01*
X0088630Y0079536D01*
X0088626Y0079608D01*
X0088618Y0079679D01*
X0088606Y0079750D01*
X0088591Y0079821D01*
X0088571Y0079890D01*
X0088548Y0079958D01*
X0088522Y0080025D01*
X0088491Y0080091D01*
X0088458Y0080154D01*
X0088421Y0080216D01*
X0088380Y0080275D01*
X0088337Y0080333D01*
X0088290Y0080388D01*
X0088240Y0080440D01*
X0088188Y0080489D01*
X0088133Y0080536D01*
X0088076Y0080579D01*
X0088016Y0080620D01*
X0087954Y0080657D01*
X0087891Y0080690D01*
X0087825Y0080721D01*
X0087758Y0080747D01*
X0087690Y0080770D01*
X0087621Y0080789D01*
X0087551Y0080805D01*
X0087548Y0080318D01*
X0087603Y0080299D01*
X0087656Y0080277D01*
X0087707Y0080252D01*
X0087757Y0080223D01*
X0087804Y0080191D01*
X0087850Y0080155D01*
X0087893Y0080117D01*
X0087933Y0080076D01*
X0087970Y0080032D01*
X0088004Y0079986D01*
X0088035Y0079938D01*
X0088063Y0079887D01*
X0088087Y0079835D01*
X0088108Y0079782D01*
X0088125Y0079727D01*
X0088139Y0079671D01*
X0088148Y0079615D01*
X0088154Y0079557D01*
X0088156Y0079500D01*
X0088154Y0079443D01*
X0088148Y0079385D01*
X0088139Y0079329D01*
X0088125Y0079273D01*
X0088108Y0079218D01*
X0088087Y0079165D01*
X0088063Y0079113D01*
X0088035Y0079062D01*
X0088004Y0079014D01*
X0087970Y0078968D01*
X0087933Y0078924D01*
X0087893Y0078883D01*
X0087850Y0078845D01*
X0087804Y0078809D01*
X0087757Y0078777D01*
X0087707Y0078748D01*
X0087656Y0078723D01*
X0087603Y0078701D01*
X0087548Y0078682D01*
X0087534Y0079199D01*
X0087562Y0079223D01*
X0087588Y0079249D01*
X0087610Y0079278D01*
X0087630Y0079308D01*
X0087647Y0079341D01*
X0087661Y0079375D01*
X0087671Y0079410D01*
X0087678Y0079445D01*
X0087682Y0079482D01*
X0087682Y0079518D01*
X0087678Y0079555D01*
X0087671Y0079590D01*
X0087661Y0079625D01*
X0087647Y0079659D01*
X0087630Y0079692D01*
X0087610Y0079722D01*
X0087588Y0079751D01*
X0087562Y0079777D01*
X0087534Y0079801D01*
X0121553Y0082238D02*
X0121801Y0079500D01*
X0121801Y0079500D01*
X0121553Y0076762D01*
X0121552Y0076761D01*
X0121449Y0076773D01*
X0121345Y0076788D01*
X0121243Y0076807D01*
X0121141Y0076831D01*
X0121040Y0076858D01*
X0120941Y0076888D01*
X0120842Y0076923D01*
X0120745Y0076961D01*
X0120650Y0077003D01*
X0120556Y0077049D01*
X0120464Y0077098D01*
X0120373Y0077150D01*
X0120285Y0077206D01*
X0120199Y0077265D01*
X0120116Y0077328D01*
X0120035Y0077393D01*
X0119956Y0077462D01*
X0119880Y0077533D01*
X0119807Y0077608D01*
X0119736Y0077685D01*
X0119669Y0077764D01*
X0119605Y0077847D01*
X0119543Y0077931D01*
X0119486Y0078018D01*
X0119431Y0078107D01*
X0119380Y0078198D01*
X0119332Y0078291D01*
X0119288Y0078385D01*
X0119248Y0078481D01*
X0119211Y0078579D01*
X0119178Y0078678D01*
X0119148Y0078778D01*
X0119123Y0078879D01*
X0119101Y0078981D01*
X0119084Y0079084D01*
X0119070Y0079188D01*
X0119060Y0079291D01*
X0119054Y0079396D01*
X0119052Y0079500D01*
X0119054Y0079604D01*
X0119060Y0079709D01*
X0119070Y0079812D01*
X0119084Y0079916D01*
X0119101Y0080019D01*
X0119123Y0080121D01*
X0119148Y0080222D01*
X0119178Y0080322D01*
X0119211Y0080421D01*
X0119248Y0080519D01*
X0119288Y0080615D01*
X0119332Y0080709D01*
X0119380Y0080802D01*
X0119431Y0080893D01*
X0119486Y0080982D01*
X0119543Y0081069D01*
X0119605Y0081153D01*
X0119669Y0081236D01*
X0119736Y0081315D01*
X0119807Y0081392D01*
X0119880Y0081467D01*
X0119956Y0081538D01*
X0120035Y0081607D01*
X0120116Y0081672D01*
X0120199Y0081735D01*
X0120285Y0081794D01*
X0120373Y0081850D01*
X0120464Y0081902D01*
X0120556Y0081951D01*
X0120650Y0081997D01*
X0120745Y0082039D01*
X0120842Y0082077D01*
X0120941Y0082112D01*
X0121040Y0082142D01*
X0121141Y0082169D01*
X0121243Y0082193D01*
X0121345Y0082212D01*
X0121449Y0082227D01*
X0121552Y0082239D01*
X0121553Y0081762D01*
X0121458Y0081750D01*
X0121365Y0081734D01*
X0121272Y0081713D01*
X0121180Y0081689D01*
X0121089Y0081661D01*
X0121000Y0081630D01*
X0120911Y0081595D01*
X0120825Y0081556D01*
X0120740Y0081513D01*
X0120657Y0081467D01*
X0120576Y0081417D01*
X0120497Y0081365D01*
X0120420Y0081308D01*
X0120346Y0081249D01*
X0120274Y0081187D01*
X0120205Y0081122D01*
X0120139Y0081054D01*
X0120075Y0080983D01*
X0120015Y0080910D01*
X0119958Y0080834D01*
X0119904Y0080756D01*
X0119853Y0080675D01*
X0119806Y0080593D01*
X0119762Y0080509D01*
X0119721Y0080423D01*
X0119685Y0080335D01*
X0119652Y0080246D01*
X0119622Y0080156D01*
X0119597Y0080064D01*
X0119575Y0079972D01*
X0119558Y0079878D01*
X0119544Y0079784D01*
X0119534Y0079690D01*
X0119528Y0079595D01*
X0119526Y0079500D01*
X0119528Y0079405D01*
X0119534Y0079310D01*
X0119544Y0079216D01*
X0119558Y0079122D01*
X0119575Y0079028D01*
X0119597Y0078936D01*
X0119622Y0078844D01*
X0119652Y0078754D01*
X0119685Y0078665D01*
X0119721Y0078577D01*
X0119762Y0078491D01*
X0119806Y0078407D01*
X0119853Y0078325D01*
X0119904Y0078244D01*
X0119958Y0078166D01*
X0120015Y0078090D01*
X0120075Y0078017D01*
X0120139Y0077946D01*
X0120205Y0077878D01*
X0120274Y0077813D01*
X0120346Y0077751D01*
X0120420Y0077692D01*
X0120497Y0077635D01*
X0120576Y0077583D01*
X0120657Y0077533D01*
X0120740Y0077487D01*
X0120825Y0077444D01*
X0120911Y0077405D01*
X0121000Y0077370D01*
X0121089Y0077339D01*
X0121180Y0077311D01*
X0121272Y0077287D01*
X0121365Y0077266D01*
X0121458Y0077250D01*
X0121553Y0077238D01*
X0121553Y0077715D01*
X0121471Y0077729D01*
X0121389Y0077746D01*
X0121309Y0077767D01*
X0121229Y0077791D01*
X0121151Y0077820D01*
X0121074Y0077852D01*
X0120999Y0077887D01*
X0120925Y0077926D01*
X0120853Y0077968D01*
X0120783Y0078013D01*
X0120716Y0078062D01*
X0120651Y0078114D01*
X0120588Y0078168D01*
X0120528Y0078226D01*
X0120470Y0078286D01*
X0120416Y0078349D01*
X0120364Y0078414D01*
X0120315Y0078482D01*
X0120270Y0078551D01*
X0120228Y0078623D01*
X0120189Y0078697D01*
X0120154Y0078772D01*
X0120122Y0078849D01*
X0120093Y0078927D01*
X0120069Y0079007D01*
X0120048Y0079087D01*
X0120031Y0079169D01*
X0120017Y0079251D01*
X0120008Y0079334D01*
X0120002Y0079417D01*
X0120000Y0079500D01*
X0120002Y0079583D01*
X0120008Y0079666D01*
X0120017Y0079749D01*
X0120031Y0079831D01*
X0120048Y0079913D01*
X0120069Y0079993D01*
X0120093Y0080073D01*
X0120122Y0080151D01*
X0120154Y0080228D01*
X0120189Y0080303D01*
X0120228Y0080377D01*
X0120270Y0080449D01*
X0120315Y0080518D01*
X0120364Y0080586D01*
X0120416Y0080651D01*
X0120470Y0080714D01*
X0120528Y0080774D01*
X0120588Y0080832D01*
X0120651Y0080886D01*
X0120716Y0080938D01*
X0120783Y0080987D01*
X0120853Y0081032D01*
X0120925Y0081074D01*
X0120999Y0081113D01*
X0121074Y0081148D01*
X0121151Y0081180D01*
X0121229Y0081209D01*
X0121309Y0081233D01*
X0121389Y0081254D01*
X0121471Y0081271D01*
X0121553Y0081285D01*
X0121553Y0080805D01*
X0121483Y0080789D01*
X0121414Y0080770D01*
X0121346Y0080747D01*
X0121279Y0080721D01*
X0121213Y0080690D01*
X0121150Y0080657D01*
X0121088Y0080620D01*
X0121028Y0080579D01*
X0120971Y0080536D01*
X0120916Y0080489D01*
X0120864Y0080440D01*
X0120814Y0080388D01*
X0120767Y0080333D01*
X0120724Y0080275D01*
X0120683Y0080216D01*
X0120646Y0080154D01*
X0120613Y0080091D01*
X0120582Y0080025D01*
X0120556Y0079958D01*
X0120533Y0079890D01*
X0120513Y0079821D01*
X0120498Y0079750D01*
X0120486Y0079679D01*
X0120478Y0079608D01*
X0120474Y0079536D01*
X0120474Y0079464D01*
X0120478Y0079392D01*
X0120486Y0079321D01*
X0120498Y0079250D01*
X0120513Y0079179D01*
X0120533Y0079110D01*
X0120556Y0079042D01*
X0120582Y0078975D01*
X0120613Y0078909D01*
X0120646Y0078846D01*
X0120683Y0078784D01*
X0120724Y0078725D01*
X0120767Y0078667D01*
X0120814Y0078612D01*
X0120864Y0078560D01*
X0120916Y0078511D01*
X0120971Y0078464D01*
X0121028Y0078421D01*
X0121088Y0078380D01*
X0121150Y0078343D01*
X0121213Y0078310D01*
X0121279Y0078279D01*
X0121346Y0078253D01*
X0121414Y0078230D01*
X0121483Y0078211D01*
X0121553Y0078195D01*
X0121556Y0078682D01*
X0121501Y0078701D01*
X0121448Y0078723D01*
X0121397Y0078748D01*
X0121347Y0078777D01*
X0121300Y0078809D01*
X0121254Y0078845D01*
X0121211Y0078883D01*
X0121171Y0078924D01*
X0121134Y0078968D01*
X0121100Y0079014D01*
X0121069Y0079062D01*
X0121041Y0079113D01*
X0121017Y0079165D01*
X0120996Y0079218D01*
X0120979Y0079273D01*
X0120965Y0079329D01*
X0120956Y0079385D01*
X0120950Y0079443D01*
X0120948Y0079500D01*
X0120950Y0079557D01*
X0120956Y0079615D01*
X0120965Y0079671D01*
X0120979Y0079727D01*
X0120996Y0079782D01*
X0121017Y0079835D01*
X0121041Y0079887D01*
X0121069Y0079938D01*
X0121100Y0079986D01*
X0121134Y0080032D01*
X0121171Y0080076D01*
X0121211Y0080117D01*
X0121254Y0080155D01*
X0121300Y0080191D01*
X0121347Y0080223D01*
X0121397Y0080252D01*
X0121448Y0080277D01*
X0121501Y0080299D01*
X0121556Y0080318D01*
X0121570Y0079801D01*
X0121542Y0079777D01*
X0121516Y0079751D01*
X0121494Y0079722D01*
X0121474Y0079692D01*
X0121457Y0079659D01*
X0121443Y0079625D01*
X0121433Y0079590D01*
X0121426Y0079555D01*
X0121422Y0079518D01*
X0121422Y0079482D01*
X0121426Y0079445D01*
X0121433Y0079410D01*
X0121443Y0079375D01*
X0121457Y0079341D01*
X0121474Y0079308D01*
X0121494Y0079278D01*
X0121516Y0079249D01*
X0121542Y0079223D01*
X0121570Y0079199D01*
X0130051Y0076762D02*
X0129803Y0079500D01*
X0129803Y0079500D01*
X0130051Y0082238D01*
X0130052Y0082239D01*
X0130155Y0082227D01*
X0130259Y0082212D01*
X0130361Y0082193D01*
X0130463Y0082169D01*
X0130564Y0082142D01*
X0130663Y0082112D01*
X0130762Y0082077D01*
X0130859Y0082039D01*
X0130954Y0081997D01*
X0131048Y0081951D01*
X0131140Y0081902D01*
X0131231Y0081850D01*
X0131319Y0081794D01*
X0131405Y0081735D01*
X0131488Y0081672D01*
X0131569Y0081607D01*
X0131648Y0081538D01*
X0131724Y0081467D01*
X0131797Y0081392D01*
X0131868Y0081315D01*
X0131935Y0081236D01*
X0131999Y0081153D01*
X0132061Y0081069D01*
X0132118Y0080982D01*
X0132173Y0080893D01*
X0132224Y0080802D01*
X0132272Y0080709D01*
X0132316Y0080615D01*
X0132356Y0080519D01*
X0132393Y0080421D01*
X0132426Y0080322D01*
X0132456Y0080222D01*
X0132481Y0080121D01*
X0132503Y0080019D01*
X0132520Y0079916D01*
X0132534Y0079812D01*
X0132544Y0079709D01*
X0132550Y0079604D01*
X0132552Y0079500D01*
X0132550Y0079396D01*
X0132544Y0079291D01*
X0132534Y0079188D01*
X0132520Y0079084D01*
X0132503Y0078981D01*
X0132481Y0078879D01*
X0132456Y0078778D01*
X0132426Y0078678D01*
X0132393Y0078579D01*
X0132356Y0078481D01*
X0132316Y0078385D01*
X0132272Y0078291D01*
X0132224Y0078198D01*
X0132173Y0078107D01*
X0132118Y0078018D01*
X0132061Y0077931D01*
X0131999Y0077847D01*
X0131935Y0077764D01*
X0131868Y0077685D01*
X0131797Y0077608D01*
X0131724Y0077533D01*
X0131648Y0077462D01*
X0131569Y0077393D01*
X0131488Y0077328D01*
X0131405Y0077265D01*
X0131319Y0077206D01*
X0131231Y0077150D01*
X0131140Y0077098D01*
X0131048Y0077049D01*
X0130954Y0077003D01*
X0130859Y0076961D01*
X0130762Y0076923D01*
X0130663Y0076888D01*
X0130564Y0076858D01*
X0130463Y0076831D01*
X0130361Y0076807D01*
X0130259Y0076788D01*
X0130155Y0076773D01*
X0130052Y0076761D01*
X0130051Y0077238D01*
X0130146Y0077250D01*
X0130239Y0077266D01*
X0130332Y0077287D01*
X0130424Y0077311D01*
X0130515Y0077339D01*
X0130604Y0077370D01*
X0130693Y0077405D01*
X0130779Y0077444D01*
X0130864Y0077487D01*
X0130947Y0077533D01*
X0131028Y0077583D01*
X0131107Y0077635D01*
X0131184Y0077692D01*
X0131258Y0077751D01*
X0131330Y0077813D01*
X0131399Y0077878D01*
X0131465Y0077946D01*
X0131529Y0078017D01*
X0131589Y0078090D01*
X0131646Y0078166D01*
X0131700Y0078244D01*
X0131751Y0078325D01*
X0131798Y0078407D01*
X0131842Y0078491D01*
X0131883Y0078577D01*
X0131919Y0078665D01*
X0131952Y0078754D01*
X0131982Y0078844D01*
X0132007Y0078936D01*
X0132029Y0079028D01*
X0132046Y0079122D01*
X0132060Y0079216D01*
X0132070Y0079310D01*
X0132076Y0079405D01*
X0132078Y0079500D01*
X0132076Y0079595D01*
X0132070Y0079690D01*
X0132060Y0079784D01*
X0132046Y0079878D01*
X0132029Y0079972D01*
X0132007Y0080064D01*
X0131982Y0080156D01*
X0131952Y0080246D01*
X0131919Y0080335D01*
X0131883Y0080423D01*
X0131842Y0080509D01*
X0131798Y0080593D01*
X0131751Y0080675D01*
X0131700Y0080756D01*
X0131646Y0080834D01*
X0131589Y0080910D01*
X0131529Y0080983D01*
X0131465Y0081054D01*
X0131399Y0081122D01*
X0131330Y0081187D01*
X0131258Y0081249D01*
X0131184Y0081308D01*
X0131107Y0081365D01*
X0131028Y0081417D01*
X0130947Y0081467D01*
X0130864Y0081513D01*
X0130779Y0081556D01*
X0130693Y0081595D01*
X0130604Y0081630D01*
X0130515Y0081661D01*
X0130424Y0081689D01*
X0130332Y0081713D01*
X0130239Y0081734D01*
X0130146Y0081750D01*
X0130051Y0081762D01*
X0130051Y0081285D01*
X0130133Y0081271D01*
X0130215Y0081254D01*
X0130295Y0081233D01*
X0130375Y0081209D01*
X0130453Y0081180D01*
X0130530Y0081148D01*
X0130605Y0081113D01*
X0130679Y0081074D01*
X0130751Y0081032D01*
X0130821Y0080987D01*
X0130888Y0080938D01*
X0130953Y0080886D01*
X0131016Y0080832D01*
X0131076Y0080774D01*
X0131134Y0080714D01*
X0131188Y0080651D01*
X0131240Y0080586D01*
X0131289Y0080518D01*
X0131334Y0080449D01*
X0131376Y0080377D01*
X0131415Y0080303D01*
X0131450Y0080228D01*
X0131482Y0080151D01*
X0131511Y0080073D01*
X0131535Y0079993D01*
X0131556Y0079913D01*
X0131573Y0079831D01*
X0131587Y0079749D01*
X0131596Y0079666D01*
X0131602Y0079583D01*
X0131604Y0079500D01*
X0131602Y0079417D01*
X0131596Y0079334D01*
X0131587Y0079251D01*
X0131573Y0079169D01*
X0131556Y0079087D01*
X0131535Y0079007D01*
X0131511Y0078927D01*
X0131482Y0078849D01*
X0131450Y0078772D01*
X0131415Y0078697D01*
X0131376Y0078623D01*
X0131334Y0078551D01*
X0131289Y0078482D01*
X0131240Y0078414D01*
X0131188Y0078349D01*
X0131134Y0078286D01*
X0131076Y0078226D01*
X0131016Y0078168D01*
X0130953Y0078114D01*
X0130888Y0078062D01*
X0130821Y0078013D01*
X0130751Y0077968D01*
X0130679Y0077926D01*
X0130605Y0077887D01*
X0130530Y0077852D01*
X0130453Y0077820D01*
X0130375Y0077791D01*
X0130295Y0077767D01*
X0130215Y0077746D01*
X0130133Y0077729D01*
X0130051Y0077715D01*
X0130051Y0078195D01*
X0130121Y0078211D01*
X0130190Y0078230D01*
X0130258Y0078253D01*
X0130325Y0078279D01*
X0130391Y0078310D01*
X0130454Y0078343D01*
X0130516Y0078380D01*
X0130576Y0078421D01*
X0130633Y0078464D01*
X0130688Y0078511D01*
X0130740Y0078560D01*
X0130790Y0078612D01*
X0130837Y0078667D01*
X0130880Y0078725D01*
X0130921Y0078784D01*
X0130958Y0078846D01*
X0130991Y0078909D01*
X0131022Y0078975D01*
X0131048Y0079042D01*
X0131071Y0079110D01*
X0131091Y0079179D01*
X0131106Y0079250D01*
X0131118Y0079321D01*
X0131126Y0079392D01*
X0131130Y0079464D01*
X0131130Y0079536D01*
X0131126Y0079608D01*
X0131118Y0079679D01*
X0131106Y0079750D01*
X0131091Y0079821D01*
X0131071Y0079890D01*
X0131048Y0079958D01*
X0131022Y0080025D01*
X0130991Y0080091D01*
X0130958Y0080154D01*
X0130921Y0080216D01*
X0130880Y0080275D01*
X0130837Y0080333D01*
X0130790Y0080388D01*
X0130740Y0080440D01*
X0130688Y0080489D01*
X0130633Y0080536D01*
X0130576Y0080579D01*
X0130516Y0080620D01*
X0130454Y0080657D01*
X0130391Y0080690D01*
X0130325Y0080721D01*
X0130258Y0080747D01*
X0130190Y0080770D01*
X0130121Y0080789D01*
X0130051Y0080805D01*
X0130048Y0080318D01*
X0130103Y0080299D01*
X0130156Y0080277D01*
X0130207Y0080252D01*
X0130257Y0080223D01*
X0130304Y0080191D01*
X0130350Y0080155D01*
X0130393Y0080117D01*
X0130433Y0080076D01*
X0130470Y0080032D01*
X0130504Y0079986D01*
X0130535Y0079938D01*
X0130563Y0079887D01*
X0130587Y0079835D01*
X0130608Y0079782D01*
X0130625Y0079727D01*
X0130639Y0079671D01*
X0130648Y0079615D01*
X0130654Y0079557D01*
X0130656Y0079500D01*
X0130654Y0079443D01*
X0130648Y0079385D01*
X0130639Y0079329D01*
X0130625Y0079273D01*
X0130608Y0079218D01*
X0130587Y0079165D01*
X0130563Y0079113D01*
X0130535Y0079062D01*
X0130504Y0079014D01*
X0130470Y0078968D01*
X0130433Y0078924D01*
X0130393Y0078883D01*
X0130350Y0078845D01*
X0130304Y0078809D01*
X0130257Y0078777D01*
X0130207Y0078748D01*
X0130156Y0078723D01*
X0130103Y0078701D01*
X0130048Y0078682D01*
X0130034Y0079199D01*
X0130062Y0079223D01*
X0130088Y0079249D01*
X0130110Y0079278D01*
X0130130Y0079308D01*
X0130147Y0079341D01*
X0130161Y0079375D01*
X0130171Y0079410D01*
X0130178Y0079445D01*
X0130182Y0079482D01*
X0130182Y0079518D01*
X0130178Y0079555D01*
X0130171Y0079590D01*
X0130161Y0079625D01*
X0130147Y0079659D01*
X0130130Y0079692D01*
X0130110Y0079722D01*
X0130088Y0079751D01*
X0130062Y0079777D01*
X0130034Y0079801D01*
X0159553Y0064738D02*
X0159801Y0062000D01*
X0159801Y0062000D01*
X0159553Y0059262D01*
X0159552Y0059261D01*
X0159449Y0059273D01*
X0159345Y0059288D01*
X0159243Y0059307D01*
X0159141Y0059331D01*
X0159040Y0059358D01*
X0158941Y0059388D01*
X0158842Y0059423D01*
X0158745Y0059461D01*
X0158650Y0059503D01*
X0158556Y0059549D01*
X0158464Y0059598D01*
X0158373Y0059650D01*
X0158285Y0059706D01*
X0158199Y0059765D01*
X0158116Y0059828D01*
X0158035Y0059893D01*
X0157956Y0059962D01*
X0157880Y0060033D01*
X0157807Y0060108D01*
X0157736Y0060185D01*
X0157669Y0060264D01*
X0157605Y0060347D01*
X0157543Y0060431D01*
X0157486Y0060518D01*
X0157431Y0060607D01*
X0157380Y0060698D01*
X0157332Y0060791D01*
X0157288Y0060885D01*
X0157248Y0060981D01*
X0157211Y0061079D01*
X0157178Y0061178D01*
X0157148Y0061278D01*
X0157123Y0061379D01*
X0157101Y0061481D01*
X0157084Y0061584D01*
X0157070Y0061688D01*
X0157060Y0061791D01*
X0157054Y0061896D01*
X0157052Y0062000D01*
X0157054Y0062104D01*
X0157060Y0062209D01*
X0157070Y0062312D01*
X0157084Y0062416D01*
X0157101Y0062519D01*
X0157123Y0062621D01*
X0157148Y0062722D01*
X0157178Y0062822D01*
X0157211Y0062921D01*
X0157248Y0063019D01*
X0157288Y0063115D01*
X0157332Y0063209D01*
X0157380Y0063302D01*
X0157431Y0063393D01*
X0157486Y0063482D01*
X0157543Y0063569D01*
X0157605Y0063653D01*
X0157669Y0063736D01*
X0157736Y0063815D01*
X0157807Y0063892D01*
X0157880Y0063967D01*
X0157956Y0064038D01*
X0158035Y0064107D01*
X0158116Y0064172D01*
X0158199Y0064235D01*
X0158285Y0064294D01*
X0158373Y0064350D01*
X0158464Y0064402D01*
X0158556Y0064451D01*
X0158650Y0064497D01*
X0158745Y0064539D01*
X0158842Y0064577D01*
X0158941Y0064612D01*
X0159040Y0064642D01*
X0159141Y0064669D01*
X0159243Y0064693D01*
X0159345Y0064712D01*
X0159449Y0064727D01*
X0159552Y0064739D01*
X0159553Y0064262D01*
X0159458Y0064250D01*
X0159365Y0064234D01*
X0159272Y0064213D01*
X0159180Y0064189D01*
X0159089Y0064161D01*
X0159000Y0064130D01*
X0158911Y0064095D01*
X0158825Y0064056D01*
X0158740Y0064013D01*
X0158657Y0063967D01*
X0158576Y0063917D01*
X0158497Y0063865D01*
X0158420Y0063808D01*
X0158346Y0063749D01*
X0158274Y0063687D01*
X0158205Y0063622D01*
X0158139Y0063554D01*
X0158075Y0063483D01*
X0158015Y0063410D01*
X0157958Y0063334D01*
X0157904Y0063256D01*
X0157853Y0063175D01*
X0157806Y0063093D01*
X0157762Y0063009D01*
X0157721Y0062923D01*
X0157685Y0062835D01*
X0157652Y0062746D01*
X0157622Y0062656D01*
X0157597Y0062564D01*
X0157575Y0062472D01*
X0157558Y0062378D01*
X0157544Y0062284D01*
X0157534Y0062190D01*
X0157528Y0062095D01*
X0157526Y0062000D01*
X0157528Y0061905D01*
X0157534Y0061810D01*
X0157544Y0061716D01*
X0157558Y0061622D01*
X0157575Y0061528D01*
X0157597Y0061436D01*
X0157622Y0061344D01*
X0157652Y0061254D01*
X0157685Y0061165D01*
X0157721Y0061077D01*
X0157762Y0060991D01*
X0157806Y0060907D01*
X0157853Y0060825D01*
X0157904Y0060744D01*
X0157958Y0060666D01*
X0158015Y0060590D01*
X0158075Y0060517D01*
X0158139Y0060446D01*
X0158205Y0060378D01*
X0158274Y0060313D01*
X0158346Y0060251D01*
X0158420Y0060192D01*
X0158497Y0060135D01*
X0158576Y0060083D01*
X0158657Y0060033D01*
X0158740Y0059987D01*
X0158825Y0059944D01*
X0158911Y0059905D01*
X0159000Y0059870D01*
X0159089Y0059839D01*
X0159180Y0059811D01*
X0159272Y0059787D01*
X0159365Y0059766D01*
X0159458Y0059750D01*
X0159553Y0059738D01*
X0159553Y0060215D01*
X0159471Y0060229D01*
X0159389Y0060246D01*
X0159309Y0060267D01*
X0159229Y0060291D01*
X0159151Y0060320D01*
X0159074Y0060352D01*
X0158999Y0060387D01*
X0158925Y0060426D01*
X0158853Y0060468D01*
X0158783Y0060513D01*
X0158716Y0060562D01*
X0158651Y0060614D01*
X0158588Y0060668D01*
X0158528Y0060726D01*
X0158470Y0060786D01*
X0158416Y0060849D01*
X0158364Y0060914D01*
X0158315Y0060982D01*
X0158270Y0061051D01*
X0158228Y0061123D01*
X0158189Y0061197D01*
X0158154Y0061272D01*
X0158122Y0061349D01*
X0158093Y0061427D01*
X0158069Y0061507D01*
X0158048Y0061587D01*
X0158031Y0061669D01*
X0158017Y0061751D01*
X0158008Y0061834D01*
X0158002Y0061917D01*
X0158000Y0062000D01*
X0158002Y0062083D01*
X0158008Y0062166D01*
X0158017Y0062249D01*
X0158031Y0062331D01*
X0158048Y0062413D01*
X0158069Y0062493D01*
X0158093Y0062573D01*
X0158122Y0062651D01*
X0158154Y0062728D01*
X0158189Y0062803D01*
X0158228Y0062877D01*
X0158270Y0062949D01*
X0158315Y0063018D01*
X0158364Y0063086D01*
X0158416Y0063151D01*
X0158470Y0063214D01*
X0158528Y0063274D01*
X0158588Y0063332D01*
X0158651Y0063386D01*
X0158716Y0063438D01*
X0158783Y0063487D01*
X0158853Y0063532D01*
X0158925Y0063574D01*
X0158999Y0063613D01*
X0159074Y0063648D01*
X0159151Y0063680D01*
X0159229Y0063709D01*
X0159309Y0063733D01*
X0159389Y0063754D01*
X0159471Y0063771D01*
X0159553Y0063785D01*
X0159553Y0063305D01*
X0159483Y0063289D01*
X0159414Y0063270D01*
X0159346Y0063247D01*
X0159279Y0063221D01*
X0159213Y0063190D01*
X0159150Y0063157D01*
X0159088Y0063120D01*
X0159028Y0063079D01*
X0158971Y0063036D01*
X0158916Y0062989D01*
X0158864Y0062940D01*
X0158814Y0062888D01*
X0158767Y0062833D01*
X0158724Y0062775D01*
X0158683Y0062716D01*
X0158646Y0062654D01*
X0158613Y0062591D01*
X0158582Y0062525D01*
X0158556Y0062458D01*
X0158533Y0062390D01*
X0158513Y0062321D01*
X0158498Y0062250D01*
X0158486Y0062179D01*
X0158478Y0062108D01*
X0158474Y0062036D01*
X0158474Y0061964D01*
X0158478Y0061892D01*
X0158486Y0061821D01*
X0158498Y0061750D01*
X0158513Y0061679D01*
X0158533Y0061610D01*
X0158556Y0061542D01*
X0158582Y0061475D01*
X0158613Y0061409D01*
X0158646Y0061346D01*
X0158683Y0061284D01*
X0158724Y0061225D01*
X0158767Y0061167D01*
X0158814Y0061112D01*
X0158864Y0061060D01*
X0158916Y0061011D01*
X0158971Y0060964D01*
X0159028Y0060921D01*
X0159088Y0060880D01*
X0159150Y0060843D01*
X0159213Y0060810D01*
X0159279Y0060779D01*
X0159346Y0060753D01*
X0159414Y0060730D01*
X0159483Y0060711D01*
X0159553Y0060695D01*
X0159556Y0061182D01*
X0159501Y0061201D01*
X0159448Y0061223D01*
X0159397Y0061248D01*
X0159347Y0061277D01*
X0159300Y0061309D01*
X0159254Y0061345D01*
X0159211Y0061383D01*
X0159171Y0061424D01*
X0159134Y0061468D01*
X0159100Y0061514D01*
X0159069Y0061562D01*
X0159041Y0061613D01*
X0159017Y0061665D01*
X0158996Y0061718D01*
X0158979Y0061773D01*
X0158965Y0061829D01*
X0158956Y0061885D01*
X0158950Y0061943D01*
X0158948Y0062000D01*
X0158950Y0062057D01*
X0158956Y0062115D01*
X0158965Y0062171D01*
X0158979Y0062227D01*
X0158996Y0062282D01*
X0159017Y0062335D01*
X0159041Y0062387D01*
X0159069Y0062438D01*
X0159100Y0062486D01*
X0159134Y0062532D01*
X0159171Y0062576D01*
X0159211Y0062617D01*
X0159254Y0062655D01*
X0159300Y0062691D01*
X0159347Y0062723D01*
X0159397Y0062752D01*
X0159448Y0062777D01*
X0159501Y0062799D01*
X0159556Y0062818D01*
X0159570Y0062301D01*
X0159542Y0062277D01*
X0159516Y0062251D01*
X0159494Y0062222D01*
X0159474Y0062192D01*
X0159457Y0062159D01*
X0159443Y0062125D01*
X0159433Y0062090D01*
X0159426Y0062055D01*
X0159422Y0062018D01*
X0159422Y0061982D01*
X0159426Y0061945D01*
X0159433Y0061910D01*
X0159443Y0061875D01*
X0159457Y0061841D01*
X0159474Y0061808D01*
X0159494Y0061778D01*
X0159516Y0061749D01*
X0159542Y0061723D01*
X0159570Y0061699D01*
X0168051Y0059262D02*
X0167803Y0062000D01*
X0167803Y0062000D01*
X0168051Y0064738D01*
X0168052Y0064739D01*
X0168155Y0064727D01*
X0168259Y0064712D01*
X0168361Y0064693D01*
X0168463Y0064669D01*
X0168564Y0064642D01*
X0168663Y0064612D01*
X0168762Y0064577D01*
X0168859Y0064539D01*
X0168954Y0064497D01*
X0169048Y0064451D01*
X0169140Y0064402D01*
X0169231Y0064350D01*
X0169319Y0064294D01*
X0169405Y0064235D01*
X0169488Y0064172D01*
X0169569Y0064107D01*
X0169648Y0064038D01*
X0169724Y0063967D01*
X0169797Y0063892D01*
X0169868Y0063815D01*
X0169935Y0063736D01*
X0169999Y0063653D01*
X0170061Y0063569D01*
X0170118Y0063482D01*
X0170173Y0063393D01*
X0170224Y0063302D01*
X0170272Y0063209D01*
X0170316Y0063115D01*
X0170356Y0063019D01*
X0170393Y0062921D01*
X0170426Y0062822D01*
X0170456Y0062722D01*
X0170481Y0062621D01*
X0170503Y0062519D01*
X0170520Y0062416D01*
X0170534Y0062312D01*
X0170544Y0062209D01*
X0170550Y0062104D01*
X0170552Y0062000D01*
X0170550Y0061896D01*
X0170544Y0061791D01*
X0170534Y0061688D01*
X0170520Y0061584D01*
X0170503Y0061481D01*
X0170481Y0061379D01*
X0170456Y0061278D01*
X0170426Y0061178D01*
X0170393Y0061079D01*
X0170356Y0060981D01*
X0170316Y0060885D01*
X0170272Y0060791D01*
X0170224Y0060698D01*
X0170173Y0060607D01*
X0170118Y0060518D01*
X0170061Y0060431D01*
X0169999Y0060347D01*
X0169935Y0060264D01*
X0169868Y0060185D01*
X0169797Y0060108D01*
X0169724Y0060033D01*
X0169648Y0059962D01*
X0169569Y0059893D01*
X0169488Y0059828D01*
X0169405Y0059765D01*
X0169319Y0059706D01*
X0169231Y0059650D01*
X0169140Y0059598D01*
X0169048Y0059549D01*
X0168954Y0059503D01*
X0168859Y0059461D01*
X0168762Y0059423D01*
X0168663Y0059388D01*
X0168564Y0059358D01*
X0168463Y0059331D01*
X0168361Y0059307D01*
X0168259Y0059288D01*
X0168155Y0059273D01*
X0168052Y0059261D01*
X0168051Y0059738D01*
X0168146Y0059750D01*
X0168239Y0059766D01*
X0168332Y0059787D01*
X0168424Y0059811D01*
X0168515Y0059839D01*
X0168604Y0059870D01*
X0168693Y0059905D01*
X0168779Y0059944D01*
X0168864Y0059987D01*
X0168947Y0060033D01*
X0169028Y0060083D01*
X0169107Y0060135D01*
X0169184Y0060192D01*
X0169258Y0060251D01*
X0169330Y0060313D01*
X0169399Y0060378D01*
X0169465Y0060446D01*
X0169529Y0060517D01*
X0169589Y0060590D01*
X0169646Y0060666D01*
X0169700Y0060744D01*
X0169751Y0060825D01*
X0169798Y0060907D01*
X0169842Y0060991D01*
X0169883Y0061077D01*
X0169919Y0061165D01*
X0169952Y0061254D01*
X0169982Y0061344D01*
X0170007Y0061436D01*
X0170029Y0061528D01*
X0170046Y0061622D01*
X0170060Y0061716D01*
X0170070Y0061810D01*
X0170076Y0061905D01*
X0170078Y0062000D01*
X0170076Y0062095D01*
X0170070Y0062190D01*
X0170060Y0062284D01*
X0170046Y0062378D01*
X0170029Y0062472D01*
X0170007Y0062564D01*
X0169982Y0062656D01*
X0169952Y0062746D01*
X0169919Y0062835D01*
X0169883Y0062923D01*
X0169842Y0063009D01*
X0169798Y0063093D01*
X0169751Y0063175D01*
X0169700Y0063256D01*
X0169646Y0063334D01*
X0169589Y0063410D01*
X0169529Y0063483D01*
X0169465Y0063554D01*
X0169399Y0063622D01*
X0169330Y0063687D01*
X0169258Y0063749D01*
X0169184Y0063808D01*
X0169107Y0063865D01*
X0169028Y0063917D01*
X0168947Y0063967D01*
X0168864Y0064013D01*
X0168779Y0064056D01*
X0168693Y0064095D01*
X0168604Y0064130D01*
X0168515Y0064161D01*
X0168424Y0064189D01*
X0168332Y0064213D01*
X0168239Y0064234D01*
X0168146Y0064250D01*
X0168051Y0064262D01*
X0168051Y0063785D01*
X0168133Y0063771D01*
X0168215Y0063754D01*
X0168295Y0063733D01*
X0168375Y0063709D01*
X0168453Y0063680D01*
X0168530Y0063648D01*
X0168605Y0063613D01*
X0168679Y0063574D01*
X0168751Y0063532D01*
X0168821Y0063487D01*
X0168888Y0063438D01*
X0168953Y0063386D01*
X0169016Y0063332D01*
X0169076Y0063274D01*
X0169134Y0063214D01*
X0169188Y0063151D01*
X0169240Y0063086D01*
X0169289Y0063018D01*
X0169334Y0062949D01*
X0169376Y0062877D01*
X0169415Y0062803D01*
X0169450Y0062728D01*
X0169482Y0062651D01*
X0169511Y0062573D01*
X0169535Y0062493D01*
X0169556Y0062413D01*
X0169573Y0062331D01*
X0169587Y0062249D01*
X0169596Y0062166D01*
X0169602Y0062083D01*
X0169604Y0062000D01*
X0169602Y0061917D01*
X0169596Y0061834D01*
X0169587Y0061751D01*
X0169573Y0061669D01*
X0169556Y0061587D01*
X0169535Y0061507D01*
X0169511Y0061427D01*
X0169482Y0061349D01*
X0169450Y0061272D01*
X0169415Y0061197D01*
X0169376Y0061123D01*
X0169334Y0061051D01*
X0169289Y0060982D01*
X0169240Y0060914D01*
X0169188Y0060849D01*
X0169134Y0060786D01*
X0169076Y0060726D01*
X0169016Y0060668D01*
X0168953Y0060614D01*
X0168888Y0060562D01*
X0168821Y0060513D01*
X0168751Y0060468D01*
X0168679Y0060426D01*
X0168605Y0060387D01*
X0168530Y0060352D01*
X0168453Y0060320D01*
X0168375Y0060291D01*
X0168295Y0060267D01*
X0168215Y0060246D01*
X0168133Y0060229D01*
X0168051Y0060215D01*
X0168051Y0060695D01*
X0168121Y0060711D01*
X0168190Y0060730D01*
X0168258Y0060753D01*
X0168325Y0060779D01*
X0168391Y0060810D01*
X0168454Y0060843D01*
X0168516Y0060880D01*
X0168576Y0060921D01*
X0168633Y0060964D01*
X0168688Y0061011D01*
X0168740Y0061060D01*
X0168790Y0061112D01*
X0168837Y0061167D01*
X0168880Y0061225D01*
X0168921Y0061284D01*
X0168958Y0061346D01*
X0168991Y0061409D01*
X0169022Y0061475D01*
X0169048Y0061542D01*
X0169071Y0061610D01*
X0169091Y0061679D01*
X0169106Y0061750D01*
X0169118Y0061821D01*
X0169126Y0061892D01*
X0169130Y0061964D01*
X0169130Y0062036D01*
X0169126Y0062108D01*
X0169118Y0062179D01*
X0169106Y0062250D01*
X0169091Y0062321D01*
X0169071Y0062390D01*
X0169048Y0062458D01*
X0169022Y0062525D01*
X0168991Y0062591D01*
X0168958Y0062654D01*
X0168921Y0062716D01*
X0168880Y0062775D01*
X0168837Y0062833D01*
X0168790Y0062888D01*
X0168740Y0062940D01*
X0168688Y0062989D01*
X0168633Y0063036D01*
X0168576Y0063079D01*
X0168516Y0063120D01*
X0168454Y0063157D01*
X0168391Y0063190D01*
X0168325Y0063221D01*
X0168258Y0063247D01*
X0168190Y0063270D01*
X0168121Y0063289D01*
X0168051Y0063305D01*
X0168048Y0062818D01*
X0168103Y0062799D01*
X0168156Y0062777D01*
X0168207Y0062752D01*
X0168257Y0062723D01*
X0168304Y0062691D01*
X0168350Y0062655D01*
X0168393Y0062617D01*
X0168433Y0062576D01*
X0168470Y0062532D01*
X0168504Y0062486D01*
X0168535Y0062438D01*
X0168563Y0062387D01*
X0168587Y0062335D01*
X0168608Y0062282D01*
X0168625Y0062227D01*
X0168639Y0062171D01*
X0168648Y0062115D01*
X0168654Y0062057D01*
X0168656Y0062000D01*
X0168654Y0061943D01*
X0168648Y0061885D01*
X0168639Y0061829D01*
X0168625Y0061773D01*
X0168608Y0061718D01*
X0168587Y0061665D01*
X0168563Y0061613D01*
X0168535Y0061562D01*
X0168504Y0061514D01*
X0168470Y0061468D01*
X0168433Y0061424D01*
X0168393Y0061383D01*
X0168350Y0061345D01*
X0168304Y0061309D01*
X0168257Y0061277D01*
X0168207Y0061248D01*
X0168156Y0061223D01*
X0168103Y0061201D01*
X0168048Y0061182D01*
X0168034Y0061699D01*
X0168062Y0061723D01*
X0168088Y0061749D01*
X0168110Y0061778D01*
X0168130Y0061808D01*
X0168147Y0061841D01*
X0168161Y0061875D01*
X0168171Y0061910D01*
X0168178Y0061945D01*
X0168182Y0061982D01*
X0168182Y0062018D01*
X0168178Y0062055D01*
X0168171Y0062090D01*
X0168161Y0062125D01*
X0168147Y0062159D01*
X0168130Y0062192D01*
X0168110Y0062222D01*
X0168088Y0062251D01*
X0168062Y0062277D01*
X0168034Y0062301D01*
X0239891Y0076600D02*
X0239891Y0025400D01*
X0239941Y0025150D02*
X0294991Y0025150D01*
X0294991Y0025500D02*
X0294991Y0076500D01*
X0294991Y0076850D02*
X0239941Y0076850D01*
X0264491Y0071000D02*
X0289491Y0068500D01*
X0289491Y0056000D01*
X0264491Y0053500D01*
X0267248Y0054701D02*
X0267998Y0053950D01*
X0267248Y0054701D02*
X0267248Y0056202D01*
X0267998Y0056953D01*
X0268749Y0056953D01*
X0271752Y0053950D01*
X0271752Y0056953D01*
X0264491Y0048500D02*
X0289491Y0046000D01*
X0289491Y0033500D01*
X0264491Y0031000D01*
X0268549Y0033750D02*
X0267048Y0035251D01*
X0271552Y0035251D01*
X0271552Y0033750D02*
X0271552Y0036753D01*
X0084852Y0043946D02*
X0081849Y0046949D01*
X0081098Y0046949D01*
X0080348Y0046198D01*
X0080348Y0044697D01*
X0081098Y0043946D01*
X0084852Y0043946D02*
X0084852Y0046949D01*
D21*
X0076702Y0037100D02*
X0068702Y0044600D01*
X0076702Y0057000D02*
X0068802Y0064900D01*
X0275402Y0064900D02*
X0283402Y0057400D01*
X0275402Y0045000D02*
X0283302Y0037100D01*
D22*
X0145802Y0089000D03*
X0135802Y0089000D03*
X0125802Y0089000D03*
X0115802Y0089000D03*
X0105802Y0089000D03*
X0095802Y0089000D03*
X0082802Y0089000D03*
D23*
X0125802Y0079500D03*
X0163802Y0062000D03*
M02*
