G75*
%MOIN*%
%OFA0B0*%
%FSLAX24Y24*%
%IPPOS*%
%LPD*%
%AMOC8*
5,1,8,0,0,1.08239X$1,22.5*
%
%ADD10C,0.0000*%
%ADD11C,0.0030*%
%ADD12C,0.0060*%
%ADD13C,0.0080*%
%ADD14C,0.0040*%
D10*
X005880Y000515D02*
X005880Y009649D01*
X005879Y009649D02*
X005877Y009686D01*
X005879Y009723D01*
X005884Y009760D01*
X005894Y009796D01*
X005907Y009831D01*
X005924Y009865D01*
X005944Y009896D01*
X005967Y009925D01*
X005994Y009952D01*
X006022Y009976D01*
X006054Y009996D01*
X006087Y010013D01*
X006122Y010027D01*
X006158Y010037D01*
X006195Y010043D01*
X029207Y010043D01*
X029244Y010045D01*
X029281Y010043D01*
X029318Y010038D01*
X029354Y010028D01*
X029389Y010015D01*
X029423Y009998D01*
X029454Y009978D01*
X029483Y009955D01*
X029510Y009928D01*
X029534Y009900D01*
X029554Y009868D01*
X029571Y009835D01*
X029585Y009800D01*
X029595Y009764D01*
X029601Y009727D01*
X029601Y009728D02*
X029601Y000594D01*
X029601Y000593D02*
X029603Y000556D01*
X029601Y000519D01*
X029596Y000482D01*
X029586Y000446D01*
X029573Y000411D01*
X029556Y000377D01*
X029536Y000346D01*
X029513Y000317D01*
X029486Y000290D01*
X029458Y000266D01*
X029426Y000246D01*
X029393Y000229D01*
X029358Y000215D01*
X029322Y000205D01*
X029285Y000199D01*
X029286Y000200D02*
X006274Y000200D01*
X006273Y000199D02*
X006238Y000197D01*
X006203Y000198D01*
X006169Y000203D01*
X006135Y000211D01*
X006102Y000222D01*
X006070Y000237D01*
X006039Y000255D01*
X006011Y000275D01*
X005985Y000298D01*
X005961Y000324D01*
X005940Y000352D01*
X005921Y000382D01*
X005906Y000413D01*
X005894Y000446D01*
X005885Y000480D01*
X005879Y000515D01*
X006372Y001184D02*
X006374Y001228D01*
X006380Y001272D01*
X006390Y001315D01*
X006403Y001357D01*
X006421Y001397D01*
X006442Y001436D01*
X006466Y001473D01*
X006493Y001508D01*
X006524Y001540D01*
X006557Y001569D01*
X006593Y001595D01*
X006631Y001617D01*
X006671Y001636D01*
X006712Y001652D01*
X006755Y001664D01*
X006798Y001672D01*
X006842Y001676D01*
X006886Y001676D01*
X006930Y001672D01*
X006973Y001664D01*
X007016Y001652D01*
X007057Y001636D01*
X007097Y001617D01*
X007135Y001595D01*
X007171Y001569D01*
X007204Y001540D01*
X007235Y001508D01*
X007262Y001473D01*
X007286Y001436D01*
X007307Y001397D01*
X007325Y001357D01*
X007338Y001315D01*
X007348Y001272D01*
X007354Y001228D01*
X007356Y001184D01*
X007354Y001140D01*
X007348Y001096D01*
X007338Y001053D01*
X007325Y001011D01*
X007307Y000971D01*
X007286Y000932D01*
X007262Y000895D01*
X007235Y000860D01*
X007204Y000828D01*
X007171Y000799D01*
X007135Y000773D01*
X007097Y000751D01*
X007057Y000732D01*
X007016Y000716D01*
X006973Y000704D01*
X006930Y000696D01*
X006886Y000692D01*
X006842Y000692D01*
X006798Y000696D01*
X006755Y000704D01*
X006712Y000716D01*
X006671Y000732D01*
X006631Y000751D01*
X006593Y000773D01*
X006557Y000799D01*
X006524Y000828D01*
X006493Y000860D01*
X006466Y000895D01*
X006442Y000932D01*
X006421Y000971D01*
X006403Y001011D01*
X006390Y001053D01*
X006380Y001096D01*
X006374Y001140D01*
X006372Y001184D01*
X006609Y002747D02*
X006611Y002772D01*
X006617Y002796D01*
X006626Y002818D01*
X006639Y002839D01*
X006655Y002858D01*
X006674Y002874D01*
X006695Y002887D01*
X006717Y002896D01*
X006741Y002902D01*
X006766Y002904D01*
X006791Y002902D01*
X006815Y002896D01*
X006837Y002887D01*
X006858Y002874D01*
X006877Y002858D01*
X006893Y002839D01*
X006906Y002818D01*
X006915Y002796D01*
X006921Y002772D01*
X006923Y002747D01*
X006921Y002722D01*
X006915Y002698D01*
X006906Y002676D01*
X006893Y002655D01*
X006877Y002636D01*
X006858Y002620D01*
X006837Y002607D01*
X006815Y002598D01*
X006791Y002592D01*
X006766Y002590D01*
X006741Y002592D01*
X006717Y002598D01*
X006695Y002607D01*
X006674Y002620D01*
X006655Y002636D01*
X006639Y002655D01*
X006626Y002676D01*
X006617Y002698D01*
X006611Y002722D01*
X006609Y002747D01*
X006766Y002747D02*
X006768Y002772D01*
X006774Y002796D01*
X006783Y002818D01*
X006796Y002839D01*
X006812Y002858D01*
X006831Y002874D01*
X006852Y002887D01*
X006874Y002896D01*
X006898Y002902D01*
X006923Y002904D01*
X006948Y002902D01*
X006972Y002896D01*
X006994Y002887D01*
X007015Y002874D01*
X007034Y002858D01*
X007050Y002839D01*
X007063Y002818D01*
X007072Y002796D01*
X007078Y002772D01*
X007080Y002747D01*
X007078Y002722D01*
X007072Y002698D01*
X007063Y002676D01*
X007050Y002655D01*
X007034Y002636D01*
X007015Y002620D01*
X006994Y002607D01*
X006972Y002598D01*
X006948Y002592D01*
X006923Y002590D01*
X006898Y002592D01*
X006874Y002598D01*
X006852Y002607D01*
X006831Y002620D01*
X006812Y002636D01*
X006796Y002655D01*
X006783Y002676D01*
X006774Y002698D01*
X006768Y002722D01*
X006766Y002747D01*
X007081Y002747D02*
X007083Y002772D01*
X007089Y002796D01*
X007098Y002818D01*
X007111Y002839D01*
X007127Y002858D01*
X007146Y002874D01*
X007167Y002887D01*
X007189Y002896D01*
X007213Y002902D01*
X007238Y002904D01*
X007263Y002902D01*
X007287Y002896D01*
X007309Y002887D01*
X007330Y002874D01*
X007349Y002858D01*
X007365Y002839D01*
X007378Y002818D01*
X007387Y002796D01*
X007393Y002772D01*
X007395Y002747D01*
X007393Y002722D01*
X007387Y002698D01*
X007378Y002676D01*
X007365Y002655D01*
X007349Y002636D01*
X007330Y002620D01*
X007309Y002607D01*
X007287Y002598D01*
X007263Y002592D01*
X007238Y002590D01*
X007213Y002592D01*
X007189Y002598D01*
X007167Y002607D01*
X007146Y002620D01*
X007127Y002636D01*
X007111Y002655D01*
X007098Y002676D01*
X007089Y002698D01*
X007083Y002722D01*
X007081Y002747D01*
X007239Y002747D02*
X007241Y002772D01*
X007247Y002796D01*
X007256Y002818D01*
X007269Y002839D01*
X007285Y002858D01*
X007304Y002874D01*
X007325Y002887D01*
X007347Y002896D01*
X007371Y002902D01*
X007396Y002904D01*
X007421Y002902D01*
X007445Y002896D01*
X007467Y002887D01*
X007488Y002874D01*
X007507Y002858D01*
X007523Y002839D01*
X007536Y002818D01*
X007545Y002796D01*
X007551Y002772D01*
X007553Y002747D01*
X007551Y002722D01*
X007545Y002698D01*
X007536Y002676D01*
X007523Y002655D01*
X007507Y002636D01*
X007488Y002620D01*
X007467Y002607D01*
X007445Y002598D01*
X007421Y002592D01*
X007396Y002590D01*
X007371Y002592D01*
X007347Y002598D01*
X007325Y002607D01*
X007304Y002620D01*
X007285Y002636D01*
X007269Y002655D01*
X007256Y002676D01*
X007247Y002698D01*
X007241Y002722D01*
X007239Y002747D01*
X007081Y007353D02*
X007083Y007378D01*
X007089Y007402D01*
X007098Y007424D01*
X007111Y007445D01*
X007127Y007464D01*
X007146Y007480D01*
X007167Y007493D01*
X007189Y007502D01*
X007213Y007508D01*
X007238Y007510D01*
X007263Y007508D01*
X007287Y007502D01*
X007309Y007493D01*
X007330Y007480D01*
X007349Y007464D01*
X007365Y007445D01*
X007378Y007424D01*
X007387Y007402D01*
X007393Y007378D01*
X007395Y007353D01*
X007393Y007328D01*
X007387Y007304D01*
X007378Y007282D01*
X007365Y007261D01*
X007349Y007242D01*
X007330Y007226D01*
X007309Y007213D01*
X007287Y007204D01*
X007263Y007198D01*
X007238Y007196D01*
X007213Y007198D01*
X007189Y007204D01*
X007167Y007213D01*
X007146Y007226D01*
X007127Y007242D01*
X007111Y007261D01*
X007098Y007282D01*
X007089Y007304D01*
X007083Y007328D01*
X007081Y007353D01*
X006766Y007353D02*
X006768Y007378D01*
X006774Y007402D01*
X006783Y007424D01*
X006796Y007445D01*
X006812Y007464D01*
X006831Y007480D01*
X006852Y007493D01*
X006874Y007502D01*
X006898Y007508D01*
X006923Y007510D01*
X006948Y007508D01*
X006972Y007502D01*
X006994Y007493D01*
X007015Y007480D01*
X007034Y007464D01*
X007050Y007445D01*
X007063Y007424D01*
X007072Y007402D01*
X007078Y007378D01*
X007080Y007353D01*
X007078Y007328D01*
X007072Y007304D01*
X007063Y007282D01*
X007050Y007261D01*
X007034Y007242D01*
X007015Y007226D01*
X006994Y007213D01*
X006972Y007204D01*
X006948Y007198D01*
X006923Y007196D01*
X006898Y007198D01*
X006874Y007204D01*
X006852Y007213D01*
X006831Y007226D01*
X006812Y007242D01*
X006796Y007261D01*
X006783Y007282D01*
X006774Y007304D01*
X006768Y007328D01*
X006766Y007353D01*
X006609Y007353D02*
X006611Y007378D01*
X006617Y007402D01*
X006626Y007424D01*
X006639Y007445D01*
X006655Y007464D01*
X006674Y007480D01*
X006695Y007493D01*
X006717Y007502D01*
X006741Y007508D01*
X006766Y007510D01*
X006791Y007508D01*
X006815Y007502D01*
X006837Y007493D01*
X006858Y007480D01*
X006877Y007464D01*
X006893Y007445D01*
X006906Y007424D01*
X006915Y007402D01*
X006921Y007378D01*
X006923Y007353D01*
X006921Y007328D01*
X006915Y007304D01*
X006906Y007282D01*
X006893Y007261D01*
X006877Y007242D01*
X006858Y007226D01*
X006837Y007213D01*
X006815Y007204D01*
X006791Y007198D01*
X006766Y007196D01*
X006741Y007198D01*
X006717Y007204D01*
X006695Y007213D01*
X006674Y007226D01*
X006655Y007242D01*
X006639Y007261D01*
X006626Y007282D01*
X006617Y007304D01*
X006611Y007328D01*
X006609Y007353D01*
X007239Y007353D02*
X007241Y007378D01*
X007247Y007402D01*
X007256Y007424D01*
X007269Y007445D01*
X007285Y007464D01*
X007304Y007480D01*
X007325Y007493D01*
X007347Y007502D01*
X007371Y007508D01*
X007396Y007510D01*
X007421Y007508D01*
X007445Y007502D01*
X007467Y007493D01*
X007488Y007480D01*
X007507Y007464D01*
X007523Y007445D01*
X007536Y007424D01*
X007545Y007402D01*
X007551Y007378D01*
X007553Y007353D01*
X007551Y007328D01*
X007545Y007304D01*
X007536Y007282D01*
X007523Y007261D01*
X007507Y007242D01*
X007488Y007226D01*
X007467Y007213D01*
X007445Y007204D01*
X007421Y007198D01*
X007396Y007196D01*
X007371Y007198D01*
X007347Y007204D01*
X007325Y007213D01*
X007304Y007226D01*
X007285Y007242D01*
X007269Y007261D01*
X007256Y007282D01*
X007247Y007304D01*
X007241Y007328D01*
X007239Y007353D01*
X028223Y009058D02*
X028225Y009102D01*
X028231Y009146D01*
X028241Y009189D01*
X028254Y009231D01*
X028272Y009271D01*
X028293Y009310D01*
X028317Y009347D01*
X028344Y009382D01*
X028375Y009414D01*
X028408Y009443D01*
X028444Y009469D01*
X028482Y009491D01*
X028522Y009510D01*
X028563Y009526D01*
X028606Y009538D01*
X028649Y009546D01*
X028693Y009550D01*
X028737Y009550D01*
X028781Y009546D01*
X028824Y009538D01*
X028867Y009526D01*
X028908Y009510D01*
X028948Y009491D01*
X028986Y009469D01*
X029022Y009443D01*
X029055Y009414D01*
X029086Y009382D01*
X029113Y009347D01*
X029137Y009310D01*
X029158Y009271D01*
X029176Y009231D01*
X029189Y009189D01*
X029199Y009146D01*
X029205Y009102D01*
X029207Y009058D01*
X029205Y009014D01*
X029199Y008970D01*
X029189Y008927D01*
X029176Y008885D01*
X029158Y008845D01*
X029137Y008806D01*
X029113Y008769D01*
X029086Y008734D01*
X029055Y008702D01*
X029022Y008673D01*
X028986Y008647D01*
X028948Y008625D01*
X028908Y008606D01*
X028867Y008590D01*
X028824Y008578D01*
X028781Y008570D01*
X028737Y008566D01*
X028693Y008566D01*
X028649Y008570D01*
X028606Y008578D01*
X028563Y008590D01*
X028522Y008606D01*
X028482Y008625D01*
X028444Y008647D01*
X028408Y008673D01*
X028375Y008702D01*
X028344Y008734D01*
X028317Y008769D01*
X028293Y008806D01*
X028272Y008845D01*
X028254Y008885D01*
X028241Y008927D01*
X028231Y008970D01*
X028225Y009014D01*
X028223Y009058D01*
X028223Y001184D02*
X028225Y001228D01*
X028231Y001272D01*
X028241Y001315D01*
X028254Y001357D01*
X028272Y001397D01*
X028293Y001436D01*
X028317Y001473D01*
X028344Y001508D01*
X028375Y001540D01*
X028408Y001569D01*
X028444Y001595D01*
X028482Y001617D01*
X028522Y001636D01*
X028563Y001652D01*
X028606Y001664D01*
X028649Y001672D01*
X028693Y001676D01*
X028737Y001676D01*
X028781Y001672D01*
X028824Y001664D01*
X028867Y001652D01*
X028908Y001636D01*
X028948Y001617D01*
X028986Y001595D01*
X029022Y001569D01*
X029055Y001540D01*
X029086Y001508D01*
X029113Y001473D01*
X029137Y001436D01*
X029158Y001397D01*
X029176Y001357D01*
X029189Y001315D01*
X029199Y001272D01*
X029205Y001228D01*
X029207Y001184D01*
X029205Y001140D01*
X029199Y001096D01*
X029189Y001053D01*
X029176Y001011D01*
X029158Y000971D01*
X029137Y000932D01*
X029113Y000895D01*
X029086Y000860D01*
X029055Y000828D01*
X029022Y000799D01*
X028986Y000773D01*
X028948Y000751D01*
X028908Y000732D01*
X028867Y000716D01*
X028824Y000704D01*
X028781Y000696D01*
X028737Y000692D01*
X028693Y000692D01*
X028649Y000696D01*
X028606Y000704D01*
X028563Y000716D01*
X028522Y000732D01*
X028482Y000751D01*
X028444Y000773D01*
X028408Y000799D01*
X028375Y000828D01*
X028344Y000860D01*
X028317Y000895D01*
X028293Y000932D01*
X028272Y000971D01*
X028254Y001011D01*
X028241Y001053D01*
X028231Y001096D01*
X028225Y001140D01*
X028223Y001184D01*
D11*
X025488Y003963D02*
X025585Y004060D01*
X025488Y004157D01*
X025295Y004157D01*
X025295Y003963D02*
X025488Y003963D01*
X025634Y004258D02*
X025634Y004451D01*
X025537Y004552D02*
X025585Y004601D01*
X025585Y004698D01*
X025537Y004746D01*
X025343Y004746D01*
X025295Y004698D01*
X025295Y004601D01*
X025343Y004552D01*
X025537Y004552D01*
X025537Y004847D02*
X025585Y004895D01*
X025585Y004992D01*
X025537Y005041D01*
X025295Y005041D01*
X025295Y005142D02*
X025295Y005335D01*
X025295Y005238D02*
X025585Y005238D01*
X025634Y005436D02*
X025634Y005630D01*
X025537Y005731D02*
X025585Y005779D01*
X025585Y005876D01*
X025537Y005925D01*
X025295Y005925D01*
X025343Y006026D02*
X025392Y006026D01*
X025440Y006074D01*
X025440Y006171D01*
X025488Y006219D01*
X025537Y006219D01*
X025585Y006171D01*
X025585Y006074D01*
X025537Y006026D01*
X025343Y006026D02*
X025295Y006074D01*
X025295Y006171D01*
X025343Y006219D01*
X025295Y006320D02*
X025295Y006465D01*
X025343Y006514D01*
X025392Y006514D01*
X025440Y006465D01*
X025440Y006320D01*
X025585Y006320D02*
X025295Y006320D01*
X025440Y006465D02*
X025488Y006514D01*
X025537Y006514D01*
X025585Y006465D01*
X025585Y006320D01*
X025537Y005731D02*
X025295Y005731D01*
X025295Y004847D02*
X025537Y004847D01*
X028975Y004858D02*
X029023Y004810D01*
X029217Y004810D01*
X029265Y004858D01*
X029265Y004955D01*
X029217Y005003D01*
X029023Y005003D01*
X028975Y004955D01*
X028975Y004858D01*
X028975Y004708D02*
X029168Y004708D01*
X029265Y004612D01*
X029168Y004515D01*
X028975Y004515D01*
X028975Y005104D02*
X029217Y005104D01*
X029265Y005153D01*
X029265Y005249D01*
X029217Y005298D01*
X028975Y005298D01*
X028975Y005399D02*
X028975Y005592D01*
X028975Y005496D02*
X029265Y005496D01*
X026937Y008376D02*
X026743Y008376D01*
X026695Y008424D01*
X026695Y008521D01*
X026743Y008569D01*
X026695Y008670D02*
X026840Y008670D01*
X026792Y008767D01*
X026792Y008815D01*
X026840Y008864D01*
X026937Y008864D01*
X026985Y008815D01*
X026985Y008719D01*
X026937Y008670D01*
X026937Y008569D02*
X026985Y008521D01*
X026985Y008424D01*
X026937Y008376D01*
X026695Y008670D02*
X026695Y008864D01*
X018773Y007865D02*
X018579Y007865D01*
X018676Y007865D02*
X018676Y008155D01*
X018579Y008058D01*
X018478Y008107D02*
X018430Y008155D01*
X018284Y008155D01*
X018284Y007865D01*
X018430Y007865D01*
X018478Y007913D01*
X018478Y008107D01*
X018183Y008155D02*
X017990Y008155D01*
X017990Y007865D01*
X018183Y007865D01*
X018087Y008010D02*
X017990Y008010D01*
X017889Y007865D02*
X017695Y007865D01*
X017695Y008155D01*
X016414Y007932D02*
X016365Y007980D01*
X016269Y007980D01*
X016220Y007932D01*
X016220Y007738D01*
X016269Y007690D01*
X016365Y007690D01*
X016414Y007738D01*
X016414Y007835D01*
X016317Y007835D01*
X016121Y007690D02*
X016024Y007690D01*
X016072Y007690D02*
X016072Y007980D01*
X016024Y007980D02*
X016121Y007980D01*
X015923Y007980D02*
X015729Y007980D01*
X015729Y007690D01*
X015628Y007690D02*
X015628Y007980D01*
X015729Y007835D02*
X015826Y007835D01*
X015628Y007690D02*
X015434Y007980D01*
X015434Y007690D01*
X015333Y007738D02*
X015333Y007932D01*
X015285Y007980D01*
X015188Y007980D01*
X015140Y007932D01*
X015140Y007738D01*
X015188Y007690D01*
X015285Y007690D01*
X015333Y007738D01*
X015039Y007738D02*
X014990Y007690D01*
X014894Y007690D01*
X014845Y007738D01*
X014845Y007932D01*
X014894Y007980D01*
X014990Y007980D01*
X015039Y007932D01*
X013865Y007953D02*
X013865Y007808D01*
X013817Y007760D01*
X013768Y007808D01*
X013768Y007953D01*
X013720Y007953D02*
X013865Y007953D01*
X013817Y008054D02*
X013865Y008103D01*
X013865Y008248D01*
X013672Y008248D01*
X013720Y008349D02*
X013672Y008397D01*
X013672Y008494D01*
X013720Y008542D01*
X013768Y008542D01*
X013768Y008349D01*
X013720Y008349D02*
X013817Y008349D01*
X013865Y008397D01*
X013865Y008494D01*
X013865Y008644D02*
X013672Y008644D01*
X013768Y008644D02*
X013672Y008740D01*
X013672Y008789D01*
X013672Y008054D02*
X013817Y008054D01*
X013720Y007953D02*
X013672Y007905D01*
X013672Y007808D01*
X013623Y007658D02*
X013575Y007610D01*
X013575Y007465D01*
X013865Y007465D01*
X013865Y007610D01*
X013817Y007658D01*
X013623Y007658D01*
X011817Y007615D02*
X011769Y007663D01*
X011769Y007857D01*
X011817Y007808D02*
X011720Y007808D01*
X011572Y007905D02*
X011572Y007615D01*
X011524Y007615D02*
X011621Y007615D01*
X011423Y007615D02*
X011423Y007760D01*
X011374Y007808D01*
X011277Y007808D01*
X011277Y007712D02*
X011423Y007712D01*
X011423Y007615D02*
X011277Y007615D01*
X011229Y007663D01*
X011277Y007712D01*
X011128Y007760D02*
X011128Y007615D01*
X011128Y007760D02*
X011080Y007808D01*
X010983Y007808D01*
X010934Y007760D01*
X010833Y007808D02*
X010688Y007808D01*
X010640Y007760D01*
X010640Y007663D01*
X010688Y007615D01*
X010833Y007615D01*
X010934Y007615D02*
X010934Y007905D01*
X010894Y007965D02*
X010845Y008013D01*
X010894Y007965D02*
X010990Y007965D01*
X011039Y008013D01*
X011039Y008062D01*
X010990Y008110D01*
X010894Y008110D01*
X010845Y008158D01*
X010845Y008207D01*
X010894Y008255D01*
X010990Y008255D01*
X011039Y008207D01*
X011237Y008255D02*
X011333Y008255D01*
X011285Y008255D02*
X011285Y008013D01*
X011237Y007965D01*
X011188Y007965D01*
X011140Y008013D01*
X011434Y007965D02*
X011628Y008158D01*
X011628Y008207D01*
X011580Y008255D01*
X011483Y008255D01*
X011434Y008207D01*
X011434Y007965D02*
X011628Y007965D01*
X011572Y007905D02*
X011524Y007905D01*
X010539Y007857D02*
X010490Y007905D01*
X010394Y007905D01*
X010345Y007857D01*
X010345Y007808D01*
X010394Y007760D01*
X010490Y007760D01*
X010539Y007712D01*
X010539Y007663D01*
X010490Y007615D01*
X010394Y007615D01*
X010345Y007663D01*
X010115Y007710D02*
X010115Y007903D01*
X010067Y008004D02*
X010115Y008053D01*
X010115Y008149D01*
X010067Y008198D01*
X010018Y008198D01*
X009970Y008149D01*
X009970Y008053D01*
X009922Y008004D01*
X009873Y008004D01*
X009825Y008053D01*
X009825Y008149D01*
X009873Y008198D01*
X009825Y007903D02*
X009825Y007710D01*
X010115Y007710D01*
X010115Y007608D02*
X010018Y007512D01*
X010018Y007560D02*
X010018Y007415D01*
X010115Y007415D02*
X009825Y007415D01*
X009825Y007560D01*
X009873Y007608D01*
X009970Y007608D01*
X010018Y007560D01*
X009970Y007710D02*
X009970Y007806D01*
X009915Y007053D02*
X009625Y006860D01*
X009673Y006758D02*
X009625Y006710D01*
X009625Y006565D01*
X009915Y006565D01*
X009818Y006565D02*
X009818Y006710D01*
X009770Y006758D01*
X009673Y006758D01*
X009818Y006662D02*
X009915Y006758D01*
X009915Y006860D02*
X009625Y007053D01*
X008965Y006960D02*
X008675Y007153D01*
X008675Y006960D02*
X008965Y007153D01*
X008675Y006858D02*
X008675Y006665D01*
X008675Y006762D02*
X008965Y006762D01*
X007865Y007663D02*
X007817Y007615D01*
X007865Y007663D02*
X007865Y007760D01*
X007817Y007808D01*
X007768Y007808D01*
X007720Y007760D01*
X007720Y007663D01*
X007672Y007615D01*
X007623Y007615D01*
X007575Y007663D01*
X007575Y007760D01*
X007623Y007808D01*
X007575Y008006D02*
X007575Y008103D01*
X007575Y008055D02*
X007817Y008055D01*
X007865Y008006D01*
X007865Y007958D01*
X007817Y007910D01*
X007865Y008204D02*
X007865Y008398D01*
X007865Y008301D02*
X007575Y008301D01*
X007672Y008204D01*
X007664Y009535D02*
X007615Y009583D01*
X007615Y009777D01*
X007664Y009825D01*
X007760Y009825D01*
X007809Y009777D01*
X007809Y009680D02*
X007712Y009680D01*
X007809Y009680D02*
X007809Y009583D01*
X007760Y009535D01*
X007664Y009535D01*
X007910Y009535D02*
X007910Y009825D01*
X008103Y009535D01*
X008103Y009825D01*
X008204Y009825D02*
X008350Y009825D01*
X008398Y009777D01*
X008398Y009583D01*
X008350Y009535D01*
X008204Y009535D01*
X008204Y009825D01*
X008845Y009825D02*
X008845Y009535D01*
X008845Y009632D02*
X008990Y009632D01*
X009039Y009680D01*
X009039Y009777D01*
X008990Y009825D01*
X008845Y009825D01*
X009140Y009728D02*
X009237Y009825D01*
X009237Y009535D01*
X009333Y009535D02*
X009140Y009535D01*
X009039Y009535D02*
X008942Y009632D01*
X009795Y009632D02*
X009940Y009632D01*
X009989Y009680D01*
X009989Y009777D01*
X009940Y009825D01*
X009795Y009825D01*
X009795Y009535D01*
X009892Y009632D02*
X009989Y009535D01*
X010090Y009535D02*
X010283Y009728D01*
X010283Y009777D01*
X010235Y009825D01*
X010138Y009825D01*
X010090Y009777D01*
X010090Y009535D02*
X010283Y009535D01*
X010795Y009535D02*
X010795Y009825D01*
X010940Y009825D01*
X010989Y009777D01*
X010989Y009680D01*
X010940Y009632D01*
X010795Y009632D01*
X010892Y009632D02*
X010989Y009535D01*
X011090Y009583D02*
X011138Y009535D01*
X011235Y009535D01*
X011283Y009583D01*
X011283Y009632D01*
X011235Y009680D01*
X011187Y009680D01*
X011235Y009680D02*
X011283Y009728D01*
X011283Y009777D01*
X011235Y009825D01*
X011138Y009825D01*
X011090Y009777D01*
X011795Y009825D02*
X011795Y009535D01*
X011795Y009632D02*
X011940Y009632D01*
X011989Y009680D01*
X011989Y009777D01*
X011940Y009825D01*
X011795Y009825D01*
X012090Y009680D02*
X012283Y009680D01*
X012235Y009535D02*
X012235Y009825D01*
X012090Y009680D01*
X011989Y009535D02*
X011892Y009632D01*
X012745Y009583D02*
X012794Y009535D01*
X012890Y009535D01*
X012939Y009583D01*
X012939Y009632D01*
X012890Y009680D01*
X012842Y009680D01*
X012890Y009680D02*
X012939Y009728D01*
X012939Y009777D01*
X012890Y009825D01*
X012794Y009825D01*
X012745Y009777D01*
X013040Y009825D02*
X013040Y009632D01*
X013137Y009535D01*
X013233Y009632D01*
X013233Y009825D01*
X013334Y009777D02*
X013383Y009825D01*
X013480Y009825D01*
X013528Y009777D01*
X013528Y009728D01*
X013480Y009680D01*
X013528Y009632D01*
X013528Y009583D01*
X013480Y009535D01*
X013383Y009535D01*
X013334Y009583D01*
X013431Y009680D02*
X013480Y009680D01*
X007244Y009535D02*
X007244Y009825D01*
X007051Y009825D02*
X007244Y009535D01*
X007051Y009535D02*
X007051Y009825D01*
X006951Y009825D02*
X006854Y009825D01*
X006903Y009825D02*
X006903Y009535D01*
X006951Y009535D02*
X006854Y009535D01*
X006753Y009632D02*
X006753Y009825D01*
X006560Y009825D02*
X006560Y009632D01*
X006657Y009535D01*
X006753Y009632D01*
X006459Y009680D02*
X006265Y009680D01*
X006265Y009728D02*
X006362Y009825D01*
X006459Y009728D01*
X006459Y009535D01*
X006265Y009535D02*
X006265Y009728D01*
X011625Y007049D02*
X011625Y006904D01*
X011915Y006904D01*
X011915Y007049D01*
X011867Y007098D01*
X011673Y007098D01*
X011625Y007049D01*
X011625Y006803D02*
X011915Y006803D01*
X011625Y006610D01*
X011915Y006610D01*
X011867Y006508D02*
X011770Y006508D01*
X011770Y006412D01*
X011673Y006508D02*
X011625Y006460D01*
X011625Y006363D01*
X011673Y006315D01*
X011867Y006315D01*
X011915Y006363D01*
X011915Y006460D01*
X011867Y006508D01*
X011460Y005639D02*
X011460Y005445D01*
X011460Y005542D02*
X011170Y005542D01*
X011267Y005445D01*
X011218Y005344D02*
X011170Y005296D01*
X011170Y005199D01*
X011218Y005151D01*
X011412Y005151D01*
X011460Y005199D01*
X011460Y005296D01*
X011412Y005344D01*
X011460Y005051D02*
X011460Y004954D01*
X011460Y005003D02*
X011170Y005003D01*
X011170Y005051D02*
X011170Y004954D01*
X011543Y003764D02*
X011592Y003764D01*
X011640Y003715D01*
X011688Y003764D01*
X011737Y003764D01*
X011785Y003715D01*
X011785Y003619D01*
X011737Y003570D01*
X011737Y003469D02*
X011785Y003421D01*
X011785Y003324D01*
X011737Y003276D01*
X011543Y003276D01*
X011495Y003324D01*
X011495Y003421D01*
X011543Y003469D01*
X011543Y003570D02*
X011495Y003619D01*
X011495Y003715D01*
X011543Y003764D01*
X011640Y003715D02*
X011640Y003667D01*
X010783Y003607D02*
X010783Y003558D01*
X010590Y003365D01*
X010783Y003365D01*
X010489Y003413D02*
X010440Y003365D01*
X010344Y003365D01*
X010295Y003413D01*
X010295Y003607D01*
X010344Y003655D01*
X010440Y003655D01*
X010489Y003607D01*
X010590Y003607D02*
X010638Y003655D01*
X010735Y003655D01*
X010783Y003607D01*
X008835Y002905D02*
X008690Y002760D01*
X008883Y002760D01*
X008835Y002615D02*
X008835Y002905D01*
X008589Y002857D02*
X008540Y002905D01*
X008444Y002905D01*
X008395Y002857D01*
X008395Y002663D01*
X008444Y002615D01*
X008540Y002615D01*
X008589Y002663D01*
X009225Y002349D02*
X009225Y002204D01*
X009515Y002204D01*
X009515Y002349D01*
X009467Y002398D01*
X009273Y002398D01*
X009225Y002349D01*
X009225Y002103D02*
X009515Y002103D01*
X009225Y001910D01*
X009515Y001910D01*
X009467Y001808D02*
X009370Y001808D01*
X009370Y001712D01*
X009273Y001808D02*
X009225Y001760D01*
X009225Y001663D01*
X009273Y001615D01*
X009467Y001615D01*
X009515Y001663D01*
X009515Y001760D01*
X009467Y001808D01*
X015767Y003445D02*
X015767Y003735D01*
X015912Y003735D01*
X015961Y003687D01*
X015961Y003590D01*
X015912Y003542D01*
X015767Y003542D01*
X015864Y003542D02*
X015961Y003445D01*
X016062Y003445D02*
X016255Y003445D01*
X016357Y003445D02*
X016550Y003445D01*
X016651Y003445D02*
X016651Y003638D01*
X016748Y003735D01*
X016845Y003638D01*
X016845Y003445D01*
X017043Y003445D02*
X017043Y003590D01*
X017139Y003687D01*
X017139Y003735D01*
X017241Y003638D02*
X017337Y003735D01*
X017337Y003445D01*
X017241Y003445D02*
X017434Y003445D01*
X017043Y003590D02*
X016946Y003687D01*
X016946Y003735D01*
X016845Y003590D02*
X016651Y003590D01*
X016357Y003735D02*
X016357Y003445D01*
X016062Y003445D02*
X016062Y003735D01*
X016255Y003735D01*
X016159Y003590D02*
X016062Y003590D01*
X017325Y002446D02*
X017373Y002494D01*
X017567Y002494D01*
X017615Y002446D01*
X017615Y002349D01*
X017567Y002301D01*
X017373Y002301D01*
X017325Y002349D01*
X017325Y002446D01*
X017373Y002200D02*
X017325Y002151D01*
X017325Y002054D01*
X017373Y002006D01*
X017422Y002006D01*
X017470Y002054D01*
X017470Y002151D01*
X017518Y002200D01*
X017567Y002200D01*
X017615Y002151D01*
X017615Y002054D01*
X017567Y002006D01*
X017615Y001906D02*
X017615Y001810D01*
X017615Y001858D02*
X017325Y001858D01*
X017325Y001810D02*
X017325Y001906D01*
X017325Y001708D02*
X017615Y001708D01*
X017615Y001515D02*
X017325Y001515D01*
X017422Y001612D01*
X017325Y001708D01*
X017925Y001708D02*
X018215Y001708D01*
X018167Y001810D02*
X018215Y001858D01*
X018215Y001955D01*
X018167Y002003D01*
X017973Y002003D01*
X017925Y001955D01*
X017925Y001858D01*
X017973Y001810D01*
X018167Y001810D01*
X018022Y001612D02*
X017925Y001708D01*
X018022Y001612D02*
X017925Y001515D01*
X018215Y001515D01*
X018167Y002104D02*
X018215Y002153D01*
X018215Y002249D01*
X018167Y002298D01*
X018118Y002298D01*
X018070Y002249D01*
X018070Y002153D01*
X018022Y002104D01*
X017973Y002104D01*
X017925Y002153D01*
X017925Y002249D01*
X017973Y002298D01*
X017925Y002399D02*
X017925Y002496D01*
X017925Y002447D02*
X018215Y002447D01*
X018215Y002399D02*
X018215Y002496D01*
X016515Y002298D02*
X016370Y002153D01*
X016418Y002104D02*
X016225Y002298D01*
X016225Y002104D02*
X016515Y002104D01*
X016467Y002003D02*
X016515Y001955D01*
X016515Y001858D01*
X016467Y001810D01*
X016273Y001810D01*
X016225Y001858D01*
X016225Y001955D01*
X016273Y002003D01*
X016273Y001708D02*
X016225Y001660D01*
X016225Y001563D01*
X016273Y001515D01*
X016322Y001515D01*
X016370Y001563D01*
X016370Y001660D01*
X016418Y001708D01*
X016467Y001708D01*
X016515Y001660D01*
X016515Y001563D01*
X016467Y001515D01*
X021095Y004258D02*
X021192Y004161D01*
X021385Y004161D01*
X021240Y004161D02*
X021240Y004355D01*
X021192Y004355D02*
X021385Y004355D01*
X021385Y004456D02*
X021095Y004456D01*
X021385Y004650D01*
X021095Y004650D01*
X021095Y004751D02*
X021095Y004944D01*
X021095Y004847D02*
X021385Y004847D01*
X021385Y005045D02*
X021385Y005239D01*
X021385Y005142D02*
X021095Y005142D01*
X021192Y005045D01*
X021192Y004355D02*
X021095Y004258D01*
X017715Y005465D02*
X017715Y005658D01*
X017715Y005760D02*
X017425Y005760D01*
X017425Y005658D02*
X017473Y005658D01*
X017667Y005465D01*
X017715Y005465D01*
X017425Y005465D02*
X017425Y005658D01*
X017618Y005856D02*
X017715Y005760D01*
X017618Y005856D02*
X017715Y005953D01*
X017425Y005953D01*
X017522Y006103D02*
X017522Y006199D01*
X017570Y006248D01*
X017715Y006248D01*
X017715Y006103D01*
X017667Y006054D01*
X017618Y006103D01*
X017618Y006248D01*
X017522Y006349D02*
X017715Y006446D01*
X017522Y006542D01*
X017570Y006644D02*
X017522Y006692D01*
X017522Y006789D01*
X017570Y006837D01*
X017618Y006837D01*
X017618Y006644D01*
X017570Y006644D02*
X017667Y006644D01*
X017715Y006692D01*
X017715Y006789D01*
X015362Y006389D02*
X015362Y006340D01*
X015362Y006389D02*
X015314Y006437D01*
X015072Y006437D01*
X015072Y006538D02*
X015120Y006587D01*
X015120Y006683D01*
X015168Y006732D01*
X015217Y006732D01*
X015265Y006683D01*
X015265Y006587D01*
X015217Y006538D01*
X015265Y006437D02*
X015265Y006292D01*
X015217Y006244D01*
X015072Y006244D01*
X014975Y006142D02*
X015265Y006142D01*
X015265Y005949D02*
X014975Y005949D01*
X015072Y006046D01*
X014975Y006142D01*
X014975Y005848D02*
X015265Y005654D01*
X015265Y005553D02*
X014975Y005553D01*
X015072Y005456D01*
X014975Y005360D01*
X015265Y005360D01*
X015265Y005258D02*
X014975Y005258D01*
X015120Y005258D02*
X015120Y005065D01*
X015265Y005065D02*
X014975Y005065D01*
X015445Y005363D02*
X015494Y005315D01*
X015590Y005315D01*
X015639Y005363D01*
X015639Y005412D01*
X015590Y005460D01*
X015494Y005460D01*
X015445Y005508D01*
X015445Y005557D01*
X015494Y005605D01*
X015590Y005605D01*
X015639Y005557D01*
X015837Y005605D02*
X015933Y005605D01*
X015885Y005605D02*
X015885Y005363D01*
X015837Y005315D01*
X015788Y005315D01*
X015740Y005363D01*
X016034Y005363D02*
X016083Y005315D01*
X016180Y005315D01*
X016228Y005363D01*
X016228Y005412D01*
X016180Y005460D01*
X016131Y005460D01*
X016180Y005460D02*
X016228Y005508D01*
X016228Y005557D01*
X016180Y005605D01*
X016083Y005605D01*
X016034Y005557D01*
X015072Y006538D02*
X015023Y006538D01*
X014975Y006587D01*
X014975Y006683D01*
X015023Y006732D01*
X006435Y006714D02*
X006145Y006714D01*
X006145Y006520D02*
X006435Y006714D01*
X006435Y006520D02*
X006145Y006520D01*
X006145Y006421D02*
X006145Y006324D01*
X006145Y006372D02*
X006435Y006372D01*
X006435Y006324D02*
X006435Y006421D01*
X006338Y006223D02*
X006145Y006223D01*
X006338Y006223D02*
X006435Y006126D01*
X006338Y006029D01*
X006145Y006029D01*
D12*
X006580Y005750D02*
X006580Y004450D01*
X006580Y003750D02*
X006580Y003100D01*
X009180Y003100D01*
X009280Y003100D01*
X009280Y007100D01*
X009180Y007100D01*
X006580Y007100D01*
X005630Y007100D01*
X005630Y003100D01*
X006580Y003100D01*
X008450Y004100D02*
X008452Y004128D01*
X008458Y004155D01*
X008467Y004181D01*
X008480Y004206D01*
X008497Y004229D01*
X008516Y004249D01*
X008538Y004266D01*
X008562Y004280D01*
X008588Y004290D01*
X008615Y004297D01*
X008643Y004300D01*
X008671Y004299D01*
X008698Y004294D01*
X008725Y004285D01*
X008750Y004273D01*
X008773Y004258D01*
X008794Y004239D01*
X008812Y004218D01*
X008827Y004194D01*
X008838Y004168D01*
X008846Y004142D01*
X008850Y004114D01*
X008850Y004086D01*
X008846Y004058D01*
X008838Y004032D01*
X008827Y004006D01*
X008812Y003982D01*
X008794Y003961D01*
X008773Y003942D01*
X008750Y003927D01*
X008725Y003915D01*
X008698Y003906D01*
X008671Y003901D01*
X008643Y003900D01*
X008615Y003903D01*
X008588Y003910D01*
X008562Y003920D01*
X008538Y003934D01*
X008516Y003951D01*
X008497Y003971D01*
X008480Y003994D01*
X008467Y004019D01*
X008458Y004045D01*
X008452Y004072D01*
X008450Y004100D01*
X009180Y003100D02*
X009180Y007100D01*
X009180Y007550D02*
X008080Y007550D01*
X008063Y007552D01*
X008046Y007556D01*
X008030Y007563D01*
X008016Y007573D01*
X008003Y007586D01*
X007993Y007600D01*
X007986Y007616D01*
X007982Y007633D01*
X007980Y007650D01*
X007980Y008250D01*
X007982Y008267D01*
X007986Y008284D01*
X007993Y008300D01*
X008003Y008314D01*
X008016Y008327D01*
X008030Y008337D01*
X008046Y008344D01*
X008063Y008348D01*
X008080Y008350D01*
X009180Y008350D01*
X009197Y008348D01*
X009214Y008344D01*
X009230Y008337D01*
X009244Y008327D01*
X009257Y008314D01*
X009267Y008300D01*
X009274Y008284D01*
X009278Y008267D01*
X009280Y008250D01*
X009280Y007650D01*
X009278Y007633D01*
X009274Y007616D01*
X009267Y007600D01*
X009257Y007586D01*
X009244Y007573D01*
X009230Y007563D01*
X009214Y007556D01*
X009197Y007552D01*
X009180Y007550D01*
X009330Y008400D02*
X008830Y008400D01*
X008580Y008650D01*
X008330Y008400D01*
X007830Y008400D01*
X007580Y008650D01*
X007580Y009150D01*
X007830Y009400D01*
X008330Y009400D01*
X008580Y009150D01*
X008830Y009400D01*
X009330Y009400D01*
X009580Y009150D01*
X009580Y008650D01*
X009330Y008400D01*
X009580Y008650D02*
X009830Y008400D01*
X010330Y008400D01*
X010580Y008650D01*
X010830Y008400D01*
X011330Y008400D01*
X011580Y008650D01*
X011830Y008400D01*
X012330Y008400D01*
X012580Y008650D01*
X012830Y008400D01*
X013330Y008400D01*
X013580Y008650D01*
X013580Y009150D01*
X013330Y009400D01*
X012830Y009400D01*
X012580Y009150D01*
X012580Y008650D01*
X011730Y008350D02*
X013430Y008350D01*
X013447Y008348D01*
X013464Y008344D01*
X013480Y008337D01*
X013494Y008327D01*
X013507Y008314D01*
X013517Y008300D01*
X013524Y008284D01*
X013528Y008267D01*
X013530Y008250D01*
X013530Y007650D01*
X013528Y007633D01*
X013524Y007616D01*
X013517Y007600D01*
X013507Y007586D01*
X013494Y007573D01*
X013480Y007563D01*
X013464Y007556D01*
X013447Y007552D01*
X013430Y007550D01*
X011730Y007550D01*
X011713Y007552D01*
X011696Y007556D01*
X011680Y007563D01*
X011666Y007573D01*
X011653Y007586D01*
X011643Y007600D01*
X011636Y007616D01*
X011632Y007633D01*
X011630Y007650D01*
X011630Y008250D01*
X011632Y008267D01*
X011636Y008284D01*
X011643Y008300D01*
X011653Y008314D01*
X011666Y008327D01*
X011680Y008337D01*
X011696Y008344D01*
X011713Y008348D01*
X011730Y008350D01*
X011580Y008650D02*
X011580Y009150D01*
X011830Y009400D01*
X012330Y009400D01*
X012580Y009150D01*
X011580Y009150D02*
X011330Y009400D01*
X010830Y009400D01*
X010580Y009150D01*
X010580Y008650D01*
X010580Y009150D02*
X010330Y009400D01*
X009830Y009400D01*
X009580Y009150D01*
X008580Y009150D02*
X008580Y008650D01*
X007280Y008650D02*
X007030Y008400D01*
X006530Y008400D01*
X006280Y008650D01*
X006280Y009150D01*
X006530Y009400D01*
X007030Y009400D01*
X007280Y009150D01*
X007280Y008650D01*
X006580Y007100D02*
X006580Y006450D01*
X008450Y006100D02*
X008452Y006128D01*
X008458Y006155D01*
X008467Y006181D01*
X008480Y006206D01*
X008497Y006229D01*
X008516Y006249D01*
X008538Y006266D01*
X008562Y006280D01*
X008588Y006290D01*
X008615Y006297D01*
X008643Y006300D01*
X008671Y006299D01*
X008698Y006294D01*
X008725Y006285D01*
X008750Y006273D01*
X008773Y006258D01*
X008794Y006239D01*
X008812Y006218D01*
X008827Y006194D01*
X008838Y006168D01*
X008846Y006142D01*
X008850Y006114D01*
X008850Y006086D01*
X008846Y006058D01*
X008838Y006032D01*
X008827Y006006D01*
X008812Y005982D01*
X008794Y005961D01*
X008773Y005942D01*
X008750Y005927D01*
X008725Y005915D01*
X008698Y005906D01*
X008671Y005901D01*
X008643Y005900D01*
X008615Y005903D01*
X008588Y005910D01*
X008562Y005920D01*
X008538Y005934D01*
X008516Y005951D01*
X008497Y005971D01*
X008480Y005994D01*
X008467Y006019D01*
X008458Y006045D01*
X008452Y006072D01*
X008450Y006100D01*
X015430Y005900D02*
X015430Y006500D01*
X015432Y006517D01*
X015436Y006534D01*
X015443Y006550D01*
X015453Y006564D01*
X015466Y006577D01*
X015480Y006587D01*
X015496Y006594D01*
X015513Y006598D01*
X015530Y006600D01*
X017230Y006600D01*
X017247Y006598D01*
X017264Y006594D01*
X017280Y006587D01*
X017294Y006577D01*
X017307Y006564D01*
X017317Y006550D01*
X017324Y006534D01*
X017328Y006517D01*
X017330Y006500D01*
X017330Y005900D01*
X017328Y005883D01*
X017324Y005866D01*
X017317Y005850D01*
X017307Y005836D01*
X017294Y005823D01*
X017280Y005813D01*
X017264Y005806D01*
X017247Y005802D01*
X017230Y005800D01*
X015530Y005800D01*
X015513Y005802D01*
X015496Y005806D01*
X015480Y005813D01*
X015466Y005823D01*
X015453Y005836D01*
X015443Y005850D01*
X015436Y005866D01*
X015432Y005883D01*
X015430Y005900D01*
X020480Y005200D02*
X020480Y005150D01*
X020480Y005200D02*
X020680Y005200D01*
X020680Y005150D01*
X020680Y004250D02*
X020680Y004200D01*
X020480Y004200D01*
X020480Y004250D01*
X025930Y003100D02*
X025930Y007100D01*
X026030Y007100D01*
X028630Y007100D01*
X028630Y006450D01*
X028630Y007100D02*
X029580Y007100D01*
X029580Y003100D01*
X028630Y003100D01*
X028630Y003750D01*
X028630Y003100D02*
X026030Y003100D01*
X025930Y003100D01*
X026030Y003100D02*
X026030Y007100D01*
X026360Y006100D02*
X026362Y006128D01*
X026368Y006155D01*
X026377Y006181D01*
X026390Y006206D01*
X026407Y006229D01*
X026426Y006249D01*
X026448Y006266D01*
X026472Y006280D01*
X026498Y006290D01*
X026525Y006297D01*
X026553Y006300D01*
X026581Y006299D01*
X026608Y006294D01*
X026635Y006285D01*
X026660Y006273D01*
X026683Y006258D01*
X026704Y006239D01*
X026722Y006218D01*
X026737Y006194D01*
X026748Y006168D01*
X026756Y006142D01*
X026760Y006114D01*
X026760Y006086D01*
X026756Y006058D01*
X026748Y006032D01*
X026737Y006006D01*
X026722Y005982D01*
X026704Y005961D01*
X026683Y005942D01*
X026660Y005927D01*
X026635Y005915D01*
X026608Y005906D01*
X026581Y005901D01*
X026553Y005900D01*
X026525Y005903D01*
X026498Y005910D01*
X026472Y005920D01*
X026448Y005934D01*
X026426Y005951D01*
X026407Y005971D01*
X026390Y005994D01*
X026377Y006019D01*
X026368Y006045D01*
X026362Y006072D01*
X026360Y006100D01*
X028630Y005750D02*
X028630Y004450D01*
X026360Y004100D02*
X026362Y004128D01*
X026368Y004155D01*
X026377Y004181D01*
X026390Y004206D01*
X026407Y004229D01*
X026426Y004249D01*
X026448Y004266D01*
X026472Y004280D01*
X026498Y004290D01*
X026525Y004297D01*
X026553Y004300D01*
X026581Y004299D01*
X026608Y004294D01*
X026635Y004285D01*
X026660Y004273D01*
X026683Y004258D01*
X026704Y004239D01*
X026722Y004218D01*
X026737Y004194D01*
X026748Y004168D01*
X026756Y004142D01*
X026760Y004114D01*
X026760Y004086D01*
X026756Y004058D01*
X026748Y004032D01*
X026737Y004006D01*
X026722Y003982D01*
X026704Y003961D01*
X026683Y003942D01*
X026660Y003927D01*
X026635Y003915D01*
X026608Y003906D01*
X026581Y003901D01*
X026553Y003900D01*
X026525Y003903D01*
X026498Y003910D01*
X026472Y003920D01*
X026448Y003934D01*
X026426Y003951D01*
X026407Y003971D01*
X026390Y003994D01*
X026377Y004019D01*
X026368Y004045D01*
X026362Y004072D01*
X026360Y004100D01*
X023780Y001800D02*
X023710Y001870D01*
X023620Y001800D01*
X023540Y001840D01*
X023520Y001950D01*
X023430Y001950D01*
X023400Y001840D01*
X023320Y001800D01*
X023230Y001870D01*
X023160Y001800D01*
X023220Y001710D01*
X023190Y001620D01*
X023080Y001600D01*
X023080Y001510D01*
X023180Y001490D01*
X023220Y001400D01*
X023160Y001310D01*
X023230Y001250D01*
X023310Y001310D01*
X023350Y001290D01*
X023410Y001450D01*
X023530Y001450D02*
X023590Y001290D01*
X023630Y001310D01*
X023710Y001250D01*
X023780Y001310D01*
X023720Y001400D01*
X023760Y001490D01*
X023860Y001510D01*
X023860Y001600D01*
X023760Y001620D01*
X023720Y001710D01*
X023780Y001800D01*
X023530Y001450D02*
X023547Y001462D01*
X023562Y001477D01*
X023575Y001494D01*
X023584Y001513D01*
X023589Y001534D01*
X023591Y001555D01*
X023589Y001576D01*
X023584Y001596D01*
X023575Y001615D01*
X023563Y001633D01*
X023548Y001648D01*
X023531Y001660D01*
X023511Y001669D01*
X023491Y001674D01*
X023470Y001676D01*
X023449Y001674D01*
X023429Y001669D01*
X023409Y001660D01*
X023392Y001648D01*
X023377Y001633D01*
X023365Y001615D01*
X023356Y001596D01*
X023351Y001576D01*
X023349Y001555D01*
X023351Y001534D01*
X023356Y001513D01*
X023365Y001494D01*
X023378Y001477D01*
X023393Y001462D01*
X023410Y001450D01*
X023393Y001462D01*
X023378Y001477D01*
X023365Y001494D01*
X023356Y001513D01*
X023351Y001534D01*
X023349Y001555D01*
X023351Y001576D01*
X023356Y001596D01*
X023365Y001615D01*
X023377Y001633D01*
X023392Y001648D01*
X023409Y001660D01*
X023429Y001669D01*
X023449Y001674D01*
X023470Y001676D01*
X023491Y001674D01*
X023511Y001669D01*
X023531Y001660D01*
X023548Y001648D01*
X023563Y001633D01*
X023575Y001615D01*
X023584Y001596D01*
X023589Y001576D01*
X023591Y001555D01*
X023589Y001534D01*
X023584Y001513D01*
X023575Y001494D01*
X023562Y001477D01*
X023547Y001462D01*
X023530Y001450D01*
X009380Y002750D02*
X009382Y002816D01*
X009388Y002881D01*
X009398Y002946D01*
X009411Y003011D01*
X009429Y003074D01*
X009450Y003137D01*
X009475Y003197D01*
X009504Y003257D01*
X009536Y003314D01*
X009571Y003370D01*
X009610Y003423D01*
X009652Y003474D01*
X009696Y003522D01*
X009744Y003567D01*
X009794Y003610D01*
X009847Y003649D01*
X009902Y003686D01*
X009959Y003719D01*
X010018Y003748D01*
X010078Y003774D01*
X010140Y003796D01*
X010203Y003815D01*
X010267Y003829D01*
X010332Y003840D01*
X010398Y003847D01*
X010464Y003850D01*
X010529Y003849D01*
X010595Y003844D01*
X010660Y003835D01*
X010725Y003822D01*
X010788Y003806D01*
X010851Y003786D01*
X010912Y003761D01*
X010972Y003734D01*
X011030Y003703D01*
X011086Y003668D01*
X011140Y003630D01*
X011191Y003589D01*
X011240Y003545D01*
X011286Y003498D01*
X011330Y003449D01*
X011370Y003397D01*
X011407Y003342D01*
X011441Y003286D01*
X011471Y003227D01*
X011498Y003167D01*
X011521Y003106D01*
X011540Y003043D01*
X011556Y002979D01*
X011568Y002914D01*
X011576Y002849D01*
X011580Y002783D01*
X011580Y002717D01*
X011576Y002651D01*
X011568Y002586D01*
X011556Y002521D01*
X011540Y002457D01*
X011521Y002394D01*
X011498Y002333D01*
X011471Y002273D01*
X011441Y002214D01*
X011407Y002158D01*
X011370Y002103D01*
X011330Y002051D01*
X011286Y002002D01*
X011240Y001955D01*
X011191Y001911D01*
X011140Y001870D01*
X011086Y001832D01*
X011030Y001797D01*
X010972Y001766D01*
X010912Y001739D01*
X010851Y001714D01*
X010788Y001694D01*
X010725Y001678D01*
X010660Y001665D01*
X010595Y001656D01*
X010529Y001651D01*
X010464Y001650D01*
X010398Y001653D01*
X010332Y001660D01*
X010267Y001671D01*
X010203Y001685D01*
X010140Y001704D01*
X010078Y001726D01*
X010018Y001752D01*
X009959Y001781D01*
X009902Y001814D01*
X009847Y001851D01*
X009794Y001890D01*
X009744Y001933D01*
X009696Y001978D01*
X009652Y002026D01*
X009610Y002077D01*
X009571Y002130D01*
X009536Y002186D01*
X009504Y002243D01*
X009475Y002303D01*
X009450Y002363D01*
X009429Y002426D01*
X009411Y002489D01*
X009398Y002554D01*
X009388Y002619D01*
X009382Y002684D01*
X009380Y002750D01*
X009430Y002750D02*
X009630Y002750D01*
X009530Y002650D02*
X009530Y002850D01*
D13*
X007542Y003475D02*
X007542Y006625D01*
X006360Y007412D02*
X005880Y007412D01*
X005880Y002688D01*
X006360Y002688D01*
X010330Y004010D02*
X010330Y006590D01*
X011630Y006590D01*
X011630Y004010D01*
X010330Y004010D01*
X012737Y001194D02*
X020020Y001194D01*
X020020Y007100D01*
X012737Y007100D01*
X012737Y001194D01*
X023930Y002500D02*
X024630Y002500D01*
X023930Y002500D02*
X023930Y003400D01*
X026430Y002500D02*
X029530Y002500D01*
X029530Y007700D01*
X026430Y007700D01*
X024630Y007700D02*
X023930Y007700D01*
X023930Y006800D01*
X019625Y008406D02*
X019625Y009194D01*
X019074Y009194D01*
X018798Y009036D02*
X018562Y008800D01*
X018798Y008564D01*
X018798Y009036D01*
X018562Y009076D02*
X018562Y008800D01*
X018562Y008524D01*
X018286Y008406D02*
X017735Y008406D01*
X017735Y009194D01*
X018286Y009194D01*
X016861Y009115D02*
X016861Y009509D01*
X014499Y009509D01*
X014499Y009115D01*
X015129Y009036D02*
X015129Y008564D01*
X016231Y008564D01*
X016231Y009036D01*
X015129Y009036D01*
X014499Y008485D02*
X014499Y008091D01*
X016861Y008091D01*
X016861Y008485D01*
X019074Y008406D02*
X019625Y008406D01*
D14*
X009431Y004774D02*
X009431Y004467D01*
X009431Y004621D02*
X008971Y004621D01*
X009124Y004467D01*
X008971Y004314D02*
X008971Y004160D01*
X008971Y004237D02*
X009354Y004237D01*
X009431Y004160D01*
X009431Y004084D01*
X009354Y004007D01*
M02*
