G75*
%MOIN*%
%OFA0B0*%
%FSLAX24Y24*%
%IPPOS*%
%LPD*%
%AMOC8*
5,1,8,0,0,1.08239X$1,22.5*
%
%ADD10C,0.0000*%
%ADD11C,0.0030*%
%ADD12C,0.1024*%
%ADD13OC8,0.0660*%
%ADD14C,0.0660*%
%ADD15R,0.1083X0.0729*%
%ADD16C,0.1350*%
%ADD17C,0.0780*%
%ADD18R,0.0750X0.0670*%
%ADD19R,0.0591X0.0355*%
%ADD20R,0.0788X0.0355*%
%ADD21C,0.0630*%
%ADD22R,0.0680X0.0050*%
%ADD23R,0.0640X0.0640*%
%ADD24R,0.0640X0.0290*%
%ADD25C,0.0594*%
%ADD26C,0.0700*%
%ADD27R,0.0050X0.0680*%
%ADD28C,0.0745*%
%ADD29OC8,0.0640*%
%ADD30R,0.0800X0.0360*%
%ADD31C,0.0740*%
%ADD32C,0.0355*%
%ADD33R,0.0500X0.0670*%
%ADD34R,0.0394X0.0434*%
D10*
X005880Y000515D02*
X005880Y009649D01*
X005879Y009649D02*
X005877Y009686D01*
X005879Y009723D01*
X005884Y009760D01*
X005894Y009796D01*
X005907Y009831D01*
X005924Y009865D01*
X005944Y009896D01*
X005967Y009925D01*
X005994Y009952D01*
X006022Y009976D01*
X006054Y009996D01*
X006087Y010013D01*
X006122Y010027D01*
X006158Y010037D01*
X006195Y010043D01*
X029207Y010043D01*
X029244Y010045D01*
X029281Y010043D01*
X029318Y010038D01*
X029354Y010028D01*
X029389Y010015D01*
X029423Y009998D01*
X029454Y009978D01*
X029483Y009955D01*
X029510Y009928D01*
X029534Y009900D01*
X029554Y009868D01*
X029571Y009835D01*
X029585Y009800D01*
X029595Y009764D01*
X029601Y009727D01*
X029601Y009728D02*
X029601Y000594D01*
X029601Y000593D02*
X029603Y000556D01*
X029601Y000519D01*
X029596Y000482D01*
X029586Y000446D01*
X029573Y000411D01*
X029556Y000377D01*
X029536Y000346D01*
X029513Y000317D01*
X029486Y000290D01*
X029458Y000266D01*
X029426Y000246D01*
X029393Y000229D01*
X029358Y000215D01*
X029322Y000205D01*
X029285Y000199D01*
X029286Y000200D02*
X006274Y000200D01*
X006273Y000199D02*
X006238Y000197D01*
X006203Y000198D01*
X006169Y000203D01*
X006135Y000211D01*
X006102Y000222D01*
X006070Y000237D01*
X006039Y000255D01*
X006011Y000275D01*
X005985Y000298D01*
X005961Y000324D01*
X005940Y000352D01*
X005921Y000382D01*
X005906Y000413D01*
X005894Y000446D01*
X005885Y000480D01*
X005879Y000515D01*
X006372Y001184D02*
X006374Y001228D01*
X006380Y001272D01*
X006390Y001315D01*
X006403Y001357D01*
X006421Y001397D01*
X006442Y001436D01*
X006466Y001473D01*
X006493Y001508D01*
X006524Y001540D01*
X006557Y001569D01*
X006593Y001595D01*
X006631Y001617D01*
X006671Y001636D01*
X006712Y001652D01*
X006755Y001664D01*
X006798Y001672D01*
X006842Y001676D01*
X006886Y001676D01*
X006930Y001672D01*
X006973Y001664D01*
X007016Y001652D01*
X007057Y001636D01*
X007097Y001617D01*
X007135Y001595D01*
X007171Y001569D01*
X007204Y001540D01*
X007235Y001508D01*
X007262Y001473D01*
X007286Y001436D01*
X007307Y001397D01*
X007325Y001357D01*
X007338Y001315D01*
X007348Y001272D01*
X007354Y001228D01*
X007356Y001184D01*
X007354Y001140D01*
X007348Y001096D01*
X007338Y001053D01*
X007325Y001011D01*
X007307Y000971D01*
X007286Y000932D01*
X007262Y000895D01*
X007235Y000860D01*
X007204Y000828D01*
X007171Y000799D01*
X007135Y000773D01*
X007097Y000751D01*
X007057Y000732D01*
X007016Y000716D01*
X006973Y000704D01*
X006930Y000696D01*
X006886Y000692D01*
X006842Y000692D01*
X006798Y000696D01*
X006755Y000704D01*
X006712Y000716D01*
X006671Y000732D01*
X006631Y000751D01*
X006593Y000773D01*
X006557Y000799D01*
X006524Y000828D01*
X006493Y000860D01*
X006466Y000895D01*
X006442Y000932D01*
X006421Y000971D01*
X006403Y001011D01*
X006390Y001053D01*
X006380Y001096D01*
X006374Y001140D01*
X006372Y001184D01*
X006609Y002747D02*
X006611Y002772D01*
X006617Y002796D01*
X006626Y002818D01*
X006639Y002839D01*
X006655Y002858D01*
X006674Y002874D01*
X006695Y002887D01*
X006717Y002896D01*
X006741Y002902D01*
X006766Y002904D01*
X006791Y002902D01*
X006815Y002896D01*
X006837Y002887D01*
X006858Y002874D01*
X006877Y002858D01*
X006893Y002839D01*
X006906Y002818D01*
X006915Y002796D01*
X006921Y002772D01*
X006923Y002747D01*
X006921Y002722D01*
X006915Y002698D01*
X006906Y002676D01*
X006893Y002655D01*
X006877Y002636D01*
X006858Y002620D01*
X006837Y002607D01*
X006815Y002598D01*
X006791Y002592D01*
X006766Y002590D01*
X006741Y002592D01*
X006717Y002598D01*
X006695Y002607D01*
X006674Y002620D01*
X006655Y002636D01*
X006639Y002655D01*
X006626Y002676D01*
X006617Y002698D01*
X006611Y002722D01*
X006609Y002747D01*
X006766Y002747D02*
X006768Y002772D01*
X006774Y002796D01*
X006783Y002818D01*
X006796Y002839D01*
X006812Y002858D01*
X006831Y002874D01*
X006852Y002887D01*
X006874Y002896D01*
X006898Y002902D01*
X006923Y002904D01*
X006948Y002902D01*
X006972Y002896D01*
X006994Y002887D01*
X007015Y002874D01*
X007034Y002858D01*
X007050Y002839D01*
X007063Y002818D01*
X007072Y002796D01*
X007078Y002772D01*
X007080Y002747D01*
X007078Y002722D01*
X007072Y002698D01*
X007063Y002676D01*
X007050Y002655D01*
X007034Y002636D01*
X007015Y002620D01*
X006994Y002607D01*
X006972Y002598D01*
X006948Y002592D01*
X006923Y002590D01*
X006898Y002592D01*
X006874Y002598D01*
X006852Y002607D01*
X006831Y002620D01*
X006812Y002636D01*
X006796Y002655D01*
X006783Y002676D01*
X006774Y002698D01*
X006768Y002722D01*
X006766Y002747D01*
X007081Y002747D02*
X007083Y002772D01*
X007089Y002796D01*
X007098Y002818D01*
X007111Y002839D01*
X007127Y002858D01*
X007146Y002874D01*
X007167Y002887D01*
X007189Y002896D01*
X007213Y002902D01*
X007238Y002904D01*
X007263Y002902D01*
X007287Y002896D01*
X007309Y002887D01*
X007330Y002874D01*
X007349Y002858D01*
X007365Y002839D01*
X007378Y002818D01*
X007387Y002796D01*
X007393Y002772D01*
X007395Y002747D01*
X007393Y002722D01*
X007387Y002698D01*
X007378Y002676D01*
X007365Y002655D01*
X007349Y002636D01*
X007330Y002620D01*
X007309Y002607D01*
X007287Y002598D01*
X007263Y002592D01*
X007238Y002590D01*
X007213Y002592D01*
X007189Y002598D01*
X007167Y002607D01*
X007146Y002620D01*
X007127Y002636D01*
X007111Y002655D01*
X007098Y002676D01*
X007089Y002698D01*
X007083Y002722D01*
X007081Y002747D01*
X007239Y002747D02*
X007241Y002772D01*
X007247Y002796D01*
X007256Y002818D01*
X007269Y002839D01*
X007285Y002858D01*
X007304Y002874D01*
X007325Y002887D01*
X007347Y002896D01*
X007371Y002902D01*
X007396Y002904D01*
X007421Y002902D01*
X007445Y002896D01*
X007467Y002887D01*
X007488Y002874D01*
X007507Y002858D01*
X007523Y002839D01*
X007536Y002818D01*
X007545Y002796D01*
X007551Y002772D01*
X007553Y002747D01*
X007551Y002722D01*
X007545Y002698D01*
X007536Y002676D01*
X007523Y002655D01*
X007507Y002636D01*
X007488Y002620D01*
X007467Y002607D01*
X007445Y002598D01*
X007421Y002592D01*
X007396Y002590D01*
X007371Y002592D01*
X007347Y002598D01*
X007325Y002607D01*
X007304Y002620D01*
X007285Y002636D01*
X007269Y002655D01*
X007256Y002676D01*
X007247Y002698D01*
X007241Y002722D01*
X007239Y002747D01*
X007081Y007353D02*
X007083Y007378D01*
X007089Y007402D01*
X007098Y007424D01*
X007111Y007445D01*
X007127Y007464D01*
X007146Y007480D01*
X007167Y007493D01*
X007189Y007502D01*
X007213Y007508D01*
X007238Y007510D01*
X007263Y007508D01*
X007287Y007502D01*
X007309Y007493D01*
X007330Y007480D01*
X007349Y007464D01*
X007365Y007445D01*
X007378Y007424D01*
X007387Y007402D01*
X007393Y007378D01*
X007395Y007353D01*
X007393Y007328D01*
X007387Y007304D01*
X007378Y007282D01*
X007365Y007261D01*
X007349Y007242D01*
X007330Y007226D01*
X007309Y007213D01*
X007287Y007204D01*
X007263Y007198D01*
X007238Y007196D01*
X007213Y007198D01*
X007189Y007204D01*
X007167Y007213D01*
X007146Y007226D01*
X007127Y007242D01*
X007111Y007261D01*
X007098Y007282D01*
X007089Y007304D01*
X007083Y007328D01*
X007081Y007353D01*
X006766Y007353D02*
X006768Y007378D01*
X006774Y007402D01*
X006783Y007424D01*
X006796Y007445D01*
X006812Y007464D01*
X006831Y007480D01*
X006852Y007493D01*
X006874Y007502D01*
X006898Y007508D01*
X006923Y007510D01*
X006948Y007508D01*
X006972Y007502D01*
X006994Y007493D01*
X007015Y007480D01*
X007034Y007464D01*
X007050Y007445D01*
X007063Y007424D01*
X007072Y007402D01*
X007078Y007378D01*
X007080Y007353D01*
X007078Y007328D01*
X007072Y007304D01*
X007063Y007282D01*
X007050Y007261D01*
X007034Y007242D01*
X007015Y007226D01*
X006994Y007213D01*
X006972Y007204D01*
X006948Y007198D01*
X006923Y007196D01*
X006898Y007198D01*
X006874Y007204D01*
X006852Y007213D01*
X006831Y007226D01*
X006812Y007242D01*
X006796Y007261D01*
X006783Y007282D01*
X006774Y007304D01*
X006768Y007328D01*
X006766Y007353D01*
X006609Y007353D02*
X006611Y007378D01*
X006617Y007402D01*
X006626Y007424D01*
X006639Y007445D01*
X006655Y007464D01*
X006674Y007480D01*
X006695Y007493D01*
X006717Y007502D01*
X006741Y007508D01*
X006766Y007510D01*
X006791Y007508D01*
X006815Y007502D01*
X006837Y007493D01*
X006858Y007480D01*
X006877Y007464D01*
X006893Y007445D01*
X006906Y007424D01*
X006915Y007402D01*
X006921Y007378D01*
X006923Y007353D01*
X006921Y007328D01*
X006915Y007304D01*
X006906Y007282D01*
X006893Y007261D01*
X006877Y007242D01*
X006858Y007226D01*
X006837Y007213D01*
X006815Y007204D01*
X006791Y007198D01*
X006766Y007196D01*
X006741Y007198D01*
X006717Y007204D01*
X006695Y007213D01*
X006674Y007226D01*
X006655Y007242D01*
X006639Y007261D01*
X006626Y007282D01*
X006617Y007304D01*
X006611Y007328D01*
X006609Y007353D01*
X007239Y007353D02*
X007241Y007378D01*
X007247Y007402D01*
X007256Y007424D01*
X007269Y007445D01*
X007285Y007464D01*
X007304Y007480D01*
X007325Y007493D01*
X007347Y007502D01*
X007371Y007508D01*
X007396Y007510D01*
X007421Y007508D01*
X007445Y007502D01*
X007467Y007493D01*
X007488Y007480D01*
X007507Y007464D01*
X007523Y007445D01*
X007536Y007424D01*
X007545Y007402D01*
X007551Y007378D01*
X007553Y007353D01*
X007551Y007328D01*
X007545Y007304D01*
X007536Y007282D01*
X007523Y007261D01*
X007507Y007242D01*
X007488Y007226D01*
X007467Y007213D01*
X007445Y007204D01*
X007421Y007198D01*
X007396Y007196D01*
X007371Y007198D01*
X007347Y007204D01*
X007325Y007213D01*
X007304Y007226D01*
X007285Y007242D01*
X007269Y007261D01*
X007256Y007282D01*
X007247Y007304D01*
X007241Y007328D01*
X007239Y007353D01*
X028223Y009058D02*
X028225Y009102D01*
X028231Y009146D01*
X028241Y009189D01*
X028254Y009231D01*
X028272Y009271D01*
X028293Y009310D01*
X028317Y009347D01*
X028344Y009382D01*
X028375Y009414D01*
X028408Y009443D01*
X028444Y009469D01*
X028482Y009491D01*
X028522Y009510D01*
X028563Y009526D01*
X028606Y009538D01*
X028649Y009546D01*
X028693Y009550D01*
X028737Y009550D01*
X028781Y009546D01*
X028824Y009538D01*
X028867Y009526D01*
X028908Y009510D01*
X028948Y009491D01*
X028986Y009469D01*
X029022Y009443D01*
X029055Y009414D01*
X029086Y009382D01*
X029113Y009347D01*
X029137Y009310D01*
X029158Y009271D01*
X029176Y009231D01*
X029189Y009189D01*
X029199Y009146D01*
X029205Y009102D01*
X029207Y009058D01*
X029205Y009014D01*
X029199Y008970D01*
X029189Y008927D01*
X029176Y008885D01*
X029158Y008845D01*
X029137Y008806D01*
X029113Y008769D01*
X029086Y008734D01*
X029055Y008702D01*
X029022Y008673D01*
X028986Y008647D01*
X028948Y008625D01*
X028908Y008606D01*
X028867Y008590D01*
X028824Y008578D01*
X028781Y008570D01*
X028737Y008566D01*
X028693Y008566D01*
X028649Y008570D01*
X028606Y008578D01*
X028563Y008590D01*
X028522Y008606D01*
X028482Y008625D01*
X028444Y008647D01*
X028408Y008673D01*
X028375Y008702D01*
X028344Y008734D01*
X028317Y008769D01*
X028293Y008806D01*
X028272Y008845D01*
X028254Y008885D01*
X028241Y008927D01*
X028231Y008970D01*
X028225Y009014D01*
X028223Y009058D01*
X028223Y001184D02*
X028225Y001228D01*
X028231Y001272D01*
X028241Y001315D01*
X028254Y001357D01*
X028272Y001397D01*
X028293Y001436D01*
X028317Y001473D01*
X028344Y001508D01*
X028375Y001540D01*
X028408Y001569D01*
X028444Y001595D01*
X028482Y001617D01*
X028522Y001636D01*
X028563Y001652D01*
X028606Y001664D01*
X028649Y001672D01*
X028693Y001676D01*
X028737Y001676D01*
X028781Y001672D01*
X028824Y001664D01*
X028867Y001652D01*
X028908Y001636D01*
X028948Y001617D01*
X028986Y001595D01*
X029022Y001569D01*
X029055Y001540D01*
X029086Y001508D01*
X029113Y001473D01*
X029137Y001436D01*
X029158Y001397D01*
X029176Y001357D01*
X029189Y001315D01*
X029199Y001272D01*
X029205Y001228D01*
X029207Y001184D01*
X029205Y001140D01*
X029199Y001096D01*
X029189Y001053D01*
X029176Y001011D01*
X029158Y000971D01*
X029137Y000932D01*
X029113Y000895D01*
X029086Y000860D01*
X029055Y000828D01*
X029022Y000799D01*
X028986Y000773D01*
X028948Y000751D01*
X028908Y000732D01*
X028867Y000716D01*
X028824Y000704D01*
X028781Y000696D01*
X028737Y000692D01*
X028693Y000692D01*
X028649Y000696D01*
X028606Y000704D01*
X028563Y000716D01*
X028522Y000732D01*
X028482Y000751D01*
X028444Y000773D01*
X028408Y000799D01*
X028375Y000828D01*
X028344Y000860D01*
X028317Y000895D01*
X028293Y000932D01*
X028272Y000971D01*
X028254Y001011D01*
X028241Y001053D01*
X028231Y001096D01*
X028225Y001140D01*
X028223Y001184D01*
D11*
X018565Y009265D02*
X018565Y009635D01*
X018565Y009450D02*
X018318Y009450D01*
X018318Y009635D02*
X018318Y009265D01*
X018197Y009265D02*
X018197Y009635D01*
X018073Y009512D01*
X017950Y009635D01*
X017950Y009265D01*
X017829Y009450D02*
X017582Y009450D01*
X017460Y009265D02*
X017460Y009635D01*
X017337Y009512D01*
X017213Y009635D01*
X017213Y009265D01*
X016968Y009265D02*
X016968Y009450D01*
X016845Y009574D01*
X016845Y009635D01*
X016724Y009574D02*
X016724Y009512D01*
X016662Y009450D01*
X016538Y009450D01*
X016477Y009388D01*
X016477Y009327D01*
X016538Y009265D01*
X016662Y009265D01*
X016724Y009327D01*
X016968Y009450D02*
X017092Y009574D01*
X017092Y009635D01*
X016724Y009574D02*
X016662Y009635D01*
X016538Y009635D01*
X016477Y009574D01*
X016355Y009450D02*
X016108Y009450D01*
X015987Y009388D02*
X015802Y009388D01*
X015740Y009450D01*
X015740Y009574D01*
X015802Y009635D01*
X015987Y009635D01*
X015987Y009265D01*
X015864Y009388D02*
X015740Y009265D01*
X015619Y009265D02*
X015372Y009265D01*
X015250Y009265D02*
X015003Y009265D01*
X014882Y009265D02*
X014882Y009512D01*
X014759Y009635D01*
X014635Y009512D01*
X014635Y009265D01*
X014390Y009265D02*
X014390Y009450D01*
X014267Y009574D01*
X014267Y009635D01*
X014390Y009450D02*
X014514Y009574D01*
X014514Y009635D01*
X014635Y009450D02*
X014882Y009450D01*
X015250Y009635D02*
X015250Y009265D01*
X015495Y009450D02*
X015619Y009450D01*
X015619Y009635D02*
X015619Y009265D01*
X015619Y009635D02*
X015372Y009635D01*
X013777Y009512D02*
X013654Y009265D01*
X013530Y009512D01*
X013409Y009512D02*
X013285Y009635D01*
X013285Y009265D01*
X013162Y009265D02*
X013409Y009265D01*
X013040Y009265D02*
X013040Y009327D01*
X012979Y009327D01*
X012979Y009265D01*
X013040Y009265D01*
X012856Y009327D02*
X012609Y009574D01*
X012609Y009327D01*
X012671Y009265D01*
X012795Y009265D01*
X012856Y009327D01*
X012856Y009574D01*
X012795Y009635D01*
X012671Y009635D01*
X012609Y009574D01*
D12*
X028715Y009058D03*
X028715Y001184D03*
X006864Y001184D03*
D13*
X010980Y002750D03*
D14*
X009980Y002750D03*
D15*
X021534Y000950D03*
X023227Y000950D03*
X025284Y000950D03*
X026977Y000950D03*
D16*
X025449Y002515D03*
X025449Y007685D03*
D17*
X020580Y004700D03*
D18*
X020730Y003012D03*
X020730Y001888D03*
D19*
X020860Y008210D03*
X020860Y009390D03*
D20*
X020760Y008800D03*
D21*
X019287Y008695D02*
X019287Y008905D01*
X020133Y008905D01*
X020133Y008695D01*
X019287Y008695D01*
D22*
X020680Y006900D03*
D23*
X020680Y006535D03*
X020680Y007265D03*
X022015Y009200D03*
X022745Y009200D03*
X008080Y008900D03*
D24*
X022385Y006980D03*
X022385Y006480D03*
X022385Y005980D03*
X022385Y005480D03*
X022385Y004980D03*
X022385Y004480D03*
X022385Y003980D03*
X022385Y003480D03*
D25*
X019430Y004147D03*
X018642Y001785D03*
X013918Y001785D03*
X013918Y006509D03*
X018642Y006509D03*
D26*
X018280Y007150D03*
X017280Y007150D03*
X016280Y007150D03*
X015280Y007150D03*
X014280Y007150D03*
X013280Y007150D03*
X012280Y007150D03*
X011280Y007150D03*
X010280Y007150D03*
X009280Y007150D03*
X008280Y007150D03*
X019280Y007150D03*
X019280Y003150D03*
X019280Y002150D03*
X019280Y001150D03*
X018280Y001150D03*
X017280Y001150D03*
X016280Y001150D03*
X015280Y001150D03*
X014280Y001150D03*
X013280Y001150D03*
X012280Y001150D03*
X011280Y001150D03*
X010280Y001150D03*
X009280Y001150D03*
X008280Y001150D03*
X011718Y002275D03*
X012718Y002275D03*
X015843Y002275D03*
X016843Y002275D03*
D27*
X022380Y009200D03*
D28*
X027930Y006100D03*
X027930Y004100D03*
X007280Y004100D03*
X007280Y006100D03*
D29*
X006780Y008900D03*
X009080Y008900D03*
X010080Y008900D03*
X011080Y008900D03*
X012080Y008900D03*
X013080Y008900D03*
D30*
X021480Y005725D03*
X021480Y004725D03*
X021480Y003725D03*
X028780Y003919D03*
X028780Y003131D03*
X028780Y002344D03*
X028780Y004706D03*
X028780Y005494D03*
X028780Y006281D03*
X028780Y007069D03*
X028780Y007856D03*
D31*
X007431Y007353D02*
X006731Y007353D01*
X006731Y002747D02*
X007431Y002747D01*
D32*
X007396Y002747D03*
X007238Y002747D03*
X006923Y002747D03*
X006766Y002747D03*
X006766Y007353D03*
X006923Y007353D03*
X007238Y007353D03*
X007396Y007353D03*
D33*
X015430Y003300D03*
X016030Y003300D03*
X016630Y003300D03*
D34*
X011892Y004856D03*
X010868Y005250D03*
X011892Y005644D03*
M02*
