%
M48
M72
T01C0.0120
T02C0.0315
T03C0.0320
T04C0.0354
T05C0.0394
T06C0.0400
T07C0.0470
T08C0.0910
T09C0.0984
%
T01
X18330Y4900
X26630Y9200
X24405Y1425
X26980Y1575
X11630Y4450
X21630Y2950
X25630Y5950
X10380Y6200
X21630Y6200
X21880Y4200
X24380Y4200
X24880Y6478
X20730Y4125
X23780Y7100
X23380Y2450
X27405Y2325
X27005Y3700
X24530Y3250
X21880Y7850
X27505Y4825
X22755Y8450
X27105Y7725
X17980Y5300
X27255Y6425
X19630Y7950
X16130Y8900
X21505Y6525
X24155Y8925
X21680Y8450
X22255Y8325
X15730Y4150
X18755Y4150
X20130Y1200
X27980Y2800
X22905Y5700
X16780Y5450
X14780Y7650
X13880Y3450
X13880Y4700
X8230Y3300
X24630Y5950
X24630Y4450
X27380Y4450
T02
X7081Y7353
X7081Y2747
X7238Y2747
X7396Y2747
X6923Y2747
X6766Y2747
X7238Y7353
X7396Y7353
X6923Y7353
X6766Y7353
T03
X10980Y2750
X9980Y2750
T04
X13918Y6509
X18642Y1785
X19430Y4147
X13918Y1785
X18642Y6509
T05
X8280Y7150
X9280Y7150
X10280Y7150
X11280Y7150
X12280Y7150
X13280Y7150
X14280Y7150
X15280Y7150
X16280Y7150
X17280Y7150
X18280Y7150
X19280Y7150
X19280Y1150
X18280Y1150
X17280Y1150
X16280Y1150
X15280Y1150
X14280Y1150
X13280Y1150
X12280Y1150
X11280Y1150
X10280Y1150
X9280Y1150
X8280Y1150
X12718Y2275
X11718Y2275
X16843Y2275
X19280Y3150
X15843Y2275
X19280Y2150
T06
X20580Y4700
X6780Y8900
X8080Y8900
X9080Y8900
X10080Y8900
X11080Y8900
X12080Y8900
X13080Y8900
T07
X7280Y6100
X7280Y4100
X27930Y4100
X27930Y6100
T08
X25449Y7685
X25449Y2515
T09
X6864Y1184
X28715Y1184
X28715Y9058
M30
