G75*
%MOIN*%
%OFA0B0*%
%FSLAX24Y24*%
%IPPOS*%
%LPD*%
%AMOC8*
5,1,8,0,0,1.08239X$1,22.5*
%
%ADD10C,0.0000*%
%ADD11OC8,0.0620*%
%ADD12C,0.0620*%
%ADD13R,0.1043X0.0689*%
%ADD14C,0.1310*%
%ADD15C,0.0740*%
%ADD16R,0.0710X0.0630*%
%ADD17R,0.0551X0.0315*%
%ADD18R,0.0748X0.0315*%
%ADD19C,0.0600*%
%ADD20R,0.0600X0.0600*%
%ADD21R,0.0600X0.0250*%
%ADD22C,0.0554*%
%ADD23C,0.0660*%
%ADD24C,0.0705*%
%ADD25OC8,0.0600*%
%ADD26R,0.0760X0.0320*%
%ADD27C,0.0700*%
%ADD28R,0.0460X0.0630*%
%ADD29R,0.0354X0.0394*%
%ADD30C,0.0120*%
%ADD31C,0.0240*%
%ADD32C,0.0100*%
%ADD33C,0.0160*%
%ADD34OC8,0.0240*%
D10*
X005880Y000515D02*
X005880Y009649D01*
X005879Y009649D02*
X005877Y009686D01*
X005879Y009723D01*
X005884Y009760D01*
X005894Y009796D01*
X005907Y009831D01*
X005924Y009865D01*
X005944Y009896D01*
X005967Y009925D01*
X005994Y009952D01*
X006022Y009976D01*
X006054Y009996D01*
X006087Y010013D01*
X006122Y010027D01*
X006158Y010037D01*
X006195Y010043D01*
X029207Y010043D01*
X029244Y010045D01*
X029281Y010043D01*
X029318Y010038D01*
X029354Y010028D01*
X029389Y010015D01*
X029423Y009998D01*
X029454Y009978D01*
X029483Y009955D01*
X029510Y009928D01*
X029534Y009900D01*
X029554Y009868D01*
X029571Y009835D01*
X029585Y009800D01*
X029595Y009764D01*
X029601Y009727D01*
X029601Y009728D02*
X029601Y000594D01*
X029601Y000593D02*
X029603Y000556D01*
X029601Y000519D01*
X029596Y000482D01*
X029586Y000446D01*
X029573Y000411D01*
X029556Y000377D01*
X029536Y000346D01*
X029513Y000317D01*
X029486Y000290D01*
X029458Y000266D01*
X029426Y000246D01*
X029393Y000229D01*
X029358Y000215D01*
X029322Y000205D01*
X029285Y000199D01*
X029286Y000200D02*
X006274Y000200D01*
X006273Y000199D02*
X006238Y000197D01*
X006203Y000198D01*
X006169Y000203D01*
X006135Y000211D01*
X006102Y000222D01*
X006070Y000237D01*
X006039Y000255D01*
X006011Y000275D01*
X005985Y000298D01*
X005961Y000324D01*
X005940Y000352D01*
X005921Y000382D01*
X005906Y000413D01*
X005894Y000446D01*
X005885Y000480D01*
X005879Y000515D01*
X006372Y001184D02*
X006374Y001228D01*
X006380Y001272D01*
X006390Y001315D01*
X006403Y001357D01*
X006421Y001397D01*
X006442Y001436D01*
X006466Y001473D01*
X006493Y001508D01*
X006524Y001540D01*
X006557Y001569D01*
X006593Y001595D01*
X006631Y001617D01*
X006671Y001636D01*
X006712Y001652D01*
X006755Y001664D01*
X006798Y001672D01*
X006842Y001676D01*
X006886Y001676D01*
X006930Y001672D01*
X006973Y001664D01*
X007016Y001652D01*
X007057Y001636D01*
X007097Y001617D01*
X007135Y001595D01*
X007171Y001569D01*
X007204Y001540D01*
X007235Y001508D01*
X007262Y001473D01*
X007286Y001436D01*
X007307Y001397D01*
X007325Y001357D01*
X007338Y001315D01*
X007348Y001272D01*
X007354Y001228D01*
X007356Y001184D01*
X007354Y001140D01*
X007348Y001096D01*
X007338Y001053D01*
X007325Y001011D01*
X007307Y000971D01*
X007286Y000932D01*
X007262Y000895D01*
X007235Y000860D01*
X007204Y000828D01*
X007171Y000799D01*
X007135Y000773D01*
X007097Y000751D01*
X007057Y000732D01*
X007016Y000716D01*
X006973Y000704D01*
X006930Y000696D01*
X006886Y000692D01*
X006842Y000692D01*
X006798Y000696D01*
X006755Y000704D01*
X006712Y000716D01*
X006671Y000732D01*
X006631Y000751D01*
X006593Y000773D01*
X006557Y000799D01*
X006524Y000828D01*
X006493Y000860D01*
X006466Y000895D01*
X006442Y000932D01*
X006421Y000971D01*
X006403Y001011D01*
X006390Y001053D01*
X006380Y001096D01*
X006374Y001140D01*
X006372Y001184D01*
X006609Y002747D02*
X006611Y002772D01*
X006617Y002796D01*
X006626Y002818D01*
X006639Y002839D01*
X006655Y002858D01*
X006674Y002874D01*
X006695Y002887D01*
X006717Y002896D01*
X006741Y002902D01*
X006766Y002904D01*
X006791Y002902D01*
X006815Y002896D01*
X006837Y002887D01*
X006858Y002874D01*
X006877Y002858D01*
X006893Y002839D01*
X006906Y002818D01*
X006915Y002796D01*
X006921Y002772D01*
X006923Y002747D01*
X006921Y002722D01*
X006915Y002698D01*
X006906Y002676D01*
X006893Y002655D01*
X006877Y002636D01*
X006858Y002620D01*
X006837Y002607D01*
X006815Y002598D01*
X006791Y002592D01*
X006766Y002590D01*
X006741Y002592D01*
X006717Y002598D01*
X006695Y002607D01*
X006674Y002620D01*
X006655Y002636D01*
X006639Y002655D01*
X006626Y002676D01*
X006617Y002698D01*
X006611Y002722D01*
X006609Y002747D01*
X006766Y002747D02*
X006768Y002772D01*
X006774Y002796D01*
X006783Y002818D01*
X006796Y002839D01*
X006812Y002858D01*
X006831Y002874D01*
X006852Y002887D01*
X006874Y002896D01*
X006898Y002902D01*
X006923Y002904D01*
X006948Y002902D01*
X006972Y002896D01*
X006994Y002887D01*
X007015Y002874D01*
X007034Y002858D01*
X007050Y002839D01*
X007063Y002818D01*
X007072Y002796D01*
X007078Y002772D01*
X007080Y002747D01*
X007078Y002722D01*
X007072Y002698D01*
X007063Y002676D01*
X007050Y002655D01*
X007034Y002636D01*
X007015Y002620D01*
X006994Y002607D01*
X006972Y002598D01*
X006948Y002592D01*
X006923Y002590D01*
X006898Y002592D01*
X006874Y002598D01*
X006852Y002607D01*
X006831Y002620D01*
X006812Y002636D01*
X006796Y002655D01*
X006783Y002676D01*
X006774Y002698D01*
X006768Y002722D01*
X006766Y002747D01*
X007081Y002747D02*
X007083Y002772D01*
X007089Y002796D01*
X007098Y002818D01*
X007111Y002839D01*
X007127Y002858D01*
X007146Y002874D01*
X007167Y002887D01*
X007189Y002896D01*
X007213Y002902D01*
X007238Y002904D01*
X007263Y002902D01*
X007287Y002896D01*
X007309Y002887D01*
X007330Y002874D01*
X007349Y002858D01*
X007365Y002839D01*
X007378Y002818D01*
X007387Y002796D01*
X007393Y002772D01*
X007395Y002747D01*
X007393Y002722D01*
X007387Y002698D01*
X007378Y002676D01*
X007365Y002655D01*
X007349Y002636D01*
X007330Y002620D01*
X007309Y002607D01*
X007287Y002598D01*
X007263Y002592D01*
X007238Y002590D01*
X007213Y002592D01*
X007189Y002598D01*
X007167Y002607D01*
X007146Y002620D01*
X007127Y002636D01*
X007111Y002655D01*
X007098Y002676D01*
X007089Y002698D01*
X007083Y002722D01*
X007081Y002747D01*
X007239Y002747D02*
X007241Y002772D01*
X007247Y002796D01*
X007256Y002818D01*
X007269Y002839D01*
X007285Y002858D01*
X007304Y002874D01*
X007325Y002887D01*
X007347Y002896D01*
X007371Y002902D01*
X007396Y002904D01*
X007421Y002902D01*
X007445Y002896D01*
X007467Y002887D01*
X007488Y002874D01*
X007507Y002858D01*
X007523Y002839D01*
X007536Y002818D01*
X007545Y002796D01*
X007551Y002772D01*
X007553Y002747D01*
X007551Y002722D01*
X007545Y002698D01*
X007536Y002676D01*
X007523Y002655D01*
X007507Y002636D01*
X007488Y002620D01*
X007467Y002607D01*
X007445Y002598D01*
X007421Y002592D01*
X007396Y002590D01*
X007371Y002592D01*
X007347Y002598D01*
X007325Y002607D01*
X007304Y002620D01*
X007285Y002636D01*
X007269Y002655D01*
X007256Y002676D01*
X007247Y002698D01*
X007241Y002722D01*
X007239Y002747D01*
X007081Y007353D02*
X007083Y007378D01*
X007089Y007402D01*
X007098Y007424D01*
X007111Y007445D01*
X007127Y007464D01*
X007146Y007480D01*
X007167Y007493D01*
X007189Y007502D01*
X007213Y007508D01*
X007238Y007510D01*
X007263Y007508D01*
X007287Y007502D01*
X007309Y007493D01*
X007330Y007480D01*
X007349Y007464D01*
X007365Y007445D01*
X007378Y007424D01*
X007387Y007402D01*
X007393Y007378D01*
X007395Y007353D01*
X007393Y007328D01*
X007387Y007304D01*
X007378Y007282D01*
X007365Y007261D01*
X007349Y007242D01*
X007330Y007226D01*
X007309Y007213D01*
X007287Y007204D01*
X007263Y007198D01*
X007238Y007196D01*
X007213Y007198D01*
X007189Y007204D01*
X007167Y007213D01*
X007146Y007226D01*
X007127Y007242D01*
X007111Y007261D01*
X007098Y007282D01*
X007089Y007304D01*
X007083Y007328D01*
X007081Y007353D01*
X006766Y007353D02*
X006768Y007378D01*
X006774Y007402D01*
X006783Y007424D01*
X006796Y007445D01*
X006812Y007464D01*
X006831Y007480D01*
X006852Y007493D01*
X006874Y007502D01*
X006898Y007508D01*
X006923Y007510D01*
X006948Y007508D01*
X006972Y007502D01*
X006994Y007493D01*
X007015Y007480D01*
X007034Y007464D01*
X007050Y007445D01*
X007063Y007424D01*
X007072Y007402D01*
X007078Y007378D01*
X007080Y007353D01*
X007078Y007328D01*
X007072Y007304D01*
X007063Y007282D01*
X007050Y007261D01*
X007034Y007242D01*
X007015Y007226D01*
X006994Y007213D01*
X006972Y007204D01*
X006948Y007198D01*
X006923Y007196D01*
X006898Y007198D01*
X006874Y007204D01*
X006852Y007213D01*
X006831Y007226D01*
X006812Y007242D01*
X006796Y007261D01*
X006783Y007282D01*
X006774Y007304D01*
X006768Y007328D01*
X006766Y007353D01*
X006609Y007353D02*
X006611Y007378D01*
X006617Y007402D01*
X006626Y007424D01*
X006639Y007445D01*
X006655Y007464D01*
X006674Y007480D01*
X006695Y007493D01*
X006717Y007502D01*
X006741Y007508D01*
X006766Y007510D01*
X006791Y007508D01*
X006815Y007502D01*
X006837Y007493D01*
X006858Y007480D01*
X006877Y007464D01*
X006893Y007445D01*
X006906Y007424D01*
X006915Y007402D01*
X006921Y007378D01*
X006923Y007353D01*
X006921Y007328D01*
X006915Y007304D01*
X006906Y007282D01*
X006893Y007261D01*
X006877Y007242D01*
X006858Y007226D01*
X006837Y007213D01*
X006815Y007204D01*
X006791Y007198D01*
X006766Y007196D01*
X006741Y007198D01*
X006717Y007204D01*
X006695Y007213D01*
X006674Y007226D01*
X006655Y007242D01*
X006639Y007261D01*
X006626Y007282D01*
X006617Y007304D01*
X006611Y007328D01*
X006609Y007353D01*
X007239Y007353D02*
X007241Y007378D01*
X007247Y007402D01*
X007256Y007424D01*
X007269Y007445D01*
X007285Y007464D01*
X007304Y007480D01*
X007325Y007493D01*
X007347Y007502D01*
X007371Y007508D01*
X007396Y007510D01*
X007421Y007508D01*
X007445Y007502D01*
X007467Y007493D01*
X007488Y007480D01*
X007507Y007464D01*
X007523Y007445D01*
X007536Y007424D01*
X007545Y007402D01*
X007551Y007378D01*
X007553Y007353D01*
X007551Y007328D01*
X007545Y007304D01*
X007536Y007282D01*
X007523Y007261D01*
X007507Y007242D01*
X007488Y007226D01*
X007467Y007213D01*
X007445Y007204D01*
X007421Y007198D01*
X007396Y007196D01*
X007371Y007198D01*
X007347Y007204D01*
X007325Y007213D01*
X007304Y007226D01*
X007285Y007242D01*
X007269Y007261D01*
X007256Y007282D01*
X007247Y007304D01*
X007241Y007328D01*
X007239Y007353D01*
X028223Y009058D02*
X028225Y009102D01*
X028231Y009146D01*
X028241Y009189D01*
X028254Y009231D01*
X028272Y009271D01*
X028293Y009310D01*
X028317Y009347D01*
X028344Y009382D01*
X028375Y009414D01*
X028408Y009443D01*
X028444Y009469D01*
X028482Y009491D01*
X028522Y009510D01*
X028563Y009526D01*
X028606Y009538D01*
X028649Y009546D01*
X028693Y009550D01*
X028737Y009550D01*
X028781Y009546D01*
X028824Y009538D01*
X028867Y009526D01*
X028908Y009510D01*
X028948Y009491D01*
X028986Y009469D01*
X029022Y009443D01*
X029055Y009414D01*
X029086Y009382D01*
X029113Y009347D01*
X029137Y009310D01*
X029158Y009271D01*
X029176Y009231D01*
X029189Y009189D01*
X029199Y009146D01*
X029205Y009102D01*
X029207Y009058D01*
X029205Y009014D01*
X029199Y008970D01*
X029189Y008927D01*
X029176Y008885D01*
X029158Y008845D01*
X029137Y008806D01*
X029113Y008769D01*
X029086Y008734D01*
X029055Y008702D01*
X029022Y008673D01*
X028986Y008647D01*
X028948Y008625D01*
X028908Y008606D01*
X028867Y008590D01*
X028824Y008578D01*
X028781Y008570D01*
X028737Y008566D01*
X028693Y008566D01*
X028649Y008570D01*
X028606Y008578D01*
X028563Y008590D01*
X028522Y008606D01*
X028482Y008625D01*
X028444Y008647D01*
X028408Y008673D01*
X028375Y008702D01*
X028344Y008734D01*
X028317Y008769D01*
X028293Y008806D01*
X028272Y008845D01*
X028254Y008885D01*
X028241Y008927D01*
X028231Y008970D01*
X028225Y009014D01*
X028223Y009058D01*
X028223Y001184D02*
X028225Y001228D01*
X028231Y001272D01*
X028241Y001315D01*
X028254Y001357D01*
X028272Y001397D01*
X028293Y001436D01*
X028317Y001473D01*
X028344Y001508D01*
X028375Y001540D01*
X028408Y001569D01*
X028444Y001595D01*
X028482Y001617D01*
X028522Y001636D01*
X028563Y001652D01*
X028606Y001664D01*
X028649Y001672D01*
X028693Y001676D01*
X028737Y001676D01*
X028781Y001672D01*
X028824Y001664D01*
X028867Y001652D01*
X028908Y001636D01*
X028948Y001617D01*
X028986Y001595D01*
X029022Y001569D01*
X029055Y001540D01*
X029086Y001508D01*
X029113Y001473D01*
X029137Y001436D01*
X029158Y001397D01*
X029176Y001357D01*
X029189Y001315D01*
X029199Y001272D01*
X029205Y001228D01*
X029207Y001184D01*
X029205Y001140D01*
X029199Y001096D01*
X029189Y001053D01*
X029176Y001011D01*
X029158Y000971D01*
X029137Y000932D01*
X029113Y000895D01*
X029086Y000860D01*
X029055Y000828D01*
X029022Y000799D01*
X028986Y000773D01*
X028948Y000751D01*
X028908Y000732D01*
X028867Y000716D01*
X028824Y000704D01*
X028781Y000696D01*
X028737Y000692D01*
X028693Y000692D01*
X028649Y000696D01*
X028606Y000704D01*
X028563Y000716D01*
X028522Y000732D01*
X028482Y000751D01*
X028444Y000773D01*
X028408Y000799D01*
X028375Y000828D01*
X028344Y000860D01*
X028317Y000895D01*
X028293Y000932D01*
X028272Y000971D01*
X028254Y001011D01*
X028241Y001053D01*
X028231Y001096D01*
X028225Y001140D01*
X028223Y001184D01*
D11*
X010980Y002750D03*
D12*
X009980Y002750D03*
D13*
X021534Y000950D03*
X023227Y000950D03*
X025284Y000950D03*
X026977Y000950D03*
D14*
X025449Y002515D03*
X025449Y007685D03*
D15*
X020580Y004700D03*
D16*
X020730Y003012D03*
X020730Y001888D03*
D17*
X020860Y008210D03*
X020860Y009390D03*
D18*
X020760Y008800D03*
D19*
X019292Y008700D02*
X019292Y008900D01*
X020128Y008900D01*
X020128Y008700D01*
X019292Y008700D01*
D20*
X022015Y009200D03*
X022745Y009200D03*
X020680Y007265D03*
X020680Y006535D03*
X008080Y008900D03*
D21*
X022385Y006980D03*
X022385Y006480D03*
X022385Y005980D03*
X022385Y005480D03*
X022385Y004980D03*
X022385Y004480D03*
X022385Y003980D03*
X022385Y003480D03*
D22*
X019430Y004147D03*
X018642Y001785D03*
X013918Y001785D03*
X013918Y006509D03*
X018642Y006509D03*
D23*
X018280Y007150D03*
X017280Y007150D03*
X016280Y007150D03*
X015280Y007150D03*
X014280Y007150D03*
X013280Y007150D03*
X012280Y007150D03*
X011280Y007150D03*
X010280Y007150D03*
X009280Y007150D03*
X008280Y007150D03*
X019280Y007150D03*
X019280Y003150D03*
X019280Y002150D03*
X019280Y001150D03*
X018280Y001150D03*
X017280Y001150D03*
X016280Y001150D03*
X015280Y001150D03*
X014280Y001150D03*
X013280Y001150D03*
X012280Y001150D03*
X011280Y001150D03*
X010280Y001150D03*
X009280Y001150D03*
X008280Y001150D03*
X011718Y002275D03*
X012718Y002275D03*
X015843Y002275D03*
X016843Y002275D03*
D24*
X007280Y004100D03*
X007280Y006100D03*
X027930Y006100D03*
X027930Y004100D03*
D25*
X013080Y008900D03*
X012080Y008900D03*
X011080Y008900D03*
X010080Y008900D03*
X009080Y008900D03*
X006780Y008900D03*
D26*
X021480Y005725D03*
X021480Y004725D03*
X021480Y003725D03*
X028780Y003919D03*
X028780Y003131D03*
X028780Y002344D03*
X028780Y004706D03*
X028780Y005494D03*
X028780Y006281D03*
X028780Y007069D03*
X028780Y007856D03*
D27*
X007431Y007353D02*
X006731Y007353D01*
X006731Y002747D02*
X007431Y002747D01*
D28*
X015430Y003300D03*
X016030Y003300D03*
X016630Y003300D03*
D29*
X011892Y004856D03*
X010868Y005250D03*
X011892Y005644D03*
D30*
X011948Y005700D01*
X012630Y005700D01*
X013130Y005200D01*
X014130Y005200D01*
X015430Y003900D01*
X015430Y003300D01*
X016030Y003300D02*
X016030Y003850D01*
X016130Y003950D01*
X016130Y004700D01*
X014380Y006450D01*
X014380Y007050D01*
X014280Y007150D01*
X015280Y007150D02*
X015380Y007200D01*
X015380Y007800D01*
X015230Y007950D01*
X009480Y007950D01*
X009080Y008350D01*
X009080Y008900D01*
X010080Y008900D02*
X010080Y008400D01*
X010280Y008200D01*
X016130Y008200D01*
X016280Y008050D01*
X016280Y007150D01*
X015280Y007150D02*
X015280Y005950D01*
X015739Y005510D01*
X015799Y005450D01*
X016780Y005450D01*
X017380Y005700D02*
X017630Y005950D01*
X019630Y005950D01*
X020130Y006450D01*
X020595Y006450D01*
X020680Y006535D01*
X021505Y006525D02*
X021505Y008275D01*
X021680Y008450D01*
X021330Y008800D01*
X020760Y008800D01*
X020880Y009325D02*
X020860Y009390D01*
X020880Y009325D02*
X022005Y009325D01*
X022005Y009200D01*
X022015Y009200D01*
X022745Y009200D02*
X022755Y009200D01*
X023130Y008825D01*
X023130Y005975D01*
X022905Y005700D01*
X022980Y005400D02*
X023380Y005800D01*
X023380Y007225D01*
X023555Y007400D01*
X023955Y007400D01*
X024130Y007225D01*
X024130Y003650D01*
X024530Y003250D01*
X025180Y004250D02*
X026380Y003050D01*
X026380Y002125D01*
X025630Y001375D01*
X025630Y000950D01*
X025284Y000950D01*
X024405Y001425D02*
X024130Y001700D01*
X023080Y001700D01*
X022580Y002200D01*
X022580Y002500D01*
X022330Y002750D01*
X022330Y003425D01*
X022385Y003480D01*
X022380Y003450D01*
X021630Y003575D02*
X021480Y003725D01*
X021905Y003725D01*
X022130Y003950D01*
X021880Y004200D01*
X022130Y003950D02*
X022355Y003950D01*
X022385Y003980D01*
X022855Y004450D02*
X023005Y004300D01*
X023005Y002275D01*
X023180Y002100D01*
X023580Y002100D01*
X023780Y002300D01*
X023780Y007100D01*
X024155Y007800D02*
X025180Y006775D01*
X025180Y004250D01*
X024880Y004300D02*
X024780Y004200D01*
X024380Y004200D01*
X024880Y004300D02*
X024880Y006478D01*
X024630Y005950D02*
X024630Y004450D01*
X023380Y004700D02*
X023130Y004950D01*
X022505Y004950D01*
X022385Y004980D01*
X022060Y005480D02*
X021780Y005200D01*
X020930Y005200D01*
X020780Y005350D01*
X018480Y005350D01*
X018230Y005600D01*
X017830Y005600D01*
X017630Y005400D01*
X017630Y002100D01*
X017230Y001700D01*
X016830Y001700D01*
X016280Y001150D01*
X017880Y001550D02*
X017880Y001650D01*
X017880Y005200D01*
X017980Y005300D01*
X018330Y004900D02*
X018480Y005050D01*
X019380Y005050D01*
X020130Y004300D01*
X020130Y002600D01*
X020280Y002450D01*
X022030Y002450D01*
X022330Y002750D01*
X021630Y002950D02*
X021630Y003575D01*
X020755Y003075D02*
X020730Y003012D01*
X020730Y003050D02*
X020755Y003075D01*
X019880Y002300D02*
X019530Y002650D01*
X018980Y002650D01*
X018755Y002875D01*
X018755Y004150D01*
X017380Y003700D02*
X017380Y005700D01*
X018330Y004900D02*
X018130Y004700D01*
X018130Y001950D01*
X018280Y001800D01*
X018330Y001800D01*
X018642Y001788D01*
X018642Y001785D01*
X018130Y001300D02*
X017980Y001450D01*
X017880Y001550D02*
X018130Y001300D01*
X018280Y001150D01*
X019880Y001450D02*
X020130Y001200D01*
X019880Y001450D02*
X019880Y002300D01*
X017380Y003700D02*
X016980Y003300D01*
X016630Y003300D01*
X015730Y004150D02*
X014130Y005700D01*
X013730Y005700D01*
X012280Y007150D01*
X010868Y005712D02*
X010380Y006200D01*
X010868Y005712D02*
X010868Y005250D01*
X011892Y004856D02*
X011892Y004712D01*
X011630Y004450D01*
X017280Y007150D02*
X017380Y007200D01*
X017380Y007450D01*
X016880Y007950D01*
X016830Y007950D01*
X016380Y008400D01*
X011230Y008400D01*
X011080Y008550D01*
X011080Y008900D01*
X011480Y009600D02*
X012080Y008900D01*
X011480Y009600D02*
X007680Y009600D01*
X007430Y009350D01*
X007430Y008350D01*
X008080Y007700D01*
X014780Y007650D01*
X016130Y008900D02*
X016530Y008900D01*
X018280Y007150D01*
X020630Y007325D02*
X020680Y007265D01*
X021880Y006750D02*
X021880Y007850D01*
X022255Y008325D02*
X022255Y007200D01*
X022380Y007075D01*
X022385Y006980D01*
X022150Y006480D02*
X021880Y006750D01*
X022150Y006480D02*
X022385Y006480D01*
X022630Y006075D02*
X022880Y006325D01*
X022880Y008325D01*
X022755Y008450D01*
X024155Y008925D02*
X024155Y007800D01*
X026630Y007950D02*
X026880Y008200D01*
X026630Y008450D01*
X026630Y009200D01*
X026880Y008200D02*
X027680Y008200D01*
X028024Y007856D01*
X028780Y007856D01*
X027105Y007725D02*
X027105Y006575D01*
X027255Y006425D01*
X027630Y006800D01*
X028030Y006800D01*
X028549Y006281D01*
X028780Y006281D01*
X029380Y005950D02*
X028130Y005950D01*
X027980Y006100D01*
X027930Y006100D01*
X029380Y005950D02*
X029380Y006950D01*
X028899Y006950D01*
X028780Y007069D01*
X026630Y007950D02*
X026630Y003450D01*
X026980Y003100D01*
X026980Y001575D01*
X026980Y000950D01*
X026977Y000950D01*
X027405Y002325D02*
X028755Y002325D01*
X028780Y002344D01*
X028312Y003131D02*
X027980Y002800D01*
X028312Y003131D02*
X028780Y003131D01*
X028755Y003200D01*
X028180Y003500D02*
X027630Y003500D01*
X027380Y003750D01*
X027380Y004450D01*
X027505Y004825D02*
X028380Y004825D01*
X028505Y004700D01*
X028755Y004700D01*
X028780Y004706D01*
X028080Y005150D02*
X028424Y005494D01*
X028780Y005494D01*
X028080Y005150D02*
X027280Y005150D01*
X027080Y004950D01*
X027080Y003875D01*
X027005Y003700D01*
X028180Y003500D02*
X028630Y003950D01*
X028499Y003950D01*
X028780Y003919D01*
X023380Y004700D02*
X023380Y002450D01*
X022855Y004450D02*
X022505Y004450D01*
X022385Y004480D01*
X021480Y004725D02*
X021380Y004700D01*
X020580Y004700D01*
X022385Y005480D02*
X022465Y005400D01*
X022980Y005400D01*
X022385Y005480D02*
X022060Y005480D01*
X021480Y005725D02*
X021480Y006050D01*
X021630Y006200D01*
X022385Y005980D02*
X022505Y006075D01*
X022630Y006075D01*
D31*
X022905Y005700D03*
X021630Y006200D03*
X021505Y006525D03*
X023780Y007100D03*
X024880Y006478D03*
X024630Y005950D03*
X025630Y005950D03*
X027255Y006425D03*
X027105Y007725D03*
X024155Y008925D03*
X022755Y008450D03*
X022255Y008325D03*
X021680Y008450D03*
X021880Y007850D03*
X019630Y007950D03*
X016130Y008900D03*
X014780Y007650D03*
X010380Y006200D03*
X011630Y004450D03*
X008230Y003300D03*
X015730Y004150D03*
X018330Y004900D03*
X017980Y005300D03*
X016780Y005450D03*
X018755Y004150D03*
X020730Y004125D03*
X021880Y004200D03*
X024380Y004200D03*
X024630Y004450D03*
X027005Y003700D03*
X027380Y004450D03*
X027505Y004825D03*
X024530Y003250D03*
X023380Y002450D03*
X021630Y002950D03*
X024405Y001425D03*
X026980Y001575D03*
X027405Y002325D03*
X027980Y002800D03*
X020130Y001200D03*
X026630Y009200D03*
D32*
X026470Y009049D02*
X026470Y008384D01*
X026564Y008290D01*
X026654Y008200D01*
X026584Y008130D01*
X026072Y008130D01*
X025877Y008325D01*
X025599Y008440D01*
X025299Y008440D01*
X025021Y008325D01*
X024826Y008130D01*
X024315Y008130D01*
X024315Y008774D01*
X024375Y008834D01*
X024375Y009016D01*
X024246Y009145D01*
X024064Y009145D01*
X023935Y009016D01*
X023935Y008834D01*
X023995Y008774D01*
X023995Y008130D01*
X023290Y008130D01*
X023290Y008891D01*
X023196Y008985D01*
X023145Y009036D01*
X023145Y009541D01*
X023087Y009600D01*
X022404Y009600D01*
X022380Y009576D01*
X022357Y009600D01*
X021674Y009600D01*
X021615Y009541D01*
X021615Y009485D01*
X021236Y009485D01*
X021236Y009589D01*
X021177Y009648D01*
X020543Y009648D01*
X020484Y009589D01*
X020484Y009191D01*
X020543Y009133D01*
X021177Y009133D01*
X021209Y009165D01*
X021615Y009165D01*
X021615Y008859D01*
X021674Y008800D01*
X022357Y008800D01*
X022380Y008824D01*
X022404Y008800D01*
X022929Y008800D01*
X022970Y008759D01*
X022970Y008546D01*
X022846Y008670D01*
X022664Y008670D01*
X022535Y008541D01*
X022535Y008359D01*
X022664Y008230D01*
X022720Y008230D01*
X022720Y007205D01*
X022476Y007205D01*
X022415Y007266D01*
X022415Y008174D01*
X022475Y008234D01*
X022475Y008416D01*
X022346Y008545D01*
X022164Y008545D01*
X022035Y008416D01*
X022035Y008234D01*
X022095Y008174D01*
X022095Y007946D01*
X021971Y008070D01*
X021789Y008070D01*
X021665Y007946D01*
X021665Y008209D01*
X021686Y008230D01*
X021771Y008230D01*
X021900Y008359D01*
X021900Y008541D01*
X021771Y008670D01*
X021686Y008670D01*
X021396Y008960D01*
X021234Y008960D01*
X021234Y008999D01*
X021176Y009057D01*
X020496Y009057D01*
X020468Y009127D01*
X020355Y009239D01*
X020208Y009300D01*
X019212Y009300D01*
X019065Y009239D01*
X018952Y009127D01*
X018892Y008980D01*
X018892Y008620D01*
X018952Y008473D01*
X019065Y008361D01*
X019212Y008300D01*
X020208Y008300D01*
X020355Y008361D01*
X020468Y008473D01*
X020496Y008543D01*
X021176Y008543D01*
X021234Y008601D01*
X021234Y008640D01*
X021264Y008640D01*
X021454Y008450D01*
X021439Y008435D01*
X021345Y008341D01*
X021345Y006676D01*
X021285Y006616D01*
X021285Y006434D01*
X021414Y006305D01*
X021596Y006305D01*
X021725Y006434D01*
X021725Y006616D01*
X021665Y006676D01*
X021665Y007754D01*
X021720Y007699D01*
X021720Y006684D01*
X021814Y006590D01*
X021985Y006419D01*
X021985Y006314D01*
X022044Y006255D01*
X022584Y006255D01*
X022564Y006235D01*
X022514Y006235D01*
X022458Y006242D01*
X022449Y006235D01*
X022439Y006235D01*
X022409Y006205D01*
X022044Y006205D01*
X021985Y006146D01*
X021985Y005968D01*
X021980Y005977D01*
X021952Y006005D01*
X021918Y006025D01*
X021880Y006035D01*
X021510Y006035D01*
X021510Y005755D01*
X021450Y005755D01*
X021450Y005695D01*
X020950Y005695D01*
X020950Y005545D01*
X020960Y005507D01*
X020980Y005473D01*
X021008Y005445D01*
X021042Y005425D01*
X021080Y005415D01*
X021450Y005415D01*
X021450Y005695D01*
X021510Y005695D01*
X021510Y005415D01*
X021769Y005415D01*
X021714Y005360D01*
X020996Y005360D01*
X020846Y005510D01*
X018546Y005510D01*
X018296Y005760D01*
X017764Y005760D01*
X017670Y005666D01*
X017540Y005536D01*
X017540Y005634D01*
X017696Y005790D01*
X019696Y005790D01*
X020196Y006290D01*
X020280Y006290D01*
X020280Y006194D01*
X020339Y006135D01*
X021022Y006135D01*
X021080Y006194D01*
X021080Y006876D01*
X021057Y006900D01*
X021080Y006924D01*
X021080Y007606D01*
X021022Y007665D01*
X020339Y007665D01*
X020280Y007606D01*
X020280Y007555D01*
X019850Y007985D01*
X019850Y008041D01*
X019721Y008170D01*
X019539Y008170D01*
X019410Y008041D01*
X019410Y007859D01*
X019539Y007730D01*
X019596Y007730D01*
X020181Y007145D01*
X020280Y007145D01*
X020280Y006924D01*
X020304Y006900D01*
X020280Y006876D01*
X020280Y006610D01*
X020064Y006610D01*
X019970Y006516D01*
X019564Y006110D01*
X015440Y006110D01*
X015440Y006018D02*
X015440Y006751D01*
X015524Y006785D01*
X015645Y006906D01*
X015710Y007064D01*
X015710Y007236D01*
X015645Y007394D01*
X015540Y007498D01*
X015540Y007866D01*
X015390Y008016D01*
X015366Y008040D01*
X016064Y008040D01*
X016120Y007984D01*
X016120Y007549D01*
X016037Y007515D01*
X015916Y007394D01*
X015850Y007236D01*
X015850Y007064D01*
X015916Y006906D01*
X016037Y006785D01*
X016195Y006720D01*
X016366Y006720D01*
X016524Y006785D01*
X016645Y006906D01*
X016710Y007064D01*
X016710Y007236D01*
X016645Y007394D01*
X016524Y007515D01*
X016440Y007549D01*
X016440Y008114D01*
X016670Y007884D01*
X016764Y007790D01*
X016814Y007790D01*
X017074Y007530D01*
X017037Y007515D01*
X016916Y007394D01*
X016850Y007236D01*
X016850Y007064D01*
X016916Y006906D01*
X017037Y006785D01*
X017195Y006720D01*
X017366Y006720D01*
X017524Y006785D01*
X017645Y006906D01*
X017710Y007064D01*
X017710Y007236D01*
X017645Y007394D01*
X017540Y007498D01*
X017540Y007516D01*
X017446Y007610D01*
X016946Y008110D01*
X016896Y008110D01*
X016446Y008560D01*
X013306Y008560D01*
X013480Y008734D01*
X013480Y009066D01*
X013246Y009300D01*
X012914Y009300D01*
X012680Y009066D01*
X012680Y008734D01*
X012854Y008560D01*
X012306Y008560D01*
X012480Y008734D01*
X012480Y009066D01*
X012246Y009300D01*
X011948Y009300D01*
X011640Y009659D01*
X011640Y009666D01*
X011598Y009709D01*
X011559Y009754D01*
X011551Y009755D01*
X011546Y009760D01*
X011486Y009760D01*
X011426Y009765D01*
X011421Y009760D01*
X007614Y009760D01*
X007520Y009666D01*
X007270Y009416D01*
X007270Y008284D01*
X007364Y008190D01*
X007967Y007587D01*
X008013Y007540D01*
X008013Y007540D01*
X008014Y007540D01*
X008080Y007540D01*
X008098Y007540D01*
X008037Y007515D01*
X007916Y007394D01*
X007881Y007310D01*
X007881Y007443D01*
X007812Y007608D01*
X007686Y007735D01*
X007520Y007803D01*
X006641Y007803D01*
X006476Y007735D01*
X006349Y007608D01*
X006281Y007443D01*
X006281Y007264D01*
X006349Y007098D01*
X006476Y006972D01*
X006641Y006903D01*
X007520Y006903D01*
X007686Y006972D01*
X007812Y007098D01*
X007850Y007189D01*
X007850Y007064D01*
X007916Y006906D01*
X008037Y006785D01*
X008195Y006720D01*
X008366Y006720D01*
X008524Y006785D01*
X008645Y006906D01*
X008710Y007064D01*
X008710Y007236D01*
X008645Y007394D01*
X008524Y007515D01*
X008469Y007537D01*
X009080Y007533D01*
X009037Y007515D01*
X008916Y007394D01*
X008850Y007236D01*
X008850Y007064D01*
X008916Y006906D01*
X009037Y006785D01*
X009195Y006720D01*
X009366Y006720D01*
X009524Y006785D01*
X009645Y006906D01*
X009710Y007064D01*
X009710Y007236D01*
X009645Y007394D01*
X009524Y007515D01*
X009488Y007529D01*
X010062Y007525D01*
X010037Y007515D01*
X009916Y007394D01*
X009850Y007236D01*
X009850Y007064D01*
X009916Y006906D01*
X010037Y006785D01*
X010195Y006720D01*
X010366Y006720D01*
X010524Y006785D01*
X010645Y006906D01*
X010710Y007064D01*
X010710Y007236D01*
X010645Y007394D01*
X010524Y007515D01*
X010506Y007522D01*
X010971Y007518D01*
X010967Y007516D01*
X010914Y007463D01*
X010870Y007402D01*
X010835Y007334D01*
X010812Y007262D01*
X010802Y007198D01*
X011232Y007198D01*
X011232Y007102D01*
X010802Y007102D01*
X010812Y007038D01*
X010835Y006966D01*
X010870Y006898D01*
X010636Y006898D01*
X010682Y006997D02*
X010825Y006997D01*
X010803Y007095D02*
X010710Y007095D01*
X010710Y007194D02*
X011232Y007194D01*
X011232Y007102D02*
X011329Y007102D01*
X011329Y007198D01*
X011758Y007198D01*
X011748Y007262D01*
X011725Y007334D01*
X011691Y007402D01*
X011646Y007463D01*
X011595Y007514D01*
X012033Y007511D01*
X011916Y007394D01*
X011850Y007236D01*
X011850Y007064D01*
X011916Y006906D01*
X012037Y006785D01*
X012195Y006720D01*
X012366Y006720D01*
X012449Y006755D01*
X013664Y005540D01*
X014065Y005540D01*
X015510Y004140D01*
X015416Y004140D01*
X015510Y004140D02*
X015510Y004059D01*
X015639Y003930D01*
X015821Y003930D01*
X015950Y004059D01*
X015950Y004241D01*
X015821Y004370D01*
X015733Y004370D01*
X014242Y005814D01*
X014196Y005860D01*
X014195Y005860D01*
X014194Y005861D01*
X014129Y005860D01*
X013796Y005860D01*
X012676Y006981D01*
X012710Y007064D01*
X012710Y007236D01*
X012645Y007394D01*
X012531Y007507D01*
X013025Y007503D01*
X012916Y007394D01*
X012850Y007236D01*
X012850Y007064D01*
X012916Y006906D01*
X013037Y006785D01*
X013195Y006720D01*
X013366Y006720D01*
X013524Y006785D01*
X013645Y006906D01*
X013710Y007064D01*
X013710Y007236D01*
X013645Y007394D01*
X013539Y007499D01*
X014018Y007496D01*
X013916Y007394D01*
X013850Y007236D01*
X013850Y007064D01*
X013916Y006906D01*
X013935Y006887D01*
X013843Y006887D01*
X013704Y006829D01*
X013598Y006723D01*
X013541Y006584D01*
X013541Y006434D01*
X013598Y006296D01*
X013704Y006190D01*
X013843Y006132D01*
X013993Y006132D01*
X014131Y006190D01*
X014238Y006296D01*
X014258Y006346D01*
X014314Y006290D01*
X015970Y004634D01*
X015970Y004016D01*
X015870Y003916D01*
X015870Y003715D01*
X015759Y003715D01*
X015730Y003686D01*
X015702Y003715D01*
X015590Y003715D01*
X015590Y003966D01*
X014290Y005266D01*
X014196Y005360D01*
X013196Y005360D01*
X012790Y005766D01*
X012696Y005860D01*
X012169Y005860D01*
X012169Y005882D01*
X012111Y005941D01*
X011673Y005941D01*
X011615Y005882D01*
X011615Y005405D01*
X011673Y005347D01*
X012111Y005347D01*
X012169Y005405D01*
X012169Y005540D01*
X012564Y005540D01*
X013064Y005040D01*
X014064Y005040D01*
X015270Y003834D01*
X015270Y003715D01*
X015159Y003715D01*
X015100Y003656D01*
X015100Y002944D01*
X015159Y002885D01*
X015702Y002885D01*
X015730Y002914D01*
X015759Y002885D01*
X016302Y002885D01*
X016330Y002914D01*
X016359Y002885D01*
X016902Y002885D01*
X016960Y002944D01*
X016960Y003140D01*
X017046Y003140D01*
X017446Y003540D01*
X017470Y003564D01*
X017470Y002166D01*
X017164Y001860D01*
X016964Y001860D01*
X017086Y001910D01*
X017207Y002031D01*
X017273Y002189D01*
X017273Y002361D01*
X017207Y002519D01*
X017086Y002640D01*
X016928Y002705D01*
X016757Y002705D01*
X016599Y002640D01*
X016478Y002519D01*
X016413Y002361D01*
X016413Y002189D01*
X016478Y002031D01*
X016599Y001910D01*
X016751Y001847D01*
X016449Y001545D01*
X016366Y001580D01*
X016195Y001580D01*
X016037Y001515D01*
X015916Y001394D01*
X015850Y001236D01*
X015850Y001064D01*
X015916Y000906D01*
X015992Y000830D01*
X015568Y000830D01*
X015645Y000906D01*
X015710Y001064D01*
X015710Y001236D01*
X015645Y001394D01*
X015524Y001515D01*
X015366Y001580D01*
X015195Y001580D01*
X015037Y001515D01*
X014960Y001438D01*
X014960Y001877D01*
X014961Y001878D01*
X014960Y001951D01*
X014960Y002025D01*
X014959Y002026D01*
X014959Y002027D01*
X014906Y002078D01*
X014855Y002130D01*
X014853Y002130D01*
X013256Y003678D01*
X013205Y003730D01*
X013203Y003730D01*
X013202Y003731D01*
X013129Y003730D01*
X009256Y003730D01*
X009150Y003625D01*
X009150Y003625D01*
X009006Y003480D01*
X008361Y003480D01*
X008321Y003520D01*
X008139Y003520D01*
X008010Y003391D01*
X008010Y003209D01*
X008139Y003080D01*
X008321Y003080D01*
X008361Y003120D01*
X009155Y003120D01*
X009260Y003225D01*
X009260Y003225D01*
X009405Y003370D01*
X013057Y003370D01*
X014600Y001874D01*
X014600Y001438D01*
X014524Y001515D01*
X014366Y001580D01*
X014241Y001580D01*
X014295Y001710D01*
X014295Y001860D01*
X014238Y001999D01*
X014131Y002105D01*
X013993Y002162D01*
X013843Y002162D01*
X013704Y002105D01*
X013598Y001999D01*
X013541Y001860D01*
X013541Y001710D01*
X013598Y001571D01*
X013704Y001465D01*
X013843Y001408D01*
X013930Y001408D01*
X013916Y001394D01*
X013850Y001236D01*
X013850Y001064D01*
X013916Y000906D01*
X014037Y000785D01*
X014195Y000720D01*
X014366Y000720D01*
X014524Y000785D01*
X014600Y000862D01*
X014600Y000775D01*
X014706Y000670D01*
X014906Y000470D01*
X020655Y000470D01*
X020760Y000575D01*
X020912Y000727D01*
X020912Y000564D01*
X020971Y000506D01*
X022097Y000506D01*
X022155Y000564D01*
X022155Y001336D01*
X022097Y001394D01*
X020971Y001394D01*
X020912Y001336D01*
X020912Y001130D01*
X020806Y001130D01*
X020506Y000830D01*
X019568Y000830D01*
X019645Y000906D01*
X019710Y001064D01*
X019710Y001236D01*
X019645Y001394D01*
X019524Y001515D01*
X019366Y001580D01*
X019195Y001580D01*
X019037Y001515D01*
X018916Y001394D01*
X018850Y001236D01*
X018850Y001064D01*
X018916Y000906D01*
X018992Y000830D01*
X018568Y000830D01*
X018645Y000906D01*
X018710Y001064D01*
X018710Y001236D01*
X018645Y001394D01*
X018630Y001408D01*
X018717Y001408D01*
X018856Y001465D01*
X018962Y001571D01*
X019019Y001710D01*
X019019Y001803D01*
X019037Y001785D01*
X019195Y001720D01*
X019366Y001720D01*
X019524Y001785D01*
X019645Y001906D01*
X019710Y002064D01*
X019710Y002236D01*
X019704Y002250D01*
X019720Y002234D01*
X019720Y001384D01*
X019910Y001194D01*
X019910Y001109D01*
X020039Y000980D01*
X020221Y000980D01*
X020350Y001109D01*
X020350Y001291D01*
X020221Y001420D01*
X020136Y001420D01*
X020040Y001516D01*
X020040Y002366D01*
X019946Y002460D01*
X019596Y002810D01*
X019548Y002810D01*
X019645Y002906D01*
X019710Y003064D01*
X019710Y003236D01*
X019645Y003394D01*
X019524Y003515D01*
X019366Y003580D01*
X019195Y003580D01*
X019037Y003515D01*
X018916Y003394D01*
X018915Y003392D01*
X018915Y003999D01*
X018975Y004059D01*
X018975Y004241D01*
X018846Y004370D01*
X018664Y004370D01*
X018535Y004241D01*
X018535Y004059D01*
X018595Y003999D01*
X018595Y002809D01*
X018820Y002584D01*
X018914Y002490D01*
X019012Y002490D01*
X018916Y002394D01*
X018850Y002236D01*
X018850Y002107D01*
X018717Y002162D01*
X018567Y002162D01*
X018429Y002105D01*
X018322Y001999D01*
X018318Y001988D01*
X018290Y002016D01*
X018290Y004634D01*
X018336Y004680D01*
X018421Y004680D01*
X018550Y004809D01*
X018550Y004890D01*
X019314Y004890D01*
X019970Y004234D01*
X019970Y002534D01*
X020120Y002384D01*
X020214Y002290D01*
X020321Y002290D01*
X020275Y002244D01*
X020275Y001531D01*
X020334Y001473D01*
X021126Y001473D01*
X021185Y001531D01*
X021185Y001708D01*
X022068Y001708D01*
X022605Y001171D01*
X022605Y000564D01*
X022664Y000506D01*
X023790Y000506D01*
X023848Y000564D01*
X023848Y001336D01*
X023790Y001394D01*
X022890Y001394D01*
X022217Y002068D01*
X021185Y002068D01*
X021185Y002244D01*
X021139Y002290D01*
X022096Y002290D01*
X022330Y002524D01*
X022420Y002434D01*
X022420Y002134D01*
X022920Y001634D01*
X023014Y001540D01*
X024064Y001540D01*
X024185Y001419D01*
X024185Y001334D01*
X024314Y001205D01*
X024496Y001205D01*
X024625Y001334D01*
X024625Y001516D01*
X024496Y001645D01*
X024411Y001645D01*
X024196Y001860D01*
X023146Y001860D01*
X022986Y002020D01*
X023034Y002020D01*
X023114Y001940D01*
X023646Y001940D01*
X023726Y002020D01*
X024876Y002020D01*
X025021Y001875D01*
X025299Y001760D01*
X025599Y001760D01*
X025877Y001875D01*
X026022Y002020D01*
X026049Y002020D01*
X025470Y001441D01*
X025470Y001394D01*
X024721Y001394D01*
X024662Y001336D01*
X024662Y000564D01*
X024721Y000506D01*
X025847Y000506D01*
X025905Y000564D01*
X025905Y001336D01*
X025861Y001380D01*
X026501Y002020D01*
X026820Y002020D01*
X026820Y001726D01*
X026760Y001666D01*
X026760Y001484D01*
X026820Y001424D01*
X026820Y001394D01*
X026414Y001394D01*
X026355Y001336D01*
X026355Y000564D01*
X026414Y000506D01*
X027540Y000506D01*
X027598Y000564D01*
X027598Y001336D01*
X027540Y001394D01*
X027140Y001394D01*
X027140Y001424D01*
X027200Y001484D01*
X027200Y001666D01*
X027140Y001726D01*
X027140Y002020D01*
X028934Y002020D01*
X028998Y002084D01*
X029202Y002084D01*
X029260Y002143D01*
X029260Y002546D01*
X029202Y002604D01*
X029010Y002604D01*
X029010Y002871D01*
X029202Y002871D01*
X029260Y002930D01*
X029260Y003333D01*
X029202Y003391D01*
X029010Y003391D01*
X029010Y003659D01*
X029202Y003659D01*
X029260Y003717D01*
X029260Y004120D01*
X029202Y004179D01*
X029010Y004179D01*
X029010Y004446D01*
X029202Y004446D01*
X029260Y004505D01*
X029260Y004908D01*
X029202Y004966D01*
X029010Y004966D01*
X029010Y005234D01*
X029202Y005234D01*
X029260Y005292D01*
X029260Y005695D01*
X029202Y005754D01*
X029010Y005754D01*
X029010Y006021D01*
X029202Y006021D01*
X029260Y006080D01*
X029260Y006483D01*
X029202Y006541D01*
X029010Y006541D01*
X029010Y006759D01*
X029180Y006759D01*
X029218Y006769D01*
X029252Y006788D01*
X029280Y006816D01*
X029300Y006851D01*
X029310Y006889D01*
X029310Y007039D01*
X029010Y007039D01*
X029010Y007099D01*
X029310Y007099D01*
X029310Y007248D01*
X029300Y007286D01*
X029280Y007321D01*
X029252Y007349D01*
X029218Y007368D01*
X029180Y007379D01*
X029010Y007379D01*
X029010Y007596D01*
X029202Y007596D01*
X029260Y007654D01*
X029260Y008057D01*
X029202Y008116D01*
X028948Y008116D01*
X028934Y008130D01*
X027976Y008130D01*
X027840Y008266D01*
X027840Y008266D01*
X027746Y008360D01*
X026946Y008360D01*
X026790Y008516D01*
X026790Y009049D01*
X026850Y009109D01*
X026850Y009291D01*
X026721Y009420D01*
X026539Y009420D01*
X026410Y009291D01*
X026410Y009109D01*
X026470Y009049D01*
X026454Y009065D02*
X024326Y009065D01*
X024375Y008967D02*
X026470Y008967D01*
X026470Y008868D02*
X024375Y008868D01*
X024315Y008770D02*
X026470Y008770D01*
X026470Y008671D02*
X024315Y008671D01*
X024315Y008573D02*
X026470Y008573D01*
X026470Y008474D02*
X024315Y008474D01*
X024315Y008376D02*
X025143Y008376D01*
X024973Y008277D02*
X024315Y008277D01*
X024315Y008179D02*
X024875Y008179D01*
X023995Y008179D02*
X023290Y008179D01*
X023290Y008277D02*
X023995Y008277D01*
X023995Y008376D02*
X023290Y008376D01*
X023290Y008474D02*
X023995Y008474D01*
X023995Y008573D02*
X023290Y008573D01*
X023290Y008671D02*
X023995Y008671D01*
X023995Y008770D02*
X023290Y008770D01*
X023290Y008868D02*
X023935Y008868D01*
X023935Y008967D02*
X023215Y008967D01*
X023145Y009065D02*
X023984Y009065D01*
X023145Y009164D02*
X026410Y009164D01*
X026410Y009262D02*
X023145Y009262D01*
X023145Y009361D02*
X026480Y009361D01*
X026781Y009361D02*
X028145Y009361D01*
X028170Y009422D02*
X028073Y009186D01*
X028073Y008931D01*
X028170Y008695D01*
X028351Y008514D01*
X028587Y008416D01*
X028843Y008416D01*
X029079Y008514D01*
X029259Y008695D01*
X029357Y008931D01*
X029357Y009186D01*
X029259Y009422D01*
X029079Y009603D01*
X028843Y009700D01*
X028587Y009700D01*
X028351Y009603D01*
X028170Y009422D01*
X028207Y009459D02*
X023145Y009459D01*
X023129Y009558D02*
X028306Y009558D01*
X028480Y009656D02*
X011643Y009656D01*
X011727Y009558D02*
X020484Y009558D01*
X020484Y009459D02*
X011812Y009459D01*
X011896Y009361D02*
X020484Y009361D01*
X020484Y009262D02*
X020300Y009262D01*
X020431Y009164D02*
X020512Y009164D01*
X020493Y009065D02*
X021615Y009065D01*
X021615Y008967D02*
X021234Y008967D01*
X021488Y008868D02*
X021615Y008868D01*
X021587Y008770D02*
X022959Y008770D01*
X022970Y008671D02*
X021685Y008671D01*
X021869Y008573D02*
X022567Y008573D01*
X022535Y008474D02*
X022417Y008474D01*
X022475Y008376D02*
X022535Y008376D01*
X022475Y008277D02*
X022617Y008277D01*
X022720Y008179D02*
X022420Y008179D01*
X022415Y008080D02*
X022720Y008080D01*
X022720Y007982D02*
X022415Y007982D01*
X022415Y007883D02*
X022720Y007883D01*
X022720Y007785D02*
X022415Y007785D01*
X022415Y007686D02*
X022720Y007686D01*
X022720Y007588D02*
X022415Y007588D01*
X022415Y007489D02*
X022720Y007489D01*
X022720Y007391D02*
X022415Y007391D01*
X022415Y007292D02*
X022720Y007292D01*
X021720Y007292D02*
X021665Y007292D01*
X021665Y007194D02*
X021720Y007194D01*
X021720Y007095D02*
X021665Y007095D01*
X021665Y006997D02*
X021720Y006997D01*
X021720Y006898D02*
X021665Y006898D01*
X021665Y006800D02*
X021720Y006800D01*
X021720Y006701D02*
X021665Y006701D01*
X021725Y006603D02*
X021801Y006603D01*
X021725Y006504D02*
X021900Y006504D01*
X021985Y006406D02*
X021697Y006406D01*
X021598Y006307D02*
X021992Y006307D01*
X022412Y006209D02*
X021080Y006209D01*
X021080Y006307D02*
X021412Y006307D01*
X021314Y006406D02*
X021080Y006406D01*
X021080Y006504D02*
X021285Y006504D01*
X021285Y006603D02*
X021080Y006603D01*
X021080Y006701D02*
X021345Y006701D01*
X021345Y006800D02*
X021080Y006800D01*
X021059Y006898D02*
X021345Y006898D01*
X021345Y006997D02*
X021080Y006997D01*
X021080Y007095D02*
X021345Y007095D01*
X021345Y007194D02*
X021080Y007194D01*
X021080Y007292D02*
X021345Y007292D01*
X021345Y007391D02*
X021080Y007391D01*
X021080Y007489D02*
X021345Y007489D01*
X021345Y007588D02*
X021080Y007588D01*
X021345Y007686D02*
X020149Y007686D01*
X020247Y007588D02*
X020280Y007588D01*
X020050Y007785D02*
X021345Y007785D01*
X021345Y007883D02*
X019952Y007883D01*
X019853Y007982D02*
X020452Y007982D01*
X020445Y007994D02*
X020464Y007960D01*
X020492Y007932D01*
X020527Y007913D01*
X020565Y007902D01*
X020831Y007902D01*
X020831Y008181D01*
X020434Y008181D01*
X020434Y008033D01*
X020445Y007994D01*
X020434Y008080D02*
X019811Y008080D01*
X019449Y008080D02*
X017576Y008080D01*
X017478Y008179D02*
X020434Y008179D01*
X020434Y008239D02*
X020831Y008239D01*
X020831Y008517D01*
X020565Y008517D01*
X020527Y008507D01*
X020492Y008487D01*
X020464Y008459D01*
X020445Y008425D01*
X020434Y008387D01*
X020434Y008239D01*
X020434Y008277D02*
X017379Y008277D01*
X017281Y008376D02*
X019050Y008376D01*
X018952Y008474D02*
X017182Y008474D01*
X017084Y008573D02*
X018911Y008573D01*
X018892Y008671D02*
X016985Y008671D01*
X016887Y008770D02*
X018892Y008770D01*
X018892Y008868D02*
X016788Y008868D01*
X016690Y008967D02*
X018892Y008967D01*
X018927Y009065D02*
X016276Y009065D01*
X016281Y009060D02*
X016221Y009120D01*
X016039Y009120D01*
X015910Y008991D01*
X015910Y008809D01*
X016039Y008680D01*
X016221Y008680D01*
X016281Y008740D01*
X016464Y008740D01*
X017885Y007319D01*
X017850Y007236D01*
X017850Y007064D01*
X017916Y006906D01*
X018037Y006785D01*
X018195Y006720D01*
X018321Y006720D01*
X018265Y006584D01*
X018265Y006434D01*
X018322Y006296D01*
X018429Y006190D01*
X018567Y006132D01*
X018717Y006132D01*
X018856Y006190D01*
X018962Y006296D01*
X019019Y006434D01*
X019019Y006584D01*
X018962Y006723D01*
X018856Y006829D01*
X018717Y006887D01*
X018625Y006887D01*
X018645Y006906D01*
X018710Y007064D01*
X018710Y007236D01*
X018645Y007394D01*
X018524Y007515D01*
X018366Y007580D01*
X018195Y007580D01*
X018111Y007545D01*
X016596Y009060D01*
X016281Y009060D01*
X015984Y009065D02*
X013480Y009065D01*
X013480Y008967D02*
X015910Y008967D01*
X015910Y008868D02*
X013480Y008868D01*
X013480Y008770D02*
X015950Y008770D01*
X016533Y008671D02*
X013417Y008671D01*
X013318Y008573D02*
X016631Y008573D01*
X016532Y008474D02*
X016730Y008474D01*
X016828Y008376D02*
X016631Y008376D01*
X016729Y008277D02*
X016927Y008277D01*
X017025Y008179D02*
X016828Y008179D01*
X016976Y008080D02*
X017124Y008080D01*
X017075Y007982D02*
X017222Y007982D01*
X017173Y007883D02*
X017321Y007883D01*
X017272Y007785D02*
X017419Y007785D01*
X017370Y007686D02*
X017518Y007686D01*
X017469Y007588D02*
X017616Y007588D01*
X017549Y007489D02*
X017715Y007489D01*
X017646Y007391D02*
X017813Y007391D01*
X017874Y007292D02*
X017687Y007292D01*
X017710Y007194D02*
X017850Y007194D01*
X017850Y007095D02*
X017710Y007095D01*
X017682Y006997D02*
X017878Y006997D01*
X017924Y006898D02*
X017636Y006898D01*
X017538Y006800D02*
X018023Y006800D01*
X018313Y006701D02*
X015440Y006701D01*
X015440Y006603D02*
X018273Y006603D01*
X018265Y006504D02*
X015440Y006504D01*
X015440Y006406D02*
X018277Y006406D01*
X018318Y006307D02*
X015440Y006307D01*
X015440Y006209D02*
X018410Y006209D01*
X018875Y006209D02*
X019662Y006209D01*
X019761Y006307D02*
X018967Y006307D01*
X019007Y006406D02*
X019859Y006406D01*
X019958Y006504D02*
X019019Y006504D01*
X019012Y006603D02*
X020056Y006603D01*
X020280Y006701D02*
X018971Y006701D01*
X019037Y006785D02*
X019195Y006720D01*
X019366Y006720D01*
X019524Y006785D01*
X019645Y006906D01*
X019710Y007064D01*
X019710Y007236D01*
X019645Y007394D01*
X019524Y007515D01*
X019366Y007580D01*
X019195Y007580D01*
X019037Y007515D01*
X018916Y007394D01*
X018850Y007236D01*
X018850Y007064D01*
X018916Y006906D01*
X019037Y006785D01*
X019023Y006800D02*
X018886Y006800D01*
X018924Y006898D02*
X018636Y006898D01*
X018682Y006997D02*
X018878Y006997D01*
X018850Y007095D02*
X018710Y007095D01*
X018710Y007194D02*
X018850Y007194D01*
X018874Y007292D02*
X018687Y007292D01*
X018646Y007391D02*
X018914Y007391D01*
X019011Y007489D02*
X018549Y007489D01*
X018069Y007588D02*
X019738Y007588D01*
X019640Y007686D02*
X017970Y007686D01*
X017872Y007785D02*
X019485Y007785D01*
X019410Y007883D02*
X017773Y007883D01*
X017675Y007982D02*
X019410Y007982D01*
X020370Y008376D02*
X020434Y008376D01*
X020468Y008474D02*
X020479Y008474D01*
X020831Y008474D02*
X020889Y008474D01*
X020889Y008517D02*
X020889Y008239D01*
X020831Y008239D01*
X020831Y008181D01*
X020889Y008181D01*
X020889Y008239D01*
X021286Y008239D01*
X021286Y008387D01*
X021275Y008425D01*
X021256Y008459D01*
X021228Y008487D01*
X021194Y008507D01*
X021155Y008517D01*
X020889Y008517D01*
X020889Y008376D02*
X020831Y008376D01*
X020831Y008277D02*
X020889Y008277D01*
X020889Y008181D02*
X021286Y008181D01*
X021286Y008033D01*
X021275Y007994D01*
X021256Y007960D01*
X021228Y007932D01*
X021194Y007913D01*
X021155Y007902D01*
X020889Y007902D01*
X020889Y008181D01*
X020889Y008179D02*
X020831Y008179D01*
X020831Y008080D02*
X020889Y008080D01*
X020889Y007982D02*
X020831Y007982D01*
X021268Y007982D02*
X021345Y007982D01*
X021345Y008080D02*
X021286Y008080D01*
X021286Y008179D02*
X021345Y008179D01*
X021345Y008277D02*
X021286Y008277D01*
X021286Y008376D02*
X021379Y008376D01*
X021430Y008474D02*
X021241Y008474D01*
X021206Y008573D02*
X021331Y008573D01*
X021900Y008474D02*
X022093Y008474D01*
X022035Y008376D02*
X021900Y008376D01*
X021818Y008277D02*
X022035Y008277D01*
X022091Y008179D02*
X021665Y008179D01*
X021665Y008080D02*
X022095Y008080D01*
X022095Y007982D02*
X022060Y007982D01*
X021701Y007982D02*
X021665Y007982D01*
X021665Y007686D02*
X021720Y007686D01*
X021720Y007588D02*
X021665Y007588D01*
X021665Y007489D02*
X021720Y007489D01*
X021720Y007391D02*
X021665Y007391D01*
X020280Y007095D02*
X019710Y007095D01*
X019710Y007194D02*
X020132Y007194D01*
X020034Y007292D02*
X019687Y007292D01*
X019646Y007391D02*
X019935Y007391D01*
X019837Y007489D02*
X019549Y007489D01*
X019682Y006997D02*
X020280Y006997D01*
X020302Y006898D02*
X019636Y006898D01*
X019538Y006800D02*
X020280Y006800D01*
X020280Y006209D02*
X020115Y006209D01*
X020016Y006110D02*
X021985Y006110D01*
X021985Y006012D02*
X021941Y006012D01*
X022010Y005789D02*
X022044Y005755D01*
X022685Y005755D01*
X022685Y005705D01*
X022044Y005705D01*
X022010Y005671D01*
X022010Y005695D01*
X021510Y005695D01*
X021510Y005755D01*
X022010Y005755D01*
X022010Y005789D01*
X021510Y005815D02*
X021450Y005815D01*
X021450Y005755D02*
X021450Y006035D01*
X021080Y006035D01*
X021042Y006025D01*
X021008Y006005D01*
X020980Y005977D01*
X020960Y005943D01*
X020950Y005905D01*
X020950Y005755D01*
X021450Y005755D01*
X021450Y005716D02*
X018340Y005716D01*
X018439Y005618D02*
X020950Y005618D01*
X020957Y005519D02*
X018537Y005519D01*
X017720Y005716D02*
X017622Y005716D01*
X017621Y005618D02*
X017540Y005618D01*
X017220Y005618D02*
X016924Y005618D01*
X016871Y005670D02*
X016689Y005670D01*
X016629Y005610D01*
X015866Y005610D01*
X015851Y005625D01*
X015805Y005670D01*
X015803Y005670D01*
X015440Y006018D01*
X015447Y006012D02*
X017465Y006012D01*
X017470Y006016D02*
X017220Y005766D01*
X017220Y003766D01*
X016960Y003506D01*
X016960Y003656D01*
X016902Y003715D01*
X016359Y003715D01*
X016330Y003686D01*
X016302Y003715D01*
X016190Y003715D01*
X016190Y003784D01*
X016196Y003790D01*
X016290Y003884D01*
X016290Y004766D01*
X016196Y004860D01*
X015766Y005290D01*
X016629Y005290D01*
X016689Y005230D01*
X016871Y005230D01*
X017000Y005359D01*
X017000Y005541D01*
X016871Y005670D01*
X017000Y005519D02*
X017220Y005519D01*
X017220Y005421D02*
X017000Y005421D01*
X016963Y005322D02*
X017220Y005322D01*
X017220Y005224D02*
X015833Y005224D01*
X015931Y005125D02*
X017220Y005125D01*
X017220Y005027D02*
X016030Y005027D01*
X016128Y004928D02*
X017220Y004928D01*
X017220Y004830D02*
X016227Y004830D01*
X016196Y004860D02*
X016196Y004860D01*
X016290Y004731D02*
X017220Y004731D01*
X017220Y004633D02*
X016290Y004633D01*
X016290Y004534D02*
X017220Y004534D01*
X017220Y004436D02*
X016290Y004436D01*
X016290Y004337D02*
X017220Y004337D01*
X017220Y004239D02*
X016290Y004239D01*
X016290Y004140D02*
X017220Y004140D01*
X017220Y004042D02*
X016290Y004042D01*
X016290Y003943D02*
X017220Y003943D01*
X017220Y003845D02*
X016251Y003845D01*
X016190Y003746D02*
X017200Y003746D01*
X017101Y003648D02*
X016960Y003648D01*
X016960Y003549D02*
X017003Y003549D01*
X017258Y003352D02*
X017470Y003352D01*
X017470Y003254D02*
X017160Y003254D01*
X017061Y003155D02*
X017470Y003155D01*
X017470Y003057D02*
X016960Y003057D01*
X016960Y002958D02*
X017470Y002958D01*
X017470Y002860D02*
X014101Y002860D01*
X013999Y002958D02*
X015100Y002958D01*
X015100Y003057D02*
X013898Y003057D01*
X013796Y003155D02*
X015100Y003155D01*
X015100Y003254D02*
X013995Y003254D01*
X013971Y003230D02*
X014100Y003359D01*
X014100Y003541D01*
X014060Y003581D01*
X014060Y004569D01*
X014100Y004609D01*
X014100Y004791D01*
X013971Y004920D01*
X013789Y004920D01*
X013660Y004791D01*
X013660Y004609D01*
X013700Y004569D01*
X013700Y003581D01*
X013660Y003541D01*
X013660Y003359D01*
X013789Y003230D01*
X013971Y003230D01*
X014093Y003352D02*
X015100Y003352D01*
X015100Y003451D02*
X014100Y003451D01*
X014092Y003549D02*
X015100Y003549D01*
X015100Y003648D02*
X014060Y003648D01*
X014060Y003746D02*
X015270Y003746D01*
X015259Y003845D02*
X014060Y003845D01*
X014060Y003943D02*
X015161Y003943D01*
X015062Y004042D02*
X014060Y004042D01*
X014060Y004140D02*
X014964Y004140D01*
X014865Y004239D02*
X014060Y004239D01*
X014060Y004337D02*
X014767Y004337D01*
X014668Y004436D02*
X014060Y004436D01*
X014060Y004534D02*
X014570Y004534D01*
X014471Y004633D02*
X014100Y004633D01*
X014100Y004731D02*
X014373Y004731D01*
X014274Y004830D02*
X014062Y004830D01*
X014176Y004928D02*
X012169Y004928D01*
X012169Y004830D02*
X013699Y004830D01*
X013660Y004731D02*
X012169Y004731D01*
X012169Y004633D02*
X013660Y004633D01*
X013700Y004534D02*
X011940Y004534D01*
X011966Y004559D02*
X011850Y004444D01*
X011850Y004359D01*
X011721Y004230D01*
X011539Y004230D01*
X011410Y004359D01*
X011410Y004541D01*
X011539Y004670D01*
X011615Y004670D01*
X011615Y005095D01*
X011673Y005153D01*
X012111Y005153D01*
X012169Y005095D01*
X012169Y004618D01*
X012111Y004559D01*
X011966Y004559D01*
X011850Y004436D02*
X013700Y004436D01*
X013700Y004337D02*
X011828Y004337D01*
X011730Y004239D02*
X013700Y004239D01*
X013700Y004140D02*
X007330Y004140D01*
X007330Y004150D02*
X007781Y004150D01*
X007770Y004218D01*
X007746Y004293D01*
X007710Y004363D01*
X007663Y004427D01*
X007608Y004483D01*
X007544Y004530D01*
X007473Y004566D01*
X007398Y004590D01*
X007330Y004601D01*
X007330Y004150D01*
X007230Y004150D01*
X007230Y004050D01*
X006779Y004050D01*
X006790Y003982D01*
X006814Y003907D01*
X006850Y003837D01*
X006897Y003773D01*
X006953Y003717D01*
X007017Y003670D01*
X007087Y003634D01*
X007162Y003610D01*
X007230Y003599D01*
X007230Y004050D01*
X007330Y004050D01*
X007330Y003599D01*
X007398Y003610D01*
X007473Y003634D01*
X007544Y003670D01*
X007608Y003717D01*
X007663Y003773D01*
X007710Y003837D01*
X007746Y003907D01*
X007770Y003982D01*
X007781Y004050D01*
X007330Y004050D01*
X007330Y004150D01*
X007330Y004239D02*
X007230Y004239D01*
X007230Y004150D02*
X007230Y004601D01*
X007162Y004590D01*
X007087Y004566D01*
X007017Y004530D01*
X006953Y004483D01*
X006897Y004427D01*
X006850Y004363D01*
X006814Y004293D01*
X006790Y004218D01*
X006779Y004150D01*
X007230Y004150D01*
X007230Y004140D02*
X006030Y004140D01*
X006030Y004042D02*
X006781Y004042D01*
X006803Y003943D02*
X006030Y003943D01*
X006030Y003845D02*
X006846Y003845D01*
X006924Y003746D02*
X006030Y003746D01*
X006030Y003648D02*
X007061Y003648D01*
X007230Y003648D02*
X007330Y003648D01*
X007330Y003746D02*
X007230Y003746D01*
X007230Y003845D02*
X007330Y003845D01*
X007330Y003943D02*
X007230Y003943D01*
X007230Y004042D02*
X007330Y004042D01*
X007714Y003845D02*
X013700Y003845D01*
X013700Y003943D02*
X007758Y003943D01*
X007780Y004042D02*
X013700Y004042D01*
X013700Y003746D02*
X007637Y003746D01*
X007499Y003648D02*
X009173Y003648D01*
X009075Y003549D02*
X006030Y003549D01*
X006030Y003451D02*
X008070Y003451D01*
X008010Y003352D02*
X006030Y003352D01*
X006030Y003254D02*
X008010Y003254D01*
X008064Y003155D02*
X007621Y003155D01*
X007686Y003128D02*
X007520Y003197D01*
X006641Y003197D01*
X006476Y003128D01*
X006349Y003002D01*
X006281Y002836D01*
X006281Y002657D01*
X006349Y002492D01*
X006476Y002365D01*
X006641Y002297D01*
X007520Y002297D01*
X007686Y002365D01*
X007812Y002492D01*
X007881Y002657D01*
X007881Y002836D01*
X007812Y003002D01*
X007686Y003128D01*
X007758Y003057D02*
X009707Y003057D01*
X009748Y003098D02*
X009633Y002982D01*
X009570Y002832D01*
X009570Y002668D01*
X009633Y002518D01*
X009748Y002402D01*
X009899Y002340D01*
X010062Y002340D01*
X010212Y002402D01*
X010328Y002518D01*
X010390Y002668D01*
X010390Y002832D01*
X010328Y002982D01*
X010212Y003098D01*
X010062Y003160D01*
X009899Y003160D01*
X009748Y003098D01*
X009887Y003155D02*
X009190Y003155D01*
X009288Y003254D02*
X013177Y003254D01*
X013076Y003352D02*
X009387Y003352D01*
X010074Y003155D02*
X010735Y003155D01*
X010790Y003210D02*
X010520Y002941D01*
X010520Y002780D01*
X010950Y002780D01*
X010950Y002720D01*
X010520Y002720D01*
X010520Y002559D01*
X010790Y002290D01*
X010950Y002290D01*
X010950Y002720D01*
X011010Y002720D01*
X011010Y002290D01*
X011171Y002290D01*
X011320Y002440D01*
X011288Y002361D01*
X011288Y002189D01*
X011353Y002031D01*
X011474Y001910D01*
X011632Y001845D01*
X011803Y001845D01*
X011961Y001910D01*
X012082Y002031D01*
X012148Y002189D01*
X012148Y002361D01*
X012082Y002519D01*
X011961Y002640D01*
X011803Y002705D01*
X011632Y002705D01*
X011474Y002640D01*
X011440Y002606D01*
X011440Y002720D01*
X011010Y002720D01*
X011010Y002780D01*
X010950Y002780D01*
X010950Y003210D01*
X010790Y003210D01*
X010950Y003155D02*
X011010Y003155D01*
X011010Y003210D02*
X011171Y003210D01*
X011440Y002941D01*
X011440Y002780D01*
X011010Y002780D01*
X011010Y003210D01*
X011010Y003057D02*
X010950Y003057D01*
X010950Y002958D02*
X011010Y002958D01*
X011010Y002860D02*
X010950Y002860D01*
X010950Y002761D02*
X010390Y002761D01*
X010388Y002663D02*
X010520Y002663D01*
X010520Y002564D02*
X010347Y002564D01*
X010275Y002466D02*
X010614Y002466D01*
X010713Y002367D02*
X010127Y002367D01*
X009833Y002367D02*
X007687Y002367D01*
X007786Y002466D02*
X009685Y002466D01*
X009613Y002564D02*
X007842Y002564D01*
X007881Y002663D02*
X009573Y002663D01*
X009570Y002761D02*
X007881Y002761D01*
X007871Y002860D02*
X009582Y002860D01*
X009623Y002958D02*
X007831Y002958D01*
X006540Y003155D02*
X006030Y003155D01*
X006030Y003057D02*
X006404Y003057D01*
X006331Y002958D02*
X006030Y002958D01*
X006030Y002860D02*
X006291Y002860D01*
X006281Y002761D02*
X006030Y002761D01*
X006030Y002663D02*
X006281Y002663D01*
X006320Y002564D02*
X006030Y002564D01*
X006030Y002466D02*
X006376Y002466D01*
X006474Y002367D02*
X006030Y002367D01*
X006030Y002269D02*
X011288Y002269D01*
X011290Y002367D02*
X011248Y002367D01*
X011010Y002367D02*
X010950Y002367D01*
X010950Y002466D02*
X011010Y002466D01*
X011010Y002564D02*
X010950Y002564D01*
X010950Y002663D02*
X011010Y002663D01*
X011010Y002761D02*
X013685Y002761D01*
X013584Y002860D02*
X011440Y002860D01*
X011423Y002958D02*
X013482Y002958D01*
X013381Y003057D02*
X011324Y003057D01*
X011226Y003155D02*
X013279Y003155D01*
X013694Y003254D02*
X013766Y003254D01*
X013667Y003352D02*
X013593Y003352D01*
X013660Y003451D02*
X013491Y003451D01*
X013390Y003549D02*
X013668Y003549D01*
X013700Y003648D02*
X013288Y003648D01*
X011531Y004239D02*
X007764Y004239D01*
X007723Y004337D02*
X011432Y004337D01*
X011410Y004436D02*
X007655Y004436D01*
X007535Y004534D02*
X011410Y004534D01*
X011502Y004633D02*
X006030Y004633D01*
X006030Y004731D02*
X011615Y004731D01*
X011615Y004830D02*
X006030Y004830D01*
X006030Y004928D02*
X010608Y004928D01*
X010599Y004933D02*
X010633Y004913D01*
X010671Y004903D01*
X010830Y004903D01*
X010830Y005211D01*
X010907Y005211D01*
X010907Y004903D01*
X011065Y004903D01*
X011103Y004913D01*
X011138Y004933D01*
X011166Y004961D01*
X011185Y004995D01*
X011196Y005033D01*
X011196Y005211D01*
X010907Y005211D01*
X010907Y005289D01*
X010830Y005289D01*
X010830Y005597D01*
X010671Y005597D01*
X010633Y005587D01*
X010599Y005567D01*
X010571Y005539D01*
X010551Y005505D01*
X010541Y005467D01*
X010541Y005289D01*
X010830Y005289D01*
X010830Y005211D01*
X010541Y005211D01*
X010541Y005033D01*
X010551Y004995D01*
X010571Y004961D01*
X010599Y004933D01*
X010543Y005027D02*
X006030Y005027D01*
X006030Y005125D02*
X010541Y005125D01*
X010830Y005125D02*
X010907Y005125D01*
X010907Y005027D02*
X010830Y005027D01*
X010830Y004928D02*
X010907Y004928D01*
X011129Y004928D02*
X011615Y004928D01*
X011615Y005027D02*
X011194Y005027D01*
X011196Y005125D02*
X011645Y005125D01*
X012139Y005125D02*
X012979Y005125D01*
X012880Y005224D02*
X010907Y005224D01*
X010907Y005289D02*
X011196Y005289D01*
X011196Y005467D01*
X011185Y005505D01*
X011166Y005539D01*
X011138Y005567D01*
X011103Y005587D01*
X011065Y005597D01*
X010907Y005597D01*
X010907Y005289D01*
X010907Y005322D02*
X010830Y005322D01*
X010830Y005224D02*
X006030Y005224D01*
X006030Y005322D02*
X010541Y005322D01*
X010541Y005421D02*
X006030Y005421D01*
X006030Y005519D02*
X010560Y005519D01*
X010830Y005519D02*
X010907Y005519D01*
X010907Y005421D02*
X010830Y005421D01*
X011177Y005519D02*
X011615Y005519D01*
X011615Y005421D02*
X011196Y005421D01*
X011196Y005322D02*
X012782Y005322D01*
X012683Y005421D02*
X012169Y005421D01*
X012169Y005519D02*
X012585Y005519D01*
X012939Y005618D02*
X013586Y005618D01*
X013488Y005716D02*
X012840Y005716D01*
X012742Y005815D02*
X013389Y005815D01*
X013291Y005913D02*
X012138Y005913D01*
X011646Y005913D02*
X007692Y005913D01*
X007664Y005844D02*
X007733Y006010D01*
X007733Y006190D01*
X007664Y006356D01*
X007536Y006484D01*
X007370Y006552D01*
X007190Y006552D01*
X007024Y006484D01*
X006897Y006356D01*
X006828Y006190D01*
X006828Y006010D01*
X006897Y005844D01*
X007024Y005716D01*
X007190Y005648D01*
X007370Y005648D01*
X007536Y005716D01*
X011615Y005716D01*
X011615Y005618D02*
X006030Y005618D01*
X006030Y005716D02*
X007025Y005716D01*
X006926Y005815D02*
X006030Y005815D01*
X006030Y005913D02*
X006868Y005913D01*
X006828Y006012D02*
X006030Y006012D01*
X006030Y006110D02*
X006828Y006110D01*
X006835Y006209D02*
X006030Y006209D01*
X006030Y006307D02*
X006876Y006307D01*
X006946Y006406D02*
X006030Y006406D01*
X006030Y006504D02*
X007073Y006504D01*
X007487Y006504D02*
X012700Y006504D01*
X012798Y006406D02*
X007615Y006406D01*
X007684Y006307D02*
X012897Y006307D01*
X012995Y006209D02*
X007725Y006209D01*
X007733Y006110D02*
X013094Y006110D01*
X013192Y006012D02*
X007733Y006012D01*
X007664Y005844D02*
X007536Y005716D01*
X007635Y005815D02*
X011615Y005815D01*
X013037Y005519D02*
X014087Y005519D01*
X014189Y005421D02*
X013136Y005421D01*
X014077Y005027D02*
X012169Y005027D01*
X014234Y005322D02*
X014290Y005322D01*
X014333Y005224D02*
X014392Y005224D01*
X014431Y005125D02*
X014494Y005125D01*
X014530Y005027D02*
X014595Y005027D01*
X014628Y004928D02*
X014697Y004928D01*
X014727Y004830D02*
X014799Y004830D01*
X014825Y004731D02*
X014900Y004731D01*
X014924Y004633D02*
X015002Y004633D01*
X015022Y004534D02*
X015104Y004534D01*
X015121Y004436D02*
X015205Y004436D01*
X015219Y004337D02*
X015307Y004337D01*
X015318Y004239D02*
X015409Y004239D01*
X015665Y004436D02*
X015970Y004436D01*
X015970Y004534D02*
X015564Y004534D01*
X015462Y004633D02*
X015970Y004633D01*
X015873Y004731D02*
X015360Y004731D01*
X015259Y004830D02*
X015774Y004830D01*
X015676Y004928D02*
X015157Y004928D01*
X015055Y005027D02*
X015577Y005027D01*
X015479Y005125D02*
X014954Y005125D01*
X014852Y005224D02*
X015380Y005224D01*
X015282Y005322D02*
X014750Y005322D01*
X014649Y005421D02*
X015183Y005421D01*
X015085Y005519D02*
X014547Y005519D01*
X014445Y005618D02*
X014986Y005618D01*
X014888Y005716D02*
X014344Y005716D01*
X014242Y005815D02*
X014789Y005815D01*
X014691Y005913D02*
X013743Y005913D01*
X013645Y006012D02*
X014592Y006012D01*
X014494Y006110D02*
X013546Y006110D01*
X013448Y006209D02*
X013685Y006209D01*
X013593Y006307D02*
X013349Y006307D01*
X013251Y006406D02*
X013553Y006406D01*
X013541Y006504D02*
X013152Y006504D01*
X013054Y006603D02*
X013548Y006603D01*
X013589Y006701D02*
X012955Y006701D01*
X013023Y006800D02*
X012857Y006800D01*
X012924Y006898D02*
X012758Y006898D01*
X012682Y006997D02*
X012878Y006997D01*
X012850Y007095D02*
X012710Y007095D01*
X012710Y007194D02*
X012850Y007194D01*
X012874Y007292D02*
X012687Y007292D01*
X012646Y007391D02*
X012914Y007391D01*
X013011Y007489D02*
X012549Y007489D01*
X012011Y007489D02*
X011620Y007489D01*
X011696Y007391D02*
X011914Y007391D01*
X011874Y007292D02*
X011739Y007292D01*
X011850Y007194D02*
X011329Y007194D01*
X011329Y007102D02*
X011758Y007102D01*
X011748Y007038D01*
X011725Y006966D01*
X011691Y006898D01*
X011646Y006837D01*
X011593Y006784D01*
X011532Y006739D01*
X011464Y006705D01*
X011393Y006682D01*
X011329Y006672D01*
X011329Y007102D01*
X011329Y007095D02*
X011232Y007095D01*
X011232Y007102D02*
X011232Y006672D01*
X011168Y006682D01*
X011096Y006705D01*
X011029Y006739D01*
X010967Y006784D01*
X010914Y006837D01*
X010870Y006898D01*
X010952Y006800D02*
X010538Y006800D01*
X010023Y006800D02*
X009538Y006800D01*
X009636Y006898D02*
X009924Y006898D01*
X009878Y006997D02*
X009682Y006997D01*
X009710Y007095D02*
X009850Y007095D01*
X009850Y007194D02*
X009710Y007194D01*
X009687Y007292D02*
X009874Y007292D01*
X009914Y007391D02*
X009646Y007391D01*
X009549Y007489D02*
X010011Y007489D01*
X010549Y007489D02*
X010940Y007489D01*
X010864Y007391D02*
X010646Y007391D01*
X010687Y007292D02*
X010822Y007292D01*
X011232Y006997D02*
X011329Y006997D01*
X011329Y006898D02*
X011232Y006898D01*
X011232Y006800D02*
X011329Y006800D01*
X011329Y006701D02*
X011232Y006701D01*
X011109Y006701D02*
X006030Y006701D01*
X006030Y006603D02*
X012601Y006603D01*
X012503Y006701D02*
X011452Y006701D01*
X011608Y006800D02*
X012023Y006800D01*
X011924Y006898D02*
X011690Y006898D01*
X011735Y006997D02*
X011878Y006997D01*
X011850Y007095D02*
X011757Y007095D01*
X013538Y006800D02*
X013674Y006800D01*
X013636Y006898D02*
X013924Y006898D01*
X013878Y006997D02*
X013682Y006997D01*
X013710Y007095D02*
X013850Y007095D01*
X013850Y007194D02*
X013710Y007194D01*
X013687Y007292D02*
X013874Y007292D01*
X013914Y007391D02*
X013646Y007391D01*
X013549Y007489D02*
X014011Y007489D01*
X015425Y007982D02*
X016120Y007982D01*
X016120Y007883D02*
X015523Y007883D01*
X015540Y007785D02*
X016120Y007785D01*
X016120Y007686D02*
X015540Y007686D01*
X015540Y007588D02*
X016120Y007588D01*
X016011Y007489D02*
X015549Y007489D01*
X015646Y007391D02*
X015914Y007391D01*
X015874Y007292D02*
X015687Y007292D01*
X015710Y007194D02*
X015850Y007194D01*
X015850Y007095D02*
X015710Y007095D01*
X015682Y006997D02*
X015878Y006997D01*
X015924Y006898D02*
X015636Y006898D01*
X015538Y006800D02*
X016023Y006800D01*
X016538Y006800D02*
X017023Y006800D01*
X016924Y006898D02*
X016636Y006898D01*
X016682Y006997D02*
X016878Y006997D01*
X016850Y007095D02*
X016710Y007095D01*
X016710Y007194D02*
X016850Y007194D01*
X016874Y007292D02*
X016687Y007292D01*
X016646Y007391D02*
X016914Y007391D01*
X017011Y007489D02*
X016549Y007489D01*
X016440Y007588D02*
X017016Y007588D01*
X016918Y007686D02*
X016440Y007686D01*
X016440Y007785D02*
X016819Y007785D01*
X016671Y007883D02*
X016440Y007883D01*
X016440Y007982D02*
X016572Y007982D01*
X016474Y008080D02*
X016440Y008080D01*
X018989Y009164D02*
X013382Y009164D01*
X013284Y009262D02*
X019120Y009262D01*
X021208Y009164D02*
X021615Y009164D01*
X021631Y009558D02*
X021236Y009558D01*
X022944Y008573D02*
X022970Y008573D01*
X025755Y008376D02*
X026478Y008376D01*
X026564Y008290D02*
X026564Y008290D01*
X026577Y008277D02*
X025925Y008277D01*
X026023Y008179D02*
X026632Y008179D01*
X026931Y008376D02*
X029451Y008376D01*
X029451Y008474D02*
X028982Y008474D01*
X029137Y008573D02*
X029451Y008573D01*
X029451Y008671D02*
X029236Y008671D01*
X029290Y008770D02*
X029451Y008770D01*
X029451Y008868D02*
X029331Y008868D01*
X029357Y008967D02*
X029451Y008967D01*
X029451Y009065D02*
X029357Y009065D01*
X029357Y009164D02*
X029451Y009164D01*
X029451Y009262D02*
X029325Y009262D01*
X029285Y009361D02*
X029451Y009361D01*
X029451Y009459D02*
X029222Y009459D01*
X029124Y009558D02*
X029451Y009558D01*
X029451Y009656D02*
X028950Y009656D01*
X029154Y009893D02*
X029162Y009887D01*
X029215Y009893D01*
X029269Y009893D01*
X029341Y009872D01*
X029404Y009821D01*
X029443Y009751D01*
X029451Y009715D01*
X029451Y000646D01*
X029445Y000639D01*
X029451Y000585D01*
X029451Y000532D01*
X029430Y000459D01*
X029379Y000396D01*
X029309Y000357D01*
X029273Y000350D01*
X006326Y000350D01*
X006319Y000356D01*
X006266Y000350D01*
X006212Y000350D01*
X006139Y000371D01*
X006076Y000421D01*
X006038Y000492D01*
X006030Y000527D01*
X006030Y009596D01*
X006036Y009604D01*
X006030Y009657D01*
X006030Y009711D01*
X006030Y009719D01*
X006073Y009817D01*
X006159Y009881D01*
X006208Y009893D01*
X029154Y009893D01*
X029364Y009853D02*
X006122Y009853D01*
X006046Y009755D02*
X007608Y009755D01*
X007510Y009656D02*
X006030Y009656D01*
X006030Y009558D02*
X007411Y009558D01*
X007313Y009459D02*
X006030Y009459D01*
X006030Y009361D02*
X007270Y009361D01*
X007270Y009262D02*
X006984Y009262D01*
X006946Y009300D02*
X006614Y009300D01*
X006380Y009066D01*
X006380Y008734D01*
X006614Y008500D01*
X006946Y008500D01*
X007180Y008734D01*
X007180Y009066D01*
X006946Y009300D01*
X007082Y009164D02*
X007270Y009164D01*
X007270Y009065D02*
X007180Y009065D01*
X007180Y008967D02*
X007270Y008967D01*
X007270Y008868D02*
X007180Y008868D01*
X007180Y008770D02*
X007270Y008770D01*
X007270Y008671D02*
X007117Y008671D01*
X007018Y008573D02*
X007270Y008573D01*
X007270Y008474D02*
X006030Y008474D01*
X006030Y008376D02*
X007270Y008376D01*
X007277Y008277D02*
X006030Y008277D01*
X006030Y008179D02*
X007375Y008179D01*
X007474Y008080D02*
X006030Y008080D01*
X006030Y007982D02*
X007572Y007982D01*
X007671Y007883D02*
X006030Y007883D01*
X006030Y007785D02*
X006596Y007785D01*
X006427Y007686D02*
X006030Y007686D01*
X006030Y007588D02*
X006341Y007588D01*
X006300Y007489D02*
X006030Y007489D01*
X006030Y007391D02*
X006281Y007391D01*
X006281Y007292D02*
X006030Y007292D01*
X006030Y007194D02*
X006310Y007194D01*
X006353Y007095D02*
X006030Y007095D01*
X006030Y006997D02*
X006451Y006997D01*
X006030Y006898D02*
X007924Y006898D01*
X007878Y006997D02*
X007711Y006997D01*
X007809Y007095D02*
X007850Y007095D01*
X007881Y007391D02*
X007914Y007391D01*
X007862Y007489D02*
X008011Y007489D01*
X007966Y007588D02*
X007821Y007588D01*
X007868Y007686D02*
X007734Y007686D01*
X007769Y007785D02*
X007565Y007785D01*
X008025Y007982D02*
X009222Y007982D01*
X009124Y008080D02*
X007926Y008080D01*
X007828Y008179D02*
X009025Y008179D01*
X009014Y008190D02*
X009353Y007851D01*
X008147Y007860D01*
X007590Y008416D01*
X007590Y009284D01*
X007746Y009440D01*
X011407Y009440D01*
X011706Y009091D01*
X011680Y009066D01*
X011680Y008734D01*
X011854Y008560D01*
X011306Y008560D01*
X011480Y008734D01*
X011480Y009066D01*
X011246Y009300D01*
X010914Y009300D01*
X010680Y009066D01*
X010680Y008734D01*
X010914Y008500D01*
X010920Y008500D01*
X010920Y008484D01*
X011044Y008360D01*
X010346Y008360D01*
X010240Y008466D01*
X010240Y008500D01*
X010246Y008500D01*
X010480Y008734D01*
X010480Y009066D01*
X010246Y009300D01*
X009914Y009300D01*
X009680Y009066D01*
X009680Y008734D01*
X009914Y008500D01*
X009920Y008500D01*
X009920Y008334D01*
X010120Y008134D01*
X010144Y008110D01*
X009546Y008110D01*
X009240Y008416D01*
X009240Y008500D01*
X009246Y008500D01*
X009480Y008734D01*
X009480Y009066D01*
X009246Y009300D01*
X008914Y009300D01*
X008680Y009066D01*
X008680Y008734D01*
X008914Y008500D01*
X008920Y008500D01*
X008920Y008284D01*
X009014Y008190D01*
X008927Y008277D02*
X007729Y008277D01*
X007631Y008376D02*
X008920Y008376D01*
X008920Y008474D02*
X008462Y008474D01*
X008472Y008480D02*
X008500Y008508D01*
X008520Y008542D01*
X008530Y008580D01*
X008530Y008850D01*
X008130Y008850D01*
X008130Y008450D01*
X008400Y008450D01*
X008438Y008460D01*
X008472Y008480D01*
X008528Y008573D02*
X008842Y008573D01*
X008743Y008671D02*
X008530Y008671D01*
X008530Y008770D02*
X008680Y008770D01*
X008680Y008868D02*
X008130Y008868D01*
X008130Y008850D02*
X008130Y008950D01*
X008030Y008950D01*
X008030Y008850D01*
X007630Y008850D01*
X007630Y008580D01*
X007640Y008542D01*
X007660Y008508D01*
X007688Y008480D01*
X007722Y008460D01*
X007760Y008450D01*
X008030Y008450D01*
X008030Y008850D01*
X008130Y008850D01*
X008130Y008770D02*
X008030Y008770D01*
X008030Y008868D02*
X007590Y008868D01*
X007630Y008950D02*
X007630Y009220D01*
X007640Y009258D01*
X007660Y009292D01*
X007688Y009320D01*
X007722Y009340D01*
X007760Y009350D01*
X008030Y009350D01*
X008030Y008950D01*
X007630Y008950D01*
X007630Y008967D02*
X007590Y008967D01*
X007590Y009065D02*
X007630Y009065D01*
X007630Y009164D02*
X007590Y009164D01*
X007590Y009262D02*
X007643Y009262D01*
X007667Y009361D02*
X011475Y009361D01*
X011559Y009262D02*
X011284Y009262D01*
X011382Y009164D02*
X011644Y009164D01*
X011680Y009065D02*
X011480Y009065D01*
X011480Y008967D02*
X011680Y008967D01*
X011680Y008868D02*
X011480Y008868D01*
X011480Y008770D02*
X011680Y008770D01*
X011743Y008671D02*
X011417Y008671D01*
X011318Y008573D02*
X011842Y008573D01*
X012318Y008573D02*
X012842Y008573D01*
X012743Y008671D02*
X012417Y008671D01*
X012480Y008770D02*
X012680Y008770D01*
X012680Y008868D02*
X012480Y008868D01*
X012480Y008967D02*
X012680Y008967D01*
X012680Y009065D02*
X012480Y009065D01*
X012382Y009164D02*
X012778Y009164D01*
X012876Y009262D02*
X012284Y009262D01*
X011557Y009755D02*
X029441Y009755D01*
X028104Y009262D02*
X026850Y009262D01*
X026850Y009164D02*
X028073Y009164D01*
X028073Y009065D02*
X026806Y009065D01*
X026790Y008967D02*
X028073Y008967D01*
X028099Y008868D02*
X026790Y008868D01*
X026790Y008770D02*
X028139Y008770D01*
X028194Y008671D02*
X026790Y008671D01*
X026790Y008573D02*
X028292Y008573D01*
X028447Y008474D02*
X026832Y008474D01*
X027829Y008277D02*
X029451Y008277D01*
X029451Y008179D02*
X027928Y008179D01*
X029237Y008080D02*
X029451Y008080D01*
X029451Y007982D02*
X029260Y007982D01*
X029260Y007883D02*
X029451Y007883D01*
X029451Y007785D02*
X029260Y007785D01*
X029260Y007686D02*
X029451Y007686D01*
X029451Y007588D02*
X029010Y007588D01*
X029010Y007489D02*
X029451Y007489D01*
X029451Y007391D02*
X029010Y007391D01*
X029297Y007292D02*
X029451Y007292D01*
X029451Y007194D02*
X029310Y007194D01*
X029451Y007095D02*
X029010Y007095D01*
X029310Y006997D02*
X029451Y006997D01*
X029451Y006898D02*
X029310Y006898D01*
X029263Y006800D02*
X029451Y006800D01*
X029451Y006701D02*
X029010Y006701D01*
X029010Y006603D02*
X029451Y006603D01*
X029451Y006504D02*
X029239Y006504D01*
X029260Y006406D02*
X029451Y006406D01*
X029451Y006307D02*
X029260Y006307D01*
X029260Y006209D02*
X029451Y006209D01*
X029451Y006110D02*
X029260Y006110D01*
X029451Y006012D02*
X029010Y006012D01*
X029010Y005913D02*
X029451Y005913D01*
X029451Y005815D02*
X029010Y005815D01*
X029239Y005716D02*
X029451Y005716D01*
X029451Y005618D02*
X029260Y005618D01*
X029260Y005519D02*
X029451Y005519D01*
X029451Y005421D02*
X029260Y005421D01*
X029260Y005322D02*
X029451Y005322D01*
X029451Y005224D02*
X029010Y005224D01*
X029010Y005125D02*
X029451Y005125D01*
X029451Y005027D02*
X029010Y005027D01*
X029240Y004928D02*
X029451Y004928D01*
X029451Y004830D02*
X029260Y004830D01*
X029260Y004731D02*
X029451Y004731D01*
X029451Y004633D02*
X029260Y004633D01*
X029260Y004534D02*
X029451Y004534D01*
X029451Y004436D02*
X029010Y004436D01*
X029010Y004337D02*
X029451Y004337D01*
X029451Y004239D02*
X029010Y004239D01*
X029240Y004140D02*
X029451Y004140D01*
X029451Y004042D02*
X029260Y004042D01*
X029260Y003943D02*
X029451Y003943D01*
X029451Y003845D02*
X029260Y003845D01*
X029260Y003746D02*
X029451Y003746D01*
X029451Y003648D02*
X029010Y003648D01*
X029010Y003549D02*
X029451Y003549D01*
X029451Y003451D02*
X029010Y003451D01*
X029241Y003352D02*
X029451Y003352D01*
X029451Y003254D02*
X029260Y003254D01*
X029260Y003155D02*
X029451Y003155D01*
X029451Y003057D02*
X029260Y003057D01*
X029260Y002958D02*
X029451Y002958D01*
X029451Y002860D02*
X029010Y002860D01*
X029010Y002761D02*
X029451Y002761D01*
X029451Y002663D02*
X029010Y002663D01*
X029242Y002564D02*
X029451Y002564D01*
X029451Y002466D02*
X029260Y002466D01*
X029260Y002367D02*
X029451Y002367D01*
X029451Y002269D02*
X029260Y002269D01*
X029260Y002170D02*
X029451Y002170D01*
X029451Y002072D02*
X028986Y002072D01*
X029451Y001973D02*
X027140Y001973D01*
X027140Y001875D02*
X029451Y001875D01*
X029451Y001776D02*
X028964Y001776D01*
X029079Y001729D02*
X028843Y001826D01*
X028587Y001826D01*
X028351Y001729D01*
X028170Y001548D01*
X028073Y001312D01*
X028073Y001057D01*
X028170Y000821D01*
X028351Y000640D01*
X028587Y000542D01*
X028843Y000542D01*
X029079Y000640D01*
X029259Y000821D01*
X029357Y001057D01*
X029357Y001312D01*
X029259Y001548D01*
X029079Y001729D01*
X029130Y001678D02*
X029451Y001678D01*
X029451Y001579D02*
X029228Y001579D01*
X029287Y001481D02*
X029451Y001481D01*
X029451Y001382D02*
X029328Y001382D01*
X029357Y001284D02*
X029451Y001284D01*
X029451Y001185D02*
X029357Y001185D01*
X029357Y001087D02*
X029451Y001087D01*
X029451Y000988D02*
X029329Y000988D01*
X029288Y000890D02*
X029451Y000890D01*
X029451Y000791D02*
X029230Y000791D01*
X029131Y000693D02*
X029451Y000693D01*
X029450Y000594D02*
X028968Y000594D01*
X029380Y000397D02*
X006107Y000397D01*
X006037Y000496D02*
X014880Y000496D01*
X014782Y000594D02*
X007117Y000594D01*
X007228Y000640D02*
X006992Y000542D01*
X006737Y000542D01*
X006501Y000640D01*
X006320Y000821D01*
X006222Y001057D01*
X006222Y001312D01*
X006320Y001548D01*
X006501Y001729D01*
X006737Y001826D01*
X006992Y001826D01*
X007228Y001729D01*
X007409Y001548D01*
X007507Y001312D01*
X007507Y001057D01*
X007409Y000821D01*
X007228Y000640D01*
X007281Y000693D02*
X009135Y000693D01*
X009168Y000682D02*
X009096Y000705D01*
X009029Y000739D01*
X008967Y000784D01*
X008914Y000837D01*
X008870Y000898D01*
X008835Y000966D01*
X008812Y001038D01*
X008802Y001102D01*
X009232Y001102D01*
X009232Y001198D01*
X008802Y001198D01*
X008812Y001262D01*
X008835Y001334D01*
X008870Y001402D01*
X008914Y001463D01*
X008967Y001516D01*
X009029Y001561D01*
X009096Y001595D01*
X009168Y001618D01*
X009232Y001628D01*
X009232Y001198D01*
X009329Y001198D01*
X009758Y001198D01*
X009748Y001262D01*
X009725Y001334D01*
X009691Y001402D01*
X009646Y001463D01*
X009593Y001516D01*
X009532Y001561D01*
X009464Y001595D01*
X009393Y001618D01*
X009329Y001628D01*
X009329Y001198D01*
X009329Y001102D01*
X009758Y001102D01*
X009748Y001038D01*
X009725Y000966D01*
X009691Y000898D01*
X009646Y000837D01*
X009593Y000784D01*
X009532Y000739D01*
X009464Y000705D01*
X009393Y000682D01*
X009329Y000672D01*
X009329Y001102D01*
X009232Y001102D01*
X009232Y000672D01*
X009168Y000682D01*
X009232Y000693D02*
X009329Y000693D01*
X009425Y000693D02*
X014683Y000693D01*
X014600Y000791D02*
X014529Y000791D01*
X014031Y000791D02*
X013529Y000791D01*
X013524Y000785D02*
X013645Y000906D01*
X013710Y001064D01*
X013710Y001236D01*
X013645Y001394D01*
X013524Y001515D01*
X013366Y001580D01*
X013195Y001580D01*
X013037Y001515D01*
X012916Y001394D01*
X012850Y001236D01*
X012850Y001064D01*
X012916Y000906D01*
X013037Y000785D01*
X013195Y000720D01*
X013366Y000720D01*
X013524Y000785D01*
X013628Y000890D02*
X013933Y000890D01*
X013882Y000988D02*
X013678Y000988D01*
X013710Y001087D02*
X013850Y001087D01*
X013850Y001185D02*
X013710Y001185D01*
X013690Y001284D02*
X013870Y001284D01*
X013911Y001382D02*
X013649Y001382D01*
X013689Y001481D02*
X013558Y001481D01*
X013595Y001579D02*
X013368Y001579D01*
X013192Y001579D02*
X012368Y001579D01*
X012366Y001580D02*
X012195Y001580D01*
X012037Y001515D01*
X011916Y001394D01*
X011850Y001236D01*
X011850Y001064D01*
X011916Y000906D01*
X012037Y000785D01*
X012195Y000720D01*
X012366Y000720D01*
X012524Y000785D01*
X012645Y000906D01*
X012710Y001064D01*
X012710Y001236D01*
X012645Y001394D01*
X012524Y001515D01*
X012366Y001580D01*
X012192Y001579D02*
X011368Y001579D01*
X011366Y001580D02*
X011195Y001580D01*
X011037Y001515D01*
X010916Y001394D01*
X010850Y001236D01*
X010850Y001064D01*
X010916Y000906D01*
X011037Y000785D01*
X011195Y000720D01*
X011366Y000720D01*
X011524Y000785D01*
X011645Y000906D01*
X011710Y001064D01*
X011710Y001236D01*
X011645Y001394D01*
X011524Y001515D01*
X011366Y001580D01*
X011192Y001579D02*
X010368Y001579D01*
X010366Y001580D02*
X010195Y001580D01*
X010037Y001515D01*
X009916Y001394D01*
X009850Y001236D01*
X009850Y001064D01*
X009916Y000906D01*
X010037Y000785D01*
X010195Y000720D01*
X010366Y000720D01*
X010524Y000785D01*
X010645Y000906D01*
X010710Y001064D01*
X010710Y001236D01*
X010645Y001394D01*
X010524Y001515D01*
X010366Y001580D01*
X010192Y001579D02*
X009495Y001579D01*
X009628Y001481D02*
X010003Y001481D01*
X009911Y001382D02*
X009701Y001382D01*
X009741Y001284D02*
X009870Y001284D01*
X009850Y001185D02*
X009329Y001185D01*
X009232Y001185D02*
X008710Y001185D01*
X008710Y001236D02*
X008645Y001394D01*
X008524Y001515D01*
X008366Y001580D01*
X008195Y001580D01*
X008037Y001515D01*
X007916Y001394D01*
X007850Y001236D01*
X007850Y001064D01*
X007916Y000906D01*
X008037Y000785D01*
X008195Y000720D01*
X008366Y000720D01*
X008524Y000785D01*
X008645Y000906D01*
X008710Y001064D01*
X008710Y001236D01*
X008690Y001284D02*
X008819Y001284D01*
X008860Y001382D02*
X008649Y001382D01*
X008558Y001481D02*
X008932Y001481D01*
X009065Y001579D02*
X008368Y001579D01*
X008192Y001579D02*
X007378Y001579D01*
X007437Y001481D02*
X008003Y001481D01*
X007911Y001382D02*
X007478Y001382D01*
X007507Y001284D02*
X007870Y001284D01*
X007850Y001185D02*
X007507Y001185D01*
X007507Y001087D02*
X007850Y001087D01*
X007882Y000988D02*
X007478Y000988D01*
X007437Y000890D02*
X007933Y000890D01*
X008031Y000791D02*
X007379Y000791D01*
X006611Y000594D02*
X006030Y000594D01*
X006030Y000693D02*
X006448Y000693D01*
X006350Y000791D02*
X006030Y000791D01*
X006030Y000890D02*
X006291Y000890D01*
X006251Y000988D02*
X006030Y000988D01*
X006030Y001087D02*
X006222Y001087D01*
X006222Y001185D02*
X006030Y001185D01*
X006030Y001284D02*
X006222Y001284D01*
X006251Y001382D02*
X006030Y001382D01*
X006030Y001481D02*
X006292Y001481D01*
X006351Y001579D02*
X006030Y001579D01*
X006030Y001678D02*
X006450Y001678D01*
X006615Y001776D02*
X006030Y001776D01*
X006030Y001875D02*
X011561Y001875D01*
X011412Y001973D02*
X006030Y001973D01*
X006030Y002072D02*
X011337Y002072D01*
X011296Y002170D02*
X006030Y002170D01*
X007114Y001776D02*
X013541Y001776D01*
X013547Y001875D02*
X012874Y001875D01*
X012803Y001845D02*
X012961Y001910D01*
X013082Y002031D01*
X013148Y002189D01*
X013148Y002361D01*
X013082Y002519D01*
X012961Y002640D01*
X012803Y002705D01*
X012632Y002705D01*
X012474Y002640D01*
X012353Y002519D01*
X012288Y002361D01*
X012288Y002189D01*
X012353Y002031D01*
X012474Y001910D01*
X012632Y001845D01*
X012803Y001845D01*
X012561Y001875D02*
X011874Y001875D01*
X012024Y001973D02*
X012412Y001973D01*
X012337Y002072D02*
X012099Y002072D01*
X012140Y002170D02*
X012296Y002170D01*
X012288Y002269D02*
X012148Y002269D01*
X012145Y002367D02*
X012290Y002367D01*
X012331Y002466D02*
X012104Y002466D01*
X012037Y002564D02*
X012399Y002564D01*
X012530Y002663D02*
X011906Y002663D01*
X011530Y002663D02*
X011440Y002663D01*
X010636Y003057D02*
X010253Y003057D01*
X010338Y002958D02*
X010538Y002958D01*
X010520Y002860D02*
X010379Y002860D01*
X012906Y002663D02*
X013787Y002663D01*
X013888Y002564D02*
X013037Y002564D01*
X013104Y002466D02*
X013990Y002466D01*
X014092Y002367D02*
X013145Y002367D01*
X013148Y002269D02*
X014193Y002269D01*
X014295Y002170D02*
X013140Y002170D01*
X013099Y002072D02*
X013671Y002072D01*
X013587Y001973D02*
X013024Y001973D01*
X013554Y001678D02*
X007279Y001678D01*
X008710Y001087D02*
X008804Y001087D01*
X008828Y000988D02*
X008678Y000988D01*
X008628Y000890D02*
X008876Y000890D01*
X008960Y000791D02*
X008529Y000791D01*
X009232Y000791D02*
X009329Y000791D01*
X009329Y000890D02*
X009232Y000890D01*
X009232Y000988D02*
X009329Y000988D01*
X009329Y001087D02*
X009232Y001087D01*
X009232Y001284D02*
X009329Y001284D01*
X009329Y001382D02*
X009232Y001382D01*
X009232Y001481D02*
X009329Y001481D01*
X009329Y001579D02*
X009232Y001579D01*
X009756Y001087D02*
X009850Y001087D01*
X009882Y000988D02*
X009732Y000988D01*
X009684Y000890D02*
X009933Y000890D01*
X010031Y000791D02*
X009600Y000791D01*
X010529Y000791D02*
X011031Y000791D01*
X010933Y000890D02*
X010628Y000890D01*
X010678Y000988D02*
X010882Y000988D01*
X010850Y001087D02*
X010710Y001087D01*
X010710Y001185D02*
X010850Y001185D01*
X010870Y001284D02*
X010690Y001284D01*
X010649Y001382D02*
X010911Y001382D01*
X011003Y001481D02*
X010558Y001481D01*
X011558Y001481D02*
X012003Y001481D01*
X011911Y001382D02*
X011649Y001382D01*
X011690Y001284D02*
X011870Y001284D01*
X011850Y001185D02*
X011710Y001185D01*
X011710Y001087D02*
X011850Y001087D01*
X011882Y000988D02*
X011678Y000988D01*
X011628Y000890D02*
X011933Y000890D01*
X012031Y000791D02*
X011529Y000791D01*
X012529Y000791D02*
X013031Y000791D01*
X012933Y000890D02*
X012628Y000890D01*
X012678Y000988D02*
X012882Y000988D01*
X012850Y001087D02*
X012710Y001087D01*
X012710Y001185D02*
X012850Y001185D01*
X012870Y001284D02*
X012690Y001284D01*
X012649Y001382D02*
X012911Y001382D01*
X013003Y001481D02*
X012558Y001481D01*
X014165Y002072D02*
X014396Y002072D01*
X014498Y001973D02*
X014248Y001973D01*
X014289Y001875D02*
X014599Y001875D01*
X014600Y001776D02*
X014295Y001776D01*
X014281Y001678D02*
X014600Y001678D01*
X014600Y001579D02*
X014368Y001579D01*
X014558Y001481D02*
X014600Y001481D01*
X014960Y001481D02*
X015003Y001481D01*
X014960Y001579D02*
X015192Y001579D01*
X015368Y001579D02*
X016192Y001579D01*
X016368Y001579D02*
X016483Y001579D01*
X016581Y001678D02*
X014960Y001678D01*
X014960Y001776D02*
X016680Y001776D01*
X016686Y001875D02*
X015999Y001875D01*
X015928Y001845D02*
X016086Y001910D01*
X016207Y002031D01*
X016273Y002189D01*
X016273Y002361D01*
X016207Y002519D01*
X016086Y002640D01*
X015928Y002705D01*
X015757Y002705D01*
X015599Y002640D01*
X015478Y002519D01*
X015413Y002361D01*
X015413Y002189D01*
X015478Y002031D01*
X015599Y001910D01*
X015757Y001845D01*
X015928Y001845D01*
X015686Y001875D02*
X014960Y001875D01*
X014960Y001973D02*
X015537Y001973D01*
X015462Y002072D02*
X014913Y002072D01*
X014812Y002170D02*
X015421Y002170D01*
X015413Y002269D02*
X014710Y002269D01*
X014609Y002367D02*
X015415Y002367D01*
X015456Y002466D02*
X014507Y002466D01*
X014406Y002564D02*
X015524Y002564D01*
X015655Y002663D02*
X014304Y002663D01*
X014202Y002761D02*
X017470Y002761D01*
X017470Y002663D02*
X017031Y002663D01*
X017162Y002564D02*
X017470Y002564D01*
X017470Y002466D02*
X017229Y002466D01*
X017270Y002367D02*
X017470Y002367D01*
X017470Y002269D02*
X017273Y002269D01*
X017265Y002170D02*
X017470Y002170D01*
X017375Y002072D02*
X017224Y002072D01*
X017277Y001973D02*
X017149Y001973D01*
X017178Y001875D02*
X016999Y001875D01*
X016537Y001973D02*
X016149Y001973D01*
X016224Y002072D02*
X016462Y002072D01*
X016421Y002170D02*
X016265Y002170D01*
X016273Y002269D02*
X016413Y002269D01*
X016415Y002367D02*
X016270Y002367D01*
X016229Y002466D02*
X016456Y002466D01*
X016524Y002564D02*
X016162Y002564D01*
X016031Y002663D02*
X016655Y002663D01*
X018290Y002663D02*
X018741Y002663D01*
X018643Y002761D02*
X018290Y002761D01*
X018290Y002860D02*
X018595Y002860D01*
X018595Y002958D02*
X018290Y002958D01*
X018290Y003057D02*
X018595Y003057D01*
X018595Y003155D02*
X018290Y003155D01*
X018290Y003254D02*
X018595Y003254D01*
X018595Y003352D02*
X018290Y003352D01*
X018290Y003451D02*
X018595Y003451D01*
X018595Y003549D02*
X018290Y003549D01*
X018290Y003648D02*
X018595Y003648D01*
X018595Y003746D02*
X018290Y003746D01*
X018290Y003845D02*
X018595Y003845D01*
X018595Y003943D02*
X018290Y003943D01*
X018290Y004042D02*
X018553Y004042D01*
X018535Y004140D02*
X018290Y004140D01*
X018290Y004239D02*
X018535Y004239D01*
X018631Y004337D02*
X018290Y004337D01*
X018290Y004436D02*
X019184Y004436D01*
X019216Y004467D02*
X019110Y004361D01*
X019052Y004222D01*
X019052Y004072D01*
X019110Y003934D01*
X019216Y003827D01*
X019355Y003770D01*
X019505Y003770D01*
X019643Y003827D01*
X019749Y003934D01*
X019807Y004072D01*
X019807Y004222D01*
X019749Y004361D01*
X019643Y004467D01*
X019505Y004524D01*
X019355Y004524D01*
X019216Y004467D01*
X019100Y004337D02*
X018879Y004337D01*
X018975Y004239D02*
X019059Y004239D01*
X019052Y004140D02*
X018975Y004140D01*
X018958Y004042D02*
X019065Y004042D01*
X019106Y003943D02*
X018915Y003943D01*
X018915Y003845D02*
X019199Y003845D01*
X018915Y003746D02*
X019970Y003746D01*
X019970Y003648D02*
X018915Y003648D01*
X018915Y003549D02*
X019120Y003549D01*
X018973Y003451D02*
X018915Y003451D01*
X019441Y003549D02*
X019970Y003549D01*
X019970Y003451D02*
X019588Y003451D01*
X019662Y003352D02*
X019970Y003352D01*
X019970Y003254D02*
X019703Y003254D01*
X019710Y003155D02*
X019970Y003155D01*
X019970Y003057D02*
X019707Y003057D01*
X019666Y002958D02*
X019970Y002958D01*
X019970Y002860D02*
X019598Y002860D01*
X019645Y002761D02*
X019970Y002761D01*
X019970Y002663D02*
X019744Y002663D01*
X019842Y002564D02*
X019970Y002564D01*
X019941Y002466D02*
X020038Y002466D01*
X020039Y002367D02*
X020137Y002367D01*
X020040Y002269D02*
X020300Y002269D01*
X020275Y002170D02*
X020040Y002170D01*
X020040Y002072D02*
X020275Y002072D01*
X020275Y001973D02*
X020040Y001973D01*
X020040Y001875D02*
X020275Y001875D01*
X020275Y001776D02*
X020040Y001776D01*
X020040Y001678D02*
X020275Y001678D01*
X020275Y001579D02*
X020040Y001579D01*
X020076Y001481D02*
X020326Y001481D01*
X020259Y001382D02*
X020958Y001382D01*
X020912Y001284D02*
X020350Y001284D01*
X020350Y001185D02*
X020912Y001185D01*
X020762Y001087D02*
X020328Y001087D01*
X020229Y000988D02*
X020664Y000988D01*
X020565Y000890D02*
X019628Y000890D01*
X019678Y000988D02*
X020031Y000988D01*
X019933Y001087D02*
X019710Y001087D01*
X019710Y001185D02*
X019910Y001185D01*
X019820Y001284D02*
X019690Y001284D01*
X019722Y001382D02*
X019649Y001382D01*
X019720Y001481D02*
X019558Y001481D01*
X019720Y001579D02*
X019368Y001579D01*
X019192Y001579D02*
X018965Y001579D01*
X019003Y001481D02*
X018871Y001481D01*
X018911Y001382D02*
X018649Y001382D01*
X018690Y001284D02*
X018870Y001284D01*
X018850Y001185D02*
X018710Y001185D01*
X018710Y001087D02*
X018850Y001087D01*
X018882Y000988D02*
X018678Y000988D01*
X018628Y000890D02*
X018933Y000890D01*
X020680Y000496D02*
X029440Y000496D01*
X028462Y000594D02*
X027598Y000594D01*
X027598Y000693D02*
X028298Y000693D01*
X028200Y000791D02*
X027598Y000791D01*
X027598Y000890D02*
X028142Y000890D01*
X028101Y000988D02*
X027598Y000988D01*
X027598Y001087D02*
X028073Y001087D01*
X028073Y001185D02*
X027598Y001185D01*
X027598Y001284D02*
X028073Y001284D01*
X028102Y001382D02*
X027552Y001382D01*
X027197Y001481D02*
X028142Y001481D01*
X028201Y001579D02*
X027200Y001579D01*
X027189Y001678D02*
X028300Y001678D01*
X028465Y001776D02*
X027140Y001776D01*
X026820Y001776D02*
X026257Y001776D01*
X026159Y001678D02*
X026772Y001678D01*
X026760Y001579D02*
X026060Y001579D01*
X025962Y001481D02*
X026764Y001481D01*
X026401Y001382D02*
X025863Y001382D01*
X025905Y001284D02*
X026355Y001284D01*
X026355Y001185D02*
X025905Y001185D01*
X025905Y001087D02*
X026355Y001087D01*
X026355Y000988D02*
X025905Y000988D01*
X025905Y000890D02*
X026355Y000890D01*
X026355Y000791D02*
X025905Y000791D01*
X025905Y000693D02*
X026355Y000693D01*
X026355Y000594D02*
X025905Y000594D01*
X024662Y000594D02*
X023848Y000594D01*
X023848Y000693D02*
X024662Y000693D01*
X024662Y000791D02*
X023848Y000791D01*
X023848Y000890D02*
X024662Y000890D01*
X024662Y000988D02*
X023848Y000988D01*
X023848Y001087D02*
X024662Y001087D01*
X024662Y001185D02*
X023848Y001185D01*
X023848Y001284D02*
X024236Y001284D01*
X024185Y001382D02*
X023802Y001382D01*
X024123Y001481D02*
X022804Y001481D01*
X022706Y001579D02*
X022975Y001579D01*
X022876Y001678D02*
X022607Y001678D01*
X022509Y001776D02*
X022778Y001776D01*
X022679Y001875D02*
X022410Y001875D01*
X022312Y001973D02*
X022581Y001973D01*
X022482Y002072D02*
X021185Y002072D01*
X021185Y002170D02*
X022420Y002170D01*
X022420Y002269D02*
X021160Y002269D01*
X021139Y002610D02*
X021185Y002656D01*
X021185Y003369D01*
X021139Y003415D01*
X021450Y003415D01*
X021450Y003695D01*
X020950Y003695D01*
X020950Y003545D01*
X020960Y003507D01*
X020980Y003473D01*
X021008Y003445D01*
X021038Y003427D01*
X020910Y003427D01*
X020910Y003994D01*
X020950Y004034D01*
X020950Y004216D01*
X020856Y004311D01*
X020979Y004434D01*
X021011Y004513D01*
X021059Y004465D01*
X021902Y004465D01*
X021960Y004524D01*
X021960Y004926D01*
X021902Y004985D01*
X021059Y004985D01*
X021000Y004926D01*
X021000Y004914D01*
X020979Y004966D01*
X020905Y005040D01*
X021846Y005040D01*
X021940Y005134D01*
X022061Y005255D01*
X022384Y005255D01*
X022399Y005240D01*
X022750Y005240D01*
X022750Y005181D01*
X022727Y005205D01*
X022044Y005205D01*
X021985Y005146D01*
X021985Y004814D01*
X022044Y004755D01*
X022727Y004755D01*
X022750Y004779D01*
X022750Y004681D01*
X022727Y004705D01*
X022044Y004705D01*
X021985Y004646D01*
X021985Y004314D01*
X022044Y004255D01*
X022727Y004255D01*
X022750Y004279D01*
X022750Y004241D01*
X022743Y004245D01*
X022705Y004255D01*
X022398Y004255D01*
X022398Y003993D01*
X022373Y003993D01*
X022373Y004255D01*
X022065Y004255D01*
X022027Y004245D01*
X021993Y004225D01*
X021965Y004197D01*
X021945Y004163D01*
X021935Y004125D01*
X021935Y004015D01*
X021918Y004025D01*
X021880Y004035D01*
X021510Y004035D01*
X021510Y003755D01*
X021450Y003755D01*
X021450Y003695D01*
X021510Y003695D01*
X021510Y003415D01*
X021880Y003415D01*
X021918Y003425D01*
X021952Y003445D01*
X021980Y003473D01*
X021985Y003482D01*
X021985Y003314D01*
X022044Y003255D01*
X022170Y003255D01*
X022170Y002816D01*
X021964Y002610D01*
X021139Y002610D01*
X021185Y002663D02*
X022016Y002663D01*
X022115Y002761D02*
X021185Y002761D01*
X021185Y002860D02*
X022170Y002860D01*
X022170Y002958D02*
X021185Y002958D01*
X021185Y003057D02*
X022170Y003057D01*
X022170Y003155D02*
X021185Y003155D01*
X021185Y003254D02*
X022170Y003254D01*
X021985Y003352D02*
X021185Y003352D01*
X021003Y003451D02*
X020910Y003451D01*
X020910Y003549D02*
X020950Y003549D01*
X020950Y003648D02*
X020910Y003648D01*
X020910Y003746D02*
X021450Y003746D01*
X021450Y003755D02*
X020950Y003755D01*
X020950Y003905D01*
X020960Y003943D01*
X020980Y003977D01*
X021008Y004005D01*
X021042Y004025D01*
X021080Y004035D01*
X021450Y004035D01*
X021450Y003755D01*
X021510Y003755D02*
X021973Y003755D01*
X021993Y003735D01*
X022027Y003715D01*
X022065Y003705D01*
X022373Y003705D01*
X022373Y003967D01*
X022398Y003967D01*
X022398Y003705D01*
X022705Y003705D01*
X022743Y003715D01*
X022750Y003719D01*
X022750Y003681D01*
X022727Y003705D01*
X022044Y003705D01*
X022010Y003671D01*
X022010Y003695D01*
X021510Y003695D01*
X021510Y003755D01*
X021510Y003746D02*
X021982Y003746D01*
X022373Y003746D02*
X022398Y003746D01*
X022398Y003845D02*
X022373Y003845D01*
X022373Y003943D02*
X022398Y003943D01*
X022398Y004042D02*
X022373Y004042D01*
X022373Y004140D02*
X022398Y004140D01*
X022398Y004239D02*
X022373Y004239D01*
X022016Y004239D02*
X020928Y004239D01*
X020950Y004140D02*
X021939Y004140D01*
X021935Y004042D02*
X020950Y004042D01*
X020960Y003943D02*
X020910Y003943D01*
X020910Y003845D02*
X020950Y003845D01*
X021450Y003845D02*
X021510Y003845D01*
X021510Y003943D02*
X021450Y003943D01*
X021450Y003648D02*
X021510Y003648D01*
X021510Y003549D02*
X021450Y003549D01*
X021450Y003451D02*
X021510Y003451D01*
X021958Y003451D02*
X021985Y003451D01*
X019970Y003845D02*
X019660Y003845D01*
X019753Y003943D02*
X019970Y003943D01*
X019970Y004042D02*
X019794Y004042D01*
X019807Y004140D02*
X019970Y004140D01*
X019965Y004239D02*
X019800Y004239D01*
X019759Y004337D02*
X019867Y004337D01*
X019768Y004436D02*
X019675Y004436D01*
X019670Y004534D02*
X018290Y004534D01*
X018290Y004633D02*
X019571Y004633D01*
X019473Y004731D02*
X018472Y004731D01*
X018550Y004830D02*
X019374Y004830D01*
X020882Y004337D02*
X021985Y004337D01*
X021985Y004436D02*
X020979Y004436D01*
X021960Y004534D02*
X021985Y004534D01*
X021985Y004633D02*
X021960Y004633D01*
X021960Y004731D02*
X022750Y004731D01*
X021985Y004830D02*
X021960Y004830D01*
X021959Y004928D02*
X021985Y004928D01*
X021985Y005027D02*
X020918Y005027D01*
X020994Y004928D02*
X021002Y004928D01*
X021931Y005125D02*
X021985Y005125D01*
X022030Y005224D02*
X022750Y005224D01*
X022685Y005716D02*
X021510Y005716D01*
X021510Y005618D02*
X021450Y005618D01*
X021450Y005519D02*
X021510Y005519D01*
X021510Y005421D02*
X021450Y005421D01*
X021060Y005421D02*
X020936Y005421D01*
X020950Y005815D02*
X019721Y005815D01*
X019819Y005913D02*
X020952Y005913D01*
X021019Y006012D02*
X019918Y006012D01*
X019564Y006110D02*
X017564Y006110D01*
X017470Y006016D01*
X017367Y005913D02*
X015550Y005913D01*
X015653Y005815D02*
X017268Y005815D01*
X017220Y005716D02*
X015755Y005716D01*
X015858Y005618D02*
X016637Y005618D01*
X014395Y006209D02*
X014150Y006209D01*
X014242Y006307D02*
X014297Y006307D01*
X014314Y006290D02*
X014314Y006290D01*
X015854Y004337D02*
X015970Y004337D01*
X015970Y004239D02*
X015950Y004239D01*
X015950Y004140D02*
X015970Y004140D01*
X015970Y004042D02*
X015933Y004042D01*
X015897Y003943D02*
X015834Y003943D01*
X015870Y003845D02*
X015590Y003845D01*
X015590Y003943D02*
X015626Y003943D01*
X015528Y004042D02*
X015515Y004042D01*
X015590Y003746D02*
X015870Y003746D01*
X017357Y003451D02*
X017470Y003451D01*
X017470Y003549D02*
X017455Y003549D01*
X018290Y002564D02*
X018840Y002564D01*
X018988Y002466D02*
X018290Y002466D01*
X018290Y002367D02*
X018905Y002367D01*
X018864Y002269D02*
X018290Y002269D01*
X018290Y002170D02*
X018850Y002170D01*
X018395Y002072D02*
X018290Y002072D01*
X019019Y001776D02*
X019059Y001776D01*
X019006Y001678D02*
X019720Y001678D01*
X019720Y001776D02*
X019501Y001776D01*
X019613Y001875D02*
X019720Y001875D01*
X019720Y001973D02*
X019672Y001973D01*
X019710Y002072D02*
X019720Y002072D01*
X019710Y002170D02*
X019720Y002170D01*
X021185Y001678D02*
X022098Y001678D01*
X022197Y001579D02*
X021185Y001579D01*
X021134Y001481D02*
X022295Y001481D01*
X022394Y001382D02*
X022109Y001382D01*
X022155Y001284D02*
X022492Y001284D01*
X022591Y001185D02*
X022155Y001185D01*
X022155Y001087D02*
X022605Y001087D01*
X022605Y000988D02*
X022155Y000988D01*
X022155Y000890D02*
X022605Y000890D01*
X022605Y000791D02*
X022155Y000791D01*
X022155Y000693D02*
X022605Y000693D01*
X022605Y000594D02*
X022155Y000594D01*
X020912Y000594D02*
X020779Y000594D01*
X020877Y000693D02*
X020912Y000693D01*
X023033Y001973D02*
X023081Y001973D01*
X023132Y001875D02*
X025022Y001875D01*
X024923Y001973D02*
X023679Y001973D01*
X024280Y001776D02*
X025260Y001776D01*
X025638Y001776D02*
X025805Y001776D01*
X025876Y001875D02*
X025903Y001875D01*
X025975Y001973D02*
X026002Y001973D01*
X026356Y001875D02*
X026820Y001875D01*
X026820Y001973D02*
X026454Y001973D01*
X025706Y001678D02*
X024379Y001678D01*
X024562Y001579D02*
X025608Y001579D01*
X025509Y001481D02*
X024625Y001481D01*
X024625Y001382D02*
X024708Y001382D01*
X024662Y001284D02*
X024575Y001284D01*
X022420Y002367D02*
X022173Y002367D01*
X022272Y002466D02*
X022388Y002466D01*
X016003Y001481D02*
X015558Y001481D01*
X015649Y001382D02*
X015911Y001382D01*
X015870Y001284D02*
X015690Y001284D01*
X015710Y001185D02*
X015850Y001185D01*
X015850Y001087D02*
X015710Y001087D01*
X015678Y000988D02*
X015882Y000988D01*
X015933Y000890D02*
X015628Y000890D01*
X006797Y004239D02*
X006030Y004239D01*
X006030Y004337D02*
X006837Y004337D01*
X006905Y004436D02*
X006030Y004436D01*
X006030Y004534D02*
X007025Y004534D01*
X007230Y004534D02*
X007330Y004534D01*
X007330Y004436D02*
X007230Y004436D01*
X007230Y004337D02*
X007330Y004337D01*
X008023Y006800D02*
X006030Y006800D01*
X008538Y006800D02*
X009023Y006800D01*
X008924Y006898D02*
X008636Y006898D01*
X008682Y006997D02*
X008878Y006997D01*
X008850Y007095D02*
X008710Y007095D01*
X008710Y007194D02*
X008850Y007194D01*
X008874Y007292D02*
X008687Y007292D01*
X008646Y007391D02*
X008914Y007391D01*
X009011Y007489D02*
X008549Y007489D01*
X008123Y007883D02*
X009321Y007883D01*
X009478Y008179D02*
X010075Y008179D01*
X009977Y008277D02*
X009379Y008277D01*
X009281Y008376D02*
X009920Y008376D01*
X009920Y008474D02*
X009240Y008474D01*
X009318Y008573D02*
X009842Y008573D01*
X009743Y008671D02*
X009417Y008671D01*
X009480Y008770D02*
X009680Y008770D01*
X009680Y008868D02*
X009480Y008868D01*
X009480Y008967D02*
X009680Y008967D01*
X009680Y009065D02*
X009480Y009065D01*
X009382Y009164D02*
X009778Y009164D01*
X009876Y009262D02*
X009284Y009262D01*
X008876Y009262D02*
X008518Y009262D01*
X008520Y009258D02*
X008500Y009292D01*
X008472Y009320D01*
X008438Y009340D01*
X008400Y009350D01*
X008130Y009350D01*
X008130Y008950D01*
X008530Y008950D01*
X008530Y009220D01*
X008520Y009258D01*
X008530Y009164D02*
X008778Y009164D01*
X008680Y009065D02*
X008530Y009065D01*
X008530Y008967D02*
X008680Y008967D01*
X008130Y008967D02*
X008030Y008967D01*
X008030Y009065D02*
X008130Y009065D01*
X008130Y009164D02*
X008030Y009164D01*
X008030Y009262D02*
X008130Y009262D01*
X008130Y008671D02*
X008030Y008671D01*
X008030Y008573D02*
X008130Y008573D01*
X008130Y008474D02*
X008030Y008474D01*
X007698Y008474D02*
X007590Y008474D01*
X007590Y008573D02*
X007632Y008573D01*
X007630Y008671D02*
X007590Y008671D01*
X007590Y008770D02*
X007630Y008770D01*
X006542Y008573D02*
X006030Y008573D01*
X006030Y008671D02*
X006443Y008671D01*
X006380Y008770D02*
X006030Y008770D01*
X006030Y008868D02*
X006380Y008868D01*
X006380Y008967D02*
X006030Y008967D01*
X006030Y009065D02*
X006380Y009065D01*
X006478Y009164D02*
X006030Y009164D01*
X006030Y009262D02*
X006576Y009262D01*
X010284Y009262D02*
X010876Y009262D01*
X010778Y009164D02*
X010382Y009164D01*
X010480Y009065D02*
X010680Y009065D01*
X010680Y008967D02*
X010480Y008967D01*
X010480Y008868D02*
X010680Y008868D01*
X010680Y008770D02*
X010480Y008770D01*
X010417Y008671D02*
X010743Y008671D01*
X010842Y008573D02*
X010318Y008573D01*
X010240Y008474D02*
X010930Y008474D01*
X011028Y008376D02*
X010331Y008376D01*
X021450Y006012D02*
X021510Y006012D01*
X021510Y005913D02*
X021450Y005913D01*
D33*
X020630Y007325D02*
X020255Y007325D01*
X019630Y007950D01*
X013880Y004700D02*
X013880Y003450D01*
X013130Y003550D02*
X012980Y003550D01*
X009330Y003550D01*
X009080Y003300D01*
X008230Y003300D01*
X013130Y003550D02*
X014780Y001950D01*
X014780Y000850D01*
X014980Y000650D01*
X020580Y000650D01*
X020880Y000950D01*
X021534Y000950D01*
X022143Y001888D02*
X023080Y000950D01*
X023227Y000950D01*
X022143Y001888D02*
X020730Y001888D01*
X020730Y003050D02*
X020730Y004125D01*
D34*
X013880Y004700D03*
X013880Y003450D03*
M02*
